G04 #@! TF.FileFunction,Soldermask,Bot*
%FSLAX46Y46*%
G04 Gerber Fmt 4.6, Leading zero omitted, Abs format (unit mm)*
G04 Created by KiCad (PCBNEW 4.0.7) date 03/18/18 22:00:37*
%MOMM*%
%LPD*%
G01*
G04 APERTURE LIST*
%ADD10C,0.100000*%
%ADD11C,2.000000*%
%ADD12O,2.000000X2.000000*%
%ADD13C,1.924000*%
%ADD14C,3.900120*%
%ADD15R,2.000000X2.000000*%
%ADD16O,3.900000X3.900000*%
%ADD17R,2.200000X2.200000*%
%ADD18O,2.200000X2.200000*%
%ADD19R,2.900000X1.500000*%
%ADD20O,2.900000X1.500000*%
%ADD21C,2.500000*%
%ADD22C,2.150000*%
%ADD23C,5.200000*%
%ADD24R,5.200000X5.200000*%
%ADD25R,2.100000X2.100000*%
%ADD26O,2.100000X2.100000*%
%ADD27C,1.920000*%
%ADD28R,1.920000X1.920000*%
%ADD29C,1.400000*%
%ADD30R,1.400000X1.400000*%
%ADD31C,2.200000*%
%ADD32C,2.020000*%
%ADD33R,1.900000X1.900000*%
%ADD34R,2.020000X2.020000*%
%ADD35R,3.200000X3.200000*%
%ADD36O,3.200000X3.200000*%
%ADD37R,2.600000X2.600000*%
%ADD38O,2.600000X2.600000*%
%ADD39C,2.800000*%
%ADD40R,2.800000X2.800000*%
%ADD41O,2.800000X2.800000*%
G04 APERTURE END LIST*
D10*
D11*
X188595000Y-86995000D03*
D12*
X188595000Y-76835000D03*
X208280000Y-90170000D03*
X205740000Y-90170000D03*
X203200000Y-90170000D03*
X200660000Y-90170000D03*
X200660000Y-97790000D03*
X203200000Y-97790000D03*
X205740000Y-97790000D03*
X208280000Y-97790000D03*
D11*
X220980000Y-73025000D03*
D12*
X220980000Y-83185000D03*
D13*
X205740000Y-81915000D03*
X205740000Y-84455000D03*
X205740000Y-79375000D03*
D14*
X87376000Y-106039920D03*
X87376000Y-66040000D03*
X237375700Y-66040000D03*
X237375700Y-106039920D03*
D15*
X216535000Y-103815000D03*
D11*
X216535000Y-107315000D03*
X202946000Y-100584000D03*
X200446000Y-100584000D03*
X195580000Y-97830000D03*
X195580000Y-100330000D03*
D15*
X213995000Y-73025000D03*
D12*
X213995000Y-83185000D03*
D16*
X228600000Y-68430000D03*
D17*
X226060000Y-85090000D03*
D18*
X228600000Y-85090000D03*
X231140000Y-85090000D03*
D11*
X232410000Y-98425000D03*
D12*
X232410000Y-88265000D03*
D11*
X173355000Y-104775000D03*
D12*
X173355000Y-94615000D03*
D11*
X210820000Y-73025000D03*
D12*
X210820000Y-83185000D03*
D11*
X184785000Y-94615000D03*
D12*
X184785000Y-104775000D03*
D19*
X110268000Y-79884000D03*
D20*
X110268000Y-81884000D03*
X110268000Y-83884000D03*
X110268000Y-85884000D03*
X110268000Y-87884000D03*
X110268000Y-89884000D03*
X110268000Y-91884000D03*
X110268000Y-93884000D03*
X125668000Y-93884000D03*
X125568000Y-91884000D03*
X125668000Y-89884000D03*
X125668000Y-87884000D03*
X125668000Y-85884000D03*
X125668000Y-83884000D03*
X125668000Y-81884000D03*
X125668000Y-79884000D03*
D21*
X103296000Y-66498000D03*
D22*
X102036000Y-64008000D03*
X97536000Y-64008000D03*
D21*
X96286000Y-66498000D03*
X132994000Y-66525000D03*
D22*
X131734000Y-64035000D03*
X127234000Y-64035000D03*
D21*
X125984000Y-66525000D03*
D11*
X208280000Y-104140000D03*
D12*
X198120000Y-104140000D03*
D11*
X184785000Y-81280000D03*
D12*
X184785000Y-91440000D03*
D23*
X162296000Y-68834000D03*
D24*
X162296000Y-74934000D03*
D23*
X157216000Y-71124000D03*
D25*
X139192000Y-76708000D03*
D26*
X141732000Y-76708000D03*
X144272000Y-76708000D03*
D25*
X87374740Y-79691180D03*
D26*
X87374740Y-82231180D03*
X87374740Y-84771180D03*
X87374740Y-87311180D03*
X87374740Y-89851180D03*
X87374740Y-92391180D03*
D27*
X206375000Y-74295000D03*
X206375000Y-71755000D03*
D28*
X206375000Y-76835000D03*
D27*
X189865000Y-92075000D03*
X189865000Y-94615000D03*
D28*
X189865000Y-89535000D03*
D11*
X169545000Y-104775000D03*
D12*
X169545000Y-94615000D03*
D11*
X180975000Y-104775000D03*
D12*
X180975000Y-94615000D03*
D11*
X177165000Y-104775000D03*
D12*
X177165000Y-94615000D03*
D25*
X237374740Y-87311180D03*
D26*
X237374740Y-84771180D03*
D29*
X193040000Y-68580000D03*
X194310000Y-67310000D03*
D30*
X194310000Y-69850000D03*
D11*
X210820000Y-65405000D03*
D12*
X220980000Y-65405000D03*
D17*
X184150000Y-74295000D03*
D31*
X184150000Y-71755000D03*
D11*
X188595000Y-74295000D03*
D12*
X188595000Y-64135000D03*
D32*
X94655000Y-99735000D03*
X97155000Y-102235000D03*
X99655000Y-99735000D03*
D33*
X108585000Y-106045000D03*
D11*
X192405000Y-86995000D03*
D12*
X192405000Y-76835000D03*
D34*
X190500000Y-103505000D03*
D32*
X190500000Y-100965000D03*
X190500000Y-98425000D03*
D11*
X201930000Y-84455000D03*
X199430000Y-84455000D03*
D29*
X200025000Y-71755000D03*
X201295000Y-70485000D03*
D30*
X201295000Y-73025000D03*
D11*
X210820000Y-69215000D03*
D12*
X220980000Y-69215000D03*
D11*
X196215000Y-86995000D03*
D12*
X196215000Y-76835000D03*
D11*
X180975000Y-81280000D03*
D12*
X180975000Y-91440000D03*
D11*
X201890000Y-67310000D03*
X199390000Y-67310000D03*
D15*
X199390000Y-87630000D03*
D12*
X209550000Y-87630000D03*
D27*
X194945000Y-92075000D03*
X194945000Y-94615000D03*
D28*
X194945000Y-89535000D03*
D27*
X201295000Y-78740000D03*
X201295000Y-76200000D03*
D28*
X201295000Y-81280000D03*
D35*
X167640000Y-80645000D03*
D36*
X154940000Y-80645000D03*
D37*
X217170000Y-83185000D03*
D38*
X217170000Y-73025000D03*
D39*
X217805000Y-95250000D03*
X217805000Y-88250000D03*
D15*
X227330000Y-103505000D03*
D11*
X227330000Y-107005000D03*
D40*
X227330000Y-98425000D03*
D41*
X227330000Y-88265000D03*
M02*
