M48
;DRILL file {KiCad 4.0.7} date 03/18/18 22:00:39
;FORMAT={-:-/ absolute / inch / decimal}
FMAT,2
INCH,TZ
T1C0.016
T2C0.024
T3C0.026
T4C0.031
T5C0.035
T6C0.039
T7C0.039
T8C0.040
T9C0.043
T10C0.047
T11C0.051
T12C0.055
T13C0.138
T14C0.138
%
G90
G05
M72
T1
X3.5277Y-3.4062
X3.5348Y-3.1378
X3.558Y-3.3314
X3.5777Y-3.6106
X3.5956Y-3.2374
X3.78Y-3.33
X3.78Y-3.48
X3.78Y-3.54
X3.87Y-3.33
X3.94Y-3.64
X3.9417Y-3.6
X3.95Y-3.03
X4.0221Y-3.2542
X4.06Y-3.3
X4.11Y-3.64
X4.11Y-3.85
X4.1244Y-4.0855
X4.2Y-3.62
X4.2082Y-3.8392
X4.3346Y-3.8406
X4.3967Y-4.0845
X4.5722Y-3.8402
X4.63Y-3.79
X4.75Y-3.4
X4.75Y-3.725
X4.8453Y-3.8402
X4.85Y-3.62
X4.85Y-3.66
X4.85Y-3.7
X5.08Y-3.3
X5.0826Y-3.1453
X5.0833Y-3.2238
X5.15Y-4.23
X5.2521Y-3.7019
X5.26Y-3.55
X5.26Y-3.6
X5.32Y-4.18
X5.41Y-3.79
X5.41Y-3.83
X5.41Y-3.87
X5.92Y-3.4
X5.97Y-3.46
X6.01Y-3.95
X6.02Y-3.46
X6.0438Y-3.2983
X6.08Y-3.87
X6.3909Y-3.8892
T2
X7.6Y-2.7
X7.65Y-2.65
X7.65Y-2.75
X7.875Y-2.825
X7.925Y-2.775
X7.925Y-2.875
T3
X4.3688Y-3.145
X4.3688Y-3.2238
X4.3688Y-3.3025
X4.3688Y-3.3813
X4.3688Y-3.46
X4.3688Y-3.5387
X4.3688Y-3.6175
X4.3688Y-3.6962
X4.92Y-3.145
X4.92Y-3.2238
X4.92Y-3.3025
X4.92Y-3.3813
X4.92Y-3.46
X4.92Y-3.5387
X4.92Y-3.6175
X4.92Y-3.6962
T4
X4.275Y-4.175
X6.675Y-3.725
X6.675Y-4.125
X6.825Y-3.725
X6.825Y-4.125
X6.975Y-3.725
X6.975Y-4.125
X7.125Y-3.2
X7.125Y-3.6
X7.125Y-3.725
X7.125Y-4.125
X7.275Y-3.2
X7.275Y-3.6
X7.275Y-3.725
X7.275Y-4.125
X7.425Y-2.525
X7.425Y-2.925
X7.425Y-3.025
X7.425Y-3.425
X7.475Y-3.525
X7.475Y-3.625
X7.475Y-3.725
X7.575Y-3.025
X7.575Y-3.425
X7.675Y-3.525
X7.675Y-3.625
X7.675Y-3.725
X7.7Y-3.8516
X7.7Y-3.95
X7.725Y-3.025
X7.725Y-3.425
X7.8Y-4.1
X7.85Y-2.65
X7.85Y-3.45
X7.8516Y-3.325
X7.8916Y-3.96
X7.9Y-3.55
X7.9Y-3.85
X7.925Y-3.
X7.925Y-3.1
X7.925Y-3.2
X7.9484Y-2.65
X7.95Y-3.325
X7.99Y-3.96
X8.Y-3.55
X8.Y-3.85
X8.1Y-3.125
X8.1Y-3.225
X8.1Y-3.325
X8.1Y-3.55
X8.1Y-3.85
X8.125Y-2.825
X8.125Y-2.925
X8.125Y-3.025
X8.2Y-3.55
X8.2Y-3.85
X8.2Y-4.1
X8.25Y-3.45
X8.3Y-2.575
X8.3Y-2.725
X8.3Y-2.875
X8.3Y-3.275
X8.425Y-2.875
X8.425Y-3.275
X8.525Y-4.0872
X8.525Y-4.225
X8.7Y-2.575
X8.7Y-2.725
X8.7Y-2.875
X8.7Y-3.275
X8.95Y-4.075
X8.95Y-4.2128
X9.15Y-3.475
X9.15Y-3.875
T5
X3.7266Y-3.9266
X3.825Y-4.025
X3.9234Y-3.9266
X7.25Y-2.825
X7.25Y-2.925
X7.5Y-3.875
X7.5Y-3.975
X7.5Y-4.075
T6
X3.84Y-2.52
X4.0172Y-2.52
X5.0092Y-2.5211
X5.1864Y-2.5211
T7
X3.44Y-3.1374
X3.44Y-3.2374
X3.44Y-3.3374
X3.44Y-3.4374
X3.44Y-3.5374
X3.44Y-3.6374
X5.48Y-3.02
X5.58Y-3.02
X5.68Y-3.02
X8.9Y-3.35
X9.Y-3.35
X9.1Y-3.35
X9.3455Y-3.3374
X9.3455Y-3.4374
T9
X8.55Y-2.875
X8.55Y-3.275
T10
X8.575Y-3.4744
X8.575Y-3.75
X8.95Y-3.475
X8.95Y-3.875
T11
X3.7908Y-2.618
X4.0668Y-2.618
X4.96Y-2.6191
X5.236Y-2.6191
T12
X6.1Y-3.175
X6.6Y-3.175
T13
X9.Y-2.6941
T14
X3.44Y-2.6
X3.44Y-4.1748
X9.3455Y-2.6
X9.3455Y-4.1748
T8
X6.1896Y-2.7702G85X6.1896Y-2.8301
G05
X6.4195Y-2.71G85X6.3597Y-2.71
G05
X6.4195Y-2.9502G85X6.3597Y-2.9502
G05
T0
M30
