G04 #@! TF.FileFunction,Soldermask,Top*
%FSLAX46Y46*%
G04 Gerber Fmt 4.6, Leading zero omitted, Abs format (unit mm)*
G04 Created by KiCad (PCBNEW 4.0.7) date 06/23/18 17:50:09*
%MOMM*%
%LPD*%
G01*
G04 APERTURE LIST*
%ADD10C,0.100000*%
%ADD11C,2.000000*%
%ADD12O,2.000000X2.000000*%
%ADD13C,1.924000*%
%ADD14R,1.900000X1.650000*%
%ADD15C,3.900120*%
%ADD16R,2.000000X2.000000*%
%ADD17R,1.900000X1.700000*%
%ADD18O,3.900000X3.900000*%
%ADD19R,2.200000X2.200000*%
%ADD20O,2.200000X2.200000*%
%ADD21R,1.700000X1.900000*%
%ADD22R,4.200000X2.400000*%
%ADD23R,1.900000X2.400000*%
%ADD24R,2.900000X1.500000*%
%ADD25O,2.900000X1.500000*%
%ADD26C,2.500000*%
%ADD27C,2.150000*%
%ADD28R,3.600000X1.900000*%
%ADD29R,3.600000X2.900000*%
%ADD30C,5.200000*%
%ADD31R,5.200000X5.200000*%
%ADD32R,2.100000X2.100000*%
%ADD33O,2.100000X2.100000*%
%ADD34R,2.150000X0.850000*%
%ADD35C,1.920000*%
%ADD36R,1.920000X1.920000*%
%ADD37C,1.400000*%
%ADD38R,1.400000X1.400000*%
%ADD39C,2.200000*%
%ADD40R,1.960000X1.050000*%
%ADD41R,1.650000X1.900000*%
%ADD42R,1.900000X1.900000*%
%ADD43R,3.200000X3.200000*%
%ADD44O,3.200000X3.200000*%
%ADD45R,2.600000X2.600000*%
%ADD46O,2.600000X2.600000*%
%ADD47C,2.800000*%
%ADD48R,2.800000X2.800000*%
%ADD49O,2.800000X2.800000*%
%ADD50C,1.840000*%
G04 APERTURE END LIST*
D10*
D11*
X188595000Y-86995000D03*
D12*
X188595000Y-76835000D03*
X208280000Y-90170000D03*
X205740000Y-90170000D03*
X203200000Y-90170000D03*
X200660000Y-90170000D03*
X200660000Y-97790000D03*
X203200000Y-97790000D03*
X205740000Y-97790000D03*
X208280000Y-97790000D03*
D11*
X220980000Y-73025000D03*
D12*
X220980000Y-83185000D03*
D13*
X205740000Y-81915000D03*
X205740000Y-84455000D03*
X205740000Y-79375000D03*
D14*
X106914000Y-96012000D03*
X104414000Y-96012000D03*
X106914000Y-93980000D03*
X104414000Y-93980000D03*
D15*
X87376000Y-106039920D03*
X87376000Y-66040000D03*
X237375700Y-66040000D03*
X237375700Y-106039920D03*
D16*
X216535000Y-103561000D03*
D11*
X216535000Y-107061000D03*
X202946000Y-100584000D03*
X200446000Y-100584000D03*
X194945000Y-97830000D03*
X194945000Y-100330000D03*
D16*
X213995000Y-73025000D03*
D12*
X213995000Y-83185000D03*
D17*
X148670000Y-84328000D03*
X145970000Y-84328000D03*
X130890000Y-106045000D03*
X128190000Y-106045000D03*
D18*
X228600000Y-68430000D03*
D19*
X226060000Y-85090000D03*
D20*
X228600000Y-85090000D03*
X231140000Y-85090000D03*
D11*
X232410000Y-98425000D03*
D12*
X232410000Y-88265000D03*
D11*
X173355000Y-104775000D03*
D12*
X173355000Y-94615000D03*
D11*
X210820000Y-73025000D03*
D12*
X210820000Y-83185000D03*
D11*
X184785000Y-94615000D03*
D12*
X184785000Y-104775000D03*
D17*
X140890000Y-84328000D03*
X143590000Y-84328000D03*
X101045000Y-69850000D03*
X98345000Y-69850000D03*
D21*
X106680000Y-80565000D03*
X106680000Y-83265000D03*
D17*
X104855000Y-102235000D03*
X102155000Y-102235000D03*
X130890000Y-69850000D03*
X128190000Y-69850000D03*
X130890000Y-103505000D03*
X128190000Y-103505000D03*
D22*
X149733000Y-94005000D03*
D23*
X149733000Y-100305000D03*
X152033000Y-100305000D03*
X147433000Y-100305000D03*
D24*
X110268000Y-79884000D03*
D25*
X110268000Y-81884000D03*
X110268000Y-83884000D03*
X110268000Y-85884000D03*
X110268000Y-87884000D03*
X110268000Y-89884000D03*
X110268000Y-91884000D03*
X110268000Y-93884000D03*
X125668000Y-93884000D03*
X125568000Y-91884000D03*
X125668000Y-89884000D03*
X125668000Y-87884000D03*
X125668000Y-85884000D03*
X125668000Y-83884000D03*
X125668000Y-81884000D03*
X125668000Y-79884000D03*
D22*
X139700000Y-94005000D03*
D23*
X139700000Y-100305000D03*
X142000000Y-100305000D03*
X137400000Y-100305000D03*
D26*
X103296000Y-66498000D03*
D27*
X102036000Y-64008000D03*
X97536000Y-64008000D03*
D26*
X96286000Y-66498000D03*
X132994000Y-66525000D03*
D27*
X131734000Y-64035000D03*
X127234000Y-64035000D03*
D26*
X125984000Y-66525000D03*
D28*
X151098000Y-103505000D03*
X147098000Y-103505000D03*
D29*
X149978000Y-90170000D03*
X145678000Y-90170000D03*
D28*
X141700000Y-103505000D03*
X137700000Y-103505000D03*
D29*
X140580000Y-90170000D03*
X136280000Y-90170000D03*
D11*
X208280000Y-104140000D03*
D12*
X198120000Y-104140000D03*
D11*
X184785000Y-81280000D03*
D12*
X184785000Y-91440000D03*
D30*
X162296000Y-68834000D03*
D31*
X162296000Y-74934000D03*
D30*
X157216000Y-71124000D03*
D32*
X139192000Y-76708000D03*
D33*
X141732000Y-76708000D03*
X144272000Y-76708000D03*
D14*
X100310000Y-81915000D03*
X97810000Y-81915000D03*
D34*
X95460000Y-83943000D03*
X95460000Y-84593000D03*
X95460000Y-85243000D03*
X95460000Y-85893000D03*
X95460000Y-86543000D03*
X95460000Y-87193000D03*
X95460000Y-87843000D03*
X95460000Y-88493000D03*
X95460000Y-89143000D03*
X95460000Y-89793000D03*
X102660000Y-89793000D03*
X102660000Y-89143000D03*
X102660000Y-88493000D03*
X102660000Y-87843000D03*
X102660000Y-87193000D03*
X102660000Y-86543000D03*
X102660000Y-85893000D03*
X102660000Y-85243000D03*
X102660000Y-84593000D03*
X102660000Y-83943000D03*
D35*
X206375000Y-74295000D03*
X206375000Y-71755000D03*
D36*
X206375000Y-76835000D03*
D35*
X189865000Y-92075000D03*
X189865000Y-94615000D03*
D36*
X189865000Y-89535000D03*
D11*
X169545000Y-104775000D03*
D12*
X169545000Y-94615000D03*
D11*
X180975000Y-104775000D03*
D12*
X180975000Y-94615000D03*
D11*
X177165000Y-104775000D03*
D12*
X177165000Y-94615000D03*
D32*
X237374740Y-87311180D03*
D33*
X237374740Y-84771180D03*
D37*
X192405000Y-71120000D03*
X191135000Y-69850000D03*
D38*
X193675000Y-69850000D03*
D11*
X210820000Y-65405000D03*
D12*
X220980000Y-65405000D03*
D19*
X178816000Y-69850000D03*
D39*
X181356000Y-69850000D03*
D11*
X174752000Y-74168000D03*
D12*
X184912000Y-74168000D03*
D17*
X111680000Y-97790000D03*
X114380000Y-97790000D03*
X123270000Y-97790000D03*
X120570000Y-97790000D03*
D40*
X111680000Y-100015000D03*
X111680000Y-100965000D03*
X111680000Y-101915000D03*
X114380000Y-101915000D03*
X114380000Y-100015000D03*
X114380000Y-100965000D03*
D41*
X116840000Y-100310000D03*
X116840000Y-97810000D03*
D42*
X108585000Y-106045000D03*
D11*
X192405000Y-86995000D03*
D12*
X192405000Y-76835000D03*
D11*
X201930000Y-84455000D03*
X199430000Y-84455000D03*
D37*
X200025000Y-71755000D03*
X201295000Y-70485000D03*
D38*
X201295000Y-73025000D03*
D11*
X210820000Y-69215000D03*
D12*
X220980000Y-69215000D03*
D11*
X196215000Y-86995000D03*
D12*
X196215000Y-76835000D03*
D11*
X180975000Y-81280000D03*
D12*
X180975000Y-91440000D03*
D11*
X201890000Y-67310000D03*
X199390000Y-67310000D03*
D16*
X199390000Y-87630000D03*
D12*
X209550000Y-87630000D03*
D35*
X194945000Y-92075000D03*
X194945000Y-94615000D03*
D36*
X194945000Y-89535000D03*
D35*
X201295000Y-78740000D03*
X201295000Y-76200000D03*
D36*
X201295000Y-81280000D03*
D43*
X168656000Y-80645000D03*
D44*
X155956000Y-80645000D03*
D45*
X217170000Y-83185000D03*
D46*
X217170000Y-73025000D03*
D47*
X217805000Y-95250000D03*
X217805000Y-88250000D03*
D16*
X227330000Y-103561000D03*
D11*
X227330000Y-107061000D03*
D48*
X227330000Y-98425000D03*
D49*
X227330000Y-88265000D03*
D32*
X87374740Y-93661180D03*
D33*
X87374740Y-91121180D03*
X87374740Y-88581180D03*
X87374740Y-86041180D03*
X87374740Y-83501180D03*
X87374740Y-80961180D03*
X87374740Y-78421180D03*
D11*
X177165000Y-91440000D03*
D12*
X177165000Y-81280000D03*
D11*
X173355000Y-81280000D03*
D12*
X173355000Y-91440000D03*
D50*
X189865000Y-98425000D03*
X189865000Y-100965000D03*
X189865000Y-103505000D03*
X97790000Y-98425000D03*
X97790000Y-100965000D03*
X97790000Y-103505000D03*
M02*
