G04 #@! TF.GenerationSoftware,KiCad,Pcbnew,(5.0.1)-4*
G04 #@! TF.CreationDate,2018-12-08T00:31:25+01:00*
G04 #@! TF.ProjectId,Baseboard,42617365626F6172642E6B696361645F,1.0*
G04 #@! TF.SameCoordinates,Original*
G04 #@! TF.FileFunction,Soldermask,Top*
G04 #@! TF.FilePolarity,Negative*
%FSLAX46Y46*%
G04 Gerber Fmt 4.6, Leading zero omitted, Abs format (unit mm)*
G04 Created by KiCad (PCBNEW (5.0.1)-4) date 08.12.2018 00:31:25*
%MOMM*%
%LPD*%
G01*
G04 APERTURE LIST*
%ADD10C,0.100000*%
G04 APERTURE END LIST*
D10*
G36*
X227505770Y-106076372D02*
X227621689Y-106099429D01*
X227803678Y-106174811D01*
X227967463Y-106284249D01*
X228106751Y-106423537D01*
X228216189Y-106587322D01*
X228291571Y-106769311D01*
X228330000Y-106962509D01*
X228330000Y-107159491D01*
X228291571Y-107352689D01*
X228216189Y-107534678D01*
X228106751Y-107698463D01*
X227967463Y-107837751D01*
X227803678Y-107947189D01*
X227621689Y-108022571D01*
X227505770Y-108045628D01*
X227428493Y-108061000D01*
X227231507Y-108061000D01*
X227154230Y-108045628D01*
X227038311Y-108022571D01*
X226856322Y-107947189D01*
X226692537Y-107837751D01*
X226553249Y-107698463D01*
X226443811Y-107534678D01*
X226368429Y-107352689D01*
X226330000Y-107159491D01*
X226330000Y-106962509D01*
X226368429Y-106769311D01*
X226443811Y-106587322D01*
X226553249Y-106423537D01*
X226692537Y-106284249D01*
X226856322Y-106174811D01*
X227038311Y-106099429D01*
X227154230Y-106076372D01*
X227231507Y-106061000D01*
X227428493Y-106061000D01*
X227505770Y-106076372D01*
X227505770Y-106076372D01*
G37*
G36*
X216710770Y-106076372D02*
X216826689Y-106099429D01*
X217008678Y-106174811D01*
X217172463Y-106284249D01*
X217311751Y-106423537D01*
X217421189Y-106587322D01*
X217496571Y-106769311D01*
X217535000Y-106962509D01*
X217535000Y-107159491D01*
X217496571Y-107352689D01*
X217421189Y-107534678D01*
X217311751Y-107698463D01*
X217172463Y-107837751D01*
X217008678Y-107947189D01*
X216826689Y-108022571D01*
X216710770Y-108045628D01*
X216633493Y-108061000D01*
X216436507Y-108061000D01*
X216359230Y-108045628D01*
X216243311Y-108022571D01*
X216061322Y-107947189D01*
X215897537Y-107837751D01*
X215758249Y-107698463D01*
X215648811Y-107534678D01*
X215573429Y-107352689D01*
X215535000Y-107159491D01*
X215535000Y-106962509D01*
X215573429Y-106769311D01*
X215648811Y-106587322D01*
X215758249Y-106423537D01*
X215897537Y-106284249D01*
X216061322Y-106174811D01*
X216243311Y-106099429D01*
X216359230Y-106076372D01*
X216436507Y-106061000D01*
X216633493Y-106061000D01*
X216710770Y-106076372D01*
X216710770Y-106076372D01*
G37*
G36*
X237661631Y-104108531D02*
X237944512Y-104164799D01*
X238299400Y-104311799D01*
X238618791Y-104525209D01*
X238890411Y-104796829D01*
X239103821Y-105116220D01*
X239250821Y-105471108D01*
X239325760Y-105847856D01*
X239325760Y-106231984D01*
X239250821Y-106608732D01*
X239103821Y-106963620D01*
X238890411Y-107283011D01*
X238618791Y-107554631D01*
X238299400Y-107768041D01*
X237944512Y-107915041D01*
X237661631Y-107971309D01*
X237567766Y-107989980D01*
X237183634Y-107989980D01*
X237089769Y-107971309D01*
X236806888Y-107915041D01*
X236452000Y-107768041D01*
X236132609Y-107554631D01*
X235860989Y-107283011D01*
X235647579Y-106963620D01*
X235500579Y-106608732D01*
X235425640Y-106231984D01*
X235425640Y-105847856D01*
X235500579Y-105471108D01*
X235647579Y-105116220D01*
X235860989Y-104796829D01*
X236132609Y-104525209D01*
X236452000Y-104311799D01*
X236806888Y-104164799D01*
X237089769Y-104108531D01*
X237183634Y-104089860D01*
X237567766Y-104089860D01*
X237661631Y-104108531D01*
X237661631Y-104108531D01*
G37*
G36*
X87661931Y-104108531D02*
X87944812Y-104164799D01*
X88299700Y-104311799D01*
X88619091Y-104525209D01*
X88890711Y-104796829D01*
X89104121Y-105116220D01*
X89251121Y-105471108D01*
X89326060Y-105847856D01*
X89326060Y-106231984D01*
X89251121Y-106608732D01*
X89104121Y-106963620D01*
X88890711Y-107283011D01*
X88619091Y-107554631D01*
X88299700Y-107768041D01*
X87944812Y-107915041D01*
X87661931Y-107971309D01*
X87568066Y-107989980D01*
X87183934Y-107989980D01*
X87090069Y-107971309D01*
X86807188Y-107915041D01*
X86452300Y-107768041D01*
X86132909Y-107554631D01*
X85861289Y-107283011D01*
X85647879Y-106963620D01*
X85500879Y-106608732D01*
X85425940Y-106231984D01*
X85425940Y-105847856D01*
X85500879Y-105471108D01*
X85647879Y-105116220D01*
X85861289Y-104796829D01*
X86132909Y-104525209D01*
X86452300Y-104311799D01*
X86807188Y-104164799D01*
X87090069Y-104108531D01*
X87183934Y-104089860D01*
X87568066Y-104089860D01*
X87661931Y-104108531D01*
X87661931Y-104108531D01*
G37*
G36*
X109535000Y-106995000D02*
X107635000Y-106995000D01*
X107635000Y-105095000D01*
X109535000Y-105095000D01*
X109535000Y-106995000D01*
X109535000Y-106995000D01*
G37*
G36*
X129140000Y-106895000D02*
X127240000Y-106895000D01*
X127240000Y-105195000D01*
X129140000Y-105195000D01*
X129140000Y-106895000D01*
X129140000Y-106895000D01*
G37*
G36*
X131840000Y-106895000D02*
X129940000Y-106895000D01*
X129940000Y-105195000D01*
X131840000Y-105195000D01*
X131840000Y-106895000D01*
X131840000Y-106895000D01*
G37*
G36*
X184981030Y-103789469D02*
X184981033Y-103789470D01*
X184981034Y-103789470D01*
X185169535Y-103846651D01*
X185169537Y-103846652D01*
X185343260Y-103939509D01*
X185495528Y-104064472D01*
X185620491Y-104216740D01*
X185620492Y-104216742D01*
X185713349Y-104390465D01*
X185754019Y-104524537D01*
X185770531Y-104578970D01*
X185789838Y-104775000D01*
X185770531Y-104971030D01*
X185770530Y-104971033D01*
X185770530Y-104971034D01*
X185719275Y-105140000D01*
X185713348Y-105159537D01*
X185620491Y-105333260D01*
X185495528Y-105485528D01*
X185343260Y-105610491D01*
X185343258Y-105610492D01*
X185169535Y-105703349D01*
X184981034Y-105760530D01*
X184981033Y-105760530D01*
X184981030Y-105760531D01*
X184834124Y-105775000D01*
X184735876Y-105775000D01*
X184588970Y-105760531D01*
X184588967Y-105760530D01*
X184588966Y-105760530D01*
X184400465Y-105703349D01*
X184226742Y-105610492D01*
X184226740Y-105610491D01*
X184074472Y-105485528D01*
X183949509Y-105333260D01*
X183856652Y-105159537D01*
X183850726Y-105140000D01*
X183799470Y-104971034D01*
X183799470Y-104971033D01*
X183799469Y-104971030D01*
X183780162Y-104775000D01*
X183799469Y-104578970D01*
X183815981Y-104524537D01*
X183856651Y-104390465D01*
X183949508Y-104216742D01*
X183949509Y-104216740D01*
X184074472Y-104064472D01*
X184226740Y-103939509D01*
X184400463Y-103846652D01*
X184400465Y-103846651D01*
X184588966Y-103789470D01*
X184588967Y-103789470D01*
X184588970Y-103789469D01*
X184735876Y-103775000D01*
X184834124Y-103775000D01*
X184981030Y-103789469D01*
X184981030Y-103789469D01*
G37*
G36*
X173530770Y-103790372D02*
X173646689Y-103813429D01*
X173828678Y-103888811D01*
X173992463Y-103998249D01*
X174131751Y-104137537D01*
X174241189Y-104301322D01*
X174316571Y-104483311D01*
X174355000Y-104676509D01*
X174355000Y-104873491D01*
X174316571Y-105066689D01*
X174241189Y-105248678D01*
X174131751Y-105412463D01*
X173992463Y-105551751D01*
X173828678Y-105661189D01*
X173646689Y-105736571D01*
X173530770Y-105759628D01*
X173453493Y-105775000D01*
X173256507Y-105775000D01*
X173179230Y-105759628D01*
X173063311Y-105736571D01*
X172881322Y-105661189D01*
X172717537Y-105551751D01*
X172578249Y-105412463D01*
X172468811Y-105248678D01*
X172393429Y-105066689D01*
X172355000Y-104873491D01*
X172355000Y-104676509D01*
X172393429Y-104483311D01*
X172468811Y-104301322D01*
X172578249Y-104137537D01*
X172717537Y-103998249D01*
X172881322Y-103888811D01*
X173063311Y-103813429D01*
X173179230Y-103790372D01*
X173256507Y-103775000D01*
X173453493Y-103775000D01*
X173530770Y-103790372D01*
X173530770Y-103790372D01*
G37*
G36*
X169720770Y-103790372D02*
X169836689Y-103813429D01*
X170018678Y-103888811D01*
X170182463Y-103998249D01*
X170321751Y-104137537D01*
X170431189Y-104301322D01*
X170506571Y-104483311D01*
X170545000Y-104676509D01*
X170545000Y-104873491D01*
X170506571Y-105066689D01*
X170431189Y-105248678D01*
X170321751Y-105412463D01*
X170182463Y-105551751D01*
X170018678Y-105661189D01*
X169836689Y-105736571D01*
X169720770Y-105759628D01*
X169643493Y-105775000D01*
X169446507Y-105775000D01*
X169369230Y-105759628D01*
X169253311Y-105736571D01*
X169071322Y-105661189D01*
X168907537Y-105551751D01*
X168768249Y-105412463D01*
X168658811Y-105248678D01*
X168583429Y-105066689D01*
X168545000Y-104873491D01*
X168545000Y-104676509D01*
X168583429Y-104483311D01*
X168658811Y-104301322D01*
X168768249Y-104137537D01*
X168907537Y-103998249D01*
X169071322Y-103888811D01*
X169253311Y-103813429D01*
X169369230Y-103790372D01*
X169446507Y-103775000D01*
X169643493Y-103775000D01*
X169720770Y-103790372D01*
X169720770Y-103790372D01*
G37*
G36*
X181150770Y-103790372D02*
X181266689Y-103813429D01*
X181448678Y-103888811D01*
X181612463Y-103998249D01*
X181751751Y-104137537D01*
X181861189Y-104301322D01*
X181936571Y-104483311D01*
X181975000Y-104676509D01*
X181975000Y-104873491D01*
X181936571Y-105066689D01*
X181861189Y-105248678D01*
X181751751Y-105412463D01*
X181612463Y-105551751D01*
X181448678Y-105661189D01*
X181266689Y-105736571D01*
X181150770Y-105759628D01*
X181073493Y-105775000D01*
X180876507Y-105775000D01*
X180799230Y-105759628D01*
X180683311Y-105736571D01*
X180501322Y-105661189D01*
X180337537Y-105551751D01*
X180198249Y-105412463D01*
X180088811Y-105248678D01*
X180013429Y-105066689D01*
X179975000Y-104873491D01*
X179975000Y-104676509D01*
X180013429Y-104483311D01*
X180088811Y-104301322D01*
X180198249Y-104137537D01*
X180337537Y-103998249D01*
X180501322Y-103888811D01*
X180683311Y-103813429D01*
X180799230Y-103790372D01*
X180876507Y-103775000D01*
X181073493Y-103775000D01*
X181150770Y-103790372D01*
X181150770Y-103790372D01*
G37*
G36*
X177340770Y-103790372D02*
X177456689Y-103813429D01*
X177638678Y-103888811D01*
X177802463Y-103998249D01*
X177941751Y-104137537D01*
X178051189Y-104301322D01*
X178126571Y-104483311D01*
X178165000Y-104676509D01*
X178165000Y-104873491D01*
X178126571Y-105066689D01*
X178051189Y-105248678D01*
X177941751Y-105412463D01*
X177802463Y-105551751D01*
X177638678Y-105661189D01*
X177456689Y-105736571D01*
X177340770Y-105759628D01*
X177263493Y-105775000D01*
X177066507Y-105775000D01*
X176989230Y-105759628D01*
X176873311Y-105736571D01*
X176691322Y-105661189D01*
X176527537Y-105551751D01*
X176388249Y-105412463D01*
X176278811Y-105248678D01*
X176203429Y-105066689D01*
X176165000Y-104873491D01*
X176165000Y-104676509D01*
X176203429Y-104483311D01*
X176278811Y-104301322D01*
X176388249Y-104137537D01*
X176527537Y-103998249D01*
X176691322Y-103888811D01*
X176873311Y-103813429D01*
X176989230Y-103790372D01*
X177066507Y-103775000D01*
X177263493Y-103775000D01*
X177340770Y-103790372D01*
X177340770Y-103790372D01*
G37*
G36*
X198316030Y-103154469D02*
X198316033Y-103154470D01*
X198316034Y-103154470D01*
X198504535Y-103211651D01*
X198504537Y-103211652D01*
X198678260Y-103304509D01*
X198830528Y-103429472D01*
X198955491Y-103581740D01*
X198955492Y-103581742D01*
X199048349Y-103755465D01*
X199104178Y-103939509D01*
X199105531Y-103943970D01*
X199124838Y-104140000D01*
X199105531Y-104336030D01*
X199105530Y-104336033D01*
X199105530Y-104336034D01*
X199078543Y-104425000D01*
X199048348Y-104524537D01*
X198955491Y-104698260D01*
X198830528Y-104850528D01*
X198678260Y-104975491D01*
X198678258Y-104975492D01*
X198504535Y-105068349D01*
X198316034Y-105125530D01*
X198316033Y-105125530D01*
X198316030Y-105125531D01*
X198169124Y-105140000D01*
X198070876Y-105140000D01*
X197923970Y-105125531D01*
X197923967Y-105125530D01*
X197923966Y-105125530D01*
X197735465Y-105068349D01*
X197561742Y-104975492D01*
X197561740Y-104975491D01*
X197409472Y-104850528D01*
X197284509Y-104698260D01*
X197191652Y-104524537D01*
X197161458Y-104425000D01*
X197134470Y-104336034D01*
X197134470Y-104336033D01*
X197134469Y-104336030D01*
X197115162Y-104140000D01*
X197134469Y-103943970D01*
X197135822Y-103939509D01*
X197191651Y-103755465D01*
X197284508Y-103581742D01*
X197284509Y-103581740D01*
X197409472Y-103429472D01*
X197561740Y-103304509D01*
X197735463Y-103211652D01*
X197735465Y-103211651D01*
X197923966Y-103154470D01*
X197923967Y-103154470D01*
X197923970Y-103154469D01*
X198070876Y-103140000D01*
X198169124Y-103140000D01*
X198316030Y-103154469D01*
X198316030Y-103154469D01*
G37*
G36*
X208455770Y-103155372D02*
X208571689Y-103178429D01*
X208753678Y-103253811D01*
X208917463Y-103363249D01*
X209056751Y-103502537D01*
X209166189Y-103666322D01*
X209241571Y-103848311D01*
X209280000Y-104041509D01*
X209280000Y-104238491D01*
X209241571Y-104431689D01*
X209166189Y-104613678D01*
X209056751Y-104777463D01*
X208917463Y-104916751D01*
X208753678Y-105026189D01*
X208571689Y-105101571D01*
X208455770Y-105124628D01*
X208378493Y-105140000D01*
X208181507Y-105140000D01*
X208104230Y-105124628D01*
X207988311Y-105101571D01*
X207806322Y-105026189D01*
X207642537Y-104916751D01*
X207503249Y-104777463D01*
X207393811Y-104613678D01*
X207318429Y-104431689D01*
X207280000Y-104238491D01*
X207280000Y-104041509D01*
X207318429Y-103848311D01*
X207393811Y-103666322D01*
X207503249Y-103502537D01*
X207642537Y-103363249D01*
X207806322Y-103253811D01*
X207988311Y-103178429D01*
X208104230Y-103155372D01*
X208181507Y-103140000D01*
X208378493Y-103140000D01*
X208455770Y-103155372D01*
X208455770Y-103155372D01*
G37*
G36*
X217535000Y-104561000D02*
X215535000Y-104561000D01*
X215535000Y-102561000D01*
X217535000Y-102561000D01*
X217535000Y-104561000D01*
X217535000Y-104561000D01*
G37*
G36*
X228330000Y-104561000D02*
X226330000Y-104561000D01*
X226330000Y-102561000D01*
X228330000Y-102561000D01*
X228330000Y-104561000D01*
X228330000Y-104561000D01*
G37*
G36*
X152898000Y-104455000D02*
X149298000Y-104455000D01*
X149298000Y-102555000D01*
X152898000Y-102555000D01*
X152898000Y-104455000D01*
X152898000Y-104455000D01*
G37*
G36*
X143500000Y-104455000D02*
X139900000Y-104455000D01*
X139900000Y-102555000D01*
X143500000Y-102555000D01*
X143500000Y-104455000D01*
X143500000Y-104455000D01*
G37*
G36*
X148898000Y-104455000D02*
X145298000Y-104455000D01*
X145298000Y-102555000D01*
X148898000Y-102555000D01*
X148898000Y-104455000D01*
X148898000Y-104455000D01*
G37*
G36*
X139500000Y-104455000D02*
X135900000Y-104455000D01*
X135900000Y-102555000D01*
X139500000Y-102555000D01*
X139500000Y-104455000D01*
X139500000Y-104455000D01*
G37*
G36*
X189498353Y-102620355D02*
X189665784Y-102689707D01*
X189816466Y-102790390D01*
X189944610Y-102918534D01*
X190045293Y-103069216D01*
X190114645Y-103236647D01*
X190150000Y-103414387D01*
X190150000Y-103595613D01*
X190114645Y-103773353D01*
X190045293Y-103940784D01*
X189944610Y-104091466D01*
X189816466Y-104219610D01*
X189665784Y-104320293D01*
X189498353Y-104389645D01*
X189320613Y-104425000D01*
X189139387Y-104425000D01*
X188961647Y-104389645D01*
X188794216Y-104320293D01*
X188643534Y-104219610D01*
X188515390Y-104091466D01*
X188414707Y-103940784D01*
X188345355Y-103773353D01*
X188310000Y-103595613D01*
X188310000Y-103414387D01*
X188345355Y-103236647D01*
X188414707Y-103069216D01*
X188515390Y-102918534D01*
X188643534Y-102790390D01*
X188794216Y-102689707D01*
X188961647Y-102620355D01*
X189139387Y-102585000D01*
X189320613Y-102585000D01*
X189498353Y-102620355D01*
X189498353Y-102620355D01*
G37*
G36*
X96153353Y-102620355D02*
X96320784Y-102689707D01*
X96471466Y-102790390D01*
X96599610Y-102918534D01*
X96700293Y-103069216D01*
X96769645Y-103236647D01*
X96805000Y-103414387D01*
X96805000Y-103595613D01*
X96769645Y-103773353D01*
X96700293Y-103940784D01*
X96599610Y-104091466D01*
X96471466Y-104219610D01*
X96320784Y-104320293D01*
X96153353Y-104389645D01*
X95975613Y-104425000D01*
X95794387Y-104425000D01*
X95616647Y-104389645D01*
X95449216Y-104320293D01*
X95298534Y-104219610D01*
X95170390Y-104091466D01*
X95069707Y-103940784D01*
X95000355Y-103773353D01*
X94965000Y-103595613D01*
X94965000Y-103414387D01*
X95000355Y-103236647D01*
X95069707Y-103069216D01*
X95170390Y-102918534D01*
X95298534Y-102790390D01*
X95449216Y-102689707D01*
X95616647Y-102620355D01*
X95794387Y-102585000D01*
X95975613Y-102585000D01*
X96153353Y-102620355D01*
X96153353Y-102620355D01*
G37*
G36*
X129140000Y-104355000D02*
X127240000Y-104355000D01*
X127240000Y-102655000D01*
X129140000Y-102655000D01*
X129140000Y-104355000D01*
X129140000Y-104355000D01*
G37*
G36*
X131840000Y-104355000D02*
X129940000Y-104355000D01*
X129940000Y-102655000D01*
X131840000Y-102655000D01*
X131840000Y-104355000D01*
X131840000Y-104355000D01*
G37*
G36*
X103105000Y-103085000D02*
X101205000Y-103085000D01*
X101205000Y-101385000D01*
X103105000Y-101385000D01*
X103105000Y-103085000D01*
X103105000Y-103085000D01*
G37*
G36*
X105805000Y-103085000D02*
X103905000Y-103085000D01*
X103905000Y-101385000D01*
X105805000Y-101385000D01*
X105805000Y-103085000D01*
X105805000Y-103085000D01*
G37*
G36*
X115360000Y-102440000D02*
X113400000Y-102440000D01*
X113400000Y-99490000D01*
X115360000Y-99490000D01*
X115360000Y-102440000D01*
X115360000Y-102440000D01*
G37*
G36*
X112660000Y-102440000D02*
X110700000Y-102440000D01*
X110700000Y-99490000D01*
X112660000Y-99490000D01*
X112660000Y-102440000D01*
X112660000Y-102440000D01*
G37*
G36*
X192038353Y-100080355D02*
X192205784Y-100149707D01*
X192356466Y-100250390D01*
X192484610Y-100378534D01*
X192585293Y-100529216D01*
X192654645Y-100696647D01*
X192690000Y-100874387D01*
X192690000Y-101055613D01*
X192654645Y-101233353D01*
X192585293Y-101400784D01*
X192484610Y-101551466D01*
X192356466Y-101679610D01*
X192205784Y-101780293D01*
X192038353Y-101849645D01*
X191860613Y-101885000D01*
X191679387Y-101885000D01*
X191501647Y-101849645D01*
X191334216Y-101780293D01*
X191183534Y-101679610D01*
X191055390Y-101551466D01*
X190954707Y-101400784D01*
X190885355Y-101233353D01*
X190850000Y-101055613D01*
X190850000Y-100874387D01*
X190885355Y-100696647D01*
X190954707Y-100529216D01*
X191055390Y-100378534D01*
X191183534Y-100250390D01*
X191334216Y-100149707D01*
X191501647Y-100080355D01*
X191679387Y-100045000D01*
X191860613Y-100045000D01*
X192038353Y-100080355D01*
X192038353Y-100080355D01*
G37*
G36*
X98693353Y-100080355D02*
X98860784Y-100149707D01*
X99011466Y-100250390D01*
X99139610Y-100378534D01*
X99240293Y-100529216D01*
X99309645Y-100696647D01*
X99345000Y-100874387D01*
X99345000Y-101055613D01*
X99309645Y-101233353D01*
X99240293Y-101400784D01*
X99139610Y-101551466D01*
X99011466Y-101679610D01*
X98860784Y-101780293D01*
X98693353Y-101849645D01*
X98515613Y-101885000D01*
X98334387Y-101885000D01*
X98156647Y-101849645D01*
X97989216Y-101780293D01*
X97838534Y-101679610D01*
X97710390Y-101551466D01*
X97609707Y-101400784D01*
X97540355Y-101233353D01*
X97505000Y-101055613D01*
X97505000Y-100874387D01*
X97540355Y-100696647D01*
X97609707Y-100529216D01*
X97710390Y-100378534D01*
X97838534Y-100250390D01*
X97989216Y-100149707D01*
X98156647Y-100080355D01*
X98334387Y-100045000D01*
X98515613Y-100045000D01*
X98693353Y-100080355D01*
X98693353Y-100080355D01*
G37*
G36*
X200621770Y-99599372D02*
X200737689Y-99622429D01*
X200919678Y-99697811D01*
X201083463Y-99807249D01*
X201222751Y-99946537D01*
X201332189Y-100110322D01*
X201407571Y-100292311D01*
X201430628Y-100408230D01*
X201446000Y-100485507D01*
X201446000Y-100682493D01*
X201430628Y-100759770D01*
X201407571Y-100875689D01*
X201332189Y-101057678D01*
X201222751Y-101221463D01*
X201083463Y-101360751D01*
X200919678Y-101470189D01*
X200737689Y-101545571D01*
X200621770Y-101568628D01*
X200544493Y-101584000D01*
X200347507Y-101584000D01*
X200270230Y-101568628D01*
X200154311Y-101545571D01*
X199972322Y-101470189D01*
X199808537Y-101360751D01*
X199669249Y-101221463D01*
X199559811Y-101057678D01*
X199484429Y-100875689D01*
X199461372Y-100759770D01*
X199446000Y-100682493D01*
X199446000Y-100485507D01*
X199461372Y-100408230D01*
X199484429Y-100292311D01*
X199559811Y-100110322D01*
X199669249Y-99946537D01*
X199808537Y-99807249D01*
X199972322Y-99697811D01*
X200154311Y-99622429D01*
X200270230Y-99599372D01*
X200347507Y-99584000D01*
X200544493Y-99584000D01*
X200621770Y-99599372D01*
X200621770Y-99599372D01*
G37*
G36*
X203121770Y-99599372D02*
X203237689Y-99622429D01*
X203419678Y-99697811D01*
X203583463Y-99807249D01*
X203722751Y-99946537D01*
X203832189Y-100110322D01*
X203907571Y-100292311D01*
X203930628Y-100408230D01*
X203946000Y-100485507D01*
X203946000Y-100682493D01*
X203930628Y-100759770D01*
X203907571Y-100875689D01*
X203832189Y-101057678D01*
X203722751Y-101221463D01*
X203583463Y-101360751D01*
X203419678Y-101470189D01*
X203237689Y-101545571D01*
X203121770Y-101568628D01*
X203044493Y-101584000D01*
X202847507Y-101584000D01*
X202770230Y-101568628D01*
X202654311Y-101545571D01*
X202472322Y-101470189D01*
X202308537Y-101360751D01*
X202169249Y-101221463D01*
X202059811Y-101057678D01*
X201984429Y-100875689D01*
X201961372Y-100759770D01*
X201946000Y-100682493D01*
X201946000Y-100485507D01*
X201961372Y-100408230D01*
X201984429Y-100292311D01*
X202059811Y-100110322D01*
X202169249Y-99946537D01*
X202308537Y-99807249D01*
X202472322Y-99697811D01*
X202654311Y-99622429D01*
X202770230Y-99599372D01*
X202847507Y-99584000D01*
X203044493Y-99584000D01*
X203121770Y-99599372D01*
X203121770Y-99599372D01*
G37*
G36*
X152983000Y-101505000D02*
X151083000Y-101505000D01*
X151083000Y-99105000D01*
X152983000Y-99105000D01*
X152983000Y-101505000D01*
X152983000Y-101505000D01*
G37*
G36*
X140650000Y-101505000D02*
X138750000Y-101505000D01*
X138750000Y-99105000D01*
X140650000Y-99105000D01*
X140650000Y-101505000D01*
X140650000Y-101505000D01*
G37*
G36*
X142950000Y-101505000D02*
X141050000Y-101505000D01*
X141050000Y-99105000D01*
X142950000Y-99105000D01*
X142950000Y-101505000D01*
X142950000Y-101505000D01*
G37*
G36*
X148383000Y-101505000D02*
X146483000Y-101505000D01*
X146483000Y-99105000D01*
X148383000Y-99105000D01*
X148383000Y-101505000D01*
X148383000Y-101505000D01*
G37*
G36*
X138350000Y-101505000D02*
X136450000Y-101505000D01*
X136450000Y-99105000D01*
X138350000Y-99105000D01*
X138350000Y-101505000D01*
X138350000Y-101505000D01*
G37*
G36*
X150683000Y-101505000D02*
X148783000Y-101505000D01*
X148783000Y-99105000D01*
X150683000Y-99105000D01*
X150683000Y-101505000D01*
X150683000Y-101505000D01*
G37*
G36*
X195118902Y-99345000D02*
X195236689Y-99368429D01*
X195418678Y-99443811D01*
X195582463Y-99553249D01*
X195721751Y-99692537D01*
X195831189Y-99856322D01*
X195906571Y-100038311D01*
X195945000Y-100231509D01*
X195945000Y-100428491D01*
X195906571Y-100621689D01*
X195831189Y-100803678D01*
X195721751Y-100967463D01*
X195582463Y-101106751D01*
X195418678Y-101216189D01*
X195236689Y-101291571D01*
X195120770Y-101314628D01*
X195043493Y-101330000D01*
X194846507Y-101330000D01*
X194769230Y-101314628D01*
X194653311Y-101291571D01*
X194471322Y-101216189D01*
X194307537Y-101106751D01*
X194168249Y-100967463D01*
X194058811Y-100803678D01*
X193983429Y-100621689D01*
X193945000Y-100428491D01*
X193945000Y-100231509D01*
X193983429Y-100038311D01*
X194058811Y-99856322D01*
X194168249Y-99692537D01*
X194307537Y-99553249D01*
X194471322Y-99443811D01*
X194653311Y-99368429D01*
X194771098Y-99345000D01*
X194846507Y-99330000D01*
X195043493Y-99330000D01*
X195118902Y-99345000D01*
X195118902Y-99345000D01*
G37*
G36*
X117665000Y-101260000D02*
X116015000Y-101260000D01*
X116015000Y-99360000D01*
X117665000Y-99360000D01*
X117665000Y-101260000D01*
X117665000Y-101260000D01*
G37*
G36*
X228730000Y-99825000D02*
X225930000Y-99825000D01*
X225930000Y-97025000D01*
X228730000Y-97025000D01*
X228730000Y-99825000D01*
X228730000Y-99825000D01*
G37*
G36*
X232585770Y-97440372D02*
X232701689Y-97463429D01*
X232883678Y-97538811D01*
X233047463Y-97648249D01*
X233186751Y-97787537D01*
X233296189Y-97951322D01*
X233371571Y-98133311D01*
X233410000Y-98326509D01*
X233410000Y-98523491D01*
X233371571Y-98716689D01*
X233296189Y-98898678D01*
X233186751Y-99062463D01*
X233047463Y-99201751D01*
X232883678Y-99311189D01*
X232701689Y-99386571D01*
X232585770Y-99409628D01*
X232508493Y-99425000D01*
X232311507Y-99425000D01*
X232234230Y-99409628D01*
X232118311Y-99386571D01*
X231936322Y-99311189D01*
X231772537Y-99201751D01*
X231633249Y-99062463D01*
X231523811Y-98898678D01*
X231448429Y-98716689D01*
X231410000Y-98523491D01*
X231410000Y-98326509D01*
X231448429Y-98133311D01*
X231523811Y-97951322D01*
X231633249Y-97787537D01*
X231772537Y-97648249D01*
X231936322Y-97538811D01*
X232118311Y-97463429D01*
X232234230Y-97440372D01*
X232311507Y-97425000D01*
X232508493Y-97425000D01*
X232585770Y-97440372D01*
X232585770Y-97440372D01*
G37*
G36*
X96153353Y-97540355D02*
X96320784Y-97609707D01*
X96471466Y-97710390D01*
X96599610Y-97838534D01*
X96700293Y-97989216D01*
X96769645Y-98156647D01*
X96805000Y-98334387D01*
X96805000Y-98515613D01*
X96769645Y-98693353D01*
X96700293Y-98860784D01*
X96599610Y-99011466D01*
X96471466Y-99139610D01*
X96320784Y-99240293D01*
X96153353Y-99309645D01*
X95975613Y-99345000D01*
X95794387Y-99345000D01*
X95616647Y-99309645D01*
X95449216Y-99240293D01*
X95298534Y-99139610D01*
X95170390Y-99011466D01*
X95069707Y-98860784D01*
X95000355Y-98693353D01*
X94965000Y-98515613D01*
X94965000Y-98334387D01*
X95000355Y-98156647D01*
X95069707Y-97989216D01*
X95170390Y-97838534D01*
X95298534Y-97710390D01*
X95449216Y-97609707D01*
X95616647Y-97540355D01*
X95794387Y-97505000D01*
X95975613Y-97505000D01*
X96153353Y-97540355D01*
X96153353Y-97540355D01*
G37*
G36*
X189498353Y-97540355D02*
X189665784Y-97609707D01*
X189816466Y-97710390D01*
X189944610Y-97838534D01*
X190045293Y-97989216D01*
X190114645Y-98156647D01*
X190150000Y-98334387D01*
X190150000Y-98515613D01*
X190114645Y-98693353D01*
X190045293Y-98860784D01*
X189944610Y-99011466D01*
X189816466Y-99139610D01*
X189665784Y-99240293D01*
X189498353Y-99309645D01*
X189320613Y-99345000D01*
X189139387Y-99345000D01*
X188961647Y-99309645D01*
X188794216Y-99240293D01*
X188643534Y-99139610D01*
X188515390Y-99011466D01*
X188414707Y-98860784D01*
X188345355Y-98693353D01*
X188310000Y-98515613D01*
X188310000Y-98334387D01*
X188345355Y-98156647D01*
X188414707Y-97989216D01*
X188515390Y-97838534D01*
X188643534Y-97710390D01*
X188794216Y-97609707D01*
X188961647Y-97540355D01*
X189139387Y-97505000D01*
X189320613Y-97505000D01*
X189498353Y-97540355D01*
X189498353Y-97540355D01*
G37*
G36*
X195120770Y-96845372D02*
X195236689Y-96868429D01*
X195418678Y-96943811D01*
X195582463Y-97053249D01*
X195721751Y-97192537D01*
X195831189Y-97356322D01*
X195906571Y-97538311D01*
X195917641Y-97593966D01*
X195940800Y-97710390D01*
X195945000Y-97731509D01*
X195945000Y-97928491D01*
X195906571Y-98121689D01*
X195831189Y-98303678D01*
X195721751Y-98467463D01*
X195582463Y-98606751D01*
X195418678Y-98716189D01*
X195236689Y-98791571D01*
X195120770Y-98814628D01*
X195043493Y-98830000D01*
X194846507Y-98830000D01*
X194769230Y-98814628D01*
X194653311Y-98791571D01*
X194471322Y-98716189D01*
X194307537Y-98606751D01*
X194168249Y-98467463D01*
X194058811Y-98303678D01*
X193983429Y-98121689D01*
X193945000Y-97928491D01*
X193945000Y-97731509D01*
X193949201Y-97710390D01*
X193972359Y-97593966D01*
X193983429Y-97538311D01*
X194058811Y-97356322D01*
X194168249Y-97192537D01*
X194307537Y-97053249D01*
X194471322Y-96943811D01*
X194653311Y-96868429D01*
X194769230Y-96845372D01*
X194846507Y-96830000D01*
X195043493Y-96830000D01*
X195120770Y-96845372D01*
X195120770Y-96845372D01*
G37*
G36*
X208476030Y-96804469D02*
X208476033Y-96804470D01*
X208476034Y-96804470D01*
X208664535Y-96861651D01*
X208664537Y-96861652D01*
X208838260Y-96954509D01*
X208990528Y-97079472D01*
X209115491Y-97231740D01*
X209182083Y-97356325D01*
X209208349Y-97405465D01*
X209265530Y-97593966D01*
X209265531Y-97593970D01*
X209284838Y-97790000D01*
X209265531Y-97986030D01*
X209265530Y-97986033D01*
X209265530Y-97986034D01*
X209213776Y-98156646D01*
X209208348Y-98174537D01*
X209115491Y-98348260D01*
X208990528Y-98500528D01*
X208838260Y-98625491D01*
X208711299Y-98693353D01*
X208664535Y-98718349D01*
X208476034Y-98775530D01*
X208476033Y-98775530D01*
X208476030Y-98775531D01*
X208329124Y-98790000D01*
X208230876Y-98790000D01*
X208083970Y-98775531D01*
X208083967Y-98775530D01*
X208083966Y-98775530D01*
X207895465Y-98718349D01*
X207848701Y-98693353D01*
X207721740Y-98625491D01*
X207569472Y-98500528D01*
X207444509Y-98348260D01*
X207351652Y-98174537D01*
X207346225Y-98156646D01*
X207294470Y-97986034D01*
X207294470Y-97986033D01*
X207294469Y-97986030D01*
X207275162Y-97790000D01*
X207294469Y-97593970D01*
X207294470Y-97593966D01*
X207351651Y-97405465D01*
X207377917Y-97356325D01*
X207444509Y-97231740D01*
X207569472Y-97079472D01*
X207721740Y-96954509D01*
X207895463Y-96861652D01*
X207895465Y-96861651D01*
X208083966Y-96804470D01*
X208083967Y-96804470D01*
X208083970Y-96804469D01*
X208230876Y-96790000D01*
X208329124Y-96790000D01*
X208476030Y-96804469D01*
X208476030Y-96804469D01*
G37*
G36*
X205936030Y-96804469D02*
X205936033Y-96804470D01*
X205936034Y-96804470D01*
X206124535Y-96861651D01*
X206124537Y-96861652D01*
X206298260Y-96954509D01*
X206450528Y-97079472D01*
X206575491Y-97231740D01*
X206642083Y-97356325D01*
X206668349Y-97405465D01*
X206725530Y-97593966D01*
X206725531Y-97593970D01*
X206744838Y-97790000D01*
X206725531Y-97986030D01*
X206725530Y-97986033D01*
X206725530Y-97986034D01*
X206673776Y-98156646D01*
X206668348Y-98174537D01*
X206575491Y-98348260D01*
X206450528Y-98500528D01*
X206298260Y-98625491D01*
X206171299Y-98693353D01*
X206124535Y-98718349D01*
X205936034Y-98775530D01*
X205936033Y-98775530D01*
X205936030Y-98775531D01*
X205789124Y-98790000D01*
X205690876Y-98790000D01*
X205543970Y-98775531D01*
X205543967Y-98775530D01*
X205543966Y-98775530D01*
X205355465Y-98718349D01*
X205308701Y-98693353D01*
X205181740Y-98625491D01*
X205029472Y-98500528D01*
X204904509Y-98348260D01*
X204811652Y-98174537D01*
X204806225Y-98156646D01*
X204754470Y-97986034D01*
X204754470Y-97986033D01*
X204754469Y-97986030D01*
X204735162Y-97790000D01*
X204754469Y-97593970D01*
X204754470Y-97593966D01*
X204811651Y-97405465D01*
X204837917Y-97356325D01*
X204904509Y-97231740D01*
X205029472Y-97079472D01*
X205181740Y-96954509D01*
X205355463Y-96861652D01*
X205355465Y-96861651D01*
X205543966Y-96804470D01*
X205543967Y-96804470D01*
X205543970Y-96804469D01*
X205690876Y-96790000D01*
X205789124Y-96790000D01*
X205936030Y-96804469D01*
X205936030Y-96804469D01*
G37*
G36*
X203396030Y-96804469D02*
X203396033Y-96804470D01*
X203396034Y-96804470D01*
X203584535Y-96861651D01*
X203584537Y-96861652D01*
X203758260Y-96954509D01*
X203910528Y-97079472D01*
X204035491Y-97231740D01*
X204102083Y-97356325D01*
X204128349Y-97405465D01*
X204185530Y-97593966D01*
X204185531Y-97593970D01*
X204204838Y-97790000D01*
X204185531Y-97986030D01*
X204185530Y-97986033D01*
X204185530Y-97986034D01*
X204133776Y-98156646D01*
X204128348Y-98174537D01*
X204035491Y-98348260D01*
X203910528Y-98500528D01*
X203758260Y-98625491D01*
X203631299Y-98693353D01*
X203584535Y-98718349D01*
X203396034Y-98775530D01*
X203396033Y-98775530D01*
X203396030Y-98775531D01*
X203249124Y-98790000D01*
X203150876Y-98790000D01*
X203003970Y-98775531D01*
X203003967Y-98775530D01*
X203003966Y-98775530D01*
X202815465Y-98718349D01*
X202768701Y-98693353D01*
X202641740Y-98625491D01*
X202489472Y-98500528D01*
X202364509Y-98348260D01*
X202271652Y-98174537D01*
X202266225Y-98156646D01*
X202214470Y-97986034D01*
X202214470Y-97986033D01*
X202214469Y-97986030D01*
X202195162Y-97790000D01*
X202214469Y-97593970D01*
X202214470Y-97593966D01*
X202271651Y-97405465D01*
X202297917Y-97356325D01*
X202364509Y-97231740D01*
X202489472Y-97079472D01*
X202641740Y-96954509D01*
X202815463Y-96861652D01*
X202815465Y-96861651D01*
X203003966Y-96804470D01*
X203003967Y-96804470D01*
X203003970Y-96804469D01*
X203150876Y-96790000D01*
X203249124Y-96790000D01*
X203396030Y-96804469D01*
X203396030Y-96804469D01*
G37*
G36*
X200856030Y-96804469D02*
X200856033Y-96804470D01*
X200856034Y-96804470D01*
X201044535Y-96861651D01*
X201044537Y-96861652D01*
X201218260Y-96954509D01*
X201370528Y-97079472D01*
X201495491Y-97231740D01*
X201562083Y-97356325D01*
X201588349Y-97405465D01*
X201645530Y-97593966D01*
X201645531Y-97593970D01*
X201664838Y-97790000D01*
X201645531Y-97986030D01*
X201645530Y-97986033D01*
X201645530Y-97986034D01*
X201593776Y-98156646D01*
X201588348Y-98174537D01*
X201495491Y-98348260D01*
X201370528Y-98500528D01*
X201218260Y-98625491D01*
X201091299Y-98693353D01*
X201044535Y-98718349D01*
X200856034Y-98775530D01*
X200856033Y-98775530D01*
X200856030Y-98775531D01*
X200709124Y-98790000D01*
X200610876Y-98790000D01*
X200463970Y-98775531D01*
X200463967Y-98775530D01*
X200463966Y-98775530D01*
X200275465Y-98718349D01*
X200228701Y-98693353D01*
X200101740Y-98625491D01*
X199949472Y-98500528D01*
X199824509Y-98348260D01*
X199731652Y-98174537D01*
X199726225Y-98156646D01*
X199674470Y-97986034D01*
X199674470Y-97986033D01*
X199674469Y-97986030D01*
X199655162Y-97790000D01*
X199674469Y-97593970D01*
X199674470Y-97593966D01*
X199731651Y-97405465D01*
X199757917Y-97356325D01*
X199824509Y-97231740D01*
X199949472Y-97079472D01*
X200101740Y-96954509D01*
X200275463Y-96861652D01*
X200275465Y-96861651D01*
X200463966Y-96804470D01*
X200463967Y-96804470D01*
X200463970Y-96804469D01*
X200610876Y-96790000D01*
X200709124Y-96790000D01*
X200856030Y-96804469D01*
X200856030Y-96804469D01*
G37*
G36*
X117665000Y-98760000D02*
X116015000Y-98760000D01*
X116015000Y-96860000D01*
X117665000Y-96860000D01*
X117665000Y-98760000D01*
X117665000Y-98760000D01*
G37*
G36*
X115330000Y-98640000D02*
X113430000Y-98640000D01*
X113430000Y-96940000D01*
X115330000Y-96940000D01*
X115330000Y-98640000D01*
X115330000Y-98640000D01*
G37*
G36*
X112630000Y-98640000D02*
X110730000Y-98640000D01*
X110730000Y-96940000D01*
X112630000Y-96940000D01*
X112630000Y-98640000D01*
X112630000Y-98640000D01*
G37*
G36*
X124220000Y-98640000D02*
X122320000Y-98640000D01*
X122320000Y-96940000D01*
X124220000Y-96940000D01*
X124220000Y-98640000D01*
X124220000Y-98640000D01*
G37*
G36*
X121520000Y-98640000D02*
X119620000Y-98640000D01*
X119620000Y-96940000D01*
X121520000Y-96940000D01*
X121520000Y-98640000D01*
X121520000Y-98640000D01*
G37*
G36*
X107864000Y-96837000D02*
X105964000Y-96837000D01*
X105964000Y-95187000D01*
X107864000Y-95187000D01*
X107864000Y-96837000D01*
X107864000Y-96837000D01*
G37*
G36*
X105364000Y-96837000D02*
X103464000Y-96837000D01*
X103464000Y-95187000D01*
X105364000Y-95187000D01*
X105364000Y-96837000D01*
X105364000Y-96837000D01*
G37*
G36*
X218040012Y-93869319D02*
X218213365Y-93903801D01*
X218391372Y-93977534D01*
X218452940Y-94003036D01*
X218468149Y-94009336D01*
X218539094Y-94056740D01*
X218697451Y-94162551D01*
X218892449Y-94357549D01*
X218892451Y-94357552D01*
X219045664Y-94586851D01*
X219138524Y-94811034D01*
X219151199Y-94841636D01*
X219205000Y-95112111D01*
X219205000Y-95387889D01*
X219204232Y-95391751D01*
X219175120Y-95538108D01*
X219151199Y-95658364D01*
X219045665Y-95913147D01*
X218892449Y-96142451D01*
X218697451Y-96337449D01*
X218697448Y-96337451D01*
X218468149Y-96490664D01*
X218213365Y-96596199D01*
X218078126Y-96623100D01*
X217942889Y-96650000D01*
X217667111Y-96650000D01*
X217531873Y-96623099D01*
X217396635Y-96596199D01*
X217141851Y-96490664D01*
X216912552Y-96337451D01*
X216912549Y-96337449D01*
X216717551Y-96142451D01*
X216564335Y-95913147D01*
X216458801Y-95658364D01*
X216434881Y-95538108D01*
X216405768Y-95391751D01*
X216405000Y-95387889D01*
X216405000Y-95112111D01*
X216458801Y-94841636D01*
X216471477Y-94811034D01*
X216564336Y-94586851D01*
X216717549Y-94357552D01*
X216717551Y-94357549D01*
X216912549Y-94162551D01*
X217070906Y-94056740D01*
X217141851Y-94009336D01*
X217157061Y-94003036D01*
X217218628Y-93977534D01*
X217396635Y-93903801D01*
X217569988Y-93869319D01*
X217667111Y-93850000D01*
X217942889Y-93850000D01*
X218040012Y-93869319D01*
X218040012Y-93869319D01*
G37*
G36*
X181171030Y-93629469D02*
X181171033Y-93629470D01*
X181171034Y-93629470D01*
X181359535Y-93686651D01*
X181359537Y-93686652D01*
X181533260Y-93779509D01*
X181685528Y-93904472D01*
X181810491Y-94056740D01*
X181867047Y-94162549D01*
X181903349Y-94230465D01*
X181935053Y-94334979D01*
X181960531Y-94418970D01*
X181979838Y-94615000D01*
X181960531Y-94811030D01*
X181960530Y-94811033D01*
X181960530Y-94811034D01*
X181935053Y-94895022D01*
X181903348Y-94999537D01*
X181810491Y-95173260D01*
X181685528Y-95325528D01*
X181533260Y-95450491D01*
X181533258Y-95450492D01*
X181359535Y-95543349D01*
X181171034Y-95600530D01*
X181171033Y-95600530D01*
X181171030Y-95600531D01*
X181024124Y-95615000D01*
X180925876Y-95615000D01*
X180778970Y-95600531D01*
X180778967Y-95600530D01*
X180778966Y-95600530D01*
X180590465Y-95543349D01*
X180416742Y-95450492D01*
X180416740Y-95450491D01*
X180264472Y-95325528D01*
X180139509Y-95173260D01*
X180046652Y-94999537D01*
X180014948Y-94895022D01*
X179989470Y-94811034D01*
X179989470Y-94811033D01*
X179989469Y-94811030D01*
X179970162Y-94615000D01*
X179989469Y-94418970D01*
X180014947Y-94334979D01*
X180046651Y-94230465D01*
X180082953Y-94162549D01*
X180139509Y-94056740D01*
X180264472Y-93904472D01*
X180416740Y-93779509D01*
X180590463Y-93686652D01*
X180590465Y-93686651D01*
X180778966Y-93629470D01*
X180778967Y-93629470D01*
X180778970Y-93629469D01*
X180925876Y-93615000D01*
X181024124Y-93615000D01*
X181171030Y-93629469D01*
X181171030Y-93629469D01*
G37*
G36*
X184960770Y-93630372D02*
X185076689Y-93653429D01*
X185258678Y-93728811D01*
X185422463Y-93838249D01*
X185561751Y-93977537D01*
X185671189Y-94141322D01*
X185746571Y-94323311D01*
X185769628Y-94439230D01*
X185783829Y-94510619D01*
X185785000Y-94516509D01*
X185785000Y-94713491D01*
X185746571Y-94906689D01*
X185671189Y-95088678D01*
X185561751Y-95252463D01*
X185422463Y-95391751D01*
X185258678Y-95501189D01*
X185076689Y-95576571D01*
X184960770Y-95599628D01*
X184883493Y-95615000D01*
X184686507Y-95615000D01*
X184609230Y-95599628D01*
X184493311Y-95576571D01*
X184311322Y-95501189D01*
X184147537Y-95391751D01*
X184008249Y-95252463D01*
X183898811Y-95088678D01*
X183823429Y-94906689D01*
X183785000Y-94713491D01*
X183785000Y-94516509D01*
X183786172Y-94510619D01*
X183800372Y-94439230D01*
X183823429Y-94323311D01*
X183898811Y-94141322D01*
X184008249Y-93977537D01*
X184147537Y-93838249D01*
X184311322Y-93728811D01*
X184493311Y-93653429D01*
X184609230Y-93630372D01*
X184686507Y-93615000D01*
X184883493Y-93615000D01*
X184960770Y-93630372D01*
X184960770Y-93630372D01*
G37*
G36*
X173551030Y-93629469D02*
X173551033Y-93629470D01*
X173551034Y-93629470D01*
X173739535Y-93686651D01*
X173739537Y-93686652D01*
X173913260Y-93779509D01*
X174065528Y-93904472D01*
X174190491Y-94056740D01*
X174247047Y-94162549D01*
X174283349Y-94230465D01*
X174315053Y-94334979D01*
X174340531Y-94418970D01*
X174359838Y-94615000D01*
X174340531Y-94811030D01*
X174340530Y-94811033D01*
X174340530Y-94811034D01*
X174315053Y-94895022D01*
X174283348Y-94999537D01*
X174190491Y-95173260D01*
X174065528Y-95325528D01*
X173913260Y-95450491D01*
X173913258Y-95450492D01*
X173739535Y-95543349D01*
X173551034Y-95600530D01*
X173551033Y-95600530D01*
X173551030Y-95600531D01*
X173404124Y-95615000D01*
X173305876Y-95615000D01*
X173158970Y-95600531D01*
X173158967Y-95600530D01*
X173158966Y-95600530D01*
X172970465Y-95543349D01*
X172796742Y-95450492D01*
X172796740Y-95450491D01*
X172644472Y-95325528D01*
X172519509Y-95173260D01*
X172426652Y-94999537D01*
X172394948Y-94895022D01*
X172369470Y-94811034D01*
X172369470Y-94811033D01*
X172369469Y-94811030D01*
X172350162Y-94615000D01*
X172369469Y-94418970D01*
X172394947Y-94334979D01*
X172426651Y-94230465D01*
X172462953Y-94162549D01*
X172519509Y-94056740D01*
X172644472Y-93904472D01*
X172796740Y-93779509D01*
X172970463Y-93686652D01*
X172970465Y-93686651D01*
X173158966Y-93629470D01*
X173158967Y-93629470D01*
X173158970Y-93629469D01*
X173305876Y-93615000D01*
X173404124Y-93615000D01*
X173551030Y-93629469D01*
X173551030Y-93629469D01*
G37*
G36*
X169741030Y-93629469D02*
X169741033Y-93629470D01*
X169741034Y-93629470D01*
X169929535Y-93686651D01*
X169929537Y-93686652D01*
X170103260Y-93779509D01*
X170255528Y-93904472D01*
X170380491Y-94056740D01*
X170437047Y-94162549D01*
X170473349Y-94230465D01*
X170505053Y-94334979D01*
X170530531Y-94418970D01*
X170549838Y-94615000D01*
X170530531Y-94811030D01*
X170530530Y-94811033D01*
X170530530Y-94811034D01*
X170505053Y-94895022D01*
X170473348Y-94999537D01*
X170380491Y-95173260D01*
X170255528Y-95325528D01*
X170103260Y-95450491D01*
X170103258Y-95450492D01*
X169929535Y-95543349D01*
X169741034Y-95600530D01*
X169741033Y-95600530D01*
X169741030Y-95600531D01*
X169594124Y-95615000D01*
X169495876Y-95615000D01*
X169348970Y-95600531D01*
X169348967Y-95600530D01*
X169348966Y-95600530D01*
X169160465Y-95543349D01*
X168986742Y-95450492D01*
X168986740Y-95450491D01*
X168834472Y-95325528D01*
X168709509Y-95173260D01*
X168616652Y-94999537D01*
X168584948Y-94895022D01*
X168559470Y-94811034D01*
X168559470Y-94811033D01*
X168559469Y-94811030D01*
X168540162Y-94615000D01*
X168559469Y-94418970D01*
X168584947Y-94334979D01*
X168616651Y-94230465D01*
X168652953Y-94162549D01*
X168709509Y-94056740D01*
X168834472Y-93904472D01*
X168986740Y-93779509D01*
X169160463Y-93686652D01*
X169160465Y-93686651D01*
X169348966Y-93629470D01*
X169348967Y-93629470D01*
X169348970Y-93629469D01*
X169495876Y-93615000D01*
X169594124Y-93615000D01*
X169741030Y-93629469D01*
X169741030Y-93629469D01*
G37*
G36*
X177361030Y-93629469D02*
X177361033Y-93629470D01*
X177361034Y-93629470D01*
X177549535Y-93686651D01*
X177549537Y-93686652D01*
X177723260Y-93779509D01*
X177875528Y-93904472D01*
X178000491Y-94056740D01*
X178057047Y-94162549D01*
X178093349Y-94230465D01*
X178125053Y-94334979D01*
X178150531Y-94418970D01*
X178169838Y-94615000D01*
X178150531Y-94811030D01*
X178150530Y-94811033D01*
X178150530Y-94811034D01*
X178125053Y-94895022D01*
X178093348Y-94999537D01*
X178000491Y-95173260D01*
X177875528Y-95325528D01*
X177723260Y-95450491D01*
X177723258Y-95450492D01*
X177549535Y-95543349D01*
X177361034Y-95600530D01*
X177361033Y-95600530D01*
X177361030Y-95600531D01*
X177214124Y-95615000D01*
X177115876Y-95615000D01*
X176968970Y-95600531D01*
X176968967Y-95600530D01*
X176968966Y-95600530D01*
X176780465Y-95543349D01*
X176606742Y-95450492D01*
X176606740Y-95450491D01*
X176454472Y-95325528D01*
X176329509Y-95173260D01*
X176236652Y-94999537D01*
X176204948Y-94895022D01*
X176179470Y-94811034D01*
X176179470Y-94811033D01*
X176179469Y-94811030D01*
X176160162Y-94615000D01*
X176179469Y-94418970D01*
X176204947Y-94334979D01*
X176236651Y-94230465D01*
X176272953Y-94162549D01*
X176329509Y-94056740D01*
X176454472Y-93904472D01*
X176606740Y-93779509D01*
X176780463Y-93686652D01*
X176780465Y-93686651D01*
X176968966Y-93629470D01*
X176968967Y-93629470D01*
X176968970Y-93629469D01*
X177115876Y-93615000D01*
X177214124Y-93615000D01*
X177361030Y-93629469D01*
X177361030Y-93629469D01*
G37*
G36*
X190052287Y-93673446D02*
X190145022Y-93691892D01*
X190319731Y-93764259D01*
X190448051Y-93850000D01*
X190476967Y-93869321D01*
X190610679Y-94003033D01*
X190715742Y-94160271D01*
X190716686Y-94162551D01*
X190788108Y-94334978D01*
X190792598Y-94357552D01*
X190825000Y-94520447D01*
X190825000Y-94709553D01*
X190824216Y-94713493D01*
X190788108Y-94895022D01*
X190715741Y-95069731D01*
X190687423Y-95112112D01*
X190610679Y-95226967D01*
X190476967Y-95360679D01*
X190476964Y-95360681D01*
X190319731Y-95465741D01*
X190145022Y-95538108D01*
X190052287Y-95556554D01*
X189959553Y-95575000D01*
X189770447Y-95575000D01*
X189677713Y-95556554D01*
X189584978Y-95538108D01*
X189410269Y-95465741D01*
X189253036Y-95360681D01*
X189253033Y-95360679D01*
X189119321Y-95226967D01*
X189042577Y-95112112D01*
X189014259Y-95069731D01*
X188941892Y-94895022D01*
X188905784Y-94713493D01*
X188905000Y-94709553D01*
X188905000Y-94520447D01*
X188937402Y-94357552D01*
X188941892Y-94334978D01*
X189013314Y-94162551D01*
X189014258Y-94160271D01*
X189119321Y-94003033D01*
X189253033Y-93869321D01*
X189281949Y-93850000D01*
X189410269Y-93764259D01*
X189584978Y-93691892D01*
X189677713Y-93673446D01*
X189770447Y-93655000D01*
X189959553Y-93655000D01*
X190052287Y-93673446D01*
X190052287Y-93673446D01*
G37*
G36*
X195132287Y-93673446D02*
X195225022Y-93691892D01*
X195399731Y-93764259D01*
X195528051Y-93850000D01*
X195556967Y-93869321D01*
X195690679Y-94003033D01*
X195795742Y-94160271D01*
X195796686Y-94162551D01*
X195868108Y-94334978D01*
X195872598Y-94357552D01*
X195905000Y-94520447D01*
X195905000Y-94709553D01*
X195904216Y-94713493D01*
X195868108Y-94895022D01*
X195795741Y-95069731D01*
X195767423Y-95112112D01*
X195690679Y-95226967D01*
X195556967Y-95360679D01*
X195556964Y-95360681D01*
X195399731Y-95465741D01*
X195225022Y-95538108D01*
X195132287Y-95556554D01*
X195039553Y-95575000D01*
X194850447Y-95575000D01*
X194757713Y-95556554D01*
X194664978Y-95538108D01*
X194490269Y-95465741D01*
X194333036Y-95360681D01*
X194333033Y-95360679D01*
X194199321Y-95226967D01*
X194122577Y-95112112D01*
X194094259Y-95069731D01*
X194021892Y-94895022D01*
X193985784Y-94713493D01*
X193985000Y-94709553D01*
X193985000Y-94520447D01*
X194017402Y-94357552D01*
X194021892Y-94334978D01*
X194093314Y-94162551D01*
X194094258Y-94160271D01*
X194199321Y-94003033D01*
X194333033Y-93869321D01*
X194361949Y-93850000D01*
X194490269Y-93764259D01*
X194664978Y-93691892D01*
X194757713Y-93673446D01*
X194850447Y-93655000D01*
X195039553Y-93655000D01*
X195132287Y-93673446D01*
X195132287Y-93673446D01*
G37*
G36*
X151833000Y-95205000D02*
X147633000Y-95205000D01*
X147633000Y-92805000D01*
X151833000Y-92805000D01*
X151833000Y-95205000D01*
X151833000Y-95205000D01*
G37*
G36*
X141800000Y-95205000D02*
X137600000Y-95205000D01*
X137600000Y-92805000D01*
X141800000Y-92805000D01*
X141800000Y-95205000D01*
X141800000Y-95205000D01*
G37*
G36*
X105364000Y-94805000D02*
X103464000Y-94805000D01*
X103464000Y-93155000D01*
X105364000Y-93155000D01*
X105364000Y-94805000D01*
X105364000Y-94805000D01*
G37*
G36*
X107864000Y-94805000D02*
X105964000Y-94805000D01*
X105964000Y-93155000D01*
X107864000Y-93155000D01*
X107864000Y-94805000D01*
X107864000Y-94805000D01*
G37*
G36*
X88424740Y-94711180D02*
X86324740Y-94711180D01*
X86324740Y-92611180D01*
X88424740Y-92611180D01*
X88424740Y-94711180D01*
X88424740Y-94711180D01*
G37*
G36*
X126515027Y-93144852D02*
X126656401Y-93187738D01*
X126786694Y-93257380D01*
X126900896Y-93351104D01*
X126994620Y-93465306D01*
X127064262Y-93595599D01*
X127107148Y-93736973D01*
X127121628Y-93884000D01*
X127107148Y-94031027D01*
X127064262Y-94172401D01*
X126994620Y-94302694D01*
X126900896Y-94416896D01*
X126786694Y-94510620D01*
X126656401Y-94580262D01*
X126515027Y-94623148D01*
X126404839Y-94634000D01*
X124931161Y-94634000D01*
X124820973Y-94623148D01*
X124679599Y-94580262D01*
X124549306Y-94510620D01*
X124435104Y-94416896D01*
X124341380Y-94302694D01*
X124271738Y-94172401D01*
X124228852Y-94031027D01*
X124214372Y-93884000D01*
X124228852Y-93736973D01*
X124271738Y-93595599D01*
X124341380Y-93465306D01*
X124435104Y-93351104D01*
X124549306Y-93257380D01*
X124679599Y-93187738D01*
X124820973Y-93144852D01*
X124931161Y-93134000D01*
X126404839Y-93134000D01*
X126515027Y-93144852D01*
X126515027Y-93144852D01*
G37*
G36*
X111115027Y-93144852D02*
X111256401Y-93187738D01*
X111386694Y-93257380D01*
X111500896Y-93351104D01*
X111594620Y-93465306D01*
X111664262Y-93595599D01*
X111707148Y-93736973D01*
X111721628Y-93884000D01*
X111707148Y-94031027D01*
X111664262Y-94172401D01*
X111594620Y-94302694D01*
X111500896Y-94416896D01*
X111386694Y-94510620D01*
X111256401Y-94580262D01*
X111115027Y-94623148D01*
X111004839Y-94634000D01*
X109531161Y-94634000D01*
X109420973Y-94623148D01*
X109279599Y-94580262D01*
X109149306Y-94510620D01*
X109035104Y-94416896D01*
X108941380Y-94302694D01*
X108871738Y-94172401D01*
X108828852Y-94031027D01*
X108814372Y-93884000D01*
X108828852Y-93736973D01*
X108871738Y-93595599D01*
X108941380Y-93465306D01*
X109035104Y-93351104D01*
X109149306Y-93257380D01*
X109279599Y-93187738D01*
X109420973Y-93144852D01*
X109531161Y-93134000D01*
X111004839Y-93134000D01*
X111115027Y-93144852D01*
X111115027Y-93144852D01*
G37*
G36*
X190052287Y-91133446D02*
X190145022Y-91151892D01*
X190319731Y-91224259D01*
X190369300Y-91257380D01*
X190476967Y-91329321D01*
X190610679Y-91463033D01*
X190610681Y-91463036D01*
X190661099Y-91538491D01*
X190715742Y-91620271D01*
X190722271Y-91636034D01*
X190788108Y-91794978D01*
X190805815Y-91884000D01*
X190816955Y-91940000D01*
X190825000Y-91980448D01*
X190825000Y-92169552D01*
X190788108Y-92355022D01*
X190758902Y-92425531D01*
X190723658Y-92510619D01*
X190715741Y-92529731D01*
X190612079Y-92684872D01*
X190610679Y-92686967D01*
X190476967Y-92820679D01*
X190476964Y-92820681D01*
X190319731Y-92925741D01*
X190145022Y-92998108D01*
X190052287Y-93016554D01*
X189959553Y-93035000D01*
X189770447Y-93035000D01*
X189677713Y-93016554D01*
X189584978Y-92998108D01*
X189410269Y-92925741D01*
X189253036Y-92820681D01*
X189253033Y-92820679D01*
X189119321Y-92686967D01*
X189117921Y-92684872D01*
X189014259Y-92529731D01*
X189006343Y-92510619D01*
X188971098Y-92425531D01*
X188941892Y-92355022D01*
X188905000Y-92169552D01*
X188905000Y-91980448D01*
X188913046Y-91940000D01*
X188924185Y-91884000D01*
X188941892Y-91794978D01*
X189007729Y-91636034D01*
X189014258Y-91620271D01*
X189068902Y-91538491D01*
X189119319Y-91463036D01*
X189119321Y-91463033D01*
X189253033Y-91329321D01*
X189360700Y-91257380D01*
X189410269Y-91224259D01*
X189584978Y-91151892D01*
X189677713Y-91133446D01*
X189770447Y-91115000D01*
X189959553Y-91115000D01*
X190052287Y-91133446D01*
X190052287Y-91133446D01*
G37*
G36*
X195132287Y-91133446D02*
X195225022Y-91151892D01*
X195399731Y-91224259D01*
X195449300Y-91257380D01*
X195556967Y-91329321D01*
X195690679Y-91463033D01*
X195690681Y-91463036D01*
X195741099Y-91538491D01*
X195795742Y-91620271D01*
X195802271Y-91636034D01*
X195868108Y-91794978D01*
X195885815Y-91884000D01*
X195896955Y-91940000D01*
X195905000Y-91980448D01*
X195905000Y-92169552D01*
X195868108Y-92355022D01*
X195838902Y-92425531D01*
X195803658Y-92510619D01*
X195795741Y-92529731D01*
X195692079Y-92684872D01*
X195690679Y-92686967D01*
X195556967Y-92820679D01*
X195556964Y-92820681D01*
X195399731Y-92925741D01*
X195225022Y-92998108D01*
X195132287Y-93016554D01*
X195039553Y-93035000D01*
X194850447Y-93035000D01*
X194757713Y-93016554D01*
X194664978Y-92998108D01*
X194490269Y-92925741D01*
X194333036Y-92820681D01*
X194333033Y-92820679D01*
X194199321Y-92686967D01*
X194197921Y-92684872D01*
X194094259Y-92529731D01*
X194086343Y-92510619D01*
X194051098Y-92425531D01*
X194021892Y-92355022D01*
X193985000Y-92169552D01*
X193985000Y-91980448D01*
X193993046Y-91940000D01*
X194004185Y-91884000D01*
X194021892Y-91794978D01*
X194087729Y-91636034D01*
X194094258Y-91620271D01*
X194148902Y-91538491D01*
X194199319Y-91463036D01*
X194199321Y-91463033D01*
X194333033Y-91329321D01*
X194440700Y-91257380D01*
X194490269Y-91224259D01*
X194664978Y-91151892D01*
X194757713Y-91133446D01*
X194850447Y-91115000D01*
X195039553Y-91115000D01*
X195132287Y-91133446D01*
X195132287Y-91133446D01*
G37*
G36*
X126415027Y-91144852D02*
X126556401Y-91187738D01*
X126686694Y-91257380D01*
X126800896Y-91351104D01*
X126894620Y-91465306D01*
X126964262Y-91595599D01*
X127007148Y-91736973D01*
X127021628Y-91884000D01*
X127007148Y-92031027D01*
X126964262Y-92172401D01*
X126894620Y-92302694D01*
X126800896Y-92416896D01*
X126686694Y-92510620D01*
X126556401Y-92580262D01*
X126415027Y-92623148D01*
X126304839Y-92634000D01*
X124831161Y-92634000D01*
X124720973Y-92623148D01*
X124579599Y-92580262D01*
X124449306Y-92510620D01*
X124335104Y-92416896D01*
X124241380Y-92302694D01*
X124171738Y-92172401D01*
X124128852Y-92031027D01*
X124114372Y-91884000D01*
X124128852Y-91736973D01*
X124171738Y-91595599D01*
X124241380Y-91465306D01*
X124335104Y-91351104D01*
X124449306Y-91257380D01*
X124579599Y-91187738D01*
X124720973Y-91144852D01*
X124831161Y-91134000D01*
X126304839Y-91134000D01*
X126415027Y-91144852D01*
X126415027Y-91144852D01*
G37*
G36*
X111115027Y-91144852D02*
X111256401Y-91187738D01*
X111386694Y-91257380D01*
X111500896Y-91351104D01*
X111594620Y-91465306D01*
X111664262Y-91595599D01*
X111707148Y-91736973D01*
X111721628Y-91884000D01*
X111707148Y-92031027D01*
X111664262Y-92172401D01*
X111594620Y-92302694D01*
X111500896Y-92416896D01*
X111386694Y-92510620D01*
X111256401Y-92580262D01*
X111115027Y-92623148D01*
X111004839Y-92634000D01*
X109531161Y-92634000D01*
X109420973Y-92623148D01*
X109279599Y-92580262D01*
X109149306Y-92510620D01*
X109035104Y-92416896D01*
X108941380Y-92302694D01*
X108871738Y-92172401D01*
X108828852Y-92031027D01*
X108814372Y-91884000D01*
X108828852Y-91736973D01*
X108871738Y-91595599D01*
X108941380Y-91465306D01*
X109035104Y-91351104D01*
X109149306Y-91257380D01*
X109279599Y-91187738D01*
X109420973Y-91144852D01*
X109531161Y-91134000D01*
X111004839Y-91134000D01*
X111115027Y-91144852D01*
X111115027Y-91144852D01*
G37*
G36*
X184981030Y-90454469D02*
X184981033Y-90454470D01*
X184981034Y-90454470D01*
X185169535Y-90511651D01*
X185169537Y-90511652D01*
X185343260Y-90604509D01*
X185495528Y-90729472D01*
X185620491Y-90881740D01*
X185620492Y-90881742D01*
X185713349Y-91055465D01*
X185764552Y-91224259D01*
X185770531Y-91243970D01*
X185789838Y-91440000D01*
X185770531Y-91636030D01*
X185770530Y-91636033D01*
X185770530Y-91636034D01*
X185722315Y-91794979D01*
X185713348Y-91824537D01*
X185620491Y-91998260D01*
X185495528Y-92150528D01*
X185343260Y-92275491D01*
X185343258Y-92275492D01*
X185169535Y-92368349D01*
X184981034Y-92425530D01*
X184981033Y-92425530D01*
X184981030Y-92425531D01*
X184834124Y-92440000D01*
X184735876Y-92440000D01*
X184588970Y-92425531D01*
X184588967Y-92425530D01*
X184588966Y-92425530D01*
X184400465Y-92368349D01*
X184226742Y-92275492D01*
X184226740Y-92275491D01*
X184074472Y-92150528D01*
X183949509Y-91998260D01*
X183856652Y-91824537D01*
X183847686Y-91794979D01*
X183799470Y-91636034D01*
X183799470Y-91636033D01*
X183799469Y-91636030D01*
X183780162Y-91440000D01*
X183799469Y-91243970D01*
X183805448Y-91224259D01*
X183856651Y-91055465D01*
X183949508Y-90881742D01*
X183949509Y-90881740D01*
X184074472Y-90729472D01*
X184226740Y-90604509D01*
X184400463Y-90511652D01*
X184400465Y-90511651D01*
X184588966Y-90454470D01*
X184588967Y-90454470D01*
X184588970Y-90454469D01*
X184735876Y-90440000D01*
X184834124Y-90440000D01*
X184981030Y-90454469D01*
X184981030Y-90454469D01*
G37*
G36*
X181171030Y-90454469D02*
X181171033Y-90454470D01*
X181171034Y-90454470D01*
X181359535Y-90511651D01*
X181359537Y-90511652D01*
X181533260Y-90604509D01*
X181685528Y-90729472D01*
X181810491Y-90881740D01*
X181810492Y-90881742D01*
X181903349Y-91055465D01*
X181954552Y-91224259D01*
X181960531Y-91243970D01*
X181979838Y-91440000D01*
X181960531Y-91636030D01*
X181960530Y-91636033D01*
X181960530Y-91636034D01*
X181912315Y-91794979D01*
X181903348Y-91824537D01*
X181810491Y-91998260D01*
X181685528Y-92150528D01*
X181533260Y-92275491D01*
X181533258Y-92275492D01*
X181359535Y-92368349D01*
X181171034Y-92425530D01*
X181171033Y-92425530D01*
X181171030Y-92425531D01*
X181024124Y-92440000D01*
X180925876Y-92440000D01*
X180778970Y-92425531D01*
X180778967Y-92425530D01*
X180778966Y-92425530D01*
X180590465Y-92368349D01*
X180416742Y-92275492D01*
X180416740Y-92275491D01*
X180264472Y-92150528D01*
X180139509Y-91998260D01*
X180046652Y-91824537D01*
X180037686Y-91794979D01*
X179989470Y-91636034D01*
X179989470Y-91636033D01*
X179989469Y-91636030D01*
X179970162Y-91440000D01*
X179989469Y-91243970D01*
X179995448Y-91224259D01*
X180046651Y-91055465D01*
X180139508Y-90881742D01*
X180139509Y-90881740D01*
X180264472Y-90729472D01*
X180416740Y-90604509D01*
X180590463Y-90511652D01*
X180590465Y-90511651D01*
X180778966Y-90454470D01*
X180778967Y-90454470D01*
X180778970Y-90454469D01*
X180925876Y-90440000D01*
X181024124Y-90440000D01*
X181171030Y-90454469D01*
X181171030Y-90454469D01*
G37*
G36*
X177340770Y-90455372D02*
X177456689Y-90478429D01*
X177638678Y-90553811D01*
X177802463Y-90663249D01*
X177941751Y-90802537D01*
X178051189Y-90966322D01*
X178126571Y-91148311D01*
X178148266Y-91257380D01*
X178162576Y-91329319D01*
X178165000Y-91341509D01*
X178165000Y-91538491D01*
X178126571Y-91731689D01*
X178051189Y-91913678D01*
X177941751Y-92077463D01*
X177802463Y-92216751D01*
X177638678Y-92326189D01*
X177456689Y-92401571D01*
X177340770Y-92424628D01*
X177263493Y-92440000D01*
X177066507Y-92440000D01*
X176989230Y-92424628D01*
X176873311Y-92401571D01*
X176691322Y-92326189D01*
X176527537Y-92216751D01*
X176388249Y-92077463D01*
X176278811Y-91913678D01*
X176203429Y-91731689D01*
X176165000Y-91538491D01*
X176165000Y-91341509D01*
X176167425Y-91329319D01*
X176181734Y-91257380D01*
X176203429Y-91148311D01*
X176278811Y-90966322D01*
X176388249Y-90802537D01*
X176527537Y-90663249D01*
X176691322Y-90553811D01*
X176873311Y-90478429D01*
X176989230Y-90455372D01*
X177066507Y-90440000D01*
X177263493Y-90440000D01*
X177340770Y-90455372D01*
X177340770Y-90455372D01*
G37*
G36*
X173551030Y-90454469D02*
X173551033Y-90454470D01*
X173551034Y-90454470D01*
X173739535Y-90511651D01*
X173739537Y-90511652D01*
X173913260Y-90604509D01*
X174065528Y-90729472D01*
X174190491Y-90881740D01*
X174190492Y-90881742D01*
X174283349Y-91055465D01*
X174334552Y-91224259D01*
X174340531Y-91243970D01*
X174359838Y-91440000D01*
X174340531Y-91636030D01*
X174340530Y-91636033D01*
X174340530Y-91636034D01*
X174292315Y-91794979D01*
X174283348Y-91824537D01*
X174190491Y-91998260D01*
X174065528Y-92150528D01*
X173913260Y-92275491D01*
X173913258Y-92275492D01*
X173739535Y-92368349D01*
X173551034Y-92425530D01*
X173551033Y-92425530D01*
X173551030Y-92425531D01*
X173404124Y-92440000D01*
X173305876Y-92440000D01*
X173158970Y-92425531D01*
X173158967Y-92425530D01*
X173158966Y-92425530D01*
X172970465Y-92368349D01*
X172796742Y-92275492D01*
X172796740Y-92275491D01*
X172644472Y-92150528D01*
X172519509Y-91998260D01*
X172426652Y-91824537D01*
X172417686Y-91794979D01*
X172369470Y-91636034D01*
X172369470Y-91636033D01*
X172369469Y-91636030D01*
X172350162Y-91440000D01*
X172369469Y-91243970D01*
X172375448Y-91224259D01*
X172426651Y-91055465D01*
X172519508Y-90881742D01*
X172519509Y-90881740D01*
X172644472Y-90729472D01*
X172796740Y-90604509D01*
X172970463Y-90511652D01*
X172970465Y-90511651D01*
X173158966Y-90454470D01*
X173158967Y-90454470D01*
X173158970Y-90454469D01*
X173305876Y-90440000D01*
X173404124Y-90440000D01*
X173551030Y-90454469D01*
X173551030Y-90454469D01*
G37*
G36*
X87503447Y-90078777D02*
X87580576Y-90086373D01*
X87712527Y-90126400D01*
X87778503Y-90146413D01*
X87960912Y-90243913D01*
X88120794Y-90375126D01*
X88252007Y-90535008D01*
X88349507Y-90717417D01*
X88352796Y-90728260D01*
X88409547Y-90915344D01*
X88429820Y-91121180D01*
X88409547Y-91327016D01*
X88375274Y-91440000D01*
X88349507Y-91524943D01*
X88252007Y-91707352D01*
X88120794Y-91867234D01*
X87960912Y-91998447D01*
X87778503Y-92095947D01*
X87712527Y-92115960D01*
X87580576Y-92155987D01*
X87503447Y-92163583D01*
X87426320Y-92171180D01*
X87323160Y-92171180D01*
X87246033Y-92163583D01*
X87168904Y-92155987D01*
X87036953Y-92115960D01*
X86970977Y-92095947D01*
X86788568Y-91998447D01*
X86628686Y-91867234D01*
X86497473Y-91707352D01*
X86399973Y-91524943D01*
X86374206Y-91440000D01*
X86339933Y-91327016D01*
X86319660Y-91121180D01*
X86339933Y-90915344D01*
X86396684Y-90728260D01*
X86399973Y-90717417D01*
X86497473Y-90535008D01*
X86628686Y-90375126D01*
X86788568Y-90243913D01*
X86970977Y-90146413D01*
X87036953Y-90126400D01*
X87168904Y-90086373D01*
X87246033Y-90078777D01*
X87323160Y-90071180D01*
X87426320Y-90071180D01*
X87503447Y-90078777D01*
X87503447Y-90078777D01*
G37*
G36*
X94265000Y-91940000D02*
X91915000Y-91940000D01*
X91915000Y-90940000D01*
X94265000Y-90940000D01*
X94265000Y-91940000D01*
X94265000Y-91940000D01*
G37*
G36*
X103665000Y-91940000D02*
X101315000Y-91940000D01*
X101315000Y-90940000D01*
X103665000Y-90940000D01*
X103665000Y-91940000D01*
X103665000Y-91940000D01*
G37*
G36*
X138080000Y-91620000D02*
X134480000Y-91620000D01*
X134480000Y-88720000D01*
X138080000Y-88720000D01*
X138080000Y-91620000D01*
X138080000Y-91620000D01*
G37*
G36*
X142380000Y-91620000D02*
X138780000Y-91620000D01*
X138780000Y-88720000D01*
X142380000Y-88720000D01*
X142380000Y-91620000D01*
X142380000Y-91620000D01*
G37*
G36*
X147478000Y-91620000D02*
X143878000Y-91620000D01*
X143878000Y-88720000D01*
X147478000Y-88720000D01*
X147478000Y-91620000D01*
X147478000Y-91620000D01*
G37*
G36*
X151778000Y-91620000D02*
X148178000Y-91620000D01*
X148178000Y-88720000D01*
X151778000Y-88720000D01*
X151778000Y-91620000D01*
X151778000Y-91620000D01*
G37*
G36*
X208476030Y-89184469D02*
X208476033Y-89184470D01*
X208476034Y-89184470D01*
X208664535Y-89241651D01*
X208664537Y-89241652D01*
X208838260Y-89334509D01*
X208990528Y-89459472D01*
X209115491Y-89611740D01*
X209208348Y-89785463D01*
X209265531Y-89973970D01*
X209284838Y-90170000D01*
X209265531Y-90366030D01*
X209265530Y-90366033D01*
X209265530Y-90366034D01*
X209208569Y-90553811D01*
X209208348Y-90554537D01*
X209115491Y-90728260D01*
X208990528Y-90880528D01*
X208838260Y-91005491D01*
X208838258Y-91005492D01*
X208664535Y-91098349D01*
X208476034Y-91155530D01*
X208476033Y-91155530D01*
X208476030Y-91155531D01*
X208329124Y-91170000D01*
X208230876Y-91170000D01*
X208083970Y-91155531D01*
X208083967Y-91155530D01*
X208083966Y-91155530D01*
X207895465Y-91098349D01*
X207721742Y-91005492D01*
X207721740Y-91005491D01*
X207569472Y-90880528D01*
X207444509Y-90728260D01*
X207351652Y-90554537D01*
X207351432Y-90553811D01*
X207294470Y-90366034D01*
X207294470Y-90366033D01*
X207294469Y-90366030D01*
X207275162Y-90170000D01*
X207294469Y-89973970D01*
X207351652Y-89785463D01*
X207444509Y-89611740D01*
X207569472Y-89459472D01*
X207721740Y-89334509D01*
X207895463Y-89241652D01*
X207895465Y-89241651D01*
X208083966Y-89184470D01*
X208083967Y-89184470D01*
X208083970Y-89184469D01*
X208230876Y-89170000D01*
X208329124Y-89170000D01*
X208476030Y-89184469D01*
X208476030Y-89184469D01*
G37*
G36*
X205936030Y-89184469D02*
X205936033Y-89184470D01*
X205936034Y-89184470D01*
X206124535Y-89241651D01*
X206124537Y-89241652D01*
X206298260Y-89334509D01*
X206450528Y-89459472D01*
X206575491Y-89611740D01*
X206668348Y-89785463D01*
X206725531Y-89973970D01*
X206744838Y-90170000D01*
X206725531Y-90366030D01*
X206725530Y-90366033D01*
X206725530Y-90366034D01*
X206668569Y-90553811D01*
X206668348Y-90554537D01*
X206575491Y-90728260D01*
X206450528Y-90880528D01*
X206298260Y-91005491D01*
X206298258Y-91005492D01*
X206124535Y-91098349D01*
X205936034Y-91155530D01*
X205936033Y-91155530D01*
X205936030Y-91155531D01*
X205789124Y-91170000D01*
X205690876Y-91170000D01*
X205543970Y-91155531D01*
X205543967Y-91155530D01*
X205543966Y-91155530D01*
X205355465Y-91098349D01*
X205181742Y-91005492D01*
X205181740Y-91005491D01*
X205029472Y-90880528D01*
X204904509Y-90728260D01*
X204811652Y-90554537D01*
X204811432Y-90553811D01*
X204754470Y-90366034D01*
X204754470Y-90366033D01*
X204754469Y-90366030D01*
X204735162Y-90170000D01*
X204754469Y-89973970D01*
X204811652Y-89785463D01*
X204904509Y-89611740D01*
X205029472Y-89459472D01*
X205181740Y-89334509D01*
X205355463Y-89241652D01*
X205355465Y-89241651D01*
X205543966Y-89184470D01*
X205543967Y-89184470D01*
X205543970Y-89184469D01*
X205690876Y-89170000D01*
X205789124Y-89170000D01*
X205936030Y-89184469D01*
X205936030Y-89184469D01*
G37*
G36*
X203396030Y-89184469D02*
X203396033Y-89184470D01*
X203396034Y-89184470D01*
X203584535Y-89241651D01*
X203584537Y-89241652D01*
X203758260Y-89334509D01*
X203910528Y-89459472D01*
X204035491Y-89611740D01*
X204128348Y-89785463D01*
X204185531Y-89973970D01*
X204204838Y-90170000D01*
X204185531Y-90366030D01*
X204185530Y-90366033D01*
X204185530Y-90366034D01*
X204128569Y-90553811D01*
X204128348Y-90554537D01*
X204035491Y-90728260D01*
X203910528Y-90880528D01*
X203758260Y-91005491D01*
X203758258Y-91005492D01*
X203584535Y-91098349D01*
X203396034Y-91155530D01*
X203396033Y-91155530D01*
X203396030Y-91155531D01*
X203249124Y-91170000D01*
X203150876Y-91170000D01*
X203003970Y-91155531D01*
X203003967Y-91155530D01*
X203003966Y-91155530D01*
X202815465Y-91098349D01*
X202641742Y-91005492D01*
X202641740Y-91005491D01*
X202489472Y-90880528D01*
X202364509Y-90728260D01*
X202271652Y-90554537D01*
X202271432Y-90553811D01*
X202214470Y-90366034D01*
X202214470Y-90366033D01*
X202214469Y-90366030D01*
X202195162Y-90170000D01*
X202214469Y-89973970D01*
X202271652Y-89785463D01*
X202364509Y-89611740D01*
X202489472Y-89459472D01*
X202641740Y-89334509D01*
X202815463Y-89241652D01*
X202815465Y-89241651D01*
X203003966Y-89184470D01*
X203003967Y-89184470D01*
X203003970Y-89184469D01*
X203150876Y-89170000D01*
X203249124Y-89170000D01*
X203396030Y-89184469D01*
X203396030Y-89184469D01*
G37*
G36*
X200856030Y-89184469D02*
X200856033Y-89184470D01*
X200856034Y-89184470D01*
X201044535Y-89241651D01*
X201044537Y-89241652D01*
X201218260Y-89334509D01*
X201370528Y-89459472D01*
X201495491Y-89611740D01*
X201588348Y-89785463D01*
X201645531Y-89973970D01*
X201664838Y-90170000D01*
X201645531Y-90366030D01*
X201645530Y-90366033D01*
X201645530Y-90366034D01*
X201588569Y-90553811D01*
X201588348Y-90554537D01*
X201495491Y-90728260D01*
X201370528Y-90880528D01*
X201218260Y-91005491D01*
X201218258Y-91005492D01*
X201044535Y-91098349D01*
X200856034Y-91155530D01*
X200856033Y-91155530D01*
X200856030Y-91155531D01*
X200709124Y-91170000D01*
X200610876Y-91170000D01*
X200463970Y-91155531D01*
X200463967Y-91155530D01*
X200463966Y-91155530D01*
X200275465Y-91098349D01*
X200101742Y-91005492D01*
X200101740Y-91005491D01*
X199949472Y-90880528D01*
X199824509Y-90728260D01*
X199731652Y-90554537D01*
X199731432Y-90553811D01*
X199674470Y-90366034D01*
X199674470Y-90366033D01*
X199674469Y-90366030D01*
X199655162Y-90170000D01*
X199674469Y-89973970D01*
X199731652Y-89785463D01*
X199824509Y-89611740D01*
X199949472Y-89459472D01*
X200101740Y-89334509D01*
X200275463Y-89241652D01*
X200275465Y-89241651D01*
X200463966Y-89184470D01*
X200463967Y-89184470D01*
X200463970Y-89184469D01*
X200610876Y-89170000D01*
X200709124Y-89170000D01*
X200856030Y-89184469D01*
X200856030Y-89184469D01*
G37*
G36*
X103665000Y-90670000D02*
X101315000Y-90670000D01*
X101315000Y-89670000D01*
X103665000Y-89670000D01*
X103665000Y-90670000D01*
X103665000Y-90670000D01*
G37*
G36*
X94265000Y-90670000D02*
X91915000Y-90670000D01*
X91915000Y-89670000D01*
X94265000Y-89670000D01*
X94265000Y-90670000D01*
X94265000Y-90670000D01*
G37*
G36*
X126515027Y-89144852D02*
X126656401Y-89187738D01*
X126786694Y-89257380D01*
X126900896Y-89351104D01*
X126994620Y-89465306D01*
X127064262Y-89595599D01*
X127107148Y-89736973D01*
X127121628Y-89884000D01*
X127107148Y-90031027D01*
X127064262Y-90172401D01*
X126994620Y-90302694D01*
X126900896Y-90416896D01*
X126786694Y-90510620D01*
X126656401Y-90580262D01*
X126515027Y-90623148D01*
X126404839Y-90634000D01*
X124931161Y-90634000D01*
X124820973Y-90623148D01*
X124679599Y-90580262D01*
X124549306Y-90510620D01*
X124435104Y-90416896D01*
X124341380Y-90302694D01*
X124271738Y-90172401D01*
X124228852Y-90031027D01*
X124214372Y-89884000D01*
X124228852Y-89736973D01*
X124271738Y-89595599D01*
X124341380Y-89465306D01*
X124435104Y-89351104D01*
X124549306Y-89257380D01*
X124679599Y-89187738D01*
X124820973Y-89144852D01*
X124931161Y-89134000D01*
X126404839Y-89134000D01*
X126515027Y-89144852D01*
X126515027Y-89144852D01*
G37*
G36*
X111115027Y-89144852D02*
X111256401Y-89187738D01*
X111386694Y-89257380D01*
X111500896Y-89351104D01*
X111594620Y-89465306D01*
X111664262Y-89595599D01*
X111707148Y-89736973D01*
X111721628Y-89884000D01*
X111707148Y-90031027D01*
X111664262Y-90172401D01*
X111594620Y-90302694D01*
X111500896Y-90416896D01*
X111386694Y-90510620D01*
X111256401Y-90580262D01*
X111115027Y-90623148D01*
X111004839Y-90634000D01*
X109531161Y-90634000D01*
X109420973Y-90623148D01*
X109279599Y-90580262D01*
X109149306Y-90510620D01*
X109035104Y-90416896D01*
X108941380Y-90302694D01*
X108871738Y-90172401D01*
X108828852Y-90031027D01*
X108814372Y-89884000D01*
X108828852Y-89736973D01*
X108871738Y-89595599D01*
X108941380Y-89465306D01*
X109035104Y-89351104D01*
X109149306Y-89257380D01*
X109279599Y-89187738D01*
X109420973Y-89144852D01*
X109531161Y-89134000D01*
X111004839Y-89134000D01*
X111115027Y-89144852D01*
X111115027Y-89144852D01*
G37*
G36*
X190825000Y-90495000D02*
X188905000Y-90495000D01*
X188905000Y-88575000D01*
X190825000Y-88575000D01*
X190825000Y-90495000D01*
X190825000Y-90495000D01*
G37*
G36*
X195905000Y-90495000D02*
X193985000Y-90495000D01*
X193985000Y-88575000D01*
X195905000Y-88575000D01*
X195905000Y-90495000D01*
X195905000Y-90495000D01*
G37*
G36*
X227604448Y-86885257D02*
X227868349Y-86965310D01*
X228111562Y-87095310D01*
X228324739Y-87270261D01*
X228499690Y-87483438D01*
X228629690Y-87726651D01*
X228709743Y-87990552D01*
X228736774Y-88265000D01*
X228709743Y-88539448D01*
X228629690Y-88803349D01*
X228499690Y-89046562D01*
X228324739Y-89259739D01*
X228111562Y-89434690D01*
X227868349Y-89564690D01*
X227604448Y-89644743D01*
X227398777Y-89665000D01*
X227261223Y-89665000D01*
X227055552Y-89644743D01*
X226791651Y-89564690D01*
X226548438Y-89434690D01*
X226335261Y-89259739D01*
X226160310Y-89046562D01*
X226030310Y-88803349D01*
X225950257Y-88539448D01*
X225923226Y-88265000D01*
X225950257Y-87990552D01*
X226030310Y-87726651D01*
X226160310Y-87483438D01*
X226335261Y-87270261D01*
X226548438Y-87095310D01*
X226791651Y-86965310D01*
X227055552Y-86885257D01*
X227261223Y-86865000D01*
X227398777Y-86865000D01*
X227604448Y-86885257D01*
X227604448Y-86885257D01*
G37*
G36*
X218078126Y-86876900D02*
X218213365Y-86903801D01*
X218468149Y-87009336D01*
X218596818Y-87095310D01*
X218697451Y-87162551D01*
X218892449Y-87357549D01*
X218892451Y-87357552D01*
X219045664Y-87586851D01*
X219148503Y-87835126D01*
X219151199Y-87841636D01*
X219205000Y-88112111D01*
X219205000Y-88387889D01*
X219189564Y-88465491D01*
X219151199Y-88658365D01*
X219045664Y-88913149D01*
X218956520Y-89046562D01*
X218892449Y-89142451D01*
X218697451Y-89337449D01*
X218697448Y-89337451D01*
X218468149Y-89490664D01*
X218213365Y-89596199D01*
X218078126Y-89623100D01*
X217942889Y-89650000D01*
X217667111Y-89650000D01*
X217531873Y-89623099D01*
X217396635Y-89596199D01*
X217141851Y-89490664D01*
X216912552Y-89337451D01*
X216912549Y-89337449D01*
X216717551Y-89142451D01*
X216653480Y-89046562D01*
X216564336Y-88913149D01*
X216458801Y-88658365D01*
X216420436Y-88465491D01*
X216405000Y-88387889D01*
X216405000Y-88112111D01*
X216458801Y-87841636D01*
X216461498Y-87835126D01*
X216564336Y-87586851D01*
X216717549Y-87357552D01*
X216717551Y-87357549D01*
X216912549Y-87162551D01*
X217013182Y-87095310D01*
X217141851Y-87009336D01*
X217396635Y-86903801D01*
X217531874Y-86876900D01*
X217667111Y-86850000D01*
X217942889Y-86850000D01*
X218078126Y-86876900D01*
X218078126Y-86876900D01*
G37*
G36*
X87503447Y-87538776D02*
X87580576Y-87546373D01*
X87712527Y-87586400D01*
X87778503Y-87606413D01*
X87960912Y-87703913D01*
X88120794Y-87835126D01*
X88252007Y-87995008D01*
X88349507Y-88177417D01*
X88352796Y-88188260D01*
X88409547Y-88375344D01*
X88429820Y-88581180D01*
X88409547Y-88787016D01*
X88371286Y-88913147D01*
X88349507Y-88984943D01*
X88252007Y-89167352D01*
X88120794Y-89327234D01*
X87960912Y-89458447D01*
X87778503Y-89555947D01*
X87712527Y-89575960D01*
X87580576Y-89615987D01*
X87503447Y-89623583D01*
X87426320Y-89631180D01*
X87323160Y-89631180D01*
X87246033Y-89623583D01*
X87168904Y-89615987D01*
X87036953Y-89575960D01*
X86970977Y-89555947D01*
X86788568Y-89458447D01*
X86628686Y-89327234D01*
X86497473Y-89167352D01*
X86399973Y-88984943D01*
X86378194Y-88913147D01*
X86339933Y-88787016D01*
X86319660Y-88581180D01*
X86339933Y-88375344D01*
X86396684Y-88188260D01*
X86399973Y-88177417D01*
X86497473Y-87995008D01*
X86628686Y-87835126D01*
X86788568Y-87703913D01*
X86970977Y-87606413D01*
X87036953Y-87586400D01*
X87168904Y-87546373D01*
X87246033Y-87538776D01*
X87323160Y-87531180D01*
X87426320Y-87531180D01*
X87503447Y-87538776D01*
X87503447Y-87538776D01*
G37*
G36*
X94265000Y-89400000D02*
X91915000Y-89400000D01*
X91915000Y-88400000D01*
X94265000Y-88400000D01*
X94265000Y-89400000D01*
X94265000Y-89400000D01*
G37*
G36*
X103665000Y-89400000D02*
X101315000Y-89400000D01*
X101315000Y-88400000D01*
X103665000Y-88400000D01*
X103665000Y-89400000D01*
X103665000Y-89400000D01*
G37*
G36*
X232606030Y-87279469D02*
X232606033Y-87279470D01*
X232606034Y-87279470D01*
X232794535Y-87336651D01*
X232794537Y-87336652D01*
X232968260Y-87429509D01*
X233120528Y-87554472D01*
X233245491Y-87706740D01*
X233338348Y-87880463D01*
X233338349Y-87880465D01*
X233379019Y-88014537D01*
X233395531Y-88068970D01*
X233414838Y-88265000D01*
X233395531Y-88461030D01*
X233395530Y-88461033D01*
X233395530Y-88461034D01*
X233344275Y-88630000D01*
X233338348Y-88649537D01*
X233245491Y-88823260D01*
X233120528Y-88975528D01*
X232968260Y-89100491D01*
X232805031Y-89187739D01*
X232794535Y-89193349D01*
X232606034Y-89250530D01*
X232606033Y-89250530D01*
X232606030Y-89250531D01*
X232459124Y-89265000D01*
X232360876Y-89265000D01*
X232213970Y-89250531D01*
X232213967Y-89250530D01*
X232213966Y-89250530D01*
X232025465Y-89193349D01*
X232014969Y-89187739D01*
X231851740Y-89100491D01*
X231699472Y-88975528D01*
X231574509Y-88823260D01*
X231481652Y-88649537D01*
X231475726Y-88630000D01*
X231424470Y-88461034D01*
X231424470Y-88461033D01*
X231424469Y-88461030D01*
X231405162Y-88265000D01*
X231424469Y-88068970D01*
X231440981Y-88014537D01*
X231481651Y-87880465D01*
X231481652Y-87880463D01*
X231574509Y-87706740D01*
X231699472Y-87554472D01*
X231851740Y-87429509D01*
X232025463Y-87336652D01*
X232025465Y-87336651D01*
X232213966Y-87279470D01*
X232213967Y-87279470D01*
X232213970Y-87279469D01*
X232360876Y-87265000D01*
X232459124Y-87265000D01*
X232606030Y-87279469D01*
X232606030Y-87279469D01*
G37*
G36*
X111115027Y-87144852D02*
X111256401Y-87187738D01*
X111386694Y-87257380D01*
X111500896Y-87351104D01*
X111594620Y-87465306D01*
X111664262Y-87595599D01*
X111707148Y-87736973D01*
X111721628Y-87884000D01*
X111707148Y-88031027D01*
X111664262Y-88172401D01*
X111594620Y-88302694D01*
X111500896Y-88416896D01*
X111386694Y-88510620D01*
X111256401Y-88580262D01*
X111115027Y-88623148D01*
X111004839Y-88634000D01*
X109531161Y-88634000D01*
X109420973Y-88623148D01*
X109279599Y-88580262D01*
X109149306Y-88510620D01*
X109035104Y-88416896D01*
X108941380Y-88302694D01*
X108871738Y-88172401D01*
X108828852Y-88031027D01*
X108814372Y-87884000D01*
X108828852Y-87736973D01*
X108871738Y-87595599D01*
X108941380Y-87465306D01*
X109035104Y-87351104D01*
X109149306Y-87257380D01*
X109279599Y-87187738D01*
X109420973Y-87144852D01*
X109531161Y-87134000D01*
X111004839Y-87134000D01*
X111115027Y-87144852D01*
X111115027Y-87144852D01*
G37*
G36*
X126515027Y-87144852D02*
X126656401Y-87187738D01*
X126786694Y-87257380D01*
X126900896Y-87351104D01*
X126994620Y-87465306D01*
X127064262Y-87595599D01*
X127107148Y-87736973D01*
X127121628Y-87884000D01*
X127107148Y-88031027D01*
X127064262Y-88172401D01*
X126994620Y-88302694D01*
X126900896Y-88416896D01*
X126786694Y-88510620D01*
X126656401Y-88580262D01*
X126515027Y-88623148D01*
X126404839Y-88634000D01*
X124931161Y-88634000D01*
X124820973Y-88623148D01*
X124679599Y-88580262D01*
X124549306Y-88510620D01*
X124435104Y-88416896D01*
X124341380Y-88302694D01*
X124271738Y-88172401D01*
X124228852Y-88031027D01*
X124214372Y-87884000D01*
X124228852Y-87736973D01*
X124271738Y-87595599D01*
X124341380Y-87465306D01*
X124435104Y-87351104D01*
X124549306Y-87257380D01*
X124679599Y-87187738D01*
X124820973Y-87144852D01*
X124931161Y-87134000D01*
X126404839Y-87134000D01*
X126515027Y-87144852D01*
X126515027Y-87144852D01*
G37*
G36*
X200390000Y-88630000D02*
X198390000Y-88630000D01*
X198390000Y-86630000D01*
X200390000Y-86630000D01*
X200390000Y-88630000D01*
X200390000Y-88630000D01*
G37*
G36*
X209746030Y-86644469D02*
X209746033Y-86644470D01*
X209746034Y-86644470D01*
X209934535Y-86701651D01*
X209934537Y-86701652D01*
X210108260Y-86794509D01*
X210260528Y-86919472D01*
X210385491Y-87071740D01*
X210447493Y-87187738D01*
X210478349Y-87245465D01*
X210534178Y-87429509D01*
X210535531Y-87433970D01*
X210554838Y-87630000D01*
X210535531Y-87826030D01*
X210535530Y-87826033D01*
X210535530Y-87826034D01*
X210484275Y-87995000D01*
X210478348Y-88014537D01*
X210385491Y-88188260D01*
X210260528Y-88340528D01*
X210108260Y-88465491D01*
X210023830Y-88510620D01*
X209934535Y-88558349D01*
X209746034Y-88615530D01*
X209746033Y-88615530D01*
X209746030Y-88615531D01*
X209599124Y-88630000D01*
X209500876Y-88630000D01*
X209353970Y-88615531D01*
X209353967Y-88615530D01*
X209353966Y-88615530D01*
X209165465Y-88558349D01*
X209076170Y-88510620D01*
X208991740Y-88465491D01*
X208839472Y-88340528D01*
X208714509Y-88188260D01*
X208621652Y-88014537D01*
X208615726Y-87995000D01*
X208564470Y-87826034D01*
X208564470Y-87826033D01*
X208564469Y-87826030D01*
X208545162Y-87630000D01*
X208564469Y-87433970D01*
X208565822Y-87429509D01*
X208621651Y-87245465D01*
X208652507Y-87187738D01*
X208714509Y-87071740D01*
X208839472Y-86919472D01*
X208991740Y-86794509D01*
X209165463Y-86701652D01*
X209165465Y-86701651D01*
X209353966Y-86644470D01*
X209353967Y-86644470D01*
X209353970Y-86644469D01*
X209500876Y-86630000D01*
X209599124Y-86630000D01*
X209746030Y-86644469D01*
X209746030Y-86644469D01*
G37*
G36*
X238424740Y-88361180D02*
X236324740Y-88361180D01*
X236324740Y-86261180D01*
X238424740Y-86261180D01*
X238424740Y-88361180D01*
X238424740Y-88361180D01*
G37*
G36*
X103665000Y-88130000D02*
X101315000Y-88130000D01*
X101315000Y-87130000D01*
X103665000Y-87130000D01*
X103665000Y-88130000D01*
X103665000Y-88130000D01*
G37*
G36*
X94265000Y-88130000D02*
X91915000Y-88130000D01*
X91915000Y-87130000D01*
X94265000Y-87130000D01*
X94265000Y-88130000D01*
X94265000Y-88130000D01*
G37*
G36*
X188764086Y-86009042D02*
X188886689Y-86033429D01*
X189068678Y-86108811D01*
X189232463Y-86218249D01*
X189371751Y-86357537D01*
X189481189Y-86521322D01*
X189556571Y-86703311D01*
X189573264Y-86787234D01*
X189595000Y-86896507D01*
X189595000Y-87093493D01*
X189584784Y-87144852D01*
X189556571Y-87286689D01*
X189481189Y-87468678D01*
X189371751Y-87632463D01*
X189232463Y-87771751D01*
X189068678Y-87881189D01*
X188886689Y-87956571D01*
X188770770Y-87979628D01*
X188693493Y-87995000D01*
X188496507Y-87995000D01*
X188419230Y-87979628D01*
X188303311Y-87956571D01*
X188121322Y-87881189D01*
X187957537Y-87771751D01*
X187818249Y-87632463D01*
X187708811Y-87468678D01*
X187633429Y-87286689D01*
X187605216Y-87144852D01*
X187595000Y-87093493D01*
X187595000Y-86896507D01*
X187616736Y-86787234D01*
X187633429Y-86703311D01*
X187708811Y-86521322D01*
X187818249Y-86357537D01*
X187957537Y-86218249D01*
X188121322Y-86108811D01*
X188303311Y-86033429D01*
X188425914Y-86009042D01*
X188496507Y-85995000D01*
X188693493Y-85995000D01*
X188764086Y-86009042D01*
X188764086Y-86009042D01*
G37*
G36*
X196384086Y-86009042D02*
X196506689Y-86033429D01*
X196688678Y-86108811D01*
X196852463Y-86218249D01*
X196991751Y-86357537D01*
X197101189Y-86521322D01*
X197176571Y-86703311D01*
X197193264Y-86787234D01*
X197215000Y-86896507D01*
X197215000Y-87093493D01*
X197204784Y-87144852D01*
X197176571Y-87286689D01*
X197101189Y-87468678D01*
X196991751Y-87632463D01*
X196852463Y-87771751D01*
X196688678Y-87881189D01*
X196506689Y-87956571D01*
X196390770Y-87979628D01*
X196313493Y-87995000D01*
X196116507Y-87995000D01*
X196039230Y-87979628D01*
X195923311Y-87956571D01*
X195741322Y-87881189D01*
X195577537Y-87771751D01*
X195438249Y-87632463D01*
X195328811Y-87468678D01*
X195253429Y-87286689D01*
X195225216Y-87144852D01*
X195215000Y-87093493D01*
X195215000Y-86896507D01*
X195236736Y-86787234D01*
X195253429Y-86703311D01*
X195328811Y-86521322D01*
X195438249Y-86357537D01*
X195577537Y-86218249D01*
X195741322Y-86108811D01*
X195923311Y-86033429D01*
X196045914Y-86009042D01*
X196116507Y-85995000D01*
X196313493Y-85995000D01*
X196384086Y-86009042D01*
X196384086Y-86009042D01*
G37*
G36*
X192574086Y-86009042D02*
X192696689Y-86033429D01*
X192878678Y-86108811D01*
X193042463Y-86218249D01*
X193181751Y-86357537D01*
X193291189Y-86521322D01*
X193366571Y-86703311D01*
X193383264Y-86787234D01*
X193405000Y-86896507D01*
X193405000Y-87093493D01*
X193394784Y-87144852D01*
X193366571Y-87286689D01*
X193291189Y-87468678D01*
X193181751Y-87632463D01*
X193042463Y-87771751D01*
X192878678Y-87881189D01*
X192696689Y-87956571D01*
X192580770Y-87979628D01*
X192503493Y-87995000D01*
X192306507Y-87995000D01*
X192229230Y-87979628D01*
X192113311Y-87956571D01*
X191931322Y-87881189D01*
X191767537Y-87771751D01*
X191628249Y-87632463D01*
X191518811Y-87468678D01*
X191443429Y-87286689D01*
X191415216Y-87144852D01*
X191405000Y-87093493D01*
X191405000Y-86896507D01*
X191426736Y-86787234D01*
X191443429Y-86703311D01*
X191518811Y-86521322D01*
X191628249Y-86357537D01*
X191767537Y-86218249D01*
X191931322Y-86108811D01*
X192113311Y-86033429D01*
X192235914Y-86009042D01*
X192306507Y-85995000D01*
X192503493Y-85995000D01*
X192574086Y-86009042D01*
X192574086Y-86009042D01*
G37*
G36*
X87503447Y-84998777D02*
X87580576Y-85006373D01*
X87712527Y-85046400D01*
X87778503Y-85066413D01*
X87960912Y-85163913D01*
X88120794Y-85295126D01*
X88252007Y-85455008D01*
X88349507Y-85637417D01*
X88349507Y-85637418D01*
X88409547Y-85835344D01*
X88429820Y-86041180D01*
X88409547Y-86247016D01*
X88392657Y-86302694D01*
X88349507Y-86444943D01*
X88252007Y-86627352D01*
X88120794Y-86787234D01*
X87960912Y-86918447D01*
X87778503Y-87015947D01*
X87712527Y-87035960D01*
X87580576Y-87075987D01*
X87503447Y-87083584D01*
X87426320Y-87091180D01*
X87323160Y-87091180D01*
X87246033Y-87083584D01*
X87168904Y-87075987D01*
X87036953Y-87035960D01*
X86970977Y-87015947D01*
X86788568Y-86918447D01*
X86628686Y-86787234D01*
X86497473Y-86627352D01*
X86399973Y-86444943D01*
X86356823Y-86302694D01*
X86339933Y-86247016D01*
X86319660Y-86041180D01*
X86339933Y-85835344D01*
X86399973Y-85637418D01*
X86399973Y-85637417D01*
X86497473Y-85455008D01*
X86628686Y-85295126D01*
X86788568Y-85163913D01*
X86970977Y-85066413D01*
X87036953Y-85046400D01*
X87168904Y-85006373D01*
X87246033Y-84998777D01*
X87323160Y-84991180D01*
X87426320Y-84991180D01*
X87503447Y-84998777D01*
X87503447Y-84998777D01*
G37*
G36*
X103665000Y-86860000D02*
X101315000Y-86860000D01*
X101315000Y-85860000D01*
X103665000Y-85860000D01*
X103665000Y-86860000D01*
X103665000Y-86860000D01*
G37*
G36*
X94265000Y-86860000D02*
X91915000Y-86860000D01*
X91915000Y-85860000D01*
X94265000Y-85860000D01*
X94265000Y-86860000D01*
X94265000Y-86860000D01*
G37*
G36*
X111115027Y-85144852D02*
X111256401Y-85187738D01*
X111386694Y-85257380D01*
X111500896Y-85351104D01*
X111594620Y-85465306D01*
X111664262Y-85595599D01*
X111707148Y-85736973D01*
X111721628Y-85884000D01*
X111707148Y-86031027D01*
X111664262Y-86172401D01*
X111594620Y-86302694D01*
X111500896Y-86416896D01*
X111386694Y-86510620D01*
X111256401Y-86580262D01*
X111115027Y-86623148D01*
X111004839Y-86634000D01*
X109531161Y-86634000D01*
X109420973Y-86623148D01*
X109279599Y-86580262D01*
X109149306Y-86510620D01*
X109035104Y-86416896D01*
X108941380Y-86302694D01*
X108871738Y-86172401D01*
X108828852Y-86031027D01*
X108814372Y-85884000D01*
X108828852Y-85736973D01*
X108871738Y-85595599D01*
X108941380Y-85465306D01*
X109035104Y-85351104D01*
X109149306Y-85257380D01*
X109279599Y-85187738D01*
X109420973Y-85144852D01*
X109531161Y-85134000D01*
X111004839Y-85134000D01*
X111115027Y-85144852D01*
X111115027Y-85144852D01*
G37*
G36*
X126515027Y-85144852D02*
X126656401Y-85187738D01*
X126786694Y-85257380D01*
X126900896Y-85351104D01*
X126994620Y-85465306D01*
X127064262Y-85595599D01*
X127107148Y-85736973D01*
X127121628Y-85884000D01*
X127107148Y-86031027D01*
X127064262Y-86172401D01*
X126994620Y-86302694D01*
X126900896Y-86416896D01*
X126786694Y-86510620D01*
X126656401Y-86580262D01*
X126515027Y-86623148D01*
X126404839Y-86634000D01*
X124931161Y-86634000D01*
X124820973Y-86623148D01*
X124679599Y-86580262D01*
X124549306Y-86510620D01*
X124435104Y-86416896D01*
X124341380Y-86302694D01*
X124271738Y-86172401D01*
X124228852Y-86031027D01*
X124214372Y-85884000D01*
X124228852Y-85736973D01*
X124271738Y-85595599D01*
X124341380Y-85465306D01*
X124435104Y-85351104D01*
X124549306Y-85257380D01*
X124679599Y-85187738D01*
X124820973Y-85144852D01*
X124931161Y-85134000D01*
X126404839Y-85134000D01*
X126515027Y-85144852D01*
X126515027Y-85144852D01*
G37*
G36*
X231355639Y-84005916D02*
X231562986Y-84068815D01*
X231562988Y-84068816D01*
X231754084Y-84170958D01*
X231921581Y-84308419D01*
X232059042Y-84475916D01*
X232137738Y-84623147D01*
X232161185Y-84667014D01*
X232224084Y-84874361D01*
X232245322Y-85090000D01*
X232224084Y-85305639D01*
X232175649Y-85465306D01*
X232161184Y-85512988D01*
X232059042Y-85704084D01*
X231921581Y-85871581D01*
X231754084Y-86009042D01*
X231562988Y-86111184D01*
X231562986Y-86111185D01*
X231355639Y-86174084D01*
X231194038Y-86190000D01*
X231085962Y-86190000D01*
X230924361Y-86174084D01*
X230717014Y-86111185D01*
X230717012Y-86111184D01*
X230525916Y-86009042D01*
X230358419Y-85871581D01*
X230220958Y-85704084D01*
X230118816Y-85512988D01*
X230104352Y-85465306D01*
X230055916Y-85305639D01*
X230034678Y-85090000D01*
X230055916Y-84874361D01*
X230118815Y-84667014D01*
X230142262Y-84623147D01*
X230220958Y-84475916D01*
X230358419Y-84308419D01*
X230525916Y-84170958D01*
X230717012Y-84068816D01*
X230717014Y-84068815D01*
X230924361Y-84005916D01*
X231085962Y-83990000D01*
X231194038Y-83990000D01*
X231355639Y-84005916D01*
X231355639Y-84005916D01*
G37*
G36*
X227160000Y-86190000D02*
X224960000Y-86190000D01*
X224960000Y-83990000D01*
X227160000Y-83990000D01*
X227160000Y-86190000D01*
X227160000Y-86190000D01*
G37*
G36*
X228815639Y-84005916D02*
X229022986Y-84068815D01*
X229022988Y-84068816D01*
X229214084Y-84170958D01*
X229381581Y-84308419D01*
X229519042Y-84475916D01*
X229597738Y-84623147D01*
X229621185Y-84667014D01*
X229684084Y-84874361D01*
X229705322Y-85090000D01*
X229684084Y-85305639D01*
X229635649Y-85465306D01*
X229621184Y-85512988D01*
X229519042Y-85704084D01*
X229381581Y-85871581D01*
X229214084Y-86009042D01*
X229022988Y-86111184D01*
X229022986Y-86111185D01*
X228815639Y-86174084D01*
X228654038Y-86190000D01*
X228545962Y-86190000D01*
X228384361Y-86174084D01*
X228177014Y-86111185D01*
X228177012Y-86111184D01*
X227985916Y-86009042D01*
X227818419Y-85871581D01*
X227680958Y-85704084D01*
X227578816Y-85512988D01*
X227564352Y-85465306D01*
X227515916Y-85305639D01*
X227494678Y-85090000D01*
X227515916Y-84874361D01*
X227578815Y-84667014D01*
X227602262Y-84623147D01*
X227680958Y-84475916D01*
X227818419Y-84308419D01*
X227985916Y-84170958D01*
X228177012Y-84068816D01*
X228177014Y-84068815D01*
X228384361Y-84005916D01*
X228545962Y-83990000D01*
X228654038Y-83990000D01*
X228815639Y-84005916D01*
X228815639Y-84005916D01*
G37*
G36*
X237503447Y-83728777D02*
X237580576Y-83736373D01*
X237712527Y-83776400D01*
X237778503Y-83796413D01*
X237960912Y-83893913D01*
X238120794Y-84025126D01*
X238252007Y-84185008D01*
X238349507Y-84367417D01*
X238349507Y-84367418D01*
X238409547Y-84565344D01*
X238429820Y-84771180D01*
X238409547Y-84977016D01*
X238382429Y-85066413D01*
X238349507Y-85174943D01*
X238252007Y-85357352D01*
X238120794Y-85517234D01*
X237960912Y-85648447D01*
X237778503Y-85745947D01*
X237712527Y-85765960D01*
X237580576Y-85805987D01*
X237503447Y-85813583D01*
X237426320Y-85821180D01*
X237323160Y-85821180D01*
X237246033Y-85813584D01*
X237168904Y-85805987D01*
X237036953Y-85765960D01*
X236970977Y-85745947D01*
X236788568Y-85648447D01*
X236628686Y-85517234D01*
X236497473Y-85357352D01*
X236399973Y-85174943D01*
X236367051Y-85066413D01*
X236339933Y-84977016D01*
X236319660Y-84771180D01*
X236339933Y-84565344D01*
X236399973Y-84367418D01*
X236399973Y-84367417D01*
X236497473Y-84185008D01*
X236628686Y-84025126D01*
X236788568Y-83893913D01*
X236970977Y-83796413D01*
X237036953Y-83776400D01*
X237168904Y-83736373D01*
X237246033Y-83728777D01*
X237323160Y-83721180D01*
X237426320Y-83721180D01*
X237503447Y-83728777D01*
X237503447Y-83728777D01*
G37*
G36*
X103665000Y-85590000D02*
X101315000Y-85590000D01*
X101315000Y-84590000D01*
X103665000Y-84590000D01*
X103665000Y-85590000D01*
X103665000Y-85590000D01*
G37*
G36*
X94265000Y-85590000D02*
X91915000Y-85590000D01*
X91915000Y-84590000D01*
X94265000Y-84590000D01*
X94265000Y-85590000D01*
X94265000Y-85590000D01*
G37*
G36*
X202105770Y-83470372D02*
X202221689Y-83493429D01*
X202403678Y-83568811D01*
X202567463Y-83678249D01*
X202706751Y-83817537D01*
X202816189Y-83981322D01*
X202891571Y-84163311D01*
X202908264Y-84247234D01*
X202930000Y-84356507D01*
X202930000Y-84553493D01*
X202927642Y-84565346D01*
X202891571Y-84746689D01*
X202816189Y-84928678D01*
X202706751Y-85092463D01*
X202567463Y-85231751D01*
X202403678Y-85341189D01*
X202221689Y-85416571D01*
X202105770Y-85439628D01*
X202028493Y-85455000D01*
X201831507Y-85455000D01*
X201754230Y-85439628D01*
X201638311Y-85416571D01*
X201456322Y-85341189D01*
X201292537Y-85231751D01*
X201153249Y-85092463D01*
X201043811Y-84928678D01*
X200968429Y-84746689D01*
X200932358Y-84565346D01*
X200930000Y-84553493D01*
X200930000Y-84356507D01*
X200951736Y-84247234D01*
X200968429Y-84163311D01*
X201043811Y-83981322D01*
X201153249Y-83817537D01*
X201292537Y-83678249D01*
X201456322Y-83568811D01*
X201638311Y-83493429D01*
X201754230Y-83470372D01*
X201831507Y-83455000D01*
X202028493Y-83455000D01*
X202105770Y-83470372D01*
X202105770Y-83470372D01*
G37*
G36*
X199605770Y-83470372D02*
X199721689Y-83493429D01*
X199903678Y-83568811D01*
X200067463Y-83678249D01*
X200206751Y-83817537D01*
X200316189Y-83981322D01*
X200391571Y-84163311D01*
X200408264Y-84247234D01*
X200430000Y-84356507D01*
X200430000Y-84553493D01*
X200427642Y-84565346D01*
X200391571Y-84746689D01*
X200316189Y-84928678D01*
X200206751Y-85092463D01*
X200067463Y-85231751D01*
X199903678Y-85341189D01*
X199721689Y-85416571D01*
X199605770Y-85439628D01*
X199528493Y-85455000D01*
X199331507Y-85455000D01*
X199254230Y-85439628D01*
X199138311Y-85416571D01*
X198956322Y-85341189D01*
X198792537Y-85231751D01*
X198653249Y-85092463D01*
X198543811Y-84928678D01*
X198468429Y-84746689D01*
X198432358Y-84565346D01*
X198430000Y-84553493D01*
X198430000Y-84356507D01*
X198451736Y-84247234D01*
X198468429Y-84163311D01*
X198543811Y-83981322D01*
X198653249Y-83817537D01*
X198792537Y-83678249D01*
X198956322Y-83568811D01*
X199138311Y-83493429D01*
X199254230Y-83470372D01*
X199331507Y-83455000D01*
X199528493Y-83455000D01*
X199605770Y-83470372D01*
X199605770Y-83470372D01*
G37*
G36*
X206020603Y-83529968D02*
X206020606Y-83529969D01*
X206020605Y-83529969D01*
X206195678Y-83602486D01*
X206195679Y-83602487D01*
X206353241Y-83707767D01*
X206487233Y-83841759D01*
X206522081Y-83893913D01*
X206592514Y-83999322D01*
X206621299Y-84068816D01*
X206665032Y-84174397D01*
X206702000Y-84360250D01*
X206702000Y-84549750D01*
X206665032Y-84735603D01*
X206665031Y-84735605D01*
X206592514Y-84910678D01*
X206548189Y-84977014D01*
X206487233Y-85068241D01*
X206353241Y-85202233D01*
X206309070Y-85231747D01*
X206195678Y-85307514D01*
X206090439Y-85351105D01*
X206020603Y-85380032D01*
X205834750Y-85417000D01*
X205645250Y-85417000D01*
X205459397Y-85380032D01*
X205389561Y-85351105D01*
X205284322Y-85307514D01*
X205170930Y-85231747D01*
X205126759Y-85202233D01*
X204992767Y-85068241D01*
X204931811Y-84977014D01*
X204887486Y-84910678D01*
X204814969Y-84735605D01*
X204814968Y-84735603D01*
X204778000Y-84549750D01*
X204778000Y-84360250D01*
X204814968Y-84174397D01*
X204858701Y-84068816D01*
X204887486Y-83999322D01*
X204957919Y-83893913D01*
X204992767Y-83841759D01*
X205126759Y-83707767D01*
X205284321Y-83602487D01*
X205284322Y-83602486D01*
X205459395Y-83529969D01*
X205459394Y-83529969D01*
X205459397Y-83529968D01*
X205645250Y-83493000D01*
X205834750Y-83493000D01*
X206020603Y-83529968D01*
X206020603Y-83529968D01*
G37*
G36*
X149620000Y-85178000D02*
X147720000Y-85178000D01*
X147720000Y-83478000D01*
X149620000Y-83478000D01*
X149620000Y-85178000D01*
X149620000Y-85178000D01*
G37*
G36*
X146920000Y-85178000D02*
X145020000Y-85178000D01*
X145020000Y-83478000D01*
X146920000Y-83478000D01*
X146920000Y-85178000D01*
X146920000Y-85178000D01*
G37*
G36*
X141840000Y-85178000D02*
X139940000Y-85178000D01*
X139940000Y-83478000D01*
X141840000Y-83478000D01*
X141840000Y-85178000D01*
X141840000Y-85178000D01*
G37*
G36*
X144540000Y-85178000D02*
X142640000Y-85178000D01*
X142640000Y-83478000D01*
X144540000Y-83478000D01*
X144540000Y-85178000D01*
X144540000Y-85178000D01*
G37*
G36*
X126515027Y-83144852D02*
X126656401Y-83187738D01*
X126786694Y-83257380D01*
X126900896Y-83351104D01*
X126994620Y-83465306D01*
X127064262Y-83595599D01*
X127107148Y-83736973D01*
X127121628Y-83884000D01*
X127107148Y-84031027D01*
X127064262Y-84172401D01*
X126994620Y-84302694D01*
X126900896Y-84416896D01*
X126786694Y-84510620D01*
X126656401Y-84580262D01*
X126515027Y-84623148D01*
X126404839Y-84634000D01*
X124931161Y-84634000D01*
X124820973Y-84623148D01*
X124679599Y-84580262D01*
X124549306Y-84510620D01*
X124435104Y-84416896D01*
X124341380Y-84302694D01*
X124271738Y-84172401D01*
X124228852Y-84031027D01*
X124214372Y-83884000D01*
X124228852Y-83736973D01*
X124271738Y-83595599D01*
X124341380Y-83465306D01*
X124435104Y-83351104D01*
X124549306Y-83257380D01*
X124679599Y-83187738D01*
X124820973Y-83144852D01*
X124931161Y-83134000D01*
X126404839Y-83134000D01*
X126515027Y-83144852D01*
X126515027Y-83144852D01*
G37*
G36*
X111115027Y-83144852D02*
X111256401Y-83187738D01*
X111386694Y-83257380D01*
X111500896Y-83351104D01*
X111594620Y-83465306D01*
X111664262Y-83595599D01*
X111707148Y-83736973D01*
X111721628Y-83884000D01*
X111707148Y-84031027D01*
X111664262Y-84172401D01*
X111594620Y-84302694D01*
X111500896Y-84416896D01*
X111386694Y-84510620D01*
X111256401Y-84580262D01*
X111115027Y-84623148D01*
X111004839Y-84634000D01*
X109531161Y-84634000D01*
X109420973Y-84623148D01*
X109279599Y-84580262D01*
X109149306Y-84510620D01*
X109035104Y-84416896D01*
X108941380Y-84302694D01*
X108871738Y-84172401D01*
X108828852Y-84031027D01*
X108814372Y-83884000D01*
X108828852Y-83736973D01*
X108871738Y-83595599D01*
X108941380Y-83465306D01*
X109035104Y-83351104D01*
X109149306Y-83257380D01*
X109279599Y-83187738D01*
X109420973Y-83144852D01*
X109531161Y-83134000D01*
X111004839Y-83134000D01*
X111115027Y-83144852D01*
X111115027Y-83144852D01*
G37*
G36*
X87503447Y-82458776D02*
X87580576Y-82466373D01*
X87712527Y-82506400D01*
X87778503Y-82526413D01*
X87960912Y-82623913D01*
X88120794Y-82755126D01*
X88252007Y-82915008D01*
X88349507Y-83097417D01*
X88349507Y-83097418D01*
X88409547Y-83295344D01*
X88429820Y-83501180D01*
X88409547Y-83707016D01*
X88382429Y-83796413D01*
X88349507Y-83904943D01*
X88252007Y-84087352D01*
X88120794Y-84247234D01*
X87960912Y-84378447D01*
X87778503Y-84475947D01*
X87712527Y-84495960D01*
X87580576Y-84535987D01*
X87503447Y-84543583D01*
X87426320Y-84551180D01*
X87323160Y-84551180D01*
X87246033Y-84543583D01*
X87168904Y-84535987D01*
X87036953Y-84495960D01*
X86970977Y-84475947D01*
X86788568Y-84378447D01*
X86628686Y-84247234D01*
X86497473Y-84087352D01*
X86399973Y-83904943D01*
X86367051Y-83796413D01*
X86339933Y-83707016D01*
X86319660Y-83501180D01*
X86339933Y-83295344D01*
X86399973Y-83097418D01*
X86399973Y-83097417D01*
X86497473Y-82915008D01*
X86628686Y-82755126D01*
X86788568Y-82623913D01*
X86970977Y-82526413D01*
X87036953Y-82506400D01*
X87168904Y-82466373D01*
X87246033Y-82458776D01*
X87323160Y-82451180D01*
X87426320Y-82451180D01*
X87503447Y-82458776D01*
X87503447Y-82458776D01*
G37*
G36*
X218470000Y-84485000D02*
X215870000Y-84485000D01*
X215870000Y-81885000D01*
X218470000Y-81885000D01*
X218470000Y-84485000D01*
X218470000Y-84485000D01*
G37*
G36*
X94265000Y-84320000D02*
X91915000Y-84320000D01*
X91915000Y-83320000D01*
X94265000Y-83320000D01*
X94265000Y-84320000D01*
X94265000Y-84320000D01*
G37*
G36*
X103665000Y-84320000D02*
X101315000Y-84320000D01*
X101315000Y-83320000D01*
X103665000Y-83320000D01*
X103665000Y-84320000D01*
X103665000Y-84320000D01*
G37*
G36*
X214191030Y-82199469D02*
X214191033Y-82199470D01*
X214191034Y-82199470D01*
X214379535Y-82256651D01*
X214379537Y-82256652D01*
X214553260Y-82349509D01*
X214705528Y-82474472D01*
X214830491Y-82626740D01*
X214849462Y-82662233D01*
X214923349Y-82800465D01*
X214958095Y-82915008D01*
X214980531Y-82988970D01*
X214999838Y-83185000D01*
X214980531Y-83381030D01*
X214980530Y-83381033D01*
X214980530Y-83381034D01*
X214923569Y-83568811D01*
X214923348Y-83569537D01*
X214830491Y-83743260D01*
X214705528Y-83895528D01*
X214553260Y-84020491D01*
X214462852Y-84068815D01*
X214379535Y-84113349D01*
X214191034Y-84170530D01*
X214191033Y-84170530D01*
X214191030Y-84170531D01*
X214044124Y-84185000D01*
X213945876Y-84185000D01*
X213798970Y-84170531D01*
X213798967Y-84170530D01*
X213798966Y-84170530D01*
X213610465Y-84113349D01*
X213527148Y-84068815D01*
X213436740Y-84020491D01*
X213284472Y-83895528D01*
X213159509Y-83743260D01*
X213066652Y-83569537D01*
X213066432Y-83568811D01*
X213009470Y-83381034D01*
X213009470Y-83381033D01*
X213009469Y-83381030D01*
X212990162Y-83185000D01*
X213009469Y-82988970D01*
X213031905Y-82915008D01*
X213066651Y-82800465D01*
X213140538Y-82662233D01*
X213159509Y-82626740D01*
X213284472Y-82474472D01*
X213436740Y-82349509D01*
X213610463Y-82256652D01*
X213610465Y-82256651D01*
X213798966Y-82199470D01*
X213798967Y-82199470D01*
X213798970Y-82199469D01*
X213945876Y-82185000D01*
X214044124Y-82185000D01*
X214191030Y-82199469D01*
X214191030Y-82199469D01*
G37*
G36*
X221176030Y-82199469D02*
X221176033Y-82199470D01*
X221176034Y-82199470D01*
X221364535Y-82256651D01*
X221364537Y-82256652D01*
X221538260Y-82349509D01*
X221690528Y-82474472D01*
X221815491Y-82626740D01*
X221834462Y-82662233D01*
X221908349Y-82800465D01*
X221943095Y-82915008D01*
X221965531Y-82988970D01*
X221984838Y-83185000D01*
X221965531Y-83381030D01*
X221965530Y-83381033D01*
X221965530Y-83381034D01*
X221908569Y-83568811D01*
X221908348Y-83569537D01*
X221815491Y-83743260D01*
X221690528Y-83895528D01*
X221538260Y-84020491D01*
X221447852Y-84068815D01*
X221364535Y-84113349D01*
X221176034Y-84170530D01*
X221176033Y-84170530D01*
X221176030Y-84170531D01*
X221029124Y-84185000D01*
X220930876Y-84185000D01*
X220783970Y-84170531D01*
X220783967Y-84170530D01*
X220783966Y-84170530D01*
X220595465Y-84113349D01*
X220512148Y-84068815D01*
X220421740Y-84020491D01*
X220269472Y-83895528D01*
X220144509Y-83743260D01*
X220051652Y-83569537D01*
X220051432Y-83568811D01*
X219994470Y-83381034D01*
X219994470Y-83381033D01*
X219994469Y-83381030D01*
X219975162Y-83185000D01*
X219994469Y-82988970D01*
X220016905Y-82915008D01*
X220051651Y-82800465D01*
X220125538Y-82662233D01*
X220144509Y-82626740D01*
X220269472Y-82474472D01*
X220421740Y-82349509D01*
X220595463Y-82256652D01*
X220595465Y-82256651D01*
X220783966Y-82199470D01*
X220783967Y-82199470D01*
X220783970Y-82199469D01*
X220930876Y-82185000D01*
X221029124Y-82185000D01*
X221176030Y-82199469D01*
X221176030Y-82199469D01*
G37*
G36*
X211016030Y-82199469D02*
X211016033Y-82199470D01*
X211016034Y-82199470D01*
X211204535Y-82256651D01*
X211204537Y-82256652D01*
X211378260Y-82349509D01*
X211530528Y-82474472D01*
X211655491Y-82626740D01*
X211674462Y-82662233D01*
X211748349Y-82800465D01*
X211783095Y-82915008D01*
X211805531Y-82988970D01*
X211824838Y-83185000D01*
X211805531Y-83381030D01*
X211805530Y-83381033D01*
X211805530Y-83381034D01*
X211748569Y-83568811D01*
X211748348Y-83569537D01*
X211655491Y-83743260D01*
X211530528Y-83895528D01*
X211378260Y-84020491D01*
X211287852Y-84068815D01*
X211204535Y-84113349D01*
X211016034Y-84170530D01*
X211016033Y-84170530D01*
X211016030Y-84170531D01*
X210869124Y-84185000D01*
X210770876Y-84185000D01*
X210623970Y-84170531D01*
X210623967Y-84170530D01*
X210623966Y-84170530D01*
X210435465Y-84113349D01*
X210352148Y-84068815D01*
X210261740Y-84020491D01*
X210109472Y-83895528D01*
X209984509Y-83743260D01*
X209891652Y-83569537D01*
X209891432Y-83568811D01*
X209834470Y-83381034D01*
X209834470Y-83381033D01*
X209834469Y-83381030D01*
X209815162Y-83185000D01*
X209834469Y-82988970D01*
X209856905Y-82915008D01*
X209891651Y-82800465D01*
X209965538Y-82662233D01*
X209984509Y-82626740D01*
X210109472Y-82474472D01*
X210261740Y-82349509D01*
X210435463Y-82256652D01*
X210435465Y-82256651D01*
X210623966Y-82199470D01*
X210623967Y-82199470D01*
X210623970Y-82199469D01*
X210770876Y-82185000D01*
X210869124Y-82185000D01*
X211016030Y-82199469D01*
X211016030Y-82199469D01*
G37*
G36*
X94265000Y-83050000D02*
X91915000Y-83050000D01*
X91915000Y-82050000D01*
X94265000Y-82050000D01*
X94265000Y-83050000D01*
X94265000Y-83050000D01*
G37*
G36*
X103665000Y-83050000D02*
X101315000Y-83050000D01*
X101315000Y-82050000D01*
X103665000Y-82050000D01*
X103665000Y-83050000D01*
X103665000Y-83050000D01*
G37*
G36*
X107530000Y-82945000D02*
X105830000Y-82945000D01*
X105830000Y-81045000D01*
X107530000Y-81045000D01*
X107530000Y-82945000D01*
X107530000Y-82945000D01*
G37*
G36*
X206020603Y-80989968D02*
X206020606Y-80989969D01*
X206020605Y-80989969D01*
X206195678Y-81062486D01*
X206273923Y-81114768D01*
X206353241Y-81167767D01*
X206487233Y-81301759D01*
X206487234Y-81301761D01*
X206592514Y-81459322D01*
X206648603Y-81594734D01*
X206665032Y-81634397D01*
X206702000Y-81820250D01*
X206702000Y-82009750D01*
X206665032Y-82195603D01*
X206648603Y-82235266D01*
X206592514Y-82370678D01*
X206592513Y-82370679D01*
X206487233Y-82528241D01*
X206353241Y-82662233D01*
X206273923Y-82715232D01*
X206195678Y-82767514D01*
X206060266Y-82823603D01*
X206020603Y-82840032D01*
X205834750Y-82877000D01*
X205645250Y-82877000D01*
X205459397Y-82840032D01*
X205419734Y-82823603D01*
X205284322Y-82767514D01*
X205206077Y-82715232D01*
X205126759Y-82662233D01*
X204992767Y-82528241D01*
X204887487Y-82370679D01*
X204887486Y-82370678D01*
X204831397Y-82235266D01*
X204814968Y-82195603D01*
X204778000Y-82009750D01*
X204778000Y-81820250D01*
X204814968Y-81634397D01*
X204831397Y-81594734D01*
X204887486Y-81459322D01*
X204992766Y-81301761D01*
X204992767Y-81301759D01*
X205126759Y-81167767D01*
X205206077Y-81114768D01*
X205284322Y-81062486D01*
X205459395Y-80989969D01*
X205459394Y-80989969D01*
X205459397Y-80989968D01*
X205645250Y-80953000D01*
X205834750Y-80953000D01*
X206020603Y-80989968D01*
X206020603Y-80989968D01*
G37*
G36*
X111115027Y-81144852D02*
X111256401Y-81187738D01*
X111386694Y-81257380D01*
X111500896Y-81351104D01*
X111594620Y-81465306D01*
X111664262Y-81595599D01*
X111707148Y-81736973D01*
X111721628Y-81884000D01*
X111707148Y-82031027D01*
X111664262Y-82172401D01*
X111594620Y-82302694D01*
X111500896Y-82416896D01*
X111386694Y-82510620D01*
X111256401Y-82580262D01*
X111115027Y-82623148D01*
X111004839Y-82634000D01*
X109531161Y-82634000D01*
X109420973Y-82623148D01*
X109279599Y-82580262D01*
X109149306Y-82510620D01*
X109035104Y-82416896D01*
X108941380Y-82302694D01*
X108871738Y-82172401D01*
X108828852Y-82031027D01*
X108814372Y-81884000D01*
X108828852Y-81736973D01*
X108871738Y-81595599D01*
X108941380Y-81465306D01*
X109035104Y-81351104D01*
X109149306Y-81257380D01*
X109279599Y-81187738D01*
X109420973Y-81144852D01*
X109531161Y-81134000D01*
X111004839Y-81134000D01*
X111115027Y-81144852D01*
X111115027Y-81144852D01*
G37*
G36*
X126515027Y-81144852D02*
X126656401Y-81187738D01*
X126786694Y-81257380D01*
X126900896Y-81351104D01*
X126994620Y-81465306D01*
X127064262Y-81595599D01*
X127107148Y-81736973D01*
X127121628Y-81884000D01*
X127107148Y-82031027D01*
X127064262Y-82172401D01*
X126994620Y-82302694D01*
X126900896Y-82416896D01*
X126786694Y-82510620D01*
X126656401Y-82580262D01*
X126515027Y-82623148D01*
X126404839Y-82634000D01*
X124931161Y-82634000D01*
X124820973Y-82623148D01*
X124679599Y-82580262D01*
X124549306Y-82510620D01*
X124435104Y-82416896D01*
X124341380Y-82302694D01*
X124271738Y-82172401D01*
X124228852Y-82031027D01*
X124214372Y-81884000D01*
X124228852Y-81736973D01*
X124271738Y-81595599D01*
X124341380Y-81465306D01*
X124435104Y-81351104D01*
X124549306Y-81257380D01*
X124679599Y-81187738D01*
X124820973Y-81144852D01*
X124931161Y-81134000D01*
X126404839Y-81134000D01*
X126515027Y-81144852D01*
X126515027Y-81144852D01*
G37*
G36*
X184960770Y-80295372D02*
X185076689Y-80318429D01*
X185258678Y-80393811D01*
X185422463Y-80503249D01*
X185561751Y-80642537D01*
X185671189Y-80806322D01*
X185746571Y-80988311D01*
X185769628Y-81104230D01*
X185782267Y-81167766D01*
X185785000Y-81181509D01*
X185785000Y-81378491D01*
X185746571Y-81571689D01*
X185671189Y-81753678D01*
X185561751Y-81917463D01*
X185422463Y-82056751D01*
X185258678Y-82166189D01*
X185076689Y-82241571D01*
X184960770Y-82264628D01*
X184883493Y-82280000D01*
X184686507Y-82280000D01*
X184609230Y-82264628D01*
X184493311Y-82241571D01*
X184311322Y-82166189D01*
X184147537Y-82056751D01*
X184008249Y-81917463D01*
X183898811Y-81753678D01*
X183823429Y-81571689D01*
X183785000Y-81378491D01*
X183785000Y-81181509D01*
X183787734Y-81167766D01*
X183800372Y-81104230D01*
X183823429Y-80988311D01*
X183898811Y-80806322D01*
X184008249Y-80642537D01*
X184147537Y-80503249D01*
X184311322Y-80393811D01*
X184493311Y-80318429D01*
X184609230Y-80295372D01*
X184686507Y-80280000D01*
X184883493Y-80280000D01*
X184960770Y-80295372D01*
X184960770Y-80295372D01*
G37*
G36*
X173530770Y-80295372D02*
X173646689Y-80318429D01*
X173828678Y-80393811D01*
X173992463Y-80503249D01*
X174131751Y-80642537D01*
X174241189Y-80806322D01*
X174316571Y-80988311D01*
X174339628Y-81104230D01*
X174352267Y-81167766D01*
X174355000Y-81181509D01*
X174355000Y-81378491D01*
X174316571Y-81571689D01*
X174241189Y-81753678D01*
X174131751Y-81917463D01*
X173992463Y-82056751D01*
X173828678Y-82166189D01*
X173646689Y-82241571D01*
X173530770Y-82264628D01*
X173453493Y-82280000D01*
X173256507Y-82280000D01*
X173179230Y-82264628D01*
X173063311Y-82241571D01*
X172881322Y-82166189D01*
X172717537Y-82056751D01*
X172578249Y-81917463D01*
X172468811Y-81753678D01*
X172393429Y-81571689D01*
X172355000Y-81378491D01*
X172355000Y-81181509D01*
X172357734Y-81167766D01*
X172370372Y-81104230D01*
X172393429Y-80988311D01*
X172468811Y-80806322D01*
X172578249Y-80642537D01*
X172717537Y-80503249D01*
X172881322Y-80393811D01*
X173063311Y-80318429D01*
X173179230Y-80295372D01*
X173256507Y-80280000D01*
X173453493Y-80280000D01*
X173530770Y-80295372D01*
X173530770Y-80295372D01*
G37*
G36*
X177361030Y-80294469D02*
X177361033Y-80294470D01*
X177361034Y-80294470D01*
X177549535Y-80351651D01*
X177549537Y-80351652D01*
X177723260Y-80444509D01*
X177875528Y-80569472D01*
X178000491Y-80721740D01*
X178000492Y-80721742D01*
X178093349Y-80895465D01*
X178112517Y-80958655D01*
X178150531Y-81083970D01*
X178169838Y-81280000D01*
X178150531Y-81476030D01*
X178150530Y-81476033D01*
X178150530Y-81476034D01*
X178102492Y-81634395D01*
X178093348Y-81664537D01*
X178000491Y-81838260D01*
X177875528Y-81990528D01*
X177723260Y-82115491D01*
X177549537Y-82208348D01*
X177549535Y-82208349D01*
X177361034Y-82265530D01*
X177361033Y-82265530D01*
X177361030Y-82265531D01*
X177214124Y-82280000D01*
X177115876Y-82280000D01*
X176968970Y-82265531D01*
X176968967Y-82265530D01*
X176968966Y-82265530D01*
X176780465Y-82208349D01*
X176780463Y-82208348D01*
X176606740Y-82115491D01*
X176454472Y-81990528D01*
X176329509Y-81838260D01*
X176236652Y-81664537D01*
X176227509Y-81634395D01*
X176179470Y-81476034D01*
X176179470Y-81476033D01*
X176179469Y-81476030D01*
X176160162Y-81280000D01*
X176179469Y-81083970D01*
X176217483Y-80958655D01*
X176236651Y-80895465D01*
X176329508Y-80721742D01*
X176329509Y-80721740D01*
X176454472Y-80569472D01*
X176606740Y-80444509D01*
X176780463Y-80351652D01*
X176780465Y-80351651D01*
X176968966Y-80294470D01*
X176968967Y-80294470D01*
X176968970Y-80294469D01*
X177115876Y-80280000D01*
X177214124Y-80280000D01*
X177361030Y-80294469D01*
X177361030Y-80294469D01*
G37*
G36*
X181150770Y-80295372D02*
X181266689Y-80318429D01*
X181448678Y-80393811D01*
X181612463Y-80503249D01*
X181751751Y-80642537D01*
X181861189Y-80806322D01*
X181936571Y-80988311D01*
X181959628Y-81104230D01*
X181972267Y-81167766D01*
X181975000Y-81181509D01*
X181975000Y-81378491D01*
X181936571Y-81571689D01*
X181861189Y-81753678D01*
X181751751Y-81917463D01*
X181612463Y-82056751D01*
X181448678Y-82166189D01*
X181266689Y-82241571D01*
X181150770Y-82264628D01*
X181073493Y-82280000D01*
X180876507Y-82280000D01*
X180799230Y-82264628D01*
X180683311Y-82241571D01*
X180501322Y-82166189D01*
X180337537Y-82056751D01*
X180198249Y-81917463D01*
X180088811Y-81753678D01*
X180013429Y-81571689D01*
X179975000Y-81378491D01*
X179975000Y-81181509D01*
X179977734Y-81167766D01*
X179990372Y-81104230D01*
X180013429Y-80988311D01*
X180088811Y-80806322D01*
X180198249Y-80642537D01*
X180337537Y-80503249D01*
X180501322Y-80393811D01*
X180683311Y-80318429D01*
X180799230Y-80295372D01*
X180876507Y-80280000D01*
X181073493Y-80280000D01*
X181150770Y-80295372D01*
X181150770Y-80295372D01*
G37*
G36*
X170256000Y-82245000D02*
X167056000Y-82245000D01*
X167056000Y-79045000D01*
X170256000Y-79045000D01*
X170256000Y-82245000D01*
X170256000Y-82245000D01*
G37*
G36*
X156112950Y-79052717D02*
X156269655Y-79068151D01*
X156470722Y-79129144D01*
X156571257Y-79159641D01*
X156636905Y-79194731D01*
X156849213Y-79308212D01*
X157092845Y-79508155D01*
X157292788Y-79751787D01*
X157361946Y-79881172D01*
X157441359Y-80029743D01*
X157441359Y-80029744D01*
X157532849Y-80331345D01*
X157563741Y-80645000D01*
X157532849Y-80958655D01*
X157494836Y-81083966D01*
X157441359Y-81260257D01*
X157392800Y-81351104D01*
X157292788Y-81538213D01*
X157092845Y-81781845D01*
X156849213Y-81981788D01*
X156794224Y-82011180D01*
X156571257Y-82130359D01*
X156470722Y-82160856D01*
X156269655Y-82221849D01*
X156112950Y-82237283D01*
X156034598Y-82245000D01*
X155877402Y-82245000D01*
X155799050Y-82237283D01*
X155642345Y-82221849D01*
X155441278Y-82160856D01*
X155340743Y-82130359D01*
X155117776Y-82011180D01*
X155062787Y-81981788D01*
X154819155Y-81781845D01*
X154619212Y-81538213D01*
X154519200Y-81351104D01*
X154470641Y-81260257D01*
X154417164Y-81083966D01*
X154379151Y-80958655D01*
X154348259Y-80645000D01*
X154379151Y-80331345D01*
X154470641Y-80029744D01*
X154470641Y-80029743D01*
X154550054Y-79881172D01*
X154619212Y-79751787D01*
X154819155Y-79508155D01*
X155062787Y-79308212D01*
X155275095Y-79194731D01*
X155340743Y-79159641D01*
X155441278Y-79129144D01*
X155642345Y-79068151D01*
X155799050Y-79052717D01*
X155877402Y-79045000D01*
X156034598Y-79045000D01*
X156112950Y-79052717D01*
X156112950Y-79052717D01*
G37*
G36*
X202255000Y-82240000D02*
X200335000Y-82240000D01*
X200335000Y-80320000D01*
X202255000Y-80320000D01*
X202255000Y-82240000D01*
X202255000Y-82240000D01*
G37*
G36*
X87503447Y-79918777D02*
X87580576Y-79926373D01*
X87712527Y-79966400D01*
X87778503Y-79986413D01*
X87960912Y-80083913D01*
X88120794Y-80215126D01*
X88252007Y-80375008D01*
X88349507Y-80557417D01*
X88356437Y-80580262D01*
X88409547Y-80755344D01*
X88429820Y-80961180D01*
X88409547Y-81167016D01*
X88382135Y-81257380D01*
X88349507Y-81364943D01*
X88252007Y-81547352D01*
X88120794Y-81707234D01*
X87960912Y-81838447D01*
X87778503Y-81935947D01*
X87712527Y-81955960D01*
X87580576Y-81995987D01*
X87503447Y-82003584D01*
X87426320Y-82011180D01*
X87323160Y-82011180D01*
X87246033Y-82003584D01*
X87168904Y-81995987D01*
X87036953Y-81955960D01*
X86970977Y-81935947D01*
X86788568Y-81838447D01*
X86628686Y-81707234D01*
X86497473Y-81547352D01*
X86399973Y-81364943D01*
X86367345Y-81257380D01*
X86339933Y-81167016D01*
X86319660Y-80961180D01*
X86339933Y-80755344D01*
X86393043Y-80580262D01*
X86399973Y-80557417D01*
X86497473Y-80375008D01*
X86628686Y-80215126D01*
X86788568Y-80083913D01*
X86970977Y-79986413D01*
X87036953Y-79966400D01*
X87168904Y-79926373D01*
X87246033Y-79918777D01*
X87323160Y-79911180D01*
X87426320Y-79911180D01*
X87503447Y-79918777D01*
X87503447Y-79918777D01*
G37*
G36*
X94265000Y-81780000D02*
X91915000Y-81780000D01*
X91915000Y-80780000D01*
X94265000Y-80780000D01*
X94265000Y-81780000D01*
X94265000Y-81780000D01*
G37*
G36*
X103665000Y-81780000D02*
X101315000Y-81780000D01*
X101315000Y-80780000D01*
X103665000Y-80780000D01*
X103665000Y-81780000D01*
X103665000Y-81780000D01*
G37*
G36*
X126515027Y-79144852D02*
X126656401Y-79187738D01*
X126786694Y-79257380D01*
X126900896Y-79351104D01*
X126994620Y-79465306D01*
X127064262Y-79595599D01*
X127107148Y-79736973D01*
X127121628Y-79884000D01*
X127107148Y-80031027D01*
X127064262Y-80172401D01*
X126994620Y-80302694D01*
X126900896Y-80416896D01*
X126786694Y-80510620D01*
X126656401Y-80580262D01*
X126515027Y-80623148D01*
X126404839Y-80634000D01*
X124931161Y-80634000D01*
X124820973Y-80623148D01*
X124679599Y-80580262D01*
X124549306Y-80510620D01*
X124435104Y-80416896D01*
X124341380Y-80302694D01*
X124271738Y-80172401D01*
X124228852Y-80031027D01*
X124214372Y-79884000D01*
X124228852Y-79736973D01*
X124271738Y-79595599D01*
X124341380Y-79465306D01*
X124435104Y-79351104D01*
X124549306Y-79257380D01*
X124679599Y-79187738D01*
X124820973Y-79144852D01*
X124931161Y-79134000D01*
X126404839Y-79134000D01*
X126515027Y-79144852D01*
X126515027Y-79144852D01*
G37*
G36*
X111718000Y-80634000D02*
X108818000Y-80634000D01*
X108818000Y-79134000D01*
X111718000Y-79134000D01*
X111718000Y-80634000D01*
X111718000Y-80634000D01*
G37*
G36*
X103665000Y-80510000D02*
X101315000Y-80510000D01*
X101315000Y-79510000D01*
X103665000Y-79510000D01*
X103665000Y-80510000D01*
X103665000Y-80510000D01*
G37*
G36*
X94265000Y-80510000D02*
X91915000Y-80510000D01*
X91915000Y-79510000D01*
X94265000Y-79510000D01*
X94265000Y-80510000D01*
X94265000Y-80510000D01*
G37*
G36*
X206020603Y-78449968D02*
X206060266Y-78466397D01*
X206195678Y-78522486D01*
X206195679Y-78522487D01*
X206353241Y-78627767D01*
X206487233Y-78761759D01*
X206487234Y-78761761D01*
X206592514Y-78919322D01*
X206634225Y-79020022D01*
X206665032Y-79094397D01*
X206702000Y-79280250D01*
X206702000Y-79469750D01*
X206665032Y-79655603D01*
X206665031Y-79655605D01*
X206592514Y-79830678D01*
X206592513Y-79830679D01*
X206487233Y-79988241D01*
X206353241Y-80122233D01*
X206278160Y-80172401D01*
X206195678Y-80227514D01*
X206060266Y-80283603D01*
X206020603Y-80300032D01*
X205834750Y-80337000D01*
X205645250Y-80337000D01*
X205459397Y-80300032D01*
X205419734Y-80283603D01*
X205284322Y-80227514D01*
X205201840Y-80172401D01*
X205126759Y-80122233D01*
X204992767Y-79988241D01*
X204887487Y-79830679D01*
X204887486Y-79830678D01*
X204814969Y-79655605D01*
X204814968Y-79655603D01*
X204778000Y-79469750D01*
X204778000Y-79280250D01*
X204814968Y-79094397D01*
X204845775Y-79020022D01*
X204887486Y-78919322D01*
X204992766Y-78761761D01*
X204992767Y-78761759D01*
X205126759Y-78627767D01*
X205284321Y-78522487D01*
X205284322Y-78522486D01*
X205419734Y-78466397D01*
X205459397Y-78449968D01*
X205645250Y-78413000D01*
X205834750Y-78413000D01*
X206020603Y-78449968D01*
X206020603Y-78449968D01*
G37*
G36*
X107530000Y-80245000D02*
X105830000Y-80245000D01*
X105830000Y-78345000D01*
X107530000Y-78345000D01*
X107530000Y-80245000D01*
X107530000Y-80245000D01*
G37*
G36*
X201464963Y-77795000D02*
X201575022Y-77816892D01*
X201749731Y-77889259D01*
X201904872Y-77992921D01*
X201906967Y-77994321D01*
X202040679Y-78128033D01*
X202040681Y-78128036D01*
X202145741Y-78285269D01*
X202218108Y-78459978D01*
X202255000Y-78645448D01*
X202255000Y-78834552D01*
X202218108Y-79020022D01*
X202145741Y-79194731D01*
X202042079Y-79349872D01*
X202040679Y-79351967D01*
X201906967Y-79485679D01*
X201906964Y-79485681D01*
X201749731Y-79590741D01*
X201575022Y-79663108D01*
X201482287Y-79681554D01*
X201389553Y-79700000D01*
X201200447Y-79700000D01*
X201107713Y-79681554D01*
X201014978Y-79663108D01*
X200840269Y-79590741D01*
X200683036Y-79485681D01*
X200683033Y-79485679D01*
X200549321Y-79351967D01*
X200547921Y-79349872D01*
X200444259Y-79194731D01*
X200371892Y-79020022D01*
X200335000Y-78834552D01*
X200335000Y-78645448D01*
X200371892Y-78459978D01*
X200444259Y-78285269D01*
X200549319Y-78128036D01*
X200549321Y-78128033D01*
X200683033Y-77994321D01*
X200685128Y-77992921D01*
X200840269Y-77889259D01*
X201014978Y-77816892D01*
X201125037Y-77795000D01*
X201200447Y-77780000D01*
X201389553Y-77780000D01*
X201464963Y-77795000D01*
X201464963Y-77795000D01*
G37*
G36*
X87503447Y-77378776D02*
X87580576Y-77386373D01*
X87712527Y-77426400D01*
X87778503Y-77446413D01*
X87960912Y-77543913D01*
X88120794Y-77675126D01*
X88252007Y-77835008D01*
X88349507Y-78017417D01*
X88349507Y-78017418D01*
X88409547Y-78215344D01*
X88429820Y-78421180D01*
X88409547Y-78627016D01*
X88369520Y-78758967D01*
X88349507Y-78824943D01*
X88252007Y-79007352D01*
X88120794Y-79167234D01*
X87960912Y-79298447D01*
X87778503Y-79395947D01*
X87712527Y-79415960D01*
X87580576Y-79455987D01*
X87503447Y-79463583D01*
X87426320Y-79471180D01*
X87323160Y-79471180D01*
X87246033Y-79463583D01*
X87168904Y-79455987D01*
X87036953Y-79415960D01*
X86970977Y-79395947D01*
X86788568Y-79298447D01*
X86628686Y-79167234D01*
X86497473Y-79007352D01*
X86399973Y-78824943D01*
X86379960Y-78758967D01*
X86339933Y-78627016D01*
X86319660Y-78421180D01*
X86339933Y-78215344D01*
X86399973Y-78017418D01*
X86399973Y-78017417D01*
X86497473Y-77835008D01*
X86628686Y-77675126D01*
X86788568Y-77543913D01*
X86970977Y-77446413D01*
X87036953Y-77426400D01*
X87168904Y-77386373D01*
X87246033Y-77378776D01*
X87323160Y-77371180D01*
X87426320Y-77371180D01*
X87503447Y-77378776D01*
X87503447Y-77378776D01*
G37*
G36*
X101260000Y-78295000D02*
X99360000Y-78295000D01*
X99360000Y-76645000D01*
X101260000Y-76645000D01*
X101260000Y-78295000D01*
X101260000Y-78295000D01*
G37*
G36*
X98760000Y-78295000D02*
X96860000Y-78295000D01*
X96860000Y-76645000D01*
X98760000Y-76645000D01*
X98760000Y-78295000D01*
X98760000Y-78295000D01*
G37*
G36*
X192601030Y-75849469D02*
X192601033Y-75849470D01*
X192601034Y-75849470D01*
X192789535Y-75906651D01*
X192789537Y-75906652D01*
X192963260Y-75999509D01*
X193115528Y-76124472D01*
X193240491Y-76276740D01*
X193240492Y-76276742D01*
X193333349Y-76450465D01*
X193349032Y-76502166D01*
X193390531Y-76638970D01*
X193409838Y-76835000D01*
X193390531Y-77031030D01*
X193390530Y-77031033D01*
X193390530Y-77031034D01*
X193351409Y-77160000D01*
X193333348Y-77219537D01*
X193240491Y-77393260D01*
X193115528Y-77545528D01*
X192963260Y-77670491D01*
X192940293Y-77682767D01*
X192789535Y-77763349D01*
X192601034Y-77820530D01*
X192601033Y-77820530D01*
X192601030Y-77820531D01*
X192454124Y-77835000D01*
X192355876Y-77835000D01*
X192208970Y-77820531D01*
X192208967Y-77820530D01*
X192208966Y-77820530D01*
X192020465Y-77763349D01*
X191869707Y-77682767D01*
X191846740Y-77670491D01*
X191694472Y-77545528D01*
X191569509Y-77393260D01*
X191476652Y-77219537D01*
X191458592Y-77160000D01*
X191419470Y-77031034D01*
X191419470Y-77031033D01*
X191419469Y-77031030D01*
X191400162Y-76835000D01*
X191419469Y-76638970D01*
X191460968Y-76502166D01*
X191476651Y-76450465D01*
X191569508Y-76276742D01*
X191569509Y-76276740D01*
X191694472Y-76124472D01*
X191846740Y-75999509D01*
X192020463Y-75906652D01*
X192020465Y-75906651D01*
X192208966Y-75849470D01*
X192208967Y-75849470D01*
X192208970Y-75849469D01*
X192355876Y-75835000D01*
X192454124Y-75835000D01*
X192601030Y-75849469D01*
X192601030Y-75849469D01*
G37*
G36*
X188791030Y-75849469D02*
X188791033Y-75849470D01*
X188791034Y-75849470D01*
X188979535Y-75906651D01*
X188979537Y-75906652D01*
X189153260Y-75999509D01*
X189305528Y-76124472D01*
X189430491Y-76276740D01*
X189430492Y-76276742D01*
X189523349Y-76450465D01*
X189539032Y-76502166D01*
X189580531Y-76638970D01*
X189599838Y-76835000D01*
X189580531Y-77031030D01*
X189580530Y-77031033D01*
X189580530Y-77031034D01*
X189541409Y-77160000D01*
X189523348Y-77219537D01*
X189430491Y-77393260D01*
X189305528Y-77545528D01*
X189153260Y-77670491D01*
X189130293Y-77682767D01*
X188979535Y-77763349D01*
X188791034Y-77820530D01*
X188791033Y-77820530D01*
X188791030Y-77820531D01*
X188644124Y-77835000D01*
X188545876Y-77835000D01*
X188398970Y-77820531D01*
X188398967Y-77820530D01*
X188398966Y-77820530D01*
X188210465Y-77763349D01*
X188059707Y-77682767D01*
X188036740Y-77670491D01*
X187884472Y-77545528D01*
X187759509Y-77393260D01*
X187666652Y-77219537D01*
X187648592Y-77160000D01*
X187609470Y-77031034D01*
X187609470Y-77031033D01*
X187609469Y-77031030D01*
X187590162Y-76835000D01*
X187609469Y-76638970D01*
X187650968Y-76502166D01*
X187666651Y-76450465D01*
X187759508Y-76276742D01*
X187759509Y-76276740D01*
X187884472Y-76124472D01*
X188036740Y-75999509D01*
X188210463Y-75906652D01*
X188210465Y-75906651D01*
X188398966Y-75849470D01*
X188398967Y-75849470D01*
X188398970Y-75849469D01*
X188545876Y-75835000D01*
X188644124Y-75835000D01*
X188791030Y-75849469D01*
X188791030Y-75849469D01*
G37*
G36*
X196411030Y-75849469D02*
X196411033Y-75849470D01*
X196411034Y-75849470D01*
X196599535Y-75906651D01*
X196599537Y-75906652D01*
X196773260Y-75999509D01*
X196925528Y-76124472D01*
X197050491Y-76276740D01*
X197050492Y-76276742D01*
X197143349Y-76450465D01*
X197159032Y-76502166D01*
X197200531Y-76638970D01*
X197219838Y-76835000D01*
X197200531Y-77031030D01*
X197200530Y-77031033D01*
X197200530Y-77031034D01*
X197161409Y-77160000D01*
X197143348Y-77219537D01*
X197050491Y-77393260D01*
X196925528Y-77545528D01*
X196773260Y-77670491D01*
X196750293Y-77682767D01*
X196599535Y-77763349D01*
X196411034Y-77820530D01*
X196411033Y-77820530D01*
X196411030Y-77820531D01*
X196264124Y-77835000D01*
X196165876Y-77835000D01*
X196018970Y-77820531D01*
X196018967Y-77820530D01*
X196018966Y-77820530D01*
X195830465Y-77763349D01*
X195679707Y-77682767D01*
X195656740Y-77670491D01*
X195504472Y-77545528D01*
X195379509Y-77393260D01*
X195286652Y-77219537D01*
X195268592Y-77160000D01*
X195229470Y-77031034D01*
X195229470Y-77031033D01*
X195229469Y-77031030D01*
X195210162Y-76835000D01*
X195229469Y-76638970D01*
X195270968Y-76502166D01*
X195286651Y-76450465D01*
X195379508Y-76276742D01*
X195379509Y-76276740D01*
X195504472Y-76124472D01*
X195656740Y-75999509D01*
X195830463Y-75906652D01*
X195830465Y-75906651D01*
X196018966Y-75849470D01*
X196018967Y-75849470D01*
X196018970Y-75849469D01*
X196165876Y-75835000D01*
X196264124Y-75835000D01*
X196411030Y-75849469D01*
X196411030Y-75849469D01*
G37*
G36*
X207335000Y-77795000D02*
X205415000Y-77795000D01*
X205415000Y-75875000D01*
X207335000Y-75875000D01*
X207335000Y-77795000D01*
X207335000Y-77795000D01*
G37*
G36*
X141860707Y-75665597D02*
X141937836Y-75673193D01*
X142069787Y-75713220D01*
X142135763Y-75733233D01*
X142318172Y-75830733D01*
X142478054Y-75961946D01*
X142609267Y-76121828D01*
X142706767Y-76304237D01*
X142706767Y-76304238D01*
X142766807Y-76502164D01*
X142787080Y-76708000D01*
X142766807Y-76913836D01*
X142731257Y-77031030D01*
X142706767Y-77111763D01*
X142609267Y-77294172D01*
X142478054Y-77454054D01*
X142318172Y-77585267D01*
X142135763Y-77682767D01*
X142069787Y-77702780D01*
X141937836Y-77742807D01*
X141860707Y-77750404D01*
X141783580Y-77758000D01*
X141680420Y-77758000D01*
X141603293Y-77750404D01*
X141526164Y-77742807D01*
X141394213Y-77702780D01*
X141328237Y-77682767D01*
X141145828Y-77585267D01*
X140985946Y-77454054D01*
X140854733Y-77294172D01*
X140757233Y-77111763D01*
X140732743Y-77031030D01*
X140697193Y-76913836D01*
X140676920Y-76708000D01*
X140697193Y-76502164D01*
X140757233Y-76304238D01*
X140757233Y-76304237D01*
X140854733Y-76121828D01*
X140985946Y-75961946D01*
X141145828Y-75830733D01*
X141328237Y-75733233D01*
X141394213Y-75713220D01*
X141526164Y-75673193D01*
X141603293Y-75665597D01*
X141680420Y-75658000D01*
X141783580Y-75658000D01*
X141860707Y-75665597D01*
X141860707Y-75665597D01*
G37*
G36*
X144400707Y-75665597D02*
X144477836Y-75673193D01*
X144609787Y-75713220D01*
X144675763Y-75733233D01*
X144858172Y-75830733D01*
X145018054Y-75961946D01*
X145149267Y-76121828D01*
X145246767Y-76304237D01*
X145246767Y-76304238D01*
X145306807Y-76502164D01*
X145327080Y-76708000D01*
X145306807Y-76913836D01*
X145271257Y-77031030D01*
X145246767Y-77111763D01*
X145149267Y-77294172D01*
X145018054Y-77454054D01*
X144858172Y-77585267D01*
X144675763Y-77682767D01*
X144609787Y-77702780D01*
X144477836Y-77742807D01*
X144400707Y-77750404D01*
X144323580Y-77758000D01*
X144220420Y-77758000D01*
X144143293Y-77750404D01*
X144066164Y-77742807D01*
X143934213Y-77702780D01*
X143868237Y-77682767D01*
X143685828Y-77585267D01*
X143525946Y-77454054D01*
X143394733Y-77294172D01*
X143297233Y-77111763D01*
X143272743Y-77031030D01*
X143237193Y-76913836D01*
X143216920Y-76708000D01*
X143237193Y-76502164D01*
X143297233Y-76304238D01*
X143297233Y-76304237D01*
X143394733Y-76121828D01*
X143525946Y-75961946D01*
X143685828Y-75830733D01*
X143868237Y-75733233D01*
X143934213Y-75713220D01*
X144066164Y-75673193D01*
X144143293Y-75665597D01*
X144220420Y-75658000D01*
X144323580Y-75658000D01*
X144400707Y-75665597D01*
X144400707Y-75665597D01*
G37*
G36*
X140242000Y-77758000D02*
X138142000Y-77758000D01*
X138142000Y-75658000D01*
X140242000Y-75658000D01*
X140242000Y-77758000D01*
X140242000Y-77758000D01*
G37*
G36*
X157974391Y-68623916D02*
X158447560Y-68819909D01*
X158447562Y-68819910D01*
X158745470Y-69018966D01*
X158873406Y-69104450D01*
X159235550Y-69466594D01*
X159235552Y-69466597D01*
X159501535Y-69864668D01*
X159520091Y-69892440D01*
X159716084Y-70365609D01*
X159816000Y-70867921D01*
X159816000Y-71380079D01*
X159716084Y-71882391D01*
X159600612Y-72161165D01*
X159593499Y-72184614D01*
X159591097Y-72209000D01*
X159593499Y-72233386D01*
X159600612Y-72256835D01*
X159612163Y-72278446D01*
X159627709Y-72297388D01*
X159646651Y-72312934D01*
X159668262Y-72324485D01*
X159691711Y-72331598D01*
X159716097Y-72334000D01*
X164896000Y-72334000D01*
X164896000Y-77534000D01*
X159696000Y-77534000D01*
X159696000Y-72504364D01*
X159693598Y-72479978D01*
X159686485Y-72456529D01*
X159674934Y-72434918D01*
X159659388Y-72415976D01*
X159640446Y-72400430D01*
X159618835Y-72388879D01*
X159595386Y-72381766D01*
X159571000Y-72379364D01*
X159546614Y-72381766D01*
X159523165Y-72388879D01*
X159501554Y-72400430D01*
X159482612Y-72415976D01*
X159467066Y-72434918D01*
X159235550Y-72781406D01*
X158873406Y-73143550D01*
X158873403Y-73143552D01*
X158447562Y-73428090D01*
X158447561Y-73428091D01*
X158447560Y-73428091D01*
X157974391Y-73624084D01*
X157472079Y-73724000D01*
X156959921Y-73724000D01*
X156457609Y-73624084D01*
X155984440Y-73428091D01*
X155984439Y-73428091D01*
X155984438Y-73428090D01*
X155558597Y-73143552D01*
X155558594Y-73143550D01*
X155196450Y-72781406D01*
X155152079Y-72715000D01*
X154911910Y-72355562D01*
X154899201Y-72324880D01*
X154715916Y-71882391D01*
X154616000Y-71380079D01*
X154616000Y-70867921D01*
X154715916Y-70365609D01*
X154911909Y-69892440D01*
X154930466Y-69864668D01*
X155196448Y-69466597D01*
X155196450Y-69466594D01*
X155558594Y-69104450D01*
X155686530Y-69018966D01*
X155984438Y-68819910D01*
X155984440Y-68819909D01*
X156457609Y-68623916D01*
X156959921Y-68524000D01*
X157472079Y-68524000D01*
X157974391Y-68623916D01*
X157974391Y-68623916D01*
G37*
G36*
X201464963Y-75255000D02*
X201575022Y-75276892D01*
X201749731Y-75349259D01*
X201904872Y-75452921D01*
X201906967Y-75454321D01*
X202040679Y-75588033D01*
X202040681Y-75588036D01*
X202145741Y-75745269D01*
X202212588Y-75906651D01*
X202218108Y-75919979D01*
X202255000Y-76105447D01*
X202255000Y-76294553D01*
X202236554Y-76387287D01*
X202218108Y-76480022D01*
X202166937Y-76603559D01*
X202152270Y-76638970D01*
X202145741Y-76654731D01*
X202042079Y-76809872D01*
X202040679Y-76811967D01*
X201906967Y-76945679D01*
X201906964Y-76945681D01*
X201749731Y-77050741D01*
X201575022Y-77123108D01*
X201482287Y-77141554D01*
X201389553Y-77160000D01*
X201200447Y-77160000D01*
X201107713Y-77141554D01*
X201014978Y-77123108D01*
X200840269Y-77050741D01*
X200683036Y-76945681D01*
X200683033Y-76945679D01*
X200549321Y-76811967D01*
X200547921Y-76809872D01*
X200444259Y-76654731D01*
X200437731Y-76638970D01*
X200423063Y-76603559D01*
X200371892Y-76480022D01*
X200353446Y-76387287D01*
X200335000Y-76294553D01*
X200335000Y-76105447D01*
X200371892Y-75919979D01*
X200377413Y-75906651D01*
X200444259Y-75745269D01*
X200549319Y-75588036D01*
X200549321Y-75588033D01*
X200683033Y-75454321D01*
X200685128Y-75452921D01*
X200840269Y-75349259D01*
X201014978Y-75276892D01*
X201125037Y-75255000D01*
X201200447Y-75240000D01*
X201389553Y-75240000D01*
X201464963Y-75255000D01*
X201464963Y-75255000D01*
G37*
G36*
X206562287Y-73353446D02*
X206655022Y-73371892D01*
X206829731Y-73444259D01*
X206950412Y-73524896D01*
X206986967Y-73549321D01*
X207120679Y-73683033D01*
X207120681Y-73683036D01*
X207225741Y-73840269D01*
X207298108Y-74014978D01*
X207335000Y-74200448D01*
X207335000Y-74389552D01*
X207302581Y-74552537D01*
X207298108Y-74575021D01*
X207225742Y-74749729D01*
X207120679Y-74906967D01*
X206986967Y-75040679D01*
X206986964Y-75040681D01*
X206829731Y-75145741D01*
X206829730Y-75145742D01*
X206829729Y-75145742D01*
X206778559Y-75166937D01*
X206655022Y-75218108D01*
X206562287Y-75236554D01*
X206469553Y-75255000D01*
X206280447Y-75255000D01*
X206187713Y-75236554D01*
X206094978Y-75218108D01*
X205971441Y-75166937D01*
X205920271Y-75145742D01*
X205920270Y-75145742D01*
X205920269Y-75145741D01*
X205763036Y-75040681D01*
X205763033Y-75040679D01*
X205629321Y-74906967D01*
X205524258Y-74749729D01*
X205451892Y-74575021D01*
X205447420Y-74552537D01*
X205415000Y-74389552D01*
X205415000Y-74200448D01*
X205451892Y-74014978D01*
X205524259Y-73840269D01*
X205629319Y-73683036D01*
X205629321Y-73683033D01*
X205763033Y-73549321D01*
X205799588Y-73524896D01*
X205920269Y-73444259D01*
X206094978Y-73371892D01*
X206187713Y-73353446D01*
X206280447Y-73335000D01*
X206469553Y-73335000D01*
X206562287Y-73353446D01*
X206562287Y-73353446D01*
G37*
G36*
X185108030Y-73182469D02*
X185108033Y-73182470D01*
X185108034Y-73182470D01*
X185296535Y-73239651D01*
X185296537Y-73239652D01*
X185470260Y-73332509D01*
X185622528Y-73457472D01*
X185747491Y-73609740D01*
X185840348Y-73783463D01*
X185840349Y-73783465D01*
X185890468Y-73948686D01*
X185897531Y-73971970D01*
X185916838Y-74168000D01*
X185897531Y-74364030D01*
X185840348Y-74552537D01*
X185747491Y-74726260D01*
X185622528Y-74878528D01*
X185470260Y-75003491D01*
X185470258Y-75003492D01*
X185296535Y-75096349D01*
X185108034Y-75153530D01*
X185108033Y-75153530D01*
X185108030Y-75153531D01*
X184961124Y-75168000D01*
X184862876Y-75168000D01*
X184715970Y-75153531D01*
X184715967Y-75153530D01*
X184715966Y-75153530D01*
X184527465Y-75096349D01*
X184353742Y-75003492D01*
X184353740Y-75003491D01*
X184201472Y-74878528D01*
X184076509Y-74726260D01*
X183983652Y-74552537D01*
X183926469Y-74364030D01*
X183907162Y-74168000D01*
X183926469Y-73971970D01*
X183933532Y-73948686D01*
X183983651Y-73783465D01*
X183983652Y-73783463D01*
X184076509Y-73609740D01*
X184201472Y-73457472D01*
X184353740Y-73332509D01*
X184527463Y-73239652D01*
X184527465Y-73239651D01*
X184715966Y-73182470D01*
X184715967Y-73182470D01*
X184715970Y-73182469D01*
X184862876Y-73168000D01*
X184961124Y-73168000D01*
X185108030Y-73182469D01*
X185108030Y-73182469D01*
G37*
G36*
X174927770Y-73183372D02*
X175043689Y-73206429D01*
X175225678Y-73281811D01*
X175389463Y-73391249D01*
X175528751Y-73530537D01*
X175638189Y-73694322D01*
X175713571Y-73876311D01*
X175735503Y-73986571D01*
X175752000Y-74069507D01*
X175752000Y-74266493D01*
X175740362Y-74325000D01*
X175713571Y-74459689D01*
X175638189Y-74641678D01*
X175528751Y-74805463D01*
X175389463Y-74944751D01*
X175225678Y-75054189D01*
X175043689Y-75129571D01*
X174927770Y-75152628D01*
X174850493Y-75168000D01*
X174653507Y-75168000D01*
X174576230Y-75152628D01*
X174460311Y-75129571D01*
X174278322Y-75054189D01*
X174114537Y-74944751D01*
X173975249Y-74805463D01*
X173865811Y-74641678D01*
X173790429Y-74459689D01*
X173763638Y-74325000D01*
X173752000Y-74266493D01*
X173752000Y-74069507D01*
X173768497Y-73986571D01*
X173790429Y-73876311D01*
X173865811Y-73694322D01*
X173975249Y-73530537D01*
X174114537Y-73391249D01*
X174278322Y-73281811D01*
X174460311Y-73206429D01*
X174576230Y-73183372D01*
X174653507Y-73168000D01*
X174850493Y-73168000D01*
X174927770Y-73183372D01*
X174927770Y-73183372D01*
G37*
G36*
X217424845Y-71743810D02*
X217669896Y-71818145D01*
X217895736Y-71938860D01*
X218093687Y-72101313D01*
X218256140Y-72299264D01*
X218376855Y-72525104D01*
X218451190Y-72770155D01*
X218476290Y-73025000D01*
X218451190Y-73279845D01*
X218376855Y-73524896D01*
X218256140Y-73750736D01*
X218093687Y-73948687D01*
X217895736Y-74111140D01*
X217669896Y-74231855D01*
X217424845Y-74306190D01*
X217233864Y-74325000D01*
X217106136Y-74325000D01*
X216915155Y-74306190D01*
X216670104Y-74231855D01*
X216444264Y-74111140D01*
X216246313Y-73948687D01*
X216083860Y-73750736D01*
X215963145Y-73524896D01*
X215888810Y-73279845D01*
X215863710Y-73025000D01*
X215888810Y-72770155D01*
X215963145Y-72525104D01*
X216083860Y-72299264D01*
X216246313Y-72101313D01*
X216444264Y-71938860D01*
X216670104Y-71818145D01*
X216915155Y-71743810D01*
X217106136Y-71725000D01*
X217233864Y-71725000D01*
X217424845Y-71743810D01*
X217424845Y-71743810D01*
G37*
G36*
X214995000Y-74025000D02*
X212995000Y-74025000D01*
X212995000Y-72025000D01*
X214995000Y-72025000D01*
X214995000Y-74025000D01*
X214995000Y-74025000D01*
G37*
G36*
X221128871Y-72035021D02*
X221271689Y-72063429D01*
X221453678Y-72138811D01*
X221617463Y-72248249D01*
X221756751Y-72387537D01*
X221866189Y-72551322D01*
X221941571Y-72733311D01*
X221964628Y-72849230D01*
X221980000Y-72926507D01*
X221980000Y-73123493D01*
X221964628Y-73200770D01*
X221941571Y-73316689D01*
X221866189Y-73498678D01*
X221756751Y-73662463D01*
X221617463Y-73801751D01*
X221453678Y-73911189D01*
X221271689Y-73986571D01*
X221155770Y-74009628D01*
X221078493Y-74025000D01*
X220881507Y-74025000D01*
X220804230Y-74009628D01*
X220688311Y-73986571D01*
X220506322Y-73911189D01*
X220342537Y-73801751D01*
X220203249Y-73662463D01*
X220093811Y-73498678D01*
X220018429Y-73316689D01*
X219995372Y-73200770D01*
X219980000Y-73123493D01*
X219980000Y-72926507D01*
X219995372Y-72849230D01*
X220018429Y-72733311D01*
X220093811Y-72551322D01*
X220203249Y-72387537D01*
X220342537Y-72248249D01*
X220506322Y-72138811D01*
X220688311Y-72063429D01*
X220831129Y-72035021D01*
X220881507Y-72025000D01*
X221078493Y-72025000D01*
X221128871Y-72035021D01*
X221128871Y-72035021D01*
G37*
G36*
X210968871Y-72035021D02*
X211111689Y-72063429D01*
X211293678Y-72138811D01*
X211457463Y-72248249D01*
X211596751Y-72387537D01*
X211706189Y-72551322D01*
X211781571Y-72733311D01*
X211804628Y-72849230D01*
X211820000Y-72926507D01*
X211820000Y-73123493D01*
X211804628Y-73200770D01*
X211781571Y-73316689D01*
X211706189Y-73498678D01*
X211596751Y-73662463D01*
X211457463Y-73801751D01*
X211293678Y-73911189D01*
X211111689Y-73986571D01*
X210995770Y-74009628D01*
X210918493Y-74025000D01*
X210721507Y-74025000D01*
X210644230Y-74009628D01*
X210528311Y-73986571D01*
X210346322Y-73911189D01*
X210182537Y-73801751D01*
X210043249Y-73662463D01*
X209933811Y-73498678D01*
X209858429Y-73316689D01*
X209835372Y-73200770D01*
X209820000Y-73123493D01*
X209820000Y-72926507D01*
X209835372Y-72849230D01*
X209858429Y-72733311D01*
X209933811Y-72551322D01*
X210043249Y-72387537D01*
X210182537Y-72248249D01*
X210346322Y-72138811D01*
X210528311Y-72063429D01*
X210671129Y-72035021D01*
X210721507Y-72025000D01*
X210918493Y-72025000D01*
X210968871Y-72035021D01*
X210968871Y-72035021D01*
G37*
G36*
X200229183Y-71081900D02*
X200356574Y-71134668D01*
X200471224Y-71211274D01*
X200568726Y-71308776D01*
X200585635Y-71334083D01*
X200645332Y-71423426D01*
X200698100Y-71550817D01*
X200725000Y-71686055D01*
X200725000Y-71823945D01*
X200698100Y-71959183D01*
X200645333Y-72086573D01*
X200615946Y-72130554D01*
X200604395Y-72152165D01*
X200597282Y-72175614D01*
X200594880Y-72200000D01*
X200597282Y-72224386D01*
X200604395Y-72247835D01*
X200615946Y-72269446D01*
X200631492Y-72288388D01*
X200650434Y-72303934D01*
X200672045Y-72315485D01*
X200695494Y-72322598D01*
X200719880Y-72325000D01*
X201995000Y-72325000D01*
X201995000Y-73725000D01*
X200595000Y-73725000D01*
X200595000Y-72449880D01*
X200592598Y-72425494D01*
X200585485Y-72402045D01*
X200573934Y-72380434D01*
X200558388Y-72361492D01*
X200539446Y-72345946D01*
X200517835Y-72334395D01*
X200494386Y-72327282D01*
X200470000Y-72324880D01*
X200445614Y-72327282D01*
X200422165Y-72334395D01*
X200400554Y-72345946D01*
X200356573Y-72375333D01*
X200229183Y-72428100D01*
X200093945Y-72455000D01*
X199956055Y-72455000D01*
X199820817Y-72428100D01*
X199693426Y-72375332D01*
X199663835Y-72355560D01*
X199578776Y-72298726D01*
X199481274Y-72201224D01*
X199404668Y-72086574D01*
X199395081Y-72063429D01*
X199351900Y-71959183D01*
X199325000Y-71823945D01*
X199325000Y-71686055D01*
X199351900Y-71550817D01*
X199404668Y-71423426D01*
X199464365Y-71334083D01*
X199481274Y-71308776D01*
X199578776Y-71211274D01*
X199693426Y-71134668D01*
X199820817Y-71081900D01*
X199956055Y-71055000D01*
X200093945Y-71055000D01*
X200229183Y-71081900D01*
X200229183Y-71081900D01*
G37*
G36*
X206562287Y-70813446D02*
X206655022Y-70831892D01*
X206829731Y-70904259D01*
X206870088Y-70931225D01*
X206986967Y-71009321D01*
X207120679Y-71143033D01*
X207120681Y-71143036D01*
X207225741Y-71300269D01*
X207298108Y-71474978D01*
X207335000Y-71660448D01*
X207335000Y-71849552D01*
X207298108Y-72035022D01*
X207225741Y-72209731D01*
X207147196Y-72327282D01*
X207120679Y-72366967D01*
X206986967Y-72500679D01*
X206986964Y-72500681D01*
X206829731Y-72605741D01*
X206655022Y-72678108D01*
X206562287Y-72696554D01*
X206469553Y-72715000D01*
X206280447Y-72715000D01*
X206187713Y-72696554D01*
X206094978Y-72678108D01*
X205920269Y-72605741D01*
X205763036Y-72500681D01*
X205763033Y-72500679D01*
X205629321Y-72366967D01*
X205602804Y-72327282D01*
X205524259Y-72209731D01*
X205451892Y-72035022D01*
X205415000Y-71849552D01*
X205415000Y-71660448D01*
X205451892Y-71474978D01*
X205524259Y-71300269D01*
X205629319Y-71143036D01*
X205629321Y-71143033D01*
X205763033Y-71009321D01*
X205879912Y-70931225D01*
X205920269Y-70904259D01*
X206094978Y-70831892D01*
X206187713Y-70813446D01*
X206280447Y-70795000D01*
X206469553Y-70795000D01*
X206562287Y-70813446D01*
X206562287Y-70813446D01*
G37*
G36*
X194375000Y-70550000D02*
X193099880Y-70550000D01*
X193075494Y-70552402D01*
X193052045Y-70559515D01*
X193030434Y-70571066D01*
X193011492Y-70586612D01*
X192995946Y-70605554D01*
X192984395Y-70627165D01*
X192977282Y-70650614D01*
X192974880Y-70675000D01*
X192977282Y-70699386D01*
X192984395Y-70722835D01*
X192995946Y-70744446D01*
X193025333Y-70788427D01*
X193078100Y-70915817D01*
X193105000Y-71051055D01*
X193105000Y-71188945D01*
X193078100Y-71324183D01*
X193025332Y-71451574D01*
X192959021Y-71550817D01*
X192948725Y-71566225D01*
X192851225Y-71663725D01*
X192736574Y-71740332D01*
X192609183Y-71793100D01*
X192473945Y-71820000D01*
X192336055Y-71820000D01*
X192200817Y-71793100D01*
X192073426Y-71740332D01*
X191958775Y-71663725D01*
X191861275Y-71566225D01*
X191850980Y-71550817D01*
X191784668Y-71451574D01*
X191731900Y-71324183D01*
X191705000Y-71188945D01*
X191705000Y-71051055D01*
X191731900Y-70915817D01*
X191784668Y-70788426D01*
X191844162Y-70699386D01*
X191861274Y-70673776D01*
X191958776Y-70576274D01*
X192073426Y-70499668D01*
X192093372Y-70491406D01*
X192200817Y-70446900D01*
X192336055Y-70420000D01*
X192473945Y-70420000D01*
X192609183Y-70446900D01*
X192736573Y-70499667D01*
X192780554Y-70529054D01*
X192802165Y-70540605D01*
X192825614Y-70547718D01*
X192850000Y-70550120D01*
X192874386Y-70547718D01*
X192897835Y-70540605D01*
X192919446Y-70529054D01*
X192938388Y-70513508D01*
X192953934Y-70494566D01*
X192965485Y-70472955D01*
X192972598Y-70449506D01*
X192975000Y-70425120D01*
X192975000Y-69150000D01*
X194375000Y-69150000D01*
X194375000Y-70550000D01*
X194375000Y-70550000D01*
G37*
G36*
X163054391Y-66333916D02*
X163475186Y-66508215D01*
X163527562Y-66529910D01*
X163704468Y-66648115D01*
X163953406Y-66814450D01*
X164315550Y-67176594D01*
X164315552Y-67176597D01*
X164599590Y-67601689D01*
X164600091Y-67602440D01*
X164796084Y-68075609D01*
X164896000Y-68577921D01*
X164896000Y-69090079D01*
X164796084Y-69592391D01*
X164602721Y-70059211D01*
X164600090Y-70065562D01*
X164399605Y-70365609D01*
X164315550Y-70491406D01*
X163953406Y-70853550D01*
X163953403Y-70853552D01*
X163527562Y-71138090D01*
X163527561Y-71138091D01*
X163527560Y-71138091D01*
X163054391Y-71334084D01*
X162552079Y-71434000D01*
X162039921Y-71434000D01*
X161537609Y-71334084D01*
X161064440Y-71138091D01*
X161064439Y-71138091D01*
X161064438Y-71138090D01*
X160638597Y-70853552D01*
X160638594Y-70853550D01*
X160276450Y-70491406D01*
X160192395Y-70365609D01*
X159991910Y-70065562D01*
X159989279Y-70059211D01*
X159795916Y-69592391D01*
X159696000Y-69090079D01*
X159696000Y-68577921D01*
X159795916Y-68075609D01*
X159991909Y-67602440D01*
X159992411Y-67601689D01*
X160276448Y-67176597D01*
X160276450Y-67176594D01*
X160638594Y-66814450D01*
X160887532Y-66648115D01*
X161064438Y-66529910D01*
X161116814Y-66508215D01*
X161537609Y-66333916D01*
X162039921Y-66234000D01*
X162552079Y-66234000D01*
X163054391Y-66333916D01*
X163054391Y-66333916D01*
G37*
G36*
X201499183Y-69811900D02*
X201626574Y-69864668D01*
X201741224Y-69941274D01*
X201838726Y-70038776D01*
X201880429Y-70101189D01*
X201915332Y-70153426D01*
X201968100Y-70280817D01*
X201995000Y-70416055D01*
X201995000Y-70553945D01*
X201968100Y-70689183D01*
X201926991Y-70788426D01*
X201915332Y-70816574D01*
X201849021Y-70915817D01*
X201838725Y-70931225D01*
X201741225Y-71028725D01*
X201626574Y-71105332D01*
X201499183Y-71158100D01*
X201363945Y-71185000D01*
X201226055Y-71185000D01*
X201090817Y-71158100D01*
X200963426Y-71105332D01*
X200848775Y-71028725D01*
X200751275Y-70931225D01*
X200740980Y-70915817D01*
X200674668Y-70816574D01*
X200663009Y-70788426D01*
X200621900Y-70689183D01*
X200595000Y-70553945D01*
X200595000Y-70416055D01*
X200621900Y-70280817D01*
X200674668Y-70153426D01*
X200709571Y-70101189D01*
X200751274Y-70038776D01*
X200848776Y-69941274D01*
X200963426Y-69864668D01*
X201090817Y-69811900D01*
X201226055Y-69785000D01*
X201363945Y-69785000D01*
X201499183Y-69811900D01*
X201499183Y-69811900D01*
G37*
G36*
X181676857Y-68792272D02*
X181877042Y-68875191D01*
X181877045Y-68875193D01*
X181949059Y-68923311D01*
X182057213Y-68995578D01*
X182210422Y-69148787D01*
X182210424Y-69148790D01*
X182210425Y-69148791D01*
X182264465Y-69229668D01*
X182330809Y-69328958D01*
X182413728Y-69529143D01*
X182456000Y-69741658D01*
X182456000Y-69958342D01*
X182413728Y-70170857D01*
X182330809Y-70371042D01*
X182330807Y-70371045D01*
X182211153Y-70550120D01*
X182210422Y-70551213D01*
X182057213Y-70704422D01*
X182057210Y-70704424D01*
X182057209Y-70704425D01*
X181877045Y-70824807D01*
X181877042Y-70824809D01*
X181676857Y-70907728D01*
X181464342Y-70950000D01*
X181247658Y-70950000D01*
X181035143Y-70907728D01*
X180834958Y-70824809D01*
X180834955Y-70824807D01*
X180654791Y-70704425D01*
X180654790Y-70704424D01*
X180654787Y-70704422D01*
X180501578Y-70551213D01*
X180500848Y-70550120D01*
X180381193Y-70371045D01*
X180381191Y-70371042D01*
X180298272Y-70170857D01*
X180256000Y-69958342D01*
X180256000Y-69741658D01*
X180298272Y-69529143D01*
X180381191Y-69328958D01*
X180447535Y-69229668D01*
X180501575Y-69148791D01*
X180501576Y-69148790D01*
X180501578Y-69148787D01*
X180654787Y-68995578D01*
X180762942Y-68923311D01*
X180834955Y-68875193D01*
X180834958Y-68875191D01*
X181035143Y-68792272D01*
X181247658Y-68750000D01*
X181464342Y-68750000D01*
X181676857Y-68792272D01*
X181676857Y-68792272D01*
G37*
G36*
X179916000Y-70950000D02*
X177716000Y-70950000D01*
X177716000Y-68750000D01*
X179916000Y-68750000D01*
X179916000Y-70950000D01*
X179916000Y-70950000D01*
G37*
G36*
X131840000Y-70700000D02*
X129940000Y-70700000D01*
X129940000Y-69000000D01*
X131840000Y-69000000D01*
X131840000Y-70700000D01*
X131840000Y-70700000D01*
G37*
G36*
X129140000Y-70700000D02*
X127240000Y-70700000D01*
X127240000Y-69000000D01*
X129140000Y-69000000D01*
X129140000Y-70700000D01*
X129140000Y-70700000D01*
G37*
G36*
X101995000Y-70700000D02*
X100095000Y-70700000D01*
X100095000Y-69000000D01*
X101995000Y-69000000D01*
X101995000Y-70700000D01*
X101995000Y-70700000D01*
G37*
G36*
X99295000Y-70700000D02*
X97395000Y-70700000D01*
X97395000Y-69000000D01*
X99295000Y-69000000D01*
X99295000Y-70700000D01*
X99295000Y-70700000D01*
G37*
G36*
X191339183Y-69176900D02*
X191466574Y-69229668D01*
X191581224Y-69306274D01*
X191678726Y-69403776D01*
X191720699Y-69466594D01*
X191755332Y-69518426D01*
X191808100Y-69645817D01*
X191835000Y-69781055D01*
X191835000Y-69918945D01*
X191808100Y-70054183D01*
X191766991Y-70153426D01*
X191755332Y-70181574D01*
X191678726Y-70296224D01*
X191581224Y-70393726D01*
X191466574Y-70470332D01*
X191339183Y-70523100D01*
X191203945Y-70550000D01*
X191066055Y-70550000D01*
X190930817Y-70523100D01*
X190803426Y-70470332D01*
X190688776Y-70393726D01*
X190591274Y-70296224D01*
X190514668Y-70181574D01*
X190503009Y-70153426D01*
X190461900Y-70054183D01*
X190435000Y-69918945D01*
X190435000Y-69781055D01*
X190461900Y-69645817D01*
X190514668Y-69518426D01*
X190549301Y-69466594D01*
X190591274Y-69403776D01*
X190688776Y-69306274D01*
X190803426Y-69229668D01*
X190930817Y-69176900D01*
X191066055Y-69150000D01*
X191203945Y-69150000D01*
X191339183Y-69176900D01*
X191339183Y-69176900D01*
G37*
G36*
X228982263Y-66508214D02*
X228982266Y-66508215D01*
X228982267Y-66508215D01*
X229349843Y-66619718D01*
X229688604Y-66800789D01*
X229985530Y-67044470D01*
X230229211Y-67341396D01*
X230410282Y-67680157D01*
X230491368Y-67947463D01*
X230521786Y-68047737D01*
X230559435Y-68430000D01*
X230521786Y-68812263D01*
X230521785Y-68812266D01*
X230521785Y-68812267D01*
X230410282Y-69179843D01*
X230229211Y-69518604D01*
X229985530Y-69815530D01*
X229688604Y-70059211D01*
X229349843Y-70240282D01*
X228982267Y-70351785D01*
X228982266Y-70351785D01*
X228982263Y-70351786D01*
X228695799Y-70380000D01*
X228504201Y-70380000D01*
X228217737Y-70351786D01*
X228217734Y-70351785D01*
X228217733Y-70351785D01*
X227850157Y-70240282D01*
X227511396Y-70059211D01*
X227214470Y-69815530D01*
X226970789Y-69518604D01*
X226789718Y-69179843D01*
X226678215Y-68812267D01*
X226678215Y-68812266D01*
X226678214Y-68812263D01*
X226640565Y-68430000D01*
X226678214Y-68047737D01*
X226708632Y-67947463D01*
X226789718Y-67680157D01*
X226970789Y-67341396D01*
X227214470Y-67044470D01*
X227511396Y-66800789D01*
X227850157Y-66619718D01*
X228217733Y-66508215D01*
X228217734Y-66508215D01*
X228217737Y-66508214D01*
X228504201Y-66480000D01*
X228695799Y-66480000D01*
X228982263Y-66508214D01*
X228982263Y-66508214D01*
G37*
G36*
X210995770Y-68230372D02*
X211111689Y-68253429D01*
X211293678Y-68328811D01*
X211457463Y-68438249D01*
X211596751Y-68577537D01*
X211706189Y-68741322D01*
X211781571Y-68923311D01*
X211804628Y-69039230D01*
X211820000Y-69116507D01*
X211820000Y-69313493D01*
X211804628Y-69390770D01*
X211781571Y-69506689D01*
X211706189Y-69688678D01*
X211596751Y-69852463D01*
X211457463Y-69991751D01*
X211293678Y-70101189D01*
X211111689Y-70176571D01*
X210995770Y-70199628D01*
X210918493Y-70215000D01*
X210721507Y-70215000D01*
X210644230Y-70199628D01*
X210528311Y-70176571D01*
X210346322Y-70101189D01*
X210182537Y-69991751D01*
X210043249Y-69852463D01*
X209933811Y-69688678D01*
X209858429Y-69506689D01*
X209835372Y-69390770D01*
X209820000Y-69313493D01*
X209820000Y-69116507D01*
X209835372Y-69039230D01*
X209858429Y-68923311D01*
X209933811Y-68741322D01*
X210043249Y-68577537D01*
X210182537Y-68438249D01*
X210346322Y-68328811D01*
X210528311Y-68253429D01*
X210644230Y-68230372D01*
X210721507Y-68215000D01*
X210918493Y-68215000D01*
X210995770Y-68230372D01*
X210995770Y-68230372D01*
G37*
G36*
X221176030Y-68229469D02*
X221176033Y-68229470D01*
X221176034Y-68229470D01*
X221364535Y-68286651D01*
X221364537Y-68286652D01*
X221538260Y-68379509D01*
X221690528Y-68504472D01*
X221815491Y-68656740D01*
X221908348Y-68830463D01*
X221965531Y-69018970D01*
X221984838Y-69215000D01*
X221965531Y-69411030D01*
X221965530Y-69411033D01*
X221965530Y-69411034D01*
X221910516Y-69592392D01*
X221908348Y-69599537D01*
X221815491Y-69773260D01*
X221690528Y-69925528D01*
X221538260Y-70050491D01*
X221538258Y-70050492D01*
X221364535Y-70143349D01*
X221176034Y-70200530D01*
X221176033Y-70200530D01*
X221176030Y-70200531D01*
X221029124Y-70215000D01*
X220930876Y-70215000D01*
X220783970Y-70200531D01*
X220783967Y-70200530D01*
X220783966Y-70200530D01*
X220595465Y-70143349D01*
X220421742Y-70050492D01*
X220421740Y-70050491D01*
X220269472Y-69925528D01*
X220144509Y-69773260D01*
X220051652Y-69599537D01*
X220049485Y-69592392D01*
X219994470Y-69411034D01*
X219994470Y-69411033D01*
X219994469Y-69411030D01*
X219975162Y-69215000D01*
X219994469Y-69018970D01*
X220051652Y-68830463D01*
X220144509Y-68656740D01*
X220269472Y-68504472D01*
X220421740Y-68379509D01*
X220595463Y-68286652D01*
X220595465Y-68286651D01*
X220783966Y-68229470D01*
X220783967Y-68229470D01*
X220783970Y-68229469D01*
X220930876Y-68215000D01*
X221029124Y-68215000D01*
X221176030Y-68229469D01*
X221176030Y-68229469D01*
G37*
G36*
X202065770Y-66325372D02*
X202181689Y-66348429D01*
X202363678Y-66423811D01*
X202527463Y-66533249D01*
X202666751Y-66672537D01*
X202776189Y-66836322D01*
X202851571Y-67018311D01*
X202874628Y-67134230D01*
X202890000Y-67211507D01*
X202890000Y-67408493D01*
X202874628Y-67485770D01*
X202851571Y-67601689D01*
X202776189Y-67783678D01*
X202666751Y-67947463D01*
X202527463Y-68086751D01*
X202363678Y-68196189D01*
X202181689Y-68271571D01*
X202065770Y-68294628D01*
X201988493Y-68310000D01*
X201791507Y-68310000D01*
X201714230Y-68294628D01*
X201598311Y-68271571D01*
X201416322Y-68196189D01*
X201252537Y-68086751D01*
X201113249Y-67947463D01*
X201003811Y-67783678D01*
X200928429Y-67601689D01*
X200905372Y-67485770D01*
X200890000Y-67408493D01*
X200890000Y-67211507D01*
X200905372Y-67134230D01*
X200928429Y-67018311D01*
X201003811Y-66836322D01*
X201113249Y-66672537D01*
X201252537Y-66533249D01*
X201416322Y-66423811D01*
X201598311Y-66348429D01*
X201714230Y-66325372D01*
X201791507Y-66310000D01*
X201988493Y-66310000D01*
X202065770Y-66325372D01*
X202065770Y-66325372D01*
G37*
G36*
X199565770Y-66325372D02*
X199681689Y-66348429D01*
X199863678Y-66423811D01*
X200027463Y-66533249D01*
X200166751Y-66672537D01*
X200276189Y-66836322D01*
X200351571Y-67018311D01*
X200374628Y-67134230D01*
X200390000Y-67211507D01*
X200390000Y-67408493D01*
X200374628Y-67485770D01*
X200351571Y-67601689D01*
X200276189Y-67783678D01*
X200166751Y-67947463D01*
X200027463Y-68086751D01*
X199863678Y-68196189D01*
X199681689Y-68271571D01*
X199565770Y-68294628D01*
X199488493Y-68310000D01*
X199291507Y-68310000D01*
X199214230Y-68294628D01*
X199098311Y-68271571D01*
X198916322Y-68196189D01*
X198752537Y-68086751D01*
X198613249Y-67947463D01*
X198503811Y-67783678D01*
X198428429Y-67601689D01*
X198405372Y-67485770D01*
X198390000Y-67408493D01*
X198390000Y-67211507D01*
X198405372Y-67134230D01*
X198428429Y-67018311D01*
X198503811Y-66836322D01*
X198613249Y-66672537D01*
X198752537Y-66533249D01*
X198916322Y-66423811D01*
X199098311Y-66348429D01*
X199214230Y-66325372D01*
X199291507Y-66310000D01*
X199488493Y-66310000D01*
X199565770Y-66325372D01*
X199565770Y-66325372D01*
G37*
G36*
X87661931Y-64108611D02*
X87944812Y-64164879D01*
X88299700Y-64311879D01*
X88619091Y-64525289D01*
X88890711Y-64796909D01*
X89104121Y-65116300D01*
X89251121Y-65471188D01*
X89296867Y-65701172D01*
X89326060Y-65847934D01*
X89326060Y-66232066D01*
X89310558Y-66310000D01*
X89251121Y-66608812D01*
X89104121Y-66963700D01*
X88890711Y-67283091D01*
X88619091Y-67554711D01*
X88299700Y-67768121D01*
X87944812Y-67915121D01*
X87661931Y-67971389D01*
X87568066Y-67990060D01*
X87183934Y-67990060D01*
X87090069Y-67971389D01*
X86807188Y-67915121D01*
X86452300Y-67768121D01*
X86132909Y-67554711D01*
X85861289Y-67283091D01*
X85647879Y-66963700D01*
X85500879Y-66608812D01*
X85441442Y-66310000D01*
X85425940Y-66232066D01*
X85425940Y-65847934D01*
X85455133Y-65701172D01*
X85500879Y-65471188D01*
X85647879Y-65116300D01*
X85861289Y-64796909D01*
X86132909Y-64525289D01*
X86452300Y-64311879D01*
X86807188Y-64164879D01*
X87090069Y-64108611D01*
X87183934Y-64089940D01*
X87568066Y-64089940D01*
X87661931Y-64108611D01*
X87661931Y-64108611D01*
G37*
G36*
X237661631Y-64108611D02*
X237944512Y-64164879D01*
X238299400Y-64311879D01*
X238618791Y-64525289D01*
X238890411Y-64796909D01*
X239103821Y-65116300D01*
X239250821Y-65471188D01*
X239296567Y-65701172D01*
X239325760Y-65847934D01*
X239325760Y-66232066D01*
X239310258Y-66310000D01*
X239250821Y-66608812D01*
X239103821Y-66963700D01*
X238890411Y-67283091D01*
X238618791Y-67554711D01*
X238299400Y-67768121D01*
X237944512Y-67915121D01*
X237661631Y-67971389D01*
X237567766Y-67990060D01*
X237183634Y-67990060D01*
X237089769Y-67971389D01*
X236806888Y-67915121D01*
X236452000Y-67768121D01*
X236132609Y-67554711D01*
X235860989Y-67283091D01*
X235647579Y-66963700D01*
X235500579Y-66608812D01*
X235441142Y-66310000D01*
X235425640Y-66232066D01*
X235425640Y-65847934D01*
X235454833Y-65701172D01*
X235500579Y-65471188D01*
X235647579Y-65116300D01*
X235860989Y-64796909D01*
X236132609Y-64525289D01*
X236452000Y-64311879D01*
X236806888Y-64164879D01*
X237089769Y-64108611D01*
X237183634Y-64089940D01*
X237567766Y-64089940D01*
X237661631Y-64108611D01*
X237661631Y-64108611D01*
G37*
G36*
X126348612Y-65323037D02*
X126576096Y-65417264D01*
X126780831Y-65554064D01*
X126954936Y-65728169D01*
X127091736Y-65932904D01*
X127185963Y-66160388D01*
X127234000Y-66401885D01*
X127234000Y-66648115D01*
X127185963Y-66889612D01*
X127091736Y-67117096D01*
X126954936Y-67321831D01*
X126780831Y-67495936D01*
X126576096Y-67632736D01*
X126348612Y-67726963D01*
X126107115Y-67775000D01*
X125860885Y-67775000D01*
X125619388Y-67726963D01*
X125391904Y-67632736D01*
X125187169Y-67495936D01*
X125013064Y-67321831D01*
X124876264Y-67117096D01*
X124782037Y-66889612D01*
X124734000Y-66648115D01*
X124734000Y-66401885D01*
X124782037Y-66160388D01*
X124876264Y-65932904D01*
X125013064Y-65728169D01*
X125187169Y-65554064D01*
X125391904Y-65417264D01*
X125619388Y-65323037D01*
X125860885Y-65275000D01*
X126107115Y-65275000D01*
X126348612Y-65323037D01*
X126348612Y-65323037D01*
G37*
G36*
X133358612Y-65323037D02*
X133586096Y-65417264D01*
X133790831Y-65554064D01*
X133964936Y-65728169D01*
X134101736Y-65932904D01*
X134195963Y-66160388D01*
X134244000Y-66401885D01*
X134244000Y-66648115D01*
X134195963Y-66889612D01*
X134101736Y-67117096D01*
X133964936Y-67321831D01*
X133790831Y-67495936D01*
X133586096Y-67632736D01*
X133358612Y-67726963D01*
X133117115Y-67775000D01*
X132870885Y-67775000D01*
X132629388Y-67726963D01*
X132401904Y-67632736D01*
X132197169Y-67495936D01*
X132023064Y-67321831D01*
X131886264Y-67117096D01*
X131792037Y-66889612D01*
X131744000Y-66648115D01*
X131744000Y-66401885D01*
X131792037Y-66160388D01*
X131886264Y-65932904D01*
X132023064Y-65728169D01*
X132197169Y-65554064D01*
X132401904Y-65417264D01*
X132629388Y-65323037D01*
X132870885Y-65275000D01*
X133117115Y-65275000D01*
X133358612Y-65323037D01*
X133358612Y-65323037D01*
G37*
G36*
X96650612Y-65296037D02*
X96878096Y-65390264D01*
X97082831Y-65527064D01*
X97256936Y-65701169D01*
X97393736Y-65905904D01*
X97487963Y-66133388D01*
X97536000Y-66374885D01*
X97536000Y-66621115D01*
X97487963Y-66862612D01*
X97393736Y-67090096D01*
X97256936Y-67294831D01*
X97082831Y-67468936D01*
X96878096Y-67605736D01*
X96650612Y-67699963D01*
X96409115Y-67748000D01*
X96162885Y-67748000D01*
X95921388Y-67699963D01*
X95693904Y-67605736D01*
X95489169Y-67468936D01*
X95315064Y-67294831D01*
X95178264Y-67090096D01*
X95084037Y-66862612D01*
X95036000Y-66621115D01*
X95036000Y-66374885D01*
X95084037Y-66133388D01*
X95178264Y-65905904D01*
X95315064Y-65701169D01*
X95489169Y-65527064D01*
X95693904Y-65390264D01*
X95921388Y-65296037D01*
X96162885Y-65248000D01*
X96409115Y-65248000D01*
X96650612Y-65296037D01*
X96650612Y-65296037D01*
G37*
G36*
X103660612Y-65296037D02*
X103888096Y-65390264D01*
X104092831Y-65527064D01*
X104266936Y-65701169D01*
X104403736Y-65905904D01*
X104497963Y-66133388D01*
X104546000Y-66374885D01*
X104546000Y-66621115D01*
X104497963Y-66862612D01*
X104403736Y-67090096D01*
X104266936Y-67294831D01*
X104092831Y-67468936D01*
X103888096Y-67605736D01*
X103660612Y-67699963D01*
X103419115Y-67748000D01*
X103172885Y-67748000D01*
X102931388Y-67699963D01*
X102703904Y-67605736D01*
X102499169Y-67468936D01*
X102325064Y-67294831D01*
X102188264Y-67090096D01*
X102094037Y-66862612D01*
X102046000Y-66621115D01*
X102046000Y-66374885D01*
X102094037Y-66133388D01*
X102188264Y-65905904D01*
X102325064Y-65701169D01*
X102499169Y-65527064D01*
X102703904Y-65390264D01*
X102931388Y-65296037D01*
X103172885Y-65248000D01*
X103419115Y-65248000D01*
X103660612Y-65296037D01*
X103660612Y-65296037D01*
G37*
G36*
X221176030Y-64419469D02*
X221176033Y-64419470D01*
X221176034Y-64419470D01*
X221364535Y-64476651D01*
X221364537Y-64476652D01*
X221538260Y-64569509D01*
X221690528Y-64694472D01*
X221815491Y-64846740D01*
X221815492Y-64846742D01*
X221908349Y-65020465D01*
X221965530Y-65208966D01*
X221965531Y-65208970D01*
X221984838Y-65405000D01*
X221965531Y-65601030D01*
X221965530Y-65601033D01*
X221965530Y-65601034D01*
X221935154Y-65701172D01*
X221908348Y-65789537D01*
X221815491Y-65963260D01*
X221690528Y-66115528D01*
X221538260Y-66240491D01*
X221538258Y-66240492D01*
X221364535Y-66333349D01*
X221176034Y-66390530D01*
X221176033Y-66390530D01*
X221176030Y-66390531D01*
X221029124Y-66405000D01*
X220930876Y-66405000D01*
X220783970Y-66390531D01*
X220783967Y-66390530D01*
X220783966Y-66390530D01*
X220595465Y-66333349D01*
X220421742Y-66240492D01*
X220421740Y-66240491D01*
X220269472Y-66115528D01*
X220144509Y-65963260D01*
X220051652Y-65789537D01*
X220024847Y-65701172D01*
X219994470Y-65601034D01*
X219994470Y-65601033D01*
X219994469Y-65601030D01*
X219975162Y-65405000D01*
X219994469Y-65208970D01*
X219994470Y-65208966D01*
X220051651Y-65020465D01*
X220144508Y-64846742D01*
X220144509Y-64846740D01*
X220269472Y-64694472D01*
X220421740Y-64569509D01*
X220595463Y-64476652D01*
X220595465Y-64476651D01*
X220783966Y-64419470D01*
X220783967Y-64419470D01*
X220783970Y-64419469D01*
X220930876Y-64405000D01*
X221029124Y-64405000D01*
X221176030Y-64419469D01*
X221176030Y-64419469D01*
G37*
G36*
X210995770Y-64420372D02*
X211111689Y-64443429D01*
X211293678Y-64518811D01*
X211457463Y-64628249D01*
X211596751Y-64767537D01*
X211706189Y-64931322D01*
X211781571Y-65113311D01*
X211804628Y-65229230D01*
X211820000Y-65306507D01*
X211820000Y-65503493D01*
X211815311Y-65527064D01*
X211781571Y-65696689D01*
X211706189Y-65878678D01*
X211596751Y-66042463D01*
X211457463Y-66181751D01*
X211293678Y-66291189D01*
X211111689Y-66366571D01*
X210995770Y-66389628D01*
X210918493Y-66405000D01*
X210721507Y-66405000D01*
X210644230Y-66389628D01*
X210528311Y-66366571D01*
X210346322Y-66291189D01*
X210182537Y-66181751D01*
X210043249Y-66042463D01*
X209933811Y-65878678D01*
X209858429Y-65696689D01*
X209824689Y-65527064D01*
X209820000Y-65503493D01*
X209820000Y-65306507D01*
X209835372Y-65229230D01*
X209858429Y-65113311D01*
X209933811Y-64931322D01*
X210043249Y-64767537D01*
X210182537Y-64628249D01*
X210346322Y-64518811D01*
X210528311Y-64443429D01*
X210644230Y-64420372D01*
X210721507Y-64405000D01*
X210918493Y-64405000D01*
X210995770Y-64420372D01*
X210995770Y-64420372D01*
G37*
G36*
X132047566Y-63001312D02*
X132243203Y-63082347D01*
X132419275Y-63199995D01*
X132569005Y-63349725D01*
X132686653Y-63525797D01*
X132767688Y-63721434D01*
X132809000Y-63929122D01*
X132809000Y-64140878D01*
X132767688Y-64348566D01*
X132686653Y-64544203D01*
X132569005Y-64720275D01*
X132419275Y-64870005D01*
X132243203Y-64987653D01*
X132047566Y-65068688D01*
X131839878Y-65110000D01*
X131628122Y-65110000D01*
X131420434Y-65068688D01*
X131224797Y-64987653D01*
X131048725Y-64870005D01*
X130898995Y-64720275D01*
X130781347Y-64544203D01*
X130700312Y-64348566D01*
X130659000Y-64140878D01*
X130659000Y-63929122D01*
X130700312Y-63721434D01*
X130781347Y-63525797D01*
X130898995Y-63349725D01*
X131048725Y-63199995D01*
X131224797Y-63082347D01*
X131420434Y-63001312D01*
X131628122Y-62960000D01*
X131839878Y-62960000D01*
X132047566Y-63001312D01*
X132047566Y-63001312D01*
G37*
G36*
X127547566Y-63001312D02*
X127743203Y-63082347D01*
X127919275Y-63199995D01*
X128069005Y-63349725D01*
X128186653Y-63525797D01*
X128267688Y-63721434D01*
X128309000Y-63929122D01*
X128309000Y-64140878D01*
X128267688Y-64348566D01*
X128186653Y-64544203D01*
X128069005Y-64720275D01*
X127919275Y-64870005D01*
X127743203Y-64987653D01*
X127547566Y-65068688D01*
X127339878Y-65110000D01*
X127128122Y-65110000D01*
X126920434Y-65068688D01*
X126724797Y-64987653D01*
X126548725Y-64870005D01*
X126398995Y-64720275D01*
X126281347Y-64544203D01*
X126200312Y-64348566D01*
X126159000Y-64140878D01*
X126159000Y-63929122D01*
X126200312Y-63721434D01*
X126281347Y-63525797D01*
X126398995Y-63349725D01*
X126548725Y-63199995D01*
X126724797Y-63082347D01*
X126920434Y-63001312D01*
X127128122Y-62960000D01*
X127339878Y-62960000D01*
X127547566Y-63001312D01*
X127547566Y-63001312D01*
G37*
G36*
X102349566Y-62974312D02*
X102545203Y-63055347D01*
X102721275Y-63172995D01*
X102871005Y-63322725D01*
X102988653Y-63498797D01*
X103069688Y-63694434D01*
X103111000Y-63902122D01*
X103111000Y-64113878D01*
X103069688Y-64321566D01*
X102988653Y-64517203D01*
X102871005Y-64693275D01*
X102721275Y-64843005D01*
X102545203Y-64960653D01*
X102400803Y-65020465D01*
X102349566Y-65041688D01*
X102141878Y-65083000D01*
X101930122Y-65083000D01*
X101722434Y-65041688D01*
X101671197Y-65020465D01*
X101526797Y-64960653D01*
X101350725Y-64843005D01*
X101200995Y-64693275D01*
X101083347Y-64517203D01*
X101002312Y-64321566D01*
X100961000Y-64113878D01*
X100961000Y-63902122D01*
X101002312Y-63694434D01*
X101083347Y-63498797D01*
X101200995Y-63322725D01*
X101350725Y-63172995D01*
X101526797Y-63055347D01*
X101722434Y-62974312D01*
X101930122Y-62933000D01*
X102141878Y-62933000D01*
X102349566Y-62974312D01*
X102349566Y-62974312D01*
G37*
G36*
X97849566Y-62974312D02*
X98045203Y-63055347D01*
X98221275Y-63172995D01*
X98371005Y-63322725D01*
X98488653Y-63498797D01*
X98569688Y-63694434D01*
X98611000Y-63902122D01*
X98611000Y-64113878D01*
X98569688Y-64321566D01*
X98488653Y-64517203D01*
X98371005Y-64693275D01*
X98221275Y-64843005D01*
X98045203Y-64960653D01*
X97900803Y-65020465D01*
X97849566Y-65041688D01*
X97641878Y-65083000D01*
X97430122Y-65083000D01*
X97222434Y-65041688D01*
X97171197Y-65020465D01*
X97026797Y-64960653D01*
X96850725Y-64843005D01*
X96700995Y-64693275D01*
X96583347Y-64517203D01*
X96502312Y-64321566D01*
X96461000Y-64113878D01*
X96461000Y-63902122D01*
X96502312Y-63694434D01*
X96583347Y-63498797D01*
X96700995Y-63322725D01*
X96850725Y-63172995D01*
X97026797Y-63055347D01*
X97222434Y-62974312D01*
X97430122Y-62933000D01*
X97641878Y-62933000D01*
X97849566Y-62974312D01*
X97849566Y-62974312D01*
G37*
M02*
