M48
;DRILL file {KiCad (5.0.1)-4} date 08.12.2018 00:31:49
;FORMAT={-:-/ absolute / metric / decimal}
FMAT,2
METRIC,TZ
T1C0.400
T2C0.600
T3C0.650
T4C0.800
T5C0.900
T6C0.990
T7C1.000
T8C1.020
T9C1.100
T10C1.200
T11C1.300
T12C1.400
%
G90
G05
M71
T1
X87.63Y-69.85
X87.63Y-73.66
X89.535Y-97.155
X89.535Y-99.695
X90.17Y-81.28
X90.17Y-83.82
X91.46Y-109.637
X92.202Y-73.66
X92.202Y-76.708
X92.639Y-99.64
X92.678Y-97.167
X94.488Y-61.976
X96.46Y-109.637
X97.79Y-83.185
X97.79Y-87.63
X97.79Y-91.44
X97.799Y-76.053
X99.488Y-61.976
X101.092Y-73.66
X101.46Y-109.637
X101.6Y-107.315
X104.394Y-97.79
X104.488Y-61.976
X106.46Y-109.637
X106.68Y-77.47
X106.697Y-102.256
X106.889Y-97.516
X106.926Y-91.969
X109.488Y-61.976
X110.1Y-97.551
X111.252Y-69.596
X111.46Y-109.637
X111.677Y-103.746
X114.488Y-61.976
X115.57Y-80.01
X115.57Y-82.55
X115.57Y-86.36
X115.57Y-89.535
X115.57Y-92.075
X116.46Y-109.637
X118.745Y-97.54
X119.38Y-80.01
X119.38Y-82.55
X119.38Y-86.36
X119.38Y-89.535
X119.38Y-92.075
X119.488Y-61.976
X120.65Y-86.36
X120.65Y-94.615
X121.285Y-107.315
X121.46Y-109.637
X123.19Y-91.948
X123.19Y-93.98
X123.664Y-69.602
X124.488Y-61.976
X125.095Y-97.542
X126.46Y-109.637
X128.524Y-73.66
X128.524Y-76.708
X128.619Y-83.874
X128.647Y-79.893
X128.647Y-81.897
X129.488Y-61.976
X130.89Y-85.344
X131.46Y-109.637
X132.334Y-97.282
X132.334Y-100.33
X133.404Y-94.029
X133.604Y-90.17
X133.604Y-91.44
X134.366Y-73.66
X134.366Y-76.708
X134.488Y-61.976
X136.153Y-105.622
X136.46Y-109.637
X136.525Y-107.315
X137.414Y-96.266
X137.414Y-97.282
X137.414Y-98.298
X137.662Y-105.592
X139.488Y-61.976
X141.224Y-69.596
X141.46Y-109.637
X141.605Y-107.95
X143.256Y-87.376
X145.288Y-105.664
X145.542Y-100.33
X145.662Y-87.405
X146.46Y-109.637
X146.812Y-105.664
X147.32Y-98.298
X148.59Y-78.105
X149.488Y-61.976
X150.622Y-81.534
X151.46Y-109.637
X152.295Y-83.812
X154.488Y-61.976
X156.46Y-109.637
X156.936Y-86.907
X159.488Y-61.976
X160.457Y-100.497
X160.528Y-91.44
X161.46Y-109.637
X162.299Y-103.547
X164.488Y-61.976
X166.46Y-109.637
X166.536Y-100.478
X166.539Y-91.473
X169.488Y-61.976
X171.436Y-100.437
X171.46Y-109.637
X174.488Y-61.976
X175.26Y-86.868
X176.46Y-109.637
X179.155Y-100.411
X179.488Y-61.976
X181.46Y-109.637
X184.488Y-61.976
X186.46Y-109.637
X188.468Y-84.328
X188.498Y-74.125
X189.488Y-61.976
X191.46Y-109.637
X192.278Y-84.328
X194.488Y-61.976
X196.095Y-74.113
X196.46Y-109.637
X199.488Y-61.976
X200.65Y-95.817
X201.46Y-109.637
X204.488Y-61.976
X206.46Y-109.637
X208.28Y-92.964
X208.28Y-95.758
X209.488Y-61.976
X211.46Y-109.637
X213.868Y-79.502
X214.488Y-61.976
X215.646Y-92.202
X217.17Y-79.502
X219.488Y-61.976
X220.726Y-92.202
X220.726Y-95.25
X221.46Y-109.637
X224.488Y-61.976
X224.536Y-74.168
X224.536Y-79.502
X229.488Y-61.976
X231.14Y-74.168
X231.46Y-109.637
X234.488Y-61.976
X236.46Y-109.637
T2
X191.135Y-69.85
X192.405Y-71.12
X193.675Y-69.85
X200.025Y-71.755
X201.295Y-70.485
X201.295Y-73.025
T3
X110.968Y-79.884
X110.968Y-81.884
X110.968Y-83.884
X110.968Y-85.884
X110.968Y-87.884
X110.968Y-89.884
X110.968Y-91.884
X110.968Y-93.884
X124.968Y-79.884
X124.968Y-81.884
X124.968Y-83.884
X124.968Y-85.884
X124.968Y-87.884
X124.968Y-89.884
X124.968Y-91.884
X124.968Y-93.884
T4
X210.82Y-69.215
X220.98Y-69.215
X199.39Y-87.63
X209.55Y-87.63
X232.41Y-88.265
X232.41Y-98.425
X216.535Y-103.561
X216.535Y-107.061
X177.165Y-81.28
X177.165Y-91.44
X174.752Y-74.168
X184.912Y-74.168
X205.74Y-79.375
X205.74Y-81.915
X205.74Y-84.455
X227.33Y-103.561
X227.33Y-107.061
X201.295Y-76.2
X201.295Y-78.74
X201.295Y-81.28
X210.82Y-73.025
X210.82Y-83.185
X184.785Y-81.28
X184.785Y-91.44
X198.12Y-104.14
X208.28Y-104.14
X180.975Y-94.615
X180.975Y-104.775
X213.995Y-73.025
X213.995Y-83.185
X220.98Y-73.025
X220.98Y-83.185
X196.215Y-76.835
X196.215Y-86.995
X189.23Y-98.425
X189.23Y-103.505
X191.77Y-100.965
X184.785Y-94.615
X184.785Y-104.775
X188.595Y-76.835
X188.595Y-86.995
X200.66Y-90.17
X200.66Y-97.79
X203.2Y-90.17
X203.2Y-97.79
X205.74Y-90.17
X205.74Y-97.79
X208.28Y-90.17
X208.28Y-97.79
X199.39Y-67.31
X201.89Y-67.31
X199.43Y-84.455
X201.93Y-84.455
X206.375Y-71.755
X206.375Y-74.295
X206.375Y-76.835
X194.945Y-97.83
X194.945Y-100.33
X180.975Y-81.28
X180.975Y-91.44
X108.585Y-106.045
X95.885Y-98.425
X95.885Y-103.505
X98.425Y-100.965
X173.355Y-94.615
X173.355Y-104.775
X177.165Y-94.615
X177.165Y-104.775
X210.82Y-65.405
X220.98Y-65.405
X192.405Y-76.835
X192.405Y-86.995
X194.945Y-89.535
X194.945Y-92.075
X194.945Y-94.615
X173.355Y-81.28
X173.355Y-91.44
X169.545Y-94.615
X169.545Y-104.775
X189.865Y-89.535
X189.865Y-92.075
X189.865Y-94.615
X200.446Y-100.584
X202.946Y-100.584
T5
X178.816Y-69.85
X181.356Y-69.85
T6
X97.536Y-64.008
X102.036Y-64.008
X127.234Y-64.035
X131.734Y-64.035
T7
X139.192Y-76.708
X141.732Y-76.708
X144.272Y-76.708
X226.06Y-85.09
X228.6Y-85.09
X231.14Y-85.09
X237.375Y-84.771
X237.375Y-87.311
X87.375Y-78.421
X87.375Y-80.961
X87.375Y-83.501
X87.375Y-86.041
X87.375Y-88.581
X87.375Y-91.121
X87.375Y-93.661
T9
X217.17Y-73.025
X217.17Y-83.185
T10
X227.33Y-88.265
X227.33Y-98.425
X217.805Y-88.25
X217.805Y-95.25
T11
X96.286Y-66.498
X103.296Y-66.498
X125.984Y-66.525
X132.994Y-66.525
T12
X155.956Y-80.645
X168.656Y-80.645
T8
X157.216Y-70.364G85X157.216Y-71.884
G05
X163.056Y-68.834G85X161.536Y-68.834
G05
X163.056Y-74.934G85X161.536Y-74.934
G05
T0
M30
