M48
;DRILL file {KiCad 4.0.7} date 06/23/18 17:50:12
;FORMAT={-:-/ absolute / metric / decimal}
FMAT,2
METRIC,TZ
T1C0.400
T2C0.600
T3C0.650
T4C0.800
T5C0.900
T6C0.990
T7C1.000
T8C1.020
T9C1.100
T10C1.200
T11C1.300
T12C1.400
T13C3.500
T14C3.500
%
G90
G05
M71
T1
X91.802Y-82.18
X92.129Y-84.859
X92.202Y-73.66
X92.202Y-76.708
X92.71Y-89.535
X92.845Y-87.476
X94.488Y-61.976
X94.488Y-109.982
X98.425Y-86.36
X98.425Y-88.9
X99.488Y-61.976
X99.488Y-109.982
X100.315Y-80.371
X101.092Y-73.66
X101.092Y-76.708
X104.394Y-92.456
X104.394Y-97.79
X104.488Y-61.976
X104.488Y-109.982
X104.759Y-103.77
X104.775Y-83.185
X106.68Y-78.74
X106.68Y-92.075
X106.889Y-97.516
X109.488Y-61.976
X109.488Y-109.982
X110.1Y-97.551
X111.252Y-69.596
X111.677Y-103.746
X114.488Y-61.976
X114.488Y-109.982
X115.57Y-80.01
X115.57Y-82.55
X115.57Y-86.36
X115.57Y-89.535
X115.57Y-92.075
X118.745Y-97.54
X119.38Y-80.01
X119.38Y-82.55
X119.38Y-86.36
X119.38Y-89.535
X119.38Y-92.075
X119.488Y-61.976
X119.488Y-109.982
X120.65Y-86.36
X120.65Y-94.615
X123.19Y-91.948
X123.19Y-93.98
X123.664Y-69.602
X124.488Y-61.976
X124.488Y-109.982
X125.095Y-97.542
X128.524Y-73.66
X128.524Y-76.708
X129.032Y-83.82
X129.097Y-79.891
X129.116Y-81.884
X129.488Y-61.976
X129.488Y-109.982
X130.556Y-91.44
X130.556Y-93.98
X130.89Y-85.344
X132.334Y-97.282
X132.334Y-100.33
X133.404Y-94.029
X133.604Y-90.17
X133.604Y-91.44
X134.366Y-73.66
X134.366Y-76.708
X134.382Y-108.108
X134.488Y-61.976
X134.488Y-109.982
X136.153Y-105.622
X137.414Y-96.266
X137.414Y-97.282
X137.414Y-98.298
X137.662Y-105.592
X139.488Y-61.976
X139.488Y-109.982
X141.224Y-69.596
X143.256Y-87.376
X144.488Y-109.982
X144.78Y-87.376
X145.288Y-105.664
X145.542Y-100.33
X146.812Y-105.664
X147.32Y-98.298
X148.59Y-78.105
X149.488Y-61.976
X149.488Y-109.982
X150.622Y-81.534
X152.295Y-83.812
X154.488Y-61.976
X154.488Y-109.982
X155.575Y-98.425
X155.583Y-108.085
X156.936Y-86.907
X159.258Y-83.312
X159.488Y-61.976
X159.488Y-109.982
X162.299Y-103.547
X164.488Y-61.976
X164.488Y-109.982
X164.499Y-103.664
X164.529Y-91.869
X164.549Y-83.372
X164.549Y-85.815
X164.559Y-99.259
X169.418Y-97.536
X169.488Y-61.976
X169.488Y-109.982
X173.228Y-88.646
X173.228Y-97.536
X174.488Y-61.976
X174.488Y-109.982
X177.038Y-88.646
X177.292Y-97.536
X179.488Y-61.976
X179.488Y-109.982
X184.15Y-88.646
X184.488Y-61.976
X184.488Y-109.982
X184.658Y-97.536
X188.468Y-84.328
X188.498Y-74.125
X189.488Y-61.976
X189.488Y-109.982
X192.278Y-84.328
X194.488Y-61.976
X194.488Y-109.982
X196.095Y-74.113
X199.488Y-61.976
X199.488Y-109.982
X200.65Y-95.817
X204.488Y-61.976
X204.488Y-109.982
X208.28Y-92.964
X208.28Y-95.758
X209.488Y-61.976
X209.488Y-109.982
X213.868Y-79.502
X214.488Y-61.976
X214.488Y-109.982
X215.646Y-92.202
X217.17Y-79.502
X219.488Y-61.976
X219.488Y-109.982
X220.726Y-92.202
X220.726Y-95.25
X224.488Y-61.976
X224.488Y-109.982
X224.536Y-74.168
X224.536Y-79.502
X229.488Y-61.976
X229.488Y-109.982
X231.14Y-74.168
X234.488Y-61.976
X234.488Y-109.982
T2
X191.135Y-69.85
X192.405Y-71.12
X193.675Y-69.85
X200.025Y-71.755
X201.295Y-70.485
X201.295Y-73.025
T3
X110.968Y-79.884
X110.968Y-81.884
X110.968Y-83.884
X110.968Y-85.884
X110.968Y-87.884
X110.968Y-89.884
X110.968Y-91.884
X110.968Y-93.884
X124.968Y-79.884
X124.968Y-81.884
X124.968Y-83.884
X124.968Y-85.884
X124.968Y-87.884
X124.968Y-89.884
X124.968Y-91.884
X124.968Y-93.884
T4
X97.79Y-98.425
X97.79Y-100.965
X97.79Y-103.505
X108.585Y-106.045
X169.545Y-94.615
X169.545Y-104.775
X173.355Y-81.28
X173.355Y-91.44
X173.355Y-94.615
X173.355Y-104.775
X174.752Y-74.168
X177.165Y-81.28
X177.165Y-91.44
X177.165Y-94.615
X177.165Y-104.775
X180.975Y-81.28
X180.975Y-91.44
X180.975Y-94.615
X180.975Y-104.775
X184.785Y-81.28
X184.785Y-91.44
X184.785Y-94.615
X184.785Y-104.775
X184.912Y-74.168
X188.595Y-76.835
X188.595Y-86.995
X189.865Y-89.535
X189.865Y-92.075
X189.865Y-94.615
X189.865Y-98.425
X189.865Y-100.965
X189.865Y-103.505
X192.405Y-76.835
X192.405Y-86.995
X194.945Y-89.535
X194.945Y-92.075
X194.945Y-94.615
X194.945Y-97.83
X194.945Y-100.33
X196.215Y-76.835
X196.215Y-86.995
X198.12Y-104.14
X199.39Y-67.31
X199.39Y-87.63
X199.43Y-84.455
X200.446Y-100.584
X200.66Y-90.17
X200.66Y-97.79
X201.295Y-76.2
X201.295Y-78.74
X201.295Y-81.28
X201.89Y-67.31
X201.93Y-84.455
X202.946Y-100.584
X203.2Y-90.17
X203.2Y-97.79
X205.74Y-79.375
X205.74Y-81.915
X205.74Y-84.455
X205.74Y-90.17
X205.74Y-97.79
X206.375Y-71.755
X206.375Y-74.295
X206.375Y-76.835
X208.28Y-90.17
X208.28Y-97.79
X208.28Y-104.14
X209.55Y-87.63
X210.82Y-65.405
X210.82Y-69.215
X210.82Y-73.025
X210.82Y-83.185
X213.995Y-73.025
X213.995Y-83.185
X216.535Y-103.561
X216.535Y-107.061
X220.98Y-65.405
X220.98Y-69.215
X220.98Y-73.025
X220.98Y-83.185
X227.33Y-103.561
X227.33Y-107.061
X232.41Y-88.265
X232.41Y-98.425
T5
X178.816Y-69.85
X181.356Y-69.85
T6
X97.536Y-64.008
X102.036Y-64.008
X127.234Y-64.035
X131.734Y-64.035
T7
X87.375Y-78.421
X87.375Y-80.961
X87.375Y-83.501
X87.375Y-86.041
X87.375Y-88.581
X87.375Y-91.121
X87.375Y-93.661
X139.192Y-76.708
X141.732Y-76.708
X144.272Y-76.708
X226.06Y-85.09
X228.6Y-85.09
X231.14Y-85.09
X237.375Y-84.771
X237.375Y-87.311
T9
X217.17Y-73.025
X217.17Y-83.185
T10
X217.805Y-88.25
X217.805Y-95.25
X227.33Y-88.265
X227.33Y-98.425
T11
X96.286Y-66.498
X103.296Y-66.498
X125.984Y-66.525
X132.994Y-66.525
T12
X155.956Y-80.645
X168.656Y-80.645
T13
X228.6Y-68.43
T14
X87.376Y-66.04
X87.376Y-106.04
X237.376Y-66.04
X237.376Y-106.04
T8
X157.216Y-70.364G85X157.216Y-71.884
G05
X163.056Y-68.834G85X161.536Y-68.834
G05
X163.056Y-74.934G85X161.536Y-74.934
G05
T0
M30
