G04 #@! TF.FileFunction,Legend,Top*
%FSLAX46Y46*%
G04 Gerber Fmt 4.6, Leading zero omitted, Abs format (unit mm)*
G04 Created by KiCad (PCBNEW 4.0.7) date 03/18/18 22:00:37*
%MOMM*%
%LPD*%
G01*
G04 APERTURE LIST*
%ADD10C,0.100000*%
%ADD11C,0.300000*%
%ADD12C,0.120000*%
%ADD13C,0.150000*%
%ADD14C,0.152400*%
%ADD15C,0.381000*%
%ADD16C,2.000000*%
%ADD17O,2.000000X2.000000*%
%ADD18C,1.924000*%
%ADD19R,1.900000X1.650000*%
%ADD20C,3.900120*%
%ADD21R,2.000000X2.000000*%
%ADD22R,1.900000X1.700000*%
%ADD23O,3.900000X3.900000*%
%ADD24R,2.200000X2.200000*%
%ADD25O,2.200000X2.200000*%
%ADD26R,4.200000X2.400000*%
%ADD27R,1.900000X2.400000*%
%ADD28R,2.900000X1.500000*%
%ADD29O,2.900000X1.500000*%
%ADD30C,2.500000*%
%ADD31C,2.150000*%
%ADD32R,3.600000X1.900000*%
%ADD33R,3.600000X2.900000*%
%ADD34C,5.200000*%
%ADD35R,5.200000X5.200000*%
%ADD36R,2.100000X2.100000*%
%ADD37O,2.100000X2.100000*%
%ADD38R,1.650000X1.900000*%
%ADD39R,2.150000X0.850000*%
%ADD40C,1.920000*%
%ADD41R,1.920000X1.920000*%
%ADD42C,1.400000*%
%ADD43R,1.400000X1.400000*%
%ADD44C,2.200000*%
%ADD45R,1.700000X1.900000*%
%ADD46R,1.960000X1.050000*%
%ADD47C,2.020000*%
%ADD48R,1.900000X1.900000*%
%ADD49R,2.020000X2.020000*%
%ADD50R,3.200000X3.200000*%
%ADD51O,3.200000X3.200000*%
%ADD52R,2.600000X2.600000*%
%ADD53O,2.600000X2.600000*%
%ADD54C,2.800000*%
%ADD55R,2.800000X2.800000*%
%ADD56O,2.800000X2.800000*%
G04 APERTURE END LIST*
D10*
D11*
X237147571Y-98662857D02*
X235647571Y-98662857D01*
X236361857Y-98662857D02*
X236361857Y-97805714D01*
X237147571Y-97805714D02*
X235647571Y-97805714D01*
X237147571Y-97091428D02*
X236147571Y-97091428D01*
X235647571Y-97091428D02*
X235719000Y-97162857D01*
X235790429Y-97091428D01*
X235719000Y-97020000D01*
X235647571Y-97091428D01*
X235790429Y-97091428D01*
X236147571Y-95734285D02*
X237361857Y-95734285D01*
X237504714Y-95805714D01*
X237576143Y-95877142D01*
X237647571Y-96019999D01*
X237647571Y-96234285D01*
X237576143Y-96377142D01*
X237076143Y-95734285D02*
X237147571Y-95877142D01*
X237147571Y-96162856D01*
X237076143Y-96305714D01*
X237004714Y-96377142D01*
X236861857Y-96448571D01*
X236433286Y-96448571D01*
X236290429Y-96377142D01*
X236219000Y-96305714D01*
X236147571Y-96162856D01*
X236147571Y-95877142D01*
X236219000Y-95734285D01*
X237147571Y-95019999D02*
X235647571Y-95019999D01*
X237147571Y-94377142D02*
X236361857Y-94377142D01*
X236219000Y-94448571D01*
X236147571Y-94591428D01*
X236147571Y-94805713D01*
X236219000Y-94948571D01*
X236290429Y-95019999D01*
X238197571Y-100877143D02*
X239697571Y-100377143D01*
X238197571Y-99877143D01*
X239697571Y-99162857D02*
X239626143Y-99305715D01*
X239554714Y-99377143D01*
X239411857Y-99448572D01*
X238983286Y-99448572D01*
X238840429Y-99377143D01*
X238769000Y-99305715D01*
X238697571Y-99162857D01*
X238697571Y-98948572D01*
X238769000Y-98805715D01*
X238840429Y-98734286D01*
X238983286Y-98662857D01*
X239411857Y-98662857D01*
X239554714Y-98734286D01*
X239626143Y-98805715D01*
X239697571Y-98948572D01*
X239697571Y-99162857D01*
X239697571Y-97805714D02*
X239626143Y-97948572D01*
X239483286Y-98020000D01*
X238197571Y-98020000D01*
X238697571Y-97448572D02*
X238697571Y-96877143D01*
X238197571Y-97234286D02*
X239483286Y-97234286D01*
X239626143Y-97162858D01*
X239697571Y-97020000D01*
X239697571Y-96877143D01*
X239697571Y-95734286D02*
X238911857Y-95734286D01*
X238769000Y-95805715D01*
X238697571Y-95948572D01*
X238697571Y-96234286D01*
X238769000Y-96377143D01*
X239626143Y-95734286D02*
X239697571Y-95877143D01*
X239697571Y-96234286D01*
X239626143Y-96377143D01*
X239483286Y-96448572D01*
X239340429Y-96448572D01*
X239197571Y-96377143D01*
X239126143Y-96234286D01*
X239126143Y-95877143D01*
X239054714Y-95734286D01*
X238697571Y-94377143D02*
X239911857Y-94377143D01*
X240054714Y-94448572D01*
X240126143Y-94520000D01*
X240197571Y-94662857D01*
X240197571Y-94877143D01*
X240126143Y-95020000D01*
X239626143Y-94377143D02*
X239697571Y-94520000D01*
X239697571Y-94805714D01*
X239626143Y-94948572D01*
X239554714Y-95020000D01*
X239411857Y-95091429D01*
X238983286Y-95091429D01*
X238840429Y-95020000D01*
X238769000Y-94948572D01*
X238697571Y-94805714D01*
X238697571Y-94520000D01*
X238769000Y-94377143D01*
X239626143Y-93091429D02*
X239697571Y-93234286D01*
X239697571Y-93520000D01*
X239626143Y-93662857D01*
X239483286Y-93734286D01*
X238911857Y-93734286D01*
X238769000Y-93662857D01*
X238697571Y-93520000D01*
X238697571Y-93234286D01*
X238769000Y-93091429D01*
X238911857Y-93020000D01*
X239054714Y-93020000D01*
X239197571Y-93734286D01*
X239554714Y-92377143D02*
X239626143Y-92305715D01*
X239697571Y-92377143D01*
X239626143Y-92448572D01*
X239554714Y-92377143D01*
X239697571Y-92377143D01*
X239126143Y-92377143D02*
X238269000Y-92448572D01*
X238197571Y-92377143D01*
X238269000Y-92305715D01*
X239126143Y-92377143D01*
X238197571Y-92377143D01*
X173676857Y-74846571D02*
X173676857Y-73346571D01*
X173676857Y-74060857D02*
X174534000Y-74060857D01*
X174534000Y-74846571D02*
X174534000Y-73346571D01*
X175034000Y-73346571D02*
X175534000Y-74846571D01*
X176034000Y-73346571D01*
X177962571Y-73346571D02*
X178248285Y-73346571D01*
X178391143Y-73418000D01*
X178534000Y-73560857D01*
X178605428Y-73846571D01*
X178605428Y-74346571D01*
X178534000Y-74632286D01*
X178391143Y-74775143D01*
X178248285Y-74846571D01*
X177962571Y-74846571D01*
X177819714Y-74775143D01*
X177676857Y-74632286D01*
X177605428Y-74346571D01*
X177605428Y-73846571D01*
X177676857Y-73560857D01*
X177819714Y-73418000D01*
X177962571Y-73346571D01*
X179248286Y-73846571D02*
X179248286Y-74846571D01*
X179248286Y-73989429D02*
X179319714Y-73918000D01*
X179462572Y-73846571D01*
X179676857Y-73846571D01*
X179819714Y-73918000D01*
X179891143Y-74060857D01*
X179891143Y-74846571D01*
X237147571Y-80645143D02*
X237147571Y-81502286D01*
X237147571Y-81073714D02*
X235647571Y-81073714D01*
X235861857Y-81216571D01*
X236004714Y-81359429D01*
X236076143Y-81502286D01*
X235647571Y-79359429D02*
X235647571Y-79645143D01*
X235719000Y-79788000D01*
X235790429Y-79859429D01*
X236004714Y-80002286D01*
X236290429Y-80073715D01*
X236861857Y-80073715D01*
X237004714Y-80002286D01*
X237076143Y-79930858D01*
X237147571Y-79788000D01*
X237147571Y-79502286D01*
X237076143Y-79359429D01*
X237004714Y-79288000D01*
X236861857Y-79216572D01*
X236504714Y-79216572D01*
X236361857Y-79288000D01*
X236290429Y-79359429D01*
X236219000Y-79502286D01*
X236219000Y-79788000D01*
X236290429Y-79930858D01*
X236361857Y-80002286D01*
X236504714Y-80073715D01*
X235647571Y-78288001D02*
X235647571Y-78145144D01*
X235719000Y-78002287D01*
X235790429Y-77930858D01*
X235933286Y-77859429D01*
X236219000Y-77788001D01*
X236576143Y-77788001D01*
X236861857Y-77859429D01*
X237004714Y-77930858D01*
X237076143Y-78002287D01*
X237147571Y-78145144D01*
X237147571Y-78288001D01*
X237076143Y-78430858D01*
X237004714Y-78502287D01*
X236861857Y-78573715D01*
X236576143Y-78645144D01*
X236219000Y-78645144D01*
X235933286Y-78573715D01*
X235790429Y-78502287D01*
X235719000Y-78430858D01*
X235647571Y-78288001D01*
X236576143Y-77145144D02*
X236576143Y-76002287D01*
X239697571Y-80645143D02*
X239697571Y-81502286D01*
X239697571Y-81073714D02*
X238197571Y-81073714D01*
X238411857Y-81216571D01*
X238554714Y-81359429D01*
X238626143Y-81502286D01*
X238840429Y-79788000D02*
X238769000Y-79930858D01*
X238697571Y-80002286D01*
X238554714Y-80073715D01*
X238483286Y-80073715D01*
X238340429Y-80002286D01*
X238269000Y-79930858D01*
X238197571Y-79788000D01*
X238197571Y-79502286D01*
X238269000Y-79359429D01*
X238340429Y-79288000D01*
X238483286Y-79216572D01*
X238554714Y-79216572D01*
X238697571Y-79288000D01*
X238769000Y-79359429D01*
X238840429Y-79502286D01*
X238840429Y-79788000D01*
X238911857Y-79930858D01*
X238983286Y-80002286D01*
X239126143Y-80073715D01*
X239411857Y-80073715D01*
X239554714Y-80002286D01*
X239626143Y-79930858D01*
X239697571Y-79788000D01*
X239697571Y-79502286D01*
X239626143Y-79359429D01*
X239554714Y-79288000D01*
X239411857Y-79216572D01*
X239126143Y-79216572D01*
X238983286Y-79288000D01*
X238911857Y-79359429D01*
X238840429Y-79502286D01*
X238197571Y-78288001D02*
X238197571Y-78145144D01*
X238269000Y-78002287D01*
X238340429Y-77930858D01*
X238483286Y-77859429D01*
X238769000Y-77788001D01*
X239126143Y-77788001D01*
X239411857Y-77859429D01*
X239554714Y-77930858D01*
X239626143Y-78002287D01*
X239697571Y-78145144D01*
X239697571Y-78288001D01*
X239626143Y-78430858D01*
X239554714Y-78502287D01*
X239411857Y-78573715D01*
X239126143Y-78645144D01*
X238769000Y-78645144D01*
X238483286Y-78573715D01*
X238340429Y-78502287D01*
X238269000Y-78430858D01*
X238197571Y-78288001D01*
X238197571Y-77359430D02*
X239697571Y-76859430D01*
X238197571Y-76359430D01*
X239697571Y-74716573D02*
X238197571Y-74716573D01*
X238197571Y-74359430D01*
X238269000Y-74145145D01*
X238411857Y-74002287D01*
X238554714Y-73930859D01*
X238840429Y-73859430D01*
X239054714Y-73859430D01*
X239340429Y-73930859D01*
X239483286Y-74002287D01*
X239626143Y-74145145D01*
X239697571Y-74359430D01*
X239697571Y-74716573D01*
X239554714Y-72359430D02*
X239626143Y-72430859D01*
X239697571Y-72645145D01*
X239697571Y-72788002D01*
X239626143Y-73002287D01*
X239483286Y-73145145D01*
X239340429Y-73216573D01*
X239054714Y-73288002D01*
X238840429Y-73288002D01*
X238554714Y-73216573D01*
X238411857Y-73145145D01*
X238269000Y-73002287D01*
X238197571Y-72788002D01*
X238197571Y-72645145D01*
X238269000Y-72430859D01*
X238340429Y-72359430D01*
X110165000Y-106652143D02*
X110379286Y-106723571D01*
X110736429Y-106723571D01*
X110879286Y-106652143D01*
X110950715Y-106580714D01*
X111022143Y-106437857D01*
X111022143Y-106295000D01*
X110950715Y-106152143D01*
X110879286Y-106080714D01*
X110736429Y-106009286D01*
X110450715Y-105937857D01*
X110307857Y-105866429D01*
X110236429Y-105795000D01*
X110165000Y-105652143D01*
X110165000Y-105509286D01*
X110236429Y-105366429D01*
X110307857Y-105295000D01*
X110450715Y-105223571D01*
X110807857Y-105223571D01*
X111022143Y-105295000D01*
X112236428Y-106652143D02*
X112093571Y-106723571D01*
X111807857Y-106723571D01*
X111665000Y-106652143D01*
X111593571Y-106509286D01*
X111593571Y-105937857D01*
X111665000Y-105795000D01*
X111807857Y-105723571D01*
X112093571Y-105723571D01*
X112236428Y-105795000D01*
X112307857Y-105937857D01*
X112307857Y-106080714D01*
X111593571Y-106223571D01*
X112950714Y-105723571D02*
X112950714Y-106723571D01*
X112950714Y-105866429D02*
X113022142Y-105795000D01*
X113165000Y-105723571D01*
X113379285Y-105723571D01*
X113522142Y-105795000D01*
X113593571Y-105937857D01*
X113593571Y-106723571D01*
X114236428Y-106652143D02*
X114379285Y-106723571D01*
X114665000Y-106723571D01*
X114807857Y-106652143D01*
X114879285Y-106509286D01*
X114879285Y-106437857D01*
X114807857Y-106295000D01*
X114665000Y-106223571D01*
X114450714Y-106223571D01*
X114307857Y-106152143D01*
X114236428Y-106009286D01*
X114236428Y-105937857D01*
X114307857Y-105795000D01*
X114450714Y-105723571D01*
X114665000Y-105723571D01*
X114807857Y-105795000D01*
X115736429Y-106723571D02*
X115593571Y-106652143D01*
X115522143Y-106580714D01*
X115450714Y-106437857D01*
X115450714Y-106009286D01*
X115522143Y-105866429D01*
X115593571Y-105795000D01*
X115736429Y-105723571D01*
X115950714Y-105723571D01*
X116093571Y-105795000D01*
X116165000Y-105866429D01*
X116236429Y-106009286D01*
X116236429Y-106437857D01*
X116165000Y-106580714D01*
X116093571Y-106652143D01*
X115950714Y-106723571D01*
X115736429Y-106723571D01*
X116879286Y-106723571D02*
X116879286Y-105723571D01*
X116879286Y-106009286D02*
X116950714Y-105866429D01*
X117022143Y-105795000D01*
X117165000Y-105723571D01*
X117307857Y-105723571D01*
X239712572Y-84943143D02*
X240855429Y-84943143D01*
X239712572Y-87483143D02*
X240855429Y-87483143D01*
X240284000Y-88054571D02*
X240284000Y-86911714D01*
X144355715Y-88938571D02*
X144355715Y-87438571D01*
X144927143Y-87438571D01*
X145070001Y-87510000D01*
X145141429Y-87581429D01*
X145212858Y-87724286D01*
X145212858Y-87938571D01*
X145141429Y-88081429D01*
X145070001Y-88152857D01*
X144927143Y-88224286D01*
X144355715Y-88224286D01*
X146070001Y-88938571D02*
X145927143Y-88867143D01*
X145855715Y-88795714D01*
X145784286Y-88652857D01*
X145784286Y-88224286D01*
X145855715Y-88081429D01*
X145927143Y-88010000D01*
X146070001Y-87938571D01*
X146284286Y-87938571D01*
X146427143Y-88010000D01*
X146498572Y-88081429D01*
X146570001Y-88224286D01*
X146570001Y-88652857D01*
X146498572Y-88795714D01*
X146427143Y-88867143D01*
X146284286Y-88938571D01*
X146070001Y-88938571D01*
X147070001Y-87938571D02*
X147355715Y-88938571D01*
X147641429Y-88224286D01*
X147927144Y-88938571D01*
X148212858Y-87938571D01*
X149355715Y-88867143D02*
X149212858Y-88938571D01*
X148927144Y-88938571D01*
X148784287Y-88867143D01*
X148712858Y-88724286D01*
X148712858Y-88152857D01*
X148784287Y-88010000D01*
X148927144Y-87938571D01*
X149212858Y-87938571D01*
X149355715Y-88010000D01*
X149427144Y-88152857D01*
X149427144Y-88295714D01*
X148712858Y-88438571D01*
X150070001Y-88938571D02*
X150070001Y-87938571D01*
X150070001Y-88224286D02*
X150141429Y-88081429D01*
X150212858Y-88010000D01*
X150355715Y-87938571D01*
X150498572Y-87938571D01*
X146427143Y-89988571D02*
X146712857Y-89988571D01*
X146855715Y-90060000D01*
X146998572Y-90202857D01*
X147070000Y-90488571D01*
X147070000Y-90988571D01*
X146998572Y-91274286D01*
X146855715Y-91417143D01*
X146712857Y-91488571D01*
X146427143Y-91488571D01*
X146284286Y-91417143D01*
X146141429Y-91274286D01*
X146070000Y-90988571D01*
X146070000Y-90488571D01*
X146141429Y-90202857D01*
X146284286Y-90060000D01*
X146427143Y-89988571D01*
X147712858Y-91488571D02*
X147712858Y-89988571D01*
X148570001Y-91488571D02*
X147927144Y-90631429D01*
X148570001Y-89988571D02*
X147712858Y-90845714D01*
X147463429Y-65443571D02*
X147749144Y-65443571D01*
X147892001Y-65372143D01*
X147963429Y-65300714D01*
X148106287Y-65086429D01*
X148177715Y-64800714D01*
X148177715Y-64229286D01*
X148106287Y-64086429D01*
X148034858Y-64015000D01*
X147892001Y-63943571D01*
X147606287Y-63943571D01*
X147463429Y-64015000D01*
X147392001Y-64086429D01*
X147320572Y-64229286D01*
X147320572Y-64586429D01*
X147392001Y-64729286D01*
X147463429Y-64800714D01*
X147606287Y-64872143D01*
X147892001Y-64872143D01*
X148034858Y-64800714D01*
X148106287Y-64729286D01*
X148177715Y-64586429D01*
X149963429Y-64872143D02*
X151106286Y-64872143D01*
X153749143Y-65443571D02*
X152892000Y-65443571D01*
X153320572Y-65443571D02*
X153320572Y-63943571D01*
X153177715Y-64157857D01*
X153034857Y-64300714D01*
X152892000Y-64372143D01*
X154320571Y-64086429D02*
X154392000Y-64015000D01*
X154534857Y-63943571D01*
X154892000Y-63943571D01*
X155034857Y-64015000D01*
X155106286Y-64086429D01*
X155177714Y-64229286D01*
X155177714Y-64372143D01*
X155106286Y-64586429D01*
X154249143Y-65443571D01*
X155177714Y-65443571D01*
X155606285Y-63943571D02*
X156106285Y-65443571D01*
X156606285Y-63943571D01*
X150749143Y-67993571D02*
X150749143Y-66493571D01*
X151106286Y-66493571D01*
X151320571Y-66565000D01*
X151463429Y-66707857D01*
X151534857Y-66850714D01*
X151606286Y-67136429D01*
X151606286Y-67350714D01*
X151534857Y-67636429D01*
X151463429Y-67779286D01*
X151320571Y-67922143D01*
X151106286Y-67993571D01*
X150749143Y-67993571D01*
X153106286Y-67850714D02*
X153034857Y-67922143D01*
X152820571Y-67993571D01*
X152677714Y-67993571D01*
X152463429Y-67922143D01*
X152320571Y-67779286D01*
X152249143Y-67636429D01*
X152177714Y-67350714D01*
X152177714Y-67136429D01*
X152249143Y-66850714D01*
X152320571Y-66707857D01*
X152463429Y-66565000D01*
X152677714Y-66493571D01*
X152820571Y-66493571D01*
X153034857Y-66565000D01*
X153106286Y-66636429D01*
X143522000Y-64896857D02*
X143450571Y-65039714D01*
X143450571Y-65254000D01*
X143522000Y-65468285D01*
X143664857Y-65611143D01*
X143807714Y-65682571D01*
X144093429Y-65754000D01*
X144307714Y-65754000D01*
X144593429Y-65682571D01*
X144736286Y-65611143D01*
X144879143Y-65468285D01*
X144950571Y-65254000D01*
X144950571Y-65111143D01*
X144879143Y-64896857D01*
X144807714Y-64825428D01*
X144307714Y-64825428D01*
X144307714Y-65111143D01*
X144950571Y-64182571D02*
X143450571Y-64182571D01*
X144950571Y-63325428D01*
X143450571Y-63325428D01*
X144950571Y-62611142D02*
X143450571Y-62611142D01*
X143450571Y-62253999D01*
X143522000Y-62039714D01*
X143664857Y-61896856D01*
X143807714Y-61825428D01*
X144093429Y-61753999D01*
X144307714Y-61753999D01*
X144593429Y-61825428D01*
X144736286Y-61896856D01*
X144879143Y-62039714D01*
X144950571Y-62253999D01*
X144950571Y-62611142D01*
X140910571Y-65912857D02*
X140910571Y-65055714D01*
X142410571Y-65484285D02*
X140910571Y-65484285D01*
X140910571Y-64698571D02*
X142410571Y-63698571D01*
X140910571Y-63698571D02*
X142410571Y-64698571D01*
X139870571Y-65019999D02*
X139156286Y-65519999D01*
X139870571Y-65877142D02*
X138370571Y-65877142D01*
X138370571Y-65305714D01*
X138442000Y-65162856D01*
X138513429Y-65091428D01*
X138656286Y-65019999D01*
X138870571Y-65019999D01*
X139013429Y-65091428D01*
X139084857Y-65162856D01*
X139156286Y-65305714D01*
X139156286Y-65877142D01*
X138370571Y-64519999D02*
X139870571Y-63519999D01*
X138370571Y-63519999D02*
X139870571Y-64519999D01*
X119777143Y-63900857D02*
X119277143Y-63900857D01*
X119277143Y-64686571D02*
X119277143Y-63186571D01*
X119991429Y-63186571D01*
X120777143Y-64686571D02*
X120634285Y-64615143D01*
X120562857Y-64472286D01*
X120562857Y-63186571D01*
X121991428Y-64686571D02*
X121991428Y-63900857D01*
X121919999Y-63758000D01*
X121777142Y-63686571D01*
X121491428Y-63686571D01*
X121348571Y-63758000D01*
X121991428Y-64615143D02*
X121848571Y-64686571D01*
X121491428Y-64686571D01*
X121348571Y-64615143D01*
X121277142Y-64472286D01*
X121277142Y-64329429D01*
X121348571Y-64186571D01*
X121491428Y-64115143D01*
X121848571Y-64115143D01*
X121991428Y-64043714D01*
X122634285Y-64615143D02*
X122777142Y-64686571D01*
X123062857Y-64686571D01*
X123205714Y-64615143D01*
X123277142Y-64472286D01*
X123277142Y-64400857D01*
X123205714Y-64258000D01*
X123062857Y-64186571D01*
X122848571Y-64186571D01*
X122705714Y-64115143D01*
X122634285Y-63972286D01*
X122634285Y-63900857D01*
X122705714Y-63758000D01*
X122848571Y-63686571D01*
X123062857Y-63686571D01*
X123205714Y-63758000D01*
X123920000Y-64686571D02*
X123920000Y-63186571D01*
X124562857Y-64686571D02*
X124562857Y-63900857D01*
X124491428Y-63758000D01*
X124348571Y-63686571D01*
X124134286Y-63686571D01*
X123991428Y-63758000D01*
X123920000Y-63829429D01*
X106346858Y-64686571D02*
X105846858Y-63972286D01*
X105489715Y-64686571D02*
X105489715Y-63186571D01*
X106061143Y-63186571D01*
X106204001Y-63258000D01*
X106275429Y-63329429D01*
X106346858Y-63472286D01*
X106346858Y-63686571D01*
X106275429Y-63829429D01*
X106204001Y-63900857D01*
X106061143Y-63972286D01*
X105489715Y-63972286D01*
X107561143Y-64615143D02*
X107418286Y-64686571D01*
X107132572Y-64686571D01*
X106989715Y-64615143D01*
X106918286Y-64472286D01*
X106918286Y-63900857D01*
X106989715Y-63758000D01*
X107132572Y-63686571D01*
X107418286Y-63686571D01*
X107561143Y-63758000D01*
X107632572Y-63900857D01*
X107632572Y-64043714D01*
X106918286Y-64186571D01*
X108204000Y-64615143D02*
X108346857Y-64686571D01*
X108632572Y-64686571D01*
X108775429Y-64615143D01*
X108846857Y-64472286D01*
X108846857Y-64400857D01*
X108775429Y-64258000D01*
X108632572Y-64186571D01*
X108418286Y-64186571D01*
X108275429Y-64115143D01*
X108204000Y-63972286D01*
X108204000Y-63900857D01*
X108275429Y-63758000D01*
X108418286Y-63686571D01*
X108632572Y-63686571D01*
X108775429Y-63758000D01*
X110061143Y-64615143D02*
X109918286Y-64686571D01*
X109632572Y-64686571D01*
X109489715Y-64615143D01*
X109418286Y-64472286D01*
X109418286Y-63900857D01*
X109489715Y-63758000D01*
X109632572Y-63686571D01*
X109918286Y-63686571D01*
X110061143Y-63758000D01*
X110132572Y-63900857D01*
X110132572Y-64043714D01*
X109418286Y-64186571D01*
X110561143Y-63686571D02*
X111132572Y-63686571D01*
X110775429Y-63186571D02*
X110775429Y-64472286D01*
X110846857Y-64615143D01*
X110989715Y-64686571D01*
X111132572Y-64686571D01*
X126290000Y-109192143D02*
X126504286Y-109263571D01*
X126861429Y-109263571D01*
X127004286Y-109192143D01*
X127075715Y-109120714D01*
X127147143Y-108977857D01*
X127147143Y-108835000D01*
X127075715Y-108692143D01*
X127004286Y-108620714D01*
X126861429Y-108549286D01*
X126575715Y-108477857D01*
X126432857Y-108406429D01*
X126361429Y-108335000D01*
X126290000Y-108192143D01*
X126290000Y-108049286D01*
X126361429Y-107906429D01*
X126432857Y-107835000D01*
X126575715Y-107763571D01*
X126932857Y-107763571D01*
X127147143Y-107835000D01*
X127575714Y-108263571D02*
X128147143Y-108263571D01*
X127790000Y-107763571D02*
X127790000Y-109049286D01*
X127861428Y-109192143D01*
X128004286Y-109263571D01*
X128147143Y-109263571D01*
X129290000Y-109263571D02*
X129290000Y-108477857D01*
X129218571Y-108335000D01*
X129075714Y-108263571D01*
X128790000Y-108263571D01*
X128647143Y-108335000D01*
X129290000Y-109192143D02*
X129147143Y-109263571D01*
X128790000Y-109263571D01*
X128647143Y-109192143D01*
X128575714Y-109049286D01*
X128575714Y-108906429D01*
X128647143Y-108763571D01*
X128790000Y-108692143D01*
X129147143Y-108692143D01*
X129290000Y-108620714D01*
X129790000Y-108263571D02*
X130361429Y-108263571D01*
X130004286Y-107763571D02*
X130004286Y-109049286D01*
X130075714Y-109192143D01*
X130218572Y-109263571D01*
X130361429Y-109263571D01*
X131504286Y-108263571D02*
X131504286Y-109263571D01*
X130861429Y-108263571D02*
X130861429Y-109049286D01*
X130932857Y-109192143D01*
X131075715Y-109263571D01*
X131290000Y-109263571D01*
X131432857Y-109192143D01*
X131504286Y-109120714D01*
X132147143Y-109192143D02*
X132290000Y-109263571D01*
X132575715Y-109263571D01*
X132718572Y-109192143D01*
X132790000Y-109049286D01*
X132790000Y-108977857D01*
X132718572Y-108835000D01*
X132575715Y-108763571D01*
X132361429Y-108763571D01*
X132218572Y-108692143D01*
X132147143Y-108549286D01*
X132147143Y-108477857D01*
X132218572Y-108335000D01*
X132361429Y-108263571D01*
X132575715Y-108263571D01*
X132718572Y-108335000D01*
X113713143Y-73402000D02*
X114427429Y-73402000D01*
X113570286Y-73830571D02*
X114070286Y-72330571D01*
X114570286Y-73830571D01*
X115070286Y-72830571D02*
X115070286Y-73830571D01*
X115070286Y-72973429D02*
X115141714Y-72902000D01*
X115284572Y-72830571D01*
X115498857Y-72830571D01*
X115641714Y-72902000D01*
X115713143Y-73044857D01*
X115713143Y-73830571D01*
X116213143Y-72830571D02*
X116784572Y-72830571D01*
X116427429Y-72330571D02*
X116427429Y-73616286D01*
X116498857Y-73759143D01*
X116641715Y-73830571D01*
X116784572Y-73830571D01*
X117856000Y-73759143D02*
X117713143Y-73830571D01*
X117427429Y-73830571D01*
X117284572Y-73759143D01*
X117213143Y-73616286D01*
X117213143Y-73044857D01*
X117284572Y-72902000D01*
X117427429Y-72830571D01*
X117713143Y-72830571D01*
X117856000Y-72902000D01*
X117927429Y-73044857D01*
X117927429Y-73187714D01*
X117213143Y-73330571D01*
X118570286Y-72830571D02*
X118570286Y-73830571D01*
X118570286Y-72973429D02*
X118641714Y-72902000D01*
X118784572Y-72830571D01*
X118998857Y-72830571D01*
X119141714Y-72902000D01*
X119213143Y-73044857D01*
X119213143Y-73830571D01*
X119927429Y-72830571D02*
X119927429Y-73830571D01*
X119927429Y-72973429D02*
X119998857Y-72902000D01*
X120141715Y-72830571D01*
X120356000Y-72830571D01*
X120498857Y-72902000D01*
X120570286Y-73044857D01*
X120570286Y-73830571D01*
X121927429Y-73830571D02*
X121927429Y-73044857D01*
X121856000Y-72902000D01*
X121713143Y-72830571D01*
X121427429Y-72830571D01*
X121284572Y-72902000D01*
X121927429Y-73759143D02*
X121784572Y-73830571D01*
X121427429Y-73830571D01*
X121284572Y-73759143D01*
X121213143Y-73616286D01*
X121213143Y-73473429D01*
X121284572Y-73330571D01*
X121427429Y-73259143D01*
X121784572Y-73259143D01*
X121927429Y-73187714D01*
D12*
X187285000Y-85125000D02*
X189905000Y-85125000D01*
X189905000Y-85125000D02*
X189905000Y-78705000D01*
X189905000Y-78705000D02*
X187285000Y-78705000D01*
X187285000Y-78705000D02*
X187285000Y-85125000D01*
X188595000Y-86015000D02*
X188595000Y-85125000D01*
X188595000Y-77815000D02*
X188595000Y-78705000D01*
D13*
X210575000Y-90305000D02*
X209305000Y-90305000D01*
X210575000Y-97655000D02*
X209305000Y-97655000D01*
X198365000Y-97655000D02*
X199635000Y-97655000D01*
X198365000Y-90305000D02*
X199635000Y-90305000D01*
X210575000Y-90305000D02*
X210575000Y-97655000D01*
X198365000Y-90305000D02*
X198365000Y-97655000D01*
X209305000Y-90305000D02*
X209305000Y-89370000D01*
D12*
X222290000Y-74895000D02*
X219670000Y-74895000D01*
X219670000Y-74895000D02*
X219670000Y-81315000D01*
X219670000Y-81315000D02*
X222290000Y-81315000D01*
X222290000Y-81315000D02*
X222290000Y-74895000D01*
X220980000Y-74005000D02*
X220980000Y-74895000D01*
X220980000Y-82205000D02*
X220980000Y-81315000D01*
D13*
X204743010Y-79727305D02*
G75*
G03X204040000Y-80215000I996990J-2187695D01*
G01*
X204743010Y-84102695D02*
G75*
G02X204040000Y-83615000I996990J2187695D01*
G01*
X204040000Y-80215000D02*
X204040000Y-83615000D01*
X206733127Y-79730121D02*
G75*
G02X208140000Y-81915000I-993127J-2184879D01*
G01*
X206733127Y-84099879D02*
G75*
G03X208140000Y-81915000I-993127J2184879D01*
G01*
X105164000Y-96862000D02*
X106164000Y-96862000D01*
X106164000Y-95162000D02*
X105164000Y-95162000D01*
X105164000Y-94830000D02*
X106164000Y-94830000D01*
X106164000Y-93130000D02*
X105164000Y-93130000D01*
D12*
X220625000Y-105565000D02*
G75*
G03X220625000Y-105565000I-4090000J0D01*
G01*
X220585000Y-105565000D02*
X212485000Y-105565000D01*
X220585000Y-105605000D02*
X212485000Y-105605000D01*
X220585000Y-105645000D02*
X212485000Y-105645000D01*
X220584000Y-105685000D02*
X212486000Y-105685000D01*
X220582000Y-105725000D02*
X212488000Y-105725000D01*
X220581000Y-105765000D02*
X212489000Y-105765000D01*
X220578000Y-105805000D02*
X212492000Y-105805000D01*
X220576000Y-105845000D02*
X212494000Y-105845000D01*
X220573000Y-105885000D02*
X212497000Y-105885000D01*
X220570000Y-105925000D02*
X212500000Y-105925000D01*
X220566000Y-105965000D02*
X212504000Y-105965000D01*
X220562000Y-106005000D02*
X212508000Y-106005000D01*
X220557000Y-106045000D02*
X212513000Y-106045000D01*
X220552000Y-106085000D02*
X212518000Y-106085000D01*
X220547000Y-106125000D02*
X212523000Y-106125000D01*
X220541000Y-106165000D02*
X212529000Y-106165000D01*
X220535000Y-106205000D02*
X212535000Y-106205000D01*
X220529000Y-106245000D02*
X212541000Y-106245000D01*
X220522000Y-106286000D02*
X212548000Y-106286000D01*
X220514000Y-106326000D02*
X212556000Y-106326000D01*
X220506000Y-106366000D02*
X217515000Y-106366000D01*
X215555000Y-106366000D02*
X212564000Y-106366000D01*
X220498000Y-106406000D02*
X217515000Y-106406000D01*
X215555000Y-106406000D02*
X212572000Y-106406000D01*
X220490000Y-106446000D02*
X217515000Y-106446000D01*
X215555000Y-106446000D02*
X212580000Y-106446000D01*
X220481000Y-106486000D02*
X217515000Y-106486000D01*
X215555000Y-106486000D02*
X212589000Y-106486000D01*
X220471000Y-106526000D02*
X217515000Y-106526000D01*
X215555000Y-106526000D02*
X212599000Y-106526000D01*
X220461000Y-106566000D02*
X217515000Y-106566000D01*
X215555000Y-106566000D02*
X212609000Y-106566000D01*
X220451000Y-106606000D02*
X217515000Y-106606000D01*
X215555000Y-106606000D02*
X212619000Y-106606000D01*
X220440000Y-106646000D02*
X217515000Y-106646000D01*
X215555000Y-106646000D02*
X212630000Y-106646000D01*
X220429000Y-106686000D02*
X217515000Y-106686000D01*
X215555000Y-106686000D02*
X212641000Y-106686000D01*
X220418000Y-106726000D02*
X217515000Y-106726000D01*
X215555000Y-106726000D02*
X212652000Y-106726000D01*
X220405000Y-106766000D02*
X217515000Y-106766000D01*
X215555000Y-106766000D02*
X212665000Y-106766000D01*
X220393000Y-106806000D02*
X217515000Y-106806000D01*
X215555000Y-106806000D02*
X212677000Y-106806000D01*
X220380000Y-106846000D02*
X217515000Y-106846000D01*
X215555000Y-106846000D02*
X212690000Y-106846000D01*
X220367000Y-106886000D02*
X217515000Y-106886000D01*
X215555000Y-106886000D02*
X212703000Y-106886000D01*
X220353000Y-106926000D02*
X217515000Y-106926000D01*
X215555000Y-106926000D02*
X212717000Y-106926000D01*
X220338000Y-106966000D02*
X217515000Y-106966000D01*
X215555000Y-106966000D02*
X212732000Y-106966000D01*
X220324000Y-107006000D02*
X217515000Y-107006000D01*
X215555000Y-107006000D02*
X212746000Y-107006000D01*
X220308000Y-107046000D02*
X217515000Y-107046000D01*
X215555000Y-107046000D02*
X212762000Y-107046000D01*
X220293000Y-107086000D02*
X217515000Y-107086000D01*
X215555000Y-107086000D02*
X212777000Y-107086000D01*
X220276000Y-107126000D02*
X217515000Y-107126000D01*
X215555000Y-107126000D02*
X212794000Y-107126000D01*
X220260000Y-107166000D02*
X217515000Y-107166000D01*
X215555000Y-107166000D02*
X212810000Y-107166000D01*
X220242000Y-107206000D02*
X217515000Y-107206000D01*
X215555000Y-107206000D02*
X212828000Y-107206000D01*
X220225000Y-107246000D02*
X217515000Y-107246000D01*
X215555000Y-107246000D02*
X212845000Y-107246000D01*
X220206000Y-107286000D02*
X217515000Y-107286000D01*
X215555000Y-107286000D02*
X212864000Y-107286000D01*
X220187000Y-107326000D02*
X217515000Y-107326000D01*
X215555000Y-107326000D02*
X212883000Y-107326000D01*
X220168000Y-107366000D02*
X217515000Y-107366000D01*
X215555000Y-107366000D02*
X212902000Y-107366000D01*
X220148000Y-107406000D02*
X217515000Y-107406000D01*
X215555000Y-107406000D02*
X212922000Y-107406000D01*
X220128000Y-107446000D02*
X217515000Y-107446000D01*
X215555000Y-107446000D02*
X212942000Y-107446000D01*
X220107000Y-107486000D02*
X217515000Y-107486000D01*
X215555000Y-107486000D02*
X212963000Y-107486000D01*
X220085000Y-107526000D02*
X217515000Y-107526000D01*
X215555000Y-107526000D02*
X212985000Y-107526000D01*
X220063000Y-107566000D02*
X217515000Y-107566000D01*
X215555000Y-107566000D02*
X213007000Y-107566000D01*
X220040000Y-107606000D02*
X217515000Y-107606000D01*
X215555000Y-107606000D02*
X213030000Y-107606000D01*
X220017000Y-107646000D02*
X217515000Y-107646000D01*
X215555000Y-107646000D02*
X213053000Y-107646000D01*
X219993000Y-107686000D02*
X217515000Y-107686000D01*
X215555000Y-107686000D02*
X213077000Y-107686000D01*
X219969000Y-107726000D02*
X217515000Y-107726000D01*
X215555000Y-107726000D02*
X213101000Y-107726000D01*
X219943000Y-107766000D02*
X217515000Y-107766000D01*
X215555000Y-107766000D02*
X213127000Y-107766000D01*
X219918000Y-107806000D02*
X217515000Y-107806000D01*
X215555000Y-107806000D02*
X213152000Y-107806000D01*
X219891000Y-107846000D02*
X217515000Y-107846000D01*
X215555000Y-107846000D02*
X213179000Y-107846000D01*
X219864000Y-107886000D02*
X217515000Y-107886000D01*
X215555000Y-107886000D02*
X213206000Y-107886000D01*
X219836000Y-107926000D02*
X217515000Y-107926000D01*
X215555000Y-107926000D02*
X213234000Y-107926000D01*
X219807000Y-107966000D02*
X217515000Y-107966000D01*
X215555000Y-107966000D02*
X213263000Y-107966000D01*
X219778000Y-108006000D02*
X217515000Y-108006000D01*
X215555000Y-108006000D02*
X213292000Y-108006000D01*
X219748000Y-108046000D02*
X217515000Y-108046000D01*
X215555000Y-108046000D02*
X213322000Y-108046000D01*
X219717000Y-108086000D02*
X217515000Y-108086000D01*
X215555000Y-108086000D02*
X213353000Y-108086000D01*
X219685000Y-108126000D02*
X217515000Y-108126000D01*
X215555000Y-108126000D02*
X213385000Y-108126000D01*
X219653000Y-108166000D02*
X217515000Y-108166000D01*
X215555000Y-108166000D02*
X213417000Y-108166000D01*
X219619000Y-108206000D02*
X217515000Y-108206000D01*
X215555000Y-108206000D02*
X213451000Y-108206000D01*
X219585000Y-108246000D02*
X217515000Y-108246000D01*
X215555000Y-108246000D02*
X213485000Y-108246000D01*
X219550000Y-108286000D02*
X217515000Y-108286000D01*
X215555000Y-108286000D02*
X213520000Y-108286000D01*
X219514000Y-108326000D02*
X213556000Y-108326000D01*
X219477000Y-108366000D02*
X213593000Y-108366000D01*
X219439000Y-108406000D02*
X213631000Y-108406000D01*
X219400000Y-108446000D02*
X213670000Y-108446000D01*
X219359000Y-108486000D02*
X213711000Y-108486000D01*
X219318000Y-108526000D02*
X213752000Y-108526000D01*
X219275000Y-108566000D02*
X213795000Y-108566000D01*
X219232000Y-108606000D02*
X213838000Y-108606000D01*
X219187000Y-108646000D02*
X213883000Y-108646000D01*
X219140000Y-108686000D02*
X213930000Y-108686000D01*
X219092000Y-108726000D02*
X213978000Y-108726000D01*
X219043000Y-108766000D02*
X214027000Y-108766000D01*
X218992000Y-108806000D02*
X214078000Y-108806000D01*
X218939000Y-108846000D02*
X214131000Y-108846000D01*
X218884000Y-108886000D02*
X214186000Y-108886000D01*
X218828000Y-108926000D02*
X214242000Y-108926000D01*
X218769000Y-108966000D02*
X214301000Y-108966000D01*
X218708000Y-109006000D02*
X214362000Y-109006000D01*
X218644000Y-109046000D02*
X214426000Y-109046000D01*
X218578000Y-109086000D02*
X214492000Y-109086000D01*
X218509000Y-109126000D02*
X214561000Y-109126000D01*
X218437000Y-109166000D02*
X214633000Y-109166000D01*
X218361000Y-109206000D02*
X214709000Y-109206000D01*
X218280000Y-109246000D02*
X214790000Y-109246000D01*
X218195000Y-109286000D02*
X214875000Y-109286000D01*
X218105000Y-109326000D02*
X214965000Y-109326000D01*
X218008000Y-109366000D02*
X215062000Y-109366000D01*
X217904000Y-109406000D02*
X215166000Y-109406000D01*
X217789000Y-109446000D02*
X215281000Y-109446000D01*
X217662000Y-109486000D02*
X215408000Y-109486000D01*
X217518000Y-109526000D02*
X215552000Y-109526000D01*
X217349000Y-109566000D02*
X215721000Y-109566000D01*
X217133000Y-109606000D02*
X215937000Y-109606000D01*
X216781000Y-109646000D02*
X216289000Y-109646000D01*
X216535000Y-101615000D02*
X216535000Y-102815000D01*
X217185000Y-102215000D02*
X215885000Y-102215000D01*
X203256000Y-101644000D02*
X200136000Y-101644000D01*
X203256000Y-99524000D02*
X200136000Y-99524000D01*
X203256000Y-101644000D02*
X203256000Y-101580000D01*
X203256000Y-99588000D02*
X203256000Y-99524000D01*
X200136000Y-101644000D02*
X200136000Y-101580000D01*
X200136000Y-99588000D02*
X200136000Y-99524000D01*
X196640000Y-97520000D02*
X196640000Y-100640000D01*
X194520000Y-97520000D02*
X194520000Y-100640000D01*
X196640000Y-97520000D02*
X196576000Y-97520000D01*
X194584000Y-97520000D02*
X194520000Y-97520000D01*
X196640000Y-100640000D02*
X196576000Y-100640000D01*
X194584000Y-100640000D02*
X194520000Y-100640000D01*
X215055000Y-76045000D02*
X212935000Y-76045000D01*
X212935000Y-76045000D02*
X212935000Y-80165000D01*
X212935000Y-80165000D02*
X215055000Y-80165000D01*
X215055000Y-80165000D02*
X215055000Y-76045000D01*
X213995000Y-74005000D02*
X213995000Y-76045000D01*
X213995000Y-82205000D02*
X213995000Y-80165000D01*
X215055000Y-76705000D02*
X212935000Y-76705000D01*
X146320000Y-85610000D02*
X149520000Y-85610000D01*
X149520000Y-87110000D02*
X146320000Y-87110000D01*
X149520000Y-87110000D02*
X149520000Y-85610000D01*
X128540000Y-105295000D02*
X131740000Y-105295000D01*
X131740000Y-106795000D02*
X128540000Y-106795000D01*
X131740000Y-106795000D02*
X131740000Y-105295000D01*
X223480000Y-81400000D02*
X233720000Y-81400000D01*
X223480000Y-65510000D02*
X233720000Y-65510000D01*
X223480000Y-65510000D02*
X223480000Y-81400000D01*
X233720000Y-65510000D02*
X233720000Y-81400000D01*
X226060000Y-81400000D02*
X226060000Y-84040000D01*
X228600000Y-81400000D02*
X228600000Y-84024000D01*
X231140000Y-81400000D02*
X231140000Y-84024000D01*
X231100000Y-96555000D02*
X233720000Y-96555000D01*
X233720000Y-96555000D02*
X233720000Y-90135000D01*
X233720000Y-90135000D02*
X231100000Y-90135000D01*
X231100000Y-90135000D02*
X231100000Y-96555000D01*
X232410000Y-97445000D02*
X232410000Y-96555000D01*
X232410000Y-89245000D02*
X232410000Y-90135000D01*
X172045000Y-102905000D02*
X174665000Y-102905000D01*
X174665000Y-102905000D02*
X174665000Y-96485000D01*
X174665000Y-96485000D02*
X172045000Y-96485000D01*
X172045000Y-96485000D02*
X172045000Y-102905000D01*
X173355000Y-103795000D02*
X173355000Y-102905000D01*
X173355000Y-95595000D02*
X173355000Y-96485000D01*
X212130000Y-74895000D02*
X209510000Y-74895000D01*
X209510000Y-74895000D02*
X209510000Y-81315000D01*
X209510000Y-81315000D02*
X212130000Y-81315000D01*
X212130000Y-81315000D02*
X212130000Y-74895000D01*
X210820000Y-74005000D02*
X210820000Y-74895000D01*
X210820000Y-82205000D02*
X210820000Y-81315000D01*
X186095000Y-96485000D02*
X183475000Y-96485000D01*
X183475000Y-96485000D02*
X183475000Y-102905000D01*
X183475000Y-102905000D02*
X186095000Y-102905000D01*
X186095000Y-102905000D02*
X186095000Y-96485000D01*
X184785000Y-95595000D02*
X184785000Y-96485000D01*
X184785000Y-103795000D02*
X184785000Y-102905000D01*
X142840000Y-87240000D02*
X141640000Y-87240000D01*
X141640000Y-85480000D02*
X142840000Y-85480000D01*
X99095000Y-68970000D02*
X100295000Y-68970000D01*
X100295000Y-70730000D02*
X99095000Y-70730000D01*
X106772000Y-84700000D02*
X105572000Y-84700000D01*
X105572000Y-82940000D02*
X106772000Y-82940000D01*
X102905000Y-101355000D02*
X104105000Y-101355000D01*
X104105000Y-103115000D02*
X102905000Y-103115000D01*
X128940000Y-68970000D02*
X130140000Y-68970000D01*
X130140000Y-70730000D02*
X128940000Y-70730000D01*
X128940000Y-102625000D02*
X130140000Y-102625000D01*
X130140000Y-104385000D02*
X128940000Y-104385000D01*
X160255000Y-95245000D02*
X158995000Y-95245000D01*
X153435000Y-95245000D02*
X154695000Y-95245000D01*
X160255000Y-99005000D02*
X160255000Y-95245000D01*
X153435000Y-101255000D02*
X153435000Y-95245000D01*
D14*
X109952000Y-94743000D02*
X109952000Y-95505000D01*
X109952000Y-95505000D02*
X125954000Y-95505000D01*
X125954000Y-95505000D02*
X125954000Y-94743000D01*
D12*
X143110000Y-95245000D02*
X141850000Y-95245000D01*
X136290000Y-95245000D02*
X137550000Y-95245000D01*
X143110000Y-99005000D02*
X143110000Y-95245000D01*
X136290000Y-101255000D02*
X136290000Y-95245000D01*
X96446000Y-64978000D02*
X96446000Y-65208000D01*
X95926000Y-61308000D02*
X103646000Y-61308000D01*
X103646000Y-61308000D02*
X103646000Y-65208000D01*
X95926000Y-68318000D02*
X96446000Y-68318000D01*
X95926000Y-61308000D02*
X95926000Y-65208000D01*
X103126000Y-64978000D02*
X103126000Y-65208000D01*
X96446000Y-67808000D02*
X96446000Y-68318000D01*
X95926000Y-67808000D02*
X95926000Y-68318000D01*
X102586000Y-64978000D02*
X103126000Y-64978000D01*
X103126000Y-67808000D02*
X103126000Y-68318000D01*
X103126000Y-68318000D02*
X103646000Y-68318000D01*
X103646000Y-67808000D02*
X103646000Y-68318000D01*
X96446000Y-64978000D02*
X96986000Y-64978000D01*
X98086000Y-64978000D02*
X101486000Y-64978000D01*
X126144000Y-65005000D02*
X126144000Y-65235000D01*
X125624000Y-61335000D02*
X133344000Y-61335000D01*
X133344000Y-61335000D02*
X133344000Y-65235000D01*
X125624000Y-68345000D02*
X126144000Y-68345000D01*
X125624000Y-61335000D02*
X125624000Y-65235000D01*
X132824000Y-65005000D02*
X132824000Y-65235000D01*
X126144000Y-67835000D02*
X126144000Y-68345000D01*
X125624000Y-67835000D02*
X125624000Y-68345000D01*
X132284000Y-65005000D02*
X132824000Y-65005000D01*
X132824000Y-67835000D02*
X132824000Y-68345000D01*
X132824000Y-68345000D02*
X133344000Y-68345000D01*
X133344000Y-67835000D02*
X133344000Y-68345000D01*
X126144000Y-65005000D02*
X126684000Y-65005000D01*
X127784000Y-65005000D02*
X131184000Y-65005000D01*
X160110000Y-104555000D02*
X154610000Y-104555000D01*
X160110000Y-102455000D02*
X154610000Y-102455000D01*
X160110000Y-104555000D02*
X160110000Y-102455000D01*
X158990000Y-91820000D02*
X153190000Y-91820000D01*
X158990000Y-88520000D02*
X153190000Y-88520000D01*
X158990000Y-91820000D02*
X158990000Y-88520000D01*
X143600000Y-104555000D02*
X138100000Y-104555000D01*
X143600000Y-102455000D02*
X138100000Y-102455000D01*
X143600000Y-104555000D02*
X143600000Y-102455000D01*
X142480000Y-91820000D02*
X136680000Y-91820000D01*
X142480000Y-88520000D02*
X136680000Y-88520000D01*
X142480000Y-91820000D02*
X142480000Y-88520000D01*
X206410000Y-105450000D02*
X206410000Y-102830000D01*
X206410000Y-102830000D02*
X199990000Y-102830000D01*
X199990000Y-102830000D02*
X199990000Y-105450000D01*
X199990000Y-105450000D02*
X206410000Y-105450000D01*
X207300000Y-104140000D02*
X206410000Y-104140000D01*
X199100000Y-104140000D02*
X199990000Y-104140000D01*
X186095000Y-83150000D02*
X183475000Y-83150000D01*
X183475000Y-83150000D02*
X183475000Y-89570000D01*
X183475000Y-89570000D02*
X186095000Y-89570000D01*
X186095000Y-89570000D02*
X186095000Y-83150000D01*
X184785000Y-82260000D02*
X184785000Y-83150000D01*
X184785000Y-90460000D02*
X184785000Y-89570000D01*
X166696000Y-64784000D02*
X157896000Y-64784000D01*
X157896000Y-68584000D02*
X157896000Y-60884000D01*
X157896000Y-60884000D02*
X166696000Y-60884000D01*
X166696000Y-60884000D02*
X166696000Y-61084000D01*
X159746000Y-74484000D02*
X157896000Y-74484000D01*
X157896000Y-74484000D02*
X157896000Y-73634000D01*
X166696000Y-60984000D02*
X166696000Y-74484000D01*
X166696000Y-74484000D02*
X164846000Y-74484000D01*
X137862000Y-75268000D02*
X145602000Y-75268000D01*
X145602000Y-75268000D02*
X145602000Y-72608000D01*
X145602000Y-72608000D02*
X137862000Y-72608000D01*
X137862000Y-72608000D02*
X137862000Y-75268000D01*
X138812000Y-72608000D02*
X138812000Y-66608000D01*
X138812000Y-66608000D02*
X139572000Y-66608000D01*
X139572000Y-66608000D02*
X139572000Y-72608000D01*
X138872000Y-72608000D02*
X138872000Y-66608000D01*
X138992000Y-72608000D02*
X138992000Y-66608000D01*
X139112000Y-72608000D02*
X139112000Y-66608000D01*
X139232000Y-72608000D02*
X139232000Y-66608000D01*
X139352000Y-72608000D02*
X139352000Y-66608000D01*
X139472000Y-72608000D02*
X139472000Y-66608000D01*
X138812000Y-75598000D02*
X138812000Y-75268000D01*
X139572000Y-75598000D02*
X139572000Y-75268000D01*
X140462000Y-75268000D02*
X140462000Y-72608000D01*
X141352000Y-72608000D02*
X141352000Y-66608000D01*
X141352000Y-66608000D02*
X142112000Y-66608000D01*
X142112000Y-66608000D02*
X142112000Y-72608000D01*
X141352000Y-75665071D02*
X141352000Y-75268000D01*
X142112000Y-75665071D02*
X142112000Y-75268000D01*
X143002000Y-75268000D02*
X143002000Y-72608000D01*
X143892000Y-72608000D02*
X143892000Y-66608000D01*
X143892000Y-66608000D02*
X144652000Y-66608000D01*
X144652000Y-66608000D02*
X144652000Y-72608000D01*
X143892000Y-75665071D02*
X143892000Y-75268000D01*
X144652000Y-75665071D02*
X144652000Y-75268000D01*
X139192000Y-77978000D02*
X137922000Y-77978000D01*
X137922000Y-77978000D02*
X137922000Y-76708000D01*
X86044740Y-80961180D02*
X86044740Y-93721180D01*
X86044740Y-93721180D02*
X88704740Y-93721180D01*
X88704740Y-93721180D02*
X88704740Y-80961180D01*
X88704740Y-80961180D02*
X86044740Y-80961180D01*
X86044740Y-79691180D02*
X86044740Y-78361180D01*
X86044740Y-78361180D02*
X87374740Y-78361180D01*
X99480000Y-79510000D02*
X99480000Y-80510000D01*
X101180000Y-80510000D02*
X101180000Y-79510000D01*
D13*
X93645000Y-83043000D02*
X93645000Y-83393000D01*
X99395000Y-83043000D02*
X99395000Y-83493000D01*
X99395000Y-90693000D02*
X99395000Y-90243000D01*
X93645000Y-90693000D02*
X93645000Y-90243000D01*
X93645000Y-83043000D02*
X99395000Y-83043000D01*
X93645000Y-90693000D02*
X99395000Y-90693000D01*
X93645000Y-83393000D02*
X92045000Y-83393000D01*
D12*
X208225000Y-76095000D02*
X208225000Y-72495000D01*
X207497795Y-76619184D02*
G75*
G03X208225000Y-76095000I-1122795J2324184D01*
G01*
X205276193Y-76651400D02*
G75*
G02X203775000Y-74295000I1098807J2356400D01*
G01*
X205276193Y-71938600D02*
G75*
G03X203775000Y-74295000I1098807J-2356400D01*
G01*
X207497795Y-71970816D02*
G75*
G02X208225000Y-72495000I-1122795J-2324184D01*
G01*
X188015000Y-90275000D02*
X188015000Y-93875000D01*
X188742205Y-89750816D02*
G75*
G03X188015000Y-90275000I1122795J-2324184D01*
G01*
X190963807Y-89718600D02*
G75*
G02X192465000Y-92075000I-1098807J-2356400D01*
G01*
X190963807Y-94431400D02*
G75*
G03X192465000Y-92075000I-1098807J2356400D01*
G01*
X188742205Y-94399184D02*
G75*
G02X188015000Y-93875000I1122795J2324184D01*
G01*
X168235000Y-102905000D02*
X170855000Y-102905000D01*
X170855000Y-102905000D02*
X170855000Y-96485000D01*
X170855000Y-96485000D02*
X168235000Y-96485000D01*
X168235000Y-96485000D02*
X168235000Y-102905000D01*
X169545000Y-103795000D02*
X169545000Y-102905000D01*
X169545000Y-95595000D02*
X169545000Y-96485000D01*
X179665000Y-102905000D02*
X182285000Y-102905000D01*
X182285000Y-102905000D02*
X182285000Y-96485000D01*
X182285000Y-96485000D02*
X179665000Y-96485000D01*
X179665000Y-96485000D02*
X179665000Y-102905000D01*
X180975000Y-103795000D02*
X180975000Y-102905000D01*
X180975000Y-95595000D02*
X180975000Y-96485000D01*
X175855000Y-102905000D02*
X178475000Y-102905000D01*
X178475000Y-102905000D02*
X178475000Y-96485000D01*
X178475000Y-96485000D02*
X175855000Y-96485000D01*
X175855000Y-96485000D02*
X175855000Y-102905000D01*
X177165000Y-103795000D02*
X177165000Y-102905000D01*
X177165000Y-95595000D02*
X177165000Y-96485000D01*
X238704740Y-86041180D02*
X238704740Y-83441180D01*
X238704740Y-83441180D02*
X236044740Y-83441180D01*
X236044740Y-83441180D02*
X236044740Y-86041180D01*
X236044740Y-86041180D02*
X238704740Y-86041180D01*
X238704740Y-87311180D02*
X238704740Y-88641180D01*
X238704740Y-88641180D02*
X237374740Y-88641180D01*
X196160000Y-70380000D02*
X196160000Y-66780000D01*
X196148478Y-70418478D02*
G75*
G02X191710000Y-68580000I-1838478J1838478D01*
G01*
X196148478Y-66741522D02*
G75*
G03X191710000Y-68580000I-1838478J-1838478D01*
G01*
X212690000Y-64095000D02*
X212690000Y-66715000D01*
X212690000Y-66715000D02*
X219110000Y-66715000D01*
X219110000Y-66715000D02*
X219110000Y-64095000D01*
X219110000Y-64095000D02*
X212690000Y-64095000D01*
X211800000Y-65405000D02*
X212690000Y-65405000D01*
X220000000Y-65405000D02*
X219110000Y-65405000D01*
X183071392Y-71352665D02*
G75*
G03X182914484Y-74585000I1078608J-1672335D01*
G01*
X185228608Y-71352665D02*
G75*
G02X185385516Y-74585000I-1078608J-1672335D01*
G01*
X183070163Y-71983870D02*
G75*
G03X183070000Y-74065961I1079837J-1041130D01*
G01*
X185229837Y-71983870D02*
G75*
G02X185230000Y-74065961I-1079837J-1041130D01*
G01*
X182914000Y-74585000D02*
X183070000Y-74585000D01*
X185230000Y-74585000D02*
X185386000Y-74585000D01*
X187285000Y-72425000D02*
X189905000Y-72425000D01*
X189905000Y-72425000D02*
X189905000Y-66005000D01*
X189905000Y-66005000D02*
X187285000Y-66005000D01*
X187285000Y-66005000D02*
X187285000Y-72425000D01*
X188595000Y-73315000D02*
X188595000Y-72425000D01*
X188595000Y-65115000D02*
X188595000Y-66005000D01*
X113630000Y-98670000D02*
X112430000Y-98670000D01*
X112430000Y-96910000D02*
X113630000Y-96910000D01*
X120405000Y-99660000D02*
X120405000Y-98460000D01*
X122165000Y-98460000D02*
X122165000Y-99660000D01*
X112130000Y-102575000D02*
X113930000Y-102575000D01*
X113930000Y-99355000D02*
X110980000Y-99355000D01*
X100365000Y-100608000D02*
X100365000Y-103295000D01*
X93945000Y-100608000D02*
X93945000Y-103295000D01*
X100365000Y-103295000D02*
X93945000Y-103295000D01*
X98650000Y-99674000D02*
X95659000Y-99674000D01*
X98215000Y-99674000D02*
X98215000Y-103295000D01*
X96095000Y-99674000D02*
X96095000Y-103295000D01*
X98215000Y-99674000D02*
X96095000Y-99674000D01*
X98215000Y-103295000D02*
X96095000Y-103295000D01*
X116625000Y-98560000D02*
X116625000Y-99560000D01*
X118325000Y-99560000D02*
X118325000Y-98560000D01*
X191095000Y-85125000D02*
X193715000Y-85125000D01*
X193715000Y-85125000D02*
X193715000Y-78705000D01*
X193715000Y-78705000D02*
X191095000Y-78705000D01*
X191095000Y-78705000D02*
X191095000Y-85125000D01*
X192405000Y-86015000D02*
X192405000Y-85125000D01*
X192405000Y-77815000D02*
X192405000Y-78705000D01*
X190514824Y-104480158D02*
G75*
G02X188205000Y-104460000I-1154824J20158D01*
G01*
X188206043Y-104480774D02*
G75*
G02X189520000Y-103317000I1153957J20774D01*
G01*
X187960000Y-105850000D02*
X193030000Y-105850000D01*
X193030000Y-105850000D02*
X193030000Y-104860000D01*
X193030000Y-104860000D02*
X192650000Y-104860000D01*
X192650000Y-104860000D02*
X192650000Y-97070000D01*
X192650000Y-97070000D02*
X193030000Y-97070000D01*
X193030000Y-97070000D02*
X193030000Y-96080000D01*
X193030000Y-96080000D02*
X187960000Y-96080000D01*
X187960000Y-96080000D02*
X187960000Y-105850000D01*
X190094000Y-105336000D02*
X188484000Y-103725000D01*
X190235000Y-105196000D02*
X189543000Y-104503000D01*
X189502000Y-104463000D02*
X188625000Y-103584000D01*
X189720000Y-106090000D02*
X187720000Y-106090000D01*
X187720000Y-106090000D02*
X187720000Y-104090000D01*
X202240000Y-85515000D02*
X199120000Y-85515000D01*
X202240000Y-83395000D02*
X199120000Y-83395000D01*
X202240000Y-85515000D02*
X202240000Y-85451000D01*
X202240000Y-83459000D02*
X202240000Y-83395000D01*
X199120000Y-85515000D02*
X199120000Y-85451000D01*
X199120000Y-83459000D02*
X199120000Y-83395000D01*
X203145000Y-73555000D02*
X203145000Y-69955000D01*
X203133478Y-73593478D02*
G75*
G02X198695000Y-71755000I-1838478J1838478D01*
G01*
X203133478Y-69916522D02*
G75*
G03X198695000Y-71755000I-1838478J-1838478D01*
G01*
X212690000Y-67905000D02*
X212690000Y-70525000D01*
X212690000Y-70525000D02*
X219110000Y-70525000D01*
X219110000Y-70525000D02*
X219110000Y-67905000D01*
X219110000Y-67905000D02*
X212690000Y-67905000D01*
X211800000Y-69215000D02*
X212690000Y-69215000D01*
X220000000Y-69215000D02*
X219110000Y-69215000D01*
X194905000Y-85125000D02*
X197525000Y-85125000D01*
X197525000Y-85125000D02*
X197525000Y-78705000D01*
X197525000Y-78705000D02*
X194905000Y-78705000D01*
X194905000Y-78705000D02*
X194905000Y-85125000D01*
X196215000Y-86015000D02*
X196215000Y-85125000D01*
X196215000Y-77815000D02*
X196215000Y-78705000D01*
X182285000Y-83150000D02*
X179665000Y-83150000D01*
X179665000Y-83150000D02*
X179665000Y-89570000D01*
X179665000Y-89570000D02*
X182285000Y-89570000D01*
X182285000Y-89570000D02*
X182285000Y-83150000D01*
X180975000Y-82260000D02*
X180975000Y-83150000D01*
X180975000Y-90460000D02*
X180975000Y-89570000D01*
X202200000Y-68370000D02*
X199080000Y-68370000D01*
X202200000Y-66250000D02*
X199080000Y-66250000D01*
X202200000Y-68370000D02*
X202200000Y-68306000D01*
X202200000Y-66314000D02*
X202200000Y-66250000D01*
X199080000Y-68370000D02*
X199080000Y-68306000D01*
X199080000Y-66314000D02*
X199080000Y-66250000D01*
X202410000Y-86570000D02*
X202410000Y-88690000D01*
X202410000Y-88690000D02*
X206530000Y-88690000D01*
X206530000Y-88690000D02*
X206530000Y-86570000D01*
X206530000Y-86570000D02*
X202410000Y-86570000D01*
X200370000Y-87630000D02*
X202410000Y-87630000D01*
X208570000Y-87630000D02*
X206530000Y-87630000D01*
X203070000Y-86570000D02*
X203070000Y-88690000D01*
X193095000Y-90275000D02*
X193095000Y-93875000D01*
X193822205Y-89750816D02*
G75*
G03X193095000Y-90275000I1122795J-2324184D01*
G01*
X196043807Y-89718600D02*
G75*
G02X197545000Y-92075000I-1098807J-2356400D01*
G01*
X196043807Y-94431400D02*
G75*
G03X197545000Y-92075000I-1098807J2356400D01*
G01*
X193822205Y-94399184D02*
G75*
G02X193095000Y-93875000I1122795J2324184D01*
G01*
X203145000Y-80540000D02*
X203145000Y-76940000D01*
X202417795Y-81064184D02*
G75*
G03X203145000Y-80540000I-1122795J2324184D01*
G01*
X200196193Y-81096400D02*
G75*
G02X198695000Y-78740000I1098807J2356400D01*
G01*
X200196193Y-76383600D02*
G75*
G03X198695000Y-78740000I1098807J-2356400D01*
G01*
X202417795Y-76415816D02*
G75*
G02X203145000Y-76940000I-1122795J-2324184D01*
G01*
X165800000Y-82555000D02*
X165800000Y-78735000D01*
X165800000Y-78735000D02*
X156780000Y-78735000D01*
X156780000Y-78735000D02*
X156780000Y-82555000D01*
X156780000Y-82555000D02*
X165800000Y-82555000D01*
X166060000Y-80645000D02*
X165800000Y-80645000D01*
X156520000Y-80645000D02*
X156780000Y-80645000D01*
X164405000Y-82555000D02*
X164405000Y-78735000D01*
X215760000Y-80765000D02*
X218580000Y-80765000D01*
X218580000Y-80765000D02*
X218580000Y-75445000D01*
X218580000Y-75445000D02*
X215760000Y-75445000D01*
X215760000Y-75445000D02*
X215760000Y-80765000D01*
X217170000Y-81905000D02*
X217170000Y-80765000D01*
X217170000Y-74305000D02*
X217170000Y-75445000D01*
X215760000Y-79925000D02*
X218580000Y-79925000D01*
X224145000Y-91750000D02*
G75*
G03X224145000Y-91750000I-6340000J0D01*
G01*
X231420000Y-105255000D02*
G75*
G03X231420000Y-105255000I-4090000J0D01*
G01*
X231380000Y-105255000D02*
X223280000Y-105255000D01*
X231380000Y-105295000D02*
X223280000Y-105295000D01*
X231380000Y-105335000D02*
X223280000Y-105335000D01*
X231379000Y-105375000D02*
X223281000Y-105375000D01*
X231377000Y-105415000D02*
X223283000Y-105415000D01*
X231376000Y-105455000D02*
X223284000Y-105455000D01*
X231373000Y-105495000D02*
X223287000Y-105495000D01*
X231371000Y-105535000D02*
X223289000Y-105535000D01*
X231368000Y-105575000D02*
X223292000Y-105575000D01*
X231365000Y-105615000D02*
X223295000Y-105615000D01*
X231361000Y-105655000D02*
X223299000Y-105655000D01*
X231357000Y-105695000D02*
X223303000Y-105695000D01*
X231352000Y-105735000D02*
X223308000Y-105735000D01*
X231347000Y-105775000D02*
X223313000Y-105775000D01*
X231342000Y-105815000D02*
X223318000Y-105815000D01*
X231336000Y-105855000D02*
X223324000Y-105855000D01*
X231330000Y-105895000D02*
X223330000Y-105895000D01*
X231324000Y-105935000D02*
X223336000Y-105935000D01*
X231317000Y-105976000D02*
X223343000Y-105976000D01*
X231309000Y-106016000D02*
X223351000Y-106016000D01*
X231301000Y-106056000D02*
X228310000Y-106056000D01*
X226350000Y-106056000D02*
X223359000Y-106056000D01*
X231293000Y-106096000D02*
X228310000Y-106096000D01*
X226350000Y-106096000D02*
X223367000Y-106096000D01*
X231285000Y-106136000D02*
X228310000Y-106136000D01*
X226350000Y-106136000D02*
X223375000Y-106136000D01*
X231276000Y-106176000D02*
X228310000Y-106176000D01*
X226350000Y-106176000D02*
X223384000Y-106176000D01*
X231266000Y-106216000D02*
X228310000Y-106216000D01*
X226350000Y-106216000D02*
X223394000Y-106216000D01*
X231256000Y-106256000D02*
X228310000Y-106256000D01*
X226350000Y-106256000D02*
X223404000Y-106256000D01*
X231246000Y-106296000D02*
X228310000Y-106296000D01*
X226350000Y-106296000D02*
X223414000Y-106296000D01*
X231235000Y-106336000D02*
X228310000Y-106336000D01*
X226350000Y-106336000D02*
X223425000Y-106336000D01*
X231224000Y-106376000D02*
X228310000Y-106376000D01*
X226350000Y-106376000D02*
X223436000Y-106376000D01*
X231213000Y-106416000D02*
X228310000Y-106416000D01*
X226350000Y-106416000D02*
X223447000Y-106416000D01*
X231200000Y-106456000D02*
X228310000Y-106456000D01*
X226350000Y-106456000D02*
X223460000Y-106456000D01*
X231188000Y-106496000D02*
X228310000Y-106496000D01*
X226350000Y-106496000D02*
X223472000Y-106496000D01*
X231175000Y-106536000D02*
X228310000Y-106536000D01*
X226350000Y-106536000D02*
X223485000Y-106536000D01*
X231162000Y-106576000D02*
X228310000Y-106576000D01*
X226350000Y-106576000D02*
X223498000Y-106576000D01*
X231148000Y-106616000D02*
X228310000Y-106616000D01*
X226350000Y-106616000D02*
X223512000Y-106616000D01*
X231133000Y-106656000D02*
X228310000Y-106656000D01*
X226350000Y-106656000D02*
X223527000Y-106656000D01*
X231119000Y-106696000D02*
X228310000Y-106696000D01*
X226350000Y-106696000D02*
X223541000Y-106696000D01*
X231103000Y-106736000D02*
X228310000Y-106736000D01*
X226350000Y-106736000D02*
X223557000Y-106736000D01*
X231088000Y-106776000D02*
X228310000Y-106776000D01*
X226350000Y-106776000D02*
X223572000Y-106776000D01*
X231071000Y-106816000D02*
X228310000Y-106816000D01*
X226350000Y-106816000D02*
X223589000Y-106816000D01*
X231055000Y-106856000D02*
X228310000Y-106856000D01*
X226350000Y-106856000D02*
X223605000Y-106856000D01*
X231037000Y-106896000D02*
X228310000Y-106896000D01*
X226350000Y-106896000D02*
X223623000Y-106896000D01*
X231020000Y-106936000D02*
X228310000Y-106936000D01*
X226350000Y-106936000D02*
X223640000Y-106936000D01*
X231001000Y-106976000D02*
X228310000Y-106976000D01*
X226350000Y-106976000D02*
X223659000Y-106976000D01*
X230982000Y-107016000D02*
X228310000Y-107016000D01*
X226350000Y-107016000D02*
X223678000Y-107016000D01*
X230963000Y-107056000D02*
X228310000Y-107056000D01*
X226350000Y-107056000D02*
X223697000Y-107056000D01*
X230943000Y-107096000D02*
X228310000Y-107096000D01*
X226350000Y-107096000D02*
X223717000Y-107096000D01*
X230923000Y-107136000D02*
X228310000Y-107136000D01*
X226350000Y-107136000D02*
X223737000Y-107136000D01*
X230902000Y-107176000D02*
X228310000Y-107176000D01*
X226350000Y-107176000D02*
X223758000Y-107176000D01*
X230880000Y-107216000D02*
X228310000Y-107216000D01*
X226350000Y-107216000D02*
X223780000Y-107216000D01*
X230858000Y-107256000D02*
X228310000Y-107256000D01*
X226350000Y-107256000D02*
X223802000Y-107256000D01*
X230835000Y-107296000D02*
X228310000Y-107296000D01*
X226350000Y-107296000D02*
X223825000Y-107296000D01*
X230812000Y-107336000D02*
X228310000Y-107336000D01*
X226350000Y-107336000D02*
X223848000Y-107336000D01*
X230788000Y-107376000D02*
X228310000Y-107376000D01*
X226350000Y-107376000D02*
X223872000Y-107376000D01*
X230764000Y-107416000D02*
X228310000Y-107416000D01*
X226350000Y-107416000D02*
X223896000Y-107416000D01*
X230738000Y-107456000D02*
X228310000Y-107456000D01*
X226350000Y-107456000D02*
X223922000Y-107456000D01*
X230713000Y-107496000D02*
X228310000Y-107496000D01*
X226350000Y-107496000D02*
X223947000Y-107496000D01*
X230686000Y-107536000D02*
X228310000Y-107536000D01*
X226350000Y-107536000D02*
X223974000Y-107536000D01*
X230659000Y-107576000D02*
X228310000Y-107576000D01*
X226350000Y-107576000D02*
X224001000Y-107576000D01*
X230631000Y-107616000D02*
X228310000Y-107616000D01*
X226350000Y-107616000D02*
X224029000Y-107616000D01*
X230602000Y-107656000D02*
X228310000Y-107656000D01*
X226350000Y-107656000D02*
X224058000Y-107656000D01*
X230573000Y-107696000D02*
X228310000Y-107696000D01*
X226350000Y-107696000D02*
X224087000Y-107696000D01*
X230543000Y-107736000D02*
X228310000Y-107736000D01*
X226350000Y-107736000D02*
X224117000Y-107736000D01*
X230512000Y-107776000D02*
X228310000Y-107776000D01*
X226350000Y-107776000D02*
X224148000Y-107776000D01*
X230480000Y-107816000D02*
X228310000Y-107816000D01*
X226350000Y-107816000D02*
X224180000Y-107816000D01*
X230448000Y-107856000D02*
X228310000Y-107856000D01*
X226350000Y-107856000D02*
X224212000Y-107856000D01*
X230414000Y-107896000D02*
X228310000Y-107896000D01*
X226350000Y-107896000D02*
X224246000Y-107896000D01*
X230380000Y-107936000D02*
X228310000Y-107936000D01*
X226350000Y-107936000D02*
X224280000Y-107936000D01*
X230345000Y-107976000D02*
X228310000Y-107976000D01*
X226350000Y-107976000D02*
X224315000Y-107976000D01*
X230309000Y-108016000D02*
X224351000Y-108016000D01*
X230272000Y-108056000D02*
X224388000Y-108056000D01*
X230234000Y-108096000D02*
X224426000Y-108096000D01*
X230195000Y-108136000D02*
X224465000Y-108136000D01*
X230154000Y-108176000D02*
X224506000Y-108176000D01*
X230113000Y-108216000D02*
X224547000Y-108216000D01*
X230070000Y-108256000D02*
X224590000Y-108256000D01*
X230027000Y-108296000D02*
X224633000Y-108296000D01*
X229982000Y-108336000D02*
X224678000Y-108336000D01*
X229935000Y-108376000D02*
X224725000Y-108376000D01*
X229887000Y-108416000D02*
X224773000Y-108416000D01*
X229838000Y-108456000D02*
X224822000Y-108456000D01*
X229787000Y-108496000D02*
X224873000Y-108496000D01*
X229734000Y-108536000D02*
X224926000Y-108536000D01*
X229679000Y-108576000D02*
X224981000Y-108576000D01*
X229623000Y-108616000D02*
X225037000Y-108616000D01*
X229564000Y-108656000D02*
X225096000Y-108656000D01*
X229503000Y-108696000D02*
X225157000Y-108696000D01*
X229439000Y-108736000D02*
X225221000Y-108736000D01*
X229373000Y-108776000D02*
X225287000Y-108776000D01*
X229304000Y-108816000D02*
X225356000Y-108816000D01*
X229232000Y-108856000D02*
X225428000Y-108856000D01*
X229156000Y-108896000D02*
X225504000Y-108896000D01*
X229075000Y-108936000D02*
X225585000Y-108936000D01*
X228990000Y-108976000D02*
X225670000Y-108976000D01*
X228900000Y-109016000D02*
X225760000Y-109016000D01*
X228803000Y-109056000D02*
X225857000Y-109056000D01*
X228699000Y-109096000D02*
X225961000Y-109096000D01*
X228584000Y-109136000D02*
X226076000Y-109136000D01*
X228457000Y-109176000D02*
X226203000Y-109176000D01*
X228313000Y-109216000D02*
X226347000Y-109216000D01*
X228144000Y-109256000D02*
X226516000Y-109256000D01*
X227928000Y-109296000D02*
X226732000Y-109296000D01*
X227576000Y-109336000D02*
X227084000Y-109336000D01*
X227330000Y-101305000D02*
X227330000Y-102505000D01*
X227980000Y-101905000D02*
X226680000Y-101905000D01*
X225950000Y-97205000D02*
X225470000Y-97205000D01*
X225470000Y-97205000D02*
X225470000Y-89485000D01*
X225470000Y-89485000D02*
X225950000Y-89485000D01*
X228710000Y-97205000D02*
X229190000Y-97205000D01*
X229190000Y-97205000D02*
X229190000Y-89485000D01*
X229190000Y-89485000D02*
X228710000Y-89485000D01*
X225470000Y-96005000D02*
X229190000Y-96005000D01*
D15*
X176286160Y-71795640D02*
X177485040Y-68696840D01*
X177485040Y-68696840D02*
X176885600Y-69095620D01*
X175884840Y-69796660D02*
X177185320Y-66995040D01*
X176286160Y-71795640D02*
X176885600Y-71097140D01*
X176684940Y-66796920D02*
X175884840Y-69796660D01*
X175884840Y-69796660D02*
X177083720Y-68996560D01*
X177083720Y-68996560D02*
X176286160Y-71795640D01*
X176286160Y-71795640D02*
X176184560Y-70896480D01*
X176784000Y-65405000D02*
X181483000Y-72390000D01*
X181483000Y-72390000D02*
X172085000Y-72390000D01*
X172085000Y-72390000D02*
X176784000Y-65405000D01*
D13*
X189047381Y-82430857D02*
X188571190Y-82764191D01*
X189047381Y-83002286D02*
X188047381Y-83002286D01*
X188047381Y-82621333D01*
X188095000Y-82526095D01*
X188142619Y-82478476D01*
X188237857Y-82430857D01*
X188380714Y-82430857D01*
X188475952Y-82478476D01*
X188523571Y-82526095D01*
X188571190Y-82621333D01*
X188571190Y-83002286D01*
X189047381Y-81478476D02*
X189047381Y-82049905D01*
X189047381Y-81764191D02*
X188047381Y-81764191D01*
X188190238Y-81859429D01*
X188285476Y-81954667D01*
X188333095Y-82049905D01*
X188142619Y-81097524D02*
X188095000Y-81049905D01*
X188047381Y-80954667D01*
X188047381Y-80716571D01*
X188095000Y-80621333D01*
X188142619Y-80573714D01*
X188237857Y-80526095D01*
X188333095Y-80526095D01*
X188475952Y-80573714D01*
X189047381Y-81145143D01*
X189047381Y-80526095D01*
X211979496Y-97471505D02*
X210979496Y-97471505D01*
X211884258Y-96423886D02*
X211931877Y-96471505D01*
X211979496Y-96614362D01*
X211979496Y-96709600D01*
X211931877Y-96852458D01*
X211836639Y-96947696D01*
X211741401Y-96995315D01*
X211550925Y-97042934D01*
X211408067Y-97042934D01*
X211217591Y-96995315D01*
X211122353Y-96947696D01*
X211027115Y-96852458D01*
X210979496Y-96709600D01*
X210979496Y-96614362D01*
X211027115Y-96471505D01*
X211074734Y-96423886D01*
X211979496Y-95471505D02*
X211979496Y-96042934D01*
X211979496Y-95757220D02*
X210979496Y-95757220D01*
X211122353Y-95852458D01*
X211217591Y-95947696D01*
X211265210Y-96042934D01*
X221432381Y-78493857D02*
X220956190Y-78827191D01*
X221432381Y-79065286D02*
X220432381Y-79065286D01*
X220432381Y-78684333D01*
X220480000Y-78589095D01*
X220527619Y-78541476D01*
X220622857Y-78493857D01*
X220765714Y-78493857D01*
X220860952Y-78541476D01*
X220908571Y-78589095D01*
X220956190Y-78684333D01*
X220956190Y-79065286D01*
X221432381Y-77541476D02*
X221432381Y-78112905D01*
X221432381Y-77827191D02*
X220432381Y-77827191D01*
X220575238Y-77922429D01*
X220670476Y-78017667D01*
X220718095Y-78112905D01*
X220432381Y-77208143D02*
X220432381Y-76541476D01*
X221432381Y-76970048D01*
X208827619Y-84931238D02*
X208780000Y-85026476D01*
X208684762Y-85121714D01*
X208541905Y-85264571D01*
X208494286Y-85359810D01*
X208494286Y-85455048D01*
X208732381Y-85407429D02*
X208684762Y-85502667D01*
X208589524Y-85597905D01*
X208399048Y-85645524D01*
X208065714Y-85645524D01*
X207875238Y-85597905D01*
X207780000Y-85502667D01*
X207732381Y-85407429D01*
X207732381Y-85216952D01*
X207780000Y-85121714D01*
X207875238Y-85026476D01*
X208065714Y-84978857D01*
X208399048Y-84978857D01*
X208589524Y-85026476D01*
X208684762Y-85121714D01*
X208732381Y-85216952D01*
X208732381Y-85407429D01*
X207827619Y-84597905D02*
X207780000Y-84550286D01*
X207732381Y-84455048D01*
X207732381Y-84216952D01*
X207780000Y-84121714D01*
X207827619Y-84074095D01*
X207922857Y-84026476D01*
X208018095Y-84026476D01*
X208160952Y-84074095D01*
X208732381Y-84645524D01*
X208732381Y-84026476D01*
X101941334Y-96369143D02*
X101893715Y-96416762D01*
X101750858Y-96464381D01*
X101655620Y-96464381D01*
X101512762Y-96416762D01*
X101417524Y-96321524D01*
X101369905Y-96226286D01*
X101322286Y-96035810D01*
X101322286Y-95892952D01*
X101369905Y-95702476D01*
X101417524Y-95607238D01*
X101512762Y-95512000D01*
X101655620Y-95464381D01*
X101750858Y-95464381D01*
X101893715Y-95512000D01*
X101941334Y-95559619D01*
X102417524Y-96464381D02*
X102608000Y-96464381D01*
X102703239Y-96416762D01*
X102750858Y-96369143D01*
X102846096Y-96226286D01*
X102893715Y-96035810D01*
X102893715Y-95654857D01*
X102846096Y-95559619D01*
X102798477Y-95512000D01*
X102703239Y-95464381D01*
X102512762Y-95464381D01*
X102417524Y-95512000D01*
X102369905Y-95559619D01*
X102322286Y-95654857D01*
X102322286Y-95892952D01*
X102369905Y-95988190D01*
X102417524Y-96035810D01*
X102512762Y-96083429D01*
X102703239Y-96083429D01*
X102798477Y-96035810D01*
X102846096Y-95988190D01*
X102893715Y-95892952D01*
X100957143Y-94337143D02*
X100909524Y-94384762D01*
X100766667Y-94432381D01*
X100671429Y-94432381D01*
X100528571Y-94384762D01*
X100433333Y-94289524D01*
X100385714Y-94194286D01*
X100338095Y-94003810D01*
X100338095Y-93860952D01*
X100385714Y-93670476D01*
X100433333Y-93575238D01*
X100528571Y-93480000D01*
X100671429Y-93432381D01*
X100766667Y-93432381D01*
X100909524Y-93480000D01*
X100957143Y-93527619D01*
X101909524Y-94432381D02*
X101338095Y-94432381D01*
X101623809Y-94432381D02*
X101623809Y-93432381D01*
X101528571Y-93575238D01*
X101433333Y-93670476D01*
X101338095Y-93718095D01*
X102528571Y-93432381D02*
X102623810Y-93432381D01*
X102719048Y-93480000D01*
X102766667Y-93527619D01*
X102814286Y-93622857D01*
X102861905Y-93813333D01*
X102861905Y-94051429D01*
X102814286Y-94241905D01*
X102766667Y-94337143D01*
X102719048Y-94384762D01*
X102623810Y-94432381D01*
X102528571Y-94432381D01*
X102433333Y-94384762D01*
X102385714Y-94337143D01*
X102338095Y-94241905D01*
X102290476Y-94051429D01*
X102290476Y-93813333D01*
X102338095Y-93622857D01*
X102385714Y-93527619D01*
X102433333Y-93480000D01*
X102528571Y-93432381D01*
X221845143Y-103925666D02*
X221892762Y-103973285D01*
X221940381Y-104116142D01*
X221940381Y-104211380D01*
X221892762Y-104354238D01*
X221797524Y-104449476D01*
X221702286Y-104497095D01*
X221511810Y-104544714D01*
X221368952Y-104544714D01*
X221178476Y-104497095D01*
X221083238Y-104449476D01*
X220988000Y-104354238D01*
X220940381Y-104211380D01*
X220940381Y-104116142D01*
X220988000Y-103973285D01*
X221035619Y-103925666D01*
X221940381Y-102973285D02*
X221940381Y-103544714D01*
X221940381Y-103259000D02*
X220940381Y-103259000D01*
X221083238Y-103354238D01*
X221178476Y-103449476D01*
X221226095Y-103544714D01*
X205065334Y-100941143D02*
X205017715Y-100988762D01*
X204874858Y-101036381D01*
X204779620Y-101036381D01*
X204636762Y-100988762D01*
X204541524Y-100893524D01*
X204493905Y-100798286D01*
X204446286Y-100607810D01*
X204446286Y-100464952D01*
X204493905Y-100274476D01*
X204541524Y-100179238D01*
X204636762Y-100084000D01*
X204779620Y-100036381D01*
X204874858Y-100036381D01*
X205017715Y-100084000D01*
X205065334Y-100131619D01*
X205398667Y-100036381D02*
X206017715Y-100036381D01*
X205684381Y-100417333D01*
X205827239Y-100417333D01*
X205922477Y-100464952D01*
X205970096Y-100512571D01*
X206017715Y-100607810D01*
X206017715Y-100845905D01*
X205970096Y-100941143D01*
X205922477Y-100988762D01*
X205827239Y-101036381D01*
X205541524Y-101036381D01*
X205446286Y-100988762D01*
X205398667Y-100941143D01*
X197842143Y-99226666D02*
X197889762Y-99274285D01*
X197937381Y-99417142D01*
X197937381Y-99512380D01*
X197889762Y-99655238D01*
X197794524Y-99750476D01*
X197699286Y-99798095D01*
X197508810Y-99845714D01*
X197365952Y-99845714D01*
X197175476Y-99798095D01*
X197080238Y-99750476D01*
X196985000Y-99655238D01*
X196937381Y-99512380D01*
X196937381Y-99417142D01*
X196985000Y-99274285D01*
X197032619Y-99226666D01*
X196937381Y-98321904D02*
X196937381Y-98798095D01*
X197413571Y-98845714D01*
X197365952Y-98798095D01*
X197318333Y-98702857D01*
X197318333Y-98464761D01*
X197365952Y-98369523D01*
X197413571Y-98321904D01*
X197508810Y-98274285D01*
X197746905Y-98274285D01*
X197842143Y-98321904D01*
X197889762Y-98369523D01*
X197937381Y-98464761D01*
X197937381Y-98702857D01*
X197889762Y-98798095D01*
X197842143Y-98845714D01*
X214449921Y-78843095D02*
X213449921Y-78843095D01*
X213449921Y-78605000D01*
X213497540Y-78462142D01*
X213592778Y-78366904D01*
X213688016Y-78319285D01*
X213878492Y-78271666D01*
X214021350Y-78271666D01*
X214211826Y-78319285D01*
X214307064Y-78366904D01*
X214402302Y-78462142D01*
X214449921Y-78605000D01*
X214449921Y-78843095D01*
X213545159Y-77890714D02*
X213497540Y-77843095D01*
X213449921Y-77747857D01*
X213449921Y-77509761D01*
X213497540Y-77414523D01*
X213545159Y-77366904D01*
X213640397Y-77319285D01*
X213735635Y-77319285D01*
X213878492Y-77366904D01*
X214449921Y-77938333D01*
X214449921Y-77319285D01*
X146581905Y-84907381D02*
X146581905Y-83907381D01*
X146820000Y-83907381D01*
X146962858Y-83955000D01*
X147058096Y-84050238D01*
X147105715Y-84145476D01*
X147153334Y-84335952D01*
X147153334Y-84478810D01*
X147105715Y-84669286D01*
X147058096Y-84764524D01*
X146962858Y-84859762D01*
X146820000Y-84907381D01*
X146581905Y-84907381D01*
X147486667Y-83907381D02*
X148105715Y-83907381D01*
X147772381Y-84288333D01*
X147915239Y-84288333D01*
X148010477Y-84335952D01*
X148058096Y-84383571D01*
X148105715Y-84478810D01*
X148105715Y-84716905D01*
X148058096Y-84812143D01*
X148010477Y-84859762D01*
X147915239Y-84907381D01*
X147629524Y-84907381D01*
X147534286Y-84859762D01*
X147486667Y-84812143D01*
X132611905Y-106497381D02*
X132611905Y-105497381D01*
X132850000Y-105497381D01*
X132992858Y-105545000D01*
X133088096Y-105640238D01*
X133135715Y-105735476D01*
X133183334Y-105925952D01*
X133183334Y-106068810D01*
X133135715Y-106259286D01*
X133088096Y-106354524D01*
X132992858Y-106449762D01*
X132850000Y-106497381D01*
X132611905Y-106497381D01*
X134040477Y-105830714D02*
X134040477Y-106497381D01*
X133802381Y-105449762D02*
X133564286Y-106164048D01*
X134183334Y-106164048D01*
X228504762Y-65057619D02*
X228409524Y-65010000D01*
X228314286Y-64914762D01*
X228171429Y-64771905D01*
X228076190Y-64724286D01*
X227980952Y-64724286D01*
X228028571Y-64962381D02*
X227933333Y-64914762D01*
X227838095Y-64819524D01*
X227790476Y-64629048D01*
X227790476Y-64295714D01*
X227838095Y-64105238D01*
X227933333Y-64010000D01*
X228028571Y-63962381D01*
X228219048Y-63962381D01*
X228314286Y-64010000D01*
X228409524Y-64105238D01*
X228457143Y-64295714D01*
X228457143Y-64629048D01*
X228409524Y-64819524D01*
X228314286Y-64914762D01*
X228219048Y-64962381D01*
X228028571Y-64962381D01*
X229409524Y-64962381D02*
X228838095Y-64962381D01*
X229123809Y-64962381D02*
X229123809Y-63962381D01*
X229028571Y-64105238D01*
X228933333Y-64200476D01*
X228838095Y-64248095D01*
X232862381Y-93638666D02*
X232386190Y-93972000D01*
X232862381Y-94210095D02*
X231862381Y-94210095D01*
X231862381Y-93829142D01*
X231910000Y-93733904D01*
X231957619Y-93686285D01*
X232052857Y-93638666D01*
X232195714Y-93638666D01*
X232290952Y-93686285D01*
X232338571Y-93733904D01*
X232386190Y-93829142D01*
X232386190Y-94210095D01*
X232862381Y-92686285D02*
X232862381Y-93257714D01*
X232862381Y-92972000D02*
X231862381Y-92972000D01*
X232005238Y-93067238D01*
X232100476Y-93162476D01*
X232148095Y-93257714D01*
X173807381Y-99861666D02*
X173331190Y-100195000D01*
X173807381Y-100433095D02*
X172807381Y-100433095D01*
X172807381Y-100052142D01*
X172855000Y-99956904D01*
X172902619Y-99909285D01*
X172997857Y-99861666D01*
X173140714Y-99861666D01*
X173235952Y-99909285D01*
X173283571Y-99956904D01*
X173331190Y-100052142D01*
X173331190Y-100433095D01*
X172902619Y-99480714D02*
X172855000Y-99433095D01*
X172807381Y-99337857D01*
X172807381Y-99099761D01*
X172855000Y-99004523D01*
X172902619Y-98956904D01*
X172997857Y-98909285D01*
X173093095Y-98909285D01*
X173235952Y-98956904D01*
X173807381Y-99528333D01*
X173807381Y-98909285D01*
X211272381Y-78271666D02*
X210796190Y-78605000D01*
X211272381Y-78843095D02*
X210272381Y-78843095D01*
X210272381Y-78462142D01*
X210320000Y-78366904D01*
X210367619Y-78319285D01*
X210462857Y-78271666D01*
X210605714Y-78271666D01*
X210700952Y-78319285D01*
X210748571Y-78366904D01*
X210796190Y-78462142D01*
X210796190Y-78843095D01*
X210272381Y-77938333D02*
X210272381Y-77319285D01*
X210653333Y-77652619D01*
X210653333Y-77509761D01*
X210700952Y-77414523D01*
X210748571Y-77366904D01*
X210843810Y-77319285D01*
X211081905Y-77319285D01*
X211177143Y-77366904D01*
X211224762Y-77414523D01*
X211272381Y-77509761D01*
X211272381Y-77795476D01*
X211224762Y-77890714D01*
X211177143Y-77938333D01*
X185237381Y-99734666D02*
X184761190Y-100068000D01*
X185237381Y-100306095D02*
X184237381Y-100306095D01*
X184237381Y-99925142D01*
X184285000Y-99829904D01*
X184332619Y-99782285D01*
X184427857Y-99734666D01*
X184570714Y-99734666D01*
X184665952Y-99782285D01*
X184713571Y-99829904D01*
X184761190Y-99925142D01*
X184761190Y-100306095D01*
X184570714Y-98877523D02*
X185237381Y-98877523D01*
X184189762Y-99115619D02*
X184904048Y-99353714D01*
X184904048Y-98734666D01*
X142073334Y-84907381D02*
X141740000Y-84431190D01*
X141501905Y-84907381D02*
X141501905Y-83907381D01*
X141882858Y-83907381D01*
X141978096Y-83955000D01*
X142025715Y-84002619D01*
X142073334Y-84097857D01*
X142073334Y-84240714D01*
X142025715Y-84335952D01*
X141978096Y-84383571D01*
X141882858Y-84431190D01*
X141501905Y-84431190D01*
X142978096Y-83907381D02*
X142501905Y-83907381D01*
X142454286Y-84383571D01*
X142501905Y-84335952D01*
X142597143Y-84288333D01*
X142835239Y-84288333D01*
X142930477Y-84335952D01*
X142978096Y-84383571D01*
X143025715Y-84478810D01*
X143025715Y-84716905D01*
X142978096Y-84812143D01*
X142930477Y-84859762D01*
X142835239Y-84907381D01*
X142597143Y-84907381D01*
X142501905Y-84859762D01*
X142454286Y-84812143D01*
X99528334Y-72207381D02*
X99195000Y-71731190D01*
X98956905Y-72207381D02*
X98956905Y-71207381D01*
X99337858Y-71207381D01*
X99433096Y-71255000D01*
X99480715Y-71302619D01*
X99528334Y-71397857D01*
X99528334Y-71540714D01*
X99480715Y-71635952D01*
X99433096Y-71683571D01*
X99337858Y-71731190D01*
X98956905Y-71731190D01*
X100385477Y-71207381D02*
X100195000Y-71207381D01*
X100099762Y-71255000D01*
X100052143Y-71302619D01*
X99956905Y-71445476D01*
X99909286Y-71635952D01*
X99909286Y-72016905D01*
X99956905Y-72112143D01*
X100004524Y-72159762D01*
X100099762Y-72207381D01*
X100290239Y-72207381D01*
X100385477Y-72159762D01*
X100433096Y-72112143D01*
X100480715Y-72016905D01*
X100480715Y-71778810D01*
X100433096Y-71683571D01*
X100385477Y-71635952D01*
X100290239Y-71588333D01*
X100099762Y-71588333D01*
X100004524Y-71635952D01*
X99956905Y-71683571D01*
X99909286Y-71778810D01*
X106005334Y-82572381D02*
X105672000Y-82096190D01*
X105433905Y-82572381D02*
X105433905Y-81572381D01*
X105814858Y-81572381D01*
X105910096Y-81620000D01*
X105957715Y-81667619D01*
X106005334Y-81762857D01*
X106005334Y-81905714D01*
X105957715Y-82000952D01*
X105910096Y-82048571D01*
X105814858Y-82096190D01*
X105433905Y-82096190D01*
X106338667Y-81572381D02*
X107005334Y-81572381D01*
X106576762Y-82572381D01*
X103338334Y-100782381D02*
X103005000Y-100306190D01*
X102766905Y-100782381D02*
X102766905Y-99782381D01*
X103147858Y-99782381D01*
X103243096Y-99830000D01*
X103290715Y-99877619D01*
X103338334Y-99972857D01*
X103338334Y-100115714D01*
X103290715Y-100210952D01*
X103243096Y-100258571D01*
X103147858Y-100306190D01*
X102766905Y-100306190D01*
X103909762Y-100210952D02*
X103814524Y-100163333D01*
X103766905Y-100115714D01*
X103719286Y-100020476D01*
X103719286Y-99972857D01*
X103766905Y-99877619D01*
X103814524Y-99830000D01*
X103909762Y-99782381D01*
X104100239Y-99782381D01*
X104195477Y-99830000D01*
X104243096Y-99877619D01*
X104290715Y-99972857D01*
X104290715Y-100020476D01*
X104243096Y-100115714D01*
X104195477Y-100163333D01*
X104100239Y-100210952D01*
X103909762Y-100210952D01*
X103814524Y-100258571D01*
X103766905Y-100306190D01*
X103719286Y-100401429D01*
X103719286Y-100591905D01*
X103766905Y-100687143D01*
X103814524Y-100734762D01*
X103909762Y-100782381D01*
X104100239Y-100782381D01*
X104195477Y-100734762D01*
X104243096Y-100687143D01*
X104290715Y-100591905D01*
X104290715Y-100401429D01*
X104243096Y-100306190D01*
X104195477Y-100258571D01*
X104100239Y-100210952D01*
X129373334Y-72002381D02*
X129040000Y-71526190D01*
X128801905Y-72002381D02*
X128801905Y-71002381D01*
X129182858Y-71002381D01*
X129278096Y-71050000D01*
X129325715Y-71097619D01*
X129373334Y-71192857D01*
X129373334Y-71335714D01*
X129325715Y-71430952D01*
X129278096Y-71478571D01*
X129182858Y-71526190D01*
X128801905Y-71526190D01*
X129849524Y-72002381D02*
X130040000Y-72002381D01*
X130135239Y-71954762D01*
X130182858Y-71907143D01*
X130278096Y-71764286D01*
X130325715Y-71573810D01*
X130325715Y-71192857D01*
X130278096Y-71097619D01*
X130230477Y-71050000D01*
X130135239Y-71002381D01*
X129944762Y-71002381D01*
X129849524Y-71050000D01*
X129801905Y-71097619D01*
X129754286Y-71192857D01*
X129754286Y-71430952D01*
X129801905Y-71526190D01*
X129849524Y-71573810D01*
X129944762Y-71621429D01*
X130135239Y-71621429D01*
X130230477Y-71573810D01*
X130278096Y-71526190D01*
X130325715Y-71430952D01*
X132707143Y-103957381D02*
X132373809Y-103481190D01*
X132135714Y-103957381D02*
X132135714Y-102957381D01*
X132516667Y-102957381D01*
X132611905Y-103005000D01*
X132659524Y-103052619D01*
X132707143Y-103147857D01*
X132707143Y-103290714D01*
X132659524Y-103385952D01*
X132611905Y-103433571D01*
X132516667Y-103481190D01*
X132135714Y-103481190D01*
X133659524Y-103957381D02*
X133088095Y-103957381D01*
X133373809Y-103957381D02*
X133373809Y-102957381D01*
X133278571Y-103100238D01*
X133183333Y-103195476D01*
X133088095Y-103243095D01*
X134278571Y-102957381D02*
X134373810Y-102957381D01*
X134469048Y-103005000D01*
X134516667Y-103052619D01*
X134564286Y-103147857D01*
X134611905Y-103338333D01*
X134611905Y-103576429D01*
X134564286Y-103766905D01*
X134516667Y-103862143D01*
X134469048Y-103909762D01*
X134373810Y-103957381D01*
X134278571Y-103957381D01*
X134183333Y-103909762D01*
X134135714Y-103862143D01*
X134088095Y-103766905D01*
X134040476Y-103576429D01*
X134040476Y-103338333D01*
X134088095Y-103147857D01*
X134135714Y-103052619D01*
X134183333Y-103005000D01*
X134278571Y-102957381D01*
X151797381Y-97916905D02*
X152606905Y-97916905D01*
X152702143Y-97869286D01*
X152749762Y-97821667D01*
X152797381Y-97726429D01*
X152797381Y-97535952D01*
X152749762Y-97440714D01*
X152702143Y-97393095D01*
X152606905Y-97345476D01*
X151797381Y-97345476D01*
X152797381Y-96345476D02*
X152797381Y-96916905D01*
X152797381Y-96631191D02*
X151797381Y-96631191D01*
X151940238Y-96726429D01*
X152035476Y-96821667D01*
X152083095Y-96916905D01*
X109093095Y-95936381D02*
X109093095Y-96745905D01*
X109140714Y-96841143D01*
X109188333Y-96888762D01*
X109283571Y-96936381D01*
X109474048Y-96936381D01*
X109569286Y-96888762D01*
X109616905Y-96841143D01*
X109664524Y-96745905D01*
X109664524Y-95936381D01*
X110093095Y-96031619D02*
X110140714Y-95984000D01*
X110235952Y-95936381D01*
X110474048Y-95936381D01*
X110569286Y-95984000D01*
X110616905Y-96031619D01*
X110664524Y-96126857D01*
X110664524Y-96222095D01*
X110616905Y-96364952D01*
X110045476Y-96936381D01*
X110664524Y-96936381D01*
X134652381Y-97916905D02*
X135461905Y-97916905D01*
X135557143Y-97869286D01*
X135604762Y-97821667D01*
X135652381Y-97726429D01*
X135652381Y-97535952D01*
X135604762Y-97440714D01*
X135557143Y-97393095D01*
X135461905Y-97345476D01*
X134652381Y-97345476D01*
X134652381Y-96964524D02*
X134652381Y-96345476D01*
X135033333Y-96678810D01*
X135033333Y-96535952D01*
X135080952Y-96440714D01*
X135128571Y-96393095D01*
X135223810Y-96345476D01*
X135461905Y-96345476D01*
X135557143Y-96393095D01*
X135604762Y-96440714D01*
X135652381Y-96535952D01*
X135652381Y-96821667D01*
X135604762Y-96916905D01*
X135557143Y-96964524D01*
X98361667Y-67714762D02*
X98504524Y-67762381D01*
X98742620Y-67762381D01*
X98837858Y-67714762D01*
X98885477Y-67667143D01*
X98933096Y-67571905D01*
X98933096Y-67476667D01*
X98885477Y-67381429D01*
X98837858Y-67333810D01*
X98742620Y-67286190D01*
X98552143Y-67238571D01*
X98456905Y-67190952D01*
X98409286Y-67143333D01*
X98361667Y-67048095D01*
X98361667Y-66952857D01*
X98409286Y-66857619D01*
X98456905Y-66810000D01*
X98552143Y-66762381D01*
X98790239Y-66762381D01*
X98933096Y-66810000D01*
X99266429Y-66762381D02*
X99504524Y-67762381D01*
X99695001Y-67048095D01*
X99885477Y-67762381D01*
X100123572Y-66762381D01*
X101028334Y-67762381D02*
X100456905Y-67762381D01*
X100742619Y-67762381D02*
X100742619Y-66762381D01*
X100647381Y-66905238D01*
X100552143Y-67000476D01*
X100456905Y-67048095D01*
X128150667Y-67714762D02*
X128293524Y-67762381D01*
X128531620Y-67762381D01*
X128626858Y-67714762D01*
X128674477Y-67667143D01*
X128722096Y-67571905D01*
X128722096Y-67476667D01*
X128674477Y-67381429D01*
X128626858Y-67333810D01*
X128531620Y-67286190D01*
X128341143Y-67238571D01*
X128245905Y-67190952D01*
X128198286Y-67143333D01*
X128150667Y-67048095D01*
X128150667Y-66952857D01*
X128198286Y-66857619D01*
X128245905Y-66810000D01*
X128341143Y-66762381D01*
X128579239Y-66762381D01*
X128722096Y-66810000D01*
X129055429Y-66762381D02*
X129293524Y-67762381D01*
X129484001Y-67048095D01*
X129674477Y-67762381D01*
X129912572Y-66762381D01*
X130245905Y-66857619D02*
X130293524Y-66810000D01*
X130388762Y-66762381D01*
X130626858Y-66762381D01*
X130722096Y-66810000D01*
X130769715Y-66857619D01*
X130817334Y-66952857D01*
X130817334Y-67048095D01*
X130769715Y-67190952D01*
X130198286Y-67762381D01*
X130817334Y-67762381D01*
X156043334Y-106412143D02*
X155995715Y-106459762D01*
X155852858Y-106507381D01*
X155757620Y-106507381D01*
X155614762Y-106459762D01*
X155519524Y-106364524D01*
X155471905Y-106269286D01*
X155424286Y-106078810D01*
X155424286Y-105935952D01*
X155471905Y-105745476D01*
X155519524Y-105650238D01*
X155614762Y-105555000D01*
X155757620Y-105507381D01*
X155852858Y-105507381D01*
X155995715Y-105555000D01*
X156043334Y-105602619D01*
X156900477Y-105507381D02*
X156710000Y-105507381D01*
X156614762Y-105555000D01*
X156567143Y-105602619D01*
X156471905Y-105745476D01*
X156424286Y-105935952D01*
X156424286Y-106316905D01*
X156471905Y-106412143D01*
X156519524Y-106459762D01*
X156614762Y-106507381D01*
X156805239Y-106507381D01*
X156900477Y-106459762D01*
X156948096Y-106412143D01*
X156995715Y-106316905D01*
X156995715Y-106078810D01*
X156948096Y-105983571D01*
X156900477Y-105935952D01*
X156805239Y-105888333D01*
X156614762Y-105888333D01*
X156519524Y-105935952D01*
X156471905Y-105983571D01*
X156424286Y-106078810D01*
X154773334Y-87733143D02*
X154725715Y-87780762D01*
X154582858Y-87828381D01*
X154487620Y-87828381D01*
X154344762Y-87780762D01*
X154249524Y-87685524D01*
X154201905Y-87590286D01*
X154154286Y-87399810D01*
X154154286Y-87256952D01*
X154201905Y-87066476D01*
X154249524Y-86971238D01*
X154344762Y-86876000D01*
X154487620Y-86828381D01*
X154582858Y-86828381D01*
X154725715Y-86876000D01*
X154773334Y-86923619D01*
X155106667Y-86828381D02*
X155773334Y-86828381D01*
X155344762Y-87828381D01*
X139533334Y-106412143D02*
X139485715Y-106459762D01*
X139342858Y-106507381D01*
X139247620Y-106507381D01*
X139104762Y-106459762D01*
X139009524Y-106364524D01*
X138961905Y-106269286D01*
X138914286Y-106078810D01*
X138914286Y-105935952D01*
X138961905Y-105745476D01*
X139009524Y-105650238D01*
X139104762Y-105555000D01*
X139247620Y-105507381D01*
X139342858Y-105507381D01*
X139485715Y-105555000D01*
X139533334Y-105602619D01*
X140104762Y-105935952D02*
X140009524Y-105888333D01*
X139961905Y-105840714D01*
X139914286Y-105745476D01*
X139914286Y-105697857D01*
X139961905Y-105602619D01*
X140009524Y-105555000D01*
X140104762Y-105507381D01*
X140295239Y-105507381D01*
X140390477Y-105555000D01*
X140438096Y-105602619D01*
X140485715Y-105697857D01*
X140485715Y-105745476D01*
X140438096Y-105840714D01*
X140390477Y-105888333D01*
X140295239Y-105935952D01*
X140104762Y-105935952D01*
X140009524Y-105983571D01*
X139961905Y-106031190D01*
X139914286Y-106126429D01*
X139914286Y-106316905D01*
X139961905Y-106412143D01*
X140009524Y-106459762D01*
X140104762Y-106507381D01*
X140295239Y-106507381D01*
X140390477Y-106459762D01*
X140438096Y-106412143D01*
X140485715Y-106316905D01*
X140485715Y-106126429D01*
X140438096Y-106031190D01*
X140390477Y-105983571D01*
X140295239Y-105935952D01*
X137787143Y-87733143D02*
X137739524Y-87780762D01*
X137596667Y-87828381D01*
X137501429Y-87828381D01*
X137358571Y-87780762D01*
X137263333Y-87685524D01*
X137215714Y-87590286D01*
X137168095Y-87399810D01*
X137168095Y-87256952D01*
X137215714Y-87066476D01*
X137263333Y-86971238D01*
X137358571Y-86876000D01*
X137501429Y-86828381D01*
X137596667Y-86828381D01*
X137739524Y-86876000D01*
X137787143Y-86923619D01*
X138739524Y-87828381D02*
X138168095Y-87828381D01*
X138453809Y-87828381D02*
X138453809Y-86828381D01*
X138358571Y-86971238D01*
X138263333Y-87066476D01*
X138168095Y-87114095D01*
X139691905Y-87828381D02*
X139120476Y-87828381D01*
X139406190Y-87828381D02*
X139406190Y-86828381D01*
X139310952Y-86971238D01*
X139215714Y-87066476D01*
X139120476Y-87114095D01*
X202557143Y-104592381D02*
X202223809Y-104116190D01*
X201985714Y-104592381D02*
X201985714Y-103592381D01*
X202366667Y-103592381D01*
X202461905Y-103640000D01*
X202509524Y-103687619D01*
X202557143Y-103782857D01*
X202557143Y-103925714D01*
X202509524Y-104020952D01*
X202461905Y-104068571D01*
X202366667Y-104116190D01*
X201985714Y-104116190D01*
X203509524Y-104592381D02*
X202938095Y-104592381D01*
X203223809Y-104592381D02*
X203223809Y-103592381D01*
X203128571Y-103735238D01*
X203033333Y-103830476D01*
X202938095Y-103878095D01*
X203842857Y-103592381D02*
X204461905Y-103592381D01*
X204128571Y-103973333D01*
X204271429Y-103973333D01*
X204366667Y-104020952D01*
X204414286Y-104068571D01*
X204461905Y-104163810D01*
X204461905Y-104401905D01*
X204414286Y-104497143D01*
X204366667Y-104544762D01*
X204271429Y-104592381D01*
X203985714Y-104592381D01*
X203890476Y-104544762D01*
X203842857Y-104497143D01*
X185237381Y-87129857D02*
X184761190Y-87463191D01*
X185237381Y-87701286D02*
X184237381Y-87701286D01*
X184237381Y-87320333D01*
X184285000Y-87225095D01*
X184332619Y-87177476D01*
X184427857Y-87129857D01*
X184570714Y-87129857D01*
X184665952Y-87177476D01*
X184713571Y-87225095D01*
X184761190Y-87320333D01*
X184761190Y-87701286D01*
X185237381Y-86177476D02*
X185237381Y-86748905D01*
X185237381Y-86463191D02*
X184237381Y-86463191D01*
X184380238Y-86558429D01*
X184475476Y-86653667D01*
X184523095Y-86748905D01*
X184570714Y-85320333D02*
X185237381Y-85320333D01*
X184189762Y-85558429D02*
X184904048Y-85796524D01*
X184904048Y-85177476D01*
X168243143Y-70308285D02*
X168290762Y-70355904D01*
X168338381Y-70498761D01*
X168338381Y-70593999D01*
X168290762Y-70736857D01*
X168195524Y-70832095D01*
X168100286Y-70879714D01*
X167909810Y-70927333D01*
X167766952Y-70927333D01*
X167576476Y-70879714D01*
X167481238Y-70832095D01*
X167386000Y-70736857D01*
X167338381Y-70593999D01*
X167338381Y-70498761D01*
X167386000Y-70355904D01*
X167433619Y-70308285D01*
X167338381Y-69689238D02*
X167338381Y-69498761D01*
X167386000Y-69403523D01*
X167481238Y-69308285D01*
X167671714Y-69260666D01*
X168005048Y-69260666D01*
X168195524Y-69308285D01*
X168290762Y-69403523D01*
X168338381Y-69498761D01*
X168338381Y-69689238D01*
X168290762Y-69784476D01*
X168195524Y-69879714D01*
X168005048Y-69927333D01*
X167671714Y-69927333D01*
X167481238Y-69879714D01*
X167386000Y-69784476D01*
X167338381Y-69689238D01*
X168338381Y-68832095D02*
X167338381Y-68832095D01*
X168338381Y-68260666D01*
X167338381Y-68260666D01*
X168338381Y-67260666D02*
X168338381Y-67832095D01*
X168338381Y-67546381D02*
X167338381Y-67546381D01*
X167481238Y-67641619D01*
X167576476Y-67736857D01*
X167624095Y-67832095D01*
X136374381Y-72656333D02*
X137088667Y-72656333D01*
X137231524Y-72703953D01*
X137326762Y-72799191D01*
X137374381Y-72942048D01*
X137374381Y-73037286D01*
X137374381Y-71656333D02*
X137374381Y-72227762D01*
X137374381Y-71942048D02*
X136374381Y-71942048D01*
X136517238Y-72037286D01*
X136612476Y-72132524D01*
X136660095Y-72227762D01*
X87041407Y-76813561D02*
X87041407Y-77527847D01*
X86993787Y-77670704D01*
X86898549Y-77765942D01*
X86755692Y-77813561D01*
X86660454Y-77813561D01*
X87469978Y-76908799D02*
X87517597Y-76861180D01*
X87612835Y-76813561D01*
X87850931Y-76813561D01*
X87946169Y-76861180D01*
X87993788Y-76908799D01*
X88041407Y-77004037D01*
X88041407Y-77099275D01*
X87993788Y-77242132D01*
X87422359Y-77813561D01*
X88041407Y-77813561D01*
X102592143Y-80652857D02*
X102639762Y-80700476D01*
X102687381Y-80843333D01*
X102687381Y-80938571D01*
X102639762Y-81081429D01*
X102544524Y-81176667D01*
X102449286Y-81224286D01*
X102258810Y-81271905D01*
X102115952Y-81271905D01*
X101925476Y-81224286D01*
X101830238Y-81176667D01*
X101735000Y-81081429D01*
X101687381Y-80938571D01*
X101687381Y-80843333D01*
X101735000Y-80700476D01*
X101782619Y-80652857D01*
X102687381Y-79700476D02*
X102687381Y-80271905D01*
X102687381Y-79986191D02*
X101687381Y-79986191D01*
X101830238Y-80081429D01*
X101925476Y-80176667D01*
X101973095Y-80271905D01*
X101782619Y-79319524D02*
X101735000Y-79271905D01*
X101687381Y-79176667D01*
X101687381Y-78938571D01*
X101735000Y-78843333D01*
X101782619Y-78795714D01*
X101877857Y-78748095D01*
X101973095Y-78748095D01*
X102115952Y-78795714D01*
X102687381Y-79367143D01*
X102687381Y-78748095D01*
X95543810Y-92400381D02*
X95543810Y-91400381D01*
X96591429Y-92305143D02*
X96543810Y-92352762D01*
X96400953Y-92400381D01*
X96305715Y-92400381D01*
X96162857Y-92352762D01*
X96067619Y-92257524D01*
X96020000Y-92162286D01*
X95972381Y-91971810D01*
X95972381Y-91828952D01*
X96020000Y-91638476D01*
X96067619Y-91543238D01*
X96162857Y-91448000D01*
X96305715Y-91400381D01*
X96400953Y-91400381D01*
X96543810Y-91448000D01*
X96591429Y-91495619D01*
X96972381Y-91495619D02*
X97020000Y-91448000D01*
X97115238Y-91400381D01*
X97353334Y-91400381D01*
X97448572Y-91448000D01*
X97496191Y-91495619D01*
X97543810Y-91590857D01*
X97543810Y-91686095D01*
X97496191Y-91828952D01*
X96924762Y-92400381D01*
X97543810Y-92400381D01*
X208827619Y-77819238D02*
X208780000Y-77914476D01*
X208684762Y-78009714D01*
X208541905Y-78152571D01*
X208494286Y-78247810D01*
X208494286Y-78343048D01*
X208732381Y-78295429D02*
X208684762Y-78390667D01*
X208589524Y-78485905D01*
X208399048Y-78533524D01*
X208065714Y-78533524D01*
X207875238Y-78485905D01*
X207780000Y-78390667D01*
X207732381Y-78295429D01*
X207732381Y-78104952D01*
X207780000Y-78009714D01*
X207875238Y-77914476D01*
X208065714Y-77866857D01*
X208399048Y-77866857D01*
X208589524Y-77914476D01*
X208684762Y-78009714D01*
X208732381Y-78104952D01*
X208732381Y-78295429D01*
X207732381Y-77533524D02*
X207732381Y-76914476D01*
X208113333Y-77247810D01*
X208113333Y-77104952D01*
X208160952Y-77009714D01*
X208208571Y-76962095D01*
X208303810Y-76914476D01*
X208541905Y-76914476D01*
X208637143Y-76962095D01*
X208684762Y-77009714D01*
X208732381Y-77104952D01*
X208732381Y-77390667D01*
X208684762Y-77485905D01*
X208637143Y-77533524D01*
X193079619Y-95091238D02*
X193032000Y-95186476D01*
X192936762Y-95281714D01*
X192793905Y-95424571D01*
X192746286Y-95519810D01*
X192746286Y-95615048D01*
X192984381Y-95567429D02*
X192936762Y-95662667D01*
X192841524Y-95757905D01*
X192651048Y-95805524D01*
X192317714Y-95805524D01*
X192127238Y-95757905D01*
X192032000Y-95662667D01*
X191984381Y-95567429D01*
X191984381Y-95376952D01*
X192032000Y-95281714D01*
X192127238Y-95186476D01*
X192317714Y-95138857D01*
X192651048Y-95138857D01*
X192841524Y-95186476D01*
X192936762Y-95281714D01*
X192984381Y-95376952D01*
X192984381Y-95567429D01*
X192317714Y-94281714D02*
X192984381Y-94281714D01*
X191936762Y-94519810D02*
X192651048Y-94757905D01*
X192651048Y-94138857D01*
X169997381Y-100083857D02*
X169521190Y-100417191D01*
X169997381Y-100655286D02*
X168997381Y-100655286D01*
X168997381Y-100274333D01*
X169045000Y-100179095D01*
X169092619Y-100131476D01*
X169187857Y-100083857D01*
X169330714Y-100083857D01*
X169425952Y-100131476D01*
X169473571Y-100179095D01*
X169521190Y-100274333D01*
X169521190Y-100655286D01*
X169997381Y-99131476D02*
X169997381Y-99702905D01*
X169997381Y-99417191D02*
X168997381Y-99417191D01*
X169140238Y-99512429D01*
X169235476Y-99607667D01*
X169283095Y-99702905D01*
X169997381Y-98179095D02*
X169997381Y-98750524D01*
X169997381Y-98464810D02*
X168997381Y-98464810D01*
X169140238Y-98560048D01*
X169235476Y-98655286D01*
X169283095Y-98750524D01*
X181427381Y-100591857D02*
X180951190Y-100925191D01*
X181427381Y-101163286D02*
X180427381Y-101163286D01*
X180427381Y-100782333D01*
X180475000Y-100687095D01*
X180522619Y-100639476D01*
X180617857Y-100591857D01*
X180760714Y-100591857D01*
X180855952Y-100639476D01*
X180903571Y-100687095D01*
X180951190Y-100782333D01*
X180951190Y-101163286D01*
X181427381Y-99639476D02*
X181427381Y-100210905D01*
X181427381Y-99925191D02*
X180427381Y-99925191D01*
X180570238Y-100020429D01*
X180665476Y-100115667D01*
X180713095Y-100210905D01*
X180427381Y-98734714D02*
X180427381Y-99210905D01*
X180903571Y-99258524D01*
X180855952Y-99210905D01*
X180808333Y-99115667D01*
X180808333Y-98877571D01*
X180855952Y-98782333D01*
X180903571Y-98734714D01*
X180998810Y-98687095D01*
X181236905Y-98687095D01*
X181332143Y-98734714D01*
X181379762Y-98782333D01*
X181427381Y-98877571D01*
X181427381Y-99115667D01*
X181379762Y-99210905D01*
X181332143Y-99258524D01*
X177617381Y-100337857D02*
X177141190Y-100671191D01*
X177617381Y-100909286D02*
X176617381Y-100909286D01*
X176617381Y-100528333D01*
X176665000Y-100433095D01*
X176712619Y-100385476D01*
X176807857Y-100337857D01*
X176950714Y-100337857D01*
X177045952Y-100385476D01*
X177093571Y-100433095D01*
X177141190Y-100528333D01*
X177141190Y-100909286D01*
X177617381Y-99385476D02*
X177617381Y-99956905D01*
X177617381Y-99671191D02*
X176617381Y-99671191D01*
X176760238Y-99766429D01*
X176855476Y-99861667D01*
X176903095Y-99956905D01*
X176617381Y-98528333D02*
X176617381Y-98718810D01*
X176665000Y-98814048D01*
X176712619Y-98861667D01*
X176855476Y-98956905D01*
X177045952Y-99004524D01*
X177426905Y-99004524D01*
X177522143Y-98956905D01*
X177569762Y-98909286D01*
X177617381Y-98814048D01*
X177617381Y-98623571D01*
X177569762Y-98528333D01*
X177522143Y-98480714D01*
X177426905Y-98433095D01*
X177188810Y-98433095D01*
X177093571Y-98480714D01*
X177045952Y-98528333D01*
X176998333Y-98623571D01*
X176998333Y-98814048D01*
X177045952Y-98909286D01*
X177093571Y-98956905D01*
X177188810Y-99004524D01*
X237041407Y-89093561D02*
X237041407Y-89807847D01*
X236993787Y-89950704D01*
X236898549Y-90045942D01*
X236755692Y-90093561D01*
X236660454Y-90093561D01*
X237422359Y-89093561D02*
X238041407Y-89093561D01*
X237708073Y-89474513D01*
X237850931Y-89474513D01*
X237946169Y-89522132D01*
X237993788Y-89569751D01*
X238041407Y-89664990D01*
X238041407Y-89903085D01*
X237993788Y-89998323D01*
X237946169Y-90045942D01*
X237850931Y-90093561D01*
X237565216Y-90093561D01*
X237469978Y-90045942D01*
X237422359Y-89998323D01*
X194857619Y-64865238D02*
X194810000Y-64960476D01*
X194714762Y-65055714D01*
X194571905Y-65198571D01*
X194524286Y-65293810D01*
X194524286Y-65389048D01*
X194762381Y-65341429D02*
X194714762Y-65436667D01*
X194619524Y-65531905D01*
X194429048Y-65579524D01*
X194095714Y-65579524D01*
X193905238Y-65531905D01*
X193810000Y-65436667D01*
X193762381Y-65341429D01*
X193762381Y-65150952D01*
X193810000Y-65055714D01*
X193905238Y-64960476D01*
X194095714Y-64912857D01*
X194429048Y-64912857D01*
X194619524Y-64960476D01*
X194714762Y-65055714D01*
X194762381Y-65150952D01*
X194762381Y-65341429D01*
X193762381Y-64008095D02*
X193762381Y-64484286D01*
X194238571Y-64531905D01*
X194190952Y-64484286D01*
X194143333Y-64389048D01*
X194143333Y-64150952D01*
X194190952Y-64055714D01*
X194238571Y-64008095D01*
X194333810Y-63960476D01*
X194571905Y-63960476D01*
X194667143Y-64008095D01*
X194714762Y-64055714D01*
X194762381Y-64150952D01*
X194762381Y-64389048D01*
X194714762Y-64484286D01*
X194667143Y-64531905D01*
X215511143Y-66111381D02*
X215177809Y-65635190D01*
X214939714Y-66111381D02*
X214939714Y-65111381D01*
X215320667Y-65111381D01*
X215415905Y-65159000D01*
X215463524Y-65206619D01*
X215511143Y-65301857D01*
X215511143Y-65444714D01*
X215463524Y-65539952D01*
X215415905Y-65587571D01*
X215320667Y-65635190D01*
X214939714Y-65635190D01*
X216463524Y-66111381D02*
X215892095Y-66111381D01*
X216177809Y-66111381D02*
X216177809Y-65111381D01*
X216082571Y-65254238D01*
X215987333Y-65349476D01*
X215892095Y-65397095D01*
X217034952Y-65539952D02*
X216939714Y-65492333D01*
X216892095Y-65444714D01*
X216844476Y-65349476D01*
X216844476Y-65301857D01*
X216892095Y-65206619D01*
X216939714Y-65159000D01*
X217034952Y-65111381D01*
X217225429Y-65111381D01*
X217320667Y-65159000D01*
X217368286Y-65206619D01*
X217415905Y-65301857D01*
X217415905Y-65349476D01*
X217368286Y-65444714D01*
X217320667Y-65492333D01*
X217225429Y-65539952D01*
X217034952Y-65539952D01*
X216939714Y-65587571D01*
X216892095Y-65635190D01*
X216844476Y-65730429D01*
X216844476Y-65920905D01*
X216892095Y-66016143D01*
X216939714Y-66063762D01*
X217034952Y-66111381D01*
X217225429Y-66111381D01*
X217320667Y-66063762D01*
X217368286Y-66016143D01*
X217415905Y-65920905D01*
X217415905Y-65730429D01*
X217368286Y-65635190D01*
X217320667Y-65587571D01*
X217225429Y-65539952D01*
X184856381Y-70334095D02*
X183856381Y-70334095D01*
X183856381Y-70096000D01*
X183904000Y-69953142D01*
X183999238Y-69857904D01*
X184094476Y-69810285D01*
X184284952Y-69762666D01*
X184427810Y-69762666D01*
X184618286Y-69810285D01*
X184713524Y-69857904D01*
X184808762Y-69953142D01*
X184856381Y-70096000D01*
X184856381Y-70334095D01*
X183856381Y-68857904D02*
X183856381Y-69334095D01*
X184332571Y-69381714D01*
X184284952Y-69334095D01*
X184237333Y-69238857D01*
X184237333Y-69000761D01*
X184284952Y-68905523D01*
X184332571Y-68857904D01*
X184427810Y-68810285D01*
X184665905Y-68810285D01*
X184761143Y-68857904D01*
X184808762Y-68905523D01*
X184856381Y-69000761D01*
X184856381Y-69238857D01*
X184808762Y-69334095D01*
X184761143Y-69381714D01*
X189047381Y-70111857D02*
X188571190Y-70445191D01*
X189047381Y-70683286D02*
X188047381Y-70683286D01*
X188047381Y-70302333D01*
X188095000Y-70207095D01*
X188142619Y-70159476D01*
X188237857Y-70111857D01*
X188380714Y-70111857D01*
X188475952Y-70159476D01*
X188523571Y-70207095D01*
X188571190Y-70302333D01*
X188571190Y-70683286D01*
X189047381Y-69159476D02*
X189047381Y-69730905D01*
X189047381Y-69445191D02*
X188047381Y-69445191D01*
X188190238Y-69540429D01*
X188285476Y-69635667D01*
X188333095Y-69730905D01*
X189047381Y-68683286D02*
X189047381Y-68492810D01*
X188999762Y-68397571D01*
X188952143Y-68349952D01*
X188809286Y-68254714D01*
X188618810Y-68207095D01*
X188237857Y-68207095D01*
X188142619Y-68254714D01*
X188095000Y-68302333D01*
X188047381Y-68397571D01*
X188047381Y-68588048D01*
X188095000Y-68683286D01*
X188142619Y-68730905D01*
X188237857Y-68778524D01*
X188475952Y-68778524D01*
X188571190Y-68730905D01*
X188618810Y-68683286D01*
X188666429Y-68588048D01*
X188666429Y-68397571D01*
X188618810Y-68302333D01*
X188571190Y-68254714D01*
X188475952Y-68207095D01*
X107942143Y-98877381D02*
X107608809Y-98401190D01*
X107370714Y-98877381D02*
X107370714Y-97877381D01*
X107751667Y-97877381D01*
X107846905Y-97925000D01*
X107894524Y-97972619D01*
X107942143Y-98067857D01*
X107942143Y-98210714D01*
X107894524Y-98305952D01*
X107846905Y-98353571D01*
X107751667Y-98401190D01*
X107370714Y-98401190D01*
X108323095Y-97972619D02*
X108370714Y-97925000D01*
X108465952Y-97877381D01*
X108704048Y-97877381D01*
X108799286Y-97925000D01*
X108846905Y-97972619D01*
X108894524Y-98067857D01*
X108894524Y-98163095D01*
X108846905Y-98305952D01*
X108275476Y-98877381D01*
X108894524Y-98877381D01*
X109513571Y-97877381D02*
X109608810Y-97877381D01*
X109704048Y-97925000D01*
X109751667Y-97972619D01*
X109799286Y-98067857D01*
X109846905Y-98258333D01*
X109846905Y-98496429D01*
X109799286Y-98686905D01*
X109751667Y-98782143D01*
X109704048Y-98829762D01*
X109608810Y-98877381D01*
X109513571Y-98877381D01*
X109418333Y-98829762D01*
X109370714Y-98782143D01*
X109323095Y-98686905D01*
X109275476Y-98496429D01*
X109275476Y-98258333D01*
X109323095Y-98067857D01*
X109370714Y-97972619D01*
X109418333Y-97925000D01*
X109513571Y-97877381D01*
X121737381Y-103512857D02*
X121261190Y-103846191D01*
X121737381Y-104084286D02*
X120737381Y-104084286D01*
X120737381Y-103703333D01*
X120785000Y-103608095D01*
X120832619Y-103560476D01*
X120927857Y-103512857D01*
X121070714Y-103512857D01*
X121165952Y-103560476D01*
X121213571Y-103608095D01*
X121261190Y-103703333D01*
X121261190Y-104084286D01*
X120832619Y-103131905D02*
X120785000Y-103084286D01*
X120737381Y-102989048D01*
X120737381Y-102750952D01*
X120785000Y-102655714D01*
X120832619Y-102608095D01*
X120927857Y-102560476D01*
X121023095Y-102560476D01*
X121165952Y-102608095D01*
X121737381Y-103179524D01*
X121737381Y-102560476D01*
X121737381Y-101608095D02*
X121737381Y-102179524D01*
X121737381Y-101893810D02*
X120737381Y-101893810D01*
X120880238Y-101989048D01*
X120975476Y-102084286D01*
X121023095Y-102179524D01*
X112268095Y-102957381D02*
X112268095Y-103766905D01*
X112315714Y-103862143D01*
X112363333Y-103909762D01*
X112458571Y-103957381D01*
X112649048Y-103957381D01*
X112744286Y-103909762D01*
X112791905Y-103862143D01*
X112839524Y-103766905D01*
X112839524Y-102957381D01*
X113744286Y-103290714D02*
X113744286Y-103957381D01*
X113506190Y-102909762D02*
X113268095Y-103624048D01*
X113887143Y-103624048D01*
X96559762Y-98877381D02*
X96226428Y-98401190D01*
X95988333Y-98877381D02*
X95988333Y-97877381D01*
X96369286Y-97877381D01*
X96464524Y-97925000D01*
X96512143Y-97972619D01*
X96559762Y-98067857D01*
X96559762Y-98210714D01*
X96512143Y-98305952D01*
X96464524Y-98353571D01*
X96369286Y-98401190D01*
X95988333Y-98401190D01*
X96845476Y-97877381D02*
X97178809Y-98877381D01*
X97512143Y-97877381D01*
X98369286Y-98877381D02*
X97797857Y-98877381D01*
X98083571Y-98877381D02*
X98083571Y-97877381D01*
X97988333Y-98020238D01*
X97893095Y-98115476D01*
X97797857Y-98163095D01*
X117832143Y-103512857D02*
X117879762Y-103560476D01*
X117927381Y-103703333D01*
X117927381Y-103798571D01*
X117879762Y-103941429D01*
X117784524Y-104036667D01*
X117689286Y-104084286D01*
X117498810Y-104131905D01*
X117355952Y-104131905D01*
X117165476Y-104084286D01*
X117070238Y-104036667D01*
X116975000Y-103941429D01*
X116927381Y-103798571D01*
X116927381Y-103703333D01*
X116975000Y-103560476D01*
X117022619Y-103512857D01*
X117927381Y-102560476D02*
X117927381Y-103131905D01*
X117927381Y-102846191D02*
X116927381Y-102846191D01*
X117070238Y-102941429D01*
X117165476Y-103036667D01*
X117213095Y-103131905D01*
X116927381Y-102227143D02*
X116927381Y-101608095D01*
X117308333Y-101941429D01*
X117308333Y-101798571D01*
X117355952Y-101703333D01*
X117403571Y-101655714D01*
X117498810Y-101608095D01*
X117736905Y-101608095D01*
X117832143Y-101655714D01*
X117879762Y-101703333D01*
X117927381Y-101798571D01*
X117927381Y-102084286D01*
X117879762Y-102179524D01*
X117832143Y-102227143D01*
X108251667Y-103497381D02*
X108251667Y-104211667D01*
X108204047Y-104354524D01*
X108108809Y-104449762D01*
X107965952Y-104497381D01*
X107870714Y-104497381D01*
X109156429Y-103830714D02*
X109156429Y-104497381D01*
X108918333Y-103449762D02*
X108680238Y-104164048D01*
X109299286Y-104164048D01*
X192857381Y-82430857D02*
X192381190Y-82764191D01*
X192857381Y-83002286D02*
X191857381Y-83002286D01*
X191857381Y-82621333D01*
X191905000Y-82526095D01*
X191952619Y-82478476D01*
X192047857Y-82430857D01*
X192190714Y-82430857D01*
X192285952Y-82478476D01*
X192333571Y-82526095D01*
X192381190Y-82621333D01*
X192381190Y-83002286D01*
X191952619Y-82049905D02*
X191905000Y-82002286D01*
X191857381Y-81907048D01*
X191857381Y-81668952D01*
X191905000Y-81573714D01*
X191952619Y-81526095D01*
X192047857Y-81478476D01*
X192143095Y-81478476D01*
X192285952Y-81526095D01*
X192857381Y-82097524D01*
X192857381Y-81478476D01*
X191952619Y-81097524D02*
X191905000Y-81049905D01*
X191857381Y-80954667D01*
X191857381Y-80716571D01*
X191905000Y-80621333D01*
X191952619Y-80573714D01*
X192047857Y-80526095D01*
X192143095Y-80526095D01*
X192285952Y-80573714D01*
X192857381Y-81145143D01*
X192857381Y-80526095D01*
X194508381Y-105116238D02*
X194032190Y-105449572D01*
X194508381Y-105687667D02*
X193508381Y-105687667D01*
X193508381Y-105306714D01*
X193556000Y-105211476D01*
X193603619Y-105163857D01*
X193698857Y-105116238D01*
X193841714Y-105116238D01*
X193936952Y-105163857D01*
X193984571Y-105211476D01*
X194032190Y-105306714D01*
X194032190Y-105687667D01*
X193508381Y-104830524D02*
X194508381Y-104497191D01*
X193508381Y-104163857D01*
X193603619Y-103878143D02*
X193556000Y-103830524D01*
X193508381Y-103735286D01*
X193508381Y-103497190D01*
X193556000Y-103401952D01*
X193603619Y-103354333D01*
X193698857Y-103306714D01*
X193794095Y-103306714D01*
X193936952Y-103354333D01*
X194508381Y-103925762D01*
X194508381Y-103306714D01*
X203541334Y-85701143D02*
X203493715Y-85748762D01*
X203350858Y-85796381D01*
X203255620Y-85796381D01*
X203112762Y-85748762D01*
X203017524Y-85653524D01*
X202969905Y-85558286D01*
X202922286Y-85367810D01*
X202922286Y-85224952D01*
X202969905Y-85034476D01*
X203017524Y-84939238D01*
X203112762Y-84844000D01*
X203255620Y-84796381D01*
X203350858Y-84796381D01*
X203493715Y-84844000D01*
X203541334Y-84891619D01*
X204398477Y-85129714D02*
X204398477Y-85796381D01*
X204160381Y-84748762D02*
X203922286Y-85463048D01*
X204541334Y-85463048D01*
X203747619Y-75279238D02*
X203700000Y-75374476D01*
X203604762Y-75469714D01*
X203461905Y-75612571D01*
X203414286Y-75707810D01*
X203414286Y-75803048D01*
X203652381Y-75755429D02*
X203604762Y-75850667D01*
X203509524Y-75945905D01*
X203319048Y-75993524D01*
X202985714Y-75993524D01*
X202795238Y-75945905D01*
X202700000Y-75850667D01*
X202652381Y-75755429D01*
X202652381Y-75564952D01*
X202700000Y-75469714D01*
X202795238Y-75374476D01*
X202985714Y-75326857D01*
X203319048Y-75326857D01*
X203509524Y-75374476D01*
X203604762Y-75469714D01*
X203652381Y-75564952D01*
X203652381Y-75755429D01*
X202652381Y-74993524D02*
X202652381Y-74326857D01*
X203652381Y-74755429D01*
X215257143Y-69667381D02*
X214923809Y-69191190D01*
X214685714Y-69667381D02*
X214685714Y-68667381D01*
X215066667Y-68667381D01*
X215161905Y-68715000D01*
X215209524Y-68762619D01*
X215257143Y-68857857D01*
X215257143Y-69000714D01*
X215209524Y-69095952D01*
X215161905Y-69143571D01*
X215066667Y-69191190D01*
X214685714Y-69191190D01*
X215638095Y-68762619D02*
X215685714Y-68715000D01*
X215780952Y-68667381D01*
X216019048Y-68667381D01*
X216114286Y-68715000D01*
X216161905Y-68762619D01*
X216209524Y-68857857D01*
X216209524Y-68953095D01*
X216161905Y-69095952D01*
X215590476Y-69667381D01*
X216209524Y-69667381D01*
X216542857Y-68667381D02*
X217161905Y-68667381D01*
X216828571Y-69048333D01*
X216971429Y-69048333D01*
X217066667Y-69095952D01*
X217114286Y-69143571D01*
X217161905Y-69238810D01*
X217161905Y-69476905D01*
X217114286Y-69572143D01*
X217066667Y-69619762D01*
X216971429Y-69667381D01*
X216685714Y-69667381D01*
X216590476Y-69619762D01*
X216542857Y-69572143D01*
X196667381Y-82811857D02*
X196191190Y-83145191D01*
X196667381Y-83383286D02*
X195667381Y-83383286D01*
X195667381Y-83002333D01*
X195715000Y-82907095D01*
X195762619Y-82859476D01*
X195857857Y-82811857D01*
X196000714Y-82811857D01*
X196095952Y-82859476D01*
X196143571Y-82907095D01*
X196191190Y-83002333D01*
X196191190Y-83383286D01*
X195762619Y-82430905D02*
X195715000Y-82383286D01*
X195667381Y-82288048D01*
X195667381Y-82049952D01*
X195715000Y-81954714D01*
X195762619Y-81907095D01*
X195857857Y-81859476D01*
X195953095Y-81859476D01*
X196095952Y-81907095D01*
X196667381Y-82478524D01*
X196667381Y-81859476D01*
X196000714Y-81002333D02*
X196667381Y-81002333D01*
X195619762Y-81240429D02*
X196334048Y-81478524D01*
X196334048Y-80859476D01*
X181427381Y-87129857D02*
X180951190Y-87463191D01*
X181427381Y-87701286D02*
X180427381Y-87701286D01*
X180427381Y-87320333D01*
X180475000Y-87225095D01*
X180522619Y-87177476D01*
X180617857Y-87129857D01*
X180760714Y-87129857D01*
X180855952Y-87177476D01*
X180903571Y-87225095D01*
X180951190Y-87320333D01*
X180951190Y-87701286D01*
X180522619Y-86748905D02*
X180475000Y-86701286D01*
X180427381Y-86606048D01*
X180427381Y-86367952D01*
X180475000Y-86272714D01*
X180522619Y-86225095D01*
X180617857Y-86177476D01*
X180713095Y-86177476D01*
X180855952Y-86225095D01*
X181427381Y-86796524D01*
X181427381Y-86177476D01*
X180427381Y-85320333D02*
X180427381Y-85510810D01*
X180475000Y-85606048D01*
X180522619Y-85653667D01*
X180665476Y-85748905D01*
X180855952Y-85796524D01*
X181236905Y-85796524D01*
X181332143Y-85748905D01*
X181379762Y-85701286D01*
X181427381Y-85606048D01*
X181427381Y-85415571D01*
X181379762Y-85320333D01*
X181332143Y-85272714D01*
X181236905Y-85225095D01*
X180998810Y-85225095D01*
X180903571Y-85272714D01*
X180855952Y-85320333D01*
X180808333Y-85415571D01*
X180808333Y-85606048D01*
X180855952Y-85701286D01*
X180903571Y-85748905D01*
X180998810Y-85796524D01*
X200017143Y-65762143D02*
X199969524Y-65809762D01*
X199826667Y-65857381D01*
X199731429Y-65857381D01*
X199588571Y-65809762D01*
X199493333Y-65714524D01*
X199445714Y-65619286D01*
X199398095Y-65428810D01*
X199398095Y-65285952D01*
X199445714Y-65095476D01*
X199493333Y-65000238D01*
X199588571Y-64905000D01*
X199731429Y-64857381D01*
X199826667Y-64857381D01*
X199969524Y-64905000D01*
X200017143Y-64952619D01*
X200969524Y-65857381D02*
X200398095Y-65857381D01*
X200683809Y-65857381D02*
X200683809Y-64857381D01*
X200588571Y-65000238D01*
X200493333Y-65095476D01*
X200398095Y-65143095D01*
X201826667Y-65190714D02*
X201826667Y-65857381D01*
X201588571Y-64809762D02*
X201350476Y-65524048D01*
X201969524Y-65524048D01*
X203731905Y-88082381D02*
X203731905Y-87082381D01*
X203970000Y-87082381D01*
X204112858Y-87130000D01*
X204208096Y-87225238D01*
X204255715Y-87320476D01*
X204303334Y-87510952D01*
X204303334Y-87653810D01*
X204255715Y-87844286D01*
X204208096Y-87939524D01*
X204112858Y-88034762D01*
X203970000Y-88082381D01*
X203731905Y-88082381D01*
X204636667Y-87082381D02*
X205303334Y-87082381D01*
X204874762Y-88082381D01*
X197651619Y-95091238D02*
X197604000Y-95186476D01*
X197508762Y-95281714D01*
X197365905Y-95424571D01*
X197318286Y-95519810D01*
X197318286Y-95615048D01*
X197556381Y-95567429D02*
X197508762Y-95662667D01*
X197413524Y-95757905D01*
X197223048Y-95805524D01*
X196889714Y-95805524D01*
X196699238Y-95757905D01*
X196604000Y-95662667D01*
X196556381Y-95567429D01*
X196556381Y-95376952D01*
X196604000Y-95281714D01*
X196699238Y-95186476D01*
X196889714Y-95138857D01*
X197223048Y-95138857D01*
X197413524Y-95186476D01*
X197508762Y-95281714D01*
X197556381Y-95376952D01*
X197556381Y-95567429D01*
X196556381Y-94281714D02*
X196556381Y-94472191D01*
X196604000Y-94567429D01*
X196651619Y-94615048D01*
X196794476Y-94710286D01*
X196984952Y-94757905D01*
X197365905Y-94757905D01*
X197461143Y-94710286D01*
X197508762Y-94662667D01*
X197556381Y-94567429D01*
X197556381Y-94376952D01*
X197508762Y-94281714D01*
X197461143Y-94234095D01*
X197365905Y-94186476D01*
X197127810Y-94186476D01*
X197032571Y-94234095D01*
X196984952Y-94281714D01*
X196937333Y-94376952D01*
X196937333Y-94567429D01*
X196984952Y-94662667D01*
X197032571Y-94710286D01*
X197127810Y-94757905D01*
X203747619Y-82391238D02*
X203700000Y-82486476D01*
X203604762Y-82581714D01*
X203461905Y-82724571D01*
X203414286Y-82819810D01*
X203414286Y-82915048D01*
X203652381Y-82867429D02*
X203604762Y-82962667D01*
X203509524Y-83057905D01*
X203319048Y-83105524D01*
X202985714Y-83105524D01*
X202795238Y-83057905D01*
X202700000Y-82962667D01*
X202652381Y-82867429D01*
X202652381Y-82676952D01*
X202700000Y-82581714D01*
X202795238Y-82486476D01*
X202985714Y-82438857D01*
X203319048Y-82438857D01*
X203509524Y-82486476D01*
X203604762Y-82581714D01*
X203652381Y-82676952D01*
X203652381Y-82867429D01*
X203080952Y-81867429D02*
X203033333Y-81962667D01*
X202985714Y-82010286D01*
X202890476Y-82057905D01*
X202842857Y-82057905D01*
X202747619Y-82010286D01*
X202700000Y-81962667D01*
X202652381Y-81867429D01*
X202652381Y-81676952D01*
X202700000Y-81581714D01*
X202747619Y-81534095D01*
X202842857Y-81486476D01*
X202890476Y-81486476D01*
X202985714Y-81534095D01*
X203033333Y-81581714D01*
X203080952Y-81676952D01*
X203080952Y-81867429D01*
X203128571Y-81962667D01*
X203176190Y-82010286D01*
X203271429Y-82057905D01*
X203461905Y-82057905D01*
X203557143Y-82010286D01*
X203604762Y-81962667D01*
X203652381Y-81867429D01*
X203652381Y-81676952D01*
X203604762Y-81581714D01*
X203557143Y-81534095D01*
X203461905Y-81486476D01*
X203271429Y-81486476D01*
X203176190Y-81534095D01*
X203128571Y-81581714D01*
X203080952Y-81676952D01*
X160551905Y-84007381D02*
X160551905Y-83007381D01*
X160790000Y-83007381D01*
X160932858Y-83055000D01*
X161028096Y-83150238D01*
X161075715Y-83245476D01*
X161123334Y-83435952D01*
X161123334Y-83578810D01*
X161075715Y-83769286D01*
X161028096Y-83864524D01*
X160932858Y-83959762D01*
X160790000Y-84007381D01*
X160551905Y-84007381D01*
X161980477Y-83007381D02*
X161790000Y-83007381D01*
X161694762Y-83055000D01*
X161647143Y-83102619D01*
X161551905Y-83245476D01*
X161504286Y-83435952D01*
X161504286Y-83816905D01*
X161551905Y-83912143D01*
X161599524Y-83959762D01*
X161694762Y-84007381D01*
X161885239Y-84007381D01*
X161980477Y-83959762D01*
X162028096Y-83912143D01*
X162075715Y-83816905D01*
X162075715Y-83578810D01*
X162028096Y-83483571D01*
X161980477Y-83435952D01*
X161885239Y-83388333D01*
X161694762Y-83388333D01*
X161599524Y-83435952D01*
X161551905Y-83483571D01*
X161504286Y-83578810D01*
X217622381Y-78843095D02*
X216622381Y-78843095D01*
X216622381Y-78605000D01*
X216670000Y-78462142D01*
X216765238Y-78366904D01*
X216860476Y-78319285D01*
X217050952Y-78271666D01*
X217193810Y-78271666D01*
X217384286Y-78319285D01*
X217479524Y-78366904D01*
X217574762Y-78462142D01*
X217622381Y-78605000D01*
X217622381Y-78843095D01*
X217050952Y-77700238D02*
X217003333Y-77795476D01*
X216955714Y-77843095D01*
X216860476Y-77890714D01*
X216812857Y-77890714D01*
X216717619Y-77843095D01*
X216670000Y-77795476D01*
X216622381Y-77700238D01*
X216622381Y-77509761D01*
X216670000Y-77414523D01*
X216717619Y-77366904D01*
X216812857Y-77319285D01*
X216860476Y-77319285D01*
X216955714Y-77366904D01*
X217003333Y-77414523D01*
X217050952Y-77509761D01*
X217050952Y-77700238D01*
X217098571Y-77795476D01*
X217146190Y-77843095D01*
X217241429Y-77890714D01*
X217431905Y-77890714D01*
X217527143Y-77843095D01*
X217574762Y-77795476D01*
X217622381Y-77700238D01*
X217622381Y-77509761D01*
X217574762Y-77414523D01*
X217527143Y-77366904D01*
X217431905Y-77319285D01*
X217241429Y-77319285D01*
X217146190Y-77366904D01*
X217098571Y-77414523D01*
X217050952Y-77509761D01*
X223464381Y-97194666D02*
X223464381Y-97670857D01*
X222464381Y-97670857D01*
X223464381Y-96337523D02*
X223464381Y-96908952D01*
X223464381Y-96623238D02*
X222464381Y-96623238D01*
X222607238Y-96718476D01*
X222702476Y-96813714D01*
X222750095Y-96908952D01*
X232997143Y-103798666D02*
X233044762Y-103846285D01*
X233092381Y-103989142D01*
X233092381Y-104084380D01*
X233044762Y-104227238D01*
X232949524Y-104322476D01*
X232854286Y-104370095D01*
X232663810Y-104417714D01*
X232520952Y-104417714D01*
X232330476Y-104370095D01*
X232235238Y-104322476D01*
X232140000Y-104227238D01*
X232092381Y-104084380D01*
X232092381Y-103989142D01*
X232140000Y-103846285D01*
X232187619Y-103798666D01*
X232187619Y-103417714D02*
X232140000Y-103370095D01*
X232092381Y-103274857D01*
X232092381Y-103036761D01*
X232140000Y-102941523D01*
X232187619Y-102893904D01*
X232282857Y-102846285D01*
X232378095Y-102846285D01*
X232520952Y-102893904D01*
X233092381Y-103465333D01*
X233092381Y-102846285D01*
X227782381Y-94083095D02*
X226782381Y-94083095D01*
X226782381Y-93845000D01*
X226830000Y-93702142D01*
X226925238Y-93606904D01*
X227020476Y-93559285D01*
X227210952Y-93511666D01*
X227353810Y-93511666D01*
X227544286Y-93559285D01*
X227639524Y-93606904D01*
X227734762Y-93702142D01*
X227782381Y-93845000D01*
X227782381Y-94083095D01*
X227782381Y-92559285D02*
X227782381Y-93130714D01*
X227782381Y-92845000D02*
X226782381Y-92845000D01*
X226925238Y-92940238D01*
X227020476Y-93035476D01*
X227068095Y-93130714D01*
%LPC*%
D16*
X188595000Y-86995000D03*
D17*
X188595000Y-76835000D03*
X208280000Y-90170000D03*
X205740000Y-90170000D03*
X203200000Y-90170000D03*
X200660000Y-90170000D03*
X200660000Y-97790000D03*
X203200000Y-97790000D03*
X205740000Y-97790000D03*
X208280000Y-97790000D03*
D16*
X220980000Y-73025000D03*
D17*
X220980000Y-83185000D03*
D18*
X205740000Y-81915000D03*
X205740000Y-84455000D03*
X205740000Y-79375000D03*
D19*
X106914000Y-96012000D03*
X104414000Y-96012000D03*
X106914000Y-93980000D03*
X104414000Y-93980000D03*
D20*
X87376000Y-106039920D03*
X87376000Y-66040000D03*
X237375700Y-66040000D03*
X237375700Y-106039920D03*
D21*
X216535000Y-103815000D03*
D16*
X216535000Y-107315000D03*
X202946000Y-100584000D03*
X200446000Y-100584000D03*
X195580000Y-97830000D03*
X195580000Y-100330000D03*
D21*
X213995000Y-73025000D03*
D17*
X213995000Y-83185000D03*
D22*
X148670000Y-86360000D03*
X145970000Y-86360000D03*
X130890000Y-106045000D03*
X128190000Y-106045000D03*
D23*
X228600000Y-68430000D03*
D24*
X226060000Y-85090000D03*
D25*
X228600000Y-85090000D03*
X231140000Y-85090000D03*
D16*
X232410000Y-98425000D03*
D17*
X232410000Y-88265000D03*
D16*
X173355000Y-104775000D03*
D17*
X173355000Y-94615000D03*
D16*
X210820000Y-73025000D03*
D17*
X210820000Y-83185000D03*
D16*
X184785000Y-94615000D03*
D17*
X184785000Y-104775000D03*
D22*
X140890000Y-86360000D03*
X143590000Y-86360000D03*
X101045000Y-69850000D03*
X98345000Y-69850000D03*
X104822000Y-83820000D03*
X107522000Y-83820000D03*
X104855000Y-102235000D03*
X102155000Y-102235000D03*
X130890000Y-69850000D03*
X128190000Y-69850000D03*
X130890000Y-103505000D03*
X128190000Y-103505000D03*
D26*
X156845000Y-94005000D03*
D27*
X156845000Y-100305000D03*
X159145000Y-100305000D03*
X154545000Y-100305000D03*
D28*
X110268000Y-79884000D03*
D29*
X110268000Y-81884000D03*
X110268000Y-83884000D03*
X110268000Y-85884000D03*
X110268000Y-87884000D03*
X110268000Y-89884000D03*
X110268000Y-91884000D03*
X110268000Y-93884000D03*
X125668000Y-93884000D03*
X125568000Y-91884000D03*
X125668000Y-89884000D03*
X125668000Y-87884000D03*
X125668000Y-85884000D03*
X125668000Y-83884000D03*
X125668000Y-81884000D03*
X125668000Y-79884000D03*
D26*
X139700000Y-94005000D03*
D27*
X139700000Y-100305000D03*
X142000000Y-100305000D03*
X137400000Y-100305000D03*
D30*
X103296000Y-66498000D03*
D31*
X102036000Y-64008000D03*
X97536000Y-64008000D03*
D30*
X96286000Y-66498000D03*
X132994000Y-66525000D03*
D31*
X131734000Y-64035000D03*
X127234000Y-64035000D03*
D30*
X125984000Y-66525000D03*
D32*
X158210000Y-103505000D03*
X154210000Y-103505000D03*
D33*
X157090000Y-90170000D03*
X152790000Y-90170000D03*
D32*
X141700000Y-103505000D03*
X137700000Y-103505000D03*
D33*
X140580000Y-90170000D03*
X136280000Y-90170000D03*
D16*
X208280000Y-104140000D03*
D17*
X198120000Y-104140000D03*
D16*
X184785000Y-81280000D03*
D17*
X184785000Y-91440000D03*
D34*
X162296000Y-68834000D03*
D35*
X162296000Y-74934000D03*
D34*
X157216000Y-71124000D03*
D36*
X139192000Y-76708000D03*
D37*
X141732000Y-76708000D03*
X144272000Y-76708000D03*
D36*
X87374740Y-79691180D03*
D37*
X87374740Y-82231180D03*
X87374740Y-84771180D03*
X87374740Y-87311180D03*
X87374740Y-89851180D03*
X87374740Y-92391180D03*
D38*
X100330000Y-81260000D03*
X100330000Y-78760000D03*
D39*
X92920000Y-83943000D03*
X92920000Y-84593000D03*
X92920000Y-85243000D03*
X92920000Y-85893000D03*
X92920000Y-86543000D03*
X92920000Y-87193000D03*
X92920000Y-87843000D03*
X92920000Y-88493000D03*
X92920000Y-89143000D03*
X92920000Y-89793000D03*
X100120000Y-89793000D03*
X100120000Y-89143000D03*
X100120000Y-88493000D03*
X100120000Y-87843000D03*
X100120000Y-87193000D03*
X100120000Y-86543000D03*
X100120000Y-85893000D03*
X100120000Y-85243000D03*
X100120000Y-84593000D03*
X100120000Y-83943000D03*
D40*
X206375000Y-74295000D03*
X206375000Y-71755000D03*
D41*
X206375000Y-76835000D03*
D40*
X189865000Y-92075000D03*
X189865000Y-94615000D03*
D41*
X189865000Y-89535000D03*
D16*
X169545000Y-104775000D03*
D17*
X169545000Y-94615000D03*
D16*
X180975000Y-104775000D03*
D17*
X180975000Y-94615000D03*
D16*
X177165000Y-104775000D03*
D17*
X177165000Y-94615000D03*
D36*
X237374740Y-87311180D03*
D37*
X237374740Y-84771180D03*
D42*
X193040000Y-68580000D03*
X194310000Y-67310000D03*
D43*
X194310000Y-69850000D03*
D16*
X210820000Y-65405000D03*
D17*
X220980000Y-65405000D03*
D24*
X184150000Y-74295000D03*
D44*
X184150000Y-71755000D03*
D16*
X188595000Y-74295000D03*
D17*
X188595000Y-64135000D03*
D22*
X111680000Y-97790000D03*
X114380000Y-97790000D03*
D45*
X121285000Y-97710000D03*
X121285000Y-100410000D03*
D46*
X111680000Y-100015000D03*
X111680000Y-100965000D03*
X111680000Y-101915000D03*
X114380000Y-101915000D03*
X114380000Y-100015000D03*
X114380000Y-100965000D03*
D47*
X94655000Y-99735000D03*
X97155000Y-102235000D03*
X99655000Y-99735000D03*
D38*
X117475000Y-100310000D03*
X117475000Y-97810000D03*
D48*
X108585000Y-106045000D03*
D16*
X192405000Y-86995000D03*
D17*
X192405000Y-76835000D03*
D49*
X190500000Y-103505000D03*
D47*
X190500000Y-100965000D03*
X190500000Y-98425000D03*
D16*
X201930000Y-84455000D03*
X199430000Y-84455000D03*
D42*
X200025000Y-71755000D03*
X201295000Y-70485000D03*
D43*
X201295000Y-73025000D03*
D16*
X210820000Y-69215000D03*
D17*
X220980000Y-69215000D03*
D16*
X196215000Y-86995000D03*
D17*
X196215000Y-76835000D03*
D16*
X180975000Y-81280000D03*
D17*
X180975000Y-91440000D03*
D16*
X201890000Y-67310000D03*
X199390000Y-67310000D03*
D21*
X199390000Y-87630000D03*
D17*
X209550000Y-87630000D03*
D40*
X194945000Y-92075000D03*
X194945000Y-94615000D03*
D41*
X194945000Y-89535000D03*
D40*
X201295000Y-78740000D03*
X201295000Y-76200000D03*
D41*
X201295000Y-81280000D03*
D50*
X167640000Y-80645000D03*
D51*
X154940000Y-80645000D03*
D52*
X217170000Y-83185000D03*
D53*
X217170000Y-73025000D03*
D54*
X217805000Y-95250000D03*
X217805000Y-88250000D03*
D21*
X227330000Y-103505000D03*
D16*
X227330000Y-107005000D03*
D55*
X227330000Y-98425000D03*
D56*
X227330000Y-88265000D03*
M02*
