M48
;DRILL file {KiCad 4.0.7} date 08/09/18 01:28:45
;FORMAT={3:3/ absolute / metric / keep zeros}
FMAT,2
METRIC,TZ
T1C0.400
T2C0.600
T3C0.650
T4C0.800
T5C0.900
T6C0.990
T7C1.000
T8C1.020
T9C1.100
T10C1.200
T11C1.300
T12C1.400
T13C3.500
T14C3.500
%
G90
G05
M71
T1
X087630Y-069850
X087630Y-073660
X089535Y-097155
X089535Y-099695
X090170Y-081280
X090170Y-083820
X091460Y-109637
X092202Y-073660
X092202Y-076708
X092639Y-099640
X092678Y-097167
X094488Y-061976
X096460Y-109637
X097790Y-083185
X097790Y-087630
X097790Y-091440
X097799Y-076053
X099488Y-061976
X101092Y-073660
X101460Y-109637
X101600Y-107315
X104394Y-097790
X104488Y-061976
X106460Y-109637
X106680Y-077470
X106697Y-102256
X106889Y-097516
X106926Y-091969
X109488Y-061976
X110100Y-097551
X111252Y-069596
X111460Y-109637
X111677Y-103746
X114488Y-061976
X115570Y-080010
X115570Y-082550
X115570Y-086360
X115570Y-089535
X115570Y-092075
X116460Y-109637
X118745Y-097540
X119380Y-080010
X119380Y-082550
X119380Y-086360
X119380Y-089535
X119380Y-092075
X119488Y-061976
X120650Y-086360
X120650Y-094615
X121285Y-107315
X121460Y-109637
X123190Y-091948
X123190Y-093980
X123664Y-069602
X124488Y-061976
X125095Y-097542
X126460Y-109637
X128524Y-073660
X128524Y-076708
X128619Y-083874
X128647Y-079893
X128647Y-081897
X129488Y-061976
X130890Y-085344
X131460Y-109637
X132334Y-097282
X132334Y-100330
X133404Y-094029
X133604Y-090170
X133604Y-091440
X134366Y-073660
X134366Y-076708
X134488Y-061976
X136153Y-105622
X136460Y-109637
X136525Y-107315
X137414Y-096266
X137414Y-097282
X137414Y-098298
X137662Y-105592
X139488Y-061976
X141224Y-069596
X141460Y-109637
X141605Y-107950
X143256Y-087376
X145288Y-105664
X145542Y-100330
X145662Y-087405
X146460Y-109637
X146812Y-105664
X147320Y-098298
X148590Y-078105
X149488Y-061976
X150622Y-081534
X151460Y-109637
X152295Y-083812
X154488Y-061976
X156460Y-109637
X156936Y-086907
X159488Y-061976
X160457Y-100497
X160528Y-091440
X161460Y-109637
X162299Y-103547
X164488Y-061976
X166460Y-109637
X166536Y-100478
X166539Y-091473
X169488Y-061976
X171436Y-100437
X171460Y-109637
X174488Y-061976
X175260Y-086868
X176460Y-109637
X179155Y-100411
X179488Y-061976
X181460Y-109637
X184488Y-061976
X186460Y-109637
X188468Y-084328
X188498Y-074125
X189488Y-061976
X191460Y-109637
X192278Y-084328
X194488Y-061976
X196095Y-074113
X196460Y-109637
X199488Y-061976
X200650Y-095817
X201460Y-109637
X204488Y-061976
X206460Y-109637
X208280Y-092964
X208280Y-095758
X209488Y-061976
X211460Y-109637
X213868Y-079502
X214488Y-061976
X215646Y-092202
X217170Y-079502
X219488Y-061976
X220726Y-092202
X220726Y-095250
X221460Y-109637
X224488Y-061976
X224536Y-074168
X224536Y-079502
X229488Y-061976
X231140Y-074168
X231460Y-109637
X234488Y-061976
X236460Y-109637
T2
X191135Y-069850
X192405Y-071120
X193675Y-069850
X200025Y-071755
X201295Y-070485
X201295Y-073025
T3
X110968Y-079884
X110968Y-081884
X110968Y-083884
X110968Y-085884
X110968Y-087884
X110968Y-089884
X110968Y-091884
X110968Y-093884
X124968Y-079884
X124968Y-081884
X124968Y-083884
X124968Y-085884
X124968Y-087884
X124968Y-089884
X124968Y-091884
X124968Y-093884
T4
X095885Y-098425
X095885Y-103505
X098425Y-100965
X108585Y-106045
X169545Y-094615
X169545Y-104775
X173355Y-081280
X173355Y-091440
X173355Y-094615
X173355Y-104775
X174752Y-074168
X177165Y-081280
X177165Y-091440
X177165Y-094615
X177165Y-104775
X180975Y-081280
X180975Y-091440
X180975Y-094615
X180975Y-104775
X184785Y-081280
X184785Y-091440
X184785Y-094615
X184785Y-104775
X184912Y-074168
X188595Y-076835
X188595Y-086995
X189230Y-098425
X189230Y-103505
X189865Y-089535
X189865Y-092075
X189865Y-094615
X191770Y-100965
X192405Y-076835
X192405Y-086995
X194945Y-089535
X194945Y-092075
X194945Y-094615
X194945Y-097830
X194945Y-100330
X196215Y-076835
X196215Y-086995
X198120Y-104140
X199390Y-067310
X199390Y-087630
X199430Y-084455
X200446Y-100584
X200660Y-090170
X200660Y-097790
X201295Y-076200
X201295Y-078740
X201295Y-081280
X201890Y-067310
X201930Y-084455
X202946Y-100584
X203200Y-090170
X203200Y-097790
X205740Y-079375
X205740Y-081915
X205740Y-084455
X205740Y-090170
X205740Y-097790
X206375Y-071755
X206375Y-074295
X206375Y-076835
X208280Y-090170
X208280Y-097790
X208280Y-104140
X209550Y-087630
X210820Y-065405
X210820Y-069215
X210820Y-073025
X210820Y-083185
X213995Y-073025
X213995Y-083185
X216535Y-103561
X216535Y-107061
X220980Y-065405
X220980Y-069215
X220980Y-073025
X220980Y-083185
X227330Y-103561
X227330Y-107061
X232410Y-088265
X232410Y-098425
T5
X178816Y-069850
X181356Y-069850
T6
X097536Y-064008
X102036Y-064008
X127234Y-064035
X131734Y-064035
T7
X087375Y-078421
X087375Y-080961
X087375Y-083501
X087375Y-086041
X087375Y-088581
X087375Y-091121
X087375Y-093661
X139192Y-076708
X141732Y-076708
X144272Y-076708
X226060Y-085090
X228600Y-085090
X231140Y-085090
X237375Y-084771
X237375Y-087311
T9
X217170Y-073025
X217170Y-083185
T10
X217805Y-088250
X217805Y-095250
X227330Y-088265
X227330Y-098425
T11
X096286Y-066498
X103296Y-066498
X125984Y-066525
X132994Y-066525
T12
X155956Y-080645
X168656Y-080645
T13
X228600Y-068430
T14
X087376Y-066040
X087376Y-106040
X237376Y-066040
X237376Y-106040
T0
M30
