G04 #@! TF.FileFunction,Legend,Bot*
%FSLAX46Y46*%
G04 Gerber Fmt 4.6, Leading zero omitted, Abs format (unit mm)*
G04 Created by KiCad (PCBNEW 4.0.7) date 03/18/18 22:00:37*
%MOMM*%
%LPD*%
G01*
G04 APERTURE LIST*
%ADD10C,0.100000*%
%ADD11C,0.300000*%
%ADD12C,2.000000*%
%ADD13O,2.000000X2.000000*%
%ADD14C,1.924000*%
%ADD15C,3.900120*%
%ADD16R,2.000000X2.000000*%
%ADD17O,3.900000X3.900000*%
%ADD18R,2.200000X2.200000*%
%ADD19O,2.200000X2.200000*%
%ADD20R,2.900000X1.500000*%
%ADD21O,2.900000X1.500000*%
%ADD22C,2.500000*%
%ADD23C,2.150000*%
%ADD24C,5.200000*%
%ADD25R,5.200000X5.200000*%
%ADD26R,2.100000X2.100000*%
%ADD27O,2.100000X2.100000*%
%ADD28C,1.920000*%
%ADD29R,1.920000X1.920000*%
%ADD30C,1.400000*%
%ADD31R,1.400000X1.400000*%
%ADD32C,2.200000*%
%ADD33C,2.020000*%
%ADD34R,1.900000X1.900000*%
%ADD35R,2.020000X2.020000*%
%ADD36R,3.200000X3.200000*%
%ADD37O,3.200000X3.200000*%
%ADD38R,2.600000X2.600000*%
%ADD39O,2.600000X2.600000*%
%ADD40C,2.800000*%
%ADD41R,2.800000X2.800000*%
%ADD42O,2.800000X2.800000*%
G04 APERTURE END LIST*
D10*
D11*
X237147571Y-94377143D02*
X235647571Y-94377143D01*
X236361857Y-94377143D02*
X236361857Y-95234286D01*
X237147571Y-95234286D02*
X235647571Y-95234286D01*
X237147571Y-95948572D02*
X236147571Y-95948572D01*
X235647571Y-95948572D02*
X235719000Y-95877143D01*
X235790429Y-95948572D01*
X235719000Y-96020000D01*
X235647571Y-95948572D01*
X235790429Y-95948572D01*
X236147571Y-97305715D02*
X237361857Y-97305715D01*
X237504714Y-97234286D01*
X237576143Y-97162858D01*
X237647571Y-97020001D01*
X237647571Y-96805715D01*
X237576143Y-96662858D01*
X237076143Y-97305715D02*
X237147571Y-97162858D01*
X237147571Y-96877144D01*
X237076143Y-96734286D01*
X237004714Y-96662858D01*
X236861857Y-96591429D01*
X236433286Y-96591429D01*
X236290429Y-96662858D01*
X236219000Y-96734286D01*
X236147571Y-96877144D01*
X236147571Y-97162858D01*
X236219000Y-97305715D01*
X237147571Y-98020001D02*
X235647571Y-98020001D01*
X237147571Y-98662858D02*
X236361857Y-98662858D01*
X236219000Y-98591429D01*
X236147571Y-98448572D01*
X236147571Y-98234287D01*
X236219000Y-98091429D01*
X236290429Y-98020001D01*
X238197571Y-92162857D02*
X239697571Y-92662857D01*
X238197571Y-93162857D01*
X239697571Y-93877143D02*
X239626143Y-93734285D01*
X239554714Y-93662857D01*
X239411857Y-93591428D01*
X238983286Y-93591428D01*
X238840429Y-93662857D01*
X238769000Y-93734285D01*
X238697571Y-93877143D01*
X238697571Y-94091428D01*
X238769000Y-94234285D01*
X238840429Y-94305714D01*
X238983286Y-94377143D01*
X239411857Y-94377143D01*
X239554714Y-94305714D01*
X239626143Y-94234285D01*
X239697571Y-94091428D01*
X239697571Y-93877143D01*
X239697571Y-95234286D02*
X239626143Y-95091428D01*
X239483286Y-95020000D01*
X238197571Y-95020000D01*
X238697571Y-95591428D02*
X238697571Y-96162857D01*
X238197571Y-95805714D02*
X239483286Y-95805714D01*
X239626143Y-95877142D01*
X239697571Y-96020000D01*
X239697571Y-96162857D01*
X239697571Y-97305714D02*
X238911857Y-97305714D01*
X238769000Y-97234285D01*
X238697571Y-97091428D01*
X238697571Y-96805714D01*
X238769000Y-96662857D01*
X239626143Y-97305714D02*
X239697571Y-97162857D01*
X239697571Y-96805714D01*
X239626143Y-96662857D01*
X239483286Y-96591428D01*
X239340429Y-96591428D01*
X239197571Y-96662857D01*
X239126143Y-96805714D01*
X239126143Y-97162857D01*
X239054714Y-97305714D01*
X238697571Y-98662857D02*
X239911857Y-98662857D01*
X240054714Y-98591428D01*
X240126143Y-98520000D01*
X240197571Y-98377143D01*
X240197571Y-98162857D01*
X240126143Y-98020000D01*
X239626143Y-98662857D02*
X239697571Y-98520000D01*
X239697571Y-98234286D01*
X239626143Y-98091428D01*
X239554714Y-98020000D01*
X239411857Y-97948571D01*
X238983286Y-97948571D01*
X238840429Y-98020000D01*
X238769000Y-98091428D01*
X238697571Y-98234286D01*
X238697571Y-98520000D01*
X238769000Y-98662857D01*
X239626143Y-99948571D02*
X239697571Y-99805714D01*
X239697571Y-99520000D01*
X239626143Y-99377143D01*
X239483286Y-99305714D01*
X238911857Y-99305714D01*
X238769000Y-99377143D01*
X238697571Y-99520000D01*
X238697571Y-99805714D01*
X238769000Y-99948571D01*
X238911857Y-100020000D01*
X239054714Y-100020000D01*
X239197571Y-99305714D01*
X239554714Y-100662857D02*
X239626143Y-100734285D01*
X239697571Y-100662857D01*
X239626143Y-100591428D01*
X239554714Y-100662857D01*
X239697571Y-100662857D01*
X239126143Y-100662857D02*
X238269000Y-100591428D01*
X238197571Y-100662857D01*
X238269000Y-100734285D01*
X239126143Y-100662857D01*
X238197571Y-100662857D01*
X93213999Y-92991714D02*
X93285428Y-93063143D01*
X93499714Y-93134571D01*
X93642571Y-93134571D01*
X93856856Y-93063143D01*
X93999714Y-92920286D01*
X94071142Y-92777429D01*
X94142571Y-92491714D01*
X94142571Y-92277429D01*
X94071142Y-91991714D01*
X93999714Y-91848857D01*
X93856856Y-91706000D01*
X93642571Y-91634571D01*
X93499714Y-91634571D01*
X93285428Y-91706000D01*
X93213999Y-91777429D01*
X92642571Y-93063143D02*
X92428285Y-93134571D01*
X92071142Y-93134571D01*
X91928285Y-93063143D01*
X91856856Y-92991714D01*
X91785428Y-92848857D01*
X91785428Y-92706000D01*
X91856856Y-92563143D01*
X91928285Y-92491714D01*
X92071142Y-92420286D01*
X92356856Y-92348857D01*
X92499714Y-92277429D01*
X92571142Y-92206000D01*
X92642571Y-92063143D01*
X92642571Y-91920286D01*
X92571142Y-91777429D01*
X92499714Y-91706000D01*
X92356856Y-91634571D01*
X91999714Y-91634571D01*
X91785428Y-91706000D01*
X93876571Y-90523143D02*
X93662285Y-90594571D01*
X93305142Y-90594571D01*
X93162285Y-90523143D01*
X93090856Y-90451714D01*
X93019428Y-90308857D01*
X93019428Y-90166000D01*
X93090856Y-90023143D01*
X93162285Y-89951714D01*
X93305142Y-89880286D01*
X93590856Y-89808857D01*
X93733714Y-89737429D01*
X93805142Y-89666000D01*
X93876571Y-89523143D01*
X93876571Y-89380286D01*
X93805142Y-89237429D01*
X93733714Y-89166000D01*
X93590856Y-89094571D01*
X93233714Y-89094571D01*
X93019428Y-89166000D01*
X91519428Y-90451714D02*
X91590857Y-90523143D01*
X91805143Y-90594571D01*
X91948000Y-90594571D01*
X92162285Y-90523143D01*
X92305143Y-90380286D01*
X92376571Y-90237429D01*
X92448000Y-89951714D01*
X92448000Y-89737429D01*
X92376571Y-89451714D01*
X92305143Y-89308857D01*
X92162285Y-89166000D01*
X91948000Y-89094571D01*
X91805143Y-89094571D01*
X91590857Y-89166000D01*
X91519428Y-89237429D01*
X90876571Y-90594571D02*
X90876571Y-89094571D01*
X90019428Y-90594571D02*
X90662285Y-89737429D01*
X90019428Y-89094571D02*
X90876571Y-89951714D01*
X94055143Y-88054571D02*
X94055143Y-86554571D01*
X93483715Y-86554571D01*
X93340857Y-86626000D01*
X93269429Y-86697429D01*
X93198000Y-86840286D01*
X93198000Y-87054571D01*
X93269429Y-87197429D01*
X93340857Y-87268857D01*
X93483715Y-87340286D01*
X94055143Y-87340286D01*
X92698000Y-86554571D02*
X92340857Y-88054571D01*
X92055143Y-86983143D01*
X91769429Y-88054571D01*
X91412286Y-86554571D01*
X90840857Y-88054571D02*
X90840857Y-86554571D01*
X90340857Y-87626000D01*
X89840857Y-86554571D01*
X89840857Y-88054571D01*
X94305143Y-85514571D02*
X94305143Y-84014571D01*
X93805143Y-85086000D01*
X93305143Y-84014571D01*
X93305143Y-85514571D01*
X92305143Y-84014571D02*
X92019429Y-84014571D01*
X91876571Y-84086000D01*
X91733714Y-84228857D01*
X91662286Y-84514571D01*
X91662286Y-85014571D01*
X91733714Y-85300286D01*
X91876571Y-85443143D01*
X92019429Y-85514571D01*
X92305143Y-85514571D01*
X92448000Y-85443143D01*
X92590857Y-85300286D01*
X92662286Y-85014571D01*
X92662286Y-84514571D01*
X92590857Y-84228857D01*
X92448000Y-84086000D01*
X92305143Y-84014571D01*
X91090857Y-85443143D02*
X90876571Y-85514571D01*
X90519428Y-85514571D01*
X90376571Y-85443143D01*
X90305142Y-85371714D01*
X90233714Y-85228857D01*
X90233714Y-85086000D01*
X90305142Y-84943143D01*
X90376571Y-84871714D01*
X90519428Y-84800286D01*
X90805142Y-84728857D01*
X90948000Y-84657429D01*
X91019428Y-84586000D01*
X91090857Y-84443143D01*
X91090857Y-84300286D01*
X91019428Y-84157429D01*
X90948000Y-84086000D01*
X90805142Y-84014571D01*
X90448000Y-84014571D01*
X90233714Y-84086000D01*
X89590857Y-85514571D02*
X89590857Y-84014571D01*
X93249713Y-81474571D02*
X93963999Y-81474571D01*
X94035428Y-82188857D01*
X93963999Y-82117429D01*
X93821142Y-82046000D01*
X93463999Y-82046000D01*
X93321142Y-82117429D01*
X93249713Y-82188857D01*
X93178285Y-82331714D01*
X93178285Y-82688857D01*
X93249713Y-82831714D01*
X93321142Y-82903143D01*
X93463999Y-82974571D01*
X93821142Y-82974571D01*
X93963999Y-82903143D01*
X94035428Y-82831714D01*
X92749714Y-81474571D02*
X92249714Y-82974571D01*
X91749714Y-81474571D01*
X93598857Y-79006000D02*
X93741714Y-78934571D01*
X93956000Y-78934571D01*
X94170285Y-79006000D01*
X94313143Y-79148857D01*
X94384571Y-79291714D01*
X94456000Y-79577429D01*
X94456000Y-79791714D01*
X94384571Y-80077429D01*
X94313143Y-80220286D01*
X94170285Y-80363143D01*
X93956000Y-80434571D01*
X93813143Y-80434571D01*
X93598857Y-80363143D01*
X93527428Y-80291714D01*
X93527428Y-79791714D01*
X93813143Y-79791714D01*
X92884571Y-80434571D02*
X92884571Y-78934571D01*
X92027428Y-80434571D01*
X92027428Y-78934571D01*
X91313142Y-80434571D02*
X91313142Y-78934571D01*
X90955999Y-78934571D01*
X90741714Y-79006000D01*
X90598856Y-79148857D01*
X90527428Y-79291714D01*
X90455999Y-79577429D01*
X90455999Y-79791714D01*
X90527428Y-80077429D01*
X90598856Y-80220286D01*
X90741714Y-80363143D01*
X90955999Y-80434571D01*
X91313142Y-80434571D01*
X121998857Y-73402000D02*
X121284571Y-73402000D01*
X122141714Y-73830571D02*
X121641714Y-72330571D01*
X121141714Y-73830571D01*
X120641714Y-72830571D02*
X120641714Y-73830571D01*
X120641714Y-72973429D02*
X120570286Y-72902000D01*
X120427428Y-72830571D01*
X120213143Y-72830571D01*
X120070286Y-72902000D01*
X119998857Y-73044857D01*
X119998857Y-73830571D01*
X119498857Y-72830571D02*
X118927428Y-72830571D01*
X119284571Y-72330571D02*
X119284571Y-73616286D01*
X119213143Y-73759143D01*
X119070285Y-73830571D01*
X118927428Y-73830571D01*
X117856000Y-73759143D02*
X117998857Y-73830571D01*
X118284571Y-73830571D01*
X118427428Y-73759143D01*
X118498857Y-73616286D01*
X118498857Y-73044857D01*
X118427428Y-72902000D01*
X118284571Y-72830571D01*
X117998857Y-72830571D01*
X117856000Y-72902000D01*
X117784571Y-73044857D01*
X117784571Y-73187714D01*
X118498857Y-73330571D01*
X117141714Y-72830571D02*
X117141714Y-73830571D01*
X117141714Y-72973429D02*
X117070286Y-72902000D01*
X116927428Y-72830571D01*
X116713143Y-72830571D01*
X116570286Y-72902000D01*
X116498857Y-73044857D01*
X116498857Y-73830571D01*
X115784571Y-72830571D02*
X115784571Y-73830571D01*
X115784571Y-72973429D02*
X115713143Y-72902000D01*
X115570285Y-72830571D01*
X115356000Y-72830571D01*
X115213143Y-72902000D01*
X115141714Y-73044857D01*
X115141714Y-73830571D01*
X113784571Y-73830571D02*
X113784571Y-73044857D01*
X113856000Y-72902000D01*
X113998857Y-72830571D01*
X114284571Y-72830571D01*
X114427428Y-72902000D01*
X113784571Y-73759143D02*
X113927428Y-73830571D01*
X114284571Y-73830571D01*
X114427428Y-73759143D01*
X114498857Y-73616286D01*
X114498857Y-73473429D01*
X114427428Y-73330571D01*
X114284571Y-73259143D01*
X113927428Y-73259143D01*
X113784571Y-73187714D01*
%LPC*%
D12*
X188595000Y-86995000D03*
D13*
X188595000Y-76835000D03*
X208280000Y-90170000D03*
X205740000Y-90170000D03*
X203200000Y-90170000D03*
X200660000Y-90170000D03*
X200660000Y-97790000D03*
X203200000Y-97790000D03*
X205740000Y-97790000D03*
X208280000Y-97790000D03*
D12*
X220980000Y-73025000D03*
D13*
X220980000Y-83185000D03*
D14*
X205740000Y-81915000D03*
X205740000Y-84455000D03*
X205740000Y-79375000D03*
D15*
X87376000Y-106039920D03*
X87376000Y-66040000D03*
X237375700Y-66040000D03*
X237375700Y-106039920D03*
D16*
X216535000Y-103815000D03*
D12*
X216535000Y-107315000D03*
X202946000Y-100584000D03*
X200446000Y-100584000D03*
X195580000Y-97830000D03*
X195580000Y-100330000D03*
D16*
X213995000Y-73025000D03*
D13*
X213995000Y-83185000D03*
D17*
X228600000Y-68430000D03*
D18*
X226060000Y-85090000D03*
D19*
X228600000Y-85090000D03*
X231140000Y-85090000D03*
D12*
X232410000Y-98425000D03*
D13*
X232410000Y-88265000D03*
D12*
X173355000Y-104775000D03*
D13*
X173355000Y-94615000D03*
D12*
X210820000Y-73025000D03*
D13*
X210820000Y-83185000D03*
D12*
X184785000Y-94615000D03*
D13*
X184785000Y-104775000D03*
D20*
X110268000Y-79884000D03*
D21*
X110268000Y-81884000D03*
X110268000Y-83884000D03*
X110268000Y-85884000D03*
X110268000Y-87884000D03*
X110268000Y-89884000D03*
X110268000Y-91884000D03*
X110268000Y-93884000D03*
X125668000Y-93884000D03*
X125568000Y-91884000D03*
X125668000Y-89884000D03*
X125668000Y-87884000D03*
X125668000Y-85884000D03*
X125668000Y-83884000D03*
X125668000Y-81884000D03*
X125668000Y-79884000D03*
D22*
X103296000Y-66498000D03*
D23*
X102036000Y-64008000D03*
X97536000Y-64008000D03*
D22*
X96286000Y-66498000D03*
X132994000Y-66525000D03*
D23*
X131734000Y-64035000D03*
X127234000Y-64035000D03*
D22*
X125984000Y-66525000D03*
D12*
X208280000Y-104140000D03*
D13*
X198120000Y-104140000D03*
D12*
X184785000Y-81280000D03*
D13*
X184785000Y-91440000D03*
D24*
X162296000Y-68834000D03*
D25*
X162296000Y-74934000D03*
D24*
X157216000Y-71124000D03*
D26*
X139192000Y-76708000D03*
D27*
X141732000Y-76708000D03*
X144272000Y-76708000D03*
D26*
X87374740Y-79691180D03*
D27*
X87374740Y-82231180D03*
X87374740Y-84771180D03*
X87374740Y-87311180D03*
X87374740Y-89851180D03*
X87374740Y-92391180D03*
D28*
X206375000Y-74295000D03*
X206375000Y-71755000D03*
D29*
X206375000Y-76835000D03*
D28*
X189865000Y-92075000D03*
X189865000Y-94615000D03*
D29*
X189865000Y-89535000D03*
D12*
X169545000Y-104775000D03*
D13*
X169545000Y-94615000D03*
D12*
X180975000Y-104775000D03*
D13*
X180975000Y-94615000D03*
D12*
X177165000Y-104775000D03*
D13*
X177165000Y-94615000D03*
D26*
X237374740Y-87311180D03*
D27*
X237374740Y-84771180D03*
D30*
X193040000Y-68580000D03*
X194310000Y-67310000D03*
D31*
X194310000Y-69850000D03*
D12*
X210820000Y-65405000D03*
D13*
X220980000Y-65405000D03*
D18*
X184150000Y-74295000D03*
D32*
X184150000Y-71755000D03*
D12*
X188595000Y-74295000D03*
D13*
X188595000Y-64135000D03*
D33*
X94655000Y-99735000D03*
X97155000Y-102235000D03*
X99655000Y-99735000D03*
D34*
X108585000Y-106045000D03*
D12*
X192405000Y-86995000D03*
D13*
X192405000Y-76835000D03*
D35*
X190500000Y-103505000D03*
D33*
X190500000Y-100965000D03*
X190500000Y-98425000D03*
D12*
X201930000Y-84455000D03*
X199430000Y-84455000D03*
D30*
X200025000Y-71755000D03*
X201295000Y-70485000D03*
D31*
X201295000Y-73025000D03*
D12*
X210820000Y-69215000D03*
D13*
X220980000Y-69215000D03*
D12*
X196215000Y-86995000D03*
D13*
X196215000Y-76835000D03*
D12*
X180975000Y-81280000D03*
D13*
X180975000Y-91440000D03*
D12*
X201890000Y-67310000D03*
X199390000Y-67310000D03*
D16*
X199390000Y-87630000D03*
D13*
X209550000Y-87630000D03*
D28*
X194945000Y-92075000D03*
X194945000Y-94615000D03*
D29*
X194945000Y-89535000D03*
D28*
X201295000Y-78740000D03*
X201295000Y-76200000D03*
D29*
X201295000Y-81280000D03*
D36*
X167640000Y-80645000D03*
D37*
X154940000Y-80645000D03*
D38*
X217170000Y-83185000D03*
D39*
X217170000Y-73025000D03*
D40*
X217805000Y-95250000D03*
X217805000Y-88250000D03*
D16*
X227330000Y-103505000D03*
D12*
X227330000Y-107005000D03*
D41*
X227330000Y-98425000D03*
D42*
X227330000Y-88265000D03*
M02*
