M48
;DRILL file {KiCad 4.0.7} date 02/26/18 21:23:02
;FORMAT={-:-/ absolute / inch / decimal}
FMAT,2
INCH,TZ
T1C0.016
T2C0.033
T3C0.039
T4C0.138
%
G90
G05
M72
T1
X2.9601Y-4.148
X3.0248Y-4.7247
X3.025Y-2.9
X3.0915Y-3.9006
X3.125Y-3.75
X3.15Y-3.325
X3.15Y-3.575
X3.175Y-3.75
X3.19Y-3.97
X3.2Y-3.325
X3.2216Y-4.7247
X3.2219Y-2.9
X3.225Y-3.75
X3.25Y-3.325
X3.2506Y-3.9695
X3.275Y-3.75
X3.3Y-3.575
X3.3Y-3.625
X3.31Y-3.97
X3.325Y-3.75
X3.4004Y-4.2433
X3.4185Y-4.7247
X3.4187Y-2.9
X3.6153Y-4.7247
X3.6156Y-2.9
X3.6411Y-4.1753
X3.8122Y-4.7247
X3.8124Y-2.9
X3.85Y-3.75
X3.875Y-3.275
X3.875Y-3.525
X3.9Y-3.75
X3.925Y-3.275
X3.93Y-3.97
X3.95Y-3.75
X3.975Y-3.275
X4.Y-3.75
X4.009Y-4.7247
X4.0093Y-2.9
X4.025Y-3.575
X4.025Y-3.625
X4.05Y-3.75
X4.1Y-4.2419
X4.2059Y-4.7247
X4.2061Y-2.9
X4.3296Y-4.176
X4.4027Y-4.7247
X4.403Y-2.9
X4.55Y-3.525
X4.55Y-3.75
X4.575Y-3.275
X4.5996Y-4.7247
X4.5998Y-2.9
X4.6Y-3.75
X4.61Y-3.97
X4.625Y-3.275
X4.65Y-3.75
X4.66Y-3.97
X4.675Y-3.275
X4.7Y-3.75
X4.71Y-3.97
X4.725Y-3.575
X4.725Y-3.625
X4.75Y-3.75
X4.7964Y-4.7247
X4.7967Y-2.9
X4.9933Y-4.7247
X4.9935Y-2.9
X5.175Y-4.2419
X5.1901Y-4.7247
X5.1904Y-2.9
X5.25Y-3.75
X5.3Y-3.275
X5.3Y-3.525
X5.3Y-3.75
X5.35Y-3.275
X5.35Y-3.75
X5.387Y-4.7247
X5.3872Y-2.9
X5.4Y-3.275
X5.4Y-3.75
X5.4075Y-4.1771
X5.425Y-3.575
X5.425Y-3.625
X5.45Y-3.75
X5.54Y-3.97
X5.5838Y-4.7247
X5.5841Y-2.9
X5.7807Y-4.7247
X5.7809Y-2.9
X5.875Y-4.2419
X5.95Y-3.75
X5.975Y-3.525
X5.9775Y-4.7247
X5.9778Y-2.9
X6.Y-3.275
X6.Y-3.75
X6.05Y-3.275
X6.05Y-3.75
X6.1Y-3.275
X6.1Y-3.75
X6.1018Y-4.1749
X6.1495Y-3.5747
X6.15Y-3.625
X6.15Y-3.75
X6.1744Y-4.7247
X6.1746Y-2.9
X6.3712Y-4.7247
X6.3715Y-2.9
X6.5681Y-4.7247
X6.5683Y-2.9
X6.675Y-3.525
X6.675Y-3.75
X6.7Y-3.275
X6.71Y-3.97
X6.725Y-3.75
X6.75Y-3.275
X6.7649Y-4.7247
X6.7652Y-2.9
X6.775Y-3.75
X6.78Y-3.97
X6.8Y-3.275
X6.825Y-3.75
X6.85Y-3.97
X6.875Y-3.575
X6.875Y-3.625
X6.875Y-3.75
X6.95Y-4.2419
X6.9618Y-4.7247
X6.962Y-2.9
X7.1586Y-4.7247
X7.1589Y-2.9
X7.1766Y-4.1754
X7.3555Y-4.7247
X7.3557Y-2.9
X7.375Y-3.75
X7.4Y-3.525
X7.425Y-3.275
X7.425Y-3.75
X7.475Y-3.275
X7.475Y-3.75
X7.525Y-3.275
X7.525Y-3.75
X7.5523Y-4.7247
X7.5526Y-2.9
X7.575Y-3.575
X7.575Y-3.625
X7.575Y-3.75
X7.6028Y-4.2423
X7.7492Y-4.7247
X7.7494Y-2.9
X7.8702Y-4.1752
X7.946Y-4.7247
X7.9463Y-2.9
X8.1Y-3.75
X8.125Y-3.275
X8.125Y-3.525
X8.1429Y-4.7247
X8.1431Y-2.9
X8.15Y-3.75
X8.175Y-3.275
X8.2Y-3.75
X8.225Y-3.275
X8.25Y-3.75
X8.275Y-3.575
X8.275Y-3.625
X8.3Y-3.75
X8.3397Y-4.7247
X8.34Y-2.9
T2
X3.2925Y-4.2984
X3.3066Y-4.1827
X3.3339Y-4.4075
X3.3728Y-4.0867
X3.4212Y-4.4848
X3.4761Y-4.0325
X3.5344Y-4.5127
X3.5927Y-4.0325
X3.6476Y-4.4848
X3.696Y-4.0867
X3.7349Y-4.4075
X3.7622Y-4.1827
X3.7763Y-4.2984
X3.9815Y-4.2984
X3.9956Y-4.1827
X4.0229Y-4.4075
X4.0618Y-4.0867
X4.1102Y-4.4848
X4.1651Y-4.0325
X4.2234Y-4.5127
X4.2817Y-4.0325
X4.3366Y-4.4848
X4.385Y-4.0867
X4.4239Y-4.4075
X4.4512Y-4.1827
X4.4653Y-4.2984
X5.0647Y-4.2986
X5.0788Y-4.1829
X5.1061Y-4.4077
X5.145Y-4.0869
X5.1934Y-4.485
X5.2483Y-4.0327
X5.3066Y-4.5129
X5.3649Y-4.0327
X5.4198Y-4.485
X5.4682Y-4.0869
X5.5071Y-4.4077
X5.5344Y-4.1829
X5.5485Y-4.2986
X5.7537Y-4.2986
X5.7678Y-4.1829
X5.7951Y-4.4077
X5.834Y-4.0869
X5.8824Y-4.485
X5.9373Y-4.0327
X5.9956Y-4.5129
X6.0539Y-4.0327
X6.1088Y-4.485
X6.1572Y-4.0869
X6.1961Y-4.4077
X6.2234Y-4.1829
X6.2375Y-4.2986
X6.8367Y-4.2984
X6.8508Y-4.1827
X6.8781Y-4.4075
X6.917Y-4.0867
X6.9654Y-4.4848
X7.0203Y-4.0325
X7.0786Y-4.5127
X7.1369Y-4.0325
X7.1918Y-4.4848
X7.2402Y-4.0867
X7.2791Y-4.4075
X7.3064Y-4.1827
X7.3205Y-4.2984
X7.5257Y-4.2984
X7.5398Y-4.1827
X7.5671Y-4.4075
X7.606Y-4.0867
X7.6544Y-4.4848
X7.7093Y-4.0325
X7.7676Y-4.5127
X7.8259Y-4.0325
X7.8808Y-4.4848
X7.9292Y-4.0867
X7.9681Y-4.4075
X7.9954Y-4.1827
X8.0095Y-4.2984
T3
X2.7Y-3.5626
X2.7Y-3.6626
X2.7Y-3.7626
X2.7Y-3.8626
X2.7Y-3.9626
X2.7Y-4.0626
X8.6055Y-3.7626
X8.6055Y-3.8626
T4
X2.7Y-3.0252
X2.7Y-4.6
X8.6055Y-3.0252
X8.6055Y-4.6
T0
M30
