G04 #@! TF.FileFunction,Copper,L2,Bot,Signal*
%FSLAX46Y46*%
G04 Gerber Fmt 4.6, Leading zero omitted, Abs format (unit mm)*
G04 Created by KiCad (PCBNEW 4.0.7) date 06/23/18 17:49:10*
%MOMM*%
%LPD*%
G01*
G04 APERTURE LIST*
%ADD10C,0.100000*%
%ADD11C,0.300000*%
%ADD12C,1.346200*%
%ADD13R,1.300000X0.700000*%
%ADD14R,1.700000X1.700000*%
%ADD15O,1.700000X1.700000*%
%ADD16R,0.900000X0.800000*%
%ADD17C,0.600000*%
%ADD18C,0.250000*%
%ADD19C,0.500000*%
%ADD20C,0.254000*%
G04 APERTURE END LIST*
D10*
D11*
X220050714Y-108623571D02*
X220050714Y-107123571D01*
X219693571Y-107123571D01*
X219479286Y-107195000D01*
X219336428Y-107337857D01*
X219265000Y-107480714D01*
X219193571Y-107766429D01*
X219193571Y-107980714D01*
X219265000Y-108266429D01*
X219336428Y-108409286D01*
X219479286Y-108552143D01*
X219693571Y-108623571D01*
X220050714Y-108623571D01*
X218550714Y-108480714D02*
X218479286Y-108552143D01*
X218550714Y-108623571D01*
X218622143Y-108552143D01*
X218550714Y-108480714D01*
X218550714Y-108623571D01*
X216836428Y-107123571D02*
X216479285Y-108623571D01*
X216193571Y-107552143D01*
X215907857Y-108623571D01*
X215550714Y-107123571D01*
X214336428Y-108623571D02*
X214336428Y-107837857D01*
X214407857Y-107695000D01*
X214550714Y-107623571D01*
X214836428Y-107623571D01*
X214979285Y-107695000D01*
X214336428Y-108552143D02*
X214479285Y-108623571D01*
X214836428Y-108623571D01*
X214979285Y-108552143D01*
X215050714Y-108409286D01*
X215050714Y-108266429D01*
X214979285Y-108123571D01*
X214836428Y-108052143D01*
X214479285Y-108052143D01*
X214336428Y-107980714D01*
X213407856Y-108623571D02*
X213550714Y-108552143D01*
X213622142Y-108409286D01*
X213622142Y-107123571D01*
X213050714Y-107623571D02*
X212479285Y-107623571D01*
X212836428Y-107123571D02*
X212836428Y-108409286D01*
X212765000Y-108552143D01*
X212622142Y-108623571D01*
X212479285Y-108623571D01*
X211407857Y-108552143D02*
X211550714Y-108623571D01*
X211836428Y-108623571D01*
X211979285Y-108552143D01*
X212050714Y-108409286D01*
X212050714Y-107837857D01*
X211979285Y-107695000D01*
X211836428Y-107623571D01*
X211550714Y-107623571D01*
X211407857Y-107695000D01*
X211336428Y-107837857D01*
X211336428Y-107980714D01*
X212050714Y-108123571D01*
X210693571Y-108623571D02*
X210693571Y-107623571D01*
X210693571Y-107909286D02*
X210622143Y-107766429D01*
X210550714Y-107695000D01*
X210407857Y-107623571D01*
X210265000Y-107623571D01*
X217407856Y-110173571D02*
X217050713Y-111173571D01*
X216693571Y-110173571D01*
X215336428Y-111173571D02*
X216193571Y-111173571D01*
X215764999Y-111173571D02*
X215764999Y-109673571D01*
X215907856Y-109887857D01*
X216050714Y-110030714D01*
X216193571Y-110102143D01*
X214693571Y-111030714D02*
X214622143Y-111102143D01*
X214693571Y-111173571D01*
X214765000Y-111102143D01*
X214693571Y-111030714D01*
X214693571Y-111173571D01*
X213693571Y-109673571D02*
X213550714Y-109673571D01*
X213407857Y-109745000D01*
X213336428Y-109816429D01*
X213264999Y-109959286D01*
X213193571Y-110245000D01*
X213193571Y-110602143D01*
X213264999Y-110887857D01*
X213336428Y-111030714D01*
X213407857Y-111102143D01*
X213550714Y-111173571D01*
X213693571Y-111173571D01*
X213836428Y-111102143D01*
X213907857Y-111030714D01*
X213979285Y-110887857D01*
X214050714Y-110602143D01*
X214050714Y-110245000D01*
X213979285Y-109959286D01*
X213907857Y-109816429D01*
X213836428Y-109745000D01*
X213693571Y-109673571D01*
D12*
X193704300Y-104919640D03*
X203889700Y-104919640D03*
X204941260Y-107690780D03*
X204583120Y-110629560D03*
X202901640Y-113067960D03*
X200277820Y-114444640D03*
X197316180Y-114444640D03*
X194692360Y-113067960D03*
X193010880Y-110629560D03*
X192652740Y-107690780D03*
X198797000Y-102247560D03*
X195921720Y-102956220D03*
X201672280Y-102956220D03*
X173204300Y-104919640D03*
X183389700Y-104919640D03*
X184441260Y-107690780D03*
X184083120Y-110629560D03*
X182401640Y-113067960D03*
X179777820Y-114444640D03*
X176816180Y-114444640D03*
X174192360Y-113067960D03*
X172510880Y-110629560D03*
X172152740Y-107690780D03*
X178297000Y-102247560D03*
X175421720Y-102956220D03*
X181172280Y-102956220D03*
X148695100Y-104919640D03*
X158880500Y-104919640D03*
X159932060Y-107690780D03*
X159573920Y-110629560D03*
X157892440Y-113067960D03*
X155268620Y-114444640D03*
X152306980Y-114444640D03*
X149683160Y-113067960D03*
X148001680Y-110629560D03*
X147643540Y-107690780D03*
X153787800Y-102247560D03*
X150912520Y-102956220D03*
X156663080Y-102956220D03*
X128195100Y-104919640D03*
X138380500Y-104919640D03*
X139432060Y-107690780D03*
X139073920Y-110629560D03*
X137392440Y-113067960D03*
X134768620Y-114444640D03*
X131806980Y-114444640D03*
X129183160Y-113067960D03*
X127501680Y-110629560D03*
X127143540Y-107690780D03*
X133287800Y-102247560D03*
X130412520Y-102956220D03*
X136163080Y-102956220D03*
X103681300Y-104919640D03*
X113866700Y-104919640D03*
X114918260Y-107690780D03*
X114560120Y-110629560D03*
X112878640Y-113067960D03*
X110254820Y-114444640D03*
X107293180Y-114444640D03*
X104669360Y-113067960D03*
X102987880Y-110629560D03*
X102629740Y-107690780D03*
X108774000Y-102247560D03*
X105898720Y-102956220D03*
X111649280Y-102956220D03*
X83181300Y-104919640D03*
X93366700Y-104919640D03*
X94418260Y-107690780D03*
X94060120Y-110629560D03*
X92378640Y-113067960D03*
X89754820Y-114444640D03*
X86793180Y-114444640D03*
X84169360Y-113067960D03*
X82487880Y-110629560D03*
X82129740Y-107690780D03*
X88274000Y-102247560D03*
X85398720Y-102956220D03*
X91149280Y-102956220D03*
D13*
X88265000Y-97790000D03*
X88265000Y-99690000D03*
X108712000Y-97790000D03*
X108712000Y-99690000D03*
X133350000Y-97790000D03*
X133350000Y-99690000D03*
X153797000Y-97790000D03*
X153797000Y-99690000D03*
X178308000Y-97790000D03*
X178308000Y-99690000D03*
X198755000Y-97790000D03*
X198755000Y-99690000D03*
X88138000Y-110170000D03*
X88138000Y-108270000D03*
X108712000Y-110170000D03*
X108712000Y-108270000D03*
X133096000Y-110170000D03*
X133096000Y-108270000D03*
X153670000Y-110170000D03*
X153670000Y-108270000D03*
X178308000Y-110170000D03*
X178308000Y-108270000D03*
X198882000Y-110170000D03*
X198882000Y-108270000D03*
X73660000Y-103820000D03*
X73660000Y-101920000D03*
D14*
X218754000Y-98190000D03*
D15*
X218754000Y-95650000D03*
D16*
X75962000Y-103820000D03*
X75962000Y-101920000D03*
X77962000Y-102870000D03*
D14*
X68754000Y-104540000D03*
D15*
X68754000Y-102000000D03*
X68754000Y-99460000D03*
X68754000Y-96920000D03*
X68754000Y-94380000D03*
X68754000Y-91840000D03*
X68754000Y-89300000D03*
D17*
X192405000Y-92075000D03*
X174625000Y-92075000D03*
X156210000Y-92075000D03*
X138430000Y-92075000D03*
X120015000Y-92075000D03*
X102235000Y-92075000D03*
X210820000Y-92075000D03*
X84455000Y-92075000D03*
X138430000Y-90805000D03*
X192405000Y-90805000D03*
X174625000Y-90805000D03*
X156210000Y-90805000D03*
X120015000Y-90805000D03*
X102235000Y-90805000D03*
X210820000Y-90805000D03*
X84455000Y-90805000D03*
X89916000Y-81915000D03*
X80518000Y-81915000D03*
X161925000Y-81915000D03*
X73025000Y-85725000D03*
X188595000Y-81915000D03*
X170815000Y-81915000D03*
X152400000Y-81915000D03*
X134620000Y-81915000D03*
X116205000Y-81915000D03*
X99060000Y-81915000D03*
X144145000Y-81915000D03*
X107950000Y-81915000D03*
X126365000Y-81915000D03*
X180975000Y-81915000D03*
X198755000Y-81915000D03*
X208280000Y-99314000D03*
X208534000Y-96012000D03*
X208534000Y-93218000D03*
X208534000Y-87376000D03*
X65786000Y-107950000D03*
X72136000Y-113284000D03*
X74676000Y-116840000D03*
X214630235Y-115945683D03*
X190754000Y-99314000D03*
X190754000Y-96012000D03*
X190754000Y-93218000D03*
X190754000Y-87376000D03*
X170434000Y-99314000D03*
X172445138Y-96019196D03*
X172466000Y-93218000D03*
X172466000Y-87376000D03*
X154432000Y-96012000D03*
X154432000Y-93218000D03*
X154432000Y-87376000D03*
X137922000Y-99314000D03*
X136398000Y-96012000D03*
X136398000Y-93218000D03*
X136398000Y-87376000D03*
X120904000Y-99314000D03*
X118596006Y-96057864D03*
X118596008Y-87376609D03*
X118618000Y-93218000D03*
X165690836Y-115806047D03*
X165690836Y-112713024D03*
X165714447Y-107920018D03*
X120857718Y-104939867D03*
X120857718Y-107911591D03*
X120857718Y-115756070D03*
X120879569Y-112828047D03*
X101092000Y-96012000D03*
X101092000Y-93218000D03*
X101092000Y-87376000D03*
X77724000Y-99568000D03*
X76454000Y-99568000D03*
X82550000Y-96012000D03*
X82550000Y-93218000D03*
X82550000Y-87376000D03*
X82550000Y-83058000D03*
X214630000Y-112776000D03*
X188722000Y-102616000D03*
X188722000Y-104902000D03*
X188722000Y-107950000D03*
X188722000Y-112776000D03*
X188722000Y-115824000D03*
X143510000Y-104902000D03*
X143510000Y-107950000D03*
X143510000Y-112776000D03*
X143510000Y-115824000D03*
X98298000Y-104902000D03*
X98298000Y-107950000D03*
X98298000Y-112776000D03*
X98298000Y-115824000D03*
X214676000Y-120396000D03*
X209676000Y-120396000D03*
X204676000Y-120396000D03*
X199676000Y-120396000D03*
X194676000Y-120396000D03*
X189676000Y-120396000D03*
X184676000Y-120396000D03*
X179676000Y-120396000D03*
X174676000Y-120396000D03*
X169676000Y-120396000D03*
X164676000Y-120396000D03*
X159676000Y-120396000D03*
X154676000Y-120396000D03*
X149676000Y-120396000D03*
X144676000Y-120396000D03*
X139676000Y-120396000D03*
X134676000Y-120396000D03*
X129676000Y-120396000D03*
X124676000Y-120396000D03*
X119676000Y-120396000D03*
X114676000Y-120396000D03*
X109676000Y-120396000D03*
X104676000Y-120396000D03*
X99676000Y-120396000D03*
X94676000Y-120396000D03*
X89676000Y-120396000D03*
X84676000Y-120396000D03*
X79676000Y-120396000D03*
X74676000Y-120396000D03*
X214676000Y-74422000D03*
X209676000Y-74422000D03*
X204676000Y-74422000D03*
X199676000Y-74422000D03*
X194676000Y-74422000D03*
X189676000Y-74422000D03*
X184676000Y-74422000D03*
X179676000Y-74422000D03*
X174676000Y-74422000D03*
X169676000Y-74422000D03*
X164676000Y-74422000D03*
X159676000Y-74422000D03*
X154676000Y-74422000D03*
X149676000Y-74422000D03*
X144676000Y-74422000D03*
X139676000Y-74422000D03*
X134676000Y-74422000D03*
X129676000Y-74422000D03*
X124676000Y-74422000D03*
X119676000Y-74422000D03*
X114676000Y-74422000D03*
X109676000Y-74422000D03*
X104676000Y-74422000D03*
X99676000Y-74422000D03*
X94676000Y-74422000D03*
X89676000Y-74422000D03*
X84676000Y-74422000D03*
X79676000Y-74422000D03*
X74676000Y-74422000D03*
X90650159Y-108332823D03*
X197672695Y-106314744D03*
X87122000Y-106298231D03*
X107696000Y-106298231D03*
X132334000Y-106298231D03*
X152654000Y-106298231D03*
X177038000Y-106298231D03*
X111218622Y-108286385D03*
X135751618Y-108325839D03*
X156463608Y-108311764D03*
X180846361Y-108342804D03*
X201188715Y-108290810D03*
X106680000Y-84455000D03*
X79375000Y-84455000D03*
X210280246Y-101645689D03*
X125017172Y-83148682D03*
X97790000Y-83185000D03*
X142875000Y-84455000D03*
X114935000Y-84455000D03*
X161290000Y-83185000D03*
X133350000Y-83185000D03*
X178435000Y-84455000D03*
X151130000Y-84455000D03*
X197485000Y-83185000D03*
X169545000Y-83185000D03*
X214630000Y-84455000D03*
X187325000Y-84455000D03*
X197485000Y-80645000D03*
X121933074Y-100876805D03*
X166420824Y-104752359D03*
D18*
X68754000Y-99460000D02*
X71998756Y-99460000D01*
X71998756Y-99460000D02*
X79383756Y-92075000D01*
X79383756Y-92075000D02*
X84455000Y-92075000D01*
X174625000Y-92075000D02*
X192405000Y-92075000D01*
X192405000Y-92075000D02*
X210820000Y-92075000D01*
X156210000Y-92075000D02*
X174625000Y-92075000D01*
X138430000Y-92075000D02*
X156210000Y-92075000D01*
X120015000Y-92075000D02*
X138430000Y-92075000D01*
X102235000Y-92075000D02*
X120015000Y-92075000D01*
X84455000Y-92075000D02*
X102235000Y-92075000D01*
X68754000Y-96920000D02*
X72121291Y-96920000D01*
X72121291Y-96920000D02*
X78236291Y-90805000D01*
X78236291Y-90805000D02*
X84455000Y-90805000D01*
X120015000Y-90805000D02*
X138430000Y-90805000D01*
X138430000Y-90805000D02*
X156210000Y-90805000D01*
X174625000Y-90805000D02*
X192405000Y-90805000D01*
X192405000Y-90805000D02*
X210820000Y-90805000D01*
X156210000Y-90805000D02*
X174625000Y-90805000D01*
X102235000Y-90805000D02*
X120015000Y-90805000D01*
X84455000Y-90805000D02*
X102235000Y-90805000D01*
X99060000Y-81915000D02*
X89916000Y-81915000D01*
X89916000Y-81915000D02*
X80518000Y-81915000D01*
X80518000Y-81915000D02*
X76835000Y-81915000D01*
X76835000Y-81915000D02*
X73025000Y-85725000D01*
X152400000Y-81915000D02*
X161925000Y-81915000D01*
X161925000Y-81915000D02*
X170815000Y-81915000D01*
X180975000Y-81915000D02*
X188595000Y-81915000D01*
X188595000Y-81915000D02*
X198755000Y-81915000D01*
X170815000Y-81915000D02*
X180975000Y-81915000D01*
X144145000Y-81915000D02*
X152400000Y-81915000D01*
X126365000Y-81915000D02*
X134620000Y-81915000D01*
X134620000Y-81915000D02*
X144145000Y-81915000D01*
X107950000Y-81915000D02*
X116205000Y-81915000D01*
X116205000Y-81915000D02*
X126365000Y-81915000D01*
X99060000Y-81915000D02*
X107950000Y-81915000D01*
X208534000Y-93218000D02*
X208534000Y-96012000D01*
X72136000Y-113284000D02*
X66802000Y-107950000D01*
X66802000Y-107950000D02*
X65786000Y-107950000D01*
X214630000Y-115945448D02*
X214630235Y-115945683D01*
X214630000Y-112776000D02*
X214630000Y-115945448D01*
X190754000Y-93218000D02*
X190754000Y-96012000D01*
X172466000Y-95998334D02*
X172445138Y-96019196D01*
X172466000Y-93218000D02*
X172466000Y-95998334D01*
X154432000Y-93218000D02*
X154432000Y-96012000D01*
X136398000Y-93218000D02*
X136398000Y-96012000D01*
X118618000Y-96035870D02*
X118596006Y-96057864D01*
X118618000Y-93218000D02*
X118618000Y-96035870D01*
X165690836Y-116230311D02*
X165690836Y-115806047D01*
X165690836Y-119381164D02*
X165690836Y-116230311D01*
X164676000Y-120396000D02*
X165690836Y-119381164D01*
X120557719Y-116056069D02*
X120857718Y-115756070D01*
X119676000Y-116937788D02*
X120557719Y-116056069D01*
X119676000Y-120396000D02*
X119676000Y-116937788D01*
X101092000Y-93218000D02*
X101092000Y-96012000D01*
X75962000Y-101920000D02*
X75962000Y-100060000D01*
X75962000Y-100060000D02*
X76454000Y-99568000D01*
X82550000Y-93218000D02*
X82550000Y-96012000D01*
X188722000Y-104902000D02*
X188722000Y-102616000D01*
X189676000Y-120396000D02*
X189676000Y-116778000D01*
X189676000Y-116778000D02*
X188722000Y-115824000D01*
X144676000Y-120396000D02*
X144676000Y-116990000D01*
X144676000Y-116990000D02*
X143510000Y-115824000D01*
X98298000Y-115824000D02*
X98298000Y-112776000D01*
X209676000Y-120396000D02*
X214676000Y-120396000D01*
X204676000Y-120396000D02*
X209676000Y-120396000D01*
X199676000Y-120396000D02*
X204676000Y-120396000D01*
X194676000Y-120396000D02*
X199676000Y-120396000D01*
X189676000Y-120396000D02*
X194676000Y-120396000D01*
X184676000Y-120396000D02*
X189676000Y-120396000D01*
X179676000Y-120396000D02*
X184676000Y-120396000D01*
X174676000Y-120396000D02*
X179676000Y-120396000D01*
X169676000Y-120396000D02*
X174676000Y-120396000D01*
X164676000Y-120396000D02*
X169676000Y-120396000D01*
X159676000Y-120396000D02*
X164676000Y-120396000D01*
X154676000Y-120396000D02*
X159676000Y-120396000D01*
X149676000Y-120396000D02*
X154676000Y-120396000D01*
X144676000Y-120396000D02*
X149676000Y-120396000D01*
X139676000Y-120396000D02*
X144676000Y-120396000D01*
X134676000Y-120396000D02*
X139676000Y-120396000D01*
X129676000Y-120396000D02*
X134676000Y-120396000D01*
X124676000Y-120396000D02*
X129676000Y-120396000D01*
X119676000Y-120396000D02*
X124676000Y-120396000D01*
X114676000Y-120396000D02*
X119676000Y-120396000D01*
X109676000Y-120396000D02*
X114676000Y-120396000D01*
X104676000Y-120396000D02*
X109676000Y-120396000D01*
X99676000Y-120396000D02*
X104676000Y-120396000D01*
X94676000Y-120396000D02*
X99676000Y-120396000D01*
X89676000Y-120396000D02*
X94676000Y-120396000D01*
X84676000Y-120396000D02*
X89676000Y-120396000D01*
X79676000Y-120396000D02*
X84676000Y-120396000D01*
X74676000Y-120396000D02*
X79676000Y-120396000D01*
D19*
X209676000Y-74422000D02*
X214676000Y-74422000D01*
X204676000Y-74422000D02*
X209676000Y-74422000D01*
X199676000Y-74422000D02*
X204676000Y-74422000D01*
X194676000Y-74422000D02*
X199676000Y-74422000D01*
X189676000Y-74422000D02*
X194676000Y-74422000D01*
X184676000Y-74422000D02*
X189676000Y-74422000D01*
X179676000Y-74422000D02*
X184676000Y-74422000D01*
X174676000Y-74422000D02*
X179676000Y-74422000D01*
X169676000Y-74422000D02*
X174676000Y-74422000D01*
X164676000Y-74422000D02*
X169676000Y-74422000D01*
X159676000Y-74422000D02*
X164676000Y-74422000D01*
X154676000Y-74422000D02*
X159676000Y-74422000D01*
X149676000Y-74422000D02*
X154676000Y-74422000D01*
X144676000Y-74422000D02*
X149676000Y-74422000D01*
X139676000Y-74422000D02*
X144676000Y-74422000D01*
X134676000Y-74422000D02*
X139676000Y-74422000D01*
X129676000Y-74422000D02*
X134676000Y-74422000D01*
X124676000Y-74422000D02*
X129676000Y-74422000D01*
X119676000Y-74422000D02*
X124676000Y-74422000D01*
X114676000Y-74422000D02*
X119676000Y-74422000D01*
X109676000Y-74422000D02*
X114676000Y-74422000D01*
X104676000Y-74422000D02*
X109676000Y-74422000D01*
X99676000Y-74422000D02*
X104676000Y-74422000D01*
X94676000Y-74422000D02*
X99676000Y-74422000D01*
X89676000Y-74422000D02*
X94676000Y-74422000D01*
X84676000Y-74422000D02*
X89676000Y-74422000D01*
X79676000Y-74422000D02*
X84676000Y-74422000D01*
X74676000Y-74422000D02*
X79676000Y-74422000D01*
X88138000Y-108270000D02*
X88190966Y-108322966D01*
X88190966Y-108322966D02*
X90640302Y-108322966D01*
X90640302Y-108322966D02*
X90650159Y-108332823D01*
X197656182Y-106298231D02*
X197672695Y-106314744D01*
X177038000Y-106298231D02*
X197656182Y-106298231D01*
X82386498Y-106298231D02*
X87122000Y-106298231D01*
X87122000Y-106298231D02*
X107696000Y-106298231D01*
X107696000Y-106298231D02*
X132334000Y-106298231D01*
X132334000Y-106298231D02*
X152654000Y-106298231D01*
X152654000Y-106298231D02*
X177038000Y-106298231D01*
X77962000Y-102870000D02*
X78958267Y-102870000D01*
X78958267Y-102870000D02*
X82386498Y-106298231D01*
X111202237Y-108270000D02*
X111218622Y-108286385D01*
X108712000Y-108270000D02*
X111202237Y-108270000D01*
X133096000Y-108270000D02*
X133142893Y-108316893D01*
X133142893Y-108316893D02*
X135742672Y-108316893D01*
X135742672Y-108316893D02*
X135751618Y-108325839D01*
X153670000Y-108270000D02*
X153714886Y-108314886D01*
X153714886Y-108314886D02*
X156460486Y-108314886D01*
X156460486Y-108314886D02*
X156463608Y-108311764D01*
X178308000Y-108270000D02*
X178359278Y-108321278D01*
X178359278Y-108321278D02*
X180824835Y-108321278D01*
X180824835Y-108321278D02*
X180846361Y-108342804D01*
X198882000Y-108270000D02*
X201167905Y-108270000D01*
X201167905Y-108270000D02*
X201188715Y-108290810D01*
D18*
X79375000Y-84455000D02*
X106680000Y-84455000D01*
D19*
X88274000Y-102247560D02*
X88274000Y-99699000D01*
X88274000Y-99699000D02*
X88265000Y-99690000D01*
X108774000Y-102247560D02*
X108774000Y-99752000D01*
X108774000Y-99752000D02*
X108712000Y-99690000D01*
X133287800Y-102247560D02*
X133287800Y-99752200D01*
X133287800Y-99752200D02*
X133350000Y-99690000D01*
X153787800Y-102247560D02*
X153787800Y-99699200D01*
X153787800Y-99699200D02*
X153797000Y-99690000D01*
X178297000Y-102247560D02*
X178297000Y-99701000D01*
X178297000Y-99701000D02*
X178308000Y-99690000D01*
X198797000Y-102247560D02*
X198797000Y-99732000D01*
X198797000Y-99732000D02*
X198755000Y-99690000D01*
X198755000Y-97790000D02*
X215950577Y-97790000D01*
X178308000Y-97790000D02*
X198755000Y-97790000D01*
X153797000Y-97790000D02*
X178308000Y-97790000D01*
X133350000Y-97790000D02*
X153797000Y-97790000D01*
X108712000Y-97790000D02*
X133350000Y-97790000D01*
X88265000Y-97790000D02*
X108712000Y-97790000D01*
X216350577Y-98190000D02*
X215950577Y-97790000D01*
X218754000Y-98190000D02*
X216350577Y-98190000D01*
X73660000Y-103820000D02*
X75962000Y-103820000D01*
D18*
X202982811Y-101645689D02*
X210280246Y-101645689D01*
X201672280Y-102956220D02*
X202982811Y-101645689D01*
X97790000Y-83185000D02*
X124980854Y-83185000D01*
X124980854Y-83185000D02*
X125017172Y-83148682D01*
X114935000Y-84455000D02*
X142875000Y-84455000D01*
X133350000Y-83185000D02*
X161290000Y-83185000D01*
X151130000Y-84455000D02*
X178435000Y-84455000D01*
X169545000Y-83185000D02*
X197485000Y-83185000D01*
X187325000Y-84455000D02*
X214630000Y-84455000D01*
X197485000Y-80645000D02*
X74930000Y-80645000D01*
X74930000Y-80645000D02*
X71763030Y-83811970D01*
X71763030Y-83811970D02*
X71763030Y-93336970D01*
X71763030Y-93336970D02*
X70720000Y-94380000D01*
X70720000Y-94380000D02*
X68754000Y-94380000D01*
D19*
X178308000Y-110170000D02*
X182033973Y-110170000D01*
X182033973Y-110170000D02*
X182983973Y-109220000D01*
X182983973Y-109220000D02*
X194157853Y-109220000D01*
X194157853Y-109220000D02*
X195107853Y-110170000D01*
X195107853Y-110170000D02*
X198882000Y-110170000D01*
X133096000Y-110170000D02*
X137238693Y-110170000D01*
X137238693Y-110170000D02*
X138188693Y-109220000D01*
X138188693Y-109220000D02*
X149285227Y-109220000D01*
X149285227Y-109220000D02*
X150235227Y-110170000D01*
X150235227Y-110170000D02*
X153670000Y-110170000D01*
X153670000Y-110170000D02*
X157557474Y-110170000D01*
X157557474Y-110170000D02*
X158507474Y-109220000D01*
X158507474Y-109220000D02*
X173777989Y-109220000D01*
X173777989Y-109220000D02*
X174727989Y-110170000D01*
X174727989Y-110170000D02*
X178308000Y-110170000D01*
X108712000Y-110170000D02*
X112657634Y-110170000D01*
X112657634Y-110170000D02*
X113607634Y-109220000D01*
X113607634Y-109220000D02*
X128646473Y-109220000D01*
X128646473Y-109220000D02*
X129596473Y-110170000D01*
X129596473Y-110170000D02*
X133096000Y-110170000D01*
X88138000Y-110170000D02*
X91985585Y-110170000D01*
X91985585Y-110170000D02*
X92935585Y-109220000D01*
X92935585Y-109220000D02*
X104240071Y-109220000D01*
X105190071Y-110170000D02*
X108712000Y-110170000D01*
X104240071Y-109220000D02*
X105190071Y-110170000D01*
X88138000Y-110170000D02*
X84778391Y-110170000D01*
X84778391Y-110170000D02*
X83828391Y-109220000D01*
X83828391Y-109220000D02*
X75679158Y-109220000D01*
X75679158Y-109220000D02*
X70999158Y-104540000D01*
X70999158Y-104540000D02*
X68754000Y-104540000D01*
D18*
X113728695Y-100876805D02*
X121933074Y-100876805D01*
X111649280Y-102956220D02*
X113728695Y-100876805D01*
X156663080Y-102956220D02*
X159598165Y-102956220D01*
X159598165Y-102956220D02*
X161394304Y-104752359D01*
X161394304Y-104752359D02*
X166420824Y-104752359D01*
D19*
X73660000Y-101920000D02*
X68834000Y-101920000D01*
X68834000Y-101920000D02*
X68754000Y-102000000D01*
D20*
G36*
X222758000Y-121094500D02*
X64579500Y-121094500D01*
X64579500Y-117391076D01*
X66369787Y-117391076D01*
X66732126Y-118268003D01*
X67402468Y-118939516D01*
X68278761Y-119303385D01*
X69227596Y-119304213D01*
X70104523Y-118941874D01*
X70776036Y-118271532D01*
X71139905Y-117395239D01*
X71139908Y-117391076D01*
X216369487Y-117391076D01*
X216731826Y-118268003D01*
X217402168Y-118939516D01*
X218278461Y-119303385D01*
X219227296Y-119304213D01*
X220104223Y-118941874D01*
X220775736Y-118271532D01*
X221139605Y-117395239D01*
X221140433Y-116446404D01*
X220778094Y-115569477D01*
X220107752Y-114897964D01*
X219231459Y-114534095D01*
X218282624Y-114533267D01*
X217405697Y-114895606D01*
X216734184Y-115565948D01*
X216370315Y-116442241D01*
X216369487Y-117391076D01*
X71139908Y-117391076D01*
X71140733Y-116446404D01*
X70778394Y-115569477D01*
X70108052Y-114897964D01*
X69640204Y-114703696D01*
X85484854Y-114703696D01*
X85683580Y-115184651D01*
X86051234Y-115552946D01*
X86531841Y-115752512D01*
X87052236Y-115752966D01*
X87533191Y-115554240D01*
X87901486Y-115186586D01*
X88101052Y-114705979D01*
X88101053Y-114703696D01*
X88446494Y-114703696D01*
X88645220Y-115184651D01*
X89012874Y-115552946D01*
X89493481Y-115752512D01*
X90013876Y-115752966D01*
X90494831Y-115554240D01*
X90863126Y-115186586D01*
X91062692Y-114705979D01*
X91062693Y-114703696D01*
X105984854Y-114703696D01*
X106183580Y-115184651D01*
X106551234Y-115552946D01*
X107031841Y-115752512D01*
X107552236Y-115752966D01*
X108033191Y-115554240D01*
X108401486Y-115186586D01*
X108601052Y-114705979D01*
X108601053Y-114703696D01*
X108946494Y-114703696D01*
X109145220Y-115184651D01*
X109512874Y-115552946D01*
X109993481Y-115752512D01*
X110513876Y-115752966D01*
X110994831Y-115554240D01*
X111363126Y-115186586D01*
X111562692Y-114705979D01*
X111562693Y-114703696D01*
X130498654Y-114703696D01*
X130697380Y-115184651D01*
X131065034Y-115552946D01*
X131545641Y-115752512D01*
X132066036Y-115752966D01*
X132546991Y-115554240D01*
X132915286Y-115186586D01*
X133114852Y-114705979D01*
X133114853Y-114703696D01*
X133460294Y-114703696D01*
X133659020Y-115184651D01*
X134026674Y-115552946D01*
X134507281Y-115752512D01*
X135027676Y-115752966D01*
X135508631Y-115554240D01*
X135876926Y-115186586D01*
X136076492Y-114705979D01*
X136076493Y-114703696D01*
X150998654Y-114703696D01*
X151197380Y-115184651D01*
X151565034Y-115552946D01*
X152045641Y-115752512D01*
X152566036Y-115752966D01*
X153046991Y-115554240D01*
X153415286Y-115186586D01*
X153614852Y-114705979D01*
X153614853Y-114703696D01*
X153960294Y-114703696D01*
X154159020Y-115184651D01*
X154526674Y-115552946D01*
X155007281Y-115752512D01*
X155527676Y-115752966D01*
X156008631Y-115554240D01*
X156376926Y-115186586D01*
X156576492Y-114705979D01*
X156576493Y-114703696D01*
X175507854Y-114703696D01*
X175706580Y-115184651D01*
X176074234Y-115552946D01*
X176554841Y-115752512D01*
X177075236Y-115752966D01*
X177556191Y-115554240D01*
X177924486Y-115186586D01*
X178124052Y-114705979D01*
X178124053Y-114703696D01*
X178469494Y-114703696D01*
X178668220Y-115184651D01*
X179035874Y-115552946D01*
X179516481Y-115752512D01*
X180036876Y-115752966D01*
X180517831Y-115554240D01*
X180886126Y-115186586D01*
X181085692Y-114705979D01*
X181085693Y-114703696D01*
X196007854Y-114703696D01*
X196206580Y-115184651D01*
X196574234Y-115552946D01*
X197054841Y-115752512D01*
X197575236Y-115752966D01*
X198056191Y-115554240D01*
X198424486Y-115186586D01*
X198624052Y-114705979D01*
X198624053Y-114703696D01*
X198969494Y-114703696D01*
X199168220Y-115184651D01*
X199535874Y-115552946D01*
X200016481Y-115752512D01*
X200536876Y-115752966D01*
X201017831Y-115554240D01*
X201386126Y-115186586D01*
X201585692Y-114705979D01*
X201586146Y-114185584D01*
X201387420Y-113704629D01*
X201019766Y-113336334D01*
X200997326Y-113327016D01*
X201593314Y-113327016D01*
X201792040Y-113807971D01*
X202159694Y-114176266D01*
X202640301Y-114375832D01*
X203160696Y-114376286D01*
X203641651Y-114177560D01*
X204009946Y-113809906D01*
X204209512Y-113329299D01*
X204209966Y-112808904D01*
X204011240Y-112327949D01*
X203643586Y-111959654D01*
X203162979Y-111760088D01*
X202642584Y-111759634D01*
X202161629Y-111958360D01*
X201793334Y-112326014D01*
X201593768Y-112806621D01*
X201593314Y-113327016D01*
X200997326Y-113327016D01*
X200539159Y-113136768D01*
X200018764Y-113136314D01*
X199537809Y-113335040D01*
X199169514Y-113702694D01*
X198969948Y-114183301D01*
X198969494Y-114703696D01*
X198624053Y-114703696D01*
X198624506Y-114185584D01*
X198425780Y-113704629D01*
X198058126Y-113336334D01*
X197577519Y-113136768D01*
X197057124Y-113136314D01*
X196576169Y-113335040D01*
X196207874Y-113702694D01*
X196008308Y-114183301D01*
X196007854Y-114703696D01*
X181085693Y-114703696D01*
X181086146Y-114185584D01*
X180887420Y-113704629D01*
X180519766Y-113336334D01*
X180497326Y-113327016D01*
X181093314Y-113327016D01*
X181292040Y-113807971D01*
X181659694Y-114176266D01*
X182140301Y-114375832D01*
X182660696Y-114376286D01*
X183141651Y-114177560D01*
X183509946Y-113809906D01*
X183709512Y-113329299D01*
X183709513Y-113327016D01*
X193384034Y-113327016D01*
X193582760Y-113807971D01*
X193950414Y-114176266D01*
X194431021Y-114375832D01*
X194951416Y-114376286D01*
X195432371Y-114177560D01*
X195800666Y-113809906D01*
X196000232Y-113329299D01*
X196000686Y-112808904D01*
X195801960Y-112327949D01*
X195434306Y-111959654D01*
X194953699Y-111760088D01*
X194433304Y-111759634D01*
X193952349Y-111958360D01*
X193584054Y-112326014D01*
X193384488Y-112806621D01*
X193384034Y-113327016D01*
X183709513Y-113327016D01*
X183709966Y-112808904D01*
X183511240Y-112327949D01*
X183143586Y-111959654D01*
X182662979Y-111760088D01*
X182142584Y-111759634D01*
X181661629Y-111958360D01*
X181293334Y-112326014D01*
X181093768Y-112806621D01*
X181093314Y-113327016D01*
X180497326Y-113327016D01*
X180039159Y-113136768D01*
X179518764Y-113136314D01*
X179037809Y-113335040D01*
X178669514Y-113702694D01*
X178469948Y-114183301D01*
X178469494Y-114703696D01*
X178124053Y-114703696D01*
X178124506Y-114185584D01*
X177925780Y-113704629D01*
X177558126Y-113336334D01*
X177077519Y-113136768D01*
X176557124Y-113136314D01*
X176076169Y-113335040D01*
X175707874Y-113702694D01*
X175508308Y-114183301D01*
X175507854Y-114703696D01*
X156576493Y-114703696D01*
X156576946Y-114185584D01*
X156378220Y-113704629D01*
X156010566Y-113336334D01*
X155988126Y-113327016D01*
X156584114Y-113327016D01*
X156782840Y-113807971D01*
X157150494Y-114176266D01*
X157631101Y-114375832D01*
X158151496Y-114376286D01*
X158632451Y-114177560D01*
X159000746Y-113809906D01*
X159200312Y-113329299D01*
X159200313Y-113327016D01*
X172884034Y-113327016D01*
X173082760Y-113807971D01*
X173450414Y-114176266D01*
X173931021Y-114375832D01*
X174451416Y-114376286D01*
X174932371Y-114177560D01*
X175300666Y-113809906D01*
X175500232Y-113329299D01*
X175500686Y-112808904D01*
X175301960Y-112327949D01*
X174934306Y-111959654D01*
X174453699Y-111760088D01*
X173933304Y-111759634D01*
X173452349Y-111958360D01*
X173084054Y-112326014D01*
X172884488Y-112806621D01*
X172884034Y-113327016D01*
X159200313Y-113327016D01*
X159200766Y-112808904D01*
X159002040Y-112327949D01*
X158634386Y-111959654D01*
X158153779Y-111760088D01*
X157633384Y-111759634D01*
X157152429Y-111958360D01*
X156784134Y-112326014D01*
X156584568Y-112806621D01*
X156584114Y-113327016D01*
X155988126Y-113327016D01*
X155529959Y-113136768D01*
X155009564Y-113136314D01*
X154528609Y-113335040D01*
X154160314Y-113702694D01*
X153960748Y-114183301D01*
X153960294Y-114703696D01*
X153614853Y-114703696D01*
X153615306Y-114185584D01*
X153416580Y-113704629D01*
X153048926Y-113336334D01*
X152568319Y-113136768D01*
X152047924Y-113136314D01*
X151566969Y-113335040D01*
X151198674Y-113702694D01*
X150999108Y-114183301D01*
X150998654Y-114703696D01*
X136076493Y-114703696D01*
X136076946Y-114185584D01*
X135878220Y-113704629D01*
X135510566Y-113336334D01*
X135488126Y-113327016D01*
X136084114Y-113327016D01*
X136282840Y-113807971D01*
X136650494Y-114176266D01*
X137131101Y-114375832D01*
X137651496Y-114376286D01*
X138132451Y-114177560D01*
X138500746Y-113809906D01*
X138700312Y-113329299D01*
X138700313Y-113327016D01*
X148374834Y-113327016D01*
X148573560Y-113807971D01*
X148941214Y-114176266D01*
X149421821Y-114375832D01*
X149942216Y-114376286D01*
X150423171Y-114177560D01*
X150791466Y-113809906D01*
X150991032Y-113329299D01*
X150991486Y-112808904D01*
X150792760Y-112327949D01*
X150425106Y-111959654D01*
X149944499Y-111760088D01*
X149424104Y-111759634D01*
X148943149Y-111958360D01*
X148574854Y-112326014D01*
X148375288Y-112806621D01*
X148374834Y-113327016D01*
X138700313Y-113327016D01*
X138700766Y-112808904D01*
X138502040Y-112327949D01*
X138134386Y-111959654D01*
X137653779Y-111760088D01*
X137133384Y-111759634D01*
X136652429Y-111958360D01*
X136284134Y-112326014D01*
X136084568Y-112806621D01*
X136084114Y-113327016D01*
X135488126Y-113327016D01*
X135029959Y-113136768D01*
X134509564Y-113136314D01*
X134028609Y-113335040D01*
X133660314Y-113702694D01*
X133460748Y-114183301D01*
X133460294Y-114703696D01*
X133114853Y-114703696D01*
X133115306Y-114185584D01*
X132916580Y-113704629D01*
X132548926Y-113336334D01*
X132068319Y-113136768D01*
X131547924Y-113136314D01*
X131066969Y-113335040D01*
X130698674Y-113702694D01*
X130499108Y-114183301D01*
X130498654Y-114703696D01*
X111562693Y-114703696D01*
X111563146Y-114185584D01*
X111364420Y-113704629D01*
X110996766Y-113336334D01*
X110974326Y-113327016D01*
X111570314Y-113327016D01*
X111769040Y-113807971D01*
X112136694Y-114176266D01*
X112617301Y-114375832D01*
X113137696Y-114376286D01*
X113618651Y-114177560D01*
X113986946Y-113809906D01*
X114186512Y-113329299D01*
X114186513Y-113327016D01*
X127874834Y-113327016D01*
X128073560Y-113807971D01*
X128441214Y-114176266D01*
X128921821Y-114375832D01*
X129442216Y-114376286D01*
X129923171Y-114177560D01*
X130291466Y-113809906D01*
X130491032Y-113329299D01*
X130491486Y-112808904D01*
X130292760Y-112327949D01*
X129925106Y-111959654D01*
X129444499Y-111760088D01*
X128924104Y-111759634D01*
X128443149Y-111958360D01*
X128074854Y-112326014D01*
X127875288Y-112806621D01*
X127874834Y-113327016D01*
X114186513Y-113327016D01*
X114186966Y-112808904D01*
X113988240Y-112327949D01*
X113620586Y-111959654D01*
X113139979Y-111760088D01*
X112619584Y-111759634D01*
X112138629Y-111958360D01*
X111770334Y-112326014D01*
X111570768Y-112806621D01*
X111570314Y-113327016D01*
X110974326Y-113327016D01*
X110516159Y-113136768D01*
X109995764Y-113136314D01*
X109514809Y-113335040D01*
X109146514Y-113702694D01*
X108946948Y-114183301D01*
X108946494Y-114703696D01*
X108601053Y-114703696D01*
X108601506Y-114185584D01*
X108402780Y-113704629D01*
X108035126Y-113336334D01*
X107554519Y-113136768D01*
X107034124Y-113136314D01*
X106553169Y-113335040D01*
X106184874Y-113702694D01*
X105985308Y-114183301D01*
X105984854Y-114703696D01*
X91062693Y-114703696D01*
X91063146Y-114185584D01*
X90864420Y-113704629D01*
X90496766Y-113336334D01*
X90474326Y-113327016D01*
X91070314Y-113327016D01*
X91269040Y-113807971D01*
X91636694Y-114176266D01*
X92117301Y-114375832D01*
X92637696Y-114376286D01*
X93118651Y-114177560D01*
X93486946Y-113809906D01*
X93686512Y-113329299D01*
X93686513Y-113327016D01*
X103361034Y-113327016D01*
X103559760Y-113807971D01*
X103927414Y-114176266D01*
X104408021Y-114375832D01*
X104928416Y-114376286D01*
X105409371Y-114177560D01*
X105777666Y-113809906D01*
X105977232Y-113329299D01*
X105977686Y-112808904D01*
X105778960Y-112327949D01*
X105411306Y-111959654D01*
X104930699Y-111760088D01*
X104410304Y-111759634D01*
X103929349Y-111958360D01*
X103561054Y-112326014D01*
X103361488Y-112806621D01*
X103361034Y-113327016D01*
X93686513Y-113327016D01*
X93686966Y-112808904D01*
X93488240Y-112327949D01*
X93120586Y-111959654D01*
X92639979Y-111760088D01*
X92119584Y-111759634D01*
X91638629Y-111958360D01*
X91270334Y-112326014D01*
X91070768Y-112806621D01*
X91070314Y-113327016D01*
X90474326Y-113327016D01*
X90016159Y-113136768D01*
X89495764Y-113136314D01*
X89014809Y-113335040D01*
X88646514Y-113702694D01*
X88446948Y-114183301D01*
X88446494Y-114703696D01*
X88101053Y-114703696D01*
X88101506Y-114185584D01*
X87902780Y-113704629D01*
X87535126Y-113336334D01*
X87054519Y-113136768D01*
X86534124Y-113136314D01*
X86053169Y-113335040D01*
X85684874Y-113702694D01*
X85485308Y-114183301D01*
X85484854Y-114703696D01*
X69640204Y-114703696D01*
X69231759Y-114534095D01*
X68282924Y-114533267D01*
X67405997Y-114895606D01*
X66734484Y-115565948D01*
X66370615Y-116442241D01*
X66369787Y-117391076D01*
X64579500Y-117391076D01*
X64579500Y-113327016D01*
X82861034Y-113327016D01*
X83059760Y-113807971D01*
X83427414Y-114176266D01*
X83908021Y-114375832D01*
X84428416Y-114376286D01*
X84909371Y-114177560D01*
X85277666Y-113809906D01*
X85477232Y-113329299D01*
X85477686Y-112808904D01*
X85278960Y-112327949D01*
X84911306Y-111959654D01*
X84430699Y-111760088D01*
X83910304Y-111759634D01*
X83429349Y-111958360D01*
X83061054Y-112326014D01*
X82861488Y-112806621D01*
X82861034Y-113327016D01*
X64579500Y-113327016D01*
X64579500Y-91840000D01*
X67239907Y-91840000D01*
X67352946Y-92408285D01*
X67674853Y-92890054D01*
X68004026Y-93110000D01*
X67674853Y-93329946D01*
X67352946Y-93811715D01*
X67239907Y-94380000D01*
X67352946Y-94948285D01*
X67674853Y-95430054D01*
X68004026Y-95650000D01*
X67674853Y-95869946D01*
X67352946Y-96351715D01*
X67239907Y-96920000D01*
X67352946Y-97488285D01*
X67674853Y-97970054D01*
X68004026Y-98190000D01*
X67674853Y-98409946D01*
X67352946Y-98891715D01*
X67239907Y-99460000D01*
X67352946Y-100028285D01*
X67674853Y-100510054D01*
X68004026Y-100730000D01*
X67674853Y-100949946D01*
X67352946Y-101431715D01*
X67239907Y-102000000D01*
X67352946Y-102568285D01*
X67674853Y-103050054D01*
X67716452Y-103077850D01*
X67668683Y-103086838D01*
X67452559Y-103225910D01*
X67307569Y-103438110D01*
X67256560Y-103690000D01*
X67256560Y-105390000D01*
X67300838Y-105625317D01*
X67439910Y-105841441D01*
X67652110Y-105986431D01*
X67904000Y-106037440D01*
X69604000Y-106037440D01*
X69839317Y-105993162D01*
X70055441Y-105854090D01*
X70200431Y-105641890D01*
X70244352Y-105425000D01*
X70632578Y-105425000D01*
X75053366Y-109845787D01*
X75053368Y-109845790D01*
X75340483Y-110037633D01*
X75679158Y-110105000D01*
X81289307Y-110105000D01*
X81180008Y-110368221D01*
X81179554Y-110888616D01*
X81378280Y-111369571D01*
X81745934Y-111737866D01*
X82226541Y-111937432D01*
X82746936Y-111937886D01*
X83227891Y-111739160D01*
X83596186Y-111371506D01*
X83795752Y-110890899D01*
X83796146Y-110439334D01*
X84152599Y-110795787D01*
X84152601Y-110795790D01*
X84439716Y-110987633D01*
X84495907Y-110998810D01*
X84778391Y-111055001D01*
X84778396Y-111055000D01*
X87146203Y-111055000D01*
X87236110Y-111116431D01*
X87488000Y-111167440D01*
X88788000Y-111167440D01*
X89023317Y-111123162D01*
X89129244Y-111055000D01*
X91985580Y-111055000D01*
X91985585Y-111055001D01*
X92268069Y-110998810D01*
X92324260Y-110987633D01*
X92611375Y-110795790D01*
X92751998Y-110655167D01*
X92751794Y-110888616D01*
X92950520Y-111369571D01*
X93318174Y-111737866D01*
X93798781Y-111937432D01*
X94319176Y-111937886D01*
X94800131Y-111739160D01*
X95168426Y-111371506D01*
X95367992Y-110890899D01*
X95368446Y-110370504D01*
X95258742Y-110105000D01*
X101789307Y-110105000D01*
X101680008Y-110368221D01*
X101679554Y-110888616D01*
X101878280Y-111369571D01*
X102245934Y-111737866D01*
X102726541Y-111937432D01*
X103246936Y-111937886D01*
X103727891Y-111739160D01*
X104096186Y-111371506D01*
X104295752Y-110890899D01*
X104296069Y-110527577D01*
X104564279Y-110795787D01*
X104564281Y-110795790D01*
X104851396Y-110987633D01*
X104907587Y-110998810D01*
X105190071Y-111055001D01*
X105190076Y-111055000D01*
X107720203Y-111055000D01*
X107810110Y-111116431D01*
X108062000Y-111167440D01*
X109362000Y-111167440D01*
X109597317Y-111123162D01*
X109703244Y-111055000D01*
X112657629Y-111055000D01*
X112657634Y-111055001D01*
X112940118Y-110998810D01*
X112996309Y-110987633D01*
X113251857Y-110816883D01*
X113251794Y-110888616D01*
X113450520Y-111369571D01*
X113818174Y-111737866D01*
X114298781Y-111937432D01*
X114819176Y-111937886D01*
X115300131Y-111739160D01*
X115668426Y-111371506D01*
X115867992Y-110890899D01*
X115868446Y-110370504D01*
X115758742Y-110105000D01*
X126303107Y-110105000D01*
X126193808Y-110368221D01*
X126193354Y-110888616D01*
X126392080Y-111369571D01*
X126759734Y-111737866D01*
X127240341Y-111937432D01*
X127760736Y-111937886D01*
X128241691Y-111739160D01*
X128609986Y-111371506D01*
X128809552Y-110890899D01*
X128809775Y-110634882D01*
X128970681Y-110795787D01*
X128970683Y-110795790D01*
X129257798Y-110987633D01*
X129313989Y-110998810D01*
X129596473Y-111055001D01*
X129596478Y-111055000D01*
X132104203Y-111055000D01*
X132194110Y-111116431D01*
X132446000Y-111167440D01*
X133746000Y-111167440D01*
X133981317Y-111123162D01*
X134087244Y-111055000D01*
X137238688Y-111055000D01*
X137238693Y-111055001D01*
X137521177Y-110998810D01*
X137577368Y-110987633D01*
X137765617Y-110861850D01*
X137765594Y-110888616D01*
X137964320Y-111369571D01*
X138331974Y-111737866D01*
X138812581Y-111937432D01*
X139332976Y-111937886D01*
X139813931Y-111739160D01*
X140182226Y-111371506D01*
X140381792Y-110890899D01*
X140382246Y-110370504D01*
X140272542Y-110105000D01*
X146803107Y-110105000D01*
X146693808Y-110368221D01*
X146693354Y-110888616D01*
X146892080Y-111369571D01*
X147259734Y-111737866D01*
X147740341Y-111937432D01*
X148260736Y-111937886D01*
X148741691Y-111739160D01*
X149109986Y-111371506D01*
X149309552Y-110890899D01*
X149309896Y-110496249D01*
X149609435Y-110795787D01*
X149609437Y-110795790D01*
X149896552Y-110987633D01*
X149952743Y-110998810D01*
X150235227Y-111055001D01*
X150235232Y-111055000D01*
X152678203Y-111055000D01*
X152768110Y-111116431D01*
X153020000Y-111167440D01*
X154320000Y-111167440D01*
X154555317Y-111123162D01*
X154661244Y-111055000D01*
X157557469Y-111055000D01*
X157557474Y-111055001D01*
X157839958Y-110998810D01*
X157896149Y-110987633D01*
X158183264Y-110795790D01*
X158265747Y-110713307D01*
X158265594Y-110888616D01*
X158464320Y-111369571D01*
X158831974Y-111737866D01*
X159312581Y-111937432D01*
X159832976Y-111937886D01*
X160313931Y-111739160D01*
X160682226Y-111371506D01*
X160881792Y-110890899D01*
X160882246Y-110370504D01*
X160772542Y-110105000D01*
X171312307Y-110105000D01*
X171203008Y-110368221D01*
X171202554Y-110888616D01*
X171401280Y-111369571D01*
X171768934Y-111737866D01*
X172249541Y-111937432D01*
X172769936Y-111937886D01*
X173250891Y-111739160D01*
X173619186Y-111371506D01*
X173818752Y-110890899D01*
X173819082Y-110512672D01*
X174102197Y-110795787D01*
X174102199Y-110795790D01*
X174389314Y-110987633D01*
X174445505Y-110998810D01*
X174727989Y-111055001D01*
X174727994Y-111055000D01*
X177316203Y-111055000D01*
X177406110Y-111116431D01*
X177658000Y-111167440D01*
X178958000Y-111167440D01*
X179193317Y-111123162D01*
X179299244Y-111055000D01*
X182033968Y-111055000D01*
X182033973Y-111055001D01*
X182316457Y-110998810D01*
X182372648Y-110987633D01*
X182659763Y-110795790D01*
X182774975Y-110680577D01*
X182774794Y-110888616D01*
X182973520Y-111369571D01*
X183341174Y-111737866D01*
X183821781Y-111937432D01*
X184342176Y-111937886D01*
X184823131Y-111739160D01*
X185191426Y-111371506D01*
X185390992Y-110890899D01*
X185391446Y-110370504D01*
X185281742Y-110105000D01*
X191812307Y-110105000D01*
X191703008Y-110368221D01*
X191702554Y-110888616D01*
X191901280Y-111369571D01*
X192268934Y-111737866D01*
X192749541Y-111937432D01*
X193269936Y-111937886D01*
X193750891Y-111739160D01*
X194119186Y-111371506D01*
X194318752Y-110890899D01*
X194318977Y-110632703D01*
X194482061Y-110795787D01*
X194482063Y-110795790D01*
X194769178Y-110987633D01*
X194825369Y-110998810D01*
X195107853Y-111055001D01*
X195107858Y-111055000D01*
X197890203Y-111055000D01*
X197980110Y-111116431D01*
X198232000Y-111167440D01*
X199532000Y-111167440D01*
X199767317Y-111123162D01*
X199983441Y-110984090D01*
X200048675Y-110888616D01*
X203274794Y-110888616D01*
X203473520Y-111369571D01*
X203841174Y-111737866D01*
X204321781Y-111937432D01*
X204842176Y-111937886D01*
X205323131Y-111739160D01*
X205691426Y-111371506D01*
X205890992Y-110890899D01*
X205891446Y-110370504D01*
X205692720Y-109889549D01*
X205325066Y-109521254D01*
X204844459Y-109321688D01*
X204324064Y-109321234D01*
X203843109Y-109519960D01*
X203474814Y-109887614D01*
X203275248Y-110368221D01*
X203274794Y-110888616D01*
X200048675Y-110888616D01*
X200128431Y-110771890D01*
X200179440Y-110520000D01*
X200179440Y-109820000D01*
X200135162Y-109584683D01*
X199996090Y-109368559D01*
X199783890Y-109223569D01*
X199770803Y-109220919D01*
X199873244Y-109155000D01*
X200831778Y-109155000D01*
X201001916Y-109225648D01*
X201373882Y-109225972D01*
X201717658Y-109083927D01*
X201980907Y-108821137D01*
X202123553Y-108477609D01*
X202123877Y-108105643D01*
X202059500Y-107949836D01*
X203632934Y-107949836D01*
X203831660Y-108430791D01*
X204199314Y-108799086D01*
X204679921Y-108998652D01*
X205200316Y-108999106D01*
X205681271Y-108800380D01*
X206049566Y-108432726D01*
X206249132Y-107952119D01*
X206249586Y-107431724D01*
X206050860Y-106950769D01*
X205683206Y-106582474D01*
X205202599Y-106382908D01*
X204682204Y-106382454D01*
X204201249Y-106581180D01*
X203832954Y-106948834D01*
X203633388Y-107429441D01*
X203632934Y-107949836D01*
X202059500Y-107949836D01*
X201981832Y-107761867D01*
X201719042Y-107498618D01*
X201375514Y-107355972D01*
X201003548Y-107355648D01*
X200932511Y-107385000D01*
X199873797Y-107385000D01*
X199783890Y-107323569D01*
X199532000Y-107272560D01*
X198232000Y-107272560D01*
X197996683Y-107316838D01*
X197780559Y-107455910D01*
X197635569Y-107668110D01*
X197584560Y-107920000D01*
X197584560Y-108620000D01*
X197628838Y-108855317D01*
X197767910Y-109071441D01*
X197980110Y-109216431D01*
X197993197Y-109219081D01*
X197890756Y-109285000D01*
X195474432Y-109285000D01*
X194783643Y-108594210D01*
X194686951Y-108529603D01*
X194496528Y-108402367D01*
X194440337Y-108391190D01*
X194157853Y-108334999D01*
X194157848Y-108335000D01*
X193801625Y-108335000D01*
X193960612Y-107952119D01*
X193961066Y-107431724D01*
X193858391Y-107183231D01*
X197326106Y-107183231D01*
X197485896Y-107249582D01*
X197857862Y-107249906D01*
X198201638Y-107107861D01*
X198464887Y-106845071D01*
X198607533Y-106501543D01*
X198607857Y-106129577D01*
X198465812Y-105785801D01*
X198203022Y-105522552D01*
X197859494Y-105379906D01*
X197487528Y-105379582D01*
X197406091Y-105413231D01*
X194915732Y-105413231D01*
X195012172Y-105180979D01*
X195012173Y-105178696D01*
X202581374Y-105178696D01*
X202780100Y-105659651D01*
X203147754Y-106027946D01*
X203628361Y-106227512D01*
X204148756Y-106227966D01*
X204434256Y-106110000D01*
X209487143Y-106110000D01*
X209487143Y-112480000D01*
X221042857Y-112480000D01*
X221042857Y-106110000D01*
X209487143Y-106110000D01*
X204434256Y-106110000D01*
X204629711Y-106029240D01*
X204998006Y-105661586D01*
X205197572Y-105180979D01*
X205198026Y-104660584D01*
X204999300Y-104179629D01*
X204631646Y-103811334D01*
X204151039Y-103611768D01*
X203630644Y-103611314D01*
X203149689Y-103810040D01*
X202781394Y-104177694D01*
X202581828Y-104658301D01*
X202581374Y-105178696D01*
X195012173Y-105178696D01*
X195012626Y-104660584D01*
X194813900Y-104179629D01*
X194446246Y-103811334D01*
X193965639Y-103611768D01*
X193445244Y-103611314D01*
X192964289Y-103810040D01*
X192595994Y-104177694D01*
X192396428Y-104658301D01*
X192395974Y-105178696D01*
X192492882Y-105413231D01*
X184601132Y-105413231D01*
X184697572Y-105180979D01*
X184698026Y-104660584D01*
X184499300Y-104179629D01*
X184131646Y-103811334D01*
X183651039Y-103611768D01*
X183130644Y-103611314D01*
X182649689Y-103810040D01*
X182281394Y-104177694D01*
X182081828Y-104658301D01*
X182081374Y-105178696D01*
X182178282Y-105413231D01*
X177344822Y-105413231D01*
X177224799Y-105363393D01*
X176852833Y-105363069D01*
X176731431Y-105413231D01*
X174415732Y-105413231D01*
X174512172Y-105180979D01*
X174512626Y-104660584D01*
X174313900Y-104179629D01*
X173946246Y-103811334D01*
X173465639Y-103611768D01*
X172945244Y-103611314D01*
X172464289Y-103810040D01*
X172095994Y-104177694D01*
X171896428Y-104658301D01*
X171895974Y-105178696D01*
X171992882Y-105413231D01*
X167082243Y-105413231D01*
X167213016Y-105282686D01*
X167355662Y-104939158D01*
X167355986Y-104567192D01*
X167213941Y-104223416D01*
X166951151Y-103960167D01*
X166607623Y-103817521D01*
X166235657Y-103817197D01*
X165891881Y-103959242D01*
X165858706Y-103992359D01*
X161709106Y-103992359D01*
X160932023Y-103215276D01*
X174113394Y-103215276D01*
X174312120Y-103696231D01*
X174679774Y-104064526D01*
X175160381Y-104264092D01*
X175680776Y-104264546D01*
X176161731Y-104065820D01*
X176530026Y-103698166D01*
X176729592Y-103217559D01*
X176730046Y-102697164D01*
X176531320Y-102216209D01*
X176163666Y-101847914D01*
X175683059Y-101648348D01*
X175162664Y-101647894D01*
X174681709Y-101846620D01*
X174313414Y-102214274D01*
X174113848Y-102694881D01*
X174113394Y-103215276D01*
X160932023Y-103215276D01*
X160135566Y-102418819D01*
X159889004Y-102254072D01*
X159598165Y-102196220D01*
X157752726Y-102196220D01*
X157405026Y-101847914D01*
X156924419Y-101648348D01*
X156404024Y-101647894D01*
X155923069Y-101846620D01*
X155554774Y-102214274D01*
X155355208Y-102694881D01*
X155354754Y-103215276D01*
X155553480Y-103696231D01*
X155921134Y-104064526D01*
X156401741Y-104264092D01*
X156922136Y-104264546D01*
X157403091Y-104065820D01*
X157753301Y-103716220D01*
X158367551Y-103716220D01*
X158140489Y-103810040D01*
X157772194Y-104177694D01*
X157572628Y-104658301D01*
X157572174Y-105178696D01*
X157669082Y-105413231D01*
X152960822Y-105413231D01*
X152840799Y-105363393D01*
X152468833Y-105363069D01*
X152347431Y-105413231D01*
X149906532Y-105413231D01*
X150002972Y-105180979D01*
X150003426Y-104660584D01*
X149804700Y-104179629D01*
X149437046Y-103811334D01*
X148956439Y-103611768D01*
X148436044Y-103611314D01*
X147955089Y-103810040D01*
X147586794Y-104177694D01*
X147387228Y-104658301D01*
X147386774Y-105178696D01*
X147483682Y-105413231D01*
X139591932Y-105413231D01*
X139688372Y-105180979D01*
X139688826Y-104660584D01*
X139490100Y-104179629D01*
X139122446Y-103811334D01*
X138641839Y-103611768D01*
X138121444Y-103611314D01*
X137640489Y-103810040D01*
X137272194Y-104177694D01*
X137072628Y-104658301D01*
X137072174Y-105178696D01*
X137169082Y-105413231D01*
X132640822Y-105413231D01*
X132520799Y-105363393D01*
X132148833Y-105363069D01*
X132027431Y-105413231D01*
X129406532Y-105413231D01*
X129502972Y-105180979D01*
X129503426Y-104660584D01*
X129304700Y-104179629D01*
X128937046Y-103811334D01*
X128456439Y-103611768D01*
X127936044Y-103611314D01*
X127455089Y-103810040D01*
X127086794Y-104177694D01*
X126887228Y-104658301D01*
X126886774Y-105178696D01*
X126983682Y-105413231D01*
X115078132Y-105413231D01*
X115174572Y-105180979D01*
X115175026Y-104660584D01*
X114976300Y-104179629D01*
X114608646Y-103811334D01*
X114128039Y-103611768D01*
X113607644Y-103611314D01*
X113126689Y-103810040D01*
X112758394Y-104177694D01*
X112558828Y-104658301D01*
X112558374Y-105178696D01*
X112655282Y-105413231D01*
X108002822Y-105413231D01*
X107882799Y-105363393D01*
X107510833Y-105363069D01*
X107389431Y-105413231D01*
X104892732Y-105413231D01*
X104989172Y-105180979D01*
X104989626Y-104660584D01*
X104790900Y-104179629D01*
X104423246Y-103811334D01*
X103942639Y-103611768D01*
X103422244Y-103611314D01*
X102941289Y-103810040D01*
X102572994Y-104177694D01*
X102373428Y-104658301D01*
X102372974Y-105178696D01*
X102469882Y-105413231D01*
X94578132Y-105413231D01*
X94674572Y-105180979D01*
X94675026Y-104660584D01*
X94476300Y-104179629D01*
X94108646Y-103811334D01*
X93628039Y-103611768D01*
X93107644Y-103611314D01*
X92626689Y-103810040D01*
X92258394Y-104177694D01*
X92058828Y-104658301D01*
X92058374Y-105178696D01*
X92155282Y-105413231D01*
X87428822Y-105413231D01*
X87308799Y-105363393D01*
X86936833Y-105363069D01*
X86815431Y-105413231D01*
X84392732Y-105413231D01*
X84489172Y-105180979D01*
X84489626Y-104660584D01*
X84290900Y-104179629D01*
X83923246Y-103811334D01*
X83442639Y-103611768D01*
X82922244Y-103611314D01*
X82441289Y-103810040D01*
X82072994Y-104177694D01*
X81910021Y-104570175D01*
X80555123Y-103215276D01*
X84090394Y-103215276D01*
X84289120Y-103696231D01*
X84656774Y-104064526D01*
X85137381Y-104264092D01*
X85657776Y-104264546D01*
X86138731Y-104065820D01*
X86507026Y-103698166D01*
X86706592Y-103217559D01*
X86707046Y-102697164D01*
X86628314Y-102506616D01*
X86965674Y-102506616D01*
X87164400Y-102987571D01*
X87532054Y-103355866D01*
X88012661Y-103555432D01*
X88533056Y-103555886D01*
X89014011Y-103357160D01*
X89156142Y-103215276D01*
X89840954Y-103215276D01*
X90039680Y-103696231D01*
X90407334Y-104064526D01*
X90887941Y-104264092D01*
X91408336Y-104264546D01*
X91889291Y-104065820D01*
X92257586Y-103698166D01*
X92457152Y-103217559D01*
X92457153Y-103215276D01*
X104590394Y-103215276D01*
X104789120Y-103696231D01*
X105156774Y-104064526D01*
X105637381Y-104264092D01*
X106157776Y-104264546D01*
X106638731Y-104065820D01*
X107007026Y-103698166D01*
X107206592Y-103217559D01*
X107207046Y-102697164D01*
X107008320Y-102216209D01*
X106640666Y-101847914D01*
X106160059Y-101648348D01*
X105639664Y-101647894D01*
X105158709Y-101846620D01*
X104790414Y-102214274D01*
X104590848Y-102694881D01*
X104590394Y-103215276D01*
X92457153Y-103215276D01*
X92457606Y-102697164D01*
X92258880Y-102216209D01*
X91891226Y-101847914D01*
X91410619Y-101648348D01*
X90890224Y-101647894D01*
X90409269Y-101846620D01*
X90040974Y-102214274D01*
X89841408Y-102694881D01*
X89840954Y-103215276D01*
X89156142Y-103215276D01*
X89382306Y-102989506D01*
X89581872Y-102508899D01*
X89582326Y-101988504D01*
X89383600Y-101507549D01*
X89159000Y-101282557D01*
X89159000Y-100637575D01*
X89366441Y-100504090D01*
X89511431Y-100291890D01*
X89562440Y-100040000D01*
X89562440Y-99340000D01*
X89518162Y-99104683D01*
X89379090Y-98888559D01*
X89166890Y-98743569D01*
X89153803Y-98740919D01*
X89256244Y-98675000D01*
X107720203Y-98675000D01*
X107810110Y-98736431D01*
X107823197Y-98739081D01*
X107610559Y-98875910D01*
X107465569Y-99088110D01*
X107414560Y-99340000D01*
X107414560Y-100040000D01*
X107458838Y-100275317D01*
X107597910Y-100491441D01*
X107810110Y-100636431D01*
X107889000Y-100652407D01*
X107889000Y-101282697D01*
X107665694Y-101505614D01*
X107466128Y-101986221D01*
X107465674Y-102506616D01*
X107664400Y-102987571D01*
X108032054Y-103355866D01*
X108512661Y-103555432D01*
X109033056Y-103555886D01*
X109514011Y-103357160D01*
X109656142Y-103215276D01*
X110340954Y-103215276D01*
X110539680Y-103696231D01*
X110907334Y-104064526D01*
X111387941Y-104264092D01*
X111908336Y-104264546D01*
X112389291Y-104065820D01*
X112757586Y-103698166D01*
X112957152Y-103217559D01*
X112957153Y-103215276D01*
X129104194Y-103215276D01*
X129302920Y-103696231D01*
X129670574Y-104064526D01*
X130151181Y-104264092D01*
X130671576Y-104264546D01*
X131152531Y-104065820D01*
X131520826Y-103698166D01*
X131720392Y-103217559D01*
X131720846Y-102697164D01*
X131522120Y-102216209D01*
X131154466Y-101847914D01*
X130673859Y-101648348D01*
X130153464Y-101647894D01*
X129672509Y-101846620D01*
X129304214Y-102214274D01*
X129104648Y-102694881D01*
X129104194Y-103215276D01*
X112957153Y-103215276D01*
X112957584Y-102722718D01*
X114043497Y-101636805D01*
X121370611Y-101636805D01*
X121402747Y-101668997D01*
X121746275Y-101811643D01*
X122118241Y-101811967D01*
X122462017Y-101669922D01*
X122725266Y-101407132D01*
X122867912Y-101063604D01*
X122868236Y-100691638D01*
X122726191Y-100347862D01*
X122463401Y-100084613D01*
X122119873Y-99941967D01*
X121747907Y-99941643D01*
X121404131Y-100083688D01*
X121370956Y-100116805D01*
X113728695Y-100116805D01*
X113437856Y-100174657D01*
X113191294Y-100339404D01*
X111882375Y-101648323D01*
X111390224Y-101647894D01*
X110909269Y-101846620D01*
X110540974Y-102214274D01*
X110341408Y-102694881D01*
X110340954Y-103215276D01*
X109656142Y-103215276D01*
X109882306Y-102989506D01*
X110081872Y-102508899D01*
X110082326Y-101988504D01*
X109883600Y-101507549D01*
X109659000Y-101282557D01*
X109659000Y-100603470D01*
X109813441Y-100504090D01*
X109958431Y-100291890D01*
X110009440Y-100040000D01*
X110009440Y-99340000D01*
X109965162Y-99104683D01*
X109826090Y-98888559D01*
X109613890Y-98743569D01*
X109600803Y-98740919D01*
X109703244Y-98675000D01*
X132358203Y-98675000D01*
X132448110Y-98736431D01*
X132461197Y-98739081D01*
X132248559Y-98875910D01*
X132103569Y-99088110D01*
X132052560Y-99340000D01*
X132052560Y-100040000D01*
X132096838Y-100275317D01*
X132235910Y-100491441D01*
X132402800Y-100605472D01*
X132402800Y-101282697D01*
X132179494Y-101505614D01*
X131979928Y-101986221D01*
X131979474Y-102506616D01*
X132178200Y-102987571D01*
X132545854Y-103355866D01*
X133026461Y-103555432D01*
X133546856Y-103555886D01*
X134027811Y-103357160D01*
X134169942Y-103215276D01*
X134854754Y-103215276D01*
X135053480Y-103696231D01*
X135421134Y-104064526D01*
X135901741Y-104264092D01*
X136422136Y-104264546D01*
X136903091Y-104065820D01*
X137271386Y-103698166D01*
X137470952Y-103217559D01*
X137470953Y-103215276D01*
X149604194Y-103215276D01*
X149802920Y-103696231D01*
X150170574Y-104064526D01*
X150651181Y-104264092D01*
X151171576Y-104264546D01*
X151652531Y-104065820D01*
X152020826Y-103698166D01*
X152220392Y-103217559D01*
X152220846Y-102697164D01*
X152022120Y-102216209D01*
X151654466Y-101847914D01*
X151173859Y-101648348D01*
X150653464Y-101647894D01*
X150172509Y-101846620D01*
X149804214Y-102214274D01*
X149604648Y-102694881D01*
X149604194Y-103215276D01*
X137470953Y-103215276D01*
X137471406Y-102697164D01*
X137272680Y-102216209D01*
X136905026Y-101847914D01*
X136424419Y-101648348D01*
X135904024Y-101647894D01*
X135423069Y-101846620D01*
X135054774Y-102214274D01*
X134855208Y-102694881D01*
X134854754Y-103215276D01*
X134169942Y-103215276D01*
X134396106Y-102989506D01*
X134595672Y-102508899D01*
X134596126Y-101988504D01*
X134397400Y-101507549D01*
X134172800Y-101282557D01*
X134172800Y-100654925D01*
X134235317Y-100643162D01*
X134451441Y-100504090D01*
X134596431Y-100291890D01*
X134647440Y-100040000D01*
X134647440Y-99340000D01*
X134603162Y-99104683D01*
X134464090Y-98888559D01*
X134251890Y-98743569D01*
X134238803Y-98740919D01*
X134341244Y-98675000D01*
X152805203Y-98675000D01*
X152895110Y-98736431D01*
X152908197Y-98739081D01*
X152695559Y-98875910D01*
X152550569Y-99088110D01*
X152499560Y-99340000D01*
X152499560Y-100040000D01*
X152543838Y-100275317D01*
X152682910Y-100491441D01*
X152895110Y-100636431D01*
X152902800Y-100637988D01*
X152902800Y-101282697D01*
X152679494Y-101505614D01*
X152479928Y-101986221D01*
X152479474Y-102506616D01*
X152678200Y-102987571D01*
X153045854Y-103355866D01*
X153526461Y-103555432D01*
X154046856Y-103555886D01*
X154527811Y-103357160D01*
X154896106Y-102989506D01*
X155095672Y-102508899D01*
X155096126Y-101988504D01*
X154897400Y-101507549D01*
X154672800Y-101282557D01*
X154672800Y-100644953D01*
X154682317Y-100643162D01*
X154898441Y-100504090D01*
X155043431Y-100291890D01*
X155094440Y-100040000D01*
X155094440Y-99340000D01*
X155050162Y-99104683D01*
X154911090Y-98888559D01*
X154698890Y-98743569D01*
X154685803Y-98740919D01*
X154788244Y-98675000D01*
X177316203Y-98675000D01*
X177406110Y-98736431D01*
X177419197Y-98739081D01*
X177206559Y-98875910D01*
X177061569Y-99088110D01*
X177010560Y-99340000D01*
X177010560Y-100040000D01*
X177054838Y-100275317D01*
X177193910Y-100491441D01*
X177406110Y-100636431D01*
X177412000Y-100637624D01*
X177412000Y-101282697D01*
X177188694Y-101505614D01*
X176989128Y-101986221D01*
X176988674Y-102506616D01*
X177187400Y-102987571D01*
X177555054Y-103355866D01*
X178035661Y-103555432D01*
X178556056Y-103555886D01*
X179037011Y-103357160D01*
X179179142Y-103215276D01*
X179863954Y-103215276D01*
X180062680Y-103696231D01*
X180430334Y-104064526D01*
X180910941Y-104264092D01*
X181431336Y-104264546D01*
X181912291Y-104065820D01*
X182280586Y-103698166D01*
X182480152Y-103217559D01*
X182480153Y-103215276D01*
X194613394Y-103215276D01*
X194812120Y-103696231D01*
X195179774Y-104064526D01*
X195660381Y-104264092D01*
X196180776Y-104264546D01*
X196661731Y-104065820D01*
X197030026Y-103698166D01*
X197229592Y-103217559D01*
X197230046Y-102697164D01*
X197031320Y-102216209D01*
X196663666Y-101847914D01*
X196183059Y-101648348D01*
X195662664Y-101647894D01*
X195181709Y-101846620D01*
X194813414Y-102214274D01*
X194613848Y-102694881D01*
X194613394Y-103215276D01*
X182480153Y-103215276D01*
X182480606Y-102697164D01*
X182281880Y-102216209D01*
X181914226Y-101847914D01*
X181433619Y-101648348D01*
X180913224Y-101647894D01*
X180432269Y-101846620D01*
X180063974Y-102214274D01*
X179864408Y-102694881D01*
X179863954Y-103215276D01*
X179179142Y-103215276D01*
X179405306Y-102989506D01*
X179604872Y-102508899D01*
X179605326Y-101988504D01*
X179406600Y-101507549D01*
X179182000Y-101282557D01*
X179182000Y-100645291D01*
X179193317Y-100643162D01*
X179409441Y-100504090D01*
X179554431Y-100291890D01*
X179605440Y-100040000D01*
X179605440Y-99340000D01*
X179561162Y-99104683D01*
X179422090Y-98888559D01*
X179209890Y-98743569D01*
X179196803Y-98740919D01*
X179299244Y-98675000D01*
X197763203Y-98675000D01*
X197853110Y-98736431D01*
X197866197Y-98739081D01*
X197653559Y-98875910D01*
X197508569Y-99088110D01*
X197457560Y-99340000D01*
X197457560Y-100040000D01*
X197501838Y-100275317D01*
X197640910Y-100491441D01*
X197853110Y-100636431D01*
X197912000Y-100648357D01*
X197912000Y-101282697D01*
X197688694Y-101505614D01*
X197489128Y-101986221D01*
X197488674Y-102506616D01*
X197687400Y-102987571D01*
X198055054Y-103355866D01*
X198535661Y-103555432D01*
X199056056Y-103555886D01*
X199537011Y-103357160D01*
X199679142Y-103215276D01*
X200363954Y-103215276D01*
X200562680Y-103696231D01*
X200930334Y-104064526D01*
X201410941Y-104264092D01*
X201931336Y-104264546D01*
X202412291Y-104065820D01*
X202780586Y-103698166D01*
X202980152Y-103217559D01*
X202980584Y-102722718D01*
X203297613Y-102405689D01*
X209717783Y-102405689D01*
X209749919Y-102437881D01*
X210093447Y-102580527D01*
X210465413Y-102580851D01*
X210809189Y-102438806D01*
X211072438Y-102176016D01*
X211215084Y-101832488D01*
X211215408Y-101460522D01*
X211073363Y-101116746D01*
X210810573Y-100853497D01*
X210467045Y-100710851D01*
X210095079Y-100710527D01*
X209751303Y-100852572D01*
X209718128Y-100885689D01*
X202982811Y-100885689D01*
X202691972Y-100943541D01*
X202445410Y-101108288D01*
X201905375Y-101648323D01*
X201413224Y-101647894D01*
X200932269Y-101846620D01*
X200563974Y-102214274D01*
X200364408Y-102694881D01*
X200363954Y-103215276D01*
X199679142Y-103215276D01*
X199905306Y-102989506D01*
X200104872Y-102508899D01*
X200105326Y-101988504D01*
X199906600Y-101507549D01*
X199682000Y-101282557D01*
X199682000Y-100616340D01*
X199856441Y-100504090D01*
X200001431Y-100291890D01*
X200052440Y-100040000D01*
X200052440Y-99340000D01*
X200008162Y-99104683D01*
X199869090Y-98888559D01*
X199656890Y-98743569D01*
X199643803Y-98740919D01*
X199746244Y-98675000D01*
X215583998Y-98675000D01*
X215724785Y-98815787D01*
X215724787Y-98815790D01*
X216011902Y-99007633D01*
X216350577Y-99075000D01*
X217263146Y-99075000D01*
X217300838Y-99275317D01*
X217439910Y-99491441D01*
X217652110Y-99636431D01*
X217904000Y-99687440D01*
X219604000Y-99687440D01*
X219839317Y-99643162D01*
X220055441Y-99504090D01*
X220200431Y-99291890D01*
X220251440Y-99040000D01*
X220251440Y-97340000D01*
X220207162Y-97104683D01*
X220068090Y-96888559D01*
X219855890Y-96743569D01*
X219747893Y-96721699D01*
X220025645Y-96416924D01*
X220195476Y-96006890D01*
X220074155Y-95777000D01*
X218881000Y-95777000D01*
X218881000Y-95797000D01*
X218627000Y-95797000D01*
X218627000Y-95777000D01*
X217433845Y-95777000D01*
X217312524Y-96006890D01*
X217482355Y-96416924D01*
X217758501Y-96719937D01*
X217668683Y-96736838D01*
X217452559Y-96875910D01*
X217307569Y-97088110D01*
X217263648Y-97305000D01*
X216717157Y-97305000D01*
X216576367Y-97164210D01*
X216467527Y-97091486D01*
X216289252Y-96972367D01*
X216233061Y-96961190D01*
X215950577Y-96904999D01*
X215950572Y-96905000D01*
X199746797Y-96905000D01*
X199656890Y-96843569D01*
X199405000Y-96792560D01*
X198105000Y-96792560D01*
X197869683Y-96836838D01*
X197763756Y-96905000D01*
X179299797Y-96905000D01*
X179209890Y-96843569D01*
X178958000Y-96792560D01*
X177658000Y-96792560D01*
X177422683Y-96836838D01*
X177316756Y-96905000D01*
X154788797Y-96905000D01*
X154698890Y-96843569D01*
X154447000Y-96792560D01*
X153147000Y-96792560D01*
X152911683Y-96836838D01*
X152805756Y-96905000D01*
X134341797Y-96905000D01*
X134251890Y-96843569D01*
X134000000Y-96792560D01*
X132700000Y-96792560D01*
X132464683Y-96836838D01*
X132358756Y-96905000D01*
X109703797Y-96905000D01*
X109613890Y-96843569D01*
X109362000Y-96792560D01*
X108062000Y-96792560D01*
X107826683Y-96836838D01*
X107720756Y-96905000D01*
X89256797Y-96905000D01*
X89166890Y-96843569D01*
X88915000Y-96792560D01*
X87615000Y-96792560D01*
X87379683Y-96836838D01*
X87163559Y-96975910D01*
X87018569Y-97188110D01*
X86967560Y-97440000D01*
X86967560Y-98140000D01*
X87011838Y-98375317D01*
X87150910Y-98591441D01*
X87363110Y-98736431D01*
X87376197Y-98739081D01*
X87163559Y-98875910D01*
X87018569Y-99088110D01*
X86967560Y-99340000D01*
X86967560Y-100040000D01*
X87011838Y-100275317D01*
X87150910Y-100491441D01*
X87363110Y-100636431D01*
X87389000Y-100641674D01*
X87389000Y-101282697D01*
X87165694Y-101505614D01*
X86966128Y-101986221D01*
X86965674Y-102506616D01*
X86628314Y-102506616D01*
X86508320Y-102216209D01*
X86140666Y-101847914D01*
X85660059Y-101648348D01*
X85139664Y-101647894D01*
X84658709Y-101846620D01*
X84290414Y-102214274D01*
X84090848Y-102694881D01*
X84090394Y-103215276D01*
X80555123Y-103215276D01*
X79584057Y-102244210D01*
X79481997Y-102176016D01*
X79296942Y-102052367D01*
X79240751Y-102041190D01*
X78958267Y-101984999D01*
X78958262Y-101985000D01*
X78826975Y-101985000D01*
X78663890Y-101873569D01*
X78412000Y-101822560D01*
X77512000Y-101822560D01*
X77276683Y-101866838D01*
X77060559Y-102005910D01*
X76973936Y-102132686D01*
X76888250Y-102047000D01*
X76089000Y-102047000D01*
X76089000Y-102067000D01*
X75835000Y-102067000D01*
X75835000Y-102047000D01*
X75815000Y-102047000D01*
X75815000Y-101793000D01*
X75835000Y-101793000D01*
X75835000Y-101043750D01*
X76089000Y-101043750D01*
X76089000Y-101793000D01*
X76888250Y-101793000D01*
X77047000Y-101634250D01*
X77047000Y-101393690D01*
X76950327Y-101160301D01*
X76771698Y-100981673D01*
X76538309Y-100885000D01*
X76247750Y-100885000D01*
X76089000Y-101043750D01*
X75835000Y-101043750D01*
X75676250Y-100885000D01*
X75385691Y-100885000D01*
X75152302Y-100981673D01*
X74973673Y-101160301D01*
X74906031Y-101323602D01*
X74774090Y-101118559D01*
X74561890Y-100973569D01*
X74310000Y-100922560D01*
X73010000Y-100922560D01*
X72774683Y-100966838D01*
X72668756Y-101035000D01*
X69889978Y-101035000D01*
X69833147Y-100949946D01*
X69503974Y-100730000D01*
X69833147Y-100510054D01*
X70026954Y-100220000D01*
X71998756Y-100220000D01*
X72289595Y-100162148D01*
X72536157Y-99997401D01*
X77240448Y-95293110D01*
X217312524Y-95293110D01*
X217433845Y-95523000D01*
X218627000Y-95523000D01*
X218627000Y-94329181D01*
X218881000Y-94329181D01*
X218881000Y-95523000D01*
X220074155Y-95523000D01*
X220195476Y-95293110D01*
X220025645Y-94883076D01*
X219635358Y-94454817D01*
X219110892Y-94208514D01*
X218881000Y-94329181D01*
X218627000Y-94329181D01*
X218397108Y-94208514D01*
X217872642Y-94454817D01*
X217482355Y-94883076D01*
X217312524Y-95293110D01*
X77240448Y-95293110D01*
X79698558Y-92835000D01*
X83892537Y-92835000D01*
X83924673Y-92867192D01*
X84268201Y-93009838D01*
X84640167Y-93010162D01*
X84983943Y-92868117D01*
X85017118Y-92835000D01*
X101672537Y-92835000D01*
X101704673Y-92867192D01*
X102048201Y-93009838D01*
X102420167Y-93010162D01*
X102763943Y-92868117D01*
X102797118Y-92835000D01*
X119452537Y-92835000D01*
X119484673Y-92867192D01*
X119828201Y-93009838D01*
X120200167Y-93010162D01*
X120543943Y-92868117D01*
X120577118Y-92835000D01*
X137867537Y-92835000D01*
X137899673Y-92867192D01*
X138243201Y-93009838D01*
X138615167Y-93010162D01*
X138958943Y-92868117D01*
X138992118Y-92835000D01*
X155647537Y-92835000D01*
X155679673Y-92867192D01*
X156023201Y-93009838D01*
X156395167Y-93010162D01*
X156738943Y-92868117D01*
X156772118Y-92835000D01*
X174062537Y-92835000D01*
X174094673Y-92867192D01*
X174438201Y-93009838D01*
X174810167Y-93010162D01*
X175153943Y-92868117D01*
X175187118Y-92835000D01*
X191842537Y-92835000D01*
X191874673Y-92867192D01*
X192218201Y-93009838D01*
X192590167Y-93010162D01*
X192933943Y-92868117D01*
X192967118Y-92835000D01*
X210257537Y-92835000D01*
X210289673Y-92867192D01*
X210633201Y-93009838D01*
X211005167Y-93010162D01*
X211348943Y-92868117D01*
X211612192Y-92605327D01*
X211754838Y-92261799D01*
X211755162Y-91889833D01*
X211613117Y-91546057D01*
X211507290Y-91440046D01*
X211612192Y-91335327D01*
X211754838Y-90991799D01*
X211755162Y-90619833D01*
X211613117Y-90276057D01*
X211350327Y-90012808D01*
X211006799Y-89870162D01*
X210634833Y-89869838D01*
X210291057Y-90011883D01*
X210257882Y-90045000D01*
X192967463Y-90045000D01*
X192935327Y-90012808D01*
X192591799Y-89870162D01*
X192219833Y-89869838D01*
X191876057Y-90011883D01*
X191842882Y-90045000D01*
X175187463Y-90045000D01*
X175155327Y-90012808D01*
X174811799Y-89870162D01*
X174439833Y-89869838D01*
X174096057Y-90011883D01*
X174062882Y-90045000D01*
X156772463Y-90045000D01*
X156740327Y-90012808D01*
X156396799Y-89870162D01*
X156024833Y-89869838D01*
X155681057Y-90011883D01*
X155647882Y-90045000D01*
X138992463Y-90045000D01*
X138960327Y-90012808D01*
X138616799Y-89870162D01*
X138244833Y-89869838D01*
X137901057Y-90011883D01*
X137867882Y-90045000D01*
X120577463Y-90045000D01*
X120545327Y-90012808D01*
X120201799Y-89870162D01*
X119829833Y-89869838D01*
X119486057Y-90011883D01*
X119452882Y-90045000D01*
X102797463Y-90045000D01*
X102765327Y-90012808D01*
X102421799Y-89870162D01*
X102049833Y-89869838D01*
X101706057Y-90011883D01*
X101672882Y-90045000D01*
X85017463Y-90045000D01*
X84985327Y-90012808D01*
X84641799Y-89870162D01*
X84269833Y-89869838D01*
X83926057Y-90011883D01*
X83892882Y-90045000D01*
X78236291Y-90045000D01*
X77945452Y-90102852D01*
X77698890Y-90267599D01*
X71806489Y-96160000D01*
X70026954Y-96160000D01*
X69833147Y-95869946D01*
X69503974Y-95650000D01*
X69833147Y-95430054D01*
X70026954Y-95140000D01*
X70720000Y-95140000D01*
X71010839Y-95082148D01*
X71257401Y-94917401D01*
X72300431Y-93874371D01*
X72465178Y-93627810D01*
X72523030Y-93336970D01*
X72523030Y-86528967D01*
X72838201Y-86659838D01*
X73210167Y-86660162D01*
X73553943Y-86518117D01*
X73817192Y-86255327D01*
X73959838Y-85911799D01*
X73959879Y-85864923D01*
X77149802Y-82675000D01*
X79955537Y-82675000D01*
X79987673Y-82707192D01*
X80331201Y-82849838D01*
X80703167Y-82850162D01*
X81046943Y-82708117D01*
X81080118Y-82675000D01*
X89353537Y-82675000D01*
X89385673Y-82707192D01*
X89729201Y-82849838D01*
X90101167Y-82850162D01*
X90444943Y-82708117D01*
X90478118Y-82675000D01*
X96989367Y-82675000D01*
X96855162Y-82998201D01*
X96854838Y-83370167D01*
X96989056Y-83695000D01*
X79937463Y-83695000D01*
X79905327Y-83662808D01*
X79561799Y-83520162D01*
X79189833Y-83519838D01*
X78846057Y-83661883D01*
X78582808Y-83924673D01*
X78440162Y-84268201D01*
X78439838Y-84640167D01*
X78581883Y-84983943D01*
X78844673Y-85247192D01*
X79188201Y-85389838D01*
X79560167Y-85390162D01*
X79903943Y-85248117D01*
X79937118Y-85215000D01*
X106117537Y-85215000D01*
X106149673Y-85247192D01*
X106493201Y-85389838D01*
X106865167Y-85390162D01*
X107208943Y-85248117D01*
X107472192Y-84985327D01*
X107614838Y-84641799D01*
X107615162Y-84269833D01*
X107480944Y-83945000D01*
X114134367Y-83945000D01*
X114000162Y-84268201D01*
X113999838Y-84640167D01*
X114141883Y-84983943D01*
X114404673Y-85247192D01*
X114748201Y-85389838D01*
X115120167Y-85390162D01*
X115463943Y-85248117D01*
X115497118Y-85215000D01*
X142312537Y-85215000D01*
X142344673Y-85247192D01*
X142688201Y-85389838D01*
X143060167Y-85390162D01*
X143403943Y-85248117D01*
X143667192Y-84985327D01*
X143809838Y-84641799D01*
X143810162Y-84269833D01*
X143675944Y-83945000D01*
X150329367Y-83945000D01*
X150195162Y-84268201D01*
X150194838Y-84640167D01*
X150336883Y-84983943D01*
X150599673Y-85247192D01*
X150943201Y-85389838D01*
X151315167Y-85390162D01*
X151658943Y-85248117D01*
X151692118Y-85215000D01*
X177872537Y-85215000D01*
X177904673Y-85247192D01*
X178248201Y-85389838D01*
X178620167Y-85390162D01*
X178963943Y-85248117D01*
X179227192Y-84985327D01*
X179369838Y-84641799D01*
X179370162Y-84269833D01*
X179235944Y-83945000D01*
X186524367Y-83945000D01*
X186390162Y-84268201D01*
X186389838Y-84640167D01*
X186531883Y-84983943D01*
X186794673Y-85247192D01*
X187138201Y-85389838D01*
X187510167Y-85390162D01*
X187853943Y-85248117D01*
X187887118Y-85215000D01*
X214067537Y-85215000D01*
X214099673Y-85247192D01*
X214443201Y-85389838D01*
X214815167Y-85390162D01*
X215158943Y-85248117D01*
X215422192Y-84985327D01*
X215564838Y-84641799D01*
X215565162Y-84269833D01*
X215423117Y-83926057D01*
X215160327Y-83662808D01*
X214816799Y-83520162D01*
X214444833Y-83519838D01*
X214101057Y-83661883D01*
X214067882Y-83695000D01*
X198285633Y-83695000D01*
X198419838Y-83371799D01*
X198420162Y-82999833D01*
X198314690Y-82744570D01*
X198568201Y-82849838D01*
X198940167Y-82850162D01*
X199283943Y-82708117D01*
X199547192Y-82445327D01*
X199689838Y-82101799D01*
X199690162Y-81729833D01*
X199548117Y-81386057D01*
X199285327Y-81122808D01*
X198941799Y-80980162D01*
X198569833Y-80979838D01*
X198314570Y-81085310D01*
X198419838Y-80831799D01*
X198420162Y-80459833D01*
X198278117Y-80116057D01*
X198015327Y-79852808D01*
X197671799Y-79710162D01*
X197299833Y-79709838D01*
X196956057Y-79851883D01*
X196922882Y-79885000D01*
X74930000Y-79885000D01*
X74639161Y-79942852D01*
X74392599Y-80107599D01*
X71225629Y-83274569D01*
X71060882Y-83521131D01*
X71003030Y-83811970D01*
X71003030Y-93022168D01*
X70405198Y-93620000D01*
X70026954Y-93620000D01*
X69833147Y-93329946D01*
X69503974Y-93110000D01*
X69833147Y-92890054D01*
X70155054Y-92408285D01*
X70268093Y-91840000D01*
X70155054Y-91271715D01*
X69833147Y-90789946D01*
X69492447Y-90562298D01*
X69635358Y-90495183D01*
X70025645Y-90066924D01*
X70195476Y-89656890D01*
X70074155Y-89427000D01*
X68881000Y-89427000D01*
X68881000Y-89447000D01*
X68627000Y-89447000D01*
X68627000Y-89427000D01*
X67433845Y-89427000D01*
X67312524Y-89656890D01*
X67482355Y-90066924D01*
X67872642Y-90495183D01*
X68015553Y-90562298D01*
X67674853Y-90789946D01*
X67352946Y-91271715D01*
X67239907Y-91840000D01*
X64579500Y-91840000D01*
X64579500Y-88943110D01*
X67312524Y-88943110D01*
X67433845Y-89173000D01*
X68627000Y-89173000D01*
X68627000Y-87979181D01*
X68881000Y-87979181D01*
X68881000Y-89173000D01*
X70074155Y-89173000D01*
X70195476Y-88943110D01*
X70025645Y-88533076D01*
X69635358Y-88104817D01*
X69110892Y-87858514D01*
X68881000Y-87979181D01*
X68627000Y-87979181D01*
X68397108Y-87858514D01*
X67872642Y-88104817D01*
X67482355Y-88533076D01*
X67312524Y-88943110D01*
X64579500Y-88943110D01*
X64579500Y-77391156D01*
X66369787Y-77391156D01*
X66732126Y-78268083D01*
X67402468Y-78939596D01*
X68278761Y-79303465D01*
X69227596Y-79304293D01*
X70104523Y-78941954D01*
X70776036Y-78271612D01*
X71139905Y-77395319D01*
X71139908Y-77391156D01*
X216369487Y-77391156D01*
X216731826Y-78268083D01*
X217402168Y-78939596D01*
X218278461Y-79303465D01*
X219227296Y-79304293D01*
X220104223Y-78941954D01*
X220775736Y-78271612D01*
X221139605Y-77395319D01*
X221140433Y-76446484D01*
X220778094Y-75569557D01*
X220107752Y-74898044D01*
X219231459Y-74534175D01*
X218282624Y-74533347D01*
X217405697Y-74895686D01*
X216734184Y-75566028D01*
X216370315Y-76442321D01*
X216369487Y-77391156D01*
X71139908Y-77391156D01*
X71140733Y-76446484D01*
X70778394Y-75569557D01*
X70108052Y-74898044D01*
X69231759Y-74534175D01*
X68282924Y-74533347D01*
X67405997Y-74895686D01*
X66734484Y-75566028D01*
X66370615Y-76442321D01*
X66369787Y-77391156D01*
X64579500Y-77391156D01*
X64579500Y-72745600D01*
X222758000Y-72745600D01*
X222758000Y-121094500D01*
X222758000Y-121094500D01*
G37*
X222758000Y-121094500D02*
X64579500Y-121094500D01*
X64579500Y-117391076D01*
X66369787Y-117391076D01*
X66732126Y-118268003D01*
X67402468Y-118939516D01*
X68278761Y-119303385D01*
X69227596Y-119304213D01*
X70104523Y-118941874D01*
X70776036Y-118271532D01*
X71139905Y-117395239D01*
X71139908Y-117391076D01*
X216369487Y-117391076D01*
X216731826Y-118268003D01*
X217402168Y-118939516D01*
X218278461Y-119303385D01*
X219227296Y-119304213D01*
X220104223Y-118941874D01*
X220775736Y-118271532D01*
X221139605Y-117395239D01*
X221140433Y-116446404D01*
X220778094Y-115569477D01*
X220107752Y-114897964D01*
X219231459Y-114534095D01*
X218282624Y-114533267D01*
X217405697Y-114895606D01*
X216734184Y-115565948D01*
X216370315Y-116442241D01*
X216369487Y-117391076D01*
X71139908Y-117391076D01*
X71140733Y-116446404D01*
X70778394Y-115569477D01*
X70108052Y-114897964D01*
X69640204Y-114703696D01*
X85484854Y-114703696D01*
X85683580Y-115184651D01*
X86051234Y-115552946D01*
X86531841Y-115752512D01*
X87052236Y-115752966D01*
X87533191Y-115554240D01*
X87901486Y-115186586D01*
X88101052Y-114705979D01*
X88101053Y-114703696D01*
X88446494Y-114703696D01*
X88645220Y-115184651D01*
X89012874Y-115552946D01*
X89493481Y-115752512D01*
X90013876Y-115752966D01*
X90494831Y-115554240D01*
X90863126Y-115186586D01*
X91062692Y-114705979D01*
X91062693Y-114703696D01*
X105984854Y-114703696D01*
X106183580Y-115184651D01*
X106551234Y-115552946D01*
X107031841Y-115752512D01*
X107552236Y-115752966D01*
X108033191Y-115554240D01*
X108401486Y-115186586D01*
X108601052Y-114705979D01*
X108601053Y-114703696D01*
X108946494Y-114703696D01*
X109145220Y-115184651D01*
X109512874Y-115552946D01*
X109993481Y-115752512D01*
X110513876Y-115752966D01*
X110994831Y-115554240D01*
X111363126Y-115186586D01*
X111562692Y-114705979D01*
X111562693Y-114703696D01*
X130498654Y-114703696D01*
X130697380Y-115184651D01*
X131065034Y-115552946D01*
X131545641Y-115752512D01*
X132066036Y-115752966D01*
X132546991Y-115554240D01*
X132915286Y-115186586D01*
X133114852Y-114705979D01*
X133114853Y-114703696D01*
X133460294Y-114703696D01*
X133659020Y-115184651D01*
X134026674Y-115552946D01*
X134507281Y-115752512D01*
X135027676Y-115752966D01*
X135508631Y-115554240D01*
X135876926Y-115186586D01*
X136076492Y-114705979D01*
X136076493Y-114703696D01*
X150998654Y-114703696D01*
X151197380Y-115184651D01*
X151565034Y-115552946D01*
X152045641Y-115752512D01*
X152566036Y-115752966D01*
X153046991Y-115554240D01*
X153415286Y-115186586D01*
X153614852Y-114705979D01*
X153614853Y-114703696D01*
X153960294Y-114703696D01*
X154159020Y-115184651D01*
X154526674Y-115552946D01*
X155007281Y-115752512D01*
X155527676Y-115752966D01*
X156008631Y-115554240D01*
X156376926Y-115186586D01*
X156576492Y-114705979D01*
X156576493Y-114703696D01*
X175507854Y-114703696D01*
X175706580Y-115184651D01*
X176074234Y-115552946D01*
X176554841Y-115752512D01*
X177075236Y-115752966D01*
X177556191Y-115554240D01*
X177924486Y-115186586D01*
X178124052Y-114705979D01*
X178124053Y-114703696D01*
X178469494Y-114703696D01*
X178668220Y-115184651D01*
X179035874Y-115552946D01*
X179516481Y-115752512D01*
X180036876Y-115752966D01*
X180517831Y-115554240D01*
X180886126Y-115186586D01*
X181085692Y-114705979D01*
X181085693Y-114703696D01*
X196007854Y-114703696D01*
X196206580Y-115184651D01*
X196574234Y-115552946D01*
X197054841Y-115752512D01*
X197575236Y-115752966D01*
X198056191Y-115554240D01*
X198424486Y-115186586D01*
X198624052Y-114705979D01*
X198624053Y-114703696D01*
X198969494Y-114703696D01*
X199168220Y-115184651D01*
X199535874Y-115552946D01*
X200016481Y-115752512D01*
X200536876Y-115752966D01*
X201017831Y-115554240D01*
X201386126Y-115186586D01*
X201585692Y-114705979D01*
X201586146Y-114185584D01*
X201387420Y-113704629D01*
X201019766Y-113336334D01*
X200997326Y-113327016D01*
X201593314Y-113327016D01*
X201792040Y-113807971D01*
X202159694Y-114176266D01*
X202640301Y-114375832D01*
X203160696Y-114376286D01*
X203641651Y-114177560D01*
X204009946Y-113809906D01*
X204209512Y-113329299D01*
X204209966Y-112808904D01*
X204011240Y-112327949D01*
X203643586Y-111959654D01*
X203162979Y-111760088D01*
X202642584Y-111759634D01*
X202161629Y-111958360D01*
X201793334Y-112326014D01*
X201593768Y-112806621D01*
X201593314Y-113327016D01*
X200997326Y-113327016D01*
X200539159Y-113136768D01*
X200018764Y-113136314D01*
X199537809Y-113335040D01*
X199169514Y-113702694D01*
X198969948Y-114183301D01*
X198969494Y-114703696D01*
X198624053Y-114703696D01*
X198624506Y-114185584D01*
X198425780Y-113704629D01*
X198058126Y-113336334D01*
X197577519Y-113136768D01*
X197057124Y-113136314D01*
X196576169Y-113335040D01*
X196207874Y-113702694D01*
X196008308Y-114183301D01*
X196007854Y-114703696D01*
X181085693Y-114703696D01*
X181086146Y-114185584D01*
X180887420Y-113704629D01*
X180519766Y-113336334D01*
X180497326Y-113327016D01*
X181093314Y-113327016D01*
X181292040Y-113807971D01*
X181659694Y-114176266D01*
X182140301Y-114375832D01*
X182660696Y-114376286D01*
X183141651Y-114177560D01*
X183509946Y-113809906D01*
X183709512Y-113329299D01*
X183709513Y-113327016D01*
X193384034Y-113327016D01*
X193582760Y-113807971D01*
X193950414Y-114176266D01*
X194431021Y-114375832D01*
X194951416Y-114376286D01*
X195432371Y-114177560D01*
X195800666Y-113809906D01*
X196000232Y-113329299D01*
X196000686Y-112808904D01*
X195801960Y-112327949D01*
X195434306Y-111959654D01*
X194953699Y-111760088D01*
X194433304Y-111759634D01*
X193952349Y-111958360D01*
X193584054Y-112326014D01*
X193384488Y-112806621D01*
X193384034Y-113327016D01*
X183709513Y-113327016D01*
X183709966Y-112808904D01*
X183511240Y-112327949D01*
X183143586Y-111959654D01*
X182662979Y-111760088D01*
X182142584Y-111759634D01*
X181661629Y-111958360D01*
X181293334Y-112326014D01*
X181093768Y-112806621D01*
X181093314Y-113327016D01*
X180497326Y-113327016D01*
X180039159Y-113136768D01*
X179518764Y-113136314D01*
X179037809Y-113335040D01*
X178669514Y-113702694D01*
X178469948Y-114183301D01*
X178469494Y-114703696D01*
X178124053Y-114703696D01*
X178124506Y-114185584D01*
X177925780Y-113704629D01*
X177558126Y-113336334D01*
X177077519Y-113136768D01*
X176557124Y-113136314D01*
X176076169Y-113335040D01*
X175707874Y-113702694D01*
X175508308Y-114183301D01*
X175507854Y-114703696D01*
X156576493Y-114703696D01*
X156576946Y-114185584D01*
X156378220Y-113704629D01*
X156010566Y-113336334D01*
X155988126Y-113327016D01*
X156584114Y-113327016D01*
X156782840Y-113807971D01*
X157150494Y-114176266D01*
X157631101Y-114375832D01*
X158151496Y-114376286D01*
X158632451Y-114177560D01*
X159000746Y-113809906D01*
X159200312Y-113329299D01*
X159200313Y-113327016D01*
X172884034Y-113327016D01*
X173082760Y-113807971D01*
X173450414Y-114176266D01*
X173931021Y-114375832D01*
X174451416Y-114376286D01*
X174932371Y-114177560D01*
X175300666Y-113809906D01*
X175500232Y-113329299D01*
X175500686Y-112808904D01*
X175301960Y-112327949D01*
X174934306Y-111959654D01*
X174453699Y-111760088D01*
X173933304Y-111759634D01*
X173452349Y-111958360D01*
X173084054Y-112326014D01*
X172884488Y-112806621D01*
X172884034Y-113327016D01*
X159200313Y-113327016D01*
X159200766Y-112808904D01*
X159002040Y-112327949D01*
X158634386Y-111959654D01*
X158153779Y-111760088D01*
X157633384Y-111759634D01*
X157152429Y-111958360D01*
X156784134Y-112326014D01*
X156584568Y-112806621D01*
X156584114Y-113327016D01*
X155988126Y-113327016D01*
X155529959Y-113136768D01*
X155009564Y-113136314D01*
X154528609Y-113335040D01*
X154160314Y-113702694D01*
X153960748Y-114183301D01*
X153960294Y-114703696D01*
X153614853Y-114703696D01*
X153615306Y-114185584D01*
X153416580Y-113704629D01*
X153048926Y-113336334D01*
X152568319Y-113136768D01*
X152047924Y-113136314D01*
X151566969Y-113335040D01*
X151198674Y-113702694D01*
X150999108Y-114183301D01*
X150998654Y-114703696D01*
X136076493Y-114703696D01*
X136076946Y-114185584D01*
X135878220Y-113704629D01*
X135510566Y-113336334D01*
X135488126Y-113327016D01*
X136084114Y-113327016D01*
X136282840Y-113807971D01*
X136650494Y-114176266D01*
X137131101Y-114375832D01*
X137651496Y-114376286D01*
X138132451Y-114177560D01*
X138500746Y-113809906D01*
X138700312Y-113329299D01*
X138700313Y-113327016D01*
X148374834Y-113327016D01*
X148573560Y-113807971D01*
X148941214Y-114176266D01*
X149421821Y-114375832D01*
X149942216Y-114376286D01*
X150423171Y-114177560D01*
X150791466Y-113809906D01*
X150991032Y-113329299D01*
X150991486Y-112808904D01*
X150792760Y-112327949D01*
X150425106Y-111959654D01*
X149944499Y-111760088D01*
X149424104Y-111759634D01*
X148943149Y-111958360D01*
X148574854Y-112326014D01*
X148375288Y-112806621D01*
X148374834Y-113327016D01*
X138700313Y-113327016D01*
X138700766Y-112808904D01*
X138502040Y-112327949D01*
X138134386Y-111959654D01*
X137653779Y-111760088D01*
X137133384Y-111759634D01*
X136652429Y-111958360D01*
X136284134Y-112326014D01*
X136084568Y-112806621D01*
X136084114Y-113327016D01*
X135488126Y-113327016D01*
X135029959Y-113136768D01*
X134509564Y-113136314D01*
X134028609Y-113335040D01*
X133660314Y-113702694D01*
X133460748Y-114183301D01*
X133460294Y-114703696D01*
X133114853Y-114703696D01*
X133115306Y-114185584D01*
X132916580Y-113704629D01*
X132548926Y-113336334D01*
X132068319Y-113136768D01*
X131547924Y-113136314D01*
X131066969Y-113335040D01*
X130698674Y-113702694D01*
X130499108Y-114183301D01*
X130498654Y-114703696D01*
X111562693Y-114703696D01*
X111563146Y-114185584D01*
X111364420Y-113704629D01*
X110996766Y-113336334D01*
X110974326Y-113327016D01*
X111570314Y-113327016D01*
X111769040Y-113807971D01*
X112136694Y-114176266D01*
X112617301Y-114375832D01*
X113137696Y-114376286D01*
X113618651Y-114177560D01*
X113986946Y-113809906D01*
X114186512Y-113329299D01*
X114186513Y-113327016D01*
X127874834Y-113327016D01*
X128073560Y-113807971D01*
X128441214Y-114176266D01*
X128921821Y-114375832D01*
X129442216Y-114376286D01*
X129923171Y-114177560D01*
X130291466Y-113809906D01*
X130491032Y-113329299D01*
X130491486Y-112808904D01*
X130292760Y-112327949D01*
X129925106Y-111959654D01*
X129444499Y-111760088D01*
X128924104Y-111759634D01*
X128443149Y-111958360D01*
X128074854Y-112326014D01*
X127875288Y-112806621D01*
X127874834Y-113327016D01*
X114186513Y-113327016D01*
X114186966Y-112808904D01*
X113988240Y-112327949D01*
X113620586Y-111959654D01*
X113139979Y-111760088D01*
X112619584Y-111759634D01*
X112138629Y-111958360D01*
X111770334Y-112326014D01*
X111570768Y-112806621D01*
X111570314Y-113327016D01*
X110974326Y-113327016D01*
X110516159Y-113136768D01*
X109995764Y-113136314D01*
X109514809Y-113335040D01*
X109146514Y-113702694D01*
X108946948Y-114183301D01*
X108946494Y-114703696D01*
X108601053Y-114703696D01*
X108601506Y-114185584D01*
X108402780Y-113704629D01*
X108035126Y-113336334D01*
X107554519Y-113136768D01*
X107034124Y-113136314D01*
X106553169Y-113335040D01*
X106184874Y-113702694D01*
X105985308Y-114183301D01*
X105984854Y-114703696D01*
X91062693Y-114703696D01*
X91063146Y-114185584D01*
X90864420Y-113704629D01*
X90496766Y-113336334D01*
X90474326Y-113327016D01*
X91070314Y-113327016D01*
X91269040Y-113807971D01*
X91636694Y-114176266D01*
X92117301Y-114375832D01*
X92637696Y-114376286D01*
X93118651Y-114177560D01*
X93486946Y-113809906D01*
X93686512Y-113329299D01*
X93686513Y-113327016D01*
X103361034Y-113327016D01*
X103559760Y-113807971D01*
X103927414Y-114176266D01*
X104408021Y-114375832D01*
X104928416Y-114376286D01*
X105409371Y-114177560D01*
X105777666Y-113809906D01*
X105977232Y-113329299D01*
X105977686Y-112808904D01*
X105778960Y-112327949D01*
X105411306Y-111959654D01*
X104930699Y-111760088D01*
X104410304Y-111759634D01*
X103929349Y-111958360D01*
X103561054Y-112326014D01*
X103361488Y-112806621D01*
X103361034Y-113327016D01*
X93686513Y-113327016D01*
X93686966Y-112808904D01*
X93488240Y-112327949D01*
X93120586Y-111959654D01*
X92639979Y-111760088D01*
X92119584Y-111759634D01*
X91638629Y-111958360D01*
X91270334Y-112326014D01*
X91070768Y-112806621D01*
X91070314Y-113327016D01*
X90474326Y-113327016D01*
X90016159Y-113136768D01*
X89495764Y-113136314D01*
X89014809Y-113335040D01*
X88646514Y-113702694D01*
X88446948Y-114183301D01*
X88446494Y-114703696D01*
X88101053Y-114703696D01*
X88101506Y-114185584D01*
X87902780Y-113704629D01*
X87535126Y-113336334D01*
X87054519Y-113136768D01*
X86534124Y-113136314D01*
X86053169Y-113335040D01*
X85684874Y-113702694D01*
X85485308Y-114183301D01*
X85484854Y-114703696D01*
X69640204Y-114703696D01*
X69231759Y-114534095D01*
X68282924Y-114533267D01*
X67405997Y-114895606D01*
X66734484Y-115565948D01*
X66370615Y-116442241D01*
X66369787Y-117391076D01*
X64579500Y-117391076D01*
X64579500Y-113327016D01*
X82861034Y-113327016D01*
X83059760Y-113807971D01*
X83427414Y-114176266D01*
X83908021Y-114375832D01*
X84428416Y-114376286D01*
X84909371Y-114177560D01*
X85277666Y-113809906D01*
X85477232Y-113329299D01*
X85477686Y-112808904D01*
X85278960Y-112327949D01*
X84911306Y-111959654D01*
X84430699Y-111760088D01*
X83910304Y-111759634D01*
X83429349Y-111958360D01*
X83061054Y-112326014D01*
X82861488Y-112806621D01*
X82861034Y-113327016D01*
X64579500Y-113327016D01*
X64579500Y-91840000D01*
X67239907Y-91840000D01*
X67352946Y-92408285D01*
X67674853Y-92890054D01*
X68004026Y-93110000D01*
X67674853Y-93329946D01*
X67352946Y-93811715D01*
X67239907Y-94380000D01*
X67352946Y-94948285D01*
X67674853Y-95430054D01*
X68004026Y-95650000D01*
X67674853Y-95869946D01*
X67352946Y-96351715D01*
X67239907Y-96920000D01*
X67352946Y-97488285D01*
X67674853Y-97970054D01*
X68004026Y-98190000D01*
X67674853Y-98409946D01*
X67352946Y-98891715D01*
X67239907Y-99460000D01*
X67352946Y-100028285D01*
X67674853Y-100510054D01*
X68004026Y-100730000D01*
X67674853Y-100949946D01*
X67352946Y-101431715D01*
X67239907Y-102000000D01*
X67352946Y-102568285D01*
X67674853Y-103050054D01*
X67716452Y-103077850D01*
X67668683Y-103086838D01*
X67452559Y-103225910D01*
X67307569Y-103438110D01*
X67256560Y-103690000D01*
X67256560Y-105390000D01*
X67300838Y-105625317D01*
X67439910Y-105841441D01*
X67652110Y-105986431D01*
X67904000Y-106037440D01*
X69604000Y-106037440D01*
X69839317Y-105993162D01*
X70055441Y-105854090D01*
X70200431Y-105641890D01*
X70244352Y-105425000D01*
X70632578Y-105425000D01*
X75053366Y-109845787D01*
X75053368Y-109845790D01*
X75340483Y-110037633D01*
X75679158Y-110105000D01*
X81289307Y-110105000D01*
X81180008Y-110368221D01*
X81179554Y-110888616D01*
X81378280Y-111369571D01*
X81745934Y-111737866D01*
X82226541Y-111937432D01*
X82746936Y-111937886D01*
X83227891Y-111739160D01*
X83596186Y-111371506D01*
X83795752Y-110890899D01*
X83796146Y-110439334D01*
X84152599Y-110795787D01*
X84152601Y-110795790D01*
X84439716Y-110987633D01*
X84495907Y-110998810D01*
X84778391Y-111055001D01*
X84778396Y-111055000D01*
X87146203Y-111055000D01*
X87236110Y-111116431D01*
X87488000Y-111167440D01*
X88788000Y-111167440D01*
X89023317Y-111123162D01*
X89129244Y-111055000D01*
X91985580Y-111055000D01*
X91985585Y-111055001D01*
X92268069Y-110998810D01*
X92324260Y-110987633D01*
X92611375Y-110795790D01*
X92751998Y-110655167D01*
X92751794Y-110888616D01*
X92950520Y-111369571D01*
X93318174Y-111737866D01*
X93798781Y-111937432D01*
X94319176Y-111937886D01*
X94800131Y-111739160D01*
X95168426Y-111371506D01*
X95367992Y-110890899D01*
X95368446Y-110370504D01*
X95258742Y-110105000D01*
X101789307Y-110105000D01*
X101680008Y-110368221D01*
X101679554Y-110888616D01*
X101878280Y-111369571D01*
X102245934Y-111737866D01*
X102726541Y-111937432D01*
X103246936Y-111937886D01*
X103727891Y-111739160D01*
X104096186Y-111371506D01*
X104295752Y-110890899D01*
X104296069Y-110527577D01*
X104564279Y-110795787D01*
X104564281Y-110795790D01*
X104851396Y-110987633D01*
X104907587Y-110998810D01*
X105190071Y-111055001D01*
X105190076Y-111055000D01*
X107720203Y-111055000D01*
X107810110Y-111116431D01*
X108062000Y-111167440D01*
X109362000Y-111167440D01*
X109597317Y-111123162D01*
X109703244Y-111055000D01*
X112657629Y-111055000D01*
X112657634Y-111055001D01*
X112940118Y-110998810D01*
X112996309Y-110987633D01*
X113251857Y-110816883D01*
X113251794Y-110888616D01*
X113450520Y-111369571D01*
X113818174Y-111737866D01*
X114298781Y-111937432D01*
X114819176Y-111937886D01*
X115300131Y-111739160D01*
X115668426Y-111371506D01*
X115867992Y-110890899D01*
X115868446Y-110370504D01*
X115758742Y-110105000D01*
X126303107Y-110105000D01*
X126193808Y-110368221D01*
X126193354Y-110888616D01*
X126392080Y-111369571D01*
X126759734Y-111737866D01*
X127240341Y-111937432D01*
X127760736Y-111937886D01*
X128241691Y-111739160D01*
X128609986Y-111371506D01*
X128809552Y-110890899D01*
X128809775Y-110634882D01*
X128970681Y-110795787D01*
X128970683Y-110795790D01*
X129257798Y-110987633D01*
X129313989Y-110998810D01*
X129596473Y-111055001D01*
X129596478Y-111055000D01*
X132104203Y-111055000D01*
X132194110Y-111116431D01*
X132446000Y-111167440D01*
X133746000Y-111167440D01*
X133981317Y-111123162D01*
X134087244Y-111055000D01*
X137238688Y-111055000D01*
X137238693Y-111055001D01*
X137521177Y-110998810D01*
X137577368Y-110987633D01*
X137765617Y-110861850D01*
X137765594Y-110888616D01*
X137964320Y-111369571D01*
X138331974Y-111737866D01*
X138812581Y-111937432D01*
X139332976Y-111937886D01*
X139813931Y-111739160D01*
X140182226Y-111371506D01*
X140381792Y-110890899D01*
X140382246Y-110370504D01*
X140272542Y-110105000D01*
X146803107Y-110105000D01*
X146693808Y-110368221D01*
X146693354Y-110888616D01*
X146892080Y-111369571D01*
X147259734Y-111737866D01*
X147740341Y-111937432D01*
X148260736Y-111937886D01*
X148741691Y-111739160D01*
X149109986Y-111371506D01*
X149309552Y-110890899D01*
X149309896Y-110496249D01*
X149609435Y-110795787D01*
X149609437Y-110795790D01*
X149896552Y-110987633D01*
X149952743Y-110998810D01*
X150235227Y-111055001D01*
X150235232Y-111055000D01*
X152678203Y-111055000D01*
X152768110Y-111116431D01*
X153020000Y-111167440D01*
X154320000Y-111167440D01*
X154555317Y-111123162D01*
X154661244Y-111055000D01*
X157557469Y-111055000D01*
X157557474Y-111055001D01*
X157839958Y-110998810D01*
X157896149Y-110987633D01*
X158183264Y-110795790D01*
X158265747Y-110713307D01*
X158265594Y-110888616D01*
X158464320Y-111369571D01*
X158831974Y-111737866D01*
X159312581Y-111937432D01*
X159832976Y-111937886D01*
X160313931Y-111739160D01*
X160682226Y-111371506D01*
X160881792Y-110890899D01*
X160882246Y-110370504D01*
X160772542Y-110105000D01*
X171312307Y-110105000D01*
X171203008Y-110368221D01*
X171202554Y-110888616D01*
X171401280Y-111369571D01*
X171768934Y-111737866D01*
X172249541Y-111937432D01*
X172769936Y-111937886D01*
X173250891Y-111739160D01*
X173619186Y-111371506D01*
X173818752Y-110890899D01*
X173819082Y-110512672D01*
X174102197Y-110795787D01*
X174102199Y-110795790D01*
X174389314Y-110987633D01*
X174445505Y-110998810D01*
X174727989Y-111055001D01*
X174727994Y-111055000D01*
X177316203Y-111055000D01*
X177406110Y-111116431D01*
X177658000Y-111167440D01*
X178958000Y-111167440D01*
X179193317Y-111123162D01*
X179299244Y-111055000D01*
X182033968Y-111055000D01*
X182033973Y-111055001D01*
X182316457Y-110998810D01*
X182372648Y-110987633D01*
X182659763Y-110795790D01*
X182774975Y-110680577D01*
X182774794Y-110888616D01*
X182973520Y-111369571D01*
X183341174Y-111737866D01*
X183821781Y-111937432D01*
X184342176Y-111937886D01*
X184823131Y-111739160D01*
X185191426Y-111371506D01*
X185390992Y-110890899D01*
X185391446Y-110370504D01*
X185281742Y-110105000D01*
X191812307Y-110105000D01*
X191703008Y-110368221D01*
X191702554Y-110888616D01*
X191901280Y-111369571D01*
X192268934Y-111737866D01*
X192749541Y-111937432D01*
X193269936Y-111937886D01*
X193750891Y-111739160D01*
X194119186Y-111371506D01*
X194318752Y-110890899D01*
X194318977Y-110632703D01*
X194482061Y-110795787D01*
X194482063Y-110795790D01*
X194769178Y-110987633D01*
X194825369Y-110998810D01*
X195107853Y-111055001D01*
X195107858Y-111055000D01*
X197890203Y-111055000D01*
X197980110Y-111116431D01*
X198232000Y-111167440D01*
X199532000Y-111167440D01*
X199767317Y-111123162D01*
X199983441Y-110984090D01*
X200048675Y-110888616D01*
X203274794Y-110888616D01*
X203473520Y-111369571D01*
X203841174Y-111737866D01*
X204321781Y-111937432D01*
X204842176Y-111937886D01*
X205323131Y-111739160D01*
X205691426Y-111371506D01*
X205890992Y-110890899D01*
X205891446Y-110370504D01*
X205692720Y-109889549D01*
X205325066Y-109521254D01*
X204844459Y-109321688D01*
X204324064Y-109321234D01*
X203843109Y-109519960D01*
X203474814Y-109887614D01*
X203275248Y-110368221D01*
X203274794Y-110888616D01*
X200048675Y-110888616D01*
X200128431Y-110771890D01*
X200179440Y-110520000D01*
X200179440Y-109820000D01*
X200135162Y-109584683D01*
X199996090Y-109368559D01*
X199783890Y-109223569D01*
X199770803Y-109220919D01*
X199873244Y-109155000D01*
X200831778Y-109155000D01*
X201001916Y-109225648D01*
X201373882Y-109225972D01*
X201717658Y-109083927D01*
X201980907Y-108821137D01*
X202123553Y-108477609D01*
X202123877Y-108105643D01*
X202059500Y-107949836D01*
X203632934Y-107949836D01*
X203831660Y-108430791D01*
X204199314Y-108799086D01*
X204679921Y-108998652D01*
X205200316Y-108999106D01*
X205681271Y-108800380D01*
X206049566Y-108432726D01*
X206249132Y-107952119D01*
X206249586Y-107431724D01*
X206050860Y-106950769D01*
X205683206Y-106582474D01*
X205202599Y-106382908D01*
X204682204Y-106382454D01*
X204201249Y-106581180D01*
X203832954Y-106948834D01*
X203633388Y-107429441D01*
X203632934Y-107949836D01*
X202059500Y-107949836D01*
X201981832Y-107761867D01*
X201719042Y-107498618D01*
X201375514Y-107355972D01*
X201003548Y-107355648D01*
X200932511Y-107385000D01*
X199873797Y-107385000D01*
X199783890Y-107323569D01*
X199532000Y-107272560D01*
X198232000Y-107272560D01*
X197996683Y-107316838D01*
X197780559Y-107455910D01*
X197635569Y-107668110D01*
X197584560Y-107920000D01*
X197584560Y-108620000D01*
X197628838Y-108855317D01*
X197767910Y-109071441D01*
X197980110Y-109216431D01*
X197993197Y-109219081D01*
X197890756Y-109285000D01*
X195474432Y-109285000D01*
X194783643Y-108594210D01*
X194686951Y-108529603D01*
X194496528Y-108402367D01*
X194440337Y-108391190D01*
X194157853Y-108334999D01*
X194157848Y-108335000D01*
X193801625Y-108335000D01*
X193960612Y-107952119D01*
X193961066Y-107431724D01*
X193858391Y-107183231D01*
X197326106Y-107183231D01*
X197485896Y-107249582D01*
X197857862Y-107249906D01*
X198201638Y-107107861D01*
X198464887Y-106845071D01*
X198607533Y-106501543D01*
X198607857Y-106129577D01*
X198465812Y-105785801D01*
X198203022Y-105522552D01*
X197859494Y-105379906D01*
X197487528Y-105379582D01*
X197406091Y-105413231D01*
X194915732Y-105413231D01*
X195012172Y-105180979D01*
X195012173Y-105178696D01*
X202581374Y-105178696D01*
X202780100Y-105659651D01*
X203147754Y-106027946D01*
X203628361Y-106227512D01*
X204148756Y-106227966D01*
X204434256Y-106110000D01*
X209487143Y-106110000D01*
X209487143Y-112480000D01*
X221042857Y-112480000D01*
X221042857Y-106110000D01*
X209487143Y-106110000D01*
X204434256Y-106110000D01*
X204629711Y-106029240D01*
X204998006Y-105661586D01*
X205197572Y-105180979D01*
X205198026Y-104660584D01*
X204999300Y-104179629D01*
X204631646Y-103811334D01*
X204151039Y-103611768D01*
X203630644Y-103611314D01*
X203149689Y-103810040D01*
X202781394Y-104177694D01*
X202581828Y-104658301D01*
X202581374Y-105178696D01*
X195012173Y-105178696D01*
X195012626Y-104660584D01*
X194813900Y-104179629D01*
X194446246Y-103811334D01*
X193965639Y-103611768D01*
X193445244Y-103611314D01*
X192964289Y-103810040D01*
X192595994Y-104177694D01*
X192396428Y-104658301D01*
X192395974Y-105178696D01*
X192492882Y-105413231D01*
X184601132Y-105413231D01*
X184697572Y-105180979D01*
X184698026Y-104660584D01*
X184499300Y-104179629D01*
X184131646Y-103811334D01*
X183651039Y-103611768D01*
X183130644Y-103611314D01*
X182649689Y-103810040D01*
X182281394Y-104177694D01*
X182081828Y-104658301D01*
X182081374Y-105178696D01*
X182178282Y-105413231D01*
X177344822Y-105413231D01*
X177224799Y-105363393D01*
X176852833Y-105363069D01*
X176731431Y-105413231D01*
X174415732Y-105413231D01*
X174512172Y-105180979D01*
X174512626Y-104660584D01*
X174313900Y-104179629D01*
X173946246Y-103811334D01*
X173465639Y-103611768D01*
X172945244Y-103611314D01*
X172464289Y-103810040D01*
X172095994Y-104177694D01*
X171896428Y-104658301D01*
X171895974Y-105178696D01*
X171992882Y-105413231D01*
X167082243Y-105413231D01*
X167213016Y-105282686D01*
X167355662Y-104939158D01*
X167355986Y-104567192D01*
X167213941Y-104223416D01*
X166951151Y-103960167D01*
X166607623Y-103817521D01*
X166235657Y-103817197D01*
X165891881Y-103959242D01*
X165858706Y-103992359D01*
X161709106Y-103992359D01*
X160932023Y-103215276D01*
X174113394Y-103215276D01*
X174312120Y-103696231D01*
X174679774Y-104064526D01*
X175160381Y-104264092D01*
X175680776Y-104264546D01*
X176161731Y-104065820D01*
X176530026Y-103698166D01*
X176729592Y-103217559D01*
X176730046Y-102697164D01*
X176531320Y-102216209D01*
X176163666Y-101847914D01*
X175683059Y-101648348D01*
X175162664Y-101647894D01*
X174681709Y-101846620D01*
X174313414Y-102214274D01*
X174113848Y-102694881D01*
X174113394Y-103215276D01*
X160932023Y-103215276D01*
X160135566Y-102418819D01*
X159889004Y-102254072D01*
X159598165Y-102196220D01*
X157752726Y-102196220D01*
X157405026Y-101847914D01*
X156924419Y-101648348D01*
X156404024Y-101647894D01*
X155923069Y-101846620D01*
X155554774Y-102214274D01*
X155355208Y-102694881D01*
X155354754Y-103215276D01*
X155553480Y-103696231D01*
X155921134Y-104064526D01*
X156401741Y-104264092D01*
X156922136Y-104264546D01*
X157403091Y-104065820D01*
X157753301Y-103716220D01*
X158367551Y-103716220D01*
X158140489Y-103810040D01*
X157772194Y-104177694D01*
X157572628Y-104658301D01*
X157572174Y-105178696D01*
X157669082Y-105413231D01*
X152960822Y-105413231D01*
X152840799Y-105363393D01*
X152468833Y-105363069D01*
X152347431Y-105413231D01*
X149906532Y-105413231D01*
X150002972Y-105180979D01*
X150003426Y-104660584D01*
X149804700Y-104179629D01*
X149437046Y-103811334D01*
X148956439Y-103611768D01*
X148436044Y-103611314D01*
X147955089Y-103810040D01*
X147586794Y-104177694D01*
X147387228Y-104658301D01*
X147386774Y-105178696D01*
X147483682Y-105413231D01*
X139591932Y-105413231D01*
X139688372Y-105180979D01*
X139688826Y-104660584D01*
X139490100Y-104179629D01*
X139122446Y-103811334D01*
X138641839Y-103611768D01*
X138121444Y-103611314D01*
X137640489Y-103810040D01*
X137272194Y-104177694D01*
X137072628Y-104658301D01*
X137072174Y-105178696D01*
X137169082Y-105413231D01*
X132640822Y-105413231D01*
X132520799Y-105363393D01*
X132148833Y-105363069D01*
X132027431Y-105413231D01*
X129406532Y-105413231D01*
X129502972Y-105180979D01*
X129503426Y-104660584D01*
X129304700Y-104179629D01*
X128937046Y-103811334D01*
X128456439Y-103611768D01*
X127936044Y-103611314D01*
X127455089Y-103810040D01*
X127086794Y-104177694D01*
X126887228Y-104658301D01*
X126886774Y-105178696D01*
X126983682Y-105413231D01*
X115078132Y-105413231D01*
X115174572Y-105180979D01*
X115175026Y-104660584D01*
X114976300Y-104179629D01*
X114608646Y-103811334D01*
X114128039Y-103611768D01*
X113607644Y-103611314D01*
X113126689Y-103810040D01*
X112758394Y-104177694D01*
X112558828Y-104658301D01*
X112558374Y-105178696D01*
X112655282Y-105413231D01*
X108002822Y-105413231D01*
X107882799Y-105363393D01*
X107510833Y-105363069D01*
X107389431Y-105413231D01*
X104892732Y-105413231D01*
X104989172Y-105180979D01*
X104989626Y-104660584D01*
X104790900Y-104179629D01*
X104423246Y-103811334D01*
X103942639Y-103611768D01*
X103422244Y-103611314D01*
X102941289Y-103810040D01*
X102572994Y-104177694D01*
X102373428Y-104658301D01*
X102372974Y-105178696D01*
X102469882Y-105413231D01*
X94578132Y-105413231D01*
X94674572Y-105180979D01*
X94675026Y-104660584D01*
X94476300Y-104179629D01*
X94108646Y-103811334D01*
X93628039Y-103611768D01*
X93107644Y-103611314D01*
X92626689Y-103810040D01*
X92258394Y-104177694D01*
X92058828Y-104658301D01*
X92058374Y-105178696D01*
X92155282Y-105413231D01*
X87428822Y-105413231D01*
X87308799Y-105363393D01*
X86936833Y-105363069D01*
X86815431Y-105413231D01*
X84392732Y-105413231D01*
X84489172Y-105180979D01*
X84489626Y-104660584D01*
X84290900Y-104179629D01*
X83923246Y-103811334D01*
X83442639Y-103611768D01*
X82922244Y-103611314D01*
X82441289Y-103810040D01*
X82072994Y-104177694D01*
X81910021Y-104570175D01*
X80555123Y-103215276D01*
X84090394Y-103215276D01*
X84289120Y-103696231D01*
X84656774Y-104064526D01*
X85137381Y-104264092D01*
X85657776Y-104264546D01*
X86138731Y-104065820D01*
X86507026Y-103698166D01*
X86706592Y-103217559D01*
X86707046Y-102697164D01*
X86628314Y-102506616D01*
X86965674Y-102506616D01*
X87164400Y-102987571D01*
X87532054Y-103355866D01*
X88012661Y-103555432D01*
X88533056Y-103555886D01*
X89014011Y-103357160D01*
X89156142Y-103215276D01*
X89840954Y-103215276D01*
X90039680Y-103696231D01*
X90407334Y-104064526D01*
X90887941Y-104264092D01*
X91408336Y-104264546D01*
X91889291Y-104065820D01*
X92257586Y-103698166D01*
X92457152Y-103217559D01*
X92457153Y-103215276D01*
X104590394Y-103215276D01*
X104789120Y-103696231D01*
X105156774Y-104064526D01*
X105637381Y-104264092D01*
X106157776Y-104264546D01*
X106638731Y-104065820D01*
X107007026Y-103698166D01*
X107206592Y-103217559D01*
X107207046Y-102697164D01*
X107008320Y-102216209D01*
X106640666Y-101847914D01*
X106160059Y-101648348D01*
X105639664Y-101647894D01*
X105158709Y-101846620D01*
X104790414Y-102214274D01*
X104590848Y-102694881D01*
X104590394Y-103215276D01*
X92457153Y-103215276D01*
X92457606Y-102697164D01*
X92258880Y-102216209D01*
X91891226Y-101847914D01*
X91410619Y-101648348D01*
X90890224Y-101647894D01*
X90409269Y-101846620D01*
X90040974Y-102214274D01*
X89841408Y-102694881D01*
X89840954Y-103215276D01*
X89156142Y-103215276D01*
X89382306Y-102989506D01*
X89581872Y-102508899D01*
X89582326Y-101988504D01*
X89383600Y-101507549D01*
X89159000Y-101282557D01*
X89159000Y-100637575D01*
X89366441Y-100504090D01*
X89511431Y-100291890D01*
X89562440Y-100040000D01*
X89562440Y-99340000D01*
X89518162Y-99104683D01*
X89379090Y-98888559D01*
X89166890Y-98743569D01*
X89153803Y-98740919D01*
X89256244Y-98675000D01*
X107720203Y-98675000D01*
X107810110Y-98736431D01*
X107823197Y-98739081D01*
X107610559Y-98875910D01*
X107465569Y-99088110D01*
X107414560Y-99340000D01*
X107414560Y-100040000D01*
X107458838Y-100275317D01*
X107597910Y-100491441D01*
X107810110Y-100636431D01*
X107889000Y-100652407D01*
X107889000Y-101282697D01*
X107665694Y-101505614D01*
X107466128Y-101986221D01*
X107465674Y-102506616D01*
X107664400Y-102987571D01*
X108032054Y-103355866D01*
X108512661Y-103555432D01*
X109033056Y-103555886D01*
X109514011Y-103357160D01*
X109656142Y-103215276D01*
X110340954Y-103215276D01*
X110539680Y-103696231D01*
X110907334Y-104064526D01*
X111387941Y-104264092D01*
X111908336Y-104264546D01*
X112389291Y-104065820D01*
X112757586Y-103698166D01*
X112957152Y-103217559D01*
X112957153Y-103215276D01*
X129104194Y-103215276D01*
X129302920Y-103696231D01*
X129670574Y-104064526D01*
X130151181Y-104264092D01*
X130671576Y-104264546D01*
X131152531Y-104065820D01*
X131520826Y-103698166D01*
X131720392Y-103217559D01*
X131720846Y-102697164D01*
X131522120Y-102216209D01*
X131154466Y-101847914D01*
X130673859Y-101648348D01*
X130153464Y-101647894D01*
X129672509Y-101846620D01*
X129304214Y-102214274D01*
X129104648Y-102694881D01*
X129104194Y-103215276D01*
X112957153Y-103215276D01*
X112957584Y-102722718D01*
X114043497Y-101636805D01*
X121370611Y-101636805D01*
X121402747Y-101668997D01*
X121746275Y-101811643D01*
X122118241Y-101811967D01*
X122462017Y-101669922D01*
X122725266Y-101407132D01*
X122867912Y-101063604D01*
X122868236Y-100691638D01*
X122726191Y-100347862D01*
X122463401Y-100084613D01*
X122119873Y-99941967D01*
X121747907Y-99941643D01*
X121404131Y-100083688D01*
X121370956Y-100116805D01*
X113728695Y-100116805D01*
X113437856Y-100174657D01*
X113191294Y-100339404D01*
X111882375Y-101648323D01*
X111390224Y-101647894D01*
X110909269Y-101846620D01*
X110540974Y-102214274D01*
X110341408Y-102694881D01*
X110340954Y-103215276D01*
X109656142Y-103215276D01*
X109882306Y-102989506D01*
X110081872Y-102508899D01*
X110082326Y-101988504D01*
X109883600Y-101507549D01*
X109659000Y-101282557D01*
X109659000Y-100603470D01*
X109813441Y-100504090D01*
X109958431Y-100291890D01*
X110009440Y-100040000D01*
X110009440Y-99340000D01*
X109965162Y-99104683D01*
X109826090Y-98888559D01*
X109613890Y-98743569D01*
X109600803Y-98740919D01*
X109703244Y-98675000D01*
X132358203Y-98675000D01*
X132448110Y-98736431D01*
X132461197Y-98739081D01*
X132248559Y-98875910D01*
X132103569Y-99088110D01*
X132052560Y-99340000D01*
X132052560Y-100040000D01*
X132096838Y-100275317D01*
X132235910Y-100491441D01*
X132402800Y-100605472D01*
X132402800Y-101282697D01*
X132179494Y-101505614D01*
X131979928Y-101986221D01*
X131979474Y-102506616D01*
X132178200Y-102987571D01*
X132545854Y-103355866D01*
X133026461Y-103555432D01*
X133546856Y-103555886D01*
X134027811Y-103357160D01*
X134169942Y-103215276D01*
X134854754Y-103215276D01*
X135053480Y-103696231D01*
X135421134Y-104064526D01*
X135901741Y-104264092D01*
X136422136Y-104264546D01*
X136903091Y-104065820D01*
X137271386Y-103698166D01*
X137470952Y-103217559D01*
X137470953Y-103215276D01*
X149604194Y-103215276D01*
X149802920Y-103696231D01*
X150170574Y-104064526D01*
X150651181Y-104264092D01*
X151171576Y-104264546D01*
X151652531Y-104065820D01*
X152020826Y-103698166D01*
X152220392Y-103217559D01*
X152220846Y-102697164D01*
X152022120Y-102216209D01*
X151654466Y-101847914D01*
X151173859Y-101648348D01*
X150653464Y-101647894D01*
X150172509Y-101846620D01*
X149804214Y-102214274D01*
X149604648Y-102694881D01*
X149604194Y-103215276D01*
X137470953Y-103215276D01*
X137471406Y-102697164D01*
X137272680Y-102216209D01*
X136905026Y-101847914D01*
X136424419Y-101648348D01*
X135904024Y-101647894D01*
X135423069Y-101846620D01*
X135054774Y-102214274D01*
X134855208Y-102694881D01*
X134854754Y-103215276D01*
X134169942Y-103215276D01*
X134396106Y-102989506D01*
X134595672Y-102508899D01*
X134596126Y-101988504D01*
X134397400Y-101507549D01*
X134172800Y-101282557D01*
X134172800Y-100654925D01*
X134235317Y-100643162D01*
X134451441Y-100504090D01*
X134596431Y-100291890D01*
X134647440Y-100040000D01*
X134647440Y-99340000D01*
X134603162Y-99104683D01*
X134464090Y-98888559D01*
X134251890Y-98743569D01*
X134238803Y-98740919D01*
X134341244Y-98675000D01*
X152805203Y-98675000D01*
X152895110Y-98736431D01*
X152908197Y-98739081D01*
X152695559Y-98875910D01*
X152550569Y-99088110D01*
X152499560Y-99340000D01*
X152499560Y-100040000D01*
X152543838Y-100275317D01*
X152682910Y-100491441D01*
X152895110Y-100636431D01*
X152902800Y-100637988D01*
X152902800Y-101282697D01*
X152679494Y-101505614D01*
X152479928Y-101986221D01*
X152479474Y-102506616D01*
X152678200Y-102987571D01*
X153045854Y-103355866D01*
X153526461Y-103555432D01*
X154046856Y-103555886D01*
X154527811Y-103357160D01*
X154896106Y-102989506D01*
X155095672Y-102508899D01*
X155096126Y-101988504D01*
X154897400Y-101507549D01*
X154672800Y-101282557D01*
X154672800Y-100644953D01*
X154682317Y-100643162D01*
X154898441Y-100504090D01*
X155043431Y-100291890D01*
X155094440Y-100040000D01*
X155094440Y-99340000D01*
X155050162Y-99104683D01*
X154911090Y-98888559D01*
X154698890Y-98743569D01*
X154685803Y-98740919D01*
X154788244Y-98675000D01*
X177316203Y-98675000D01*
X177406110Y-98736431D01*
X177419197Y-98739081D01*
X177206559Y-98875910D01*
X177061569Y-99088110D01*
X177010560Y-99340000D01*
X177010560Y-100040000D01*
X177054838Y-100275317D01*
X177193910Y-100491441D01*
X177406110Y-100636431D01*
X177412000Y-100637624D01*
X177412000Y-101282697D01*
X177188694Y-101505614D01*
X176989128Y-101986221D01*
X176988674Y-102506616D01*
X177187400Y-102987571D01*
X177555054Y-103355866D01*
X178035661Y-103555432D01*
X178556056Y-103555886D01*
X179037011Y-103357160D01*
X179179142Y-103215276D01*
X179863954Y-103215276D01*
X180062680Y-103696231D01*
X180430334Y-104064526D01*
X180910941Y-104264092D01*
X181431336Y-104264546D01*
X181912291Y-104065820D01*
X182280586Y-103698166D01*
X182480152Y-103217559D01*
X182480153Y-103215276D01*
X194613394Y-103215276D01*
X194812120Y-103696231D01*
X195179774Y-104064526D01*
X195660381Y-104264092D01*
X196180776Y-104264546D01*
X196661731Y-104065820D01*
X197030026Y-103698166D01*
X197229592Y-103217559D01*
X197230046Y-102697164D01*
X197031320Y-102216209D01*
X196663666Y-101847914D01*
X196183059Y-101648348D01*
X195662664Y-101647894D01*
X195181709Y-101846620D01*
X194813414Y-102214274D01*
X194613848Y-102694881D01*
X194613394Y-103215276D01*
X182480153Y-103215276D01*
X182480606Y-102697164D01*
X182281880Y-102216209D01*
X181914226Y-101847914D01*
X181433619Y-101648348D01*
X180913224Y-101647894D01*
X180432269Y-101846620D01*
X180063974Y-102214274D01*
X179864408Y-102694881D01*
X179863954Y-103215276D01*
X179179142Y-103215276D01*
X179405306Y-102989506D01*
X179604872Y-102508899D01*
X179605326Y-101988504D01*
X179406600Y-101507549D01*
X179182000Y-101282557D01*
X179182000Y-100645291D01*
X179193317Y-100643162D01*
X179409441Y-100504090D01*
X179554431Y-100291890D01*
X179605440Y-100040000D01*
X179605440Y-99340000D01*
X179561162Y-99104683D01*
X179422090Y-98888559D01*
X179209890Y-98743569D01*
X179196803Y-98740919D01*
X179299244Y-98675000D01*
X197763203Y-98675000D01*
X197853110Y-98736431D01*
X197866197Y-98739081D01*
X197653559Y-98875910D01*
X197508569Y-99088110D01*
X197457560Y-99340000D01*
X197457560Y-100040000D01*
X197501838Y-100275317D01*
X197640910Y-100491441D01*
X197853110Y-100636431D01*
X197912000Y-100648357D01*
X197912000Y-101282697D01*
X197688694Y-101505614D01*
X197489128Y-101986221D01*
X197488674Y-102506616D01*
X197687400Y-102987571D01*
X198055054Y-103355866D01*
X198535661Y-103555432D01*
X199056056Y-103555886D01*
X199537011Y-103357160D01*
X199679142Y-103215276D01*
X200363954Y-103215276D01*
X200562680Y-103696231D01*
X200930334Y-104064526D01*
X201410941Y-104264092D01*
X201931336Y-104264546D01*
X202412291Y-104065820D01*
X202780586Y-103698166D01*
X202980152Y-103217559D01*
X202980584Y-102722718D01*
X203297613Y-102405689D01*
X209717783Y-102405689D01*
X209749919Y-102437881D01*
X210093447Y-102580527D01*
X210465413Y-102580851D01*
X210809189Y-102438806D01*
X211072438Y-102176016D01*
X211215084Y-101832488D01*
X211215408Y-101460522D01*
X211073363Y-101116746D01*
X210810573Y-100853497D01*
X210467045Y-100710851D01*
X210095079Y-100710527D01*
X209751303Y-100852572D01*
X209718128Y-100885689D01*
X202982811Y-100885689D01*
X202691972Y-100943541D01*
X202445410Y-101108288D01*
X201905375Y-101648323D01*
X201413224Y-101647894D01*
X200932269Y-101846620D01*
X200563974Y-102214274D01*
X200364408Y-102694881D01*
X200363954Y-103215276D01*
X199679142Y-103215276D01*
X199905306Y-102989506D01*
X200104872Y-102508899D01*
X200105326Y-101988504D01*
X199906600Y-101507549D01*
X199682000Y-101282557D01*
X199682000Y-100616340D01*
X199856441Y-100504090D01*
X200001431Y-100291890D01*
X200052440Y-100040000D01*
X200052440Y-99340000D01*
X200008162Y-99104683D01*
X199869090Y-98888559D01*
X199656890Y-98743569D01*
X199643803Y-98740919D01*
X199746244Y-98675000D01*
X215583998Y-98675000D01*
X215724785Y-98815787D01*
X215724787Y-98815790D01*
X216011902Y-99007633D01*
X216350577Y-99075000D01*
X217263146Y-99075000D01*
X217300838Y-99275317D01*
X217439910Y-99491441D01*
X217652110Y-99636431D01*
X217904000Y-99687440D01*
X219604000Y-99687440D01*
X219839317Y-99643162D01*
X220055441Y-99504090D01*
X220200431Y-99291890D01*
X220251440Y-99040000D01*
X220251440Y-97340000D01*
X220207162Y-97104683D01*
X220068090Y-96888559D01*
X219855890Y-96743569D01*
X219747893Y-96721699D01*
X220025645Y-96416924D01*
X220195476Y-96006890D01*
X220074155Y-95777000D01*
X218881000Y-95777000D01*
X218881000Y-95797000D01*
X218627000Y-95797000D01*
X218627000Y-95777000D01*
X217433845Y-95777000D01*
X217312524Y-96006890D01*
X217482355Y-96416924D01*
X217758501Y-96719937D01*
X217668683Y-96736838D01*
X217452559Y-96875910D01*
X217307569Y-97088110D01*
X217263648Y-97305000D01*
X216717157Y-97305000D01*
X216576367Y-97164210D01*
X216467527Y-97091486D01*
X216289252Y-96972367D01*
X216233061Y-96961190D01*
X215950577Y-96904999D01*
X215950572Y-96905000D01*
X199746797Y-96905000D01*
X199656890Y-96843569D01*
X199405000Y-96792560D01*
X198105000Y-96792560D01*
X197869683Y-96836838D01*
X197763756Y-96905000D01*
X179299797Y-96905000D01*
X179209890Y-96843569D01*
X178958000Y-96792560D01*
X177658000Y-96792560D01*
X177422683Y-96836838D01*
X177316756Y-96905000D01*
X154788797Y-96905000D01*
X154698890Y-96843569D01*
X154447000Y-96792560D01*
X153147000Y-96792560D01*
X152911683Y-96836838D01*
X152805756Y-96905000D01*
X134341797Y-96905000D01*
X134251890Y-96843569D01*
X134000000Y-96792560D01*
X132700000Y-96792560D01*
X132464683Y-96836838D01*
X132358756Y-96905000D01*
X109703797Y-96905000D01*
X109613890Y-96843569D01*
X109362000Y-96792560D01*
X108062000Y-96792560D01*
X107826683Y-96836838D01*
X107720756Y-96905000D01*
X89256797Y-96905000D01*
X89166890Y-96843569D01*
X88915000Y-96792560D01*
X87615000Y-96792560D01*
X87379683Y-96836838D01*
X87163559Y-96975910D01*
X87018569Y-97188110D01*
X86967560Y-97440000D01*
X86967560Y-98140000D01*
X87011838Y-98375317D01*
X87150910Y-98591441D01*
X87363110Y-98736431D01*
X87376197Y-98739081D01*
X87163559Y-98875910D01*
X87018569Y-99088110D01*
X86967560Y-99340000D01*
X86967560Y-100040000D01*
X87011838Y-100275317D01*
X87150910Y-100491441D01*
X87363110Y-100636431D01*
X87389000Y-100641674D01*
X87389000Y-101282697D01*
X87165694Y-101505614D01*
X86966128Y-101986221D01*
X86965674Y-102506616D01*
X86628314Y-102506616D01*
X86508320Y-102216209D01*
X86140666Y-101847914D01*
X85660059Y-101648348D01*
X85139664Y-101647894D01*
X84658709Y-101846620D01*
X84290414Y-102214274D01*
X84090848Y-102694881D01*
X84090394Y-103215276D01*
X80555123Y-103215276D01*
X79584057Y-102244210D01*
X79481997Y-102176016D01*
X79296942Y-102052367D01*
X79240751Y-102041190D01*
X78958267Y-101984999D01*
X78958262Y-101985000D01*
X78826975Y-101985000D01*
X78663890Y-101873569D01*
X78412000Y-101822560D01*
X77512000Y-101822560D01*
X77276683Y-101866838D01*
X77060559Y-102005910D01*
X76973936Y-102132686D01*
X76888250Y-102047000D01*
X76089000Y-102047000D01*
X76089000Y-102067000D01*
X75835000Y-102067000D01*
X75835000Y-102047000D01*
X75815000Y-102047000D01*
X75815000Y-101793000D01*
X75835000Y-101793000D01*
X75835000Y-101043750D01*
X76089000Y-101043750D01*
X76089000Y-101793000D01*
X76888250Y-101793000D01*
X77047000Y-101634250D01*
X77047000Y-101393690D01*
X76950327Y-101160301D01*
X76771698Y-100981673D01*
X76538309Y-100885000D01*
X76247750Y-100885000D01*
X76089000Y-101043750D01*
X75835000Y-101043750D01*
X75676250Y-100885000D01*
X75385691Y-100885000D01*
X75152302Y-100981673D01*
X74973673Y-101160301D01*
X74906031Y-101323602D01*
X74774090Y-101118559D01*
X74561890Y-100973569D01*
X74310000Y-100922560D01*
X73010000Y-100922560D01*
X72774683Y-100966838D01*
X72668756Y-101035000D01*
X69889978Y-101035000D01*
X69833147Y-100949946D01*
X69503974Y-100730000D01*
X69833147Y-100510054D01*
X70026954Y-100220000D01*
X71998756Y-100220000D01*
X72289595Y-100162148D01*
X72536157Y-99997401D01*
X77240448Y-95293110D01*
X217312524Y-95293110D01*
X217433845Y-95523000D01*
X218627000Y-95523000D01*
X218627000Y-94329181D01*
X218881000Y-94329181D01*
X218881000Y-95523000D01*
X220074155Y-95523000D01*
X220195476Y-95293110D01*
X220025645Y-94883076D01*
X219635358Y-94454817D01*
X219110892Y-94208514D01*
X218881000Y-94329181D01*
X218627000Y-94329181D01*
X218397108Y-94208514D01*
X217872642Y-94454817D01*
X217482355Y-94883076D01*
X217312524Y-95293110D01*
X77240448Y-95293110D01*
X79698558Y-92835000D01*
X83892537Y-92835000D01*
X83924673Y-92867192D01*
X84268201Y-93009838D01*
X84640167Y-93010162D01*
X84983943Y-92868117D01*
X85017118Y-92835000D01*
X101672537Y-92835000D01*
X101704673Y-92867192D01*
X102048201Y-93009838D01*
X102420167Y-93010162D01*
X102763943Y-92868117D01*
X102797118Y-92835000D01*
X119452537Y-92835000D01*
X119484673Y-92867192D01*
X119828201Y-93009838D01*
X120200167Y-93010162D01*
X120543943Y-92868117D01*
X120577118Y-92835000D01*
X137867537Y-92835000D01*
X137899673Y-92867192D01*
X138243201Y-93009838D01*
X138615167Y-93010162D01*
X138958943Y-92868117D01*
X138992118Y-92835000D01*
X155647537Y-92835000D01*
X155679673Y-92867192D01*
X156023201Y-93009838D01*
X156395167Y-93010162D01*
X156738943Y-92868117D01*
X156772118Y-92835000D01*
X174062537Y-92835000D01*
X174094673Y-92867192D01*
X174438201Y-93009838D01*
X174810167Y-93010162D01*
X175153943Y-92868117D01*
X175187118Y-92835000D01*
X191842537Y-92835000D01*
X191874673Y-92867192D01*
X192218201Y-93009838D01*
X192590167Y-93010162D01*
X192933943Y-92868117D01*
X192967118Y-92835000D01*
X210257537Y-92835000D01*
X210289673Y-92867192D01*
X210633201Y-93009838D01*
X211005167Y-93010162D01*
X211348943Y-92868117D01*
X211612192Y-92605327D01*
X211754838Y-92261799D01*
X211755162Y-91889833D01*
X211613117Y-91546057D01*
X211507290Y-91440046D01*
X211612192Y-91335327D01*
X211754838Y-90991799D01*
X211755162Y-90619833D01*
X211613117Y-90276057D01*
X211350327Y-90012808D01*
X211006799Y-89870162D01*
X210634833Y-89869838D01*
X210291057Y-90011883D01*
X210257882Y-90045000D01*
X192967463Y-90045000D01*
X192935327Y-90012808D01*
X192591799Y-89870162D01*
X192219833Y-89869838D01*
X191876057Y-90011883D01*
X191842882Y-90045000D01*
X175187463Y-90045000D01*
X175155327Y-90012808D01*
X174811799Y-89870162D01*
X174439833Y-89869838D01*
X174096057Y-90011883D01*
X174062882Y-90045000D01*
X156772463Y-90045000D01*
X156740327Y-90012808D01*
X156396799Y-89870162D01*
X156024833Y-89869838D01*
X155681057Y-90011883D01*
X155647882Y-90045000D01*
X138992463Y-90045000D01*
X138960327Y-90012808D01*
X138616799Y-89870162D01*
X138244833Y-89869838D01*
X137901057Y-90011883D01*
X137867882Y-90045000D01*
X120577463Y-90045000D01*
X120545327Y-90012808D01*
X120201799Y-89870162D01*
X119829833Y-89869838D01*
X119486057Y-90011883D01*
X119452882Y-90045000D01*
X102797463Y-90045000D01*
X102765327Y-90012808D01*
X102421799Y-89870162D01*
X102049833Y-89869838D01*
X101706057Y-90011883D01*
X101672882Y-90045000D01*
X85017463Y-90045000D01*
X84985327Y-90012808D01*
X84641799Y-89870162D01*
X84269833Y-89869838D01*
X83926057Y-90011883D01*
X83892882Y-90045000D01*
X78236291Y-90045000D01*
X77945452Y-90102852D01*
X77698890Y-90267599D01*
X71806489Y-96160000D01*
X70026954Y-96160000D01*
X69833147Y-95869946D01*
X69503974Y-95650000D01*
X69833147Y-95430054D01*
X70026954Y-95140000D01*
X70720000Y-95140000D01*
X71010839Y-95082148D01*
X71257401Y-94917401D01*
X72300431Y-93874371D01*
X72465178Y-93627810D01*
X72523030Y-93336970D01*
X72523030Y-86528967D01*
X72838201Y-86659838D01*
X73210167Y-86660162D01*
X73553943Y-86518117D01*
X73817192Y-86255327D01*
X73959838Y-85911799D01*
X73959879Y-85864923D01*
X77149802Y-82675000D01*
X79955537Y-82675000D01*
X79987673Y-82707192D01*
X80331201Y-82849838D01*
X80703167Y-82850162D01*
X81046943Y-82708117D01*
X81080118Y-82675000D01*
X89353537Y-82675000D01*
X89385673Y-82707192D01*
X89729201Y-82849838D01*
X90101167Y-82850162D01*
X90444943Y-82708117D01*
X90478118Y-82675000D01*
X96989367Y-82675000D01*
X96855162Y-82998201D01*
X96854838Y-83370167D01*
X96989056Y-83695000D01*
X79937463Y-83695000D01*
X79905327Y-83662808D01*
X79561799Y-83520162D01*
X79189833Y-83519838D01*
X78846057Y-83661883D01*
X78582808Y-83924673D01*
X78440162Y-84268201D01*
X78439838Y-84640167D01*
X78581883Y-84983943D01*
X78844673Y-85247192D01*
X79188201Y-85389838D01*
X79560167Y-85390162D01*
X79903943Y-85248117D01*
X79937118Y-85215000D01*
X106117537Y-85215000D01*
X106149673Y-85247192D01*
X106493201Y-85389838D01*
X106865167Y-85390162D01*
X107208943Y-85248117D01*
X107472192Y-84985327D01*
X107614838Y-84641799D01*
X107615162Y-84269833D01*
X107480944Y-83945000D01*
X114134367Y-83945000D01*
X114000162Y-84268201D01*
X113999838Y-84640167D01*
X114141883Y-84983943D01*
X114404673Y-85247192D01*
X114748201Y-85389838D01*
X115120167Y-85390162D01*
X115463943Y-85248117D01*
X115497118Y-85215000D01*
X142312537Y-85215000D01*
X142344673Y-85247192D01*
X142688201Y-85389838D01*
X143060167Y-85390162D01*
X143403943Y-85248117D01*
X143667192Y-84985327D01*
X143809838Y-84641799D01*
X143810162Y-84269833D01*
X143675944Y-83945000D01*
X150329367Y-83945000D01*
X150195162Y-84268201D01*
X150194838Y-84640167D01*
X150336883Y-84983943D01*
X150599673Y-85247192D01*
X150943201Y-85389838D01*
X151315167Y-85390162D01*
X151658943Y-85248117D01*
X151692118Y-85215000D01*
X177872537Y-85215000D01*
X177904673Y-85247192D01*
X178248201Y-85389838D01*
X178620167Y-85390162D01*
X178963943Y-85248117D01*
X179227192Y-84985327D01*
X179369838Y-84641799D01*
X179370162Y-84269833D01*
X179235944Y-83945000D01*
X186524367Y-83945000D01*
X186390162Y-84268201D01*
X186389838Y-84640167D01*
X186531883Y-84983943D01*
X186794673Y-85247192D01*
X187138201Y-85389838D01*
X187510167Y-85390162D01*
X187853943Y-85248117D01*
X187887118Y-85215000D01*
X214067537Y-85215000D01*
X214099673Y-85247192D01*
X214443201Y-85389838D01*
X214815167Y-85390162D01*
X215158943Y-85248117D01*
X215422192Y-84985327D01*
X215564838Y-84641799D01*
X215565162Y-84269833D01*
X215423117Y-83926057D01*
X215160327Y-83662808D01*
X214816799Y-83520162D01*
X214444833Y-83519838D01*
X214101057Y-83661883D01*
X214067882Y-83695000D01*
X198285633Y-83695000D01*
X198419838Y-83371799D01*
X198420162Y-82999833D01*
X198314690Y-82744570D01*
X198568201Y-82849838D01*
X198940167Y-82850162D01*
X199283943Y-82708117D01*
X199547192Y-82445327D01*
X199689838Y-82101799D01*
X199690162Y-81729833D01*
X199548117Y-81386057D01*
X199285327Y-81122808D01*
X198941799Y-80980162D01*
X198569833Y-80979838D01*
X198314570Y-81085310D01*
X198419838Y-80831799D01*
X198420162Y-80459833D01*
X198278117Y-80116057D01*
X198015327Y-79852808D01*
X197671799Y-79710162D01*
X197299833Y-79709838D01*
X196956057Y-79851883D01*
X196922882Y-79885000D01*
X74930000Y-79885000D01*
X74639161Y-79942852D01*
X74392599Y-80107599D01*
X71225629Y-83274569D01*
X71060882Y-83521131D01*
X71003030Y-83811970D01*
X71003030Y-93022168D01*
X70405198Y-93620000D01*
X70026954Y-93620000D01*
X69833147Y-93329946D01*
X69503974Y-93110000D01*
X69833147Y-92890054D01*
X70155054Y-92408285D01*
X70268093Y-91840000D01*
X70155054Y-91271715D01*
X69833147Y-90789946D01*
X69492447Y-90562298D01*
X69635358Y-90495183D01*
X70025645Y-90066924D01*
X70195476Y-89656890D01*
X70074155Y-89427000D01*
X68881000Y-89427000D01*
X68881000Y-89447000D01*
X68627000Y-89447000D01*
X68627000Y-89427000D01*
X67433845Y-89427000D01*
X67312524Y-89656890D01*
X67482355Y-90066924D01*
X67872642Y-90495183D01*
X68015553Y-90562298D01*
X67674853Y-90789946D01*
X67352946Y-91271715D01*
X67239907Y-91840000D01*
X64579500Y-91840000D01*
X64579500Y-88943110D01*
X67312524Y-88943110D01*
X67433845Y-89173000D01*
X68627000Y-89173000D01*
X68627000Y-87979181D01*
X68881000Y-87979181D01*
X68881000Y-89173000D01*
X70074155Y-89173000D01*
X70195476Y-88943110D01*
X70025645Y-88533076D01*
X69635358Y-88104817D01*
X69110892Y-87858514D01*
X68881000Y-87979181D01*
X68627000Y-87979181D01*
X68397108Y-87858514D01*
X67872642Y-88104817D01*
X67482355Y-88533076D01*
X67312524Y-88943110D01*
X64579500Y-88943110D01*
X64579500Y-77391156D01*
X66369787Y-77391156D01*
X66732126Y-78268083D01*
X67402468Y-78939596D01*
X68278761Y-79303465D01*
X69227596Y-79304293D01*
X70104523Y-78941954D01*
X70776036Y-78271612D01*
X71139905Y-77395319D01*
X71139908Y-77391156D01*
X216369487Y-77391156D01*
X216731826Y-78268083D01*
X217402168Y-78939596D01*
X218278461Y-79303465D01*
X219227296Y-79304293D01*
X220104223Y-78941954D01*
X220775736Y-78271612D01*
X221139605Y-77395319D01*
X221140433Y-76446484D01*
X220778094Y-75569557D01*
X220107752Y-74898044D01*
X219231459Y-74534175D01*
X218282624Y-74533347D01*
X217405697Y-74895686D01*
X216734184Y-75566028D01*
X216370315Y-76442321D01*
X216369487Y-77391156D01*
X71139908Y-77391156D01*
X71140733Y-76446484D01*
X70778394Y-75569557D01*
X70108052Y-74898044D01*
X69231759Y-74534175D01*
X68282924Y-74533347D01*
X67405997Y-74895686D01*
X66734484Y-75566028D01*
X66370615Y-76442321D01*
X66369787Y-77391156D01*
X64579500Y-77391156D01*
X64579500Y-72745600D01*
X222758000Y-72745600D01*
X222758000Y-121094500D01*
G36*
X146335668Y-107429441D02*
X146335214Y-107949836D01*
X146494360Y-108335000D01*
X140580945Y-108335000D01*
X140739932Y-107952119D01*
X140740386Y-107431724D01*
X140637711Y-107183231D01*
X146437904Y-107183231D01*
X146335668Y-107429441D01*
X146335668Y-107429441D01*
G37*
X146335668Y-107429441D02*
X146335214Y-107949836D01*
X146494360Y-108335000D01*
X140580945Y-108335000D01*
X140739932Y-107952119D01*
X140740386Y-107431724D01*
X140637711Y-107183231D01*
X146437904Y-107183231D01*
X146335668Y-107429441D01*
G36*
X125835668Y-107429441D02*
X125835214Y-107949836D01*
X125994360Y-108335000D01*
X116067145Y-108335000D01*
X116226132Y-107952119D01*
X116226586Y-107431724D01*
X116123911Y-107183231D01*
X125937904Y-107183231D01*
X125835668Y-107429441D01*
X125835668Y-107429441D01*
G37*
X125835668Y-107429441D02*
X125835214Y-107949836D01*
X125994360Y-108335000D01*
X116067145Y-108335000D01*
X116226132Y-107952119D01*
X116226586Y-107431724D01*
X116123911Y-107183231D01*
X125937904Y-107183231D01*
X125835668Y-107429441D01*
G36*
X101321868Y-107429441D02*
X101321414Y-107949836D01*
X101480560Y-108335000D01*
X95567145Y-108335000D01*
X95726132Y-107952119D01*
X95726586Y-107431724D01*
X95623911Y-107183231D01*
X101424104Y-107183231D01*
X101321868Y-107429441D01*
X101321868Y-107429441D01*
G37*
X101321868Y-107429441D02*
X101321414Y-107949836D01*
X101480560Y-108335000D01*
X95567145Y-108335000D01*
X95726132Y-107952119D01*
X95726586Y-107431724D01*
X95623911Y-107183231D01*
X101424104Y-107183231D01*
X101321868Y-107429441D01*
G36*
X191344868Y-107429441D02*
X191344414Y-107949836D01*
X191503560Y-108335000D01*
X185590145Y-108335000D01*
X185749132Y-107952119D01*
X185749586Y-107431724D01*
X185646911Y-107183231D01*
X191447104Y-107183231D01*
X191344868Y-107429441D01*
X191344868Y-107429441D01*
G37*
X191344868Y-107429441D02*
X191344414Y-107949836D01*
X191503560Y-108335000D01*
X185590145Y-108335000D01*
X185749132Y-107952119D01*
X185749586Y-107431724D01*
X185646911Y-107183231D01*
X191447104Y-107183231D01*
X191344868Y-107429441D01*
G36*
X170844868Y-107429441D02*
X170844414Y-107949836D01*
X171003560Y-108335000D01*
X161080945Y-108335000D01*
X161239932Y-107952119D01*
X161240386Y-107431724D01*
X161137711Y-107183231D01*
X170947104Y-107183231D01*
X170844868Y-107429441D01*
X170844868Y-107429441D01*
G37*
X170844868Y-107429441D02*
X170844414Y-107949836D01*
X171003560Y-108335000D01*
X161080945Y-108335000D01*
X161239932Y-107952119D01*
X161240386Y-107431724D01*
X161137711Y-107183231D01*
X170947104Y-107183231D01*
X170844868Y-107429441D01*
M02*
