G04 #@! TF.GenerationSoftware,KiCad,Pcbnew,(5.0.1)-4*
G04 #@! TF.CreationDate,2018-12-08T00:32:36+01:00*
G04 #@! TF.ProjectId,IN14_Display,494E31345F446973706C61792E6B6963,rev?*
G04 #@! TF.SameCoordinates,Original*
G04 #@! TF.FileFunction,Soldermask,Bot*
G04 #@! TF.FilePolarity,Negative*
%FSLAX46Y46*%
G04 Gerber Fmt 4.6, Leading zero omitted, Abs format (unit mm)*
G04 Created by KiCad (PCBNEW (5.0.1)-4) date 08.12.2018 00:32:36*
%MOMM*%
%LPD*%
G01*
G04 APERTURE LIST*
%ADD10C,0.100000*%
G04 APERTURE END LIST*
D10*
G36*
X219040891Y-114987351D02*
X219323772Y-115043619D01*
X219678660Y-115190619D01*
X219998051Y-115404029D01*
X220269671Y-115675649D01*
X220483081Y-115995040D01*
X220630081Y-116349928D01*
X220705020Y-116726676D01*
X220705020Y-117110804D01*
X220630081Y-117487552D01*
X220483081Y-117842440D01*
X220269671Y-118161831D01*
X219998051Y-118433451D01*
X219678660Y-118646861D01*
X219323772Y-118793861D01*
X219040891Y-118850129D01*
X218947026Y-118868800D01*
X218562894Y-118868800D01*
X218469029Y-118850129D01*
X218186148Y-118793861D01*
X217831260Y-118646861D01*
X217511869Y-118433451D01*
X217240249Y-118161831D01*
X217026839Y-117842440D01*
X216879839Y-117487552D01*
X216804900Y-117110804D01*
X216804900Y-116726676D01*
X216879839Y-116349928D01*
X217026839Y-115995040D01*
X217240249Y-115675649D01*
X217511869Y-115404029D01*
X217831260Y-115190619D01*
X218186148Y-115043619D01*
X218469029Y-114987351D01*
X218562894Y-114968680D01*
X218947026Y-114968680D01*
X219040891Y-114987351D01*
X219040891Y-114987351D01*
G37*
G36*
X69041191Y-114987351D02*
X69324072Y-115043619D01*
X69678960Y-115190619D01*
X69998351Y-115404029D01*
X70269971Y-115675649D01*
X70483381Y-115995040D01*
X70630381Y-116349928D01*
X70705320Y-116726676D01*
X70705320Y-117110804D01*
X70630381Y-117487552D01*
X70483381Y-117842440D01*
X70269971Y-118161831D01*
X69998351Y-118433451D01*
X69678960Y-118646861D01*
X69324072Y-118793861D01*
X69041191Y-118850129D01*
X68947326Y-118868800D01*
X68563194Y-118868800D01*
X68469329Y-118850129D01*
X68186448Y-118793861D01*
X67831560Y-118646861D01*
X67512169Y-118433451D01*
X67240549Y-118161831D01*
X67027139Y-117842440D01*
X66880139Y-117487552D01*
X66805200Y-117110804D01*
X66805200Y-116726676D01*
X66880139Y-116349928D01*
X67027139Y-115995040D01*
X67240549Y-115675649D01*
X67512169Y-115404029D01*
X67831560Y-115190619D01*
X68186448Y-115043619D01*
X68469329Y-114987351D01*
X68563194Y-114968680D01*
X68947326Y-114968680D01*
X69041191Y-114987351D01*
X69041191Y-114987351D01*
G37*
G36*
X179158000Y-110720000D02*
X177458000Y-110720000D01*
X177458000Y-109620000D01*
X179158000Y-109620000D01*
X179158000Y-110720000D01*
X179158000Y-110720000D01*
G37*
G36*
X199732000Y-110720000D02*
X198032000Y-110720000D01*
X198032000Y-109620000D01*
X199732000Y-109620000D01*
X199732000Y-110720000D01*
X199732000Y-110720000D01*
G37*
G36*
X88988000Y-110720000D02*
X87288000Y-110720000D01*
X87288000Y-109620000D01*
X88988000Y-109620000D01*
X88988000Y-110720000D01*
X88988000Y-110720000D01*
G37*
G36*
X109562000Y-110720000D02*
X107862000Y-110720000D01*
X107862000Y-109620000D01*
X109562000Y-109620000D01*
X109562000Y-110720000D01*
X109562000Y-110720000D01*
G37*
G36*
X133946000Y-110720000D02*
X132246000Y-110720000D01*
X132246000Y-109620000D01*
X133946000Y-109620000D01*
X133946000Y-110720000D01*
X133946000Y-110720000D01*
G37*
G36*
X154520000Y-110720000D02*
X152820000Y-110720000D01*
X152820000Y-109620000D01*
X154520000Y-109620000D01*
X154520000Y-110720000D01*
X154520000Y-110720000D01*
G37*
G36*
X133946000Y-108820000D02*
X132246000Y-108820000D01*
X132246000Y-107720000D01*
X133946000Y-107720000D01*
X133946000Y-108820000D01*
X133946000Y-108820000D01*
G37*
G36*
X154520000Y-108820000D02*
X152820000Y-108820000D01*
X152820000Y-107720000D01*
X154520000Y-107720000D01*
X154520000Y-108820000D01*
X154520000Y-108820000D01*
G37*
G36*
X179158000Y-108820000D02*
X177458000Y-108820000D01*
X177458000Y-107720000D01*
X179158000Y-107720000D01*
X179158000Y-108820000D01*
X179158000Y-108820000D01*
G37*
G36*
X109562000Y-108820000D02*
X107862000Y-108820000D01*
X107862000Y-107720000D01*
X109562000Y-107720000D01*
X109562000Y-108820000D01*
X109562000Y-108820000D01*
G37*
G36*
X199732000Y-108820000D02*
X198032000Y-108820000D01*
X198032000Y-107720000D01*
X199732000Y-107720000D01*
X199732000Y-108820000D01*
X199732000Y-108820000D01*
G37*
G36*
X88988000Y-108820000D02*
X87288000Y-108820000D01*
X87288000Y-107720000D01*
X88988000Y-107720000D01*
X88988000Y-108820000D01*
X88988000Y-108820000D01*
G37*
G36*
X69804000Y-105590000D02*
X67704000Y-105590000D01*
X67704000Y-103490000D01*
X69804000Y-103490000D01*
X69804000Y-105590000D01*
X69804000Y-105590000D01*
G37*
G36*
X76612000Y-104420000D02*
X75312000Y-104420000D01*
X75312000Y-103220000D01*
X76612000Y-103220000D01*
X76612000Y-104420000D01*
X76612000Y-104420000D01*
G37*
G36*
X74510000Y-104370000D02*
X72810000Y-104370000D01*
X72810000Y-103270000D01*
X74510000Y-103270000D01*
X74510000Y-104370000D01*
X74510000Y-104370000D01*
G37*
G36*
X78612000Y-103470000D02*
X77312000Y-103470000D01*
X77312000Y-102270000D01*
X78612000Y-102270000D01*
X78612000Y-103470000D01*
X78612000Y-103470000D01*
G37*
G36*
X68882707Y-100957596D02*
X68959836Y-100965193D01*
X69091787Y-101005220D01*
X69157763Y-101025233D01*
X69340172Y-101122733D01*
X69500054Y-101253946D01*
X69631267Y-101413828D01*
X69728767Y-101596237D01*
X69728767Y-101596238D01*
X69788807Y-101794164D01*
X69809080Y-102000000D01*
X69788807Y-102205836D01*
X69769343Y-102270000D01*
X69728767Y-102403763D01*
X69631267Y-102586172D01*
X69500054Y-102746054D01*
X69340172Y-102877267D01*
X69157763Y-102974767D01*
X69091787Y-102994780D01*
X68959836Y-103034807D01*
X68882707Y-103042404D01*
X68805580Y-103050000D01*
X68702420Y-103050000D01*
X68625293Y-103042404D01*
X68548164Y-103034807D01*
X68416213Y-102994780D01*
X68350237Y-102974767D01*
X68167828Y-102877267D01*
X68007946Y-102746054D01*
X67876733Y-102586172D01*
X67779233Y-102403763D01*
X67738657Y-102270000D01*
X67719193Y-102205836D01*
X67698920Y-102000000D01*
X67719193Y-101794164D01*
X67779233Y-101596238D01*
X67779233Y-101596237D01*
X67876733Y-101413828D01*
X68007946Y-101253946D01*
X68167828Y-101122733D01*
X68350237Y-101025233D01*
X68416213Y-101005220D01*
X68548164Y-100965193D01*
X68625293Y-100957596D01*
X68702420Y-100950000D01*
X68805580Y-100950000D01*
X68882707Y-100957596D01*
X68882707Y-100957596D01*
G37*
G36*
X76612000Y-102520000D02*
X75312000Y-102520000D01*
X75312000Y-101320000D01*
X76612000Y-101320000D01*
X76612000Y-102520000D01*
X76612000Y-102520000D01*
G37*
G36*
X74510000Y-102470000D02*
X72810000Y-102470000D01*
X72810000Y-101370000D01*
X74510000Y-101370000D01*
X74510000Y-102470000D01*
X74510000Y-102470000D01*
G37*
G36*
X68882707Y-98417596D02*
X68959836Y-98425193D01*
X69091787Y-98465220D01*
X69157763Y-98485233D01*
X69340172Y-98582733D01*
X69500054Y-98713946D01*
X69631267Y-98873828D01*
X69728767Y-99056237D01*
X69728767Y-99056238D01*
X69788807Y-99254164D01*
X69809080Y-99460000D01*
X69788807Y-99665836D01*
X69748780Y-99797787D01*
X69728767Y-99863763D01*
X69631267Y-100046172D01*
X69500054Y-100206054D01*
X69340172Y-100337267D01*
X69157763Y-100434767D01*
X69091787Y-100454780D01*
X68959836Y-100494807D01*
X68882707Y-100502404D01*
X68805580Y-100510000D01*
X68702420Y-100510000D01*
X68625293Y-100502404D01*
X68548164Y-100494807D01*
X68416213Y-100454780D01*
X68350237Y-100434767D01*
X68167828Y-100337267D01*
X68007946Y-100206054D01*
X67876733Y-100046172D01*
X67779233Y-99863763D01*
X67759220Y-99797787D01*
X67719193Y-99665836D01*
X67698920Y-99460000D01*
X67719193Y-99254164D01*
X67779233Y-99056238D01*
X67779233Y-99056237D01*
X67876733Y-98873828D01*
X68007946Y-98713946D01*
X68167828Y-98582733D01*
X68350237Y-98485233D01*
X68416213Y-98465220D01*
X68548164Y-98425193D01*
X68625293Y-98417596D01*
X68702420Y-98410000D01*
X68805580Y-98410000D01*
X68882707Y-98417596D01*
X68882707Y-98417596D01*
G37*
G36*
X179158000Y-100240000D02*
X177458000Y-100240000D01*
X177458000Y-99140000D01*
X179158000Y-99140000D01*
X179158000Y-100240000D01*
X179158000Y-100240000D01*
G37*
G36*
X154647000Y-100240000D02*
X152947000Y-100240000D01*
X152947000Y-99140000D01*
X154647000Y-99140000D01*
X154647000Y-100240000D01*
X154647000Y-100240000D01*
G37*
G36*
X134200000Y-100240000D02*
X132500000Y-100240000D01*
X132500000Y-99140000D01*
X134200000Y-99140000D01*
X134200000Y-100240000D01*
X134200000Y-100240000D01*
G37*
G36*
X109562000Y-100240000D02*
X107862000Y-100240000D01*
X107862000Y-99140000D01*
X109562000Y-99140000D01*
X109562000Y-100240000D01*
X109562000Y-100240000D01*
G37*
G36*
X89115000Y-100240000D02*
X87415000Y-100240000D01*
X87415000Y-99140000D01*
X89115000Y-99140000D01*
X89115000Y-100240000D01*
X89115000Y-100240000D01*
G37*
G36*
X199605000Y-100240000D02*
X197905000Y-100240000D01*
X197905000Y-99140000D01*
X199605000Y-99140000D01*
X199605000Y-100240000D01*
X199605000Y-100240000D01*
G37*
G36*
X219804000Y-99240000D02*
X217704000Y-99240000D01*
X217704000Y-97140000D01*
X219804000Y-97140000D01*
X219804000Y-99240000D01*
X219804000Y-99240000D01*
G37*
G36*
X134200000Y-98340000D02*
X132500000Y-98340000D01*
X132500000Y-97240000D01*
X134200000Y-97240000D01*
X134200000Y-98340000D01*
X134200000Y-98340000D01*
G37*
G36*
X154647000Y-98340000D02*
X152947000Y-98340000D01*
X152947000Y-97240000D01*
X154647000Y-97240000D01*
X154647000Y-98340000D01*
X154647000Y-98340000D01*
G37*
G36*
X199605000Y-98340000D02*
X197905000Y-98340000D01*
X197905000Y-97240000D01*
X199605000Y-97240000D01*
X199605000Y-98340000D01*
X199605000Y-98340000D01*
G37*
G36*
X109562000Y-98340000D02*
X107862000Y-98340000D01*
X107862000Y-97240000D01*
X109562000Y-97240000D01*
X109562000Y-98340000D01*
X109562000Y-98340000D01*
G37*
G36*
X89115000Y-98340000D02*
X87415000Y-98340000D01*
X87415000Y-97240000D01*
X89115000Y-97240000D01*
X89115000Y-98340000D01*
X89115000Y-98340000D01*
G37*
G36*
X179158000Y-98340000D02*
X177458000Y-98340000D01*
X177458000Y-97240000D01*
X179158000Y-97240000D01*
X179158000Y-98340000D01*
X179158000Y-98340000D01*
G37*
G36*
X68882707Y-95877596D02*
X68959836Y-95885193D01*
X69091787Y-95925220D01*
X69157763Y-95945233D01*
X69340172Y-96042733D01*
X69500054Y-96173946D01*
X69631267Y-96333828D01*
X69728767Y-96516237D01*
X69728767Y-96516238D01*
X69788807Y-96714164D01*
X69809080Y-96920000D01*
X69788807Y-97125836D01*
X69784510Y-97140000D01*
X69728767Y-97323763D01*
X69631267Y-97506172D01*
X69500054Y-97666054D01*
X69340172Y-97797267D01*
X69157763Y-97894767D01*
X69091787Y-97914780D01*
X68959836Y-97954807D01*
X68882707Y-97962403D01*
X68805580Y-97970000D01*
X68702420Y-97970000D01*
X68625293Y-97962403D01*
X68548164Y-97954807D01*
X68416213Y-97914780D01*
X68350237Y-97894767D01*
X68167828Y-97797267D01*
X68007946Y-97666054D01*
X67876733Y-97506172D01*
X67779233Y-97323763D01*
X67723490Y-97140000D01*
X67719193Y-97125836D01*
X67698920Y-96920000D01*
X67719193Y-96714164D01*
X67779233Y-96516238D01*
X67779233Y-96516237D01*
X67876733Y-96333828D01*
X68007946Y-96173946D01*
X68167828Y-96042733D01*
X68350237Y-95945233D01*
X68416213Y-95925220D01*
X68548164Y-95885193D01*
X68625293Y-95877596D01*
X68702420Y-95870000D01*
X68805580Y-95870000D01*
X68882707Y-95877596D01*
X68882707Y-95877596D01*
G37*
G36*
X218882707Y-94607596D02*
X218959836Y-94615193D01*
X219091787Y-94655220D01*
X219157763Y-94675233D01*
X219340172Y-94772733D01*
X219500054Y-94903946D01*
X219631267Y-95063828D01*
X219728767Y-95246237D01*
X219728767Y-95246238D01*
X219788807Y-95444164D01*
X219809080Y-95650000D01*
X219788807Y-95855836D01*
X219761689Y-95945233D01*
X219728767Y-96053763D01*
X219631267Y-96236172D01*
X219500054Y-96396054D01*
X219340172Y-96527267D01*
X219157763Y-96624767D01*
X219091787Y-96644780D01*
X218959836Y-96684807D01*
X218882707Y-96692403D01*
X218805580Y-96700000D01*
X218702420Y-96700000D01*
X218625293Y-96692403D01*
X218548164Y-96684807D01*
X218416213Y-96644780D01*
X218350237Y-96624767D01*
X218167828Y-96527267D01*
X218007946Y-96396054D01*
X217876733Y-96236172D01*
X217779233Y-96053763D01*
X217746311Y-95945233D01*
X217719193Y-95855836D01*
X217698920Y-95650000D01*
X217719193Y-95444164D01*
X217779233Y-95246238D01*
X217779233Y-95246237D01*
X217876733Y-95063828D01*
X218007946Y-94903946D01*
X218167828Y-94772733D01*
X218350237Y-94675233D01*
X218416213Y-94655220D01*
X218548164Y-94615193D01*
X218625293Y-94607596D01*
X218702420Y-94600000D01*
X218805580Y-94600000D01*
X218882707Y-94607596D01*
X218882707Y-94607596D01*
G37*
G36*
X68882707Y-93337596D02*
X68959836Y-93345193D01*
X69091787Y-93385220D01*
X69157763Y-93405233D01*
X69340172Y-93502733D01*
X69500054Y-93633946D01*
X69631267Y-93793828D01*
X69728767Y-93976237D01*
X69728767Y-93976238D01*
X69788807Y-94174164D01*
X69809080Y-94380000D01*
X69788807Y-94585836D01*
X69761689Y-94675233D01*
X69728767Y-94783763D01*
X69631267Y-94966172D01*
X69500054Y-95126054D01*
X69340172Y-95257267D01*
X69157763Y-95354767D01*
X69091787Y-95374780D01*
X68959836Y-95414807D01*
X68882707Y-95422403D01*
X68805580Y-95430000D01*
X68702420Y-95430000D01*
X68625293Y-95422403D01*
X68548164Y-95414807D01*
X68416213Y-95374780D01*
X68350237Y-95354767D01*
X68167828Y-95257267D01*
X68007946Y-95126054D01*
X67876733Y-94966172D01*
X67779233Y-94783763D01*
X67746311Y-94675233D01*
X67719193Y-94585836D01*
X67698920Y-94380000D01*
X67719193Y-94174164D01*
X67779233Y-93976238D01*
X67779233Y-93976237D01*
X67876733Y-93793828D01*
X68007946Y-93633946D01*
X68167828Y-93502733D01*
X68350237Y-93405233D01*
X68416213Y-93385220D01*
X68548164Y-93345193D01*
X68625293Y-93337596D01*
X68702420Y-93330000D01*
X68805580Y-93330000D01*
X68882707Y-93337596D01*
X68882707Y-93337596D01*
G37*
G36*
X68882707Y-90797596D02*
X68959836Y-90805193D01*
X69091787Y-90845220D01*
X69157763Y-90865233D01*
X69340172Y-90962733D01*
X69500054Y-91093946D01*
X69631267Y-91253828D01*
X69728767Y-91436237D01*
X69728767Y-91436238D01*
X69788807Y-91634164D01*
X69809080Y-91840000D01*
X69788807Y-92045836D01*
X69748780Y-92177787D01*
X69728767Y-92243763D01*
X69631267Y-92426172D01*
X69500054Y-92586054D01*
X69340172Y-92717267D01*
X69157763Y-92814767D01*
X69091787Y-92834780D01*
X68959836Y-92874807D01*
X68882707Y-92882403D01*
X68805580Y-92890000D01*
X68702420Y-92890000D01*
X68625293Y-92882403D01*
X68548164Y-92874807D01*
X68416213Y-92834780D01*
X68350237Y-92814767D01*
X68167828Y-92717267D01*
X68007946Y-92586054D01*
X67876733Y-92426172D01*
X67779233Y-92243763D01*
X67759220Y-92177787D01*
X67719193Y-92045836D01*
X67698920Y-91840000D01*
X67719193Y-91634164D01*
X67779233Y-91436238D01*
X67779233Y-91436237D01*
X67876733Y-91253828D01*
X68007946Y-91093946D01*
X68167828Y-90962733D01*
X68350237Y-90865233D01*
X68416213Y-90845220D01*
X68548164Y-90805193D01*
X68625293Y-90797596D01*
X68702420Y-90790000D01*
X68805580Y-90790000D01*
X68882707Y-90797596D01*
X68882707Y-90797596D01*
G37*
G36*
X68882707Y-88257597D02*
X68959836Y-88265193D01*
X69091787Y-88305220D01*
X69157763Y-88325233D01*
X69340172Y-88422733D01*
X69500054Y-88553946D01*
X69631267Y-88713828D01*
X69728767Y-88896237D01*
X69728767Y-88896238D01*
X69788807Y-89094164D01*
X69809080Y-89300000D01*
X69788807Y-89505836D01*
X69748780Y-89637787D01*
X69728767Y-89703763D01*
X69631267Y-89886172D01*
X69500054Y-90046054D01*
X69340172Y-90177267D01*
X69157763Y-90274767D01*
X69091787Y-90294780D01*
X68959836Y-90334807D01*
X68882707Y-90342403D01*
X68805580Y-90350000D01*
X68702420Y-90350000D01*
X68625293Y-90342403D01*
X68548164Y-90334807D01*
X68416213Y-90294780D01*
X68350237Y-90274767D01*
X68167828Y-90177267D01*
X68007946Y-90046054D01*
X67876733Y-89886172D01*
X67779233Y-89703763D01*
X67759220Y-89637787D01*
X67719193Y-89505836D01*
X67698920Y-89300000D01*
X67719193Y-89094164D01*
X67779233Y-88896238D01*
X67779233Y-88896237D01*
X67876733Y-88713828D01*
X68007946Y-88553946D01*
X68167828Y-88422733D01*
X68350237Y-88325233D01*
X68416213Y-88305220D01*
X68548164Y-88265193D01*
X68625293Y-88257597D01*
X68702420Y-88250000D01*
X68805580Y-88250000D01*
X68882707Y-88257597D01*
X68882707Y-88257597D01*
G37*
G36*
X219040891Y-74987431D02*
X219323772Y-75043699D01*
X219678660Y-75190699D01*
X219998051Y-75404109D01*
X220269671Y-75675729D01*
X220483081Y-75995120D01*
X220630081Y-76350008D01*
X220705020Y-76726756D01*
X220705020Y-77110884D01*
X220630081Y-77487632D01*
X220483081Y-77842520D01*
X220269671Y-78161911D01*
X219998051Y-78433531D01*
X219678660Y-78646941D01*
X219323772Y-78793941D01*
X219040891Y-78850209D01*
X218947026Y-78868880D01*
X218562894Y-78868880D01*
X218469029Y-78850209D01*
X218186148Y-78793941D01*
X217831260Y-78646941D01*
X217511869Y-78433531D01*
X217240249Y-78161911D01*
X217026839Y-77842520D01*
X216879839Y-77487632D01*
X216804900Y-77110884D01*
X216804900Y-76726756D01*
X216879839Y-76350008D01*
X217026839Y-75995120D01*
X217240249Y-75675729D01*
X217511869Y-75404109D01*
X217831260Y-75190699D01*
X218186148Y-75043699D01*
X218469029Y-74987431D01*
X218562894Y-74968760D01*
X218947026Y-74968760D01*
X219040891Y-74987431D01*
X219040891Y-74987431D01*
G37*
G36*
X69041191Y-74987431D02*
X69324072Y-75043699D01*
X69678960Y-75190699D01*
X69998351Y-75404109D01*
X70269971Y-75675729D01*
X70483381Y-75995120D01*
X70630381Y-76350008D01*
X70705320Y-76726756D01*
X70705320Y-77110884D01*
X70630381Y-77487632D01*
X70483381Y-77842520D01*
X70269971Y-78161911D01*
X69998351Y-78433531D01*
X69678960Y-78646941D01*
X69324072Y-78793941D01*
X69041191Y-78850209D01*
X68947326Y-78868880D01*
X68563194Y-78868880D01*
X68469329Y-78850209D01*
X68186448Y-78793941D01*
X67831560Y-78646941D01*
X67512169Y-78433531D01*
X67240549Y-78161911D01*
X67027139Y-77842520D01*
X66880139Y-77487632D01*
X66805200Y-77110884D01*
X66805200Y-76726756D01*
X66880139Y-76350008D01*
X67027139Y-75995120D01*
X67240549Y-75675729D01*
X67512169Y-75404109D01*
X67831560Y-75190699D01*
X68186448Y-75043699D01*
X68469329Y-74987431D01*
X68563194Y-74968760D01*
X68947326Y-74968760D01*
X69041191Y-74987431D01*
X69041191Y-74987431D01*
G37*
M02*
