G04 #@! TF.FileFunction,Soldermask,Bot*
%FSLAX46Y46*%
G04 Gerber Fmt 4.6, Leading zero omitted, Abs format (unit mm)*
G04 Created by KiCad (PCBNEW 4.0.7) date 02/26/18 21:23:00*
%MOMM*%
%LPD*%
G01*
G04 APERTURE LIST*
%ADD10C,0.100000*%
%ADD11R,1.700000X1.100000*%
%ADD12R,1.100000X1.700000*%
%ADD13C,3.900120*%
%ADD14R,2.100000X2.100000*%
%ADD15O,2.100000X2.100000*%
%ADD16R,1.650000X1.400000*%
%ADD17R,1.300000X1.200000*%
G04 APERTURE END LIST*
D10*
D11*
X89535000Y-118425000D03*
X89535000Y-116525000D03*
X107315000Y-118425000D03*
X107315000Y-116525000D03*
X134620000Y-118425000D03*
X134620000Y-116525000D03*
X152400000Y-118425000D03*
X152400000Y-116525000D03*
X179705000Y-118425000D03*
X179705000Y-116525000D03*
X197485000Y-118425000D03*
X197485000Y-116525000D03*
D12*
X88905000Y-106045000D03*
X90805000Y-106045000D03*
X106685000Y-106045000D03*
X108585000Y-106045000D03*
X196535000Y-106045000D03*
X198435000Y-106045000D03*
X133985000Y-106045000D03*
X135885000Y-106045000D03*
X178755000Y-106045000D03*
X180655000Y-106045000D03*
X151770000Y-106045000D03*
X153670000Y-106045000D03*
D11*
X75184000Y-108646000D03*
X75184000Y-106746000D03*
D13*
X68580000Y-116840000D03*
X68580000Y-76840080D03*
X218579700Y-76840080D03*
X218579700Y-116840000D03*
D14*
X218578740Y-98111260D03*
D15*
X218578740Y-95571260D03*
D14*
X68578740Y-103191260D03*
D15*
X68578740Y-100651260D03*
X68578740Y-98111260D03*
X68578740Y-95571260D03*
X68578740Y-93031260D03*
X68578740Y-90491260D03*
D16*
X98425000Y-87360000D03*
X98425000Y-85360000D03*
X188595000Y-87340000D03*
X188595000Y-85340000D03*
X134620000Y-87340000D03*
X134620000Y-85340000D03*
X80010000Y-88630000D03*
X80010000Y-86630000D03*
X170180000Y-87340000D03*
X170180000Y-85340000D03*
X152400000Y-87340000D03*
X152400000Y-85340000D03*
X116205000Y-87340000D03*
X116205000Y-85340000D03*
X206375000Y-87380000D03*
X206375000Y-85380000D03*
D17*
X77740000Y-108646000D03*
X77740000Y-106746000D03*
X79740000Y-107696000D03*
M02*
