G04 #@! TF.FileFunction,Soldermask,Top*
%FSLAX46Y46*%
G04 Gerber Fmt 4.6, Leading zero omitted, Abs format (unit mm)*
G04 Created by KiCad (PCBNEW 4.0.7) date 06/23/18 17:49:10*
%MOMM*%
%LPD*%
G01*
G04 APERTURE LIST*
%ADD10C,0.100000*%
%ADD11C,3.900120*%
%ADD12R,2.350000X1.000000*%
%ADD13C,1.746200*%
%ADD14R,1.600000X1.600000*%
%ADD15R,2.100000X2.100000*%
%ADD16O,2.100000X2.100000*%
%ADD17R,1.700000X1.100000*%
%ADD18R,1.650000X1.400000*%
G04 APERTURE END LIST*
D10*
D11*
X68755260Y-116918740D03*
X68755260Y-76918820D03*
X218754960Y-76918820D03*
X218754960Y-116918740D03*
D12*
X131215000Y-81915000D03*
X131215000Y-83185000D03*
X131215000Y-84455000D03*
X131215000Y-85725000D03*
X131215000Y-86995000D03*
X131215000Y-88265000D03*
X131215000Y-89535000D03*
X131215000Y-90805000D03*
X131215000Y-92075000D03*
X131215000Y-93345000D03*
X140615000Y-93345000D03*
X140615000Y-92075000D03*
X140615000Y-90805000D03*
X140615000Y-89535000D03*
X140615000Y-88265000D03*
X140615000Y-86995000D03*
X140615000Y-85725000D03*
X140615000Y-84455000D03*
X140615000Y-83185000D03*
X140615000Y-81915000D03*
D13*
X193704300Y-104919640D03*
X203889700Y-104919640D03*
X204941260Y-107690780D03*
X204583120Y-110629560D03*
X202901640Y-113067960D03*
X200277820Y-114444640D03*
X197316180Y-114444640D03*
X194692360Y-113067960D03*
X193010880Y-110629560D03*
X192652740Y-107690780D03*
X198797000Y-102247560D03*
X195921720Y-102956220D03*
X201672280Y-102956220D03*
X173204300Y-104919640D03*
X183389700Y-104919640D03*
X184441260Y-107690780D03*
X184083120Y-110629560D03*
X182401640Y-113067960D03*
X179777820Y-114444640D03*
X176816180Y-114444640D03*
X174192360Y-113067960D03*
X172510880Y-110629560D03*
X172152740Y-107690780D03*
X178297000Y-102247560D03*
X175421720Y-102956220D03*
X181172280Y-102956220D03*
X148695100Y-104919640D03*
X158880500Y-104919640D03*
X159932060Y-107690780D03*
X159573920Y-110629560D03*
X157892440Y-113067960D03*
X155268620Y-114444640D03*
X152306980Y-114444640D03*
X149683160Y-113067960D03*
X148001680Y-110629560D03*
X147643540Y-107690780D03*
X153787800Y-102247560D03*
X150912520Y-102956220D03*
X156663080Y-102956220D03*
X128195100Y-104919640D03*
X138380500Y-104919640D03*
X139432060Y-107690780D03*
X139073920Y-110629560D03*
X137392440Y-113067960D03*
X134768620Y-114444640D03*
X131806980Y-114444640D03*
X129183160Y-113067960D03*
X127501680Y-110629560D03*
X127143540Y-107690780D03*
X133287800Y-102247560D03*
X130412520Y-102956220D03*
X136163080Y-102956220D03*
X103681300Y-104919640D03*
X113866700Y-104919640D03*
X114918260Y-107690780D03*
X114560120Y-110629560D03*
X112878640Y-113067960D03*
X110254820Y-114444640D03*
X107293180Y-114444640D03*
X104669360Y-113067960D03*
X102987880Y-110629560D03*
X102629740Y-107690780D03*
X108774000Y-102247560D03*
X105898720Y-102956220D03*
X111649280Y-102956220D03*
X83181300Y-104919640D03*
X93366700Y-104919640D03*
X94418260Y-107690780D03*
X94060120Y-110629560D03*
X92378640Y-113067960D03*
X89754820Y-114444640D03*
X86793180Y-114444640D03*
X84169360Y-113067960D03*
X82487880Y-110629560D03*
X82129740Y-107690780D03*
X88274000Y-102247560D03*
X85398720Y-102956220D03*
X91149280Y-102956220D03*
D14*
X89374000Y-108435000D03*
X87174000Y-108435000D03*
X109874000Y-108435000D03*
X107674000Y-108435000D03*
X134387800Y-108435000D03*
X132187800Y-108435000D03*
X154887800Y-108435000D03*
X152687800Y-108435000D03*
X179397000Y-108435000D03*
X177197000Y-108435000D03*
X199897000Y-108435000D03*
X197697000Y-108435000D03*
D12*
X77215000Y-81915000D03*
X77215000Y-83185000D03*
X77215000Y-84455000D03*
X77215000Y-85725000D03*
X77215000Y-86995000D03*
X77215000Y-88265000D03*
X77215000Y-89535000D03*
X77215000Y-90805000D03*
X77215000Y-92075000D03*
X77215000Y-93345000D03*
X86615000Y-93345000D03*
X86615000Y-92075000D03*
X86615000Y-90805000D03*
X86615000Y-89535000D03*
X86615000Y-88265000D03*
X86615000Y-86995000D03*
X86615000Y-85725000D03*
X86615000Y-84455000D03*
X86615000Y-83185000D03*
X86615000Y-81915000D03*
X95215000Y-81915000D03*
X95215000Y-83185000D03*
X95215000Y-84455000D03*
X95215000Y-85725000D03*
X95215000Y-86995000D03*
X95215000Y-88265000D03*
X95215000Y-89535000D03*
X95215000Y-90805000D03*
X95215000Y-92075000D03*
X95215000Y-93345000D03*
X104615000Y-93345000D03*
X104615000Y-92075000D03*
X104615000Y-90805000D03*
X104615000Y-89535000D03*
X104615000Y-88265000D03*
X104615000Y-86995000D03*
X104615000Y-85725000D03*
X104615000Y-84455000D03*
X104615000Y-83185000D03*
X104615000Y-81915000D03*
X113215000Y-81915000D03*
X113215000Y-83185000D03*
X113215000Y-84455000D03*
X113215000Y-85725000D03*
X113215000Y-86995000D03*
X113215000Y-88265000D03*
X113215000Y-89535000D03*
X113215000Y-90805000D03*
X113215000Y-92075000D03*
X113215000Y-93345000D03*
X122615000Y-93345000D03*
X122615000Y-92075000D03*
X122615000Y-90805000D03*
X122615000Y-89535000D03*
X122615000Y-88265000D03*
X122615000Y-86995000D03*
X122615000Y-85725000D03*
X122615000Y-84455000D03*
X122615000Y-83185000D03*
X122615000Y-81915000D03*
X149215000Y-81915000D03*
X149215000Y-83185000D03*
X149215000Y-84455000D03*
X149215000Y-85725000D03*
X149215000Y-86995000D03*
X149215000Y-88265000D03*
X149215000Y-89535000D03*
X149215000Y-90805000D03*
X149215000Y-92075000D03*
X149215000Y-93345000D03*
X158615000Y-93345000D03*
X158615000Y-92075000D03*
X158615000Y-90805000D03*
X158615000Y-89535000D03*
X158615000Y-88265000D03*
X158615000Y-86995000D03*
X158615000Y-85725000D03*
X158615000Y-84455000D03*
X158615000Y-83185000D03*
X158615000Y-81915000D03*
X167215000Y-81915000D03*
X167215000Y-83185000D03*
X167215000Y-84455000D03*
X167215000Y-85725000D03*
X167215000Y-86995000D03*
X167215000Y-88265000D03*
X167215000Y-89535000D03*
X167215000Y-90805000D03*
X167215000Y-92075000D03*
X167215000Y-93345000D03*
X176615000Y-93345000D03*
X176615000Y-92075000D03*
X176615000Y-90805000D03*
X176615000Y-89535000D03*
X176615000Y-88265000D03*
X176615000Y-86995000D03*
X176615000Y-85725000D03*
X176615000Y-84455000D03*
X176615000Y-83185000D03*
X176615000Y-81915000D03*
X185215000Y-81915000D03*
X185215000Y-83185000D03*
X185215000Y-84455000D03*
X185215000Y-85725000D03*
X185215000Y-86995000D03*
X185215000Y-88265000D03*
X185215000Y-89535000D03*
X185215000Y-90805000D03*
X185215000Y-92075000D03*
X185215000Y-93345000D03*
X194615000Y-93345000D03*
X194615000Y-92075000D03*
X194615000Y-90805000D03*
X194615000Y-89535000D03*
X194615000Y-88265000D03*
X194615000Y-86995000D03*
X194615000Y-85725000D03*
X194615000Y-84455000D03*
X194615000Y-83185000D03*
X194615000Y-81915000D03*
X203215000Y-81915000D03*
X203215000Y-83185000D03*
X203215000Y-84455000D03*
X203215000Y-85725000D03*
X203215000Y-86995000D03*
X203215000Y-88265000D03*
X203215000Y-89535000D03*
X203215000Y-90805000D03*
X203215000Y-92075000D03*
X203215000Y-93345000D03*
X212615000Y-93345000D03*
X212615000Y-92075000D03*
X212615000Y-90805000D03*
X212615000Y-89535000D03*
X212615000Y-88265000D03*
X212615000Y-86995000D03*
X212615000Y-85725000D03*
X212615000Y-84455000D03*
X212615000Y-83185000D03*
X212615000Y-81915000D03*
D15*
X218754000Y-98190000D03*
D16*
X218754000Y-95650000D03*
D17*
X212344000Y-98364000D03*
X212344000Y-100264000D03*
X210312000Y-98364000D03*
X210312000Y-100264000D03*
D18*
X74676000Y-83296000D03*
X74676000Y-81296000D03*
X92710000Y-83296000D03*
X92710000Y-81296000D03*
X110490000Y-83296000D03*
X110490000Y-81296000D03*
X128524000Y-83296000D03*
X128524000Y-81296000D03*
X146558000Y-83296000D03*
X146558000Y-81296000D03*
X164592000Y-83296000D03*
X164592000Y-81296000D03*
X182626000Y-83296000D03*
X182626000Y-81296000D03*
X200660000Y-83296000D03*
X200660000Y-81296000D03*
D15*
X68754000Y-104540000D03*
D16*
X68754000Y-102000000D03*
X68754000Y-99460000D03*
X68754000Y-96920000D03*
X68754000Y-94380000D03*
X68754000Y-91840000D03*
X68754000Y-89300000D03*
D17*
X214376000Y-98364000D03*
X214376000Y-100264000D03*
M02*
