G04 #@! TF.FileFunction,Legend,Top*
%FSLAX46Y46*%
G04 Gerber Fmt 4.6, Leading zero omitted, Abs format (unit mm)*
G04 Created by KiCad (PCBNEW 4.0.7) date 02/26/18 21:23:00*
%MOMM*%
%LPD*%
G01*
G04 APERTURE LIST*
%ADD10C,0.100000*%
%ADD11C,0.127000*%
%ADD12C,0.254000*%
%ADD13C,0.120000*%
%ADD14C,0.150000*%
%ADD15C,0.010000*%
%ADD16C,0.088900*%
%ADD17C,1.746200*%
%ADD18R,1.600000X1.600000*%
%ADD19R,2.350000X1.000000*%
%ADD20C,3.900120*%
%ADD21R,2.100000X2.100000*%
%ADD22O,2.100000X2.100000*%
%ADD23R,1.700000X1.100000*%
G04 APERTURE END LIST*
D10*
D11*
X203568811Y-108435000D02*
G75*
G03X203568811Y-108435000I-6271811J0D01*
G01*
D12*
X204916851Y-108421701D02*
G75*
G03X189677000Y-108592480I-7619851J-92039D01*
G01*
D11*
X186068811Y-108435000D02*
G75*
G03X186068811Y-108435000I-6271811J0D01*
G01*
D12*
X187416851Y-108421701D02*
G75*
G03X172177000Y-108592480I-7619851J-92039D01*
G01*
D11*
X158559611Y-108440220D02*
G75*
G03X158559611Y-108440220I-6271811J0D01*
G01*
D12*
X159907651Y-108426921D02*
G75*
G03X144667800Y-108597700I-7619851J-92039D01*
G01*
D11*
X141059611Y-108440220D02*
G75*
G03X141059611Y-108440220I-6271811J0D01*
G01*
D12*
X142407651Y-108426921D02*
G75*
G03X127167800Y-108597700I-7619851J-92039D01*
G01*
D11*
X113545811Y-108435000D02*
G75*
G03X113545811Y-108435000I-6271811J0D01*
G01*
D12*
X114893851Y-108421701D02*
G75*
G03X99654000Y-108592480I-7619851J-92039D01*
G01*
D11*
X96045811Y-108435000D02*
G75*
G03X96045811Y-108435000I-6271811J0D01*
G01*
D12*
X97393851Y-108421701D02*
G75*
G03X82154000Y-108592480I-7619851J-92039D01*
G01*
D13*
X87989000Y-106996000D02*
X87989000Y-108396000D01*
X87989000Y-108396000D02*
X90789000Y-108396000D01*
X87989000Y-106996000D02*
X90789000Y-106996000D01*
X105451500Y-106996000D02*
X105451500Y-108396000D01*
X105451500Y-108396000D02*
X108251500Y-108396000D01*
X105451500Y-106996000D02*
X108251500Y-106996000D01*
X195494500Y-106996000D02*
X195494500Y-108396000D01*
X195494500Y-108396000D02*
X198294500Y-108396000D01*
X195494500Y-106996000D02*
X198294500Y-106996000D01*
X132947000Y-106996000D02*
X132947000Y-108396000D01*
X132947000Y-108396000D02*
X135747000Y-108396000D01*
X132947000Y-106996000D02*
X135747000Y-106996000D01*
X177968500Y-106996000D02*
X177968500Y-108396000D01*
X177968500Y-108396000D02*
X180768500Y-108396000D01*
X177968500Y-106996000D02*
X180768500Y-106996000D01*
X150600000Y-106996000D02*
X150600000Y-108396000D01*
X150600000Y-108396000D02*
X153400000Y-108396000D01*
X150600000Y-106996000D02*
X153400000Y-106996000D01*
D14*
X78040000Y-81055000D02*
X78040000Y-81305000D01*
X85790000Y-81055000D02*
X85790000Y-81390000D01*
X85790000Y-94205000D02*
X85790000Y-93870000D01*
X78040000Y-94205000D02*
X78040000Y-93870000D01*
X78040000Y-81055000D02*
X85790000Y-81055000D01*
X78040000Y-94205000D02*
X85790000Y-94205000D01*
X78040000Y-81305000D02*
X76240000Y-81305000D01*
X96040000Y-81055000D02*
X96040000Y-81305000D01*
X103790000Y-81055000D02*
X103790000Y-81390000D01*
X103790000Y-94205000D02*
X103790000Y-93870000D01*
X96040000Y-94205000D02*
X96040000Y-93870000D01*
X96040000Y-81055000D02*
X103790000Y-81055000D01*
X96040000Y-94205000D02*
X103790000Y-94205000D01*
X96040000Y-81305000D02*
X94240000Y-81305000D01*
X114040000Y-81055000D02*
X114040000Y-81305000D01*
X121790000Y-81055000D02*
X121790000Y-81390000D01*
X121790000Y-94205000D02*
X121790000Y-93870000D01*
X114040000Y-94205000D02*
X114040000Y-93870000D01*
X114040000Y-81055000D02*
X121790000Y-81055000D01*
X114040000Y-94205000D02*
X121790000Y-94205000D01*
X114040000Y-81305000D02*
X112240000Y-81305000D01*
X132040000Y-81055000D02*
X132040000Y-81305000D01*
X139790000Y-81055000D02*
X139790000Y-81390000D01*
X139790000Y-94205000D02*
X139790000Y-93870000D01*
X132040000Y-94205000D02*
X132040000Y-93870000D01*
X132040000Y-81055000D02*
X139790000Y-81055000D01*
X132040000Y-94205000D02*
X139790000Y-94205000D01*
X132040000Y-81305000D02*
X130240000Y-81305000D01*
X150040000Y-81055000D02*
X150040000Y-81305000D01*
X157790000Y-81055000D02*
X157790000Y-81390000D01*
X157790000Y-94205000D02*
X157790000Y-93870000D01*
X150040000Y-94205000D02*
X150040000Y-93870000D01*
X150040000Y-81055000D02*
X157790000Y-81055000D01*
X150040000Y-94205000D02*
X157790000Y-94205000D01*
X150040000Y-81305000D02*
X148240000Y-81305000D01*
X168040000Y-81055000D02*
X168040000Y-81305000D01*
X175790000Y-81055000D02*
X175790000Y-81390000D01*
X175790000Y-94205000D02*
X175790000Y-93870000D01*
X168040000Y-94205000D02*
X168040000Y-93870000D01*
X168040000Y-81055000D02*
X175790000Y-81055000D01*
X168040000Y-94205000D02*
X175790000Y-94205000D01*
X168040000Y-81305000D02*
X166240000Y-81305000D01*
X186040000Y-81055000D02*
X186040000Y-81305000D01*
X193790000Y-81055000D02*
X193790000Y-81390000D01*
X193790000Y-94205000D02*
X193790000Y-93870000D01*
X186040000Y-94205000D02*
X186040000Y-93870000D01*
X186040000Y-81055000D02*
X193790000Y-81055000D01*
X186040000Y-94205000D02*
X193790000Y-94205000D01*
X186040000Y-81305000D02*
X184240000Y-81305000D01*
X204040000Y-81055000D02*
X204040000Y-81305000D01*
X211790000Y-81055000D02*
X211790000Y-81390000D01*
X211790000Y-94205000D02*
X211790000Y-93870000D01*
X204040000Y-94205000D02*
X204040000Y-93870000D01*
X204040000Y-81055000D02*
X211790000Y-81055000D01*
X204040000Y-94205000D02*
X211790000Y-94205000D01*
X204040000Y-81305000D02*
X202240000Y-81305000D01*
D13*
X209795000Y-100680000D02*
X209795000Y-101880000D01*
X208035000Y-101880000D02*
X208035000Y-100680000D01*
X212335000Y-100685000D02*
X212335000Y-101885000D01*
X210575000Y-101885000D02*
X210575000Y-100685000D01*
D15*
G36*
X142211890Y-74999601D02*
X142225180Y-75022535D01*
X142245558Y-75050429D01*
X142256637Y-75048829D01*
X142291136Y-75042848D01*
X142330772Y-75072577D01*
X142363279Y-75126001D01*
X142374184Y-75163980D01*
X142390650Y-75232677D01*
X142415593Y-75307555D01*
X142443316Y-75374758D01*
X142468123Y-75420431D01*
X142483988Y-75431078D01*
X142490659Y-75401414D01*
X142496786Y-75334612D01*
X142501169Y-75244326D01*
X142501550Y-75231482D01*
X142505236Y-75135603D01*
X142512024Y-75080154D01*
X142525374Y-75054769D01*
X142548745Y-75049080D01*
X142562104Y-75050041D01*
X142609570Y-75040354D01*
X142625604Y-75019423D01*
X142638771Y-74999428D01*
X142670439Y-75012017D01*
X142696141Y-75030483D01*
X142758582Y-75077901D01*
X142691158Y-75213500D01*
X142650091Y-75307074D01*
X142617864Y-75400036D01*
X142606445Y-75446455D01*
X142599827Y-75503174D01*
X142608994Y-75547259D01*
X142641042Y-75594774D01*
X142700328Y-75658942D01*
X142782480Y-75737178D01*
X142882256Y-75822759D01*
X142959533Y-75883182D01*
X143050075Y-75955530D01*
X143137550Y-76034616D01*
X143194887Y-76094305D01*
X143243771Y-76154054D01*
X143261692Y-76187185D01*
X143252247Y-76204312D01*
X143234582Y-76211435D01*
X143170401Y-76215435D01*
X143138997Y-76208148D01*
X143108315Y-76198447D01*
X143106486Y-76210527D01*
X143133223Y-76254122D01*
X143137448Y-76260575D01*
X143166576Y-76310295D01*
X143176050Y-76337609D01*
X143175479Y-76338552D01*
X143149564Y-76354130D01*
X143097496Y-76382621D01*
X143090900Y-76386131D01*
X143050865Y-76412542D01*
X143048040Y-76426830D01*
X143053498Y-76427583D01*
X143104416Y-76414723D01*
X143142398Y-76394304D01*
X143200548Y-76367732D01*
X143278808Y-76346713D01*
X143292618Y-76344311D01*
X143392736Y-76328613D01*
X143217099Y-76505606D01*
X143138921Y-76581235D01*
X143071452Y-76640743D01*
X143024031Y-76676187D01*
X143009031Y-76682600D01*
X142979104Y-76702297D01*
X142976600Y-76714590D01*
X142953440Y-76755802D01*
X142890628Y-76800975D01*
X142798166Y-76843342D01*
X142773400Y-76852097D01*
X142727351Y-76871116D01*
X142719836Y-76882596D01*
X142727296Y-76883847D01*
X142782669Y-76876511D01*
X142837531Y-76860159D01*
X142885489Y-76848593D01*
X142925328Y-76863018D01*
X142976016Y-76910581D01*
X142978539Y-76913275D01*
X143024749Y-76970816D01*
X143035936Y-77012779D01*
X143027081Y-77038795D01*
X142985523Y-77084599D01*
X142957349Y-77099748D01*
X142912559Y-77132896D01*
X142887472Y-77171291D01*
X142848600Y-77220453D01*
X142785518Y-77267245D01*
X142773400Y-77273800D01*
X142725885Y-77300114D01*
X142724245Y-77307917D01*
X142748000Y-77303433D01*
X142816914Y-77276685D01*
X142875527Y-77242801D01*
X142966657Y-77208480D01*
X143021265Y-77209681D01*
X143092919Y-77212709D01*
X143147738Y-77203287D01*
X143197421Y-77192184D01*
X143276930Y-77183420D01*
X143335446Y-77180174D01*
X143478392Y-77175449D01*
X143447579Y-77264451D01*
X143417030Y-77323099D01*
X143371576Y-77380595D01*
X143323067Y-77425172D01*
X143283354Y-77445065D01*
X143269550Y-77441216D01*
X143267171Y-77410694D01*
X143278440Y-77353463D01*
X143280061Y-77347667D01*
X143290604Y-77288996D01*
X143279979Y-77266806D01*
X143279626Y-77266800D01*
X143261323Y-77288383D01*
X143256000Y-77325220D01*
X143243829Y-77384504D01*
X143226352Y-77413287D01*
X143213305Y-77441226D01*
X143243035Y-77460713D01*
X143312234Y-77462150D01*
X143381361Y-77418634D01*
X143443802Y-77335588D01*
X143474606Y-77270802D01*
X143515944Y-77175304D01*
X143553610Y-77118187D01*
X143599571Y-77089502D01*
X143665796Y-77079298D01*
X143706416Y-77078069D01*
X143827631Y-77076300D01*
X143818679Y-77170168D01*
X143821900Y-77248670D01*
X143856763Y-77309910D01*
X143874609Y-77328918D01*
X143934630Y-77377351D01*
X143981180Y-77394521D01*
X144005652Y-77379902D01*
X144000816Y-77336650D01*
X143984359Y-77258175D01*
X143982899Y-77171229D01*
X143995350Y-77096189D01*
X144015741Y-77057283D01*
X144037389Y-77042334D01*
X144036517Y-77065990D01*
X144030069Y-77089000D01*
X144010929Y-77149864D01*
X143999096Y-77184250D01*
X144003023Y-77211340D01*
X144035676Y-77213629D01*
X144082916Y-77193573D01*
X144121896Y-77162903D01*
X144155366Y-77116913D01*
X144167998Y-77056928D01*
X144166346Y-76985087D01*
X144166360Y-76909712D01*
X144176340Y-76866822D01*
X144192545Y-76862240D01*
X144211233Y-76901787D01*
X144213840Y-76911200D01*
X144237447Y-76955664D01*
X144267653Y-76951690D01*
X144295674Y-76904850D01*
X144313791Y-76866884D01*
X144327637Y-76874123D01*
X144335673Y-76892150D01*
X144343892Y-76949801D01*
X144339014Y-76974700D01*
X144334823Y-77008309D01*
X144355805Y-77007923D01*
X144392738Y-76976927D01*
X144418329Y-76945579D01*
X144467296Y-76878358D01*
X144617298Y-76988369D01*
X144720161Y-77066301D01*
X144831871Y-77154682D01*
X144907000Y-77216579D01*
X144994681Y-77287066D01*
X145084175Y-77353144D01*
X145148300Y-77395602D01*
X145242403Y-77458748D01*
X145328140Y-77528264D01*
X145395588Y-77594850D01*
X145434825Y-77649202D01*
X145440788Y-77669805D01*
X145455010Y-77727087D01*
X145466960Y-77749400D01*
X145482023Y-77763763D01*
X145479968Y-77734260D01*
X145475131Y-77712127D01*
X145457520Y-77636754D01*
X145567832Y-77731177D01*
X145656517Y-77795675D01*
X145732855Y-77823343D01*
X145762955Y-77825600D01*
X145819572Y-77821779D01*
X145837994Y-77802847D01*
X145832140Y-77763336D01*
X145824804Y-77720801D01*
X145842145Y-77714934D01*
X145881152Y-77731578D01*
X145940691Y-77777997D01*
X145958568Y-77834758D01*
X145931624Y-77889546D01*
X145907784Y-77918745D01*
X145922746Y-77927051D01*
X145929949Y-77927200D01*
X145973213Y-77909736D01*
X146010356Y-77878105D01*
X146041182Y-77811176D01*
X146031517Y-77734094D01*
X145987912Y-77655873D01*
X145916921Y-77585527D01*
X145825099Y-77532069D01*
X145740904Y-77507495D01*
X145655493Y-77486776D01*
X145590585Y-77459291D01*
X145556700Y-77430649D01*
X145559094Y-77410571D01*
X145601382Y-77396147D01*
X145669809Y-77395649D01*
X145741991Y-77407966D01*
X145778619Y-77421456D01*
X145819766Y-77439667D01*
X145824070Y-77435684D01*
X145797987Y-77413883D01*
X145747973Y-77378638D01*
X145680484Y-77334326D01*
X145601975Y-77285320D01*
X145518901Y-77235998D01*
X145439978Y-77191943D01*
X145293034Y-77109921D01*
X145178662Y-77039403D01*
X145100516Y-76982957D01*
X145062255Y-76943154D01*
X145061631Y-76926062D01*
X145099965Y-76919841D01*
X145162441Y-76940166D01*
X145235036Y-76980053D01*
X145303728Y-77032520D01*
X145331496Y-77060458D01*
X145378113Y-77107653D01*
X145408103Y-77127694D01*
X145414046Y-77123467D01*
X145394765Y-77089572D01*
X145379542Y-77080828D01*
X145351834Y-77050488D01*
X145319808Y-76987796D01*
X145302286Y-76941375D01*
X145250990Y-76833599D01*
X145176562Y-76730827D01*
X145159943Y-76712958D01*
X145087539Y-76623671D01*
X145059657Y-76549912D01*
X145059400Y-76543224D01*
X145049355Y-76471749D01*
X145033106Y-76426930D01*
X145019784Y-76386611D01*
X145033426Y-76377800D01*
X145057306Y-76399179D01*
X145091460Y-76454461D01*
X145119113Y-76511150D01*
X145157804Y-76589877D01*
X145194762Y-76651130D01*
X145214043Y-76674160D01*
X145234339Y-76684050D01*
X145243394Y-76663953D01*
X145243401Y-76635217D01*
X145313250Y-76635217D01*
X145323641Y-76714648D01*
X145343564Y-76802633D01*
X145364824Y-76868939D01*
X145436098Y-77003877D01*
X145542624Y-77122795D01*
X145605628Y-77179498D01*
X145650909Y-77217707D01*
X145668977Y-77229425D01*
X145669000Y-77229257D01*
X145660971Y-77200813D01*
X145644312Y-77154374D01*
X145631316Y-77088156D01*
X145641171Y-77035247D01*
X145670552Y-77012822D01*
X145671717Y-77012800D01*
X145689313Y-77034382D01*
X145694400Y-77071011D01*
X145714090Y-77125684D01*
X145768442Y-77198803D01*
X145809919Y-77242461D01*
X145889041Y-77328884D01*
X145971202Y-77432265D01*
X146019469Y-77501300D01*
X146113500Y-77646901D01*
X146121860Y-77552100D01*
X146119789Y-77462467D01*
X146103736Y-77367380D01*
X146100539Y-77355700D01*
X146043534Y-77219878D01*
X146033131Y-77203300D01*
X146100800Y-77203300D01*
X146113500Y-77216000D01*
X146126200Y-77203300D01*
X146113500Y-77190600D01*
X146100800Y-77203300D01*
X146033131Y-77203300D01*
X145954744Y-77078397D01*
X145846606Y-76950601D01*
X145829094Y-76933434D01*
X145774920Y-76885715D01*
X145698995Y-76823805D01*
X145611021Y-76755010D01*
X145520700Y-76686637D01*
X145437734Y-76625995D01*
X145371825Y-76580390D01*
X145332674Y-76557131D01*
X145327451Y-76555600D01*
X145313988Y-76577736D01*
X145313250Y-76635217D01*
X145243401Y-76635217D01*
X145243409Y-76605362D01*
X145241344Y-76568724D01*
X145239350Y-76486247D01*
X145251880Y-76429389D01*
X145287145Y-76375107D01*
X145326395Y-76330017D01*
X145407824Y-76254484D01*
X145494285Y-76209686D01*
X145598739Y-76191933D01*
X145734147Y-76197535D01*
X145775213Y-76202260D01*
X145872358Y-76211804D01*
X145953946Y-76215068D01*
X146003129Y-76211413D01*
X146004636Y-76210974D01*
X146042425Y-76209558D01*
X146046527Y-76231529D01*
X146018510Y-76263701D01*
X145996719Y-76277527D01*
X145943439Y-76306042D01*
X145996719Y-76343361D01*
X146037443Y-76384458D01*
X146050000Y-76415900D01*
X146069042Y-76455715D01*
X146105617Y-76490075D01*
X146140229Y-76524435D01*
X146142499Y-76547767D01*
X146109745Y-76550218D01*
X146080531Y-76535590D01*
X146019391Y-76498851D01*
X145957732Y-76471964D01*
X145913273Y-76462006D01*
X145903588Y-76464944D01*
X145914907Y-76486773D01*
X145955750Y-76534381D01*
X146018379Y-76599023D01*
X146046811Y-76626745D01*
X146118431Y-76701061D01*
X146172384Y-76767612D01*
X146199914Y-76815213D01*
X146201712Y-76824640D01*
X146195285Y-76846991D01*
X146172379Y-76837406D01*
X146125975Y-76792324D01*
X146115063Y-76780679D01*
X146055928Y-76724741D01*
X146017349Y-76708311D01*
X146001450Y-76715909D01*
X145980141Y-76724096D01*
X145973800Y-76686498D01*
X145948902Y-76627034D01*
X145894818Y-76586168D01*
X145797929Y-76527317D01*
X145741126Y-76476116D01*
X145716351Y-76424006D01*
X145713450Y-76393479D01*
X145694738Y-76330506D01*
X145646134Y-76296525D01*
X145578929Y-76290792D01*
X145504417Y-76312561D01*
X145433891Y-76361087D01*
X145390283Y-76414794D01*
X145357044Y-76474089D01*
X145339857Y-76515543D01*
X145339188Y-76520498D01*
X145349909Y-76522535D01*
X145363386Y-76505246D01*
X145384849Y-76486041D01*
X145415614Y-76497915D01*
X145458247Y-76535023D01*
X145509666Y-76579999D01*
X145588654Y-76644706D01*
X145682066Y-76718492D01*
X145732500Y-76757309D01*
X145862087Y-76863239D01*
X145965423Y-76962331D01*
X146037333Y-77048871D01*
X146072644Y-77117143D01*
X146075400Y-77136052D01*
X146085141Y-77153135D01*
X146118208Y-77132987D01*
X146138900Y-77114400D01*
X146202400Y-77054744D01*
X146202011Y-77129022D01*
X146194928Y-77194517D01*
X146180806Y-77236110D01*
X146175106Y-77278150D01*
X146182622Y-77347613D01*
X146199265Y-77424159D01*
X146220943Y-77487451D01*
X146236378Y-77512445D01*
X146245511Y-77510663D01*
X146239878Y-77490239D01*
X146245384Y-77439726D01*
X146278752Y-77393647D01*
X146325490Y-77354833D01*
X146345093Y-77358618D01*
X146337425Y-77404570D01*
X146306831Y-77482215D01*
X146270899Y-77591535D01*
X146267776Y-77694688D01*
X146269578Y-77709405D01*
X146275195Y-77782786D01*
X146262597Y-77826288D01*
X146229495Y-77857113D01*
X146196145Y-77883027D01*
X146199362Y-77897253D01*
X146245056Y-77908870D01*
X146265735Y-77912793D01*
X146341186Y-77920205D01*
X146402629Y-77915307D01*
X146406710Y-77914147D01*
X146446314Y-77911561D01*
X146456400Y-77923470D01*
X146434367Y-77945247D01*
X146380642Y-77964830D01*
X146373850Y-77966381D01*
X146294791Y-77990428D01*
X146208817Y-78026110D01*
X146197335Y-78031759D01*
X146121458Y-78061803D01*
X146061203Y-78061657D01*
X146036932Y-78054060D01*
X145972556Y-78032415D01*
X145953202Y-78033672D01*
X145978520Y-78057877D01*
X145983473Y-78061545D01*
X146014859Y-78104552D01*
X146010929Y-78163324D01*
X145993602Y-78232358D01*
X145894801Y-78130550D01*
X145840407Y-78070530D01*
X145804522Y-78023323D01*
X145796000Y-78004869D01*
X145777822Y-77969970D01*
X145775068Y-77968061D01*
X145759520Y-77978477D01*
X145756018Y-78010220D01*
X145739502Y-78059815D01*
X145713450Y-78074319D01*
X145676857Y-78065524D01*
X145669000Y-78032505D01*
X145653339Y-77990867D01*
X145615853Y-77943573D01*
X145611647Y-77939900D01*
X145846800Y-77939900D01*
X145859500Y-77952600D01*
X145872200Y-77939900D01*
X145859500Y-77927200D01*
X145846800Y-77939900D01*
X145611647Y-77939900D01*
X145570787Y-77904218D01*
X145532388Y-77886395D01*
X145519798Y-77890134D01*
X145510355Y-77924151D01*
X145504262Y-77994155D01*
X145501509Y-78085445D01*
X145502086Y-78183320D01*
X145505981Y-78273080D01*
X145513184Y-78340021D01*
X145520145Y-78365350D01*
X145558343Y-78403029D01*
X145601502Y-78405073D01*
X145626849Y-78378050D01*
X145643909Y-78360958D01*
X145664716Y-78382096D01*
X145678548Y-78438854D01*
X145646471Y-78491866D01*
X145617051Y-78512014D01*
X145552619Y-78525349D01*
X145494750Y-78491017D01*
X145441040Y-78407517D01*
X145437343Y-78399725D01*
X145409088Y-78341632D01*
X145397672Y-78327524D01*
X145399816Y-78354742D01*
X145402822Y-78371700D01*
X145441295Y-78463468D01*
X145510564Y-78526961D01*
X145598411Y-78552745D01*
X145634534Y-78550627D01*
X145714024Y-78529243D01*
X145780772Y-78498020D01*
X145838357Y-78473219D01*
X145900712Y-78482729D01*
X145913221Y-78487298D01*
X145986500Y-78515346D01*
X145926536Y-78564173D01*
X145890199Y-78597776D01*
X145883556Y-78612929D01*
X145884429Y-78613000D01*
X145914889Y-78598744D01*
X145964312Y-78564196D01*
X145967326Y-78561840D01*
X146022351Y-78529406D01*
X146086429Y-78520610D01*
X146149132Y-78526109D01*
X146226132Y-78531747D01*
X146282736Y-78518539D01*
X146343926Y-78479168D01*
X146364642Y-78462968D01*
X146423142Y-78417764D01*
X146463145Y-78389360D01*
X146472592Y-78384400D01*
X146482110Y-78401162D01*
X146456074Y-78449407D01*
X146396175Y-78526066D01*
X146391500Y-78531550D01*
X146335132Y-78592892D01*
X146290675Y-78622858D01*
X146239441Y-78630623D01*
X146194650Y-78628194D01*
X146142779Y-78625115D01*
X146131249Y-78627282D01*
X146143391Y-78630379D01*
X146208930Y-78659383D01*
X146250747Y-78721547D01*
X146266611Y-78771892D01*
X146267852Y-78822848D01*
X146245239Y-78839580D01*
X146210928Y-78823696D01*
X146177075Y-78776805D01*
X146169594Y-78759050D01*
X146131238Y-78723554D01*
X146082547Y-78718405D01*
X146011900Y-78722211D01*
X146082891Y-78732902D01*
X146132456Y-78747560D01*
X146142070Y-78777434D01*
X146137934Y-78793840D01*
X146141744Y-78854194D01*
X146178288Y-78931182D01*
X146240392Y-79010013D01*
X146245158Y-79014864D01*
X146276227Y-79060559D01*
X146260100Y-79087563D01*
X146204243Y-79095600D01*
X146132843Y-79073667D01*
X146068128Y-79019284D01*
X146027883Y-78949571D01*
X146022594Y-78920724D01*
X146015794Y-78899236D01*
X146008247Y-78910041D01*
X146011625Y-78962764D01*
X146050021Y-79031310D01*
X146116156Y-79103372D01*
X146129422Y-79114909D01*
X146189066Y-79188534D01*
X146202400Y-79250257D01*
X146192351Y-79309346D01*
X146166070Y-79324996D01*
X146129359Y-79299541D01*
X146088015Y-79235317D01*
X146070605Y-79197200D01*
X146038017Y-79126796D01*
X146010284Y-79080679D01*
X145998106Y-79070200D01*
X145997266Y-79090640D01*
X146015590Y-79143468D01*
X146039593Y-79197075D01*
X146084159Y-79302939D01*
X146098322Y-79377496D01*
X146082880Y-79429530D01*
X146062700Y-79451200D01*
X146022825Y-79469678D01*
X145983751Y-79448918D01*
X145947667Y-79429564D01*
X145917137Y-79450849D01*
X145907551Y-79463363D01*
X145875664Y-79520223D01*
X145881713Y-79549579D01*
X145896745Y-79552800D01*
X145928589Y-79568709D01*
X145981352Y-79609049D01*
X146010307Y-79634497D01*
X146099325Y-79716195D01*
X146044835Y-79774197D01*
X145982631Y-79820923D01*
X145927557Y-79828076D01*
X145890055Y-79795036D01*
X145885628Y-79783693D01*
X145847364Y-79713557D01*
X145799667Y-79687419D01*
X145754841Y-79703362D01*
X145725193Y-79759470D01*
X145719800Y-79809517D01*
X145716614Y-79873510D01*
X145699330Y-79901517D01*
X145656353Y-79908293D01*
X145642100Y-79908400D01*
X145592806Y-79914879D01*
X145578275Y-79930619D01*
X145579015Y-79932044D01*
X145576227Y-79964870D01*
X145569569Y-79970559D01*
X145536568Y-79967622D01*
X145529556Y-79959614D01*
X145525479Y-79916745D01*
X145529300Y-79908400D01*
X145527286Y-79884994D01*
X145518099Y-79883000D01*
X145505078Y-79870300D01*
X145669000Y-79870300D01*
X145681700Y-79883000D01*
X145694400Y-79870300D01*
X145681700Y-79857600D01*
X145669000Y-79870300D01*
X145505078Y-79870300D01*
X145497146Y-79862565D01*
X145492224Y-79815778D01*
X145503096Y-79764410D01*
X145519675Y-79737684D01*
X145525087Y-79721038D01*
X145489952Y-79718226D01*
X145443718Y-79723216D01*
X145345272Y-79723319D01*
X145296187Y-79702161D01*
X145265490Y-79680761D01*
X145264599Y-79696915D01*
X145270253Y-79712869D01*
X145274777Y-79744162D01*
X145262309Y-79743120D01*
X145240044Y-79706982D01*
X145236811Y-79684650D01*
X145230375Y-79659050D01*
X145217090Y-79672109D01*
X145182296Y-79688453D01*
X145163425Y-79681299D01*
X145142556Y-79648199D01*
X145146800Y-79631425D01*
X145175641Y-79612958D01*
X145185493Y-79615739D01*
X145210565Y-79607511D01*
X145222281Y-79587523D01*
X145239723Y-79565109D01*
X145277495Y-79555433D01*
X145347617Y-79556633D01*
X145396392Y-79560534D01*
X145478422Y-79567511D01*
X145513122Y-79568788D01*
X145503723Y-79563605D01*
X145453454Y-79551203D01*
X145444727Y-79549169D01*
X145364381Y-79521599D01*
X145318429Y-79479315D01*
X145305027Y-79453448D01*
X145272595Y-79405045D01*
X145240375Y-79395018D01*
X145215702Y-79389768D01*
X145217610Y-79371825D01*
X145241834Y-79347519D01*
X145292966Y-79348531D01*
X145376995Y-79375755D01*
X145448458Y-79406288D01*
X145538483Y-79439081D01*
X145601244Y-79437778D01*
X145646163Y-79397389D01*
X145682667Y-79312924D01*
X145687020Y-79298800D01*
X145929918Y-79298800D01*
X145931899Y-79353736D01*
X145936965Y-79368817D01*
X145940925Y-79355950D01*
X145945127Y-79281934D01*
X145940925Y-79241650D01*
X145934644Y-79229613D01*
X145930658Y-79261525D01*
X145929918Y-79298800D01*
X145687020Y-79298800D01*
X145693959Y-79276286D01*
X145731796Y-79179267D01*
X145778603Y-79123535D01*
X145796000Y-79113097D01*
X145852010Y-79061231D01*
X145869359Y-78988112D01*
X145847425Y-78906151D01*
X145809100Y-78850975D01*
X145743234Y-78778100D01*
X145794922Y-78867000D01*
X145836001Y-78958882D01*
X145843527Y-79030801D01*
X145817072Y-79074958D01*
X145806622Y-79080182D01*
X145769776Y-79093495D01*
X145762172Y-79095582D01*
X145757780Y-79073627D01*
X145753895Y-79026595D01*
X145731320Y-78958439D01*
X145682114Y-78904483D01*
X145621739Y-78878357D01*
X145588735Y-78880990D01*
X145535992Y-78877797D01*
X145459431Y-78849245D01*
X145426573Y-78832229D01*
X145365833Y-78800955D01*
X145330795Y-78788256D01*
X145327221Y-78792614D01*
X145357803Y-78818650D01*
X145415892Y-78854078D01*
X145437472Y-78865506D01*
X145527747Y-78920873D01*
X145577245Y-78972538D01*
X145581927Y-79016154D01*
X145580261Y-79019138D01*
X145554695Y-79022103D01*
X145513776Y-78983472D01*
X145512731Y-78982151D01*
X145464940Y-78937495D01*
X145420167Y-78919392D01*
X145419506Y-78919410D01*
X145398650Y-78924974D01*
X145425015Y-78940343D01*
X145432389Y-78943377D01*
X145499734Y-78995878D01*
X145536749Y-79078926D01*
X145540983Y-79125680D01*
X145538734Y-79164052D01*
X145528580Y-79161199D01*
X145503470Y-79117318D01*
X145453435Y-79062946D01*
X145365178Y-79005289D01*
X145312003Y-78978592D01*
X145205029Y-78923530D01*
X145181633Y-78905100D01*
X145338800Y-78905100D01*
X145351500Y-78917800D01*
X145364200Y-78905100D01*
X145351500Y-78892400D01*
X145338800Y-78905100D01*
X145181633Y-78905100D01*
X145144255Y-78875656D01*
X145126706Y-78829419D01*
X145149405Y-78779264D01*
X145184908Y-78741392D01*
X145233457Y-78688258D01*
X145260059Y-78643971D01*
X145261827Y-78634559D01*
X145252083Y-78623997D01*
X145232679Y-78649192D01*
X145192632Y-78701400D01*
X145142216Y-78751489D01*
X145095968Y-78811743D01*
X145081180Y-78867697D01*
X145086924Y-78942999D01*
X145099899Y-79034230D01*
X145116799Y-79123163D01*
X145134316Y-79191573D01*
X145144445Y-79216362D01*
X145145128Y-79243570D01*
X145126128Y-79248000D01*
X145079380Y-79225211D01*
X145031996Y-79165765D01*
X144992104Y-79083045D01*
X144967834Y-78990431D01*
X144967274Y-78986499D01*
X144961624Y-78908178D01*
X144975116Y-78857242D01*
X145005563Y-78819236D01*
X145044286Y-78771663D01*
X145059400Y-78736574D01*
X145046340Y-78734225D01*
X145014175Y-78765530D01*
X145006756Y-78774674D01*
X144948869Y-78825459D01*
X144889459Y-78842198D01*
X144848413Y-78825346D01*
X144853304Y-78798024D01*
X144883764Y-78746268D01*
X144909917Y-78710916D01*
X144953267Y-78646797D01*
X144995608Y-78568926D01*
X145031896Y-78489294D01*
X145054530Y-78426934D01*
X145253928Y-78426934D01*
X145278683Y-78468410D01*
X145280464Y-78470812D01*
X145319193Y-78515232D01*
X145334982Y-78519888D01*
X145322589Y-78486197D01*
X145309050Y-78463073D01*
X145276212Y-78422263D01*
X145255304Y-78409800D01*
X145253928Y-78426934D01*
X145054530Y-78426934D01*
X145057087Y-78419890D01*
X145063959Y-78384054D01*
X145132456Y-78384054D01*
X145134496Y-78384400D01*
X145163290Y-78366615D01*
X145208261Y-78322242D01*
X145223286Y-78305010D01*
X145239171Y-78282800D01*
X145316529Y-78282800D01*
X145319351Y-78341386D01*
X145329248Y-78400958D01*
X145342358Y-78443992D01*
X145354211Y-78453654D01*
X145355146Y-78425692D01*
X145347145Y-78365381D01*
X145341068Y-78331997D01*
X145327774Y-78276827D01*
X145318941Y-78265733D01*
X145316529Y-78282800D01*
X145239171Y-78282800D01*
X145261046Y-78252216D01*
X145275039Y-78215763D01*
X145272866Y-78209760D01*
X145251288Y-78214598D01*
X145242670Y-78230556D01*
X145216268Y-78273692D01*
X145171102Y-78325806D01*
X145137579Y-78365012D01*
X145132456Y-78384054D01*
X145063959Y-78384054D01*
X145066137Y-78372703D01*
X145057975Y-78359000D01*
X145057042Y-78340662D01*
X145080500Y-78294259D01*
X145098265Y-78266555D01*
X145129423Y-78214393D01*
X145148267Y-78160840D01*
X145157760Y-78090963D01*
X145160869Y-77989827D01*
X145161000Y-77950554D01*
X145158135Y-77844267D01*
X145150372Y-77762367D01*
X145138957Y-77716166D01*
X145134581Y-77710670D01*
X145118876Y-77716414D01*
X145124248Y-77758430D01*
X145140333Y-77822518D01*
X145010694Y-77773259D01*
X144928005Y-77745264D01*
X144857974Y-77727419D01*
X144830527Y-77724000D01*
X144788651Y-77711767D01*
X144787643Y-77707502D01*
X145037867Y-77707502D01*
X145052682Y-77723935D01*
X145054565Y-77724000D01*
X145083915Y-77703648D01*
X145094799Y-77683777D01*
X145095488Y-77654001D01*
X145080054Y-77653615D01*
X145049592Y-77676882D01*
X145037867Y-77707502D01*
X144787643Y-77707502D01*
X144782658Y-77686416D01*
X144783394Y-77685900D01*
X144983200Y-77685900D01*
X144995900Y-77698600D01*
X145008600Y-77685900D01*
X144995900Y-77673200D01*
X144983200Y-77685900D01*
X144783394Y-77685900D01*
X144809530Y-77667589D01*
X144832318Y-77644123D01*
X144847494Y-77605611D01*
X144847458Y-77575825D01*
X144840224Y-77571599D01*
X144814023Y-77585084D01*
X144765506Y-77617957D01*
X144759921Y-77622022D01*
X144723798Y-77644729D01*
X144683259Y-77658213D01*
X144626530Y-77663686D01*
X144541839Y-77662363D01*
X144428670Y-77656158D01*
X144304426Y-77647003D01*
X144217332Y-77635652D01*
X144153746Y-77618846D01*
X144100030Y-77593323D01*
X144060370Y-77568098D01*
X143990405Y-77526069D01*
X143931678Y-77499995D01*
X143911816Y-77495862D01*
X143873852Y-77473646D01*
X143858125Y-77438250D01*
X143851900Y-77429827D01*
X143846599Y-77464598D01*
X143843659Y-77526256D01*
X143837754Y-77615432D01*
X143822636Y-77667520D01*
X143794176Y-77695977D01*
X143791069Y-77697706D01*
X143748751Y-77718571D01*
X143733919Y-77723801D01*
X143728540Y-77700798D01*
X143723484Y-77642097D01*
X143721154Y-77594172D01*
X143714662Y-77502967D01*
X143700940Y-77455607D01*
X143675928Y-77445239D01*
X143642131Y-77460781D01*
X143608206Y-77510699D01*
X143587788Y-77609336D01*
X143586200Y-77624983D01*
X143573500Y-77762100D01*
X143529050Y-77699298D01*
X143494282Y-77642975D01*
X143489888Y-77599782D01*
X143516659Y-77547768D01*
X143535487Y-77520676D01*
X143566175Y-77461976D01*
X143572844Y-77414585D01*
X143571856Y-77411375D01*
X143573319Y-77369336D01*
X143584468Y-77356770D01*
X143610191Y-77324941D01*
X143611600Y-77316668D01*
X143596270Y-77321348D01*
X143556201Y-77356399D01*
X143503650Y-77410433D01*
X143439318Y-77487122D01*
X143405850Y-77549325D01*
X143394472Y-77614328D01*
X143394113Y-77626289D01*
X143384315Y-77699842D01*
X143349704Y-77756671D01*
X143305213Y-77798246D01*
X143250966Y-77840075D01*
X143214650Y-77861296D01*
X143207776Y-77861682D01*
X143214923Y-77837183D01*
X143244458Y-77785778D01*
X143266961Y-77751908D01*
X143314178Y-77664929D01*
X143325517Y-77595841D01*
X143324994Y-77592698D01*
X143316629Y-77554365D01*
X143312549Y-77563619D01*
X143310259Y-77600239D01*
X143293796Y-77663005D01*
X143268699Y-77698600D01*
X143243189Y-77712759D01*
X143232470Y-77691685D01*
X143230600Y-77643290D01*
X143239017Y-77575045D01*
X143259442Y-77527641D01*
X143261080Y-77525880D01*
X143275768Y-77500019D01*
X143265079Y-77495400D01*
X143238170Y-77516036D01*
X143202586Y-77567733D01*
X143190149Y-77590650D01*
X143158363Y-77652435D01*
X143137179Y-77692317D01*
X143133968Y-77697864D01*
X143116658Y-77690654D01*
X143103608Y-77673213D01*
X143100498Y-77620194D01*
X143130389Y-77556651D01*
X143162733Y-77498419D01*
X143178645Y-77458151D01*
X143179007Y-77454301D01*
X143169496Y-77448882D01*
X143147045Y-77478181D01*
X143117923Y-77529890D01*
X143088401Y-77591699D01*
X143064747Y-77651300D01*
X143053230Y-77696383D01*
X143052930Y-77701839D01*
X143039160Y-77764374D01*
X143014843Y-77800080D01*
X142981689Y-77815381D01*
X142947353Y-77794475D01*
X142926788Y-77771441D01*
X142889072Y-77717559D01*
X142881762Y-77671909D01*
X142907756Y-77621382D01*
X142969955Y-77552868D01*
X142976600Y-77546199D01*
X143038322Y-77480886D01*
X143070877Y-77439576D01*
X143073479Y-77426085D01*
X143045342Y-77444228D01*
X142986782Y-77496767D01*
X142919126Y-77575655D01*
X142857048Y-77670575D01*
X142838946Y-77705643D01*
X142805353Y-77775082D01*
X142783130Y-77805026D01*
X142762578Y-77802209D01*
X142736853Y-77776517D01*
X142703710Y-77710370D01*
X142719815Y-77642823D01*
X142783841Y-77577248D01*
X142825733Y-77550522D01*
X142884202Y-77513717D01*
X142915881Y-77486392D01*
X142917705Y-77478838D01*
X142886177Y-77479214D01*
X142834309Y-77507303D01*
X142775224Y-77552597D01*
X142722047Y-77604590D01*
X142687901Y-77652773D01*
X142682858Y-77666865D01*
X142667672Y-77731133D01*
X142656856Y-77770845D01*
X142667150Y-77808150D01*
X142705892Y-77859695D01*
X142722533Y-77876337D01*
X142773443Y-77933780D01*
X142790339Y-77988687D01*
X142787869Y-78032692D01*
X142779704Y-78101297D01*
X142775175Y-78150057D01*
X142775114Y-78151179D01*
X142758967Y-78163799D01*
X142711627Y-78140786D01*
X142690849Y-78126771D01*
X142642489Y-78094703D01*
X142630064Y-78092829D01*
X142646400Y-78116472D01*
X142670917Y-78150657D01*
X142661806Y-78156351D01*
X142646400Y-78152067D01*
X142613498Y-78124101D01*
X142570801Y-78065584D01*
X142544800Y-78021010D01*
X142493296Y-77938918D01*
X142452059Y-77905948D01*
X142420127Y-77921679D01*
X142403555Y-77958950D01*
X142373571Y-78012480D01*
X142321323Y-78073701D01*
X142306593Y-78087689D01*
X142266365Y-78126703D01*
X142255465Y-78143368D01*
X142262345Y-78141304D01*
X142287547Y-78139024D01*
X142285786Y-78158614D01*
X142251639Y-78194089D01*
X142192844Y-78198990D01*
X142124396Y-78174504D01*
X142080700Y-78142344D01*
X142034955Y-78091152D01*
X142030185Y-78052633D01*
X142069150Y-78016188D01*
X142120960Y-77987720D01*
X142177823Y-77951981D01*
X142245578Y-77899643D01*
X142311929Y-77841616D01*
X142364580Y-77788806D01*
X142391236Y-77752120D01*
X142392400Y-77746920D01*
X142370895Y-77741706D01*
X142317289Y-77750268D01*
X142297150Y-77755373D01*
X142216201Y-77771100D01*
X142113506Y-77782817D01*
X142053314Y-77786393D01*
X141963590Y-77786104D01*
X141910441Y-77775530D01*
X141880135Y-77751471D01*
X141875754Y-77744994D01*
X141866489Y-77736700D01*
X141909800Y-77736700D01*
X141922500Y-77749400D01*
X141935200Y-77736700D01*
X141922500Y-77724000D01*
X141909800Y-77736700D01*
X141866489Y-77736700D01*
X141833396Y-77707076D01*
X141802887Y-77698599D01*
X141771420Y-77684223D01*
X141773614Y-77660499D01*
X141803942Y-77626772D01*
X141820655Y-77622399D01*
X141852545Y-77601145D01*
X141866359Y-77571600D01*
X141897911Y-77530460D01*
X141953573Y-77525838D01*
X142021206Y-77558658D01*
X142022604Y-77559707D01*
X142084031Y-77586173D01*
X142149604Y-77594053D01*
X142191909Y-77589769D01*
X142185154Y-77582419D01*
X142176500Y-77580364D01*
X142109127Y-77566024D01*
X142065812Y-77556740D01*
X142022063Y-77536293D01*
X142016084Y-77491812D01*
X142017840Y-77481529D01*
X142016620Y-77431319D01*
X141993678Y-77419200D01*
X141968816Y-77407928D01*
X141970729Y-77397958D01*
X142002021Y-77384085D01*
X142065135Y-77374364D01*
X142094453Y-77372534D01*
X142174802Y-77376449D01*
X142232561Y-77402809D01*
X142278076Y-77444575D01*
X142334033Y-77492807D01*
X142383545Y-77519144D01*
X142394019Y-77520800D01*
X142425819Y-77502948D01*
X142484116Y-77453876D01*
X142561623Y-77380301D01*
X142651059Y-77288945D01*
X142687717Y-77249821D01*
X142938500Y-76978843D01*
X142842276Y-76994382D01*
X142756175Y-77022359D01*
X142675218Y-77069725D01*
X142668877Y-77074861D01*
X142611416Y-77110281D01*
X142545265Y-77133762D01*
X142485864Y-77142226D01*
X142448656Y-77132590D01*
X142443200Y-77119876D01*
X142464028Y-77093278D01*
X142515977Y-77056613D01*
X142583239Y-77019274D01*
X142650008Y-76990651D01*
X142671800Y-76984055D01*
X142735300Y-76968010D01*
X142668875Y-76965005D01*
X142602686Y-76978475D01*
X142534897Y-77015152D01*
X142533261Y-77016424D01*
X142483301Y-77050909D01*
X142443219Y-77055951D01*
X142386892Y-77034032D01*
X142380394Y-77030946D01*
X142305811Y-76987253D01*
X142226891Y-76929505D01*
X142215231Y-76919666D01*
X142375466Y-76919666D01*
X142378953Y-76934766D01*
X142392400Y-76936600D01*
X142413307Y-76927306D01*
X142409333Y-76919666D01*
X142379189Y-76916626D01*
X142375466Y-76919666D01*
X142215231Y-76919666D01*
X142211208Y-76916272D01*
X142133772Y-76854336D01*
X142052221Y-76797273D01*
X142051624Y-76796900D01*
X142201900Y-76796900D01*
X142250286Y-76854050D01*
X142293100Y-76895248D01*
X142324370Y-76911200D01*
X142341437Y-76906483D01*
X142339483Y-76904579D01*
X142314165Y-76885684D01*
X142267514Y-76849111D01*
X142265400Y-76847429D01*
X142201900Y-76796900D01*
X142051624Y-76796900D01*
X142038226Y-76788543D01*
X141985768Y-76751884D01*
X141976335Y-76729466D01*
X141989395Y-76720755D01*
X142039966Y-76718526D01*
X142099442Y-76733073D01*
X142153486Y-76748749D01*
X142182813Y-76748253D01*
X142209466Y-76753045D01*
X142262368Y-76779237D01*
X142287240Y-76794093D01*
X142420157Y-76864596D01*
X142528687Y-76893781D01*
X142614800Y-76883328D01*
X142682899Y-76857437D01*
X142556699Y-76783151D01*
X142481427Y-76742346D01*
X142419930Y-76715180D01*
X142393669Y-76708433D01*
X142370994Y-76700365D01*
X142386195Y-76678644D01*
X142417030Y-76666136D01*
X142471825Y-76674404D01*
X142558635Y-76704044D01*
X142661075Y-76740116D01*
X142734978Y-76755364D01*
X142797611Y-76750930D01*
X142866241Y-76727959D01*
X142873616Y-76724889D01*
X142954266Y-76690979D01*
X142832083Y-76650256D01*
X142709900Y-76609534D01*
X142801724Y-76607967D01*
X142886262Y-76591886D01*
X142958130Y-76555600D01*
X143016803Y-76519630D01*
X143066508Y-76504800D01*
X143108871Y-76493504D01*
X143168841Y-76466041D01*
X143228869Y-76432044D01*
X143271412Y-76401148D01*
X143281399Y-76386803D01*
X143261811Y-76390524D01*
X143212216Y-76414010D01*
X143182166Y-76430322D01*
X143097954Y-76467246D01*
X143028053Y-76470720D01*
X143010716Y-76466915D01*
X142969387Y-76450655D01*
X142967115Y-76437225D01*
X142968692Y-76436570D01*
X142977884Y-76412440D01*
X142945062Y-76363502D01*
X142895758Y-76314262D01*
X142865146Y-76308058D01*
X142844722Y-76345016D01*
X142839169Y-76365099D01*
X142820257Y-76412628D01*
X142802608Y-76428600D01*
X142773016Y-76405230D01*
X142743893Y-76342899D01*
X142719888Y-76253271D01*
X142710749Y-76198079D01*
X142697616Y-76125968D01*
X142678168Y-76092034D01*
X142644575Y-76083678D01*
X142639708Y-76083779D01*
X142606763Y-76079764D01*
X142590207Y-76056430D01*
X142584591Y-76001284D01*
X142584184Y-75956471D01*
X142583352Y-75881839D01*
X142577660Y-75850458D01*
X142562733Y-75854778D01*
X142540029Y-75880271D01*
X142512294Y-75910619D01*
X142499359Y-75908180D01*
X142495352Y-75865814D01*
X142494845Y-75825350D01*
X142489654Y-75759402D01*
X142477602Y-75721212D01*
X142471710Y-75717400D01*
X142431116Y-75739103D01*
X142407848Y-75790298D01*
X142409160Y-75839507D01*
X142405463Y-75906760D01*
X142365646Y-75956139D01*
X142313887Y-75971399D01*
X142279918Y-75984784D01*
X142281614Y-76009499D01*
X142281767Y-76042187D01*
X142270835Y-76047599D01*
X142240945Y-76027235D01*
X142230017Y-76007422D01*
X142218126Y-75951795D01*
X142214804Y-75882556D01*
X142219301Y-75817740D01*
X142230862Y-75775386D01*
X142240000Y-75768200D01*
X142263563Y-75748121D01*
X142265399Y-75736209D01*
X142284871Y-75699371D01*
X142318673Y-75670949D01*
X142353330Y-75640677D01*
X142356353Y-75622086D01*
X142322945Y-75613514D01*
X142257170Y-75609878D01*
X142177183Y-75610782D01*
X142101136Y-75615826D01*
X142047182Y-75624612D01*
X142035792Y-75629122D01*
X142003772Y-75622705D01*
X141950048Y-75588688D01*
X141910674Y-75556111D01*
X141811863Y-75466842D01*
X141872638Y-75427021D01*
X141950916Y-75393274D01*
X142036725Y-75395360D01*
X142141679Y-75434193D01*
X142174060Y-75450700D01*
X142274610Y-75497700D01*
X142339128Y-75512932D01*
X142366202Y-75496116D01*
X142367000Y-75488800D01*
X142350363Y-75464112D01*
X142345256Y-75463400D01*
X142318337Y-75443955D01*
X142274128Y-75394223D01*
X142222085Y-75327111D01*
X142171660Y-75255521D01*
X142132307Y-75192360D01*
X142113479Y-75150531D01*
X142112999Y-75146352D01*
X142129601Y-75103102D01*
X142139433Y-75094461D01*
X142154474Y-75060218D01*
X142150421Y-75029462D01*
X142152496Y-74990865D01*
X142179244Y-74980332D01*
X142211890Y-74999601D01*
X142211890Y-74999601D01*
G37*
X142211890Y-74999601D02*
X142225180Y-75022535D01*
X142245558Y-75050429D01*
X142256637Y-75048829D01*
X142291136Y-75042848D01*
X142330772Y-75072577D01*
X142363279Y-75126001D01*
X142374184Y-75163980D01*
X142390650Y-75232677D01*
X142415593Y-75307555D01*
X142443316Y-75374758D01*
X142468123Y-75420431D01*
X142483988Y-75431078D01*
X142490659Y-75401414D01*
X142496786Y-75334612D01*
X142501169Y-75244326D01*
X142501550Y-75231482D01*
X142505236Y-75135603D01*
X142512024Y-75080154D01*
X142525374Y-75054769D01*
X142548745Y-75049080D01*
X142562104Y-75050041D01*
X142609570Y-75040354D01*
X142625604Y-75019423D01*
X142638771Y-74999428D01*
X142670439Y-75012017D01*
X142696141Y-75030483D01*
X142758582Y-75077901D01*
X142691158Y-75213500D01*
X142650091Y-75307074D01*
X142617864Y-75400036D01*
X142606445Y-75446455D01*
X142599827Y-75503174D01*
X142608994Y-75547259D01*
X142641042Y-75594774D01*
X142700328Y-75658942D01*
X142782480Y-75737178D01*
X142882256Y-75822759D01*
X142959533Y-75883182D01*
X143050075Y-75955530D01*
X143137550Y-76034616D01*
X143194887Y-76094305D01*
X143243771Y-76154054D01*
X143261692Y-76187185D01*
X143252247Y-76204312D01*
X143234582Y-76211435D01*
X143170401Y-76215435D01*
X143138997Y-76208148D01*
X143108315Y-76198447D01*
X143106486Y-76210527D01*
X143133223Y-76254122D01*
X143137448Y-76260575D01*
X143166576Y-76310295D01*
X143176050Y-76337609D01*
X143175479Y-76338552D01*
X143149564Y-76354130D01*
X143097496Y-76382621D01*
X143090900Y-76386131D01*
X143050865Y-76412542D01*
X143048040Y-76426830D01*
X143053498Y-76427583D01*
X143104416Y-76414723D01*
X143142398Y-76394304D01*
X143200548Y-76367732D01*
X143278808Y-76346713D01*
X143292618Y-76344311D01*
X143392736Y-76328613D01*
X143217099Y-76505606D01*
X143138921Y-76581235D01*
X143071452Y-76640743D01*
X143024031Y-76676187D01*
X143009031Y-76682600D01*
X142979104Y-76702297D01*
X142976600Y-76714590D01*
X142953440Y-76755802D01*
X142890628Y-76800975D01*
X142798166Y-76843342D01*
X142773400Y-76852097D01*
X142727351Y-76871116D01*
X142719836Y-76882596D01*
X142727296Y-76883847D01*
X142782669Y-76876511D01*
X142837531Y-76860159D01*
X142885489Y-76848593D01*
X142925328Y-76863018D01*
X142976016Y-76910581D01*
X142978539Y-76913275D01*
X143024749Y-76970816D01*
X143035936Y-77012779D01*
X143027081Y-77038795D01*
X142985523Y-77084599D01*
X142957349Y-77099748D01*
X142912559Y-77132896D01*
X142887472Y-77171291D01*
X142848600Y-77220453D01*
X142785518Y-77267245D01*
X142773400Y-77273800D01*
X142725885Y-77300114D01*
X142724245Y-77307917D01*
X142748000Y-77303433D01*
X142816914Y-77276685D01*
X142875527Y-77242801D01*
X142966657Y-77208480D01*
X143021265Y-77209681D01*
X143092919Y-77212709D01*
X143147738Y-77203287D01*
X143197421Y-77192184D01*
X143276930Y-77183420D01*
X143335446Y-77180174D01*
X143478392Y-77175449D01*
X143447579Y-77264451D01*
X143417030Y-77323099D01*
X143371576Y-77380595D01*
X143323067Y-77425172D01*
X143283354Y-77445065D01*
X143269550Y-77441216D01*
X143267171Y-77410694D01*
X143278440Y-77353463D01*
X143280061Y-77347667D01*
X143290604Y-77288996D01*
X143279979Y-77266806D01*
X143279626Y-77266800D01*
X143261323Y-77288383D01*
X143256000Y-77325220D01*
X143243829Y-77384504D01*
X143226352Y-77413287D01*
X143213305Y-77441226D01*
X143243035Y-77460713D01*
X143312234Y-77462150D01*
X143381361Y-77418634D01*
X143443802Y-77335588D01*
X143474606Y-77270802D01*
X143515944Y-77175304D01*
X143553610Y-77118187D01*
X143599571Y-77089502D01*
X143665796Y-77079298D01*
X143706416Y-77078069D01*
X143827631Y-77076300D01*
X143818679Y-77170168D01*
X143821900Y-77248670D01*
X143856763Y-77309910D01*
X143874609Y-77328918D01*
X143934630Y-77377351D01*
X143981180Y-77394521D01*
X144005652Y-77379902D01*
X144000816Y-77336650D01*
X143984359Y-77258175D01*
X143982899Y-77171229D01*
X143995350Y-77096189D01*
X144015741Y-77057283D01*
X144037389Y-77042334D01*
X144036517Y-77065990D01*
X144030069Y-77089000D01*
X144010929Y-77149864D01*
X143999096Y-77184250D01*
X144003023Y-77211340D01*
X144035676Y-77213629D01*
X144082916Y-77193573D01*
X144121896Y-77162903D01*
X144155366Y-77116913D01*
X144167998Y-77056928D01*
X144166346Y-76985087D01*
X144166360Y-76909712D01*
X144176340Y-76866822D01*
X144192545Y-76862240D01*
X144211233Y-76901787D01*
X144213840Y-76911200D01*
X144237447Y-76955664D01*
X144267653Y-76951690D01*
X144295674Y-76904850D01*
X144313791Y-76866884D01*
X144327637Y-76874123D01*
X144335673Y-76892150D01*
X144343892Y-76949801D01*
X144339014Y-76974700D01*
X144334823Y-77008309D01*
X144355805Y-77007923D01*
X144392738Y-76976927D01*
X144418329Y-76945579D01*
X144467296Y-76878358D01*
X144617298Y-76988369D01*
X144720161Y-77066301D01*
X144831871Y-77154682D01*
X144907000Y-77216579D01*
X144994681Y-77287066D01*
X145084175Y-77353144D01*
X145148300Y-77395602D01*
X145242403Y-77458748D01*
X145328140Y-77528264D01*
X145395588Y-77594850D01*
X145434825Y-77649202D01*
X145440788Y-77669805D01*
X145455010Y-77727087D01*
X145466960Y-77749400D01*
X145482023Y-77763763D01*
X145479968Y-77734260D01*
X145475131Y-77712127D01*
X145457520Y-77636754D01*
X145567832Y-77731177D01*
X145656517Y-77795675D01*
X145732855Y-77823343D01*
X145762955Y-77825600D01*
X145819572Y-77821779D01*
X145837994Y-77802847D01*
X145832140Y-77763336D01*
X145824804Y-77720801D01*
X145842145Y-77714934D01*
X145881152Y-77731578D01*
X145940691Y-77777997D01*
X145958568Y-77834758D01*
X145931624Y-77889546D01*
X145907784Y-77918745D01*
X145922746Y-77927051D01*
X145929949Y-77927200D01*
X145973213Y-77909736D01*
X146010356Y-77878105D01*
X146041182Y-77811176D01*
X146031517Y-77734094D01*
X145987912Y-77655873D01*
X145916921Y-77585527D01*
X145825099Y-77532069D01*
X145740904Y-77507495D01*
X145655493Y-77486776D01*
X145590585Y-77459291D01*
X145556700Y-77430649D01*
X145559094Y-77410571D01*
X145601382Y-77396147D01*
X145669809Y-77395649D01*
X145741991Y-77407966D01*
X145778619Y-77421456D01*
X145819766Y-77439667D01*
X145824070Y-77435684D01*
X145797987Y-77413883D01*
X145747973Y-77378638D01*
X145680484Y-77334326D01*
X145601975Y-77285320D01*
X145518901Y-77235998D01*
X145439978Y-77191943D01*
X145293034Y-77109921D01*
X145178662Y-77039403D01*
X145100516Y-76982957D01*
X145062255Y-76943154D01*
X145061631Y-76926062D01*
X145099965Y-76919841D01*
X145162441Y-76940166D01*
X145235036Y-76980053D01*
X145303728Y-77032520D01*
X145331496Y-77060458D01*
X145378113Y-77107653D01*
X145408103Y-77127694D01*
X145414046Y-77123467D01*
X145394765Y-77089572D01*
X145379542Y-77080828D01*
X145351834Y-77050488D01*
X145319808Y-76987796D01*
X145302286Y-76941375D01*
X145250990Y-76833599D01*
X145176562Y-76730827D01*
X145159943Y-76712958D01*
X145087539Y-76623671D01*
X145059657Y-76549912D01*
X145059400Y-76543224D01*
X145049355Y-76471749D01*
X145033106Y-76426930D01*
X145019784Y-76386611D01*
X145033426Y-76377800D01*
X145057306Y-76399179D01*
X145091460Y-76454461D01*
X145119113Y-76511150D01*
X145157804Y-76589877D01*
X145194762Y-76651130D01*
X145214043Y-76674160D01*
X145234339Y-76684050D01*
X145243394Y-76663953D01*
X145243401Y-76635217D01*
X145313250Y-76635217D01*
X145323641Y-76714648D01*
X145343564Y-76802633D01*
X145364824Y-76868939D01*
X145436098Y-77003877D01*
X145542624Y-77122795D01*
X145605628Y-77179498D01*
X145650909Y-77217707D01*
X145668977Y-77229425D01*
X145669000Y-77229257D01*
X145660971Y-77200813D01*
X145644312Y-77154374D01*
X145631316Y-77088156D01*
X145641171Y-77035247D01*
X145670552Y-77012822D01*
X145671717Y-77012800D01*
X145689313Y-77034382D01*
X145694400Y-77071011D01*
X145714090Y-77125684D01*
X145768442Y-77198803D01*
X145809919Y-77242461D01*
X145889041Y-77328884D01*
X145971202Y-77432265D01*
X146019469Y-77501300D01*
X146113500Y-77646901D01*
X146121860Y-77552100D01*
X146119789Y-77462467D01*
X146103736Y-77367380D01*
X146100539Y-77355700D01*
X146043534Y-77219878D01*
X146033131Y-77203300D01*
X146100800Y-77203300D01*
X146113500Y-77216000D01*
X146126200Y-77203300D01*
X146113500Y-77190600D01*
X146100800Y-77203300D01*
X146033131Y-77203300D01*
X145954744Y-77078397D01*
X145846606Y-76950601D01*
X145829094Y-76933434D01*
X145774920Y-76885715D01*
X145698995Y-76823805D01*
X145611021Y-76755010D01*
X145520700Y-76686637D01*
X145437734Y-76625995D01*
X145371825Y-76580390D01*
X145332674Y-76557131D01*
X145327451Y-76555600D01*
X145313988Y-76577736D01*
X145313250Y-76635217D01*
X145243401Y-76635217D01*
X145243409Y-76605362D01*
X145241344Y-76568724D01*
X145239350Y-76486247D01*
X145251880Y-76429389D01*
X145287145Y-76375107D01*
X145326395Y-76330017D01*
X145407824Y-76254484D01*
X145494285Y-76209686D01*
X145598739Y-76191933D01*
X145734147Y-76197535D01*
X145775213Y-76202260D01*
X145872358Y-76211804D01*
X145953946Y-76215068D01*
X146003129Y-76211413D01*
X146004636Y-76210974D01*
X146042425Y-76209558D01*
X146046527Y-76231529D01*
X146018510Y-76263701D01*
X145996719Y-76277527D01*
X145943439Y-76306042D01*
X145996719Y-76343361D01*
X146037443Y-76384458D01*
X146050000Y-76415900D01*
X146069042Y-76455715D01*
X146105617Y-76490075D01*
X146140229Y-76524435D01*
X146142499Y-76547767D01*
X146109745Y-76550218D01*
X146080531Y-76535590D01*
X146019391Y-76498851D01*
X145957732Y-76471964D01*
X145913273Y-76462006D01*
X145903588Y-76464944D01*
X145914907Y-76486773D01*
X145955750Y-76534381D01*
X146018379Y-76599023D01*
X146046811Y-76626745D01*
X146118431Y-76701061D01*
X146172384Y-76767612D01*
X146199914Y-76815213D01*
X146201712Y-76824640D01*
X146195285Y-76846991D01*
X146172379Y-76837406D01*
X146125975Y-76792324D01*
X146115063Y-76780679D01*
X146055928Y-76724741D01*
X146017349Y-76708311D01*
X146001450Y-76715909D01*
X145980141Y-76724096D01*
X145973800Y-76686498D01*
X145948902Y-76627034D01*
X145894818Y-76586168D01*
X145797929Y-76527317D01*
X145741126Y-76476116D01*
X145716351Y-76424006D01*
X145713450Y-76393479D01*
X145694738Y-76330506D01*
X145646134Y-76296525D01*
X145578929Y-76290792D01*
X145504417Y-76312561D01*
X145433891Y-76361087D01*
X145390283Y-76414794D01*
X145357044Y-76474089D01*
X145339857Y-76515543D01*
X145339188Y-76520498D01*
X145349909Y-76522535D01*
X145363386Y-76505246D01*
X145384849Y-76486041D01*
X145415614Y-76497915D01*
X145458247Y-76535023D01*
X145509666Y-76579999D01*
X145588654Y-76644706D01*
X145682066Y-76718492D01*
X145732500Y-76757309D01*
X145862087Y-76863239D01*
X145965423Y-76962331D01*
X146037333Y-77048871D01*
X146072644Y-77117143D01*
X146075400Y-77136052D01*
X146085141Y-77153135D01*
X146118208Y-77132987D01*
X146138900Y-77114400D01*
X146202400Y-77054744D01*
X146202011Y-77129022D01*
X146194928Y-77194517D01*
X146180806Y-77236110D01*
X146175106Y-77278150D01*
X146182622Y-77347613D01*
X146199265Y-77424159D01*
X146220943Y-77487451D01*
X146236378Y-77512445D01*
X146245511Y-77510663D01*
X146239878Y-77490239D01*
X146245384Y-77439726D01*
X146278752Y-77393647D01*
X146325490Y-77354833D01*
X146345093Y-77358618D01*
X146337425Y-77404570D01*
X146306831Y-77482215D01*
X146270899Y-77591535D01*
X146267776Y-77694688D01*
X146269578Y-77709405D01*
X146275195Y-77782786D01*
X146262597Y-77826288D01*
X146229495Y-77857113D01*
X146196145Y-77883027D01*
X146199362Y-77897253D01*
X146245056Y-77908870D01*
X146265735Y-77912793D01*
X146341186Y-77920205D01*
X146402629Y-77915307D01*
X146406710Y-77914147D01*
X146446314Y-77911561D01*
X146456400Y-77923470D01*
X146434367Y-77945247D01*
X146380642Y-77964830D01*
X146373850Y-77966381D01*
X146294791Y-77990428D01*
X146208817Y-78026110D01*
X146197335Y-78031759D01*
X146121458Y-78061803D01*
X146061203Y-78061657D01*
X146036932Y-78054060D01*
X145972556Y-78032415D01*
X145953202Y-78033672D01*
X145978520Y-78057877D01*
X145983473Y-78061545D01*
X146014859Y-78104552D01*
X146010929Y-78163324D01*
X145993602Y-78232358D01*
X145894801Y-78130550D01*
X145840407Y-78070530D01*
X145804522Y-78023323D01*
X145796000Y-78004869D01*
X145777822Y-77969970D01*
X145775068Y-77968061D01*
X145759520Y-77978477D01*
X145756018Y-78010220D01*
X145739502Y-78059815D01*
X145713450Y-78074319D01*
X145676857Y-78065524D01*
X145669000Y-78032505D01*
X145653339Y-77990867D01*
X145615853Y-77943573D01*
X145611647Y-77939900D01*
X145846800Y-77939900D01*
X145859500Y-77952600D01*
X145872200Y-77939900D01*
X145859500Y-77927200D01*
X145846800Y-77939900D01*
X145611647Y-77939900D01*
X145570787Y-77904218D01*
X145532388Y-77886395D01*
X145519798Y-77890134D01*
X145510355Y-77924151D01*
X145504262Y-77994155D01*
X145501509Y-78085445D01*
X145502086Y-78183320D01*
X145505981Y-78273080D01*
X145513184Y-78340021D01*
X145520145Y-78365350D01*
X145558343Y-78403029D01*
X145601502Y-78405073D01*
X145626849Y-78378050D01*
X145643909Y-78360958D01*
X145664716Y-78382096D01*
X145678548Y-78438854D01*
X145646471Y-78491866D01*
X145617051Y-78512014D01*
X145552619Y-78525349D01*
X145494750Y-78491017D01*
X145441040Y-78407517D01*
X145437343Y-78399725D01*
X145409088Y-78341632D01*
X145397672Y-78327524D01*
X145399816Y-78354742D01*
X145402822Y-78371700D01*
X145441295Y-78463468D01*
X145510564Y-78526961D01*
X145598411Y-78552745D01*
X145634534Y-78550627D01*
X145714024Y-78529243D01*
X145780772Y-78498020D01*
X145838357Y-78473219D01*
X145900712Y-78482729D01*
X145913221Y-78487298D01*
X145986500Y-78515346D01*
X145926536Y-78564173D01*
X145890199Y-78597776D01*
X145883556Y-78612929D01*
X145884429Y-78613000D01*
X145914889Y-78598744D01*
X145964312Y-78564196D01*
X145967326Y-78561840D01*
X146022351Y-78529406D01*
X146086429Y-78520610D01*
X146149132Y-78526109D01*
X146226132Y-78531747D01*
X146282736Y-78518539D01*
X146343926Y-78479168D01*
X146364642Y-78462968D01*
X146423142Y-78417764D01*
X146463145Y-78389360D01*
X146472592Y-78384400D01*
X146482110Y-78401162D01*
X146456074Y-78449407D01*
X146396175Y-78526066D01*
X146391500Y-78531550D01*
X146335132Y-78592892D01*
X146290675Y-78622858D01*
X146239441Y-78630623D01*
X146194650Y-78628194D01*
X146142779Y-78625115D01*
X146131249Y-78627282D01*
X146143391Y-78630379D01*
X146208930Y-78659383D01*
X146250747Y-78721547D01*
X146266611Y-78771892D01*
X146267852Y-78822848D01*
X146245239Y-78839580D01*
X146210928Y-78823696D01*
X146177075Y-78776805D01*
X146169594Y-78759050D01*
X146131238Y-78723554D01*
X146082547Y-78718405D01*
X146011900Y-78722211D01*
X146082891Y-78732902D01*
X146132456Y-78747560D01*
X146142070Y-78777434D01*
X146137934Y-78793840D01*
X146141744Y-78854194D01*
X146178288Y-78931182D01*
X146240392Y-79010013D01*
X146245158Y-79014864D01*
X146276227Y-79060559D01*
X146260100Y-79087563D01*
X146204243Y-79095600D01*
X146132843Y-79073667D01*
X146068128Y-79019284D01*
X146027883Y-78949571D01*
X146022594Y-78920724D01*
X146015794Y-78899236D01*
X146008247Y-78910041D01*
X146011625Y-78962764D01*
X146050021Y-79031310D01*
X146116156Y-79103372D01*
X146129422Y-79114909D01*
X146189066Y-79188534D01*
X146202400Y-79250257D01*
X146192351Y-79309346D01*
X146166070Y-79324996D01*
X146129359Y-79299541D01*
X146088015Y-79235317D01*
X146070605Y-79197200D01*
X146038017Y-79126796D01*
X146010284Y-79080679D01*
X145998106Y-79070200D01*
X145997266Y-79090640D01*
X146015590Y-79143468D01*
X146039593Y-79197075D01*
X146084159Y-79302939D01*
X146098322Y-79377496D01*
X146082880Y-79429530D01*
X146062700Y-79451200D01*
X146022825Y-79469678D01*
X145983751Y-79448918D01*
X145947667Y-79429564D01*
X145917137Y-79450849D01*
X145907551Y-79463363D01*
X145875664Y-79520223D01*
X145881713Y-79549579D01*
X145896745Y-79552800D01*
X145928589Y-79568709D01*
X145981352Y-79609049D01*
X146010307Y-79634497D01*
X146099325Y-79716195D01*
X146044835Y-79774197D01*
X145982631Y-79820923D01*
X145927557Y-79828076D01*
X145890055Y-79795036D01*
X145885628Y-79783693D01*
X145847364Y-79713557D01*
X145799667Y-79687419D01*
X145754841Y-79703362D01*
X145725193Y-79759470D01*
X145719800Y-79809517D01*
X145716614Y-79873510D01*
X145699330Y-79901517D01*
X145656353Y-79908293D01*
X145642100Y-79908400D01*
X145592806Y-79914879D01*
X145578275Y-79930619D01*
X145579015Y-79932044D01*
X145576227Y-79964870D01*
X145569569Y-79970559D01*
X145536568Y-79967622D01*
X145529556Y-79959614D01*
X145525479Y-79916745D01*
X145529300Y-79908400D01*
X145527286Y-79884994D01*
X145518099Y-79883000D01*
X145505078Y-79870300D01*
X145669000Y-79870300D01*
X145681700Y-79883000D01*
X145694400Y-79870300D01*
X145681700Y-79857600D01*
X145669000Y-79870300D01*
X145505078Y-79870300D01*
X145497146Y-79862565D01*
X145492224Y-79815778D01*
X145503096Y-79764410D01*
X145519675Y-79737684D01*
X145525087Y-79721038D01*
X145489952Y-79718226D01*
X145443718Y-79723216D01*
X145345272Y-79723319D01*
X145296187Y-79702161D01*
X145265490Y-79680761D01*
X145264599Y-79696915D01*
X145270253Y-79712869D01*
X145274777Y-79744162D01*
X145262309Y-79743120D01*
X145240044Y-79706982D01*
X145236811Y-79684650D01*
X145230375Y-79659050D01*
X145217090Y-79672109D01*
X145182296Y-79688453D01*
X145163425Y-79681299D01*
X145142556Y-79648199D01*
X145146800Y-79631425D01*
X145175641Y-79612958D01*
X145185493Y-79615739D01*
X145210565Y-79607511D01*
X145222281Y-79587523D01*
X145239723Y-79565109D01*
X145277495Y-79555433D01*
X145347617Y-79556633D01*
X145396392Y-79560534D01*
X145478422Y-79567511D01*
X145513122Y-79568788D01*
X145503723Y-79563605D01*
X145453454Y-79551203D01*
X145444727Y-79549169D01*
X145364381Y-79521599D01*
X145318429Y-79479315D01*
X145305027Y-79453448D01*
X145272595Y-79405045D01*
X145240375Y-79395018D01*
X145215702Y-79389768D01*
X145217610Y-79371825D01*
X145241834Y-79347519D01*
X145292966Y-79348531D01*
X145376995Y-79375755D01*
X145448458Y-79406288D01*
X145538483Y-79439081D01*
X145601244Y-79437778D01*
X145646163Y-79397389D01*
X145682667Y-79312924D01*
X145687020Y-79298800D01*
X145929918Y-79298800D01*
X145931899Y-79353736D01*
X145936965Y-79368817D01*
X145940925Y-79355950D01*
X145945127Y-79281934D01*
X145940925Y-79241650D01*
X145934644Y-79229613D01*
X145930658Y-79261525D01*
X145929918Y-79298800D01*
X145687020Y-79298800D01*
X145693959Y-79276286D01*
X145731796Y-79179267D01*
X145778603Y-79123535D01*
X145796000Y-79113097D01*
X145852010Y-79061231D01*
X145869359Y-78988112D01*
X145847425Y-78906151D01*
X145809100Y-78850975D01*
X145743234Y-78778100D01*
X145794922Y-78867000D01*
X145836001Y-78958882D01*
X145843527Y-79030801D01*
X145817072Y-79074958D01*
X145806622Y-79080182D01*
X145769776Y-79093495D01*
X145762172Y-79095582D01*
X145757780Y-79073627D01*
X145753895Y-79026595D01*
X145731320Y-78958439D01*
X145682114Y-78904483D01*
X145621739Y-78878357D01*
X145588735Y-78880990D01*
X145535992Y-78877797D01*
X145459431Y-78849245D01*
X145426573Y-78832229D01*
X145365833Y-78800955D01*
X145330795Y-78788256D01*
X145327221Y-78792614D01*
X145357803Y-78818650D01*
X145415892Y-78854078D01*
X145437472Y-78865506D01*
X145527747Y-78920873D01*
X145577245Y-78972538D01*
X145581927Y-79016154D01*
X145580261Y-79019138D01*
X145554695Y-79022103D01*
X145513776Y-78983472D01*
X145512731Y-78982151D01*
X145464940Y-78937495D01*
X145420167Y-78919392D01*
X145419506Y-78919410D01*
X145398650Y-78924974D01*
X145425015Y-78940343D01*
X145432389Y-78943377D01*
X145499734Y-78995878D01*
X145536749Y-79078926D01*
X145540983Y-79125680D01*
X145538734Y-79164052D01*
X145528580Y-79161199D01*
X145503470Y-79117318D01*
X145453435Y-79062946D01*
X145365178Y-79005289D01*
X145312003Y-78978592D01*
X145205029Y-78923530D01*
X145181633Y-78905100D01*
X145338800Y-78905100D01*
X145351500Y-78917800D01*
X145364200Y-78905100D01*
X145351500Y-78892400D01*
X145338800Y-78905100D01*
X145181633Y-78905100D01*
X145144255Y-78875656D01*
X145126706Y-78829419D01*
X145149405Y-78779264D01*
X145184908Y-78741392D01*
X145233457Y-78688258D01*
X145260059Y-78643971D01*
X145261827Y-78634559D01*
X145252083Y-78623997D01*
X145232679Y-78649192D01*
X145192632Y-78701400D01*
X145142216Y-78751489D01*
X145095968Y-78811743D01*
X145081180Y-78867697D01*
X145086924Y-78942999D01*
X145099899Y-79034230D01*
X145116799Y-79123163D01*
X145134316Y-79191573D01*
X145144445Y-79216362D01*
X145145128Y-79243570D01*
X145126128Y-79248000D01*
X145079380Y-79225211D01*
X145031996Y-79165765D01*
X144992104Y-79083045D01*
X144967834Y-78990431D01*
X144967274Y-78986499D01*
X144961624Y-78908178D01*
X144975116Y-78857242D01*
X145005563Y-78819236D01*
X145044286Y-78771663D01*
X145059400Y-78736574D01*
X145046340Y-78734225D01*
X145014175Y-78765530D01*
X145006756Y-78774674D01*
X144948869Y-78825459D01*
X144889459Y-78842198D01*
X144848413Y-78825346D01*
X144853304Y-78798024D01*
X144883764Y-78746268D01*
X144909917Y-78710916D01*
X144953267Y-78646797D01*
X144995608Y-78568926D01*
X145031896Y-78489294D01*
X145054530Y-78426934D01*
X145253928Y-78426934D01*
X145278683Y-78468410D01*
X145280464Y-78470812D01*
X145319193Y-78515232D01*
X145334982Y-78519888D01*
X145322589Y-78486197D01*
X145309050Y-78463073D01*
X145276212Y-78422263D01*
X145255304Y-78409800D01*
X145253928Y-78426934D01*
X145054530Y-78426934D01*
X145057087Y-78419890D01*
X145063959Y-78384054D01*
X145132456Y-78384054D01*
X145134496Y-78384400D01*
X145163290Y-78366615D01*
X145208261Y-78322242D01*
X145223286Y-78305010D01*
X145239171Y-78282800D01*
X145316529Y-78282800D01*
X145319351Y-78341386D01*
X145329248Y-78400958D01*
X145342358Y-78443992D01*
X145354211Y-78453654D01*
X145355146Y-78425692D01*
X145347145Y-78365381D01*
X145341068Y-78331997D01*
X145327774Y-78276827D01*
X145318941Y-78265733D01*
X145316529Y-78282800D01*
X145239171Y-78282800D01*
X145261046Y-78252216D01*
X145275039Y-78215763D01*
X145272866Y-78209760D01*
X145251288Y-78214598D01*
X145242670Y-78230556D01*
X145216268Y-78273692D01*
X145171102Y-78325806D01*
X145137579Y-78365012D01*
X145132456Y-78384054D01*
X145063959Y-78384054D01*
X145066137Y-78372703D01*
X145057975Y-78359000D01*
X145057042Y-78340662D01*
X145080500Y-78294259D01*
X145098265Y-78266555D01*
X145129423Y-78214393D01*
X145148267Y-78160840D01*
X145157760Y-78090963D01*
X145160869Y-77989827D01*
X145161000Y-77950554D01*
X145158135Y-77844267D01*
X145150372Y-77762367D01*
X145138957Y-77716166D01*
X145134581Y-77710670D01*
X145118876Y-77716414D01*
X145124248Y-77758430D01*
X145140333Y-77822518D01*
X145010694Y-77773259D01*
X144928005Y-77745264D01*
X144857974Y-77727419D01*
X144830527Y-77724000D01*
X144788651Y-77711767D01*
X144787643Y-77707502D01*
X145037867Y-77707502D01*
X145052682Y-77723935D01*
X145054565Y-77724000D01*
X145083915Y-77703648D01*
X145094799Y-77683777D01*
X145095488Y-77654001D01*
X145080054Y-77653615D01*
X145049592Y-77676882D01*
X145037867Y-77707502D01*
X144787643Y-77707502D01*
X144782658Y-77686416D01*
X144783394Y-77685900D01*
X144983200Y-77685900D01*
X144995900Y-77698600D01*
X145008600Y-77685900D01*
X144995900Y-77673200D01*
X144983200Y-77685900D01*
X144783394Y-77685900D01*
X144809530Y-77667589D01*
X144832318Y-77644123D01*
X144847494Y-77605611D01*
X144847458Y-77575825D01*
X144840224Y-77571599D01*
X144814023Y-77585084D01*
X144765506Y-77617957D01*
X144759921Y-77622022D01*
X144723798Y-77644729D01*
X144683259Y-77658213D01*
X144626530Y-77663686D01*
X144541839Y-77662363D01*
X144428670Y-77656158D01*
X144304426Y-77647003D01*
X144217332Y-77635652D01*
X144153746Y-77618846D01*
X144100030Y-77593323D01*
X144060370Y-77568098D01*
X143990405Y-77526069D01*
X143931678Y-77499995D01*
X143911816Y-77495862D01*
X143873852Y-77473646D01*
X143858125Y-77438250D01*
X143851900Y-77429827D01*
X143846599Y-77464598D01*
X143843659Y-77526256D01*
X143837754Y-77615432D01*
X143822636Y-77667520D01*
X143794176Y-77695977D01*
X143791069Y-77697706D01*
X143748751Y-77718571D01*
X143733919Y-77723801D01*
X143728540Y-77700798D01*
X143723484Y-77642097D01*
X143721154Y-77594172D01*
X143714662Y-77502967D01*
X143700940Y-77455607D01*
X143675928Y-77445239D01*
X143642131Y-77460781D01*
X143608206Y-77510699D01*
X143587788Y-77609336D01*
X143586200Y-77624983D01*
X143573500Y-77762100D01*
X143529050Y-77699298D01*
X143494282Y-77642975D01*
X143489888Y-77599782D01*
X143516659Y-77547768D01*
X143535487Y-77520676D01*
X143566175Y-77461976D01*
X143572844Y-77414585D01*
X143571856Y-77411375D01*
X143573319Y-77369336D01*
X143584468Y-77356770D01*
X143610191Y-77324941D01*
X143611600Y-77316668D01*
X143596270Y-77321348D01*
X143556201Y-77356399D01*
X143503650Y-77410433D01*
X143439318Y-77487122D01*
X143405850Y-77549325D01*
X143394472Y-77614328D01*
X143394113Y-77626289D01*
X143384315Y-77699842D01*
X143349704Y-77756671D01*
X143305213Y-77798246D01*
X143250966Y-77840075D01*
X143214650Y-77861296D01*
X143207776Y-77861682D01*
X143214923Y-77837183D01*
X143244458Y-77785778D01*
X143266961Y-77751908D01*
X143314178Y-77664929D01*
X143325517Y-77595841D01*
X143324994Y-77592698D01*
X143316629Y-77554365D01*
X143312549Y-77563619D01*
X143310259Y-77600239D01*
X143293796Y-77663005D01*
X143268699Y-77698600D01*
X143243189Y-77712759D01*
X143232470Y-77691685D01*
X143230600Y-77643290D01*
X143239017Y-77575045D01*
X143259442Y-77527641D01*
X143261080Y-77525880D01*
X143275768Y-77500019D01*
X143265079Y-77495400D01*
X143238170Y-77516036D01*
X143202586Y-77567733D01*
X143190149Y-77590650D01*
X143158363Y-77652435D01*
X143137179Y-77692317D01*
X143133968Y-77697864D01*
X143116658Y-77690654D01*
X143103608Y-77673213D01*
X143100498Y-77620194D01*
X143130389Y-77556651D01*
X143162733Y-77498419D01*
X143178645Y-77458151D01*
X143179007Y-77454301D01*
X143169496Y-77448882D01*
X143147045Y-77478181D01*
X143117923Y-77529890D01*
X143088401Y-77591699D01*
X143064747Y-77651300D01*
X143053230Y-77696383D01*
X143052930Y-77701839D01*
X143039160Y-77764374D01*
X143014843Y-77800080D01*
X142981689Y-77815381D01*
X142947353Y-77794475D01*
X142926788Y-77771441D01*
X142889072Y-77717559D01*
X142881762Y-77671909D01*
X142907756Y-77621382D01*
X142969955Y-77552868D01*
X142976600Y-77546199D01*
X143038322Y-77480886D01*
X143070877Y-77439576D01*
X143073479Y-77426085D01*
X143045342Y-77444228D01*
X142986782Y-77496767D01*
X142919126Y-77575655D01*
X142857048Y-77670575D01*
X142838946Y-77705643D01*
X142805353Y-77775082D01*
X142783130Y-77805026D01*
X142762578Y-77802209D01*
X142736853Y-77776517D01*
X142703710Y-77710370D01*
X142719815Y-77642823D01*
X142783841Y-77577248D01*
X142825733Y-77550522D01*
X142884202Y-77513717D01*
X142915881Y-77486392D01*
X142917705Y-77478838D01*
X142886177Y-77479214D01*
X142834309Y-77507303D01*
X142775224Y-77552597D01*
X142722047Y-77604590D01*
X142687901Y-77652773D01*
X142682858Y-77666865D01*
X142667672Y-77731133D01*
X142656856Y-77770845D01*
X142667150Y-77808150D01*
X142705892Y-77859695D01*
X142722533Y-77876337D01*
X142773443Y-77933780D01*
X142790339Y-77988687D01*
X142787869Y-78032692D01*
X142779704Y-78101297D01*
X142775175Y-78150057D01*
X142775114Y-78151179D01*
X142758967Y-78163799D01*
X142711627Y-78140786D01*
X142690849Y-78126771D01*
X142642489Y-78094703D01*
X142630064Y-78092829D01*
X142646400Y-78116472D01*
X142670917Y-78150657D01*
X142661806Y-78156351D01*
X142646400Y-78152067D01*
X142613498Y-78124101D01*
X142570801Y-78065584D01*
X142544800Y-78021010D01*
X142493296Y-77938918D01*
X142452059Y-77905948D01*
X142420127Y-77921679D01*
X142403555Y-77958950D01*
X142373571Y-78012480D01*
X142321323Y-78073701D01*
X142306593Y-78087689D01*
X142266365Y-78126703D01*
X142255465Y-78143368D01*
X142262345Y-78141304D01*
X142287547Y-78139024D01*
X142285786Y-78158614D01*
X142251639Y-78194089D01*
X142192844Y-78198990D01*
X142124396Y-78174504D01*
X142080700Y-78142344D01*
X142034955Y-78091152D01*
X142030185Y-78052633D01*
X142069150Y-78016188D01*
X142120960Y-77987720D01*
X142177823Y-77951981D01*
X142245578Y-77899643D01*
X142311929Y-77841616D01*
X142364580Y-77788806D01*
X142391236Y-77752120D01*
X142392400Y-77746920D01*
X142370895Y-77741706D01*
X142317289Y-77750268D01*
X142297150Y-77755373D01*
X142216201Y-77771100D01*
X142113506Y-77782817D01*
X142053314Y-77786393D01*
X141963590Y-77786104D01*
X141910441Y-77775530D01*
X141880135Y-77751471D01*
X141875754Y-77744994D01*
X141866489Y-77736700D01*
X141909800Y-77736700D01*
X141922500Y-77749400D01*
X141935200Y-77736700D01*
X141922500Y-77724000D01*
X141909800Y-77736700D01*
X141866489Y-77736700D01*
X141833396Y-77707076D01*
X141802887Y-77698599D01*
X141771420Y-77684223D01*
X141773614Y-77660499D01*
X141803942Y-77626772D01*
X141820655Y-77622399D01*
X141852545Y-77601145D01*
X141866359Y-77571600D01*
X141897911Y-77530460D01*
X141953573Y-77525838D01*
X142021206Y-77558658D01*
X142022604Y-77559707D01*
X142084031Y-77586173D01*
X142149604Y-77594053D01*
X142191909Y-77589769D01*
X142185154Y-77582419D01*
X142176500Y-77580364D01*
X142109127Y-77566024D01*
X142065812Y-77556740D01*
X142022063Y-77536293D01*
X142016084Y-77491812D01*
X142017840Y-77481529D01*
X142016620Y-77431319D01*
X141993678Y-77419200D01*
X141968816Y-77407928D01*
X141970729Y-77397958D01*
X142002021Y-77384085D01*
X142065135Y-77374364D01*
X142094453Y-77372534D01*
X142174802Y-77376449D01*
X142232561Y-77402809D01*
X142278076Y-77444575D01*
X142334033Y-77492807D01*
X142383545Y-77519144D01*
X142394019Y-77520800D01*
X142425819Y-77502948D01*
X142484116Y-77453876D01*
X142561623Y-77380301D01*
X142651059Y-77288945D01*
X142687717Y-77249821D01*
X142938500Y-76978843D01*
X142842276Y-76994382D01*
X142756175Y-77022359D01*
X142675218Y-77069725D01*
X142668877Y-77074861D01*
X142611416Y-77110281D01*
X142545265Y-77133762D01*
X142485864Y-77142226D01*
X142448656Y-77132590D01*
X142443200Y-77119876D01*
X142464028Y-77093278D01*
X142515977Y-77056613D01*
X142583239Y-77019274D01*
X142650008Y-76990651D01*
X142671800Y-76984055D01*
X142735300Y-76968010D01*
X142668875Y-76965005D01*
X142602686Y-76978475D01*
X142534897Y-77015152D01*
X142533261Y-77016424D01*
X142483301Y-77050909D01*
X142443219Y-77055951D01*
X142386892Y-77034032D01*
X142380394Y-77030946D01*
X142305811Y-76987253D01*
X142226891Y-76929505D01*
X142215231Y-76919666D01*
X142375466Y-76919666D01*
X142378953Y-76934766D01*
X142392400Y-76936600D01*
X142413307Y-76927306D01*
X142409333Y-76919666D01*
X142379189Y-76916626D01*
X142375466Y-76919666D01*
X142215231Y-76919666D01*
X142211208Y-76916272D01*
X142133772Y-76854336D01*
X142052221Y-76797273D01*
X142051624Y-76796900D01*
X142201900Y-76796900D01*
X142250286Y-76854050D01*
X142293100Y-76895248D01*
X142324370Y-76911200D01*
X142341437Y-76906483D01*
X142339483Y-76904579D01*
X142314165Y-76885684D01*
X142267514Y-76849111D01*
X142265400Y-76847429D01*
X142201900Y-76796900D01*
X142051624Y-76796900D01*
X142038226Y-76788543D01*
X141985768Y-76751884D01*
X141976335Y-76729466D01*
X141989395Y-76720755D01*
X142039966Y-76718526D01*
X142099442Y-76733073D01*
X142153486Y-76748749D01*
X142182813Y-76748253D01*
X142209466Y-76753045D01*
X142262368Y-76779237D01*
X142287240Y-76794093D01*
X142420157Y-76864596D01*
X142528687Y-76893781D01*
X142614800Y-76883328D01*
X142682899Y-76857437D01*
X142556699Y-76783151D01*
X142481427Y-76742346D01*
X142419930Y-76715180D01*
X142393669Y-76708433D01*
X142370994Y-76700365D01*
X142386195Y-76678644D01*
X142417030Y-76666136D01*
X142471825Y-76674404D01*
X142558635Y-76704044D01*
X142661075Y-76740116D01*
X142734978Y-76755364D01*
X142797611Y-76750930D01*
X142866241Y-76727959D01*
X142873616Y-76724889D01*
X142954266Y-76690979D01*
X142832083Y-76650256D01*
X142709900Y-76609534D01*
X142801724Y-76607967D01*
X142886262Y-76591886D01*
X142958130Y-76555600D01*
X143016803Y-76519630D01*
X143066508Y-76504800D01*
X143108871Y-76493504D01*
X143168841Y-76466041D01*
X143228869Y-76432044D01*
X143271412Y-76401148D01*
X143281399Y-76386803D01*
X143261811Y-76390524D01*
X143212216Y-76414010D01*
X143182166Y-76430322D01*
X143097954Y-76467246D01*
X143028053Y-76470720D01*
X143010716Y-76466915D01*
X142969387Y-76450655D01*
X142967115Y-76437225D01*
X142968692Y-76436570D01*
X142977884Y-76412440D01*
X142945062Y-76363502D01*
X142895758Y-76314262D01*
X142865146Y-76308058D01*
X142844722Y-76345016D01*
X142839169Y-76365099D01*
X142820257Y-76412628D01*
X142802608Y-76428600D01*
X142773016Y-76405230D01*
X142743893Y-76342899D01*
X142719888Y-76253271D01*
X142710749Y-76198079D01*
X142697616Y-76125968D01*
X142678168Y-76092034D01*
X142644575Y-76083678D01*
X142639708Y-76083779D01*
X142606763Y-76079764D01*
X142590207Y-76056430D01*
X142584591Y-76001284D01*
X142584184Y-75956471D01*
X142583352Y-75881839D01*
X142577660Y-75850458D01*
X142562733Y-75854778D01*
X142540029Y-75880271D01*
X142512294Y-75910619D01*
X142499359Y-75908180D01*
X142495352Y-75865814D01*
X142494845Y-75825350D01*
X142489654Y-75759402D01*
X142477602Y-75721212D01*
X142471710Y-75717400D01*
X142431116Y-75739103D01*
X142407848Y-75790298D01*
X142409160Y-75839507D01*
X142405463Y-75906760D01*
X142365646Y-75956139D01*
X142313887Y-75971399D01*
X142279918Y-75984784D01*
X142281614Y-76009499D01*
X142281767Y-76042187D01*
X142270835Y-76047599D01*
X142240945Y-76027235D01*
X142230017Y-76007422D01*
X142218126Y-75951795D01*
X142214804Y-75882556D01*
X142219301Y-75817740D01*
X142230862Y-75775386D01*
X142240000Y-75768200D01*
X142263563Y-75748121D01*
X142265399Y-75736209D01*
X142284871Y-75699371D01*
X142318673Y-75670949D01*
X142353330Y-75640677D01*
X142356353Y-75622086D01*
X142322945Y-75613514D01*
X142257170Y-75609878D01*
X142177183Y-75610782D01*
X142101136Y-75615826D01*
X142047182Y-75624612D01*
X142035792Y-75629122D01*
X142003772Y-75622705D01*
X141950048Y-75588688D01*
X141910674Y-75556111D01*
X141811863Y-75466842D01*
X141872638Y-75427021D01*
X141950916Y-75393274D01*
X142036725Y-75395360D01*
X142141679Y-75434193D01*
X142174060Y-75450700D01*
X142274610Y-75497700D01*
X142339128Y-75512932D01*
X142366202Y-75496116D01*
X142367000Y-75488800D01*
X142350363Y-75464112D01*
X142345256Y-75463400D01*
X142318337Y-75443955D01*
X142274128Y-75394223D01*
X142222085Y-75327111D01*
X142171660Y-75255521D01*
X142132307Y-75192360D01*
X142113479Y-75150531D01*
X142112999Y-75146352D01*
X142129601Y-75103102D01*
X142139433Y-75094461D01*
X142154474Y-75060218D01*
X142150421Y-75029462D01*
X142152496Y-74990865D01*
X142179244Y-74980332D01*
X142211890Y-74999601D01*
G36*
X143454353Y-79794661D02*
X143459200Y-79806800D01*
X143440969Y-79831472D01*
X143435299Y-79832200D01*
X143400898Y-79813736D01*
X143395700Y-79806800D01*
X143401458Y-79785055D01*
X143419600Y-79781400D01*
X143454353Y-79794661D01*
X143454353Y-79794661D01*
G37*
X143454353Y-79794661D02*
X143459200Y-79806800D01*
X143440969Y-79831472D01*
X143435299Y-79832200D01*
X143400898Y-79813736D01*
X143395700Y-79806800D01*
X143401458Y-79785055D01*
X143419600Y-79781400D01*
X143454353Y-79794661D01*
G36*
X144772788Y-77745475D02*
X144894101Y-77765203D01*
X145010473Y-77798468D01*
X145084385Y-77827659D01*
X145123521Y-77856814D01*
X145135570Y-77889968D01*
X145135600Y-77892011D01*
X145123268Y-77918193D01*
X145078726Y-77918454D01*
X145063322Y-77915361D01*
X144993100Y-77912631D01*
X144891327Y-77923815D01*
X144774270Y-77945675D01*
X144658192Y-77974972D01*
X144559360Y-78008465D01*
X144529655Y-78021645D01*
X144449810Y-78082552D01*
X144385983Y-78170315D01*
X144351807Y-78264699D01*
X144349420Y-78289150D01*
X144367272Y-78341615D01*
X144411167Y-78395364D01*
X144462881Y-78430628D01*
X144484047Y-78435200D01*
X144513504Y-78413749D01*
X144548599Y-78359480D01*
X144563735Y-78327250D01*
X144609176Y-78219300D01*
X144635437Y-78330760D01*
X144649187Y-78402802D01*
X144644788Y-78444246D01*
X144619682Y-78472840D01*
X144614394Y-78476810D01*
X144531758Y-78508515D01*
X144442560Y-78498329D01*
X144388300Y-78467491D01*
X144373940Y-78459276D01*
X144390835Y-78482982D01*
X144424400Y-78521320D01*
X144493302Y-78586392D01*
X144565447Y-78638682D01*
X144593710Y-78653575D01*
X144662752Y-78708373D01*
X144698050Y-78790597D01*
X144693340Y-78884947D01*
X144691281Y-78891829D01*
X144655560Y-78932177D01*
X144594943Y-78942270D01*
X144527355Y-78919183D01*
X144526580Y-78918696D01*
X144478484Y-78913222D01*
X144443874Y-78935862D01*
X144407275Y-78963314D01*
X144392494Y-78966327D01*
X144318743Y-78829480D01*
X144277023Y-78719665D01*
X144269949Y-78689565D01*
X144252441Y-78600300D01*
X144249520Y-78684167D01*
X144260651Y-78760088D01*
X144291950Y-78845066D01*
X144303088Y-78866186D01*
X144359577Y-78964338D01*
X144291313Y-79112519D01*
X144254127Y-79198433D01*
X144226384Y-79272153D01*
X144215426Y-79311500D01*
X144199365Y-79352659D01*
X144175745Y-79349977D01*
X144152329Y-79308045D01*
X144141993Y-79268049D01*
X144130905Y-79220860D01*
X144123628Y-79211237D01*
X144122943Y-79214864D01*
X144099751Y-79246441D01*
X144049981Y-79278595D01*
X143987709Y-79326480D01*
X143945481Y-79384739D01*
X143914192Y-79428082D01*
X143888105Y-79424111D01*
X143870894Y-79376286D01*
X143865988Y-79309827D01*
X143873660Y-79255954D01*
X143905315Y-79215130D01*
X143970054Y-79173247D01*
X144039256Y-79139113D01*
X144078548Y-79133689D01*
X144094095Y-79146230D01*
X144109279Y-79146846D01*
X144122104Y-79102066D01*
X144125229Y-79079610D01*
X144138288Y-79001865D01*
X144155278Y-78939248D01*
X144157905Y-78932683D01*
X144166809Y-78899008D01*
X144150300Y-78901824D01*
X144126037Y-78937282D01*
X144106736Y-78998740D01*
X144106115Y-79001949D01*
X144085704Y-79059569D01*
X144041358Y-79105306D01*
X143971881Y-79147108D01*
X143896577Y-79195785D01*
X143851444Y-79243268D01*
X143844368Y-79260700D01*
X143818239Y-79315239D01*
X143783153Y-79352699D01*
X143748256Y-79400798D01*
X143751882Y-79446981D01*
X143790389Y-79474482D01*
X143810066Y-79476600D01*
X143866143Y-79496743D01*
X143916827Y-79543952D01*
X143941547Y-79598394D01*
X143941800Y-79603600D01*
X143926440Y-79647424D01*
X143897350Y-79690062D01*
X143868033Y-79725658D01*
X143871922Y-79727170D01*
X143897350Y-79708002D01*
X143931336Y-79686916D01*
X143941477Y-79702444D01*
X143941800Y-79713290D01*
X143933508Y-79750491D01*
X143901150Y-79764851D01*
X143833500Y-79760272D01*
X143814800Y-79757435D01*
X143748529Y-79737548D01*
X143712058Y-79694374D01*
X143711343Y-79692500D01*
X143738600Y-79692500D01*
X143751300Y-79705200D01*
X143764000Y-79692500D01*
X143751300Y-79679800D01*
X143738600Y-79692500D01*
X143711343Y-79692500D01*
X143699211Y-79660731D01*
X143668814Y-79586805D01*
X143637976Y-79543539D01*
X143612878Y-79537744D01*
X143603198Y-79554902D01*
X143575621Y-79649823D01*
X143553287Y-79706389D01*
X143528091Y-79735257D01*
X143491932Y-79747088D01*
X143454048Y-79751084D01*
X143371045Y-79744012D01*
X143328843Y-79707965D01*
X143328878Y-79702028D01*
X143516599Y-79702028D01*
X143535206Y-79689855D01*
X143538551Y-79686573D01*
X143558614Y-79653270D01*
X143555894Y-79641027D01*
X143537000Y-79648650D01*
X143524333Y-79672354D01*
X143516599Y-79702028D01*
X143328878Y-79702028D01*
X143329208Y-79646478D01*
X143365848Y-79574567D01*
X143423775Y-79489300D01*
X143283052Y-79560388D01*
X143175161Y-79605812D01*
X143097395Y-79618709D01*
X143082736Y-79616520D01*
X143041558Y-79612045D01*
X143041664Y-79631521D01*
X143042138Y-79632298D01*
X143044685Y-79652165D01*
X143016789Y-79646016D01*
X142974354Y-79631636D01*
X142961822Y-79629000D01*
X142952477Y-79608172D01*
X142951200Y-79589400D01*
X142941204Y-79561476D01*
X142930937Y-79562325D01*
X142894297Y-79561931D01*
X142876308Y-79553608D01*
X142865939Y-79532581D01*
X142892785Y-79499399D01*
X142905913Y-79489300D01*
X142925800Y-79489300D01*
X142938500Y-79502000D01*
X142951200Y-79489300D01*
X142938500Y-79476600D01*
X142925800Y-79489300D01*
X142905913Y-79489300D01*
X142943959Y-79460034D01*
X142998054Y-79418248D01*
X143144859Y-79418248D01*
X143179800Y-79421789D01*
X143215858Y-79417797D01*
X143211550Y-79408978D01*
X143159547Y-79405623D01*
X143148050Y-79408978D01*
X143144859Y-79418248D01*
X142998054Y-79418248D01*
X143005141Y-79412774D01*
X143023034Y-79387700D01*
X143078200Y-79387700D01*
X143090900Y-79400400D01*
X143103600Y-79387700D01*
X143090900Y-79375000D01*
X143078200Y-79387700D01*
X143023034Y-79387700D01*
X143032880Y-79373903D01*
X143036964Y-79325135D01*
X143033405Y-79292912D01*
X143036402Y-79215544D01*
X143068398Y-79178335D01*
X143125499Y-79184031D01*
X143160946Y-79202983D01*
X143219853Y-79233508D01*
X143301359Y-79267219D01*
X143335611Y-79279433D01*
X143413365Y-79301979D01*
X143464857Y-79304261D01*
X143510126Y-79286917D01*
X143513411Y-79285080D01*
X143581609Y-79248835D01*
X143649700Y-79215357D01*
X143715994Y-79175196D01*
X143764000Y-79131963D01*
X143780970Y-79107109D01*
X143765248Y-79113725D01*
X143728824Y-79140728D01*
X143667508Y-79176051D01*
X143604557Y-79194970D01*
X143555383Y-79194905D01*
X143535400Y-79173279D01*
X143535400Y-79173092D01*
X143555889Y-79139993D01*
X143607159Y-79096174D01*
X143673912Y-79052303D01*
X143740851Y-79019048D01*
X143769647Y-79009727D01*
X143861131Y-78963647D01*
X143927191Y-78881089D01*
X143951853Y-78810383D01*
X143958212Y-78755286D01*
X143954772Y-78719989D01*
X143944560Y-78715454D01*
X143933164Y-78742714D01*
X143902679Y-78842540D01*
X143874528Y-78905120D01*
X143841423Y-78943089D01*
X143804980Y-78964956D01*
X143734303Y-78986084D01*
X143672221Y-78971910D01*
X143626154Y-78940487D01*
X143612311Y-78909991D01*
X143634997Y-78893052D01*
X143645108Y-78892400D01*
X143670482Y-78869952D01*
X143698255Y-78812314D01*
X143712484Y-78768026D01*
X143735790Y-78693481D01*
X143761862Y-78654124D01*
X143804143Y-78635481D01*
X143842237Y-78628320D01*
X143940582Y-78589929D01*
X143964552Y-78564374D01*
X144352699Y-78564374D01*
X144355246Y-78575227D01*
X144381307Y-78613000D01*
X144422599Y-78679613D01*
X144464653Y-78759813D01*
X144469909Y-78771035D01*
X144498386Y-78821883D01*
X144517742Y-78834995D01*
X144521562Y-78827927D01*
X144514331Y-78783358D01*
X144486031Y-78720226D01*
X144476805Y-78704497D01*
X144430805Y-78639174D01*
X144386239Y-78589465D01*
X144379941Y-78584105D01*
X144352699Y-78564374D01*
X143964552Y-78564374D01*
X144017070Y-78508385D01*
X144071215Y-78389781D01*
X144107692Y-78314574D01*
X144155987Y-78254495D01*
X144161561Y-78249824D01*
X144204366Y-78207496D01*
X144221200Y-78174567D01*
X144206939Y-78170389D01*
X144172321Y-78198730D01*
X144169410Y-78201810D01*
X144117877Y-78241555D01*
X144067892Y-78257593D01*
X144033166Y-78248846D01*
X144027412Y-78214235D01*
X144027782Y-78212950D01*
X144043225Y-78155728D01*
X144058804Y-78092300D01*
X144079949Y-78032207D01*
X144104460Y-77997438D01*
X144116137Y-77980637D01*
X144106818Y-77978388D01*
X144073874Y-77991949D01*
X144014400Y-78027521D01*
X143956297Y-78066900D01*
X143871334Y-78123643D01*
X143814255Y-78149831D01*
X143774367Y-78147958D01*
X143740976Y-78120520D01*
X143738600Y-78117700D01*
X143720303Y-78087484D01*
X143741403Y-78079612D01*
X143743437Y-78079600D01*
X143783284Y-78062447D01*
X143836479Y-78019901D01*
X143849834Y-78006599D01*
X143919772Y-77933599D01*
X143857563Y-77945491D01*
X143797676Y-77950521D01*
X143779448Y-77937569D01*
X143799201Y-77911572D01*
X143853255Y-77877462D01*
X143935360Y-77841148D01*
X144077878Y-77798964D01*
X144248267Y-77767085D01*
X144431139Y-77746732D01*
X144611109Y-77739122D01*
X144772788Y-77745475D01*
X144772788Y-77745475D01*
G37*
X144772788Y-77745475D02*
X144894101Y-77765203D01*
X145010473Y-77798468D01*
X145084385Y-77827659D01*
X145123521Y-77856814D01*
X145135570Y-77889968D01*
X145135600Y-77892011D01*
X145123268Y-77918193D01*
X145078726Y-77918454D01*
X145063322Y-77915361D01*
X144993100Y-77912631D01*
X144891327Y-77923815D01*
X144774270Y-77945675D01*
X144658192Y-77974972D01*
X144559360Y-78008465D01*
X144529655Y-78021645D01*
X144449810Y-78082552D01*
X144385983Y-78170315D01*
X144351807Y-78264699D01*
X144349420Y-78289150D01*
X144367272Y-78341615D01*
X144411167Y-78395364D01*
X144462881Y-78430628D01*
X144484047Y-78435200D01*
X144513504Y-78413749D01*
X144548599Y-78359480D01*
X144563735Y-78327250D01*
X144609176Y-78219300D01*
X144635437Y-78330760D01*
X144649187Y-78402802D01*
X144644788Y-78444246D01*
X144619682Y-78472840D01*
X144614394Y-78476810D01*
X144531758Y-78508515D01*
X144442560Y-78498329D01*
X144388300Y-78467491D01*
X144373940Y-78459276D01*
X144390835Y-78482982D01*
X144424400Y-78521320D01*
X144493302Y-78586392D01*
X144565447Y-78638682D01*
X144593710Y-78653575D01*
X144662752Y-78708373D01*
X144698050Y-78790597D01*
X144693340Y-78884947D01*
X144691281Y-78891829D01*
X144655560Y-78932177D01*
X144594943Y-78942270D01*
X144527355Y-78919183D01*
X144526580Y-78918696D01*
X144478484Y-78913222D01*
X144443874Y-78935862D01*
X144407275Y-78963314D01*
X144392494Y-78966327D01*
X144318743Y-78829480D01*
X144277023Y-78719665D01*
X144269949Y-78689565D01*
X144252441Y-78600300D01*
X144249520Y-78684167D01*
X144260651Y-78760088D01*
X144291950Y-78845066D01*
X144303088Y-78866186D01*
X144359577Y-78964338D01*
X144291313Y-79112519D01*
X144254127Y-79198433D01*
X144226384Y-79272153D01*
X144215426Y-79311500D01*
X144199365Y-79352659D01*
X144175745Y-79349977D01*
X144152329Y-79308045D01*
X144141993Y-79268049D01*
X144130905Y-79220860D01*
X144123628Y-79211237D01*
X144122943Y-79214864D01*
X144099751Y-79246441D01*
X144049981Y-79278595D01*
X143987709Y-79326480D01*
X143945481Y-79384739D01*
X143914192Y-79428082D01*
X143888105Y-79424111D01*
X143870894Y-79376286D01*
X143865988Y-79309827D01*
X143873660Y-79255954D01*
X143905315Y-79215130D01*
X143970054Y-79173247D01*
X144039256Y-79139113D01*
X144078548Y-79133689D01*
X144094095Y-79146230D01*
X144109279Y-79146846D01*
X144122104Y-79102066D01*
X144125229Y-79079610D01*
X144138288Y-79001865D01*
X144155278Y-78939248D01*
X144157905Y-78932683D01*
X144166809Y-78899008D01*
X144150300Y-78901824D01*
X144126037Y-78937282D01*
X144106736Y-78998740D01*
X144106115Y-79001949D01*
X144085704Y-79059569D01*
X144041358Y-79105306D01*
X143971881Y-79147108D01*
X143896577Y-79195785D01*
X143851444Y-79243268D01*
X143844368Y-79260700D01*
X143818239Y-79315239D01*
X143783153Y-79352699D01*
X143748256Y-79400798D01*
X143751882Y-79446981D01*
X143790389Y-79474482D01*
X143810066Y-79476600D01*
X143866143Y-79496743D01*
X143916827Y-79543952D01*
X143941547Y-79598394D01*
X143941800Y-79603600D01*
X143926440Y-79647424D01*
X143897350Y-79690062D01*
X143868033Y-79725658D01*
X143871922Y-79727170D01*
X143897350Y-79708002D01*
X143931336Y-79686916D01*
X143941477Y-79702444D01*
X143941800Y-79713290D01*
X143933508Y-79750491D01*
X143901150Y-79764851D01*
X143833500Y-79760272D01*
X143814800Y-79757435D01*
X143748529Y-79737548D01*
X143712058Y-79694374D01*
X143711343Y-79692500D01*
X143738600Y-79692500D01*
X143751300Y-79705200D01*
X143764000Y-79692500D01*
X143751300Y-79679800D01*
X143738600Y-79692500D01*
X143711343Y-79692500D01*
X143699211Y-79660731D01*
X143668814Y-79586805D01*
X143637976Y-79543539D01*
X143612878Y-79537744D01*
X143603198Y-79554902D01*
X143575621Y-79649823D01*
X143553287Y-79706389D01*
X143528091Y-79735257D01*
X143491932Y-79747088D01*
X143454048Y-79751084D01*
X143371045Y-79744012D01*
X143328843Y-79707965D01*
X143328878Y-79702028D01*
X143516599Y-79702028D01*
X143535206Y-79689855D01*
X143538551Y-79686573D01*
X143558614Y-79653270D01*
X143555894Y-79641027D01*
X143537000Y-79648650D01*
X143524333Y-79672354D01*
X143516599Y-79702028D01*
X143328878Y-79702028D01*
X143329208Y-79646478D01*
X143365848Y-79574567D01*
X143423775Y-79489300D01*
X143283052Y-79560388D01*
X143175161Y-79605812D01*
X143097395Y-79618709D01*
X143082736Y-79616520D01*
X143041558Y-79612045D01*
X143041664Y-79631521D01*
X143042138Y-79632298D01*
X143044685Y-79652165D01*
X143016789Y-79646016D01*
X142974354Y-79631636D01*
X142961822Y-79629000D01*
X142952477Y-79608172D01*
X142951200Y-79589400D01*
X142941204Y-79561476D01*
X142930937Y-79562325D01*
X142894297Y-79561931D01*
X142876308Y-79553608D01*
X142865939Y-79532581D01*
X142892785Y-79499399D01*
X142905913Y-79489300D01*
X142925800Y-79489300D01*
X142938500Y-79502000D01*
X142951200Y-79489300D01*
X142938500Y-79476600D01*
X142925800Y-79489300D01*
X142905913Y-79489300D01*
X142943959Y-79460034D01*
X142998054Y-79418248D01*
X143144859Y-79418248D01*
X143179800Y-79421789D01*
X143215858Y-79417797D01*
X143211550Y-79408978D01*
X143159547Y-79405623D01*
X143148050Y-79408978D01*
X143144859Y-79418248D01*
X142998054Y-79418248D01*
X143005141Y-79412774D01*
X143023034Y-79387700D01*
X143078200Y-79387700D01*
X143090900Y-79400400D01*
X143103600Y-79387700D01*
X143090900Y-79375000D01*
X143078200Y-79387700D01*
X143023034Y-79387700D01*
X143032880Y-79373903D01*
X143036964Y-79325135D01*
X143033405Y-79292912D01*
X143036402Y-79215544D01*
X143068398Y-79178335D01*
X143125499Y-79184031D01*
X143160946Y-79202983D01*
X143219853Y-79233508D01*
X143301359Y-79267219D01*
X143335611Y-79279433D01*
X143413365Y-79301979D01*
X143464857Y-79304261D01*
X143510126Y-79286917D01*
X143513411Y-79285080D01*
X143581609Y-79248835D01*
X143649700Y-79215357D01*
X143715994Y-79175196D01*
X143764000Y-79131963D01*
X143780970Y-79107109D01*
X143765248Y-79113725D01*
X143728824Y-79140728D01*
X143667508Y-79176051D01*
X143604557Y-79194970D01*
X143555383Y-79194905D01*
X143535400Y-79173279D01*
X143535400Y-79173092D01*
X143555889Y-79139993D01*
X143607159Y-79096174D01*
X143673912Y-79052303D01*
X143740851Y-79019048D01*
X143769647Y-79009727D01*
X143861131Y-78963647D01*
X143927191Y-78881089D01*
X143951853Y-78810383D01*
X143958212Y-78755286D01*
X143954772Y-78719989D01*
X143944560Y-78715454D01*
X143933164Y-78742714D01*
X143902679Y-78842540D01*
X143874528Y-78905120D01*
X143841423Y-78943089D01*
X143804980Y-78964956D01*
X143734303Y-78986084D01*
X143672221Y-78971910D01*
X143626154Y-78940487D01*
X143612311Y-78909991D01*
X143634997Y-78893052D01*
X143645108Y-78892400D01*
X143670482Y-78869952D01*
X143698255Y-78812314D01*
X143712484Y-78768026D01*
X143735790Y-78693481D01*
X143761862Y-78654124D01*
X143804143Y-78635481D01*
X143842237Y-78628320D01*
X143940582Y-78589929D01*
X143964552Y-78564374D01*
X144352699Y-78564374D01*
X144355246Y-78575227D01*
X144381307Y-78613000D01*
X144422599Y-78679613D01*
X144464653Y-78759813D01*
X144469909Y-78771035D01*
X144498386Y-78821883D01*
X144517742Y-78834995D01*
X144521562Y-78827927D01*
X144514331Y-78783358D01*
X144486031Y-78720226D01*
X144476805Y-78704497D01*
X144430805Y-78639174D01*
X144386239Y-78589465D01*
X144379941Y-78584105D01*
X144352699Y-78564374D01*
X143964552Y-78564374D01*
X144017070Y-78508385D01*
X144071215Y-78389781D01*
X144107692Y-78314574D01*
X144155987Y-78254495D01*
X144161561Y-78249824D01*
X144204366Y-78207496D01*
X144221200Y-78174567D01*
X144206939Y-78170389D01*
X144172321Y-78198730D01*
X144169410Y-78201810D01*
X144117877Y-78241555D01*
X144067892Y-78257593D01*
X144033166Y-78248846D01*
X144027412Y-78214235D01*
X144027782Y-78212950D01*
X144043225Y-78155728D01*
X144058804Y-78092300D01*
X144079949Y-78032207D01*
X144104460Y-77997438D01*
X144116137Y-77980637D01*
X144106818Y-77978388D01*
X144073874Y-77991949D01*
X144014400Y-78027521D01*
X143956297Y-78066900D01*
X143871334Y-78123643D01*
X143814255Y-78149831D01*
X143774367Y-78147958D01*
X143740976Y-78120520D01*
X143738600Y-78117700D01*
X143720303Y-78087484D01*
X143741403Y-78079612D01*
X143743437Y-78079600D01*
X143783284Y-78062447D01*
X143836479Y-78019901D01*
X143849834Y-78006599D01*
X143919772Y-77933599D01*
X143857563Y-77945491D01*
X143797676Y-77950521D01*
X143779448Y-77937569D01*
X143799201Y-77911572D01*
X143853255Y-77877462D01*
X143935360Y-77841148D01*
X144077878Y-77798964D01*
X144248267Y-77767085D01*
X144431139Y-77746732D01*
X144611109Y-77739122D01*
X144772788Y-77745475D01*
G36*
X145084696Y-79274043D02*
X145072157Y-79323674D01*
X145033708Y-79373648D01*
X144978566Y-79411743D01*
X144919700Y-79425800D01*
X144871965Y-79417105D01*
X144856200Y-79400400D01*
X144870308Y-79379599D01*
X144875250Y-79380032D01*
X144933817Y-79373295D01*
X144991311Y-79336041D01*
X145023950Y-79284582D01*
X145043025Y-79243410D01*
X145062109Y-79236974D01*
X145084696Y-79274043D01*
X145084696Y-79274043D01*
G37*
X145084696Y-79274043D02*
X145072157Y-79323674D01*
X145033708Y-79373648D01*
X144978566Y-79411743D01*
X144919700Y-79425800D01*
X144871965Y-79417105D01*
X144856200Y-79400400D01*
X144870308Y-79379599D01*
X144875250Y-79380032D01*
X144933817Y-79373295D01*
X144991311Y-79336041D01*
X145023950Y-79284582D01*
X145043025Y-79243410D01*
X145062109Y-79236974D01*
X145084696Y-79274043D01*
G36*
X143001315Y-79241973D02*
X143002000Y-79248000D01*
X142981325Y-79270291D01*
X142962400Y-79273400D01*
X142936110Y-79261086D01*
X142938500Y-79248000D01*
X142970972Y-79223568D01*
X142978099Y-79222600D01*
X143001315Y-79241973D01*
X143001315Y-79241973D01*
G37*
X143001315Y-79241973D02*
X143002000Y-79248000D01*
X142981325Y-79270291D01*
X142962400Y-79273400D01*
X142936110Y-79261086D01*
X142938500Y-79248000D01*
X142970972Y-79223568D01*
X142978099Y-79222600D01*
X143001315Y-79241973D01*
G36*
X143761373Y-77965513D02*
X143818809Y-77978275D01*
X143832665Y-77991571D01*
X143809555Y-78013748D01*
X143803274Y-78018382D01*
X143745220Y-78047168D01*
X143708345Y-78054200D01*
X143668320Y-78065965D01*
X143671264Y-78096776D01*
X143716367Y-78139903D01*
X143718851Y-78141659D01*
X143791027Y-78176313D01*
X143859134Y-78168906D01*
X143936894Y-78117929D01*
X143937167Y-78117700D01*
X143988508Y-78077052D01*
X144021854Y-78055329D01*
X144025638Y-78054200D01*
X144031268Y-78074001D01*
X144021991Y-78119617D01*
X144003359Y-78170361D01*
X143986744Y-78199137D01*
X143975482Y-78243846D01*
X144003951Y-78276643D01*
X144033910Y-78282800D01*
X144055497Y-78289844D01*
X144059174Y-78317199D01*
X144044018Y-78374195D01*
X144017523Y-78447900D01*
X143968292Y-78524417D01*
X143894981Y-78578292D01*
X143813030Y-78601799D01*
X143738529Y-78587562D01*
X143685740Y-78559310D01*
X143740883Y-78514658D01*
X143787799Y-78447071D01*
X143815370Y-78344653D01*
X143824774Y-78270802D01*
X143827402Y-78220815D01*
X143825355Y-78209314D01*
X143815942Y-78211370D01*
X143804039Y-78242241D01*
X143787041Y-78310060D01*
X143773350Y-78371700D01*
X143739894Y-78458299D01*
X143696306Y-78497444D01*
X143647123Y-78546211D01*
X143618603Y-78638022D01*
X143611600Y-78737523D01*
X143593489Y-78831456D01*
X143538583Y-78890767D01*
X143446023Y-78916237D01*
X143413309Y-78917411D01*
X143334292Y-78912651D01*
X143273811Y-78901093D01*
X143258993Y-78894787D01*
X143241921Y-78880217D01*
X143249712Y-78867952D01*
X143290267Y-78854104D01*
X143371481Y-78834784D01*
X143388616Y-78830960D01*
X143451279Y-78799990D01*
X143487469Y-78760038D01*
X143500896Y-78714678D01*
X143511173Y-78642946D01*
X143517824Y-78558151D01*
X143520376Y-78473603D01*
X143518352Y-78402613D01*
X143511277Y-78358492D01*
X143502058Y-78351221D01*
X143492549Y-78381211D01*
X143487636Y-78447398D01*
X143488321Y-78533110D01*
X143488414Y-78652040D01*
X143476216Y-78726411D01*
X143450511Y-78761243D01*
X143432085Y-78765400D01*
X143424727Y-78747833D01*
X143439144Y-78715481D01*
X143454631Y-78675741D01*
X143451613Y-78623766D01*
X143428820Y-78543611D01*
X143424421Y-78530534D01*
X143378524Y-78395506D01*
X143445107Y-78270279D01*
X143487478Y-78196764D01*
X143525210Y-78141667D01*
X143542595Y-78123092D01*
X143556970Y-78108008D01*
X143535400Y-78111248D01*
X143500875Y-78139136D01*
X143462307Y-78195917D01*
X143452881Y-78214290D01*
X143393653Y-78294090D01*
X143317566Y-78329223D01*
X143231859Y-78316976D01*
X143208996Y-78305755D01*
X143158801Y-78269036D01*
X143133792Y-78235156D01*
X143138223Y-78214695D01*
X143173439Y-78217281D01*
X143255609Y-78218363D01*
X143338797Y-78176208D01*
X143411436Y-78096794D01*
X143413890Y-78093034D01*
X143494581Y-78012255D01*
X143604151Y-77966883D01*
X143731492Y-77960996D01*
X143761373Y-77965513D01*
X143761373Y-77965513D01*
G37*
X143761373Y-77965513D02*
X143818809Y-77978275D01*
X143832665Y-77991571D01*
X143809555Y-78013748D01*
X143803274Y-78018382D01*
X143745220Y-78047168D01*
X143708345Y-78054200D01*
X143668320Y-78065965D01*
X143671264Y-78096776D01*
X143716367Y-78139903D01*
X143718851Y-78141659D01*
X143791027Y-78176313D01*
X143859134Y-78168906D01*
X143936894Y-78117929D01*
X143937167Y-78117700D01*
X143988508Y-78077052D01*
X144021854Y-78055329D01*
X144025638Y-78054200D01*
X144031268Y-78074001D01*
X144021991Y-78119617D01*
X144003359Y-78170361D01*
X143986744Y-78199137D01*
X143975482Y-78243846D01*
X144003951Y-78276643D01*
X144033910Y-78282800D01*
X144055497Y-78289844D01*
X144059174Y-78317199D01*
X144044018Y-78374195D01*
X144017523Y-78447900D01*
X143968292Y-78524417D01*
X143894981Y-78578292D01*
X143813030Y-78601799D01*
X143738529Y-78587562D01*
X143685740Y-78559310D01*
X143740883Y-78514658D01*
X143787799Y-78447071D01*
X143815370Y-78344653D01*
X143824774Y-78270802D01*
X143827402Y-78220815D01*
X143825355Y-78209314D01*
X143815942Y-78211370D01*
X143804039Y-78242241D01*
X143787041Y-78310060D01*
X143773350Y-78371700D01*
X143739894Y-78458299D01*
X143696306Y-78497444D01*
X143647123Y-78546211D01*
X143618603Y-78638022D01*
X143611600Y-78737523D01*
X143593489Y-78831456D01*
X143538583Y-78890767D01*
X143446023Y-78916237D01*
X143413309Y-78917411D01*
X143334292Y-78912651D01*
X143273811Y-78901093D01*
X143258993Y-78894787D01*
X143241921Y-78880217D01*
X143249712Y-78867952D01*
X143290267Y-78854104D01*
X143371481Y-78834784D01*
X143388616Y-78830960D01*
X143451279Y-78799990D01*
X143487469Y-78760038D01*
X143500896Y-78714678D01*
X143511173Y-78642946D01*
X143517824Y-78558151D01*
X143520376Y-78473603D01*
X143518352Y-78402613D01*
X143511277Y-78358492D01*
X143502058Y-78351221D01*
X143492549Y-78381211D01*
X143487636Y-78447398D01*
X143488321Y-78533110D01*
X143488414Y-78652040D01*
X143476216Y-78726411D01*
X143450511Y-78761243D01*
X143432085Y-78765400D01*
X143424727Y-78747833D01*
X143439144Y-78715481D01*
X143454631Y-78675741D01*
X143451613Y-78623766D01*
X143428820Y-78543611D01*
X143424421Y-78530534D01*
X143378524Y-78395506D01*
X143445107Y-78270279D01*
X143487478Y-78196764D01*
X143525210Y-78141667D01*
X143542595Y-78123092D01*
X143556970Y-78108008D01*
X143535400Y-78111248D01*
X143500875Y-78139136D01*
X143462307Y-78195917D01*
X143452881Y-78214290D01*
X143393653Y-78294090D01*
X143317566Y-78329223D01*
X143231859Y-78316976D01*
X143208996Y-78305755D01*
X143158801Y-78269036D01*
X143133792Y-78235156D01*
X143138223Y-78214695D01*
X143173439Y-78217281D01*
X143255609Y-78218363D01*
X143338797Y-78176208D01*
X143411436Y-78096794D01*
X143413890Y-78093034D01*
X143494581Y-78012255D01*
X143604151Y-77966883D01*
X143731492Y-77960996D01*
X143761373Y-77965513D01*
G36*
X143694752Y-78605323D02*
X143701136Y-78614029D01*
X143708791Y-78656968D01*
X143699462Y-78711561D01*
X143679163Y-78754590D01*
X143661916Y-78765400D01*
X143644287Y-78743360D01*
X143637000Y-78690699D01*
X143645990Y-78629243D01*
X143667815Y-78597708D01*
X143694752Y-78605323D01*
X143694752Y-78605323D01*
G37*
X143694752Y-78605323D02*
X143701136Y-78614029D01*
X143708791Y-78656968D01*
X143699462Y-78711561D01*
X143679163Y-78754590D01*
X143661916Y-78765400D01*
X143644287Y-78743360D01*
X143637000Y-78690699D01*
X143645990Y-78629243D01*
X143667815Y-78597708D01*
X143694752Y-78605323D01*
G36*
X144698984Y-78525967D02*
X144700307Y-78558154D01*
X144673342Y-78568158D01*
X144630969Y-78551537D01*
X144591440Y-78526727D01*
X144594632Y-78511416D01*
X144616166Y-78501728D01*
X144666409Y-78499686D01*
X144698984Y-78525967D01*
X144698984Y-78525967D01*
G37*
X144698984Y-78525967D02*
X144700307Y-78558154D01*
X144673342Y-78568158D01*
X144630969Y-78551537D01*
X144591440Y-78526727D01*
X144594632Y-78511416D01*
X144616166Y-78501728D01*
X144666409Y-78499686D01*
X144698984Y-78525967D01*
G36*
X142110971Y-78205250D02*
X142113000Y-78220799D01*
X142098798Y-78253627D01*
X142087600Y-78257400D01*
X142067162Y-78236062D01*
X142062200Y-78205100D01*
X142071977Y-78169979D01*
X142087600Y-78168500D01*
X142110971Y-78205250D01*
X142110971Y-78205250D01*
G37*
X142110971Y-78205250D02*
X142113000Y-78220799D01*
X142098798Y-78253627D01*
X142087600Y-78257400D01*
X142067162Y-78236062D01*
X142062200Y-78205100D01*
X142071977Y-78169979D01*
X142087600Y-78168500D01*
X142110971Y-78205250D01*
G36*
X143553687Y-77434634D02*
X143536117Y-77470000D01*
X143504599Y-77527499D01*
X143489263Y-77543793D01*
X143484697Y-77523657D01*
X143484600Y-77515443D01*
X143502754Y-77468297D01*
X143526858Y-77441360D01*
X143554373Y-77421205D01*
X143553687Y-77434634D01*
X143553687Y-77434634D01*
G37*
X143553687Y-77434634D02*
X143536117Y-77470000D01*
X143504599Y-77527499D01*
X143489263Y-77543793D01*
X143484697Y-77523657D01*
X143484600Y-77515443D01*
X143502754Y-77468297D01*
X143526858Y-77441360D01*
X143554373Y-77421205D01*
X143553687Y-77434634D01*
G36*
X143935931Y-76507502D02*
X143947266Y-76576822D01*
X143953811Y-76635096D01*
X143963394Y-76750061D01*
X143969405Y-76865550D01*
X143970564Y-76949300D01*
X143967010Y-77090253D01*
X143962521Y-77210559D01*
X143957518Y-77302058D01*
X143952418Y-77356591D01*
X143949040Y-77368400D01*
X143927996Y-77352593D01*
X143891000Y-77317600D01*
X143858786Y-77278185D01*
X143844129Y-77233880D01*
X143846527Y-77172116D01*
X143865476Y-77080325D01*
X143879327Y-77025653D01*
X143905951Y-76858621D01*
X143901747Y-76705885D01*
X143896378Y-76607259D01*
X143900250Y-76529178D01*
X143909789Y-76492115D01*
X143923965Y-76480979D01*
X143935931Y-76507502D01*
X143935931Y-76507502D01*
G37*
X143935931Y-76507502D02*
X143947266Y-76576822D01*
X143953811Y-76635096D01*
X143963394Y-76750061D01*
X143969405Y-76865550D01*
X143970564Y-76949300D01*
X143967010Y-77090253D01*
X143962521Y-77210559D01*
X143957518Y-77302058D01*
X143952418Y-77356591D01*
X143949040Y-77368400D01*
X143927996Y-77352593D01*
X143891000Y-77317600D01*
X143858786Y-77278185D01*
X143844129Y-77233880D01*
X143846527Y-77172116D01*
X143865476Y-77080325D01*
X143879327Y-77025653D01*
X143905951Y-76858621D01*
X143901747Y-76705885D01*
X143896378Y-76607259D01*
X143900250Y-76529178D01*
X143909789Y-76492115D01*
X143923965Y-76480979D01*
X143935931Y-76507502D01*
G36*
X143337405Y-76929190D02*
X143309323Y-76986218D01*
X143257058Y-77041341D01*
X143252720Y-77044640D01*
X143204024Y-77088517D01*
X143180259Y-77125385D01*
X143179800Y-77129159D01*
X143158088Y-77164561D01*
X143105345Y-77185379D01*
X143040155Y-77187927D01*
X142981159Y-77168555D01*
X142968455Y-77145949D01*
X142989684Y-77108183D01*
X143027563Y-77067344D01*
X143083230Y-77018511D01*
X143128701Y-76990227D01*
X143140109Y-76987400D01*
X143180369Y-76973991D01*
X143240988Y-76940536D01*
X143260940Y-76927526D01*
X143349169Y-76867652D01*
X143337405Y-76929190D01*
X143337405Y-76929190D01*
G37*
X143337405Y-76929190D02*
X143309323Y-76986218D01*
X143257058Y-77041341D01*
X143252720Y-77044640D01*
X143204024Y-77088517D01*
X143180259Y-77125385D01*
X143179800Y-77129159D01*
X143158088Y-77164561D01*
X143105345Y-77185379D01*
X143040155Y-77187927D01*
X142981159Y-77168555D01*
X142968455Y-77145949D01*
X142989684Y-77108183D01*
X143027563Y-77067344D01*
X143083230Y-77018511D01*
X143128701Y-76990227D01*
X143140109Y-76987400D01*
X143180369Y-76973991D01*
X143240988Y-76940536D01*
X143260940Y-76927526D01*
X143349169Y-76867652D01*
X143337405Y-76929190D01*
G36*
X144004579Y-76172410D02*
X144016054Y-76233549D01*
X144026548Y-76319880D01*
X144027399Y-76328827D01*
X144041468Y-76441813D01*
X144063567Y-76577985D01*
X144089384Y-76711252D01*
X144094547Y-76734958D01*
X144123352Y-76871307D01*
X144138818Y-76968736D01*
X144140895Y-77037359D01*
X144129528Y-77087288D01*
X144104666Y-77128636D01*
X144092429Y-77143336D01*
X144039859Y-77203300D01*
X144055318Y-77131438D01*
X144056340Y-77068023D01*
X144042786Y-76973206D01*
X144018599Y-76869387D01*
X143990486Y-76747154D01*
X143975454Y-76624374D01*
X143971393Y-76480269D01*
X143972317Y-76414199D01*
X143976194Y-76305092D01*
X143982054Y-76217800D01*
X143989018Y-76162852D01*
X143994458Y-76149200D01*
X144004579Y-76172410D01*
X144004579Y-76172410D01*
G37*
X144004579Y-76172410D02*
X144016054Y-76233549D01*
X144026548Y-76319880D01*
X144027399Y-76328827D01*
X144041468Y-76441813D01*
X144063567Y-76577985D01*
X144089384Y-76711252D01*
X144094547Y-76734958D01*
X144123352Y-76871307D01*
X144138818Y-76968736D01*
X144140895Y-77037359D01*
X144129528Y-77087288D01*
X144104666Y-77128636D01*
X144092429Y-77143336D01*
X144039859Y-77203300D01*
X144055318Y-77131438D01*
X144056340Y-77068023D01*
X144042786Y-76973206D01*
X144018599Y-76869387D01*
X143990486Y-76747154D01*
X143975454Y-76624374D01*
X143971393Y-76480269D01*
X143972317Y-76414199D01*
X143976194Y-76305092D01*
X143982054Y-76217800D01*
X143989018Y-76162852D01*
X143994458Y-76149200D01*
X144004579Y-76172410D01*
G36*
X143635172Y-76448602D02*
X143635395Y-76491297D01*
X143624040Y-76530710D01*
X143615405Y-76540547D01*
X143597955Y-76569703D01*
X143571525Y-76634615D01*
X143541326Y-76722259D01*
X143536063Y-76738896D01*
X143504856Y-76832515D01*
X143475756Y-76908960D01*
X143454447Y-76953459D01*
X143452438Y-76956263D01*
X143437270Y-76991773D01*
X143441007Y-77003074D01*
X143461337Y-76994663D01*
X143490395Y-76948273D01*
X143522867Y-76874741D01*
X143553436Y-76784909D01*
X143560800Y-76758800D01*
X143588232Y-76671285D01*
X143619247Y-76592193D01*
X143628044Y-76573819D01*
X143664582Y-76524477D01*
X143690863Y-76520893D01*
X143696439Y-76558025D01*
X143684267Y-76600949D01*
X143666601Y-76663105D01*
X143648388Y-76753774D01*
X143636419Y-76832530D01*
X143618181Y-76935883D01*
X143590935Y-77006558D01*
X143547514Y-77062644D01*
X143543731Y-77066445D01*
X143481235Y-77111365D01*
X143404068Y-77144342D01*
X143327888Y-77161386D01*
X143268353Y-77158504D01*
X143245019Y-77142582D01*
X143250555Y-77109155D01*
X143286827Y-77063890D01*
X143294488Y-77057008D01*
X143333473Y-77014907D01*
X143357033Y-76961468D01*
X143371130Y-76880354D01*
X143375610Y-76834712D01*
X143388478Y-76736694D01*
X143407348Y-76649823D01*
X143424168Y-76602052D01*
X143461080Y-76550987D01*
X143516403Y-76495731D01*
X143574109Y-76450347D01*
X143618167Y-76428897D01*
X143621871Y-76428600D01*
X143635172Y-76448602D01*
X143635172Y-76448602D01*
G37*
X143635172Y-76448602D02*
X143635395Y-76491297D01*
X143624040Y-76530710D01*
X143615405Y-76540547D01*
X143597955Y-76569703D01*
X143571525Y-76634615D01*
X143541326Y-76722259D01*
X143536063Y-76738896D01*
X143504856Y-76832515D01*
X143475756Y-76908960D01*
X143454447Y-76953459D01*
X143452438Y-76956263D01*
X143437270Y-76991773D01*
X143441007Y-77003074D01*
X143461337Y-76994663D01*
X143490395Y-76948273D01*
X143522867Y-76874741D01*
X143553436Y-76784909D01*
X143560800Y-76758800D01*
X143588232Y-76671285D01*
X143619247Y-76592193D01*
X143628044Y-76573819D01*
X143664582Y-76524477D01*
X143690863Y-76520893D01*
X143696439Y-76558025D01*
X143684267Y-76600949D01*
X143666601Y-76663105D01*
X143648388Y-76753774D01*
X143636419Y-76832530D01*
X143618181Y-76935883D01*
X143590935Y-77006558D01*
X143547514Y-77062644D01*
X143543731Y-77066445D01*
X143481235Y-77111365D01*
X143404068Y-77144342D01*
X143327888Y-77161386D01*
X143268353Y-77158504D01*
X143245019Y-77142582D01*
X143250555Y-77109155D01*
X143286827Y-77063890D01*
X143294488Y-77057008D01*
X143333473Y-77014907D01*
X143357033Y-76961468D01*
X143371130Y-76880354D01*
X143375610Y-76834712D01*
X143388478Y-76736694D01*
X143407348Y-76649823D01*
X143424168Y-76602052D01*
X143461080Y-76550987D01*
X143516403Y-76495731D01*
X143574109Y-76450347D01*
X143618167Y-76428897D01*
X143621871Y-76428600D01*
X143635172Y-76448602D01*
G36*
X143862317Y-76540730D02*
X143868835Y-76600525D01*
X143870965Y-76647739D01*
X143874461Y-76782247D01*
X143872760Y-76876233D01*
X143864644Y-76939821D01*
X143848894Y-76983133D01*
X143826963Y-77013392D01*
X143757331Y-77055484D01*
X143672158Y-77056168D01*
X143646019Y-77047667D01*
X143629134Y-77014848D01*
X143637748Y-76967123D01*
X143653740Y-76904048D01*
X143672910Y-76814208D01*
X143685530Y-76747718D01*
X143708118Y-76644125D01*
X143729561Y-76583126D01*
X143747134Y-76566222D01*
X143758113Y-76594913D01*
X143759770Y-76670700D01*
X143757688Y-76708000D01*
X143748552Y-76802325D01*
X143736468Y-76881940D01*
X143725886Y-76923900D01*
X143715574Y-76957701D01*
X143731378Y-76950620D01*
X143740407Y-76942483D01*
X143761181Y-76898619D01*
X143777352Y-76816658D01*
X143785068Y-76733701D01*
X143796264Y-76625984D01*
X143814685Y-76552927D01*
X143830322Y-76527857D01*
X143850416Y-76519268D01*
X143862317Y-76540730D01*
X143862317Y-76540730D01*
G37*
X143862317Y-76540730D02*
X143868835Y-76600525D01*
X143870965Y-76647739D01*
X143874461Y-76782247D01*
X143872760Y-76876233D01*
X143864644Y-76939821D01*
X143848894Y-76983133D01*
X143826963Y-77013392D01*
X143757331Y-77055484D01*
X143672158Y-77056168D01*
X143646019Y-77047667D01*
X143629134Y-77014848D01*
X143637748Y-76967123D01*
X143653740Y-76904048D01*
X143672910Y-76814208D01*
X143685530Y-76747718D01*
X143708118Y-76644125D01*
X143729561Y-76583126D01*
X143747134Y-76566222D01*
X143758113Y-76594913D01*
X143759770Y-76670700D01*
X143757688Y-76708000D01*
X143748552Y-76802325D01*
X143736468Y-76881940D01*
X143725886Y-76923900D01*
X143715574Y-76957701D01*
X143731378Y-76950620D01*
X143740407Y-76942483D01*
X143761181Y-76898619D01*
X143777352Y-76816658D01*
X143785068Y-76733701D01*
X143796264Y-76625984D01*
X143814685Y-76552927D01*
X143830322Y-76527857D01*
X143850416Y-76519268D01*
X143862317Y-76540730D01*
G36*
X143862957Y-75330262D02*
X143968909Y-75347970D01*
X144045838Y-75362522D01*
X144130557Y-75382724D01*
X144224927Y-75411121D01*
X144316340Y-75443093D01*
X144392193Y-75474021D01*
X144439878Y-75499286D01*
X144449800Y-75510548D01*
X144469492Y-75534138D01*
X144517922Y-75568729D01*
X144528290Y-75575012D01*
X144578809Y-75614208D01*
X144584120Y-75643838D01*
X144582490Y-75645669D01*
X144534385Y-75669816D01*
X144451226Y-75689481D01*
X144348742Y-75701506D01*
X144293475Y-75703687D01*
X144236590Y-75708822D01*
X144211827Y-75720286D01*
X144212424Y-75723750D01*
X144245192Y-75741386D01*
X144259300Y-75742799D01*
X144303346Y-75759360D01*
X144310044Y-75800445D01*
X144283251Y-75846000D01*
X144259639Y-75881601D01*
X144266351Y-75895200D01*
X144299323Y-75915898D01*
X144311822Y-75966212D01*
X144301940Y-76028471D01*
X144284590Y-76064031D01*
X144242168Y-76128776D01*
X144204455Y-76074933D01*
X144166741Y-76021089D01*
X144119126Y-76078794D01*
X144084211Y-76115862D01*
X144053088Y-76121595D01*
X144003539Y-76098557D01*
X143993956Y-76093231D01*
X143942794Y-76071172D01*
X143917197Y-76073085D01*
X143916400Y-76076525D01*
X143901897Y-76113499D01*
X143866877Y-76166036D01*
X143865600Y-76167669D01*
X143829577Y-76226978D01*
X143814800Y-76277811D01*
X143797373Y-76331022D01*
X143757136Y-76379960D01*
X143712157Y-76403101D01*
X143709542Y-76403200D01*
X143705976Y-76386333D01*
X143730199Y-76344878D01*
X143736756Y-76336274D01*
X143779422Y-76275521D01*
X143786419Y-76249561D01*
X143759940Y-76259319D01*
X143702178Y-76305717D01*
X143690139Y-76316639D01*
X143571118Y-76426392D01*
X143484506Y-76507844D01*
X143425161Y-76566908D01*
X143387940Y-76609498D01*
X143367701Y-76641526D01*
X143359302Y-76668905D01*
X143357601Y-76697547D01*
X143357600Y-76699006D01*
X143333454Y-76799762D01*
X143264995Y-76884471D01*
X143204919Y-76924045D01*
X143127331Y-76956007D01*
X143070709Y-76953382D01*
X143017148Y-76914291D01*
X143006427Y-76903212D01*
X142967908Y-76856979D01*
X142951219Y-76826577D01*
X142951200Y-76826072D01*
X142968098Y-76801007D01*
X143013126Y-76750164D01*
X143077783Y-76682962D01*
X143103600Y-76657200D01*
X143172436Y-76590577D01*
X143225096Y-76542209D01*
X143253362Y-76519532D01*
X143256000Y-76519256D01*
X143247125Y-76548810D01*
X143225306Y-76605182D01*
X143220699Y-76616318D01*
X143167863Y-76707426D01*
X143099855Y-76776359D01*
X143029447Y-76810860D01*
X143016260Y-76812546D01*
X142982378Y-76816380D01*
X142997393Y-76824063D01*
X143009598Y-76827349D01*
X143079545Y-76820008D01*
X143151446Y-76763354D01*
X143223914Y-76658766D01*
X143268862Y-76569706D01*
X143326062Y-76457122D01*
X143376832Y-76387959D01*
X143426285Y-76356170D01*
X143452514Y-76352400D01*
X143450076Y-76368354D01*
X143429213Y-76396850D01*
X143396480Y-76444365D01*
X143359187Y-76511054D01*
X143324594Y-76581868D01*
X143299962Y-76641761D01*
X143292549Y-76675684D01*
X143293622Y-76677889D01*
X143309310Y-76662837D01*
X143339582Y-76612930D01*
X143373918Y-76546872D01*
X143426766Y-76453977D01*
X143483919Y-76392412D01*
X143557328Y-76346492D01*
X143625671Y-76305448D01*
X143672475Y-76266405D01*
X143683212Y-76250295D01*
X143683998Y-76230016D01*
X143658134Y-76245870D01*
X143645060Y-76257150D01*
X143603601Y-76288804D01*
X143567831Y-76295843D01*
X143526158Y-76274432D01*
X143466989Y-76220738D01*
X143433800Y-76187300D01*
X143368054Y-76117971D01*
X143340104Y-76082253D01*
X143349950Y-76079812D01*
X143397591Y-76110315D01*
X143433800Y-76136500D01*
X143503945Y-76179490D01*
X143560614Y-76198773D01*
X143594095Y-76192823D01*
X143595385Y-76161900D01*
X143596408Y-76153791D01*
X143646315Y-76153791D01*
X143652564Y-76161182D01*
X143675100Y-76172293D01*
X143721455Y-76193144D01*
X143749412Y-76194191D01*
X143787205Y-76175779D01*
X143791069Y-76173706D01*
X143830491Y-76141089D01*
X143840200Y-76118969D01*
X143825273Y-76110991D01*
X143794813Y-76131600D01*
X143729466Y-76161023D01*
X143686863Y-76160416D01*
X143646315Y-76153791D01*
X143596408Y-76153791D01*
X143599273Y-76131104D01*
X143634282Y-76123800D01*
X143679776Y-76111621D01*
X143681348Y-76082492D01*
X143644549Y-76051320D01*
X143616051Y-76024009D01*
X143631629Y-75990571D01*
X143649402Y-75952601D01*
X143645246Y-75937312D01*
X143647941Y-75921930D01*
X143658166Y-75920599D01*
X143684428Y-75941102D01*
X143687800Y-75958700D01*
X143704932Y-75985444D01*
X143761431Y-75996235D01*
X143787322Y-75996800D01*
X143883518Y-75991259D01*
X143939147Y-75970981D01*
X143963589Y-75930483D01*
X143967200Y-75891666D01*
X143959605Y-75832643D01*
X143940752Y-75761336D01*
X143916536Y-75694854D01*
X143892851Y-75650304D01*
X143880892Y-75641200D01*
X143881487Y-75661771D01*
X143898520Y-75713078D01*
X143906422Y-75732697D01*
X143929631Y-75806945D01*
X143937141Y-75870888D01*
X143936392Y-75878747D01*
X143927044Y-75897086D01*
X143910487Y-75869116D01*
X143890737Y-75810673D01*
X143854121Y-75711754D01*
X143819749Y-75661113D01*
X143788506Y-75659565D01*
X143765864Y-75695450D01*
X143748017Y-75728955D01*
X143740210Y-75723750D01*
X143717444Y-75699647D01*
X143681450Y-75693785D01*
X143641878Y-75696769D01*
X143651077Y-75706707D01*
X143675100Y-75717400D01*
X143709003Y-75733597D01*
X143706200Y-75743490D01*
X143660849Y-75753880D01*
X143640528Y-75757658D01*
X143597421Y-75758235D01*
X143593987Y-75733748D01*
X143594178Y-75733246D01*
X143591045Y-75707850D01*
X143562787Y-75709520D01*
X143521402Y-75700959D01*
X143487050Y-75647099D01*
X143486238Y-75645154D01*
X143478545Y-75615800D01*
X143624300Y-75615800D01*
X143626313Y-75639205D01*
X143635500Y-75641200D01*
X143650836Y-75630267D01*
X144284462Y-75630267D01*
X144293368Y-75635734D01*
X144310100Y-75636136D01*
X144374555Y-75628302D01*
X144424400Y-75615800D01*
X144462737Y-75601332D01*
X144453831Y-75595865D01*
X144437100Y-75595463D01*
X144372644Y-75603297D01*
X144322800Y-75615800D01*
X144284462Y-75630267D01*
X143650836Y-75630267D01*
X143661366Y-75622761D01*
X143662400Y-75615800D01*
X143653733Y-75591060D01*
X143651199Y-75590400D01*
X143629513Y-75608198D01*
X143624300Y-75615800D01*
X143478545Y-75615800D01*
X143469581Y-75581596D01*
X144223836Y-75581596D01*
X144233139Y-75580797D01*
X144264494Y-75562450D01*
X144301963Y-75533531D01*
X144301964Y-75533527D01*
X144359216Y-75533527D01*
X144384183Y-75537594D01*
X144417127Y-75532924D01*
X144417520Y-75524254D01*
X144383525Y-75518190D01*
X144368837Y-75522248D01*
X144359216Y-75533527D01*
X144301964Y-75533527D01*
X144308340Y-75516673D01*
X144284153Y-75523239D01*
X144252345Y-75550300D01*
X144223836Y-75581596D01*
X143469581Y-75581596D01*
X143463014Y-75556540D01*
X143467886Y-75539600D01*
X143510000Y-75539600D01*
X143519293Y-75560507D01*
X143526933Y-75556533D01*
X143529973Y-75526389D01*
X143526933Y-75522666D01*
X143511833Y-75526153D01*
X143510000Y-75539600D01*
X143467886Y-75539600D01*
X143480264Y-75496572D01*
X143539043Y-75461849D01*
X143543613Y-75460574D01*
X143602512Y-75432494D01*
X143817067Y-75432494D01*
X143836960Y-75437611D01*
X143858454Y-75445962D01*
X143841901Y-75474049D01*
X143827431Y-75508213D01*
X143857841Y-75536777D01*
X143907622Y-75554621D01*
X143968251Y-75563385D01*
X144020049Y-75561884D01*
X144043336Y-75548934D01*
X144043400Y-75547950D01*
X144028162Y-75518002D01*
X144001363Y-75484450D01*
X143979158Y-75448540D01*
X143992197Y-75438786D01*
X144030212Y-75458772D01*
X144043445Y-75469750D01*
X144066054Y-75488058D01*
X144055798Y-75470840D01*
X144046309Y-75458128D01*
X143997883Y-75426744D01*
X143933234Y-75426863D01*
X143884778Y-75432420D01*
X143882256Y-75426147D01*
X143903700Y-75414870D01*
X143932899Y-75395885D01*
X143916400Y-75389374D01*
X143862177Y-75401368D01*
X143840200Y-75412600D01*
X143817067Y-75432494D01*
X143602512Y-75432494D01*
X143612379Y-75427790D01*
X143674622Y-75377415D01*
X143706828Y-75347109D01*
X143742138Y-75329422D01*
X143790774Y-75323943D01*
X143862957Y-75330262D01*
X143862957Y-75330262D01*
G37*
X143862957Y-75330262D02*
X143968909Y-75347970D01*
X144045838Y-75362522D01*
X144130557Y-75382724D01*
X144224927Y-75411121D01*
X144316340Y-75443093D01*
X144392193Y-75474021D01*
X144439878Y-75499286D01*
X144449800Y-75510548D01*
X144469492Y-75534138D01*
X144517922Y-75568729D01*
X144528290Y-75575012D01*
X144578809Y-75614208D01*
X144584120Y-75643838D01*
X144582490Y-75645669D01*
X144534385Y-75669816D01*
X144451226Y-75689481D01*
X144348742Y-75701506D01*
X144293475Y-75703687D01*
X144236590Y-75708822D01*
X144211827Y-75720286D01*
X144212424Y-75723750D01*
X144245192Y-75741386D01*
X144259300Y-75742799D01*
X144303346Y-75759360D01*
X144310044Y-75800445D01*
X144283251Y-75846000D01*
X144259639Y-75881601D01*
X144266351Y-75895200D01*
X144299323Y-75915898D01*
X144311822Y-75966212D01*
X144301940Y-76028471D01*
X144284590Y-76064031D01*
X144242168Y-76128776D01*
X144204455Y-76074933D01*
X144166741Y-76021089D01*
X144119126Y-76078794D01*
X144084211Y-76115862D01*
X144053088Y-76121595D01*
X144003539Y-76098557D01*
X143993956Y-76093231D01*
X143942794Y-76071172D01*
X143917197Y-76073085D01*
X143916400Y-76076525D01*
X143901897Y-76113499D01*
X143866877Y-76166036D01*
X143865600Y-76167669D01*
X143829577Y-76226978D01*
X143814800Y-76277811D01*
X143797373Y-76331022D01*
X143757136Y-76379960D01*
X143712157Y-76403101D01*
X143709542Y-76403200D01*
X143705976Y-76386333D01*
X143730199Y-76344878D01*
X143736756Y-76336274D01*
X143779422Y-76275521D01*
X143786419Y-76249561D01*
X143759940Y-76259319D01*
X143702178Y-76305717D01*
X143690139Y-76316639D01*
X143571118Y-76426392D01*
X143484506Y-76507844D01*
X143425161Y-76566908D01*
X143387940Y-76609498D01*
X143367701Y-76641526D01*
X143359302Y-76668905D01*
X143357601Y-76697547D01*
X143357600Y-76699006D01*
X143333454Y-76799762D01*
X143264995Y-76884471D01*
X143204919Y-76924045D01*
X143127331Y-76956007D01*
X143070709Y-76953382D01*
X143017148Y-76914291D01*
X143006427Y-76903212D01*
X142967908Y-76856979D01*
X142951219Y-76826577D01*
X142951200Y-76826072D01*
X142968098Y-76801007D01*
X143013126Y-76750164D01*
X143077783Y-76682962D01*
X143103600Y-76657200D01*
X143172436Y-76590577D01*
X143225096Y-76542209D01*
X143253362Y-76519532D01*
X143256000Y-76519256D01*
X143247125Y-76548810D01*
X143225306Y-76605182D01*
X143220699Y-76616318D01*
X143167863Y-76707426D01*
X143099855Y-76776359D01*
X143029447Y-76810860D01*
X143016260Y-76812546D01*
X142982378Y-76816380D01*
X142997393Y-76824063D01*
X143009598Y-76827349D01*
X143079545Y-76820008D01*
X143151446Y-76763354D01*
X143223914Y-76658766D01*
X143268862Y-76569706D01*
X143326062Y-76457122D01*
X143376832Y-76387959D01*
X143426285Y-76356170D01*
X143452514Y-76352400D01*
X143450076Y-76368354D01*
X143429213Y-76396850D01*
X143396480Y-76444365D01*
X143359187Y-76511054D01*
X143324594Y-76581868D01*
X143299962Y-76641761D01*
X143292549Y-76675684D01*
X143293622Y-76677889D01*
X143309310Y-76662837D01*
X143339582Y-76612930D01*
X143373918Y-76546872D01*
X143426766Y-76453977D01*
X143483919Y-76392412D01*
X143557328Y-76346492D01*
X143625671Y-76305448D01*
X143672475Y-76266405D01*
X143683212Y-76250295D01*
X143683998Y-76230016D01*
X143658134Y-76245870D01*
X143645060Y-76257150D01*
X143603601Y-76288804D01*
X143567831Y-76295843D01*
X143526158Y-76274432D01*
X143466989Y-76220738D01*
X143433800Y-76187300D01*
X143368054Y-76117971D01*
X143340104Y-76082253D01*
X143349950Y-76079812D01*
X143397591Y-76110315D01*
X143433800Y-76136500D01*
X143503945Y-76179490D01*
X143560614Y-76198773D01*
X143594095Y-76192823D01*
X143595385Y-76161900D01*
X143596408Y-76153791D01*
X143646315Y-76153791D01*
X143652564Y-76161182D01*
X143675100Y-76172293D01*
X143721455Y-76193144D01*
X143749412Y-76194191D01*
X143787205Y-76175779D01*
X143791069Y-76173706D01*
X143830491Y-76141089D01*
X143840200Y-76118969D01*
X143825273Y-76110991D01*
X143794813Y-76131600D01*
X143729466Y-76161023D01*
X143686863Y-76160416D01*
X143646315Y-76153791D01*
X143596408Y-76153791D01*
X143599273Y-76131104D01*
X143634282Y-76123800D01*
X143679776Y-76111621D01*
X143681348Y-76082492D01*
X143644549Y-76051320D01*
X143616051Y-76024009D01*
X143631629Y-75990571D01*
X143649402Y-75952601D01*
X143645246Y-75937312D01*
X143647941Y-75921930D01*
X143658166Y-75920599D01*
X143684428Y-75941102D01*
X143687800Y-75958700D01*
X143704932Y-75985444D01*
X143761431Y-75996235D01*
X143787322Y-75996800D01*
X143883518Y-75991259D01*
X143939147Y-75970981D01*
X143963589Y-75930483D01*
X143967200Y-75891666D01*
X143959605Y-75832643D01*
X143940752Y-75761336D01*
X143916536Y-75694854D01*
X143892851Y-75650304D01*
X143880892Y-75641200D01*
X143881487Y-75661771D01*
X143898520Y-75713078D01*
X143906422Y-75732697D01*
X143929631Y-75806945D01*
X143937141Y-75870888D01*
X143936392Y-75878747D01*
X143927044Y-75897086D01*
X143910487Y-75869116D01*
X143890737Y-75810673D01*
X143854121Y-75711754D01*
X143819749Y-75661113D01*
X143788506Y-75659565D01*
X143765864Y-75695450D01*
X143748017Y-75728955D01*
X143740210Y-75723750D01*
X143717444Y-75699647D01*
X143681450Y-75693785D01*
X143641878Y-75696769D01*
X143651077Y-75706707D01*
X143675100Y-75717400D01*
X143709003Y-75733597D01*
X143706200Y-75743490D01*
X143660849Y-75753880D01*
X143640528Y-75757658D01*
X143597421Y-75758235D01*
X143593987Y-75733748D01*
X143594178Y-75733246D01*
X143591045Y-75707850D01*
X143562787Y-75709520D01*
X143521402Y-75700959D01*
X143487050Y-75647099D01*
X143486238Y-75645154D01*
X143478545Y-75615800D01*
X143624300Y-75615800D01*
X143626313Y-75639205D01*
X143635500Y-75641200D01*
X143650836Y-75630267D01*
X144284462Y-75630267D01*
X144293368Y-75635734D01*
X144310100Y-75636136D01*
X144374555Y-75628302D01*
X144424400Y-75615800D01*
X144462737Y-75601332D01*
X144453831Y-75595865D01*
X144437100Y-75595463D01*
X144372644Y-75603297D01*
X144322800Y-75615800D01*
X144284462Y-75630267D01*
X143650836Y-75630267D01*
X143661366Y-75622761D01*
X143662400Y-75615800D01*
X143653733Y-75591060D01*
X143651199Y-75590400D01*
X143629513Y-75608198D01*
X143624300Y-75615800D01*
X143478545Y-75615800D01*
X143469581Y-75581596D01*
X144223836Y-75581596D01*
X144233139Y-75580797D01*
X144264494Y-75562450D01*
X144301963Y-75533531D01*
X144301964Y-75533527D01*
X144359216Y-75533527D01*
X144384183Y-75537594D01*
X144417127Y-75532924D01*
X144417520Y-75524254D01*
X144383525Y-75518190D01*
X144368837Y-75522248D01*
X144359216Y-75533527D01*
X144301964Y-75533527D01*
X144308340Y-75516673D01*
X144284153Y-75523239D01*
X144252345Y-75550300D01*
X144223836Y-75581596D01*
X143469581Y-75581596D01*
X143463014Y-75556540D01*
X143467886Y-75539600D01*
X143510000Y-75539600D01*
X143519293Y-75560507D01*
X143526933Y-75556533D01*
X143529973Y-75526389D01*
X143526933Y-75522666D01*
X143511833Y-75526153D01*
X143510000Y-75539600D01*
X143467886Y-75539600D01*
X143480264Y-75496572D01*
X143539043Y-75461849D01*
X143543613Y-75460574D01*
X143602512Y-75432494D01*
X143817067Y-75432494D01*
X143836960Y-75437611D01*
X143858454Y-75445962D01*
X143841901Y-75474049D01*
X143827431Y-75508213D01*
X143857841Y-75536777D01*
X143907622Y-75554621D01*
X143968251Y-75563385D01*
X144020049Y-75561884D01*
X144043336Y-75548934D01*
X144043400Y-75547950D01*
X144028162Y-75518002D01*
X144001363Y-75484450D01*
X143979158Y-75448540D01*
X143992197Y-75438786D01*
X144030212Y-75458772D01*
X144043445Y-75469750D01*
X144066054Y-75488058D01*
X144055798Y-75470840D01*
X144046309Y-75458128D01*
X143997883Y-75426744D01*
X143933234Y-75426863D01*
X143884778Y-75432420D01*
X143882256Y-75426147D01*
X143903700Y-75414870D01*
X143932899Y-75395885D01*
X143916400Y-75389374D01*
X143862177Y-75401368D01*
X143840200Y-75412600D01*
X143817067Y-75432494D01*
X143602512Y-75432494D01*
X143612379Y-75427790D01*
X143674622Y-75377415D01*
X143706828Y-75347109D01*
X143742138Y-75329422D01*
X143790774Y-75323943D01*
X143862957Y-75330262D01*
G36*
X144124809Y-76162484D02*
X144144870Y-76209684D01*
X144151989Y-76251181D01*
X144187761Y-76381884D01*
X144256385Y-76520770D01*
X144348144Y-76648298D01*
X144351040Y-76651616D01*
X144410484Y-76745647D01*
X144424400Y-76821684D01*
X144418679Y-76892040D01*
X144400371Y-76915225D01*
X144367754Y-76891114D01*
X144319107Y-76819579D01*
X144315570Y-76813657D01*
X144250564Y-76708692D01*
X144194046Y-76625824D01*
X144150621Y-76571062D01*
X144124895Y-76550417D01*
X144119846Y-76558193D01*
X144134908Y-76596537D01*
X144173451Y-76657809D01*
X144209652Y-76706369D01*
X144256459Y-76773896D01*
X144283220Y-76829855D01*
X144285606Y-76854497D01*
X144273272Y-76893300D01*
X144272000Y-76901461D01*
X144257182Y-76891256D01*
X144219438Y-76852420D01*
X144192534Y-76822461D01*
X144143213Y-76756790D01*
X144117330Y-76689758D01*
X144106257Y-76597943D01*
X144105638Y-76586628D01*
X144096586Y-76491720D01*
X144081481Y-76406657D01*
X144070803Y-76369796D01*
X144046080Y-76278841D01*
X144044611Y-76204819D01*
X144065388Y-76158820D01*
X144090855Y-76149200D01*
X144124809Y-76162484D01*
X144124809Y-76162484D01*
G37*
X144124809Y-76162484D02*
X144144870Y-76209684D01*
X144151989Y-76251181D01*
X144187761Y-76381884D01*
X144256385Y-76520770D01*
X144348144Y-76648298D01*
X144351040Y-76651616D01*
X144410484Y-76745647D01*
X144424400Y-76821684D01*
X144418679Y-76892040D01*
X144400371Y-76915225D01*
X144367754Y-76891114D01*
X144319107Y-76819579D01*
X144315570Y-76813657D01*
X144250564Y-76708692D01*
X144194046Y-76625824D01*
X144150621Y-76571062D01*
X144124895Y-76550417D01*
X144119846Y-76558193D01*
X144134908Y-76596537D01*
X144173451Y-76657809D01*
X144209652Y-76706369D01*
X144256459Y-76773896D01*
X144283220Y-76829855D01*
X144285606Y-76854497D01*
X144273272Y-76893300D01*
X144272000Y-76901461D01*
X144257182Y-76891256D01*
X144219438Y-76852420D01*
X144192534Y-76822461D01*
X144143213Y-76756790D01*
X144117330Y-76689758D01*
X144106257Y-76597943D01*
X144105638Y-76586628D01*
X144096586Y-76491720D01*
X144081481Y-76406657D01*
X144070803Y-76369796D01*
X144046080Y-76278841D01*
X144044611Y-76204819D01*
X144065388Y-76158820D01*
X144090855Y-76149200D01*
X144124809Y-76162484D01*
G36*
X144358467Y-76077272D02*
X144377438Y-76153313D01*
X144397440Y-76264154D01*
X144421834Y-76371996D01*
X144455894Y-76475313D01*
X144487853Y-76543554D01*
X144560034Y-76665960D01*
X144604379Y-76748449D01*
X144621195Y-76793394D01*
X144610792Y-76803170D01*
X144573479Y-76780151D01*
X144511942Y-76728800D01*
X144422990Y-76628147D01*
X144351637Y-76504142D01*
X144302409Y-76370210D01*
X144279833Y-76239778D01*
X144288434Y-76126271D01*
X144298505Y-76095730D01*
X144321151Y-76052141D01*
X144340421Y-76044768D01*
X144358467Y-76077272D01*
X144358467Y-76077272D01*
G37*
X144358467Y-76077272D02*
X144377438Y-76153313D01*
X144397440Y-76264154D01*
X144421834Y-76371996D01*
X144455894Y-76475313D01*
X144487853Y-76543554D01*
X144560034Y-76665960D01*
X144604379Y-76748449D01*
X144621195Y-76793394D01*
X144610792Y-76803170D01*
X144573479Y-76780151D01*
X144511942Y-76728800D01*
X144422990Y-76628147D01*
X144351637Y-76504142D01*
X144302409Y-76370210D01*
X144279833Y-76239778D01*
X144288434Y-76126271D01*
X144298505Y-76095730D01*
X144321151Y-76052141D01*
X144340421Y-76044768D01*
X144358467Y-76077272D01*
G36*
X144356186Y-75747575D02*
X144373377Y-75776665D01*
X144402021Y-75835634D01*
X144445664Y-75929801D01*
X144487754Y-76034735D01*
X144516461Y-76133149D01*
X144526000Y-76200562D01*
X144532184Y-76262227D01*
X144556834Y-76315055D01*
X144609094Y-76375480D01*
X144640300Y-76405955D01*
X144700597Y-76469461D01*
X144741867Y-76524485D01*
X144754211Y-76554295D01*
X144748625Y-76578425D01*
X144733130Y-76561089D01*
X144694829Y-76539229D01*
X144676369Y-76541641D01*
X144639663Y-76530483D01*
X144592611Y-76483893D01*
X144543600Y-76413660D01*
X144501017Y-76331572D01*
X144475702Y-76259596D01*
X144450581Y-76161900D01*
X144462084Y-76262023D01*
X144485708Y-76347349D01*
X144531843Y-76440718D01*
X144551994Y-76471325D01*
X144599897Y-76547784D01*
X144613720Y-76599320D01*
X144607387Y-76621628D01*
X144588544Y-76641588D01*
X144565557Y-76626570D01*
X144532867Y-76577425D01*
X144470969Y-76447620D01*
X144428205Y-76290423D01*
X144411262Y-76187300D01*
X144390831Y-76088803D01*
X144360126Y-75993073D01*
X144348011Y-75965050D01*
X144324563Y-75906857D01*
X144319997Y-75873162D01*
X144324211Y-75869800D01*
X144355070Y-75892501D01*
X144388209Y-75951474D01*
X144416753Y-76033022D01*
X144426181Y-76073000D01*
X144437868Y-76125179D01*
X144443960Y-76129948D01*
X144446879Y-76094572D01*
X144437919Y-76034355D01*
X144411765Y-75951166D01*
X144387345Y-75892443D01*
X144355734Y-75818456D01*
X144337794Y-75764813D01*
X144336545Y-75745987D01*
X144345543Y-75740102D01*
X144356186Y-75747575D01*
X144356186Y-75747575D01*
G37*
X144356186Y-75747575D02*
X144373377Y-75776665D01*
X144402021Y-75835634D01*
X144445664Y-75929801D01*
X144487754Y-76034735D01*
X144516461Y-76133149D01*
X144526000Y-76200562D01*
X144532184Y-76262227D01*
X144556834Y-76315055D01*
X144609094Y-76375480D01*
X144640300Y-76405955D01*
X144700597Y-76469461D01*
X144741867Y-76524485D01*
X144754211Y-76554295D01*
X144748625Y-76578425D01*
X144733130Y-76561089D01*
X144694829Y-76539229D01*
X144676369Y-76541641D01*
X144639663Y-76530483D01*
X144592611Y-76483893D01*
X144543600Y-76413660D01*
X144501017Y-76331572D01*
X144475702Y-76259596D01*
X144450581Y-76161900D01*
X144462084Y-76262023D01*
X144485708Y-76347349D01*
X144531843Y-76440718D01*
X144551994Y-76471325D01*
X144599897Y-76547784D01*
X144613720Y-76599320D01*
X144607387Y-76621628D01*
X144588544Y-76641588D01*
X144565557Y-76626570D01*
X144532867Y-76577425D01*
X144470969Y-76447620D01*
X144428205Y-76290423D01*
X144411262Y-76187300D01*
X144390831Y-76088803D01*
X144360126Y-75993073D01*
X144348011Y-75965050D01*
X144324563Y-75906857D01*
X144319997Y-75873162D01*
X144324211Y-75869800D01*
X144355070Y-75892501D01*
X144388209Y-75951474D01*
X144416753Y-76033022D01*
X144426181Y-76073000D01*
X144437868Y-76125179D01*
X144443960Y-76129948D01*
X144446879Y-76094572D01*
X144437919Y-76034355D01*
X144411765Y-75951166D01*
X144387345Y-75892443D01*
X144355734Y-75818456D01*
X144337794Y-75764813D01*
X144336545Y-75745987D01*
X144345543Y-75740102D01*
X144356186Y-75747575D01*
G36*
X144209090Y-76121001D02*
X144238309Y-76177671D01*
X144247202Y-76236829D01*
X144257229Y-76301887D01*
X144282598Y-76391181D01*
X144309910Y-76465376D01*
X144346166Y-76559560D01*
X144360740Y-76611963D01*
X144353747Y-76621351D01*
X144325303Y-76586488D01*
X144301975Y-76550303D01*
X144260906Y-76472701D01*
X144222504Y-76381060D01*
X144190115Y-76286722D01*
X144167086Y-76201029D01*
X144156766Y-76135320D01*
X144162501Y-76100939D01*
X144168599Y-76098400D01*
X144209090Y-76121001D01*
X144209090Y-76121001D01*
G37*
X144209090Y-76121001D02*
X144238309Y-76177671D01*
X144247202Y-76236829D01*
X144257229Y-76301887D01*
X144282598Y-76391181D01*
X144309910Y-76465376D01*
X144346166Y-76559560D01*
X144360740Y-76611963D01*
X144353747Y-76621351D01*
X144325303Y-76586488D01*
X144301975Y-76550303D01*
X144260906Y-76472701D01*
X144222504Y-76381060D01*
X144190115Y-76286722D01*
X144167086Y-76201029D01*
X144156766Y-76135320D01*
X144162501Y-76100939D01*
X144168599Y-76098400D01*
X144209090Y-76121001D01*
G36*
X143940954Y-76255306D02*
X143938343Y-76342074D01*
X143925278Y-76395907D01*
X143895831Y-76434466D01*
X143874874Y-76452156D01*
X143804758Y-76490972D01*
X143734326Y-76505000D01*
X143682555Y-76490776D01*
X143679333Y-76487866D01*
X143663126Y-76451202D01*
X143691641Y-76430131D01*
X143709263Y-76428600D01*
X143769108Y-76406549D01*
X143818402Y-76352973D01*
X143840141Y-76286732D01*
X143840200Y-76283363D01*
X143855992Y-76226309D01*
X143890154Y-76171063D01*
X143940109Y-76111100D01*
X143940954Y-76255306D01*
X143940954Y-76255306D01*
G37*
X143940954Y-76255306D02*
X143938343Y-76342074D01*
X143925278Y-76395907D01*
X143895831Y-76434466D01*
X143874874Y-76452156D01*
X143804758Y-76490972D01*
X143734326Y-76505000D01*
X143682555Y-76490776D01*
X143679333Y-76487866D01*
X143663126Y-76451202D01*
X143691641Y-76430131D01*
X143709263Y-76428600D01*
X143769108Y-76406549D01*
X143818402Y-76352973D01*
X143840141Y-76286732D01*
X143840200Y-76283363D01*
X143855992Y-76226309D01*
X143890154Y-76171063D01*
X143940109Y-76111100D01*
X143940954Y-76255306D01*
G36*
X145425058Y-75408566D02*
X145481923Y-75435941D01*
X145548035Y-75466303D01*
X145587187Y-75458831D01*
X145587910Y-75458129D01*
X145611856Y-75450889D01*
X145648261Y-75471187D01*
X145702541Y-75523483D01*
X145780112Y-75612237D01*
X145791295Y-75625611D01*
X145841240Y-75670635D01*
X145883318Y-75683139D01*
X145886545Y-75682183D01*
X145918303Y-75681044D01*
X145923000Y-75689834D01*
X145902978Y-75719287D01*
X145854401Y-75727194D01*
X145794502Y-75714013D01*
X145745883Y-75685134D01*
X145712133Y-75657822D01*
X145708728Y-75659990D01*
X145713450Y-75665710D01*
X145745226Y-75720394D01*
X145740475Y-75755795D01*
X145708253Y-75761672D01*
X145658114Y-75728285D01*
X145627556Y-75706945D01*
X145618200Y-75714086D01*
X145636750Y-75750311D01*
X145643600Y-75755499D01*
X145668721Y-75786733D01*
X145656833Y-75810013D01*
X145624550Y-75808952D01*
X145612341Y-75811304D01*
X145637090Y-75836343D01*
X145649950Y-75846453D01*
X145700159Y-75901095D01*
X145717794Y-75954468D01*
X145712616Y-75987206D01*
X145700974Y-75971400D01*
X145649606Y-75907590D01*
X145556292Y-75865324D01*
X145523680Y-75857887D01*
X145453601Y-75830120D01*
X145403030Y-75786934D01*
X145371602Y-75718447D01*
X145367096Y-75652687D01*
X145389580Y-75607036D01*
X145402300Y-75599585D01*
X145437454Y-75569755D01*
X145428958Y-75532373D01*
X145380371Y-75498632D01*
X145368767Y-75494198D01*
X145274780Y-75487456D01*
X145170495Y-75525716D01*
X145097500Y-75576421D01*
X145063071Y-75605979D01*
X145069092Y-75607364D01*
X145102180Y-75591801D01*
X145164116Y-75571579D01*
X145225604Y-75565561D01*
X145270384Y-75573485D01*
X145282337Y-75594688D01*
X145253904Y-75621158D01*
X145195274Y-75650527D01*
X145174939Y-75658133D01*
X145079355Y-75698347D01*
X145026563Y-75740550D01*
X145008757Y-75791287D01*
X145008600Y-75797603D01*
X145015336Y-75830580D01*
X145044766Y-75826348D01*
X145061116Y-75818081D01*
X145088311Y-75805774D01*
X145102586Y-75811808D01*
X145106132Y-75845412D01*
X145101137Y-75915813D01*
X145096263Y-75966246D01*
X145078894Y-76142517D01*
X145172657Y-76246301D01*
X145228297Y-76314800D01*
X145249089Y-76361648D01*
X145243137Y-76391687D01*
X145225874Y-76407846D01*
X145200077Y-76397330D01*
X145158214Y-76354779D01*
X145110920Y-76297595D01*
X145047946Y-76212860D01*
X144993708Y-76128939D01*
X144964220Y-76073052D01*
X144940804Y-75973390D01*
X144938897Y-75895200D01*
X144983200Y-75895200D01*
X144992493Y-75916107D01*
X145000133Y-75912133D01*
X145003173Y-75881989D01*
X145000133Y-75878266D01*
X144985033Y-75881753D01*
X144983200Y-75895200D01*
X144938897Y-75895200D01*
X144937776Y-75849279D01*
X144953543Y-75722070D01*
X144986513Y-75613113D01*
X145000604Y-75585301D01*
X145085401Y-75481603D01*
X145191178Y-75415481D01*
X145307782Y-75390085D01*
X145425058Y-75408566D01*
X145425058Y-75408566D01*
G37*
X145425058Y-75408566D02*
X145481923Y-75435941D01*
X145548035Y-75466303D01*
X145587187Y-75458831D01*
X145587910Y-75458129D01*
X145611856Y-75450889D01*
X145648261Y-75471187D01*
X145702541Y-75523483D01*
X145780112Y-75612237D01*
X145791295Y-75625611D01*
X145841240Y-75670635D01*
X145883318Y-75683139D01*
X145886545Y-75682183D01*
X145918303Y-75681044D01*
X145923000Y-75689834D01*
X145902978Y-75719287D01*
X145854401Y-75727194D01*
X145794502Y-75714013D01*
X145745883Y-75685134D01*
X145712133Y-75657822D01*
X145708728Y-75659990D01*
X145713450Y-75665710D01*
X145745226Y-75720394D01*
X145740475Y-75755795D01*
X145708253Y-75761672D01*
X145658114Y-75728285D01*
X145627556Y-75706945D01*
X145618200Y-75714086D01*
X145636750Y-75750311D01*
X145643600Y-75755499D01*
X145668721Y-75786733D01*
X145656833Y-75810013D01*
X145624550Y-75808952D01*
X145612341Y-75811304D01*
X145637090Y-75836343D01*
X145649950Y-75846453D01*
X145700159Y-75901095D01*
X145717794Y-75954468D01*
X145712616Y-75987206D01*
X145700974Y-75971400D01*
X145649606Y-75907590D01*
X145556292Y-75865324D01*
X145523680Y-75857887D01*
X145453601Y-75830120D01*
X145403030Y-75786934D01*
X145371602Y-75718447D01*
X145367096Y-75652687D01*
X145389580Y-75607036D01*
X145402300Y-75599585D01*
X145437454Y-75569755D01*
X145428958Y-75532373D01*
X145380371Y-75498632D01*
X145368767Y-75494198D01*
X145274780Y-75487456D01*
X145170495Y-75525716D01*
X145097500Y-75576421D01*
X145063071Y-75605979D01*
X145069092Y-75607364D01*
X145102180Y-75591801D01*
X145164116Y-75571579D01*
X145225604Y-75565561D01*
X145270384Y-75573485D01*
X145282337Y-75594688D01*
X145253904Y-75621158D01*
X145195274Y-75650527D01*
X145174939Y-75658133D01*
X145079355Y-75698347D01*
X145026563Y-75740550D01*
X145008757Y-75791287D01*
X145008600Y-75797603D01*
X145015336Y-75830580D01*
X145044766Y-75826348D01*
X145061116Y-75818081D01*
X145088311Y-75805774D01*
X145102586Y-75811808D01*
X145106132Y-75845412D01*
X145101137Y-75915813D01*
X145096263Y-75966246D01*
X145078894Y-76142517D01*
X145172657Y-76246301D01*
X145228297Y-76314800D01*
X145249089Y-76361648D01*
X145243137Y-76391687D01*
X145225874Y-76407846D01*
X145200077Y-76397330D01*
X145158214Y-76354779D01*
X145110920Y-76297595D01*
X145047946Y-76212860D01*
X144993708Y-76128939D01*
X144964220Y-76073052D01*
X144940804Y-75973390D01*
X144938897Y-75895200D01*
X144983200Y-75895200D01*
X144992493Y-75916107D01*
X145000133Y-75912133D01*
X145003173Y-75881989D01*
X145000133Y-75878266D01*
X144985033Y-75881753D01*
X144983200Y-75895200D01*
X144938897Y-75895200D01*
X144937776Y-75849279D01*
X144953543Y-75722070D01*
X144986513Y-75613113D01*
X145000604Y-75585301D01*
X145085401Y-75481603D01*
X145191178Y-75415481D01*
X145307782Y-75390085D01*
X145425058Y-75408566D01*
G36*
X143385461Y-76208243D02*
X143441386Y-76245334D01*
X143452951Y-76257150D01*
X143506358Y-76314300D01*
X143370213Y-76316280D01*
X143284593Y-76313020D01*
X143215257Y-76302515D01*
X143190589Y-76293928D01*
X143168041Y-76275151D01*
X143182816Y-76256868D01*
X143229871Y-76234798D01*
X143320088Y-76205245D01*
X143385461Y-76208243D01*
X143385461Y-76208243D01*
G37*
X143385461Y-76208243D02*
X143441386Y-76245334D01*
X143452951Y-76257150D01*
X143506358Y-76314300D01*
X143370213Y-76316280D01*
X143284593Y-76313020D01*
X143215257Y-76302515D01*
X143190589Y-76293928D01*
X143168041Y-76275151D01*
X143182816Y-76256868D01*
X143229871Y-76234798D01*
X143320088Y-76205245D01*
X143385461Y-76208243D01*
G36*
X144621195Y-76122587D02*
X144660962Y-76161114D01*
X144694380Y-76170199D01*
X144743680Y-76152742D01*
X144767245Y-76141641D01*
X144830359Y-76119150D01*
X144854104Y-76128034D01*
X144836530Y-76165309D01*
X144805400Y-76200000D01*
X144740999Y-76238314D01*
X144665056Y-76249313D01*
X144598857Y-76231677D01*
X144577960Y-76214098D01*
X144556797Y-76160606D01*
X144555800Y-76119255D01*
X144564100Y-76061114D01*
X144621195Y-76122587D01*
X144621195Y-76122587D01*
G37*
X144621195Y-76122587D02*
X144660962Y-76161114D01*
X144694380Y-76170199D01*
X144743680Y-76152742D01*
X144767245Y-76141641D01*
X144830359Y-76119150D01*
X144854104Y-76128034D01*
X144836530Y-76165309D01*
X144805400Y-76200000D01*
X144740999Y-76238314D01*
X144665056Y-76249313D01*
X144598857Y-76231677D01*
X144577960Y-76214098D01*
X144556797Y-76160606D01*
X144555800Y-76119255D01*
X144564100Y-76061114D01*
X144621195Y-76122587D01*
G36*
X144436071Y-75724186D02*
X144442288Y-75735232D01*
X144488516Y-75819686D01*
X144558876Y-75902876D01*
X144634545Y-75963171D01*
X144646021Y-75969315D01*
X144697920Y-76001996D01*
X144720494Y-76030865D01*
X144720231Y-76034900D01*
X144689208Y-76062841D01*
X144632930Y-76063886D01*
X144568579Y-76039060D01*
X144547487Y-76024574D01*
X144505812Y-75977704D01*
X144464430Y-75909406D01*
X144430068Y-75834746D01*
X144409453Y-75768791D01*
X144409313Y-75726609D01*
X144412487Y-75722206D01*
X144436071Y-75724186D01*
X144436071Y-75724186D01*
G37*
X144436071Y-75724186D02*
X144442288Y-75735232D01*
X144488516Y-75819686D01*
X144558876Y-75902876D01*
X144634545Y-75963171D01*
X144646021Y-75969315D01*
X144697920Y-76001996D01*
X144720494Y-76030865D01*
X144720231Y-76034900D01*
X144689208Y-76062841D01*
X144632930Y-76063886D01*
X144568579Y-76039060D01*
X144547487Y-76024574D01*
X144505812Y-75977704D01*
X144464430Y-75909406D01*
X144430068Y-75834746D01*
X144409453Y-75768791D01*
X144409313Y-75726609D01*
X144412487Y-75722206D01*
X144436071Y-75724186D01*
G36*
X143755533Y-75929066D02*
X143758573Y-75959210D01*
X143755533Y-75962933D01*
X143740433Y-75959446D01*
X143738600Y-75946000D01*
X143747893Y-75925092D01*
X143755533Y-75929066D01*
X143755533Y-75929066D01*
G37*
X143755533Y-75929066D02*
X143758573Y-75959210D01*
X143755533Y-75962933D01*
X143740433Y-75959446D01*
X143738600Y-75946000D01*
X143747893Y-75925092D01*
X143755533Y-75929066D01*
G36*
X143839908Y-75940251D02*
X143840200Y-75946000D01*
X143820673Y-75970423D01*
X143813300Y-75971400D01*
X143798131Y-75955839D01*
X143802100Y-75946000D01*
X143824924Y-75921768D01*
X143828999Y-75920600D01*
X143839908Y-75940251D01*
X143839908Y-75940251D01*
G37*
X143839908Y-75940251D02*
X143840200Y-75946000D01*
X143820673Y-75970423D01*
X143813300Y-75971400D01*
X143798131Y-75955839D01*
X143802100Y-75946000D01*
X143824924Y-75921768D01*
X143828999Y-75920600D01*
X143839908Y-75940251D01*
G36*
X144531146Y-75735828D02*
X144537293Y-75741478D01*
X144599725Y-75783020D01*
X144663600Y-75783695D01*
X144664293Y-75783522D01*
X144711793Y-75778096D01*
X144727997Y-75803246D01*
X144729200Y-75828498D01*
X144708358Y-75888129D01*
X144648080Y-75917748D01*
X144612449Y-75920600D01*
X144576602Y-75900629D01*
X144534257Y-75851279D01*
X144525721Y-75838050D01*
X144486888Y-75764474D01*
X144475240Y-75719638D01*
X144490189Y-75708452D01*
X144531146Y-75735828D01*
X144531146Y-75735828D01*
G37*
X144531146Y-75735828D02*
X144537293Y-75741478D01*
X144599725Y-75783020D01*
X144663600Y-75783695D01*
X144664293Y-75783522D01*
X144711793Y-75778096D01*
X144727997Y-75803246D01*
X144729200Y-75828498D01*
X144708358Y-75888129D01*
X144648080Y-75917748D01*
X144612449Y-75920600D01*
X144576602Y-75900629D01*
X144534257Y-75851279D01*
X144525721Y-75838050D01*
X144486888Y-75764474D01*
X144475240Y-75719638D01*
X144490189Y-75708452D01*
X144531146Y-75735828D01*
G36*
X143253693Y-75653541D02*
X143284028Y-75683387D01*
X143275173Y-75719972D01*
X143262424Y-75731547D01*
X143233390Y-75769955D01*
X143249534Y-75804360D01*
X143305236Y-75830894D01*
X143394875Y-75845684D01*
X143430560Y-75847320D01*
X143510056Y-75849284D01*
X143542332Y-75852288D01*
X143530955Y-75858400D01*
X143479495Y-75869685D01*
X143471900Y-75871257D01*
X143334356Y-75891912D01*
X143221553Y-75893324D01*
X143141455Y-75876038D01*
X143104493Y-75846069D01*
X143079345Y-75763247D01*
X143093186Y-75694624D01*
X143141366Y-75651028D01*
X143192500Y-75641200D01*
X143253693Y-75653541D01*
X143253693Y-75653541D01*
G37*
X143253693Y-75653541D02*
X143284028Y-75683387D01*
X143275173Y-75719972D01*
X143262424Y-75731547D01*
X143233390Y-75769955D01*
X143249534Y-75804360D01*
X143305236Y-75830894D01*
X143394875Y-75845684D01*
X143430560Y-75847320D01*
X143510056Y-75849284D01*
X143542332Y-75852288D01*
X143530955Y-75858400D01*
X143479495Y-75869685D01*
X143471900Y-75871257D01*
X143334356Y-75891912D01*
X143221553Y-75893324D01*
X143141455Y-75876038D01*
X143104493Y-75846069D01*
X143079345Y-75763247D01*
X143093186Y-75694624D01*
X143141366Y-75651028D01*
X143192500Y-75641200D01*
X143253693Y-75653541D01*
G36*
X143722745Y-75007104D02*
X143765028Y-75036376D01*
X143824800Y-75100291D01*
X143840200Y-75163376D01*
X143849656Y-75217269D01*
X143883362Y-75234622D01*
X143889500Y-75234799D01*
X143943148Y-75219408D01*
X143959194Y-75181609D01*
X143942753Y-75147048D01*
X143931597Y-75109213D01*
X143955256Y-75087787D01*
X143994629Y-75096354D01*
X144027609Y-75091065D01*
X144059570Y-75059753D01*
X144102878Y-75021225D01*
X144151120Y-75007195D01*
X144187104Y-75019613D01*
X144195800Y-75044300D01*
X144209515Y-75078101D01*
X144221200Y-75082400D01*
X144244084Y-75102817D01*
X144246600Y-75118383D01*
X144265577Y-75157697D01*
X144278350Y-75165056D01*
X144301229Y-75195403D01*
X144310100Y-75249170D01*
X144324187Y-75306101D01*
X144356637Y-75334195D01*
X144392726Y-75328104D01*
X144416462Y-75287809D01*
X144440411Y-75245385D01*
X144462287Y-75234800D01*
X144508693Y-75230063D01*
X144573625Y-75218925D01*
X144634131Y-75216356D01*
X144652479Y-75233149D01*
X144625811Y-75257671D01*
X144586502Y-75271382D01*
X144542671Y-75287671D01*
X144533616Y-75301682D01*
X144528971Y-75327018D01*
X144502773Y-75367047D01*
X144470342Y-75401522D01*
X144450505Y-75411526D01*
X144421732Y-75401936D01*
X144360391Y-75378076D01*
X144292811Y-75350498D01*
X144215106Y-75321142D01*
X144157475Y-75304825D01*
X144134659Y-75304407D01*
X144115444Y-75297857D01*
X144106772Y-75281727D01*
X144086112Y-75261565D01*
X144037633Y-75252919D01*
X143951180Y-75254299D01*
X143928859Y-75255620D01*
X143840142Y-75260174D01*
X143788607Y-75256667D01*
X143760772Y-75240706D01*
X143743152Y-75207898D01*
X143737527Y-75193278D01*
X143704163Y-75112627D01*
X143675489Y-75050650D01*
X143657315Y-74998434D01*
X143673104Y-74983913D01*
X143722745Y-75007104D01*
X143722745Y-75007104D01*
G37*
X143722745Y-75007104D02*
X143765028Y-75036376D01*
X143824800Y-75100291D01*
X143840200Y-75163376D01*
X143849656Y-75217269D01*
X143883362Y-75234622D01*
X143889500Y-75234799D01*
X143943148Y-75219408D01*
X143959194Y-75181609D01*
X143942753Y-75147048D01*
X143931597Y-75109213D01*
X143955256Y-75087787D01*
X143994629Y-75096354D01*
X144027609Y-75091065D01*
X144059570Y-75059753D01*
X144102878Y-75021225D01*
X144151120Y-75007195D01*
X144187104Y-75019613D01*
X144195800Y-75044300D01*
X144209515Y-75078101D01*
X144221200Y-75082400D01*
X144244084Y-75102817D01*
X144246600Y-75118383D01*
X144265577Y-75157697D01*
X144278350Y-75165056D01*
X144301229Y-75195403D01*
X144310100Y-75249170D01*
X144324187Y-75306101D01*
X144356637Y-75334195D01*
X144392726Y-75328104D01*
X144416462Y-75287809D01*
X144440411Y-75245385D01*
X144462287Y-75234800D01*
X144508693Y-75230063D01*
X144573625Y-75218925D01*
X144634131Y-75216356D01*
X144652479Y-75233149D01*
X144625811Y-75257671D01*
X144586502Y-75271382D01*
X144542671Y-75287671D01*
X144533616Y-75301682D01*
X144528971Y-75327018D01*
X144502773Y-75367047D01*
X144470342Y-75401522D01*
X144450505Y-75411526D01*
X144421732Y-75401936D01*
X144360391Y-75378076D01*
X144292811Y-75350498D01*
X144215106Y-75321142D01*
X144157475Y-75304825D01*
X144134659Y-75304407D01*
X144115444Y-75297857D01*
X144106772Y-75281727D01*
X144086112Y-75261565D01*
X144037633Y-75252919D01*
X143951180Y-75254299D01*
X143928859Y-75255620D01*
X143840142Y-75260174D01*
X143788607Y-75256667D01*
X143760772Y-75240706D01*
X143743152Y-75207898D01*
X143737527Y-75193278D01*
X143704163Y-75112627D01*
X143675489Y-75050650D01*
X143657315Y-74998434D01*
X143673104Y-74983913D01*
X143722745Y-75007104D01*
G36*
X143907933Y-75471866D02*
X143910973Y-75502010D01*
X143907933Y-75505733D01*
X143892833Y-75502246D01*
X143891000Y-75488800D01*
X143900293Y-75467892D01*
X143907933Y-75471866D01*
X143907933Y-75471866D01*
G37*
X143907933Y-75471866D02*
X143910973Y-75502010D01*
X143907933Y-75505733D01*
X143892833Y-75502246D01*
X143891000Y-75488800D01*
X143900293Y-75467892D01*
X143907933Y-75471866D01*
G36*
X143967200Y-75501500D02*
X143954500Y-75514200D01*
X143941800Y-75501500D01*
X143954500Y-75488800D01*
X143967200Y-75501500D01*
X143967200Y-75501500D01*
G37*
X143967200Y-75501500D02*
X143954500Y-75514200D01*
X143941800Y-75501500D01*
X143954500Y-75488800D01*
X143967200Y-75501500D01*
D16*
X202486381Y-114874524D02*
X202486381Y-113604524D01*
X203212095Y-114874524D01*
X203212095Y-113604524D01*
X204361143Y-113604524D02*
X204119238Y-113604524D01*
X203998286Y-113665000D01*
X203937809Y-113725476D01*
X203816857Y-113906905D01*
X203756381Y-114148810D01*
X203756381Y-114632619D01*
X203816857Y-114753571D01*
X203877333Y-114814048D01*
X203998286Y-114874524D01*
X204240190Y-114874524D01*
X204361143Y-114814048D01*
X204421619Y-114753571D01*
X204482095Y-114632619D01*
X204482095Y-114330238D01*
X204421619Y-114209286D01*
X204361143Y-114148810D01*
X204240190Y-114088333D01*
X203998286Y-114088333D01*
X203877333Y-114148810D01*
X203816857Y-114209286D01*
X203756381Y-114330238D01*
X184452381Y-114874524D02*
X184452381Y-113604524D01*
X185178095Y-114874524D01*
X185178095Y-113604524D01*
X186387619Y-113604524D02*
X185782857Y-113604524D01*
X185722381Y-114209286D01*
X185782857Y-114148810D01*
X185903809Y-114088333D01*
X186206190Y-114088333D01*
X186327143Y-114148810D01*
X186387619Y-114209286D01*
X186448095Y-114330238D01*
X186448095Y-114632619D01*
X186387619Y-114753571D01*
X186327143Y-114814048D01*
X186206190Y-114874524D01*
X185903809Y-114874524D01*
X185782857Y-114814048D01*
X185722381Y-114753571D01*
X157020381Y-114874524D02*
X157020381Y-113604524D01*
X157746095Y-114874524D01*
X157746095Y-113604524D01*
X158895143Y-114027857D02*
X158895143Y-114874524D01*
X158592762Y-113544048D02*
X158290381Y-114451190D01*
X159076571Y-114451190D01*
X140002381Y-114874524D02*
X140002381Y-113604524D01*
X140728095Y-114874524D01*
X140728095Y-113604524D01*
X141211905Y-113604524D02*
X141998095Y-113604524D01*
X141574762Y-114088333D01*
X141756190Y-114088333D01*
X141877143Y-114148810D01*
X141937619Y-114209286D01*
X141998095Y-114330238D01*
X141998095Y-114632619D01*
X141937619Y-114753571D01*
X141877143Y-114814048D01*
X141756190Y-114874524D01*
X141393333Y-114874524D01*
X141272381Y-114814048D01*
X141211905Y-114753571D01*
X112316381Y-114874524D02*
X112316381Y-113604524D01*
X113042095Y-114874524D01*
X113042095Y-113604524D01*
X113586381Y-113725476D02*
X113646857Y-113665000D01*
X113767809Y-113604524D01*
X114070190Y-113604524D01*
X114191143Y-113665000D01*
X114251619Y-113725476D01*
X114312095Y-113846429D01*
X114312095Y-113967381D01*
X114251619Y-114148810D01*
X113525905Y-114874524D01*
X114312095Y-114874524D01*
X94917381Y-114874524D02*
X94917381Y-113604524D01*
X95643095Y-114874524D01*
X95643095Y-113604524D01*
X96913095Y-114874524D02*
X96187381Y-114874524D01*
X96550238Y-114874524D02*
X96550238Y-113604524D01*
X96429286Y-113785952D01*
X96308333Y-113906905D01*
X96187381Y-113967381D01*
D14*
X88923905Y-109926381D02*
X88923905Y-108926381D01*
X89162000Y-108926381D01*
X89304858Y-108974000D01*
X89400096Y-109069238D01*
X89447715Y-109164476D01*
X89495334Y-109354952D01*
X89495334Y-109497810D01*
X89447715Y-109688286D01*
X89400096Y-109783524D01*
X89304858Y-109878762D01*
X89162000Y-109926381D01*
X88923905Y-109926381D01*
X90447715Y-109926381D02*
X89876286Y-109926381D01*
X90162000Y-109926381D02*
X90162000Y-108926381D01*
X90066762Y-109069238D01*
X89971524Y-109164476D01*
X89876286Y-109212095D01*
X106449905Y-109672381D02*
X106449905Y-108672381D01*
X106688000Y-108672381D01*
X106830858Y-108720000D01*
X106926096Y-108815238D01*
X106973715Y-108910476D01*
X107021334Y-109100952D01*
X107021334Y-109243810D01*
X106973715Y-109434286D01*
X106926096Y-109529524D01*
X106830858Y-109624762D01*
X106688000Y-109672381D01*
X106449905Y-109672381D01*
X107402286Y-108767619D02*
X107449905Y-108720000D01*
X107545143Y-108672381D01*
X107783239Y-108672381D01*
X107878477Y-108720000D01*
X107926096Y-108767619D01*
X107973715Y-108862857D01*
X107973715Y-108958095D01*
X107926096Y-109100952D01*
X107354667Y-109672381D01*
X107973715Y-109672381D01*
X196619905Y-109672381D02*
X196619905Y-108672381D01*
X196858000Y-108672381D01*
X197000858Y-108720000D01*
X197096096Y-108815238D01*
X197143715Y-108910476D01*
X197191334Y-109100952D01*
X197191334Y-109243810D01*
X197143715Y-109434286D01*
X197096096Y-109529524D01*
X197000858Y-109624762D01*
X196858000Y-109672381D01*
X196619905Y-109672381D01*
X197524667Y-108672381D02*
X198143715Y-108672381D01*
X197810381Y-109053333D01*
X197953239Y-109053333D01*
X198048477Y-109100952D01*
X198096096Y-109148571D01*
X198143715Y-109243810D01*
X198143715Y-109481905D01*
X198096096Y-109577143D01*
X198048477Y-109624762D01*
X197953239Y-109672381D01*
X197667524Y-109672381D01*
X197572286Y-109624762D01*
X197524667Y-109577143D01*
X133881905Y-109672381D02*
X133881905Y-108672381D01*
X134120000Y-108672381D01*
X134262858Y-108720000D01*
X134358096Y-108815238D01*
X134405715Y-108910476D01*
X134453334Y-109100952D01*
X134453334Y-109243810D01*
X134405715Y-109434286D01*
X134358096Y-109529524D01*
X134262858Y-109624762D01*
X134120000Y-109672381D01*
X133881905Y-109672381D01*
X135310477Y-109005714D02*
X135310477Y-109672381D01*
X135072381Y-108624762D02*
X134834286Y-109339048D01*
X135453334Y-109339048D01*
X179093905Y-109672381D02*
X179093905Y-108672381D01*
X179332000Y-108672381D01*
X179474858Y-108720000D01*
X179570096Y-108815238D01*
X179617715Y-108910476D01*
X179665334Y-109100952D01*
X179665334Y-109243810D01*
X179617715Y-109434286D01*
X179570096Y-109529524D01*
X179474858Y-109624762D01*
X179332000Y-109672381D01*
X179093905Y-109672381D01*
X180570096Y-108672381D02*
X180093905Y-108672381D01*
X180046286Y-109148571D01*
X180093905Y-109100952D01*
X180189143Y-109053333D01*
X180427239Y-109053333D01*
X180522477Y-109100952D01*
X180570096Y-109148571D01*
X180617715Y-109243810D01*
X180617715Y-109481905D01*
X180570096Y-109577143D01*
X180522477Y-109624762D01*
X180427239Y-109672381D01*
X180189143Y-109672381D01*
X180093905Y-109624762D01*
X180046286Y-109577143D01*
X151661905Y-109672381D02*
X151661905Y-108672381D01*
X151900000Y-108672381D01*
X152042858Y-108720000D01*
X152138096Y-108815238D01*
X152185715Y-108910476D01*
X152233334Y-109100952D01*
X152233334Y-109243810D01*
X152185715Y-109434286D01*
X152138096Y-109529524D01*
X152042858Y-109624762D01*
X151900000Y-109672381D01*
X151661905Y-109672381D01*
X153090477Y-108672381D02*
X152900000Y-108672381D01*
X152804762Y-108720000D01*
X152757143Y-108767619D01*
X152661905Y-108910476D01*
X152614286Y-109100952D01*
X152614286Y-109481905D01*
X152661905Y-109577143D01*
X152709524Y-109624762D01*
X152804762Y-109672381D01*
X152995239Y-109672381D01*
X153090477Y-109624762D01*
X153138096Y-109577143D01*
X153185715Y-109481905D01*
X153185715Y-109243810D01*
X153138096Y-109148571D01*
X153090477Y-109100952D01*
X152995239Y-109053333D01*
X152804762Y-109053333D01*
X152709524Y-109100952D01*
X152661905Y-109148571D01*
X152614286Y-109243810D01*
X80938810Y-80582381D02*
X80938810Y-79582381D01*
X81986429Y-80487143D02*
X81938810Y-80534762D01*
X81795953Y-80582381D01*
X81700715Y-80582381D01*
X81557857Y-80534762D01*
X81462619Y-80439524D01*
X81415000Y-80344286D01*
X81367381Y-80153810D01*
X81367381Y-80010952D01*
X81415000Y-79820476D01*
X81462619Y-79725238D01*
X81557857Y-79630000D01*
X81700715Y-79582381D01*
X81795953Y-79582381D01*
X81938810Y-79630000D01*
X81986429Y-79677619D01*
X82938810Y-80582381D02*
X82367381Y-80582381D01*
X82653095Y-80582381D02*
X82653095Y-79582381D01*
X82557857Y-79725238D01*
X82462619Y-79820476D01*
X82367381Y-79868095D01*
X98938810Y-80582381D02*
X98938810Y-79582381D01*
X99986429Y-80487143D02*
X99938810Y-80534762D01*
X99795953Y-80582381D01*
X99700715Y-80582381D01*
X99557857Y-80534762D01*
X99462619Y-80439524D01*
X99415000Y-80344286D01*
X99367381Y-80153810D01*
X99367381Y-80010952D01*
X99415000Y-79820476D01*
X99462619Y-79725238D01*
X99557857Y-79630000D01*
X99700715Y-79582381D01*
X99795953Y-79582381D01*
X99938810Y-79630000D01*
X99986429Y-79677619D01*
X100367381Y-79677619D02*
X100415000Y-79630000D01*
X100510238Y-79582381D01*
X100748334Y-79582381D01*
X100843572Y-79630000D01*
X100891191Y-79677619D01*
X100938810Y-79772857D01*
X100938810Y-79868095D01*
X100891191Y-80010952D01*
X100319762Y-80582381D01*
X100938810Y-80582381D01*
X116938810Y-80582381D02*
X116938810Y-79582381D01*
X117986429Y-80487143D02*
X117938810Y-80534762D01*
X117795953Y-80582381D01*
X117700715Y-80582381D01*
X117557857Y-80534762D01*
X117462619Y-80439524D01*
X117415000Y-80344286D01*
X117367381Y-80153810D01*
X117367381Y-80010952D01*
X117415000Y-79820476D01*
X117462619Y-79725238D01*
X117557857Y-79630000D01*
X117700715Y-79582381D01*
X117795953Y-79582381D01*
X117938810Y-79630000D01*
X117986429Y-79677619D01*
X118319762Y-79582381D02*
X118938810Y-79582381D01*
X118605476Y-79963333D01*
X118748334Y-79963333D01*
X118843572Y-80010952D01*
X118891191Y-80058571D01*
X118938810Y-80153810D01*
X118938810Y-80391905D01*
X118891191Y-80487143D01*
X118843572Y-80534762D01*
X118748334Y-80582381D01*
X118462619Y-80582381D01*
X118367381Y-80534762D01*
X118319762Y-80487143D01*
X134938810Y-80582381D02*
X134938810Y-79582381D01*
X135986429Y-80487143D02*
X135938810Y-80534762D01*
X135795953Y-80582381D01*
X135700715Y-80582381D01*
X135557857Y-80534762D01*
X135462619Y-80439524D01*
X135415000Y-80344286D01*
X135367381Y-80153810D01*
X135367381Y-80010952D01*
X135415000Y-79820476D01*
X135462619Y-79725238D01*
X135557857Y-79630000D01*
X135700715Y-79582381D01*
X135795953Y-79582381D01*
X135938810Y-79630000D01*
X135986429Y-79677619D01*
X136843572Y-79915714D02*
X136843572Y-80582381D01*
X136605476Y-79534762D02*
X136367381Y-80249048D01*
X136986429Y-80249048D01*
X152938810Y-80582381D02*
X152938810Y-79582381D01*
X153986429Y-80487143D02*
X153938810Y-80534762D01*
X153795953Y-80582381D01*
X153700715Y-80582381D01*
X153557857Y-80534762D01*
X153462619Y-80439524D01*
X153415000Y-80344286D01*
X153367381Y-80153810D01*
X153367381Y-80010952D01*
X153415000Y-79820476D01*
X153462619Y-79725238D01*
X153557857Y-79630000D01*
X153700715Y-79582381D01*
X153795953Y-79582381D01*
X153938810Y-79630000D01*
X153986429Y-79677619D01*
X154891191Y-79582381D02*
X154415000Y-79582381D01*
X154367381Y-80058571D01*
X154415000Y-80010952D01*
X154510238Y-79963333D01*
X154748334Y-79963333D01*
X154843572Y-80010952D01*
X154891191Y-80058571D01*
X154938810Y-80153810D01*
X154938810Y-80391905D01*
X154891191Y-80487143D01*
X154843572Y-80534762D01*
X154748334Y-80582381D01*
X154510238Y-80582381D01*
X154415000Y-80534762D01*
X154367381Y-80487143D01*
X170938810Y-80582381D02*
X170938810Y-79582381D01*
X171986429Y-80487143D02*
X171938810Y-80534762D01*
X171795953Y-80582381D01*
X171700715Y-80582381D01*
X171557857Y-80534762D01*
X171462619Y-80439524D01*
X171415000Y-80344286D01*
X171367381Y-80153810D01*
X171367381Y-80010952D01*
X171415000Y-79820476D01*
X171462619Y-79725238D01*
X171557857Y-79630000D01*
X171700715Y-79582381D01*
X171795953Y-79582381D01*
X171938810Y-79630000D01*
X171986429Y-79677619D01*
X172843572Y-79582381D02*
X172653095Y-79582381D01*
X172557857Y-79630000D01*
X172510238Y-79677619D01*
X172415000Y-79820476D01*
X172367381Y-80010952D01*
X172367381Y-80391905D01*
X172415000Y-80487143D01*
X172462619Y-80534762D01*
X172557857Y-80582381D01*
X172748334Y-80582381D01*
X172843572Y-80534762D01*
X172891191Y-80487143D01*
X172938810Y-80391905D01*
X172938810Y-80153810D01*
X172891191Y-80058571D01*
X172843572Y-80010952D01*
X172748334Y-79963333D01*
X172557857Y-79963333D01*
X172462619Y-80010952D01*
X172415000Y-80058571D01*
X172367381Y-80153810D01*
X188938810Y-80582381D02*
X188938810Y-79582381D01*
X189986429Y-80487143D02*
X189938810Y-80534762D01*
X189795953Y-80582381D01*
X189700715Y-80582381D01*
X189557857Y-80534762D01*
X189462619Y-80439524D01*
X189415000Y-80344286D01*
X189367381Y-80153810D01*
X189367381Y-80010952D01*
X189415000Y-79820476D01*
X189462619Y-79725238D01*
X189557857Y-79630000D01*
X189700715Y-79582381D01*
X189795953Y-79582381D01*
X189938810Y-79630000D01*
X189986429Y-79677619D01*
X190319762Y-79582381D02*
X190986429Y-79582381D01*
X190557857Y-80582381D01*
X206938810Y-80582381D02*
X206938810Y-79582381D01*
X207986429Y-80487143D02*
X207938810Y-80534762D01*
X207795953Y-80582381D01*
X207700715Y-80582381D01*
X207557857Y-80534762D01*
X207462619Y-80439524D01*
X207415000Y-80344286D01*
X207367381Y-80153810D01*
X207367381Y-80010952D01*
X207415000Y-79820476D01*
X207462619Y-79725238D01*
X207557857Y-79630000D01*
X207700715Y-79582381D01*
X207795953Y-79582381D01*
X207938810Y-79630000D01*
X207986429Y-79677619D01*
X208557857Y-80010952D02*
X208462619Y-79963333D01*
X208415000Y-79915714D01*
X208367381Y-79820476D01*
X208367381Y-79772857D01*
X208415000Y-79677619D01*
X208462619Y-79630000D01*
X208557857Y-79582381D01*
X208748334Y-79582381D01*
X208843572Y-79630000D01*
X208891191Y-79677619D01*
X208938810Y-79772857D01*
X208938810Y-79820476D01*
X208891191Y-79915714D01*
X208843572Y-79963333D01*
X208748334Y-80010952D01*
X208557857Y-80010952D01*
X208462619Y-80058571D01*
X208415000Y-80106190D01*
X208367381Y-80201429D01*
X208367381Y-80391905D01*
X208415000Y-80487143D01*
X208462619Y-80534762D01*
X208557857Y-80582381D01*
X208748334Y-80582381D01*
X208843572Y-80534762D01*
X208891191Y-80487143D01*
X208938810Y-80391905D01*
X208938810Y-80201429D01*
X208891191Y-80106190D01*
X208843572Y-80058571D01*
X208748334Y-80010952D01*
X207717381Y-101922857D02*
X207241190Y-102256191D01*
X207717381Y-102494286D02*
X206717381Y-102494286D01*
X206717381Y-102113333D01*
X206765000Y-102018095D01*
X206812619Y-101970476D01*
X206907857Y-101922857D01*
X207050714Y-101922857D01*
X207145952Y-101970476D01*
X207193571Y-102018095D01*
X207241190Y-102113333D01*
X207241190Y-102494286D01*
X207717381Y-100970476D02*
X207717381Y-101541905D01*
X207717381Y-101256191D02*
X206717381Y-101256191D01*
X206860238Y-101351429D01*
X206955476Y-101446667D01*
X207003095Y-101541905D01*
X207050714Y-100113333D02*
X207717381Y-100113333D01*
X206669762Y-100351429D02*
X207384048Y-100589524D01*
X207384048Y-99970476D01*
X213812381Y-101927857D02*
X213336190Y-102261191D01*
X213812381Y-102499286D02*
X212812381Y-102499286D01*
X212812381Y-102118333D01*
X212860000Y-102023095D01*
X212907619Y-101975476D01*
X213002857Y-101927857D01*
X213145714Y-101927857D01*
X213240952Y-101975476D01*
X213288571Y-102023095D01*
X213336190Y-102118333D01*
X213336190Y-102499286D01*
X213812381Y-100975476D02*
X213812381Y-101546905D01*
X213812381Y-101261191D02*
X212812381Y-101261191D01*
X212955238Y-101356429D01*
X213050476Y-101451667D01*
X213098095Y-101546905D01*
X212812381Y-100070714D02*
X212812381Y-100546905D01*
X213288571Y-100594524D01*
X213240952Y-100546905D01*
X213193333Y-100451667D01*
X213193333Y-100213571D01*
X213240952Y-100118333D01*
X213288571Y-100070714D01*
X213383810Y-100023095D01*
X213621905Y-100023095D01*
X213717143Y-100070714D01*
X213764762Y-100118333D01*
X213812381Y-100213571D01*
X213812381Y-100451667D01*
X213764762Y-100546905D01*
X213717143Y-100594524D01*
X215074667Y-105227381D02*
X214741333Y-104751190D01*
X214503238Y-105227381D02*
X214503238Y-104227381D01*
X214884191Y-104227381D01*
X214979429Y-104275000D01*
X215027048Y-104322619D01*
X215074667Y-104417857D01*
X215074667Y-104560714D01*
X215027048Y-104655952D01*
X214979429Y-104703571D01*
X214884191Y-104751190D01*
X214503238Y-104751190D01*
X215503238Y-104703571D02*
X215836572Y-104703571D01*
X215979429Y-105227381D02*
X215503238Y-105227381D01*
X215503238Y-104227381D01*
X215979429Y-104227381D01*
X216741334Y-104703571D02*
X216408000Y-104703571D01*
X216408000Y-105227381D02*
X216408000Y-104227381D01*
X216884191Y-104227381D01*
X217408000Y-104227381D02*
X217408000Y-104465476D01*
X217169905Y-104370238D02*
X217408000Y-104465476D01*
X217646096Y-104370238D01*
X217265143Y-104655952D02*
X217408000Y-104465476D01*
X217550858Y-104655952D01*
X218169905Y-104227381D02*
X218169905Y-104465476D01*
X217931810Y-104370238D02*
X218169905Y-104465476D01*
X218408001Y-104370238D01*
X218027048Y-104655952D02*
X218169905Y-104465476D01*
X218312763Y-104655952D01*
%LPC*%
D17*
X202389700Y-111950360D03*
X192204300Y-111950360D03*
X191152740Y-109179220D03*
X191510880Y-106240440D03*
X193192360Y-103802040D03*
X195816180Y-102425360D03*
X198777820Y-102425360D03*
X201401640Y-103802040D03*
X203083120Y-106240440D03*
X203441260Y-109179220D03*
X197297000Y-114622440D03*
X200172280Y-113913780D03*
X194421720Y-113913780D03*
X184889700Y-111950360D03*
X174704300Y-111950360D03*
X173652740Y-109179220D03*
X174010880Y-106240440D03*
X175692360Y-103802040D03*
X178316180Y-102425360D03*
X181277820Y-102425360D03*
X183901640Y-103802040D03*
X185583120Y-106240440D03*
X185941260Y-109179220D03*
X179797000Y-114622440D03*
X182672280Y-113913780D03*
X176921720Y-113913780D03*
X157380500Y-111955580D03*
X147195100Y-111955580D03*
X146143540Y-109184440D03*
X146501680Y-106245660D03*
X148183160Y-103807260D03*
X150806980Y-102430580D03*
X153768620Y-102430580D03*
X156392440Y-103807260D03*
X158073920Y-106245660D03*
X158432060Y-109184440D03*
X152287800Y-114627660D03*
X155163080Y-113919000D03*
X149412520Y-113919000D03*
X139880500Y-111955580D03*
X129695100Y-111955580D03*
X128643540Y-109184440D03*
X129001680Y-106245660D03*
X130683160Y-103807260D03*
X133306980Y-102430580D03*
X136268620Y-102430580D03*
X138892440Y-103807260D03*
X140573920Y-106245660D03*
X140932060Y-109184440D03*
X134787800Y-114627660D03*
X137663080Y-113919000D03*
X131912520Y-113919000D03*
X112366700Y-111950360D03*
X102181300Y-111950360D03*
X101129740Y-109179220D03*
X101487880Y-106240440D03*
X103169360Y-103802040D03*
X105793180Y-102425360D03*
X108754820Y-102425360D03*
X111378640Y-103802040D03*
X113060120Y-106240440D03*
X113418260Y-109179220D03*
X107274000Y-114622440D03*
X110149280Y-113913780D03*
X104398720Y-113913780D03*
X94866700Y-111950360D03*
X84681300Y-111950360D03*
X83629740Y-109179220D03*
X83987880Y-106240440D03*
X85669360Y-103802040D03*
X88293180Y-102425360D03*
X91254820Y-102425360D03*
X93878640Y-103802040D03*
X95560120Y-106240440D03*
X95918260Y-109179220D03*
X89774000Y-114622440D03*
X92649280Y-113913780D03*
X86898720Y-113913780D03*
D18*
X90889000Y-107696000D03*
X88689000Y-107696000D03*
X108351500Y-107696000D03*
X106151500Y-107696000D03*
X198394500Y-107696000D03*
X196194500Y-107696000D03*
X135847000Y-107696000D03*
X133647000Y-107696000D03*
X180868500Y-107696000D03*
X178668500Y-107696000D03*
X153500000Y-107696000D03*
X151300000Y-107696000D03*
D19*
X77215000Y-81915000D03*
X77215000Y-83185000D03*
X77215000Y-84455000D03*
X77215000Y-85725000D03*
X77215000Y-86995000D03*
X77215000Y-88265000D03*
X77215000Y-89535000D03*
X77215000Y-90805000D03*
X77215000Y-92075000D03*
X77215000Y-93345000D03*
X86615000Y-93345000D03*
X86615000Y-92075000D03*
X86615000Y-90805000D03*
X86615000Y-89535000D03*
X86615000Y-88265000D03*
X86615000Y-86995000D03*
X86615000Y-85725000D03*
X86615000Y-84455000D03*
X86615000Y-83185000D03*
X86615000Y-81915000D03*
X95215000Y-81915000D03*
X95215000Y-83185000D03*
X95215000Y-84455000D03*
X95215000Y-85725000D03*
X95215000Y-86995000D03*
X95215000Y-88265000D03*
X95215000Y-89535000D03*
X95215000Y-90805000D03*
X95215000Y-92075000D03*
X95215000Y-93345000D03*
X104615000Y-93345000D03*
X104615000Y-92075000D03*
X104615000Y-90805000D03*
X104615000Y-89535000D03*
X104615000Y-88265000D03*
X104615000Y-86995000D03*
X104615000Y-85725000D03*
X104615000Y-84455000D03*
X104615000Y-83185000D03*
X104615000Y-81915000D03*
X113215000Y-81915000D03*
X113215000Y-83185000D03*
X113215000Y-84455000D03*
X113215000Y-85725000D03*
X113215000Y-86995000D03*
X113215000Y-88265000D03*
X113215000Y-89535000D03*
X113215000Y-90805000D03*
X113215000Y-92075000D03*
X113215000Y-93345000D03*
X122615000Y-93345000D03*
X122615000Y-92075000D03*
X122615000Y-90805000D03*
X122615000Y-89535000D03*
X122615000Y-88265000D03*
X122615000Y-86995000D03*
X122615000Y-85725000D03*
X122615000Y-84455000D03*
X122615000Y-83185000D03*
X122615000Y-81915000D03*
X131215000Y-81915000D03*
X131215000Y-83185000D03*
X131215000Y-84455000D03*
X131215000Y-85725000D03*
X131215000Y-86995000D03*
X131215000Y-88265000D03*
X131215000Y-89535000D03*
X131215000Y-90805000D03*
X131215000Y-92075000D03*
X131215000Y-93345000D03*
X140615000Y-93345000D03*
X140615000Y-92075000D03*
X140615000Y-90805000D03*
X140615000Y-89535000D03*
X140615000Y-88265000D03*
X140615000Y-86995000D03*
X140615000Y-85725000D03*
X140615000Y-84455000D03*
X140615000Y-83185000D03*
X140615000Y-81915000D03*
X149215000Y-81915000D03*
X149215000Y-83185000D03*
X149215000Y-84455000D03*
X149215000Y-85725000D03*
X149215000Y-86995000D03*
X149215000Y-88265000D03*
X149215000Y-89535000D03*
X149215000Y-90805000D03*
X149215000Y-92075000D03*
X149215000Y-93345000D03*
X158615000Y-93345000D03*
X158615000Y-92075000D03*
X158615000Y-90805000D03*
X158615000Y-89535000D03*
X158615000Y-88265000D03*
X158615000Y-86995000D03*
X158615000Y-85725000D03*
X158615000Y-84455000D03*
X158615000Y-83185000D03*
X158615000Y-81915000D03*
X167215000Y-81915000D03*
X167215000Y-83185000D03*
X167215000Y-84455000D03*
X167215000Y-85725000D03*
X167215000Y-86995000D03*
X167215000Y-88265000D03*
X167215000Y-89535000D03*
X167215000Y-90805000D03*
X167215000Y-92075000D03*
X167215000Y-93345000D03*
X176615000Y-93345000D03*
X176615000Y-92075000D03*
X176615000Y-90805000D03*
X176615000Y-89535000D03*
X176615000Y-88265000D03*
X176615000Y-86995000D03*
X176615000Y-85725000D03*
X176615000Y-84455000D03*
X176615000Y-83185000D03*
X176615000Y-81915000D03*
X185215000Y-81915000D03*
X185215000Y-83185000D03*
X185215000Y-84455000D03*
X185215000Y-85725000D03*
X185215000Y-86995000D03*
X185215000Y-88265000D03*
X185215000Y-89535000D03*
X185215000Y-90805000D03*
X185215000Y-92075000D03*
X185215000Y-93345000D03*
X194615000Y-93345000D03*
X194615000Y-92075000D03*
X194615000Y-90805000D03*
X194615000Y-89535000D03*
X194615000Y-88265000D03*
X194615000Y-86995000D03*
X194615000Y-85725000D03*
X194615000Y-84455000D03*
X194615000Y-83185000D03*
X194615000Y-81915000D03*
X203215000Y-81915000D03*
X203215000Y-83185000D03*
X203215000Y-84455000D03*
X203215000Y-85725000D03*
X203215000Y-86995000D03*
X203215000Y-88265000D03*
X203215000Y-89535000D03*
X203215000Y-90805000D03*
X203215000Y-92075000D03*
X203215000Y-93345000D03*
X212615000Y-93345000D03*
X212615000Y-92075000D03*
X212615000Y-90805000D03*
X212615000Y-89535000D03*
X212615000Y-88265000D03*
X212615000Y-86995000D03*
X212615000Y-85725000D03*
X212615000Y-84455000D03*
X212615000Y-83185000D03*
X212615000Y-81915000D03*
D20*
X68580000Y-116840000D03*
X68580000Y-76840080D03*
X218579700Y-76840080D03*
X218579700Y-116840000D03*
D21*
X218578740Y-98111260D03*
D22*
X218578740Y-95571260D03*
D21*
X68578740Y-103191260D03*
D22*
X68578740Y-100651260D03*
X68578740Y-98111260D03*
X68578740Y-95571260D03*
X68578740Y-93031260D03*
X68578740Y-90491260D03*
D23*
X208915000Y-102230000D03*
X208915000Y-100330000D03*
X211455000Y-102235000D03*
X211455000Y-100335000D03*
M02*
