M48
;DRILL file {KiCad (5.0.1)-4} date 08.12.2018 00:32:42
;FORMAT={-:-/ absolute / metric / decimal}
FMAT,2
METRIC,TZ
T1C0.400
T2C0.838
T3C1.000
%
G90
G05
M71
T1
X65.786Y-107.95
X72.136Y-113.284
X72.653Y-85.438
X74.676Y-74.422
X74.676Y-116.84
X74.676Y-120.396
X76.454Y-99.568
X77.724Y-99.568
X79.375Y-84.455
X79.676Y-74.422
X79.676Y-120.396
X80.518Y-81.915
X82.55Y-83.058
X82.55Y-87.376
X82.55Y-93.218
X82.55Y-96.012
X84.455Y-90.805
X84.455Y-92.075
X84.676Y-74.422
X84.676Y-120.396
X87.122Y-106.298
X89.676Y-74.422
X89.676Y-120.396
X89.916Y-81.915
X90.65Y-108.333
X94.676Y-74.422
X94.676Y-120.396
X97.79Y-83.185
X98.298Y-104.902
X98.298Y-107.95
X98.298Y-112.776
X98.298Y-115.824
X99.06Y-81.915
X99.676Y-74.422
X99.676Y-120.396
X101.092Y-87.376
X101.092Y-93.218
X101.092Y-96.012
X102.235Y-90.805
X102.235Y-92.075
X104.676Y-74.422
X104.676Y-120.396
X106.68Y-84.455
X107.696Y-106.298
X107.95Y-81.915
X109.676Y-74.422
X109.676Y-120.396
X111.219Y-108.286
X114.676Y-74.422
X114.676Y-120.396
X114.935Y-84.455
X116.205Y-81.915
X118.596Y-96.058
X118.596Y-87.377
X118.618Y-93.218
X119.676Y-74.422
X119.676Y-120.396
X120.015Y-90.805
X120.015Y-92.075
X120.858Y-104.94
X120.858Y-107.912
X120.858Y-115.756
X120.88Y-112.828
X120.904Y-99.314
X121.933Y-100.877
X124.676Y-74.422
X124.676Y-120.396
X125.017Y-83.149
X126.365Y-81.915
X129.676Y-74.422
X129.676Y-120.396
X132.334Y-106.298
X133.35Y-83.185
X134.62Y-81.915
X134.676Y-74.422
X134.676Y-120.396
X135.752Y-108.326
X136.398Y-87.376
X136.398Y-93.218
X136.398Y-96.012
X137.922Y-99.314
X138.43Y-90.805
X138.43Y-92.075
X139.676Y-74.422
X139.676Y-120.396
X142.875Y-84.455
X143.51Y-104.902
X143.51Y-107.95
X143.51Y-112.776
X143.51Y-115.824
X144.145Y-81.915
X144.676Y-74.422
X144.676Y-120.396
X149.676Y-74.422
X149.676Y-120.396
X151.13Y-84.455
X152.4Y-81.915
X152.654Y-106.298
X154.432Y-87.376
X154.432Y-93.218
X154.432Y-96.012
X154.676Y-74.422
X154.676Y-120.396
X156.21Y-90.805
X156.21Y-92.075
X156.464Y-108.312
X159.676Y-74.422
X159.676Y-120.396
X161.29Y-83.185
X161.925Y-81.915
X164.676Y-74.422
X164.676Y-120.396
X165.691Y-112.713
X165.691Y-115.806
X165.714Y-107.92
X166.421Y-104.752
X169.545Y-83.185
X169.676Y-74.422
X169.676Y-120.396
X170.434Y-99.314
X170.815Y-81.915
X172.445Y-96.019
X172.466Y-87.376
X172.466Y-93.218
X174.625Y-90.805
X174.625Y-92.075
X174.676Y-74.422
X174.676Y-120.396
X177.038Y-106.298
X178.435Y-84.455
X179.676Y-74.422
X179.676Y-120.396
X180.846Y-108.343
X180.975Y-81.915
X184.676Y-74.422
X184.676Y-120.396
X187.325Y-84.455
X188.595Y-81.915
X188.722Y-102.616
X188.722Y-104.902
X188.722Y-107.95
X188.722Y-112.776
X188.722Y-115.824
X189.676Y-74.422
X189.676Y-120.396
X190.754Y-87.376
X190.754Y-93.218
X190.754Y-96.012
X190.754Y-99.314
X192.405Y-90.805
X192.405Y-92.075
X194.676Y-74.422
X194.676Y-120.396
X197.485Y-80.645
X197.485Y-83.185
X197.673Y-106.315
X198.755Y-81.915
X199.676Y-74.422
X199.676Y-120.396
X201.189Y-108.291
X204.676Y-74.422
X204.676Y-120.396
X208.28Y-99.314
X208.534Y-87.376
X208.534Y-93.218
X208.534Y-96.012
X209.676Y-74.422
X209.676Y-120.396
X210.28Y-101.646
X210.82Y-90.805
X210.82Y-92.075
X214.63Y-84.455
X214.63Y-112.776
X214.63Y-115.946
X214.676Y-74.422
X214.676Y-120.396
T2
X127.144Y-107.691
X127.502Y-110.63
X128.195Y-104.92
X129.183Y-113.068
X130.413Y-102.956
X131.807Y-114.445
X133.288Y-102.248
X134.769Y-114.445
X136.163Y-102.956
X137.392Y-113.068
X138.38Y-104.92
X139.074Y-110.63
X139.432Y-107.691
X82.13Y-107.691
X82.488Y-110.63
X83.181Y-104.92
X84.169Y-113.068
X85.399Y-102.956
X86.793Y-114.445
X88.274Y-102.248
X89.755Y-114.445
X91.149Y-102.956
X92.379Y-113.068
X93.367Y-104.92
X94.06Y-110.63
X94.418Y-107.691
X102.63Y-107.691
X102.988Y-110.63
X103.681Y-104.92
X104.669Y-113.068
X105.899Y-102.956
X107.293Y-114.445
X108.774Y-102.248
X110.255Y-114.445
X111.649Y-102.956
X112.879Y-113.068
X113.867Y-104.92
X114.56Y-110.63
X114.918Y-107.691
X172.153Y-107.691
X172.511Y-110.63
X173.204Y-104.92
X174.192Y-113.068
X175.422Y-102.956
X176.816Y-114.445
X178.297Y-102.248
X179.778Y-114.445
X181.172Y-102.956
X182.402Y-113.068
X183.39Y-104.92
X184.083Y-110.63
X184.441Y-107.691
X147.644Y-107.691
X148.002Y-110.63
X148.695Y-104.92
X149.683Y-113.068
X150.913Y-102.956
X152.307Y-114.445
X153.788Y-102.248
X155.269Y-114.445
X156.663Y-102.956
X157.892Y-113.068
X158.88Y-104.92
X159.574Y-110.63
X159.932Y-107.691
X192.653Y-107.691
X193.011Y-110.63
X193.704Y-104.92
X194.692Y-113.068
X195.922Y-102.956
X197.316Y-114.445
X198.797Y-102.248
X200.278Y-114.445
X201.672Y-102.956
X202.902Y-113.068
X203.89Y-104.92
X204.583Y-110.63
X204.941Y-107.691
T3
X68.754Y-89.3
X68.754Y-91.84
X68.754Y-94.38
X68.754Y-96.92
X68.754Y-99.46
X68.754Y-102.
X68.754Y-104.54
X218.754Y-95.65
X218.754Y-98.19
T0
M30
