G04 #@! TF.GenerationSoftware,KiCad,Pcbnew,(5.0.1)-4*
G04 #@! TF.CreationDate,2018-12-08T00:32:36+01:00*
G04 #@! TF.ProjectId,IN14_Display,494E31345F446973706C61792E6B6963,rev?*
G04 #@! TF.SameCoordinates,Original*
G04 #@! TF.FileFunction,Legend,Bot*
G04 #@! TF.FilePolarity,Positive*
%FSLAX46Y46*%
G04 Gerber Fmt 4.6, Leading zero omitted, Abs format (unit mm)*
G04 Created by KiCad (PCBNEW (5.0.1)-4) date 08.12.2018 00:32:36*
%MOMM*%
%LPD*%
G01*
G04 APERTURE LIST*
%ADD10C,0.300000*%
%ADD11C,0.120000*%
%ADD12C,0.150000*%
G04 APERTURE END LIST*
D10*
X154914857Y-78402571D02*
X154914857Y-76902571D01*
X154200571Y-78402571D02*
X154200571Y-76902571D01*
X153343428Y-78402571D01*
X153343428Y-76902571D01*
X151843428Y-78402571D02*
X152700571Y-78402571D01*
X152272000Y-78402571D02*
X152272000Y-76902571D01*
X152414857Y-77116857D01*
X152557714Y-77259714D01*
X152700571Y-77331142D01*
X150557714Y-77402571D02*
X150557714Y-78402571D01*
X150914857Y-76831142D02*
X151272000Y-77902571D01*
X150343428Y-77902571D01*
X148629142Y-78402571D02*
X148629142Y-76902571D01*
X148272000Y-76902571D01*
X148057714Y-76974000D01*
X147914857Y-77116857D01*
X147843428Y-77259714D01*
X147772000Y-77545428D01*
X147772000Y-77759714D01*
X147843428Y-78045428D01*
X147914857Y-78188285D01*
X148057714Y-78331142D01*
X148272000Y-78402571D01*
X148629142Y-78402571D01*
X147129142Y-78402571D02*
X147129142Y-77402571D01*
X147129142Y-76902571D02*
X147200571Y-76974000D01*
X147129142Y-77045428D01*
X147057714Y-76974000D01*
X147129142Y-76902571D01*
X147129142Y-77045428D01*
X146486285Y-78331142D02*
X146343428Y-78402571D01*
X146057714Y-78402571D01*
X145914857Y-78331142D01*
X145843428Y-78188285D01*
X145843428Y-78116857D01*
X145914857Y-77974000D01*
X146057714Y-77902571D01*
X146272000Y-77902571D01*
X146414857Y-77831142D01*
X146486285Y-77688285D01*
X146486285Y-77616857D01*
X146414857Y-77474000D01*
X146272000Y-77402571D01*
X146057714Y-77402571D01*
X145914857Y-77474000D01*
X145200571Y-77402571D02*
X145200571Y-78902571D01*
X145200571Y-77474000D02*
X145057714Y-77402571D01*
X144772000Y-77402571D01*
X144629142Y-77474000D01*
X144557714Y-77545428D01*
X144486285Y-77688285D01*
X144486285Y-78116857D01*
X144557714Y-78259714D01*
X144629142Y-78331142D01*
X144772000Y-78402571D01*
X145057714Y-78402571D01*
X145200571Y-78331142D01*
X143629142Y-78402571D02*
X143772000Y-78331142D01*
X143843428Y-78188285D01*
X143843428Y-76902571D01*
X142414857Y-78402571D02*
X142414857Y-77616857D01*
X142486285Y-77474000D01*
X142629142Y-77402571D01*
X142914857Y-77402571D01*
X143057714Y-77474000D01*
X142414857Y-78331142D02*
X142557714Y-78402571D01*
X142914857Y-78402571D01*
X143057714Y-78331142D01*
X143129142Y-78188285D01*
X143129142Y-78045428D01*
X143057714Y-77902571D01*
X142914857Y-77831142D01*
X142557714Y-77831142D01*
X142414857Y-77759714D01*
X141843428Y-77402571D02*
X141486285Y-78402571D01*
X141129142Y-77402571D02*
X141486285Y-78402571D01*
X141629142Y-78759714D01*
X141700571Y-78831142D01*
X141843428Y-78902571D01*
X138914857Y-77616857D02*
X138700571Y-77688285D01*
X138629142Y-77759714D01*
X138557714Y-77902571D01*
X138557714Y-78116857D01*
X138629142Y-78259714D01*
X138700571Y-78331142D01*
X138843428Y-78402571D01*
X139414857Y-78402571D01*
X139414857Y-76902571D01*
X138914857Y-76902571D01*
X138772000Y-76974000D01*
X138700571Y-77045428D01*
X138629142Y-77188285D01*
X138629142Y-77331142D01*
X138700571Y-77474000D01*
X138772000Y-77545428D01*
X138914857Y-77616857D01*
X139414857Y-77616857D01*
X137700571Y-78402571D02*
X137843428Y-78331142D01*
X137914857Y-78259714D01*
X137986285Y-78116857D01*
X137986285Y-77688285D01*
X137914857Y-77545428D01*
X137843428Y-77474000D01*
X137700571Y-77402571D01*
X137486285Y-77402571D01*
X137343428Y-77474000D01*
X137272000Y-77545428D01*
X137200571Y-77688285D01*
X137200571Y-78116857D01*
X137272000Y-78259714D01*
X137343428Y-78331142D01*
X137486285Y-78402571D01*
X137700571Y-78402571D01*
X135914857Y-78402571D02*
X135914857Y-77616857D01*
X135986285Y-77474000D01*
X136129142Y-77402571D01*
X136414857Y-77402571D01*
X136557714Y-77474000D01*
X135914857Y-78331142D02*
X136057714Y-78402571D01*
X136414857Y-78402571D01*
X136557714Y-78331142D01*
X136629142Y-78188285D01*
X136629142Y-78045428D01*
X136557714Y-77902571D01*
X136414857Y-77831142D01*
X136057714Y-77831142D01*
X135914857Y-77759714D01*
X135200571Y-78402571D02*
X135200571Y-77402571D01*
X135200571Y-77688285D02*
X135129142Y-77545428D01*
X135057714Y-77474000D01*
X134914857Y-77402571D01*
X134772000Y-77402571D01*
X133629142Y-78402571D02*
X133629142Y-76902571D01*
X133629142Y-78331142D02*
X133772000Y-78402571D01*
X134057714Y-78402571D01*
X134200571Y-78331142D01*
X134272000Y-78259714D01*
X134343428Y-78116857D01*
X134343428Y-77688285D01*
X134272000Y-77545428D01*
X134200571Y-77474000D01*
X134057714Y-77402571D01*
X133772000Y-77402571D01*
X133629142Y-77474000D01*
D11*
G04 #@! TO.C,R1*
X89145000Y-99340000D02*
X89145000Y-98140000D01*
X87385000Y-98140000D02*
X87385000Y-99340000D01*
G04 #@! TO.C,R2*
X109592000Y-99340000D02*
X109592000Y-98140000D01*
X107832000Y-98140000D02*
X107832000Y-99340000D01*
G04 #@! TO.C,R3*
X134230000Y-99340000D02*
X134230000Y-98140000D01*
X132470000Y-98140000D02*
X132470000Y-99340000D01*
G04 #@! TO.C,R4*
X154677000Y-99340000D02*
X154677000Y-98140000D01*
X152917000Y-98140000D02*
X152917000Y-99340000D01*
G04 #@! TO.C,R5*
X179188000Y-99340000D02*
X179188000Y-98140000D01*
X177428000Y-98140000D02*
X177428000Y-99340000D01*
G04 #@! TO.C,R6*
X199635000Y-99340000D02*
X199635000Y-98140000D01*
X197875000Y-98140000D02*
X197875000Y-99340000D01*
G04 #@! TO.C,R7*
X87258000Y-108620000D02*
X87258000Y-109820000D01*
X89018000Y-109820000D02*
X89018000Y-108620000D01*
G04 #@! TO.C,R8*
X107832000Y-108620000D02*
X107832000Y-109820000D01*
X109592000Y-109820000D02*
X109592000Y-108620000D01*
G04 #@! TO.C,R9*
X132216000Y-108620000D02*
X132216000Y-109820000D01*
X133976000Y-109820000D02*
X133976000Y-108620000D01*
G04 #@! TO.C,R10*
X152790000Y-108620000D02*
X152790000Y-109820000D01*
X154550000Y-109820000D02*
X154550000Y-108620000D01*
G04 #@! TO.C,R11*
X177428000Y-108620000D02*
X177428000Y-109820000D01*
X179188000Y-109820000D02*
X179188000Y-108620000D01*
G04 #@! TO.C,R12*
X198002000Y-108620000D02*
X198002000Y-109820000D01*
X199762000Y-109820000D02*
X199762000Y-108620000D01*
G04 #@! TO.C,R13*
X72780000Y-102270000D02*
X72780000Y-103470000D01*
X74540000Y-103470000D02*
X74540000Y-102270000D01*
G04 #@! TO.C,P1*
X217424000Y-94320000D02*
X220084000Y-94320000D01*
X217424000Y-96920000D02*
X217424000Y-94320000D01*
X220084000Y-96920000D02*
X220084000Y-94320000D01*
X217424000Y-96920000D02*
X220084000Y-96920000D01*
X217424000Y-98190000D02*
X217424000Y-99520000D01*
X217424000Y-99520000D02*
X218754000Y-99520000D01*
G04 #@! TO.C,Q1*
X77722000Y-101290000D02*
X77722000Y-102220000D01*
X77722000Y-104450000D02*
X77722000Y-103520000D01*
X77722000Y-104450000D02*
X75562000Y-104450000D01*
X77722000Y-101290000D02*
X76262000Y-101290000D01*
G04 #@! TO.C,J1*
X67424000Y-87970000D02*
X70084000Y-87970000D01*
X67424000Y-103270000D02*
X67424000Y-87970000D01*
X70084000Y-103270000D02*
X70084000Y-87970000D01*
X67424000Y-103270000D02*
X70084000Y-103270000D01*
X67424000Y-104540000D02*
X67424000Y-105870000D01*
X67424000Y-105870000D02*
X68754000Y-105870000D01*
G04 #@! TO.C,R1*
D12*
X87067380Y-98573333D02*
X86591190Y-98240000D01*
X87067380Y-98001904D02*
X86067380Y-98001904D01*
X86067380Y-98382857D01*
X86115000Y-98478095D01*
X86162619Y-98525714D01*
X86257857Y-98573333D01*
X86400714Y-98573333D01*
X86495952Y-98525714D01*
X86543571Y-98478095D01*
X86591190Y-98382857D01*
X86591190Y-98001904D01*
X87067380Y-99525714D02*
X87067380Y-98954285D01*
X87067380Y-99240000D02*
X86067380Y-99240000D01*
X86210238Y-99144761D01*
X86305476Y-99049523D01*
X86353095Y-98954285D01*
G04 #@! TO.C,R2*
X107514380Y-98573333D02*
X107038190Y-98240000D01*
X107514380Y-98001904D02*
X106514380Y-98001904D01*
X106514380Y-98382857D01*
X106562000Y-98478095D01*
X106609619Y-98525714D01*
X106704857Y-98573333D01*
X106847714Y-98573333D01*
X106942952Y-98525714D01*
X106990571Y-98478095D01*
X107038190Y-98382857D01*
X107038190Y-98001904D01*
X106609619Y-98954285D02*
X106562000Y-99001904D01*
X106514380Y-99097142D01*
X106514380Y-99335238D01*
X106562000Y-99430476D01*
X106609619Y-99478095D01*
X106704857Y-99525714D01*
X106800095Y-99525714D01*
X106942952Y-99478095D01*
X107514380Y-98906666D01*
X107514380Y-99525714D01*
G04 #@! TO.C,R3*
X132152380Y-98573333D02*
X131676190Y-98240000D01*
X132152380Y-98001904D02*
X131152380Y-98001904D01*
X131152380Y-98382857D01*
X131200000Y-98478095D01*
X131247619Y-98525714D01*
X131342857Y-98573333D01*
X131485714Y-98573333D01*
X131580952Y-98525714D01*
X131628571Y-98478095D01*
X131676190Y-98382857D01*
X131676190Y-98001904D01*
X131152380Y-98906666D02*
X131152380Y-99525714D01*
X131533333Y-99192380D01*
X131533333Y-99335238D01*
X131580952Y-99430476D01*
X131628571Y-99478095D01*
X131723809Y-99525714D01*
X131961904Y-99525714D01*
X132057142Y-99478095D01*
X132104761Y-99430476D01*
X132152380Y-99335238D01*
X132152380Y-99049523D01*
X132104761Y-98954285D01*
X132057142Y-98906666D01*
G04 #@! TO.C,R4*
X152599380Y-98573333D02*
X152123190Y-98240000D01*
X152599380Y-98001904D02*
X151599380Y-98001904D01*
X151599380Y-98382857D01*
X151647000Y-98478095D01*
X151694619Y-98525714D01*
X151789857Y-98573333D01*
X151932714Y-98573333D01*
X152027952Y-98525714D01*
X152075571Y-98478095D01*
X152123190Y-98382857D01*
X152123190Y-98001904D01*
X151932714Y-99430476D02*
X152599380Y-99430476D01*
X151551761Y-99192380D02*
X152266047Y-98954285D01*
X152266047Y-99573333D01*
G04 #@! TO.C,R5*
X177110380Y-98573333D02*
X176634190Y-98240000D01*
X177110380Y-98001904D02*
X176110380Y-98001904D01*
X176110380Y-98382857D01*
X176158000Y-98478095D01*
X176205619Y-98525714D01*
X176300857Y-98573333D01*
X176443714Y-98573333D01*
X176538952Y-98525714D01*
X176586571Y-98478095D01*
X176634190Y-98382857D01*
X176634190Y-98001904D01*
X176110380Y-99478095D02*
X176110380Y-99001904D01*
X176586571Y-98954285D01*
X176538952Y-99001904D01*
X176491333Y-99097142D01*
X176491333Y-99335238D01*
X176538952Y-99430476D01*
X176586571Y-99478095D01*
X176681809Y-99525714D01*
X176919904Y-99525714D01*
X177015142Y-99478095D01*
X177062761Y-99430476D01*
X177110380Y-99335238D01*
X177110380Y-99097142D01*
X177062761Y-99001904D01*
X177015142Y-98954285D01*
G04 #@! TO.C,R6*
X197557380Y-98573333D02*
X197081190Y-98240000D01*
X197557380Y-98001904D02*
X196557380Y-98001904D01*
X196557380Y-98382857D01*
X196605000Y-98478095D01*
X196652619Y-98525714D01*
X196747857Y-98573333D01*
X196890714Y-98573333D01*
X196985952Y-98525714D01*
X197033571Y-98478095D01*
X197081190Y-98382857D01*
X197081190Y-98001904D01*
X196557380Y-99430476D02*
X196557380Y-99240000D01*
X196605000Y-99144761D01*
X196652619Y-99097142D01*
X196795476Y-99001904D01*
X196985952Y-98954285D01*
X197366904Y-98954285D01*
X197462142Y-99001904D01*
X197509761Y-99049523D01*
X197557380Y-99144761D01*
X197557380Y-99335238D01*
X197509761Y-99430476D01*
X197462142Y-99478095D01*
X197366904Y-99525714D01*
X197128809Y-99525714D01*
X197033571Y-99478095D01*
X196985952Y-99430476D01*
X196938333Y-99335238D01*
X196938333Y-99144761D01*
X196985952Y-99049523D01*
X197033571Y-99001904D01*
X197128809Y-98954285D01*
G04 #@! TO.C,R7*
X86939380Y-108992333D02*
X86463190Y-108659000D01*
X86939380Y-108420904D02*
X85939380Y-108420904D01*
X85939380Y-108801857D01*
X85987000Y-108897095D01*
X86034619Y-108944714D01*
X86129857Y-108992333D01*
X86272714Y-108992333D01*
X86367952Y-108944714D01*
X86415571Y-108897095D01*
X86463190Y-108801857D01*
X86463190Y-108420904D01*
X85939380Y-109325666D02*
X85939380Y-109992333D01*
X86939380Y-109563761D01*
G04 #@! TO.C,R8*
X107513380Y-108992333D02*
X107037190Y-108659000D01*
X107513380Y-108420904D02*
X106513380Y-108420904D01*
X106513380Y-108801857D01*
X106561000Y-108897095D01*
X106608619Y-108944714D01*
X106703857Y-108992333D01*
X106846714Y-108992333D01*
X106941952Y-108944714D01*
X106989571Y-108897095D01*
X107037190Y-108801857D01*
X107037190Y-108420904D01*
X106941952Y-109563761D02*
X106894333Y-109468523D01*
X106846714Y-109420904D01*
X106751476Y-109373285D01*
X106703857Y-109373285D01*
X106608619Y-109420904D01*
X106561000Y-109468523D01*
X106513380Y-109563761D01*
X106513380Y-109754238D01*
X106561000Y-109849476D01*
X106608619Y-109897095D01*
X106703857Y-109944714D01*
X106751476Y-109944714D01*
X106846714Y-109897095D01*
X106894333Y-109849476D01*
X106941952Y-109754238D01*
X106941952Y-109563761D01*
X106989571Y-109468523D01*
X107037190Y-109420904D01*
X107132428Y-109373285D01*
X107322904Y-109373285D01*
X107418142Y-109420904D01*
X107465761Y-109468523D01*
X107513380Y-109563761D01*
X107513380Y-109754238D01*
X107465761Y-109849476D01*
X107418142Y-109897095D01*
X107322904Y-109944714D01*
X107132428Y-109944714D01*
X107037190Y-109897095D01*
X106989571Y-109849476D01*
X106941952Y-109754238D01*
G04 #@! TO.C,R9*
X131897380Y-108926333D02*
X131421190Y-108593000D01*
X131897380Y-108354904D02*
X130897380Y-108354904D01*
X130897380Y-108735857D01*
X130945000Y-108831095D01*
X130992619Y-108878714D01*
X131087857Y-108926333D01*
X131230714Y-108926333D01*
X131325952Y-108878714D01*
X131373571Y-108831095D01*
X131421190Y-108735857D01*
X131421190Y-108354904D01*
X131897380Y-109402523D02*
X131897380Y-109593000D01*
X131849761Y-109688238D01*
X131802142Y-109735857D01*
X131659285Y-109831095D01*
X131468809Y-109878714D01*
X131087857Y-109878714D01*
X130992619Y-109831095D01*
X130945000Y-109783476D01*
X130897380Y-109688238D01*
X130897380Y-109497761D01*
X130945000Y-109402523D01*
X130992619Y-109354904D01*
X131087857Y-109307285D01*
X131325952Y-109307285D01*
X131421190Y-109354904D01*
X131468809Y-109402523D01*
X131516428Y-109497761D01*
X131516428Y-109688238D01*
X131468809Y-109783476D01*
X131421190Y-109831095D01*
X131325952Y-109878714D01*
G04 #@! TO.C,R10*
X152471380Y-108638142D02*
X151995190Y-108304809D01*
X152471380Y-108066714D02*
X151471380Y-108066714D01*
X151471380Y-108447666D01*
X151519000Y-108542904D01*
X151566619Y-108590523D01*
X151661857Y-108638142D01*
X151804714Y-108638142D01*
X151899952Y-108590523D01*
X151947571Y-108542904D01*
X151995190Y-108447666D01*
X151995190Y-108066714D01*
X152471380Y-109590523D02*
X152471380Y-109019095D01*
X152471380Y-109304809D02*
X151471380Y-109304809D01*
X151614238Y-109209571D01*
X151709476Y-109114333D01*
X151757095Y-109019095D01*
X151471380Y-110209571D02*
X151471380Y-110304809D01*
X151519000Y-110400047D01*
X151566619Y-110447666D01*
X151661857Y-110495285D01*
X151852333Y-110542904D01*
X152090428Y-110542904D01*
X152280904Y-110495285D01*
X152376142Y-110447666D01*
X152423761Y-110400047D01*
X152471380Y-110304809D01*
X152471380Y-110209571D01*
X152423761Y-110114333D01*
X152376142Y-110066714D01*
X152280904Y-110019095D01*
X152090428Y-109971476D01*
X151852333Y-109971476D01*
X151661857Y-110019095D01*
X151566619Y-110066714D01*
X151519000Y-110114333D01*
X151471380Y-110209571D01*
G04 #@! TO.C,R11*
X177109380Y-108704142D02*
X176633190Y-108370809D01*
X177109380Y-108132714D02*
X176109380Y-108132714D01*
X176109380Y-108513666D01*
X176157000Y-108608904D01*
X176204619Y-108656523D01*
X176299857Y-108704142D01*
X176442714Y-108704142D01*
X176537952Y-108656523D01*
X176585571Y-108608904D01*
X176633190Y-108513666D01*
X176633190Y-108132714D01*
X177109380Y-109656523D02*
X177109380Y-109085095D01*
X177109380Y-109370809D02*
X176109380Y-109370809D01*
X176252238Y-109275571D01*
X176347476Y-109180333D01*
X176395095Y-109085095D01*
X177109380Y-110608904D02*
X177109380Y-110037476D01*
X177109380Y-110323190D02*
X176109380Y-110323190D01*
X176252238Y-110227952D01*
X176347476Y-110132714D01*
X176395095Y-110037476D01*
G04 #@! TO.C,R12*
X197683380Y-108643142D02*
X197207190Y-108309809D01*
X197683380Y-108071714D02*
X196683380Y-108071714D01*
X196683380Y-108452666D01*
X196731000Y-108547904D01*
X196778619Y-108595523D01*
X196873857Y-108643142D01*
X197016714Y-108643142D01*
X197111952Y-108595523D01*
X197159571Y-108547904D01*
X197207190Y-108452666D01*
X197207190Y-108071714D01*
X197683380Y-109595523D02*
X197683380Y-109024095D01*
X197683380Y-109309809D02*
X196683380Y-109309809D01*
X196826238Y-109214571D01*
X196921476Y-109119333D01*
X196969095Y-109024095D01*
X196778619Y-109976476D02*
X196731000Y-110024095D01*
X196683380Y-110119333D01*
X196683380Y-110357428D01*
X196731000Y-110452666D01*
X196778619Y-110500285D01*
X196873857Y-110547904D01*
X196969095Y-110547904D01*
X197111952Y-110500285D01*
X197683380Y-109928857D01*
X197683380Y-110547904D01*
G04 #@! TO.C,R13*
X72080380Y-102227142D02*
X71604190Y-101893809D01*
X72080380Y-101655714D02*
X71080380Y-101655714D01*
X71080380Y-102036666D01*
X71128000Y-102131904D01*
X71175619Y-102179523D01*
X71270857Y-102227142D01*
X71413714Y-102227142D01*
X71508952Y-102179523D01*
X71556571Y-102131904D01*
X71604190Y-102036666D01*
X71604190Y-101655714D01*
X72080380Y-103179523D02*
X72080380Y-102608095D01*
X72080380Y-102893809D02*
X71080380Y-102893809D01*
X71223238Y-102798571D01*
X71318476Y-102703333D01*
X71366095Y-102608095D01*
X71080380Y-103512857D02*
X71080380Y-104131904D01*
X71461333Y-103798571D01*
X71461333Y-103941428D01*
X71508952Y-104036666D01*
X71556571Y-104084285D01*
X71651809Y-104131904D01*
X71889904Y-104131904D01*
X71985142Y-104084285D01*
X72032761Y-104036666D01*
X72080380Y-103941428D01*
X72080380Y-103655714D01*
X72032761Y-103560476D01*
X71985142Y-103512857D01*
G04 #@! TO.C,P1*
X219492095Y-100972380D02*
X219492095Y-99972380D01*
X219111142Y-99972380D01*
X219015904Y-100020000D01*
X218968285Y-100067619D01*
X218920666Y-100162857D01*
X218920666Y-100305714D01*
X218968285Y-100400952D01*
X219015904Y-100448571D01*
X219111142Y-100496190D01*
X219492095Y-100496190D01*
X217968285Y-100972380D02*
X218539714Y-100972380D01*
X218254000Y-100972380D02*
X218254000Y-99972380D01*
X218349238Y-100115238D01*
X218444476Y-100210476D01*
X218539714Y-100258095D01*
G04 #@! TO.C,Q1*
X77057238Y-105917619D02*
X77152476Y-105870000D01*
X77247714Y-105774761D01*
X77390571Y-105631904D01*
X77485809Y-105584285D01*
X77581047Y-105584285D01*
X77533428Y-105822380D02*
X77628666Y-105774761D01*
X77723904Y-105679523D01*
X77771523Y-105489047D01*
X77771523Y-105155714D01*
X77723904Y-104965238D01*
X77628666Y-104870000D01*
X77533428Y-104822380D01*
X77342952Y-104822380D01*
X77247714Y-104870000D01*
X77152476Y-104965238D01*
X77104857Y-105155714D01*
X77104857Y-105489047D01*
X77152476Y-105679523D01*
X77247714Y-105774761D01*
X77342952Y-105822380D01*
X77533428Y-105822380D01*
X76152476Y-105822380D02*
X76723904Y-105822380D01*
X76438190Y-105822380D02*
X76438190Y-104822380D01*
X76533428Y-104965238D01*
X76628666Y-105060476D01*
X76723904Y-105108095D01*
G04 #@! TO.C,J1*
X69087333Y-106322380D02*
X69087333Y-107036666D01*
X69134952Y-107179523D01*
X69230190Y-107274761D01*
X69373047Y-107322380D01*
X69468285Y-107322380D01*
X68087333Y-107322380D02*
X68658761Y-107322380D01*
X68373047Y-107322380D02*
X68373047Y-106322380D01*
X68468285Y-106465238D01*
X68563523Y-106560476D01*
X68658761Y-106608095D01*
G04 #@! TD*
M02*
